<?xml version="1.0" encoding="UTF-8" standalone="no"?>
<!-- Created with Inkscape (http://www.inkscape.org/) -->

<svg
   xmlns:dc="http://purl.org/dc/elements/1.1/"
   xmlns:cc="http://creativecommons.org/ns#"
   xmlns:rdf="http://www.w3.org/1999/02/22-rdf-syntax-ns#"
   xmlns:svg="http://www.w3.org/2000/svg"
   xmlns="http://www.w3.org/2000/svg"
   xmlns:sodipodi="http://sodipodi.sourceforge.net/DTD/sodipodi-0.dtd"
   xmlns:inkscape="http://www.inkscape.org/namespaces/inkscape"
   id="svg3093"
   height="119.846"
   width="391.99911"
   version="1.1"
   inkscape:version="0.48.3.1 r9886"
   sodipodi:docname="signature.svg"
   inkscape:export-filename="/home/antonis/xyma/erato/jekyllsite/site/img/signature.png"
   inkscape:export-xdpi="210.07701"
   inkscape:export-ydpi="210.07701">
  <sodipodi:namedview
     pagecolor="#ffffff"
     bordercolor="#666666"
     borderopacity="1"
     objecttolerance="10"
     gridtolerance="10"
     guidetolerance="10"
     inkscape:pageopacity="0"
     inkscape:pageshadow="2"
     inkscape:window-width="1280"
     inkscape:window-height="774"
     id="namedview6"
     showgrid="false"
     fit-margin-top="0"
     fit-margin-left="0"
     fit-margin-right="0"
     fit-margin-bottom="0"
     inkscape:zoom="1.3239246"
     inkscape:cx="250.38264"
     inkscape:cy="50.576889"
     inkscape:window-x="0"
     inkscape:window-y="0"
     inkscape:window-maximized="1"
     inkscape:current-layer="svg3093" />
  <metadata
     id="metadata3099">
    <rdf:RDF>
      <cc:Work
         rdf:about="">
        <dc:format>image/svg+xml</dc:format>
        <dc:type
           rdf:resource="http://purl.org/dc/dcmitype/StillImage" />
        <dc:title></dc:title>
      </cc:Work>
    </rdf:RDF>
  </metadata>
  <defs
     id="defs3097" />
  <path
     id="path3103"
     d="m 302.93568,119.23288 c -1.29531,-0.33599 -4.17183,-1.51925 -6.39219,-2.62949 -3.20868,-1.60434 -4.85623,-2.80172 -8.02877,-5.83467 -3.98441,-3.80911 -4.66097,-5.0151 -3.47772,-6.19822 1.06845,-1.06844 2.27932,-0.42341 6.08131,3.23935 8.53063,8.21846 18.50172,10.8245 24.34924,6.36435 6.66495,-5.0836 11.40556,-16.037422 14.8483,-34.310912 0.48811,-2.59061 0.99767,-5.23989 1.13242,-5.88733 l 0.24498,-1.17713 -1.31436,0.74893 c -1.26461,0.72057 -1.37461,0.7165 -2.90663,-0.1075 -2.23363,-1.20132 -5.11701,-5.11658 -6.74888,-9.16436 l -1.38566,-3.43662 -1.41932,5.12429 c -1.58002,5.70449 -2.62581,7.82409 -3.75352,7.60742 -0.98838,-0.18965 -2.80485,-3.63157 -4.16546,-7.89303 -0.61113,-1.91398 -1.39247,-3.84088 -1.73631,-4.28202 -0.59726,-0.76622 -0.68255,-0.73556 -1.91145,0.68752 -1.41071,1.63363 -2.78258,4.92903 -3.46256,8.31781 -0.24082,1.20017 -0.52853,2.45719 -0.63939,2.79337 -0.43685,1.32507 -1.37894,-0.66949 -2.31122,-4.89348 -1.0097,-4.57447 -2.25366,-7.92172 -2.94401,-7.92172 -1.21892,0 -3.03792,4.33554 -3.0541,7.27942 -0.0201,3.66257 -1.36198,4.67167 -2.13553,1.60575 -1.58747,-6.29156 -2.63074,-8.90187 -4.14627,-10.3736 -1.69169,-1.64292 -1.37868,-2.05742 0.46096,-0.61036 1.2399,0.97527 3.08793,4.294 3.91093,7.02293 l 0.5165,1.71281 0.52001,-2.48794 c 0.5597,-2.6778 2.51354,-5.43387 3.85218,-5.43387 1.45537,0 2.99535,2.88642 4.34068,8.13582 l 0.49384,1.92691 0.92333,-2.83123 c 1.76218,-5.40347 4.43659,-8.02706 6.22819,-6.11 0.41417,0.44306 1.58678,2.95562 2.60582,5.58331 1.01903,2.62788 2.17611,5.2065 2.57134,5.73062 0.79787,1.05779 0.41882,2.09202 3.45923,-9.43798 0.72657,-2.75543 1.06168,-3.42561 1.7128,-3.42561 0.47715,0 0.80947,0.29956 0.80947,0.72961 0,1.62961 3.88238,8.66294 5.95842,10.79453 3.39041,3.4808 4.75646,2.76044 5.61286,-2.95999 0.73034,-4.87764 0.80973,-5.13841 1.5629,-5.13841 0.62615,0 0.67064,0.58162 0.42139,5.50666 -0.3365,6.64868 -1.60901,16.46348 -3.05505,23.56349 -3.15922,15.512022 -9.52919,25.731892 -17.51728,28.104132 -2.64581,0.7857 -7.00708,0.77089 -10.11154,-0.0344 z M 25.675399,86.008748 c -10.73286,-1.37452 -18.8344304,-5.12985 -22.4707104,-10.41385 -4.56591,-6.63712 -4.24391,-15.00845 0.90885,-23.64099 3.05933,-5.12557 10.7427204,-12.17547 17.9159404,-16.43693 7.51536,-4.46485 12.97535,-5.69722 25.08703,-5.66253 7.4173,0.0211 8.34093,0.10676 10.06272,0.9327 1.04272,0.50019 1.41414,0.7962 0.82536,0.65781 -1.92421,-0.45227 -7.83009,-0.51992 -12.40927,-0.14216 -10.98336,0.90603 -17.02357,3.15464 -25.05148,9.32622 -13.2669604,10.1989 -18.8541304,21.94146 -14.5883904,30.66006 4.4241804,9.04233 19.4048004,11.83591 47.1235404,8.78841 11.20731,-1.2322 10.4297,-0.90848 7.88961,-3.28431 -1.17164,-1.09594 -2.82626,-3.16612 -3.67683,-4.60016 -2.49111,-4.20036 -3.3282,-5.38506 -3.8074,-5.38806 -1.07577,-0.007 -3.98707,2.70632 -5.14227,4.79286 -1.07371,1.93889 -1.25441,2.72229 -1.23981,5.37435 0.0126,2.28959 -0.1308,3.10446 -0.54634,3.10446 -0.30989,0 -0.77188,-0.5299 -1.02657,-1.17755 -0.82039,-2.08582 -2.87687,-10.77911 -3.14518,-13.29565 -0.14315,-1.34254 -0.36165,-3.09067 -0.48554,-3.88477 l -0.22528,-1.44381 -1.14835,1.09705 c -3.87304,3.7 -14.77423,6.32496 -25.97298,6.25388 -5.5379204,-0.035 -8.0493204,-0.61044 -8.3002504,-1.90194 -0.14202,-0.73056 -0.10185,-0.73685 0.549,-0.086 1.11872,1.11872 3.3372704,1.30366 9.1549404,0.76323 9.29753,-0.86368 16.78934,-2.83384 22.1273,-5.81883 1.4632,-0.81825 3.0717,-1.48774 3.57449,-1.48774 0.99745,0 1.08553,0.23178 1.78975,4.71021 0.24072,1.53082 0.8821,4.51753 1.42531,6.63712 0.8764,3.41962 1.02302,3.70908 1.30127,2.56921 0.73355,-3.00486 5.00438,-7.49352 7.1304,-7.49352 0.89661,0 1.92918,1.16192 4.62543,5.20521 2.2174,3.3249 4.61044,5.88948 6.37849,6.83581 1.35945,0.72755 1.52735,0.34401 0.69677,-1.59129 -0.85311,-1.98771 -0.96551,-7.61598 -0.20612,-10.31964 1.62618,-5.78971 8.25315,-4.17548 9.38488,2.28578 0.86437,4.93587 4.08393,9.81051 7.57274,11.46637 2.11531,1.00379 3.05586,0.83957 4.26394,-0.7443 0.93254,-1.2226 2.3853,-4.51024 2.3853,-5.39791 0,-0.15847 -1.63672,-1.58939 -3.63714,-3.17986 -3.68241,-2.9277 -4.83097,-4.6721 -3.59321,-5.45614 0.32626,-0.20663 2.2311,-0.38159 4.23294,-0.3888 2.00184,-0.007 3.8688,-0.15878 4.14884,-0.33682 0.82352,-0.52361 1.40861,-9.63538 1.41336,-22.01126 0.003,-6.28599 0.15814,-11.52417 0.34602,-11.64022 0.7154,-0.44216 1.35774,0.49016 2.03755,2.95746 0.54121,1.96424 0.69536,4.33939 0.66607,10.26313 -0.0329,6.65339 0.11854,8.54218 1.10694,13.80949 0.92522,4.93073 1.28101,6.10186 1.85356,6.10186 0.38969,0 2.21637,-0.38564 4.059301,-0.857 1.84294,-0.47136 3.44458,-0.76318 3.55921,-0.64855 0.11463,0.11463 0.2273,2.379 0.25037,5.03179 0.0369,4.23936 0.17158,5.08275 1.11247,6.96469 1.31607,2.6322 3.85488,4.21063 6.77243,4.21063 1.69242,0 2.11154,-0.20568 3.54032,-1.73738 2.57563,-2.76121 2.76772,-5.99653 0.48211,-8.12041 -2.52715,-2.34813 -7.23317,-3.91534 -9.34506,-3.11229 -0.82056,0.31198 -1.29719,0.30225 -1.62631,-0.0332 -0.758,-0.77265 1.28285,-2.12653 3.20556,-2.12653 3.49151,0 9.1254,2.98679 10.44426,5.53707 2.04975,3.96381 -0.82926,10.17834 -5.1821,11.18633 -2.20832,0.51135 -5.6758,-0.48978 -7.6254,-2.20156 -2.37541,-2.08564 -3.37496,-5.32125 -3.10545,-10.05373 l 0.22107,-3.88186 -2.209,0.7634 c -1.21498,0.41987 -2.706791,0.76969 -3.315221,0.7774 -0.60839,0.008 -1.21472,0.1225 -1.34738,0.25515 -0.13264,0.13265 0.0318,1.41144 0.36549,2.84172 1.01116,4.33425 1.89856,10.48536 1.61822,11.21587 -0.458,1.19353 -1.45023,0.76776 -4.88278,-2.09515 -1.83535,-1.53081 -3.50149,-2.78258 -3.70248,-2.78168 -0.201,8.6e-4 -0.73351,0.8964 -1.18334,1.99007 -1.07461,2.61263 -2.97625,4.73119 -4.55863,5.07889 -2.70396,0.59388 -7.41644,-3.02224 -9.4838,-7.27728 -0.9721,-2.00089 -1.62554,-2.48087 -1.62554,-1.19408 0,0.40715 -0.50403,2.05931 -1.12008,3.67148 -0.85054,2.22584 -1.39153,3.03989 -2.24806,3.38284 -0.62038,0.24838 -2.28411,1.00233 -3.69717,1.67546 -4.08607,1.94639 -11.21288,3.44719 -20.10962,4.23487 -5.65996,0.50108 -16.40738,0.46653 -20.5695,-0.0662 z m 45.1581,-10.32393 c 0.44905,-1.03372 0.91802,-3.49656 1.08558,-5.7015 0.28867,-3.79767 0.26985,-3.9114 -0.87195,-5.26816 -1.62018,-1.92549 -3.51352,-1.77198 -4.58432,0.37165 -0.9653,1.9323 -1.00568,7.23275 -0.0759,9.96168 0.58629,1.72068 0.85126,2.00064 2.03395,2.14875 0.7479,0.0937 1.41885,0.20117 1.49096,0.23886 0.0721,0.0377 0.48686,-0.75043 0.9217,-1.75135 z m 24.60102,-2.46215 c -0.55512,-2.23736 -1.13422,-4.89734 -1.28692,-5.91089 -0.23189,-1.53934 -0.4209,-1.8214 -1.14784,-1.71281 -0.70644,0.10554 -1.01856,0.76023 -1.65816,3.47836 l -0.78794,3.34837 1.38558,1.14775 c 0.76207,0.63125 2.06093,1.75858 2.88633,2.50515 0.8254,0.74656 1.52722,1.32464 1.55951,1.2846 0.0323,-0.04 -0.39544,-1.9034 -0.95056,-4.14075 z m -5.97041,-4.96029 c 0.16431,-1.31513 0.21045,-2.47945 0.10253,-2.58736 -0.10793,-0.10792 -1.77357,-0.13988 -3.70138,-0.071 l -3.50517,0.12523 2.91674,2.44032 c 1.60421,1.34215 3.13537,2.45012 3.40266,2.46215 0.27345,0.0123 0.61652,-1.02366 0.78468,-2.36932 z m 4.03926,-5.20949 c -0.0235,-0.41215 -0.19696,-1.23108 -0.38552,-1.81986 l -0.34283,-1.0705 -0.0427,1.14252 c -0.0235,0.62839 -0.15965,1.44732 -0.3026,1.81986 -0.17056,0.44447 -0.0233,0.67733 0.4282,0.67733 0.38614,0 0.66937,-0.32885 0.64543,-0.74935 z m 69.501341,22.48056 c -0.24396,-0.29439 -0.84835,-2.16229 -1.34305,-4.1509 -0.9274,-3.72787 -3.16651,-8.30667 -6.95528,-14.2227 -3.02738,-4.72734 -3.05491,-4.73462 -3.9809,-1.09624 -1.07735,4.23328 -4.85109,15.17374 -5.86635,17.00773 -0.98885,1.78598 -0.90792,1.37769 1.10296,-5.56662 1.63971,-5.66253 3.6791,-14.76095 3.6791,-16.41381 0,-1.11092 -6.58017,-7.79412 -9.84863,-10.00321 -3.19909,-2.16203 -7.21604,-4.00903 -8.85306,-4.07056 -1.7635,-0.0663 -2.48206,0.65262 -3.15678,3.15841 -0.51919,1.92819 -1.12476,2.38825 -1.99632,1.51669 -0.58111,-0.58111 -0.5755,-0.874 0.0529,-2.76593 1.10043,-3.31307 2.93241,-4.82154 5.85608,-4.82154 3.77532,0 11.37859,4.50382 15.96334,9.45597 2.57666,2.78305 2.82394,2.9488 3.03192,2.03262 0.66787,-2.94208 3.26525,-23.84823 4.72563,-38.037109 C 156.77371,4.36808 157.77977,0 159.45977,0 c 0.55825,0 0.94097,0.345306 1.06789,0.963453 0.10878,0.529899 0.41047,8.574729 0.67044,17.8774 0.47928,17.151595 1.03762,26.531345 2.58308,43.389625 1.06665,11.6368 1.49125,20.19526 1.10429,22.2579 -0.30029,1.6007 -1.06631,2.02552 -1.88058,1.04297 z m -3.33903,-20.66071 c -0.63849,-7.62155 -1.4403,-24.55091 -1.49061,-31.47279 l -0.0327,-4.49611 -1.24705,7.27942 c -0.68589,4.00368 -1.94129,10.8442 -2.78978,15.20114 l -1.54272,7.92173 2.29636,3.42561 c 1.26302,1.88408 2.96195,4.71449 3.77545,6.28941 0.8135,1.57506 1.5074,2.82755 1.54204,2.78331 0.0346,-0.0443 -0.19533,-3.16351 -0.51102,-6.93172 z m 55.51629,18.91236 c -0.20893,-0.54955 -0.51804,-2.76549 -0.68692,-4.92431 -0.26178,-3.34639 -0.41829,-3.92515 -1.06134,-3.92515 -1.99533,0 -12.71458,-3.21048 -19.79788,-5.92973 -2.69266,-1.03363 -5.78886,-1.86683 -8.01593,-2.15723 -2.64093,-0.34431 -4.14533,-0.79432 -5.52551,-1.65273 -2.30308,-1.43259 -3.61907,-3.09581 -3.23711,-4.09117 0.39522,-1.02995 2.00505,-0.90663 4.46999,0.34235 3.65401,1.85163 8.37219,1.3434 18.41265,-1.98334 2.94388,-0.97544 7.28756,-2.67926 9.65251,-3.78628 l 4.3,-2.01281 -0.13534,-3.17408 c -0.0744,-1.74578 -0.51945,-9.34035 -0.98893,-16.8767 -1.65294,-26.533911 -1.96258,-29.548447 -3.10994,-30.277674 -0.35123,-0.223294 -0.2875,-0.327476 0.20307,-0.331976 0.85499,-0.0078 1.79125,2.663626 2.47389,7.058897 0.80694,5.195365 3.80795,29.727443 4.3608,35.647753 0.31844,3.41011 0.71188,5.67067 0.98619,5.66638 0.78532,-0.0129 9.02048,-5.2005 13.53073,-8.52334 11.10368,-8.18079 20.15757,-19.26306 20.86496,-25.539634 0.11769,-1.044211 0.3997,-1.898516 0.62667,-1.898516 0.58723,0 -0.026,4.035454 -1.01865,6.70392 -1.782,4.78986 -7.87162,13.18945 -13.49433,18.61348 -3.7814,3.64763 -9.30781,7.99194 -15.24311,11.98321 l -5.34352,3.59295 0.20227,4.49611 c 0.11125,2.47286 0.32772,6.13398 0.48104,8.13582 l 0.27876,3.63971 3.69765,0.12301 c 4.12687,0.13728 9.1361,-0.7333 11.22615,-1.95106 1.34233,-0.78211 1.34905,-0.80394 1.58833,-5.15725 0.24816,-4.51496 0.59425,-5.44629 1.84494,-4.96671 0.85011,0.32621 1.98266,2.33802 1.98266,3.52183 0,0.83435 0.87375,1.04776 8.1825,1.99863 l 1.97349,0.25675 0.55645,-2.05113 c 1.24996,-4.60744 4.32355,-8.6882 6.5442,-8.6882 0.52523,0 2.15749,0.58668 3.62729,1.30379 3.21425,1.56811 4.01066,2.89117 6.16439,10.24043 l 1.4215,4.85066 0.73012,-3.94288 c 0.83071,-4.48626 1.77901,-6.68336 3.39243,-7.86134 0.95587,-0.6978 1.24944,-0.73569 2.0116,-0.25974 1.11341,0.69531 3.28336,5.33624 4.0841,8.73488 0.33218,1.40989 0.69304,2.27439 0.80189,1.92112 1.80191,-5.84709 2.62029,-7.31839 4.65583,-8.37091 1.19451,-0.61768 1.30713,-0.59716 2.23894,0.40826 0.89232,0.96285 6.30826,15.86228 6.29113,17.30746 -0.004,0.31166 -0.31769,0.50434 -0.69784,0.4282 -0.77496,-0.15523 -1.35295,-1.63063 -4.20601,-10.73629 -1.21283,-3.87094 -2.19384,-6.31596 -2.53414,-6.31596 -1.51489,0 -3.40445,3.36733 -4.50253,8.02363 -0.51132,2.16828 -1.00807,3.36755 -1.42912,3.45019 -0.67211,0.13192 -1.00473,-0.81123 -2.23436,-6.33567 -0.7067,-3.17498 -2.0805,-6.49196 -3.00738,-7.261 -0.52104,-0.43245 -0.78143,-0.27525 -1.50243,0.90688 -1.00576,1.64901 -2.0042,4.86051 -2.37502,7.63868 -0.56869,4.26078 -0.69189,4.71022 -1.29137,4.71022 -0.90397,0 -1.68797,-1.8229 -2.94654,-6.85122 -1.49703,-5.98112 -2.31652,-8.39189 -3.06335,-9.0115 -0.51671,-0.4288 -0.61883,-0.29751 -0.61883,0.79556 0,3.87869 -2.94316,6.71419 -8.1217,7.82495 l -2.15513,0.4622 v 2.01477 c 0,2.68234 1.47147,5.51223 3.63971,6.99938 4.40319,3.0204 13.02459,3.13674 15.28507,0.20622 0.56475,-0.73209 0.84073,-0.82732 1.24118,-0.4282 0.81307,0.81033 -0.65215,2.63815 -2.91845,3.64061 -2.77483,1.22744 -6.21619,1.44073 -9.54674,0.5916 -5.92288,-1.50996 -9.4033,-5.34909 -9.5536,-10.53717 l -0.074,-2.55713 -1.49871,-0.21463 c -0.82429,-0.11804 -3.02871,-0.50553 -4.89862,-0.86111 -1.87,-0.35557 -3.53557,-0.50005 -3.70133,-0.32112 -0.16573,0.17897 -0.38089,2.10264 -0.47813,4.27482 -0.0972,2.17218 -0.32696,4.09909 -0.5105,4.28201 -0.31562,0.31451 -1.73704,-1.10116 -2.05083,-2.04252 -0.0801,-0.24018 -1.20324,0.13276 -2.49594,0.82879 -3.1841,1.71439 -8.40259,2.76382 -12.02689,2.41865 l -2.82535,-0.26909 -0.25736,3.64682 c -0.14155,2.00574 -0.46661,4.03776 -0.72233,4.51581 -0.62252,1.16321 -1.65282,1.09992 -2.12054,-0.13031 z m -1.12442,-13.27423 c -0.0147,-0.62805 -0.0629,-3.64901 -0.10705,-6.71334 l -0.0803,-5.57133 -3.53266,1.77798 c -3.94267,1.98433 -10.91828,4.67681 -14.34474,5.53664 -1.23643,0.31035 -2.24806,0.68996 -2.24806,0.84356 0,0.5272 9.86019,3.31089 18.62675,5.25874 1.37795,0.30615 1.71448,0.0801 1.68604,-1.13238 z m 23.3571,0.0104 c 0.003,-0.19053 -0.18614,-0.22733 -0.42165,-0.0818 -0.23551,0.14555 -0.42525,0.59049 -0.42164,0.98872 0.006,0.62401 0.0639,0.63532 0.42164,0.0818 0.2283,-0.35326 0.41804,-0.79821 0.42165,-0.98871 z m -0.3399,-7.78084 c -0.84253,-1.84915 -1.36635,-1.22307 -1.36635,1.63303 0,3.40604 0.4646,3.92656 1.25013,1.40052 0.47235,-1.51905 0.49826,-2.19505 0.11624,-3.03355 z m 18.17885,2.08474 c 2.3307,-1.10262 3.72527,-2.66234 4.27974,-4.78686 0.54553,-2.09014 -2.76074,-3.80067 -4.78386,-2.47505 -1.21896,0.79868 -3.00494,4.11711 -3.57047,6.63412 -0.37636,1.67504 -0.34957,1.74604 0.65917,1.74604 0.57833,0 2.11532,-0.50327 3.41547,-1.11834 z m -75.23067,8.16237 c -0.45509,-0.54835 -0.42697,-0.78772 0.16167,-1.37637 0.66461,-0.66461 0.76053,-0.66461 1.42514,0 0.58865,0.58865 0.61674,0.82802 0.16167,1.37637 -0.303,0.36509 -0.69639,0.6638 -0.87422,0.6638 -0.17784,0 -0.57122,-0.29871 -0.87421,-0.6638 z m 180.4654,-0.14591 c -3.96039,-2.41501 -7.13169,-10.3903 -8.4467,-21.24263 l -0.57075,-4.71022 -0.32948,2.78331 c -0.35348,2.98602 -1.85385,11.20817 -2.21885,12.1592 -0.13717,0.35746 0.53324,1.01878 1.76393,1.74 2.42948,1.42377 2.25957,1.92622 -0.22306,0.65968 -0.98769,-0.50386 -1.8387,-0.85451 -1.8912,-0.77924 -0.0525,0.0753 -0.33959,0.98598 -0.63806,2.02377 -1.56627,5.44586 -3.92699,8.32894 -5.51523,6.7356 -0.5782,-0.57995 -0.7282,-1.4802 -0.70825,-4.25088 0.0377,-5.23776 1.52063,-7.34493 4.62115,-6.56689 0.96919,0.24326 1.02486,0.12135 1.49438,-3.27214 0.73163,-5.28786 1.28589,-12.69189 1.77036,-23.65041 0.52844,-11.95281 0.77568,-14.48434 1.51292,-15.492751 1.28717,-1.760335 1.89796,1.315301 1.88618,9.497931 -0.0201,13.93624 2.06997,28.54389 5.22363,36.50801 2.78587,7.03534 4.7526,8.3572 8.21332,5.51865 1.05646,-0.86655 1.14386,-1.11794 0.74936,-2.1556 -1.10069,-2.89503 0.0347,-8.07459 2.1625,-9.8649 2.28167,-1.91989 6.08602,-1.17777 7.44642,1.45254 0.35725,0.69086 0.64954,2.08885 0.64954,3.10669 0,2.34174 1.70659,4.54921 4.59973,5.94985 2.78044,1.34597 8.41715,1.45995 9.34935,0.18906 0.59871,-0.81641 0.60959,-0.81543 0.60959,0.0546 0,1.40129 -1.07184,1.94125 -3.95663,1.99323 -3.84773,0.0694 -6.43286,-0.80223 -8.86505,-2.98876 l -2.07121,-1.8622 -0.26333,1.40369 c -0.36921,1.96805 -1.35042,3.20881 -3.12339,3.9496 -2.0417,0.85306 -2.80266,0.80317 -4.17145,-0.27351 l -1.15635,-0.90958 -1.14947,1.07135 c -2.38341,2.22151 -4.49054,2.60295 -6.75401,1.22269 z m -15.50088,-3.36305 c 0.78061,-1.76474 2.03048,-5.79099 2.04543,-6.58959 0.01,-0.51131 -1.84589,-0.75547 -2.6146,-0.34407 -0.939,0.50254 -1.65671,2.9289 -1.65992,5.61158 -0.005,3.86936 0.87225,4.38949 2.22913,1.32182 z m 25.97682,0.24444 c -0.56227,-0.78961 -1.04147,-1.13808 -1.14359,-0.83161 -0.19023,0.57066 1.08198,2.19072 1.72038,2.19072 0.21505,0 -0.0445,-0.6116 -0.57679,-1.35911 z m 4.07027,0.26637 c 0.14623,-0.38107 0.0744,-0.55294 -0.16829,-0.40293 -0.23281,0.14388 -0.4233,0.44293 -0.4233,0.66452 0,0.61593 0.30693,0.48023 0.59161,-0.26161 z m -0.16681,-3.3962 c 1.70244,-3.56695 1.72188,-3.66082 1.07812,-5.20178 -0.79157,-1.89454 -1.762,-2.69553 -3.28773,-2.71373 -1.70694,-0.0203 -2.46245,0.38998 -3.14372,1.70737 -0.91563,1.77065 -1.56675,5.11101 -1.26452,6.48725 0.22105,1.00648 0.43269,1.16984 1.24992,0.96473 0.76164,-0.19115 1.19566,0.0506 1.9221,1.07085 0.51607,0.72477 1.11243,1.31779 1.3252,1.31779 0.21278,0 1.16706,-1.63462 2.12058,-3.63252 z"
     inkscape:connector-curvature="0"
     style="fill:#ffffff;fill-opacity:1" />
</svg>
