<?xml version="1.0" encoding="UTF-8" standalone="no"?>
<!-- Created with Inkscape (http://www.inkscape.org/) -->
<svg id="svg3093" xmlns:rdf="http://www.w3.org/1999/02/22-rdf-syntax-ns#" xmlns="http://www.w3.org/2000/svg" height="279.88" width="915.46" version="1.1" xmlns:cc="http://creativecommons.org/ns#" xmlns:dc="http://purl.org/dc/elements/1.1/">
 <metadata id="metadata3099">
  <rdf:RDF>
   <cc:Work rdf:about="">
    <dc:format>image/svg+xml</dc:format>
    <dc:type rdf:resource="http://purl.org/dc/dcmitype/StillImage"/>
    <dc:title/>
   </cc:Work>
  </rdf:RDF>
 </metadata>
 <defs id="defs3097"></defs>
 <path id="path3103" fill="#7580d8" d="m707.46,278.45c-3.025-0.78467-9.7427-3.548-14.928-6.1408-7.4934-3.7467-11.341-6.543-18.75-13.626-9.305-8.8956-10.885-11.712-8.1217-14.475,2.4952-2.4952,5.323-0.98882,14.202,7.565,19.922,19.193,43.208,25.279,56.864,14.863,15.565-11.872,26.636-37.453,34.676-80.128,1.1399-6.05,2.3299-12.237,2.6446-13.749l0.57211-2.749-3.0695,1.749c-2.9533,1.6828-3.2102,1.6733-6.788-0.25104-5.2163-2.8055-11.95-11.949-15.761-21.402l-3.236-8.0257-3.3146,11.967c-3.6899,13.322-6.1322,18.272-8.7658,17.766-2.3082-0.44289-6.5503-8.481-9.7278-18.433-1.4272-4.4698-3.2519-8.9698-4.0549-10-1.3948-1.7894-1.594-1.7178-4.4639,1.6056-3.2945,3.8151-6.4983,11.511-8.0863,19.425-0.5624,2.8028-1.2343,5.7384-1.4932,6.5235-1.0202,3.0945-3.2203-1.5635-5.3975-11.428-2.358-10.683-5.2631-18.5-6.8753-18.5-2.8466,0-7.0946,10.125-7.1324,17-0.047,8.5534-3.1807,10.91-4.9872,3.75-3.7073-14.693-6.1437-20.789-9.683-24.226-3.9507-3.8368-3.2197-4.8048,1.0765-1.4254,2.8956,2.2776,7.2114,10.028,9.1334,16.401l1.2062,4,1.2144-5.8102c1.3071-6.2536,5.87-12.69,8.9962-12.69,3.3988,0,6.9952,6.7408,10.137,19l1.1533,4.5,2.1563-6.6119c4.1153-12.619,10.361-18.746,14.545-14.269,0.96724,1.0347,3.7057,6.9024,6.0855,13.039,2.3798,6.137,5.082,12.159,6.005,13.383,1.8633,2.4703,0.97809,4.8856,8.0785-22.041,1.6968-6.4349,2.4794-8,4-8,1.1143,0,1.8904,0.69958,1.8904,1.7039,0,3.8057,9.0667,20.231,13.915,25.209,7.9178,8.1289,11.108,6.4466,13.108-6.9126,1.7056-11.391,1.891-12,3.6499-12,1.4623,0,1.5662,1.3583,0.9841,12.86-0.78585,15.527-3.7576,38.448-7.1346,55.029-7.3779,36.226-22.254,60.093-40.909,65.633-6.1789,1.8349-16.364,1.8003-23.614-0.0804zm-647.5-77.59c-25.065-3.21-43.985-11.98-52.477-24.32-10.663-15.5-9.911-35.05,2.1225-55.21,7.1446-11.97,25.088-28.434,41.84-38.386,17.551-10.427,30.302-13.305,58.587-13.224,17.322,0.0493,19.479,0.24932,23.5,2.1782,2.4351,1.1681,3.3025,1.8594,1.9275,1.5362-4.4937-1.0562-18.286-1.2142-28.98-0.33199-25.65,2.1159-39.756,7.3672-58.504,21.78-30.983,23.818-44.031,51.241-34.069,71.602,10.332,21.117,45.317,27.641,110.05,20.524,26.173-2.8776,24.357-2.1216,18.425-7.67-2.7362-2.5594-6.6003-7.394-8.5867-10.743-5.8176-9.8093-7.7725-12.576-8.8916-12.583-2.5123-0.0163-9.3112,6.3202-12.009,11.193-2.5075,4.528-2.9295,6.3575-2.8954,12.551,0.0294,5.347-0.30546,7.25-1.2759,7.25-0.72369,0-1.8026-1.2375-2.3974-2.75-1.9159-4.8711-6.7185-25.173-7.3451-31.05-0.3343-3.1353-0.84457-7.2178-1.1339-9.0723l-0.52612-3.3718-2.6818,2.562c-9.0449,8.6408-34.503,14.771-60.656,14.605-12.933-0.0818-18.798-1.4256-19.384-4.4417-0.33167-1.7061-0.23785-1.7208,1.2821-0.20076,2.6126,2.6126,7.7937,3.0445,21.38,1.7824,21.713-2.017,39.209-6.618,51.675-13.589,3.4171-1.9109,7.1735-3.4744,8.3477-3.4744,2.3294,0,2.5351,0.54128,4.1797,11,0.56215,3.575,2.06,10.55,3.3286,15.5,2.0467,7.986,2.3891,8.662,3.0389,6,1.7131-7.0174,11.687-17.5,16.652-17.5,2.0939,0,4.5053,2.7135,10.802,12.156,5.1784,7.7648,10.767,13.754,14.896,15.964,3.1748,1.6991,3.5669,0.80339,1.6272-3.7162-1.9923-4.642-2.2548-17.786-0.48136-24.1,3.7977-13.521,19.274-9.7512,21.917,5.3381,2.0186,11.527,9.5374,22.911,17.685,26.778,4.94,2.3442,7.1365,1.9607,9.9578-1.7382,2.1778-2.8552,5.5705-10.533,5.5705-12.606,0-0.37009-3.8223-3.7118-8.494-7.4261-8.5997-6.8372-11.282-10.911-8.3914-12.742,0.76194-0.48255,5.2104-0.89114,9.8854-0.90798,4.675-0.0168,9.035-0.37082,9.689-0.7866,1.9232-1.2228,3.2896-22.502,3.3007-51.404,0.006-14.68,0.36931-26.913,0.80807-27.184,1.6707-1.0326,3.1708,1.1447,4.7584,6.9067,1.2639,4.5872,1.6239,10.134,1.5555,23.968-0.0768,15.538,0.27683,19.949,2.5851,32.25,2.1607,11.515,2.9916,14.25,4.3287,14.25,0.91007,0,5.176-0.90061,9.4799-2.0014s8.0443-1.7823,8.312-1.5146c0.26771,0.26771,0.53083,5.5558,0.5847,11.751,0.0861,9.9004,0.40071,11.87,2.598,16.265,3.0735,6.1471,9.0025,9.8333,15.816,9.8333,3.9524,0,4.9312-0.48035,8.2679-4.0574,6.015-6.4484,6.4636-14.004,1.1259-18.964-5.9018-5.4837-16.892-9.1437-21.824-7.2683-1.9163,0.72858-3.0294,0.70587-3.798-0.0775-1.7702-1.8044,2.9959-4.9662,7.4861-4.9662,8.1539,0,21.311,6.9752,24.391,12.931,4.7869,9.2569-1.9366,23.77-12.102,26.124-5.1572,1.1942-13.255-1.1438-17.808-5.1414-5.5474-4.8707-7.8817-12.427-7.2523-23.479l0.51627-9.0655-5.1588,1.7828c-2.8374,0.98056-6.3213,1.7975-7.7422,1.8155-1.4208,0.018-2.8368,0.2861-3.1466,0.59588-0.30977,0.30977,0.0743,3.2962,0.85356,6.6364,2.3614,10.122,4.4338,24.487,3.7791,26.193-1.0696,2.7873-3.3868,1.793-11.403-4.8929-4.2862-3.575-8.1772-6.4983-8.6466-6.4962-0.4694,0.002-1.713,2.0934-2.7635,4.6475-2.5096,6.1014-6.9506,11.049-10.646,11.861-6.3147,1.3869-17.32-7.058-22.148-16.995-2.2702-4.6728-3.7962-5.7937-3.7962-2.7886,0,0.95083-1.1771,4.8092-2.6158,8.5742-1.9863,5.1981-3.2497,7.0992-5.25,7.9001-1.4488,0.58007-5.3342,2.3408-8.6342,3.9128-9.5424,4.5455-26.186,8.0504-46.963,9.8899-13.218,1.1702-38.317,1.0895-48.037-0.15464zm105.46-24.11c1.0487-2.4141,2.1439-8.1657,2.5352-13.315,0.67416-8.8689,0.63021-9.1345-2.0363-12.303-3.7837-4.4967-8.2053-4.1382-10.706,0.86793-2.2543,4.5126-2.3486,16.891-0.17725,23.264,1.3692,4.0184,1.988,4.6722,4.75,5.0181,1.7466,0.21877,3.3135,0.46979,3.4819,0.55781,0.16843,0.088,1.137-1.7525,2.1525-4.09zm57.452-5.75c-1.2964-5.225-2.6488-11.437-3.0054-13.804-0.54154-3.5949-0.98296-4.2536-2.6806-4-1.6498,0.24647-2.3787,1.7754-3.8724,8.1232l-1.8401,7.8196,3.2358,2.6804c1.7797,1.4742,4.813,4.1069,6.7406,5.8504s3.5666,3.0935,3.642,3c0.0755-0.0935-0.92349-4.4451-2.2199-9.6701zm-13.943-11.584c0.38374-3.0713,0.49148-5.7904,0.23944-6.0424-0.25204-0.25204-4.1419-0.32666-8.644-0.16581l-8.1858,0.29245,6.8116,5.699c3.7464,3.1344,7.3222,5.7219,7.9464,5.75,0.6386,0.0287,1.4398-2.3906,1.8325-5.5332zm9.4331-12.166c-0.0548-0.9625-0.45997-2.875-0.90032-4.25l-0.80064-2.5-0.0997,2.6682c-0.0548,1.4675-0.37282,3.38-0.70667,4.25-0.39831,1.038-0.0545,1.5818,1,1.5818,0.90177,0,1.5632-0.76798,1.5073-1.75zm162.31,52.5c-0.56974-0.6875-1.9812-5.0497-3.1365-9.6938-2.1658-8.7059-7.3949-19.399-16.243-33.215-7.07-11.04-7.1343-11.057-9.2968-2.5601-2.516,9.8862-11.329,35.436-13.7,39.719-2.3093,4.1709-2.1203,3.2174,2.5758-13,3.8293-13.224,8.592-34.472,8.592-38.332,0-2.5944-15.367-18.202-23-23.361-7.471-5.0491-16.852-9.3625-20.675-9.5062-4.1184-0.15482-5.7965,1.5241-7.3722,7.376-1.2125,4.503-2.6267,5.5774-4.6621,3.542-1.3571-1.3571-1.344-2.0411,0.12353-6.4594,2.5699-7.7372,6.8482-11.26,13.676-11.26,8.8167,0,26.573,10.518,37.28,22.083,6.0174,6.4994,6.5949,6.8865,7.0806,4.7469,1.5597-6.8708,7.6255-55.694,11.036-88.83,3.1701-30.799,5.5196-41,9.443-41,1.3037,0,2.1975,0.80641,2.4939,2.25,0.25404,1.2375,0.95859,20.025,1.5657,41.75,1.1193,40.055,2.4232,61.96,6.0324,101.33,2.491,27.176,3.4826,47.163,2.5789,51.98-0.70128,3.7382-2.4902,4.7303-4.3918,2.4357zm-7.7978-48.25c-1.4911-17.799-3.3636-57.335-3.4811-73.5l-0.0763-10.5-2.9123,17c-1.6018,9.35-4.5336,25.325-6.5151,35.5l-3.6028,18.5,5.3628,8c2.9496,4.4,6.9172,11.01,8.817,14.688,1.8998,3.6783,3.5203,6.6033,3.6012,6.5,0.0809-0.10335-0.45615-7.3879-1.1934-16.188zm129.65,44.167c-0.48793-1.2834-1.2098-6.4584-1.6042-11.5-0.61135-7.815-0.97684-9.1666-2.4786-9.1666-4.6598,0-29.693-7.4976-46.235-13.848-6.2883-2.4139-13.519-4.3597-18.72-5.0379-6.1675-0.80407-9.6808-1.855-12.904-3.8597-5.3785-3.3456-8.4518-7.2298-7.5598-9.5543,0.92299-2.4053,4.6825-2.1173,10.439,0.7995,8.5334,4.3242,19.552,3.1373,43-4.6318,6.875-2.278,17.019-6.257,22.542-8.8423l10.042-4.7006-0.31606-7.4126c-0.17383-4.077-1.2131-21.813-2.3095-39.413-3.8602-61.966-4.5833-69.006-7.2628-70.709-0.82025-0.52147-0.67142-0.76477,0.47423-0.77528,1.9967-0.0183,4.1832,6.2205,5.7774,16.485,1.8845,12.133,8.8929,69.424,10.184,83.25,0.74368,7.9638,1.6625,13.243,2.3031,13.233,1.834-0.0301,21.066-12.145,31.599-19.905,25.931-19.105,47.075-44.986,48.727-59.644,0.27486-2.4386,0.93345-4.4337,1.4635-4.4337,1.3714,0-0.0606,9.4242-2.3789,15.656-4.1616,11.186-18.383,30.802-31.514,43.469-8.8309,8.5185-21.737,18.664-35.598,27.985l-12.479,8.3908,0.47238,10.5c0.2598,5.775,0.76533,14.325,1.1234,19l0.651,8.5,8.6353,0.28726c9.6377,0.32061,21.336-1.7125,26.217-4.5564,3.1348-1.8265,3.1505-1.8775,3.7093-12.044,0.57956-10.544,1.3878-12.719,4.3086-11.599,1.9853,0.76182,4.6302,5.4601,4.6302,8.2247,0,1.9485,2.0405,2.4469,19.109,4.6675l4.6088,0.5996,1.2995-4.7901c2.9191-10.76,10.097-20.29,15.283-20.29,1.2266,0,5.0385,1.3701,8.471,3.0448,7.5064,3.6621,9.3663,6.7519,14.396,23.915l3.3197,11.328,1.7051-9.208c1.94-10.477,4.1546-15.608,7.9225-18.359,2.2323-1.6296,2.9179-1.7181,4.6978-0.60658,2.6002,1.6238,7.6678,12.462,9.5378,20.399,0.77576,3.2926,1.6185,5.3115,1.8727,4.4865,4.2081-13.655,6.1193-17.091,10.873-19.549,2.7896-1.4425,3.0526-1.3946,5.2287,0.95341,2.0839,2.2486,14.732,37.044,14.692,40.419-0.009,0.72783-0.74191,1.1778-1.6297,1-1.8098-0.36253-3.1596-3.8081-9.8225-25.073-2.8324-9.04-5.1234-14.75-5.9181-14.75-3.5378,0-7.9506,7.8639-10.515,18.738-1.1941,5.0637-2.3542,7.8644-3.3375,8.0574-1.5696,0.30808-2.3464-1.8945-5.218-14.796-1.6504-7.4147-4.8587-15.161-7.0233-16.957-1.2168-1.0099-1.8249-0.64279-3.5087,2.1179-2.3488,3.851-4.6805,11.351-5.5465,17.839-1.3281,9.9504-1.6158,11-3.0158,11-2.1111,0-3.942-4.2571-6.8812-16-3.4961-13.968-5.4099-19.598-7.154-21.045-1.2067-1.0014-1.4452-0.69479-1.4452,1.8579,0,9.0581-6.8733,15.68-18.967,18.274l-5.033,1.0794v4.7052c0,6.2642,3.4364,12.873,8.5,16.346,10.283,7.0537,30.417,7.3254,35.696,0.48161,1.3189-1.7097,1.9634-1.9321,2.8986-1,1.8988,1.8924-1.523,6.161-6.8156,8.5021-6.4802,2.8665-14.517,3.3646-22.295,1.3816-13.832-3.5263-21.96-12.492-22.311-24.608l-0.17285-5.9718-3.5-0.50122c-1.925-0.27567-7.0731-1.1806-11.44-2.011-4.3671-0.83039-8.2568-1.1678-8.6439-0.74992-0.38705,0.41794-0.88951,4.9104-1.1166,9.9832-0.22707,5.0728-0.76357,9.5728-1.1922,10-0.73709,0.73449-4.0566-2.5716-4.7894-4.77-0.18697-0.56092-2.81,0.31004-5.8289,1.9355-7.436,4.0037-19.623,6.4545-28.087,5.6484l-6.5982-0.62842-0.60102,8.5166c-0.33056,4.6841-1.0897,9.4296-1.6869,10.546-1.4538,2.7165-3.8599,2.5687-4.9522-0.30431zm-2.6259-31c-0.0344-1.4667-0.14688-8.5217-0.25-15.678l-0.1875-13.011-8.25,4.1522c-9.2075,4.6341-25.498,10.922-33.5,12.93-2.8875,0.72477-5.25,1.6113-5.25,1.97,0,1.2312,23.027,7.7321,43.5,12.281,3.218,0.71497,4.0039,0.18715,3.9375-2.6445zm54.547,0.0243c0.008-0.44495-0.43469-0.53089-0.98469-0.19097s-0.99311,1.379-0.98469,2.309c0.0132,1.4573,0.14929,1.4837,0.98469,0.19098,0.53316-0.825,0.97627-1.8641,0.98469-2.309zm-0.79378-18.171c-1.9676-4.3184-3.1909-2.8563-3.1909,3.8137,0,7.9543,1.085,9.1699,2.9195,3.2707,1.1031-3.5475,1.1636-5.1262,0.27144-7.0844zm42.454,4.8686c5.443-2.575,8.6998-6.2175,9.9947-11.179,1.274-4.8812-6.4473-8.8759-11.172-5.7801-2.8467,1.8652-7.0176,9.6149-8.3383,15.493-0.87893,3.9118-0.81636,4.0776,1.5394,4.0776,1.3506,0,4.94-1.1753,7.9763-2.6117zm-175.69,19.062c-1.0628-1.2806-0.99712-1.8396,0.37755-3.2143,1.5521-1.5521,1.7761-1.5521,3.3282,0,1.3747,1.3747,1.4403,1.9337,0.37755,3.2143-0.7076,0.85262-1.6263,1.5502-2.0416,1.5502-0.41531,0-1.334-0.69758-2.0416-1.5502zm421.45-0.34075c-9.2489-5.6399-16.655-24.265-19.726-49.609l-1.3329-11-0.76946,6.5c-0.8255,6.9734-4.3294,26.175-5.1818,28.396-0.32034,0.83479,1.2453,2.3792,4.1194,4.0635,5.6737,3.325,5.2769,4.4984-0.52093,1.5406-2.3066-1.1767-4.294-1.9956-4.4166-1.8198-0.12252,0.17587-0.79307,2.3026-1.4901,4.7262-3.6578,12.718-9.1709,19.451-12.88,15.73-1.3503-1.3544-1.7006-3.4568-1.654-9.9273,0.088-12.232,3.5512-17.153,10.792-15.336,2.2634,0.56809,2.3934,0.28339,3.4899-7.6416,1.7086-12.349,3.003-29.64,4.1344-55.232,1.2341-27.914,1.8115-33.826,3.5332-36.181,3.006-4.111,4.4324,3.0717,4.4049,22.181-0.0469,32.546,4.8341,66.66,12.199,85.259,6.506,16.43,11.099,19.517,19.181,12.888,2.4672-2.0237,2.6713-2.6108,1.75-5.0341-2.5705-6.7609,0.0811-18.857,5.0502-23.038,5.3285-4.4836,14.213-2.7505,17.39,3.3922,0.83431,1.6134,1.5169,4.8782,1.5169,7.2552,0,5.4688,3.9855,10.624,10.742,13.895,6.4933,3.1433,19.657,3.4095,21.834,0.44151,1.3982-1.9066,1.4236-1.9043,1.4236,0.12756,0,3.2725-2.5031,4.5335-9.2401,4.6549-8.9858,0.16198-15.023-1.8735-20.703-6.9798l-4.837-4.3489-0.61498,3.2781c-0.86223,4.5961-3.1537,7.4937-7.2942,9.2237-4.7681,1.9922-6.5452,1.8757-9.7418-0.63873l-2.7005-2.1242-2.6844,2.502c-5.5661,5.188-10.487,6.0788-15.773,2.8554zm-36.2-7.8539c1.823-4.1213,4.7419-13.524,4.7768-15.389,0.0224-1.1941-4.3108-1.7643-6.106-0.80352-2.1929,1.1736-3.869,6.84-3.8765,13.105-0.0108,9.0363,2.037,10.251,5.2058,3.0869zm60.665,0.57084c-1.3131-1.844-2.4322-2.6578-2.6707-1.9421-0.44425,1.3327,2.5268,5.1161,4.0177,5.1161,0.50221,0-0.10393-1.4283-1.347-3.174zm9.5055,0.62207c0.34149-0.88992,0.17385-1.2913-0.39301-0.94098-0.5437,0.33602-0.98855,1.0344-0.98855,1.5519,0,1.4384,0.71677,1.1215,1.3816-0.61096zm-0.38957-7.9313c3.9758-8.3301,4.0212-8.5493,2.5178-12.148-1.8486-4.4244-4.1149-6.295-7.678-6.3375-3.9863-0.0475-5.7507,0.91074-7.3417,3.9873-2.1383,4.1351-3.6589,11.936-2.9531,15.15,0.51625,2.3505,1.0105,2.732,2.919,2.253,1.7787-0.44642,2.7923,0.11826,4.4888,2.5008,1.2052,1.6926,2.5979,3.0775,3.0948,3.0775,0.49691,0,2.7255-3.8174,4.9523-8.4832z"/>
</svg>
