<?xml version="1.0" standalone="no"?>
<!DOCTYPE svg PUBLIC "-//W3C//DTD SVG 1.1//EN" "http://www.w3.org/Graphics/SVG/1.1/DTD/svg11.dtd" >
<svg xmlns="http://www.w3.org/2000/svg">
<metadata></metadata>
<defs>
<font id="Champagne&LimousinesBold" horiz-adv-x="956" >
<font-face units-per-em="2048" ascent="1638" descent="-410" />
<missing-glyph horiz-adv-x="508" />
<glyph horiz-adv-x="0" />
<glyph horiz-adv-x="2048" />
<glyph unicode="&#xd;" horiz-adv-x="508" />
<glyph unicode=" "  horiz-adv-x="508" />
<glyph unicode="&#x09;" horiz-adv-x="508" />
<glyph unicode="&#xa0;" horiz-adv-x="508" />
<glyph unicode="!" horiz-adv-x="367" d="M275.5 184.5q36.5 -35.5 36.5 -80.5t-36.5 -80.5t-92.5 -35.5t-92 35.5t-36 80.5t36 80.5t92 35.5t92.5 -35.5zM272 1439v-1104h-181v1104h181z" />
<glyph unicode="&#x22;" horiz-adv-x="540" d="M55 847v589h181v-589h-181zM305 847v589h180v-589h-180z" />
<glyph unicode="#" horiz-adv-x="1026" d="M491 429h-111l-81 -333h-178l82 333h-223l80 157h182l56 227h-206l82 157h162l84 344h178l-85 -344h111l84 344h178l-85 -344h204l-82 -157h-160l-56 -227h185l-81 -157h-143l-81 -333h-178zM419 586h111l56 227h-111z" />
<glyph unicode="$" horiz-adv-x="1149" d="M671 254q124 41 124 222q0 100 -68 169l-57 57zM490 1172q-39 -40 -39 -100t39 -95v195zM490 778q-70 31 -133 94q-84 83 -84 198.5t79 195.5t138 87v91h181v-96q52 -9 109.5 -65.5t86.5 -146.5l-159 -65q-9 65 -37 116v-314q97 -38 188 -129q113 -112 113 -268.5 t-105.5 -262t-195.5 -116.5v-101h-181v98q-97 8 -194 105.5t-120 246.5l171 64q15 -205 143 -261v529z" />
<glyph unicode="%" horiz-adv-x="1136" d="M1053 1165l-829 -1185l-141 98l829 1185zM491.5 1041q70.5 -71 70.5 -165t-70.5 -165.5t-177.5 -71.5t-177.5 71.5t-70.5 165.5t70.5 165t177.5 71t177.5 -71zM361.5 935.5q-22.5 22.5 -48 22.5t-47.5 -22.5t-22 -60.5t22 -60t47.5 -22t48 22.5t22.5 60t-22.5 60z M999.5 531.5q70.5 -70.5 70.5 -165.5t-70.5 -165.5t-177 -70.5t-177 70.5t-70.5 165.5t70.5 165.5t177 70.5t177 -70.5zM871 426.5q-23 22.5 -48.5 22.5t-47.5 -22.5t-22 -60.5t22 -60t47.5 -22t48.5 22t23 60t-23 60.5z" />
<glyph unicode="&#x26;" horiz-adv-x="1231" d="M912 715q60 -1 116 -32q83 -47 107 -136q8 -29 8 -70t-28 -91q-47 -82 -161 -117q-21 -70 -102 -150q-133 -135 -324.5 -135t-323 131.5t-131.5 311t126 314.5q88 94 153 101q-145 155 -145 286t97.5 229.5t242 98.5t244.5 -101q54 -52 83 -146l-160 -63q-31 81 -68 118 t-99.5 37t-111 -48.5t-48.5 -123.5t51 -129.5t91 -69.5t156 -16v-151l-106 -2q-162 -30 -244.5 -120.5t-82.5 -213t82 -205t192.5 -82.5t194.5 84q45 45 56 78q-38 24 -103 91q-45 42 -55 42q-11 0 -18 -12.5t-7 -20.5q0 -28 7.5 -32t15.5 -4v-154h-10q-49 0 -106.5 32 t-77.5 107q-7 25 -7 59.5t24 77.5q61 101 180 101q55 0 98.5 -25t102.5 -87q63 -57 84 -57q32 0 46.5 25.5t14.5 40.5q0 48 -34 68q-9 4 -20 5v156z" />
<glyph unicode="'" horiz-adv-x="291" d="M55 847v589h181v-589h-181z" />
<glyph unicode="(" horiz-adv-x="736" d="M55 702q0 545 371 804h255q-190 -115 -283 -240q-137 -187 -137 -520v-87q0 -334 137 -521q93 -125 283 -240h-255q-371 259 -371 804z" />
<glyph unicode=")" horiz-adv-x="736" d="M681 702q0 -545 -371 -804h-255q190 115 283 240q138 187 138 521v87q0 333 -138 520q-93 125 -283 240h255q371 -259 371 -804z" />
<glyph unicode="*" horiz-adv-x="841" d="M511 1291l162 86l93 -133l-189 -102l189 -102l-93 -134l-162 86v-145h-180v146l-163 -87l-93 134l189 102l-189 102l93 134l163 -87v145h180v-145z" />
<glyph unicode="+" horiz-adv-x="1138" d="M479 609h-394v156h394v395h180v-395h394v-156h-394v-395h-180v395z" />
<glyph unicode="," horiz-adv-x="464" d="M367 221l-196 -407h-171l109 407h258z" />
<glyph unicode="-" horiz-adv-x="680" d="M48 621h584v-157h-584v157z" />
<glyph unicode="." horiz-adv-x="367" d="M275.5 184.5q36.5 -35.5 36.5 -80.5t-36.5 -80.5t-92.5 -35.5t-92 35.5t-36 80.5t36 80.5t92 35.5t92.5 -35.5z" />
<glyph unicode="/" horiz-adv-x="744" d="M599 1439h197l-652 -1439h-196z" />
<glyph unicode="0" horiz-adv-x="1135" d="M798.5 283q102.5 145 102.5 424.5t-102.5 425t-231 145.5t-230.5 -145.5t-102 -425t102 -424.5t230.5 -145t231 145zM938 1239q147 -200 147 -531.5t-147 -531.5t-369.5 -200t-370.5 200t-148 531.5t148 531.5t370.5 200t369.5 -200z" />
<glyph unicode="1" horiz-adv-x="1146" d="M486 157v1004l-90 -59l-133 96l403 294v-1335h295v-157h-776v157h301z" />
<glyph unicode="2" horiz-adv-x="1177" d="M170 0q570 871 608.5 939t38.5 112q0 149 -101 212q-50 30 -88 30q-199 0 -228 -228l-180 27q10 107 55 178q88 137 245 172q48 12 95 12q112 0 210 -62q181 -114 181 -337q0 -87 -48 -173.5t-468 -724.5h516v-157h-836z" />
<glyph unicode="3" horiz-adv-x="1144" d="M519 759l-108 3v154q118 1 157.5 16.5t89.5 69t50 128t-47.5 121.5t-108.5 47t-97.5 -36.5t-67.5 -119.5l-165 65q30 98 84 150q101 101 246.5 101t243.5 -99t98 -231t-137 -278q56 -11 145 -107q126 -136 126 -316.5t-132 -312.5t-324.5 -132t-327.5 135 q-103 104 -128 271l178 64q18 -159 93.5 -234.5t185 -75.5t191 81.5t81.5 204t-82 211.5t-244 120z" />
<glyph unicode="4" horiz-adv-x="1171" d="M905 1639v-1133h130v-156h-130v-350h-181v350h-588zM724 1003l-295 -497h295v497z" />
<glyph unicode="5" horiz-adv-x="1147" d="M207 355q138 -204 322 -204q79 0 156 41q130 69 174 213q18 58 18 129t-45 155q-69 131 -209 180q-60 20 -144.5 20t-240.5 -49l-103 91l161 445v63h528v-157h-373l-82 -241q60 11 141 11t176 -33q210 -72 313 -264q62 -116 62 -215.5t-23 -175.5q-64 -205 -256 -310 q-121 -64 -226 -64q-302 0 -471 231z" />
<glyph unicode="6" horiz-adv-x="1143" d="M327 399q0 -110 73 -183t170.5 -73t171 73t73.5 183t-73.5 183.5t-171 73.5t-170.5 -73.5t-73 -183.5zM409 765q42 52 162 52q182 0 305.5 -124t123.5 -293.5t-123.5 -294t-304.5 -124.5t-305.5 124.5t-124.5 293.5q9 226 127.5 468.5t339.5 571.5h219 q-275 -402 -419 -674z" />
<glyph unicode="7" horiz-adv-x="1142" d="M1023 1439q-6 -271 -183 -523.5t-286.5 -482.5t-119.5 -433h-183q10 251 129 493.5t270 465t172 323.5h-704v157h905z" />
<glyph unicode="8" horiz-adv-x="1137" d="M570 144q160 7 233 83.5t73 199.5t-81 211t-226 117q-147 -29 -227.5 -117t-80.5 -211t73 -199.5t236 -83.5zM937.5 119q-121.5 -128 -369 -128t-369.5 128t-122 308t126 316q90 96 154 96q-146 157 -146 289.5t97.5 228.5t259.5 96t260 -96t98 -228.5t-147 -289.5 q65 0 154 -96q126 -136 126 -316t-121.5 -308zM431.5 1247.5q-35.5 -42.5 -35.5 -117.5t49.5 -128t123.5 -76q72 23 121.5 76t49.5 128t-35 117.5t-137 49.5q-101 -7 -136.5 -49.5z" />
<glyph unicode="9" horiz-adv-x="1143" d="M815 1021q0 110 -73.5 183t-171 73t-170.5 -73t-73 -183t73 -183.5t170.5 -73.5t171 73.5t73.5 183.5zM733 655q-42 -52 -163 -52q-181 0 -304.5 124t-123.5 293.5t123.5 294t304.5 124.5t305.5 -124.5t124.5 -293.5q-9 -226 -128 -468.5t-340 -571.5h-218 q275 402 419 674z" />
<glyph unicode=":" horiz-adv-x="367" d="M275.5 184.5q36.5 -35.5 36.5 -80.5t-36.5 -80.5t-92.5 -35.5t-92 35.5t-36 80.5t36 80.5t92 35.5t92.5 -35.5zM275.5 778q36.5 -35 36.5 -80t-36.5 -80.5t-92.5 -35.5t-92 35.5t-36 80.5t36 80t92 35t92.5 -35z" />
<glyph unicode=";" horiz-adv-x="421" d="M367 221l-196 -407h-171l109 407h258zM308 778q36 -35 36 -80t-36 -80.5t-92 -35.5t-92.5 35.5t-36.5 80.5t36.5 80t92.5 35t92 -35z" />
<glyph unicode="&#x3c;" horiz-adv-x="1184" d="M449 782l646 -299v-182l-1006 481l1006 481v-182z" />
<glyph unicode="=" horiz-adv-x="1138" d="M85 902h968v-157h-968v157zM89 630h960v-157h-960v157z" />
<glyph unicode="&#x3e;" horiz-adv-x="1184" d="M89 1081v182l1006 -481l-1006 -481v182l646 299z" />
<glyph unicode="?" horiz-adv-x="832" d="M441 104q0 -45 -36 -80.5t-92 -35.5t-92.5 35.5t-36.5 80.5t36.5 80.5t92.5 35.5t92 -35.5t36 -80.5zM52 1076q2 102 18 141q57 139 191 192q67 26 135.5 26t135.5 -26q131 -55 177 -175q23 -63 23 -121t-24 -118q-41 -103 -182 -278t-141 -317q0 -17 6 -78h-181 q-3 52 -3 66q0 200 156.5 393.5t179.5 275.5q8 31 8 66t-19 70q-30 56 -92 79q-27 9 -55 9t-59 -14q-61 -29 -85 -95q-9 -24 -12 -96h-177z" />
<glyph unicode="@" horiz-adv-x="1593" d="M1015 630l7 125q-11 63 -64.5 120.5t-145 57.5t-164.5 -69.5t-79 -190.5q0 -92 61.5 -157.5t153 -65.5t152.5 58t79 122zM776 286q-177 0 -294 125q-106 110 -106 259q12 187 138 307.5t303 120.5t219 -47l2 33h188l-64 -561q4 -39 28.5 -39t69.5 42q88 81 98 296 q0 172 -133.5 305.5t-378.5 133.5t-420 -167t-189 -443q0 -215 149.5 -373.5t375.5 -158.5q156 0 266 67l113 -127q-178 -101 -383 -101q-311 0 -519 220q-189 197 -189 468q18 343 246 559.5t556 216.5t509.5 -183.5t181.5 -403.5q-13 -264 -127.5 -390.5t-266.5 -126.5 q-147 16 -147 119q-49 -151 -226 -151z" />
<glyph unicode="A" horiz-adv-x="1208" d="M743 754l-138 382l-139 -382h277zM684 1439l521 -1439h-188l-217 598h-391l-221 -598h-189l528 1439h157z" />
<glyph unicode="B" horiz-adv-x="1102" d="M555 157q125 0 218.5 93.5t93.5 232.5t-93.5 233t-218.5 94h-262v-653h262zM293 1283v-316h290q59 6 97 44t38 109t-46 117t-104 46h-275zM910 821q140 -140 140 -337t-145 -342q-117 -118 -296 -142h-497v1439h457q141 0 236 -95t95 -223.5t-93 -220.5q33 -8 103 -79z " />
<glyph unicode="C" horiz-adv-x="1419" d="M1230 317l126 -112q-243 -221 -546 -221t-519.5 216.5t-216.5 518t216.5 519.5t519.5 218t546 -222l-126 -112q-198 175 -418.5 175t-388 -167.5t-167.5 -410.5t167.5 -410t388 -167t418.5 175z" />
<glyph unicode="D" horiz-adv-x="1252" d="M416 1439q360 -2 567 -210.5t207 -510t-218 -520.5q-196 -196 -556 -198h-304v1439h304zM293 1279v-1120h122q268 0 421 148q169 169 169 412t-169 414q-153 146 -421 146h-122z" />
<glyph unicode="E" horiz-adv-x="1007" d="M895 1439v-157h-602v-484h602v-157h-602v-484h602v-157h-783v1439h783z" />
<glyph unicode="F" horiz-adv-x="862" d="M810 1439v-157h-517v-484h517v-157h-517v-641h-181v1439h698z" />
<glyph unicode="G" horiz-adv-x="1431" d="M1335 196q-221 -212 -524.5 -212t-520 216.5t-216.5 518t216.5 519.5t519.5 218t546 -222l-126 -112q-198 175 -418.5 175t-388 -167.5t-167.5 -410.5t167.5 -410t381 -167t350.5 110v438h180v-494z" />
<glyph unicode="H" horiz-adv-x="1141" d="M275 641v-641h-181v1439h181v-641h591v641h181v-1439h-181v641h-591z" />
<glyph unicode="I" horiz-adv-x="425" d="M303 1439v-1439h-181v1439h181z" />
<glyph unicode="J" horiz-adv-x="400" d="M286 14q0 -117 -84 -197.5t-263 -80.5v150q97 0 131.5 34t34.5 104v1415h181v-1425z" />
<glyph unicode="K" horiz-adv-x="1102" d="M874 1439l-380 -550l622 -889h-211l-518 741l-94 -135v-606h-181v1439h181v-532l371 532h210z" />
<glyph unicode="L" horiz-adv-x="862" d="M112 0v1439h181v-1282h517v-157h-698z" />
<glyph unicode="M" horiz-adv-x="1496" d="M1403 1439v-1439h-181v1170l-473 -621l-474 621v-1170h-181v1439h193l462 -605l461 605h193z" />
<glyph unicode="N" horiz-adv-x="1398" d="M288 1439l820 -1150v1150h181v-1439h-200l-799 1121v-1121h-181v1439h179z" />
<glyph unicode="O" horiz-adv-x="1621" d="M1341.5 1241q217.5 -218 217.5 -520t-217.5 -519.5t-531 -217.5t-531 217.5t-217.5 519.5t217.5 520t531 218t531 -218zM1209 1132.5q-168 168.5 -398.5 168.5t-398.5 -168.5t-168 -411.5t168 -411t398.5 -168t398.5 168t168 411t-168 411.5z" />
<glyph unicode="P" horiz-adv-x="1032" d="M293 471v-471h-181v1439h412q180 -24 311 -155.5t131 -328t-143 -340.5t-352 -144h-178zM293 1281v-652h178q126 0 220 93.5t94 233t-94 232.5t-220 93h-178z" />
<glyph unicode="Q" horiz-adv-x="1621" d="M1209 1132.5q-168 168.5 -398.5 168.5t-398.5 -168.5t-168 -411.5t168 -411t398.5 -168t398.5 168t168 411t-168 411.5zM277 204q-215 215 -215 517t217.5 520t531 218t531 -218t217.5 -520t-219 -521q-154 -155 -302 -165q193 -81 252 -89q50 1 60 115h183 q-32 -242 -226 -257q-142 0 -261 72q-107 56 -158 59q-70 -4 -89 -73q-9 -33 -14 -77h-183q28 149 136 237q-284 5 -461 182z" />
<glyph unicode="R" horiz-adv-x="1041" d="M293 1281v-652h178q126 0 220 93.5t94 233t-94 232.5t-220 93h-178zM462 471h-169v-471h-181v1439h412q180 -24 311 -155.5t131 -328t-145 -341.5q-96 -97 -170 -115l323 -499h-209z" />
<glyph unicode="S" horiz-adv-x="1017" d="M511 757q-155 51 -249 145t-94 225.5t97.5 230t241.5 98.5t246 -101q53 -52 83 -146l-162 -63q-30 81 -54 105q-49 50 -111.5 50t-111 -48.5t-48.5 -123t50 -126.5q52 -50 142 -92q172 -56 296.5 -180t124.5 -304t-131.5 -311.5t-323 -131.5t-324.5 135 q-104 103 -128 267l174 63q16 -157 92.5 -233t187 -76t193 82.5t82.5 204.5t-81 203q-82 81 -192 127z" />
<glyph unicode="T" horiz-adv-x="931" d="M556 1282v-1282h-180v1282h-344v157h867v-157h-343z" />
<glyph unicode="U" horiz-adv-x="1214" d="M921 1439h181v-1018q-23 -169 -145 -291q-141 -142 -350 -142t-352 143.5t-143 340.5v967h181v-967q0 -138 94 -232.5t220.5 -94.5t220 94.5t93.5 232.5v967z" />
<glyph unicode="V" horiz-adv-x="1158" d="M970 1439h189l-517 -1439h-126l-516 1439h188l392 -1108z" />
<glyph unicode="W" horiz-adv-x="1665" d="M893 1079l291 -751l298 1111h183l-386 -1439h-158l-288 758l-289 -758h-158l-386 1439h184l299 -1111l289 751h121z" />
<glyph unicode="X" horiz-adv-x="1137" d="M15 0l453 787l-376 652h200l276 -479l276 479h201l-377 -652l455 -787h-201l-354 613l-354 -613h-199z" />
<glyph unicode="Y" horiz-adv-x="1233" d="M526 582l-494 857h200l385 -666l384 666h200l-494 -857v-582h-181v582z" />
<glyph unicode="Z" horiz-adv-x="1168" d="M823 1282h-615v157h906l-740 -1282h780v-157h-1070z" />
<glyph unicode="[" horiz-adv-x="477" d="M236 42h186v-156h-367v1680h367v-156h-186v-1368z" />
<glyph unicode="\" horiz-adv-x="744" d="M796 0h-196l-652 1439h197z" />
<glyph unicode="]" horiz-adv-x="477" d="M241 1410h-186v156h367v-1680h-367v156h186v1368z" />
<glyph unicode="^" horiz-adv-x="967" d="M562 1439l307 -533h-202l-183 317l-184 -317h-202l308 533h156z" />
<glyph unicode="_" horiz-adv-x="863" d="M-45 54h953v-156h-953v156z" />
<glyph unicode="`" horiz-adv-x="651" d="M369 1273l208 -239h-190l-312 239h294z" />
<glyph unicode="a" horiz-adv-x="1188" d="M1099 0h-181v160q-107 -184 -325 -184t-368.5 150.5t-150.5 356.5t150.5 356t368.5 150t325 -182v107h181v-914zM918 410v146q-19 99 -91 171q-101 102 -235.5 102t-233.5 -100t-99 -246.5t99 -245.5t233.5 -99t235.5 101q72 72 91 171z" />
<glyph unicode="b" horiz-adv-x="1197" d="M99 1439h181v-630q107 180 325 180t368 -150t150 -356t-150 -356.5t-368 -150.5t-325 181v-157h-181v1439zM280 559v-154q18 -96 93 -170q98 -97 232 -97t233.5 99t99.5 245.5t-99.5 246.5t-233.5 100t-236 -102q-71 -71 -89 -168z" />
<glyph unicode="c" horiz-adv-x="1074" d="M850 292l172 -63q-51 -69 -81 -100q-152 -153 -370 -153t-368.5 150.5t-150.5 356.5t150.5 356t368.5 150t366 -148q34 -34 85 -103l-172 -64q-36 45 -49 59q-97 96 -231 96t-233 -99.5t-99 -246t99 -246t233 -99.5t235 101q9 9 45 53z" />
<glyph unicode="d" horiz-adv-x="1188" d="M1099 0h-181v160q-107 -184 -325 -184t-368.5 150.5t-150.5 356.5t150.5 356t368.5 150t325 -182v632h181v-1439zM918 410v146q-19 99 -91 171q-101 102 -235.5 102t-233.5 -100t-99 -246.5t99 -245.5t233.5 -99t235.5 101q72 72 91 171z" />
<glyph unicode="e" horiz-adv-x="1108" d="M269 643h599q-64 186 -298.5 186t-300.5 -186zM237 485v-3q0 -146 99 -245t233.5 -99t235.5 101q14 14 54 63l170 -60q-38 -64 -88 -113q-152 -153 -370 -153t-368.5 150.5t-150.5 356.5t150.5 356t368.5 150t370 -152q131 -132 131 -352h-835z" />
<glyph unicode="f" horiz-adv-x="480" d="M287 758v-758h-181v758h-84v156h84v187q7 107 84 186q87 80 188 80t175 -36l-53 -150q-61 35 -99.5 35t-75.5 -33q-35 -36 -38 -89v-180h170v-156h-170z" />
<glyph unicode="g" horiz-adv-x="1149" d="M895 559q-20 97 -94 172q-97 98 -231.5 98t-233.5 -100t-99 -246.5t99 -246t233.5 -99.5t235.5 101q70 70 90 166v155zM883 155q-94 -179 -312 -179t-368.5 150.5t-150.5 356.5t150.5 355.5t368 149.5t325.5 -181v107h181v-688q0 -201 -148.5 -349.5t-366.5 -148.5 t-367 149q-34 35 -86 104l173 63q35 -44 49 -56q97 -98 231 -98q283 0 321 265z" />
<glyph unicode="h" horiz-adv-x="936" d="M94 1439h181v-525q46 50 204.5 50t264.5 -106t108 -259v-599h-180v591q0 93 -63 154.5t-143.5 61.5t-128.5 -46.5t-62 -78.5v-682h-181v1439z" />
<glyph unicode="i" horiz-adv-x="415" d="M297 914v-914h-180v914h180zM299.5 1174.5q36.5 -35.5 36.5 -80.5t-36.5 -80.5t-92.5 -35.5t-92 35.5t-36 80.5t36 80.5t92 35.5t92.5 -35.5z" />
<glyph unicode="j" horiz-adv-x="379" d="M-11 -43q103 12 103 81v876h180v-874q0 -208 -283 -231v148zM274 1174.5q36 -35.5 36 -80.5t-36 -80.5t-92 -35.5t-92.5 35.5t-36.5 80.5t36.5 80.5t92.5 35.5t92 -35.5z" />
<glyph unicode="k" horiz-adv-x="744" d="M650 914l-240 -298l348 -616h-207l-258 472l-13 -17v-455h-181v1269h181v-541l151 186h219z" />
<glyph unicode="l" horiz-adv-x="401" d="M291 1439v-1439h-181v1439h181z" />
<glyph unicode="m" horiz-adv-x="1214" d="M280 753v-753h-181v914h113q74 49 193 49t202 -64q81 64 209 64t211.5 -84.5t87.5 -193.5v-685h-181v724q-12 83 -109 83t-130 -78v-729h-181v724h-1q-11 83 -117 83q-74 0 -116 -54z" />
<glyph unicode="n" d="M280 682v-682h-181v914h181q46 50 204.5 50t264.5 -106t108 -259v-599h-180v591q0 93 -63 154.5t-143.5 61.5t-128.5 -46.5t-62 -78.5z" />
<glyph unicode="o" horiz-adv-x="1179" d="M222.5 839q150.5 150 368.5 150t367 -150t149 -356t-149 -356.5t-367 -150.5t-368.5 150.5t-150.5 356.5t150.5 356zM356 729q-99 -100 -99 -246.5t99 -245.5t233.5 -99t234 99t99.5 245.5t-99.5 246.5t-234 100t-233.5 -100z" />
<glyph unicode="p" horiz-adv-x="1176" d="M92 914h181v-105q107 179 325 179t368 -149.5t150 -355.5t-150 -356.5t-368 -150.5t-325 181v-475h-181v1232zM273 559v-154q18 -97 93 -171q98 -97 232 -97t233.5 99.5t99.5 246t-99.5 246.5t-233.5 100t-236 -102q-71 -71 -89 -168z" />
<glyph unicode="q" horiz-adv-x="1173" d="M1085 -318h-181v478q-107 -184 -325 -184t-368.5 150.5t-150.5 356.5t150.5 355.5t368 149.5t325.5 -181v107h181v-1232zM904 410v146q-19 99 -91 171q-101 102 -235.5 102t-233.5 -100t-99 -246.5t99 -246t233.5 -99.5t235.5 101q72 72 91 172z" />
<glyph unicode="r" horiz-adv-x="570" d="M518 778q-124 -19 -192 -98.5t-68 -199.5v-480h-181v914h181v-130q40 107 172 149z" />
<glyph unicode="s" horiz-adv-x="727" d="M334 456q-102 56 -140 94q-74 74 -74 169.5t72 168.5t180 73t175 -67.5t67 -148.5v-28l-162 -66q-15 113 -34.5 133t-45.5 20t-49 -23t-23 -61t21.5 -60t83.5 -61q113 -62 165 -113q82 -84 82 -199.5t-85 -201.5t-213 -86t-213.5 86t-85.5 215l180 45q0 -116 37 -153 t82 -37t82.5 37t37.5 95t-32 89t-108 80z" />
<glyph unicode="t" horiz-adv-x="584" d="M202 914v355h180v-355h170v-156h-170v-758h-180v758h-170v156h170z" />
<glyph unicode="u" d="M869 354q-3 -154 -108.5 -260t-282.5 -106t-282.5 106t-108.5 260v561h181v-554q0 -92 63 -154.5t147 -62.5t147 62.5t63 154.5v554h181v-561z" />
<glyph unicode="v" horiz-adv-x="926" d="M926 914l-408 -914h-114l-404 914h199l262 -609l266 609h199z" />
<glyph unicode="w" horiz-adv-x="1184" d="M1185 914l-311 -914h-127l-155 433l-154 -433h-129l-309 914h195l183 -568l154 426h122l153 -426l182 568h196z" />
<glyph unicode="x" horiz-adv-x="800" d="M298 481l-269 433h204l167 -269l167 269h204l-270 -433l299 -481h-203l-197 317l-197 -317h-203z" />
<glyph unicode="y" horiz-adv-x="896" d="M307 -317h-195l238 512l-335 719h195l238 -505l238 505h195z" />
<glyph unicode="z" horiz-adv-x="850" d="M492 746h-402v156h693l-431 -745h436v-157h-726z" />
<glyph unicode="{" horiz-adv-x="605" d="M90 767q135 27 135 281v31q0 460 325 496v-132q-150 -40 -150 -379v-41q0 -234 -70 -293q70 -59 70 -293v-40q0 -340 150 -379v-133q-325 37 -325 496v31q0 254 -135 282v73z" />
<glyph unicode="|" horiz-adv-x="581" d="M381 1439v-1560h-181v1560h181z" />
<glyph unicode="}" horiz-adv-x="605" d="M515 694q-135 -28 -135 -282v-31q0 -459 -325 -496v133q150 39 150 379v40q0 234 70 293q-70 59 -70 293v41q0 339 -150 379v132q325 -36 325 -496v-31q0 -254 135 -281v-73z" />
<glyph unicode="~" horiz-adv-x="1129" d="M327 895q106 0 259.5 -88.5t209.5 -88.5q3 0 4 1q41 12 55.5 48.5t14.5 113.5l184 -29q-6 -79 -24 -126q-47 -113 -163 -151q-31 -10 -66 -10q-106 0 -260 88t-209 88h-7q-38 -12 -56 -58q-12 -28 -12 -104l-182 30q4 78 22 125q47 112 164 151q30 10 66 10z" />
<glyph unicode="&#xa1;" horiz-adv-x="367" d="M85 1254.5q-36 35.5 -36 80.5t36 80.5t92 35.5t92.5 -35.5t36.5 -80.5t-36.5 -80.5t-92.5 -35.5t-92 35.5zM88 0v1105h181v-1105h-181z" />
<glyph unicode="&#xa2;" horiz-adv-x="1166" d="M483 642v484q-2 -4 -50 -51q-77 -78 -77 -190.5t77 -189.5q48 -49 50 -53zM663 622q44 1 121 77q4 5 40 49l166 -61q-51 -68 -76 -94q-125 -125 -251 -127v-131h-180v144q-89 17 -185 114q-122 121 -122 291t127 296q91 93 180 109v145h180v-132q126 0 251 -126 q25 -25 76 -93l-166 -62q-36 45 -45 55q-71 70 -116 71v-525z" />
<glyph unicode="&#xa3;" horiz-adv-x="966" d="M351 157h545v-157h-794v128q168 165 168 297q0 42 -1 46h-199v157h165q-9 30 -48 105q-97 159 -111 338q0 130 87 235q119 129 307 129q151 0 274 -102l-71 -160q-110 106 -199 106h-14q-96 -4 -148 -66.5t-52 -138.5q9 -116 64 -230q75 -120 98 -216h176v-157h-148v-39 q0 -158 -99 -275z" />
<glyph unicode="&#xa4;" horiz-adv-x="1168" d="M373 1055q66 54 211 54t210 -54l122 122l120 -120l-120 -120q65 -78 65 -212.5t-65 -213.5l120 -120l-120 -119l-121 122q-66 -55 -211 -55t-211 55l-121 -122l-120 119l120 120q-65 79 -65 213.5t65 212.5l-120 120l120 120zM709 910q-55 43 -125.5 43t-124.5 -43 q-25 -18 -45 -45q-46 -60 -46 -141q0 -110 92 -187q53 -41 124 -41q86 0 153 67q63 63 63 161q0 93 -67 167q-10 10 -24 19z" />
<glyph unicode="&#xa5;" horiz-adv-x="1187" d="M503 565h-300v156h220l-414 718h201l383 -668l385 668h200l-415 -718h222v-156h-301v-72h301v-157h-301v-336h-181v336h-300v157h300v72z" />
<glyph unicode="&#xa6;" horiz-adv-x="581" d="M381 1439v-716h-181v716h181zM381 590v-716h-181v716h181z" />
<glyph unicode="&#xa7;" horiz-adv-x="1140" d="M840 317q10 1 10 123.5t-81 203.5t-191 126q-156 53 -243 141l-31 15q-13 0 -13 -121.5t80.5 -202.5t190.5 -126q156 -53 249 -145zM236 1108q-1 5 -1 35q0 131 98 223.5t240.5 92.5t244.5 -88q54 -53 85 -147l-162 -66q-30 83 -67 119.5t-99.5 36.5t-110.5 -48t-48 -123 t50.5 -125.5t140.5 -92.5q173 -56 297 -180t124 -304t-90 -271q-31 -31 -34 -32q1 -5 1 -35q0 -130 -97.5 -223t-240.5 -93t-244 89q-55 52 -84 148l160 63q30 -81 67 -118t100 -37t111 48t48 123t-51 126t-141 92q-172 56 -296.5 180.5t-124.5 304.5t87 265q34 36 37 37z " />
<glyph unicode="&#xa8;" horiz-adv-x="691" d="M295.5 1235.5q36.5 -35.5 36.5 -80.5t-36.5 -80.5t-92.5 -35.5t-92 35.5t-36 80.5t36 80.5t92 35.5t92.5 -35.5zM580 1235.5q36 -35.5 36 -80.5t-36 -80.5t-92 -35.5t-92.5 35.5t-36.5 80.5t36.5 80.5t92.5 35.5t92 -35.5z" />
<glyph unicode="&#xa9;" horiz-adv-x="1276" d="M815 488l161 -62q-52 -69 -70 -88q-101 -102 -245 -102t-242 98.5t-98 230.5t98 229.5t242 97.5t245 -100q19 -21 70 -90l-160 -59q-38 43 -45 51q-47 46 -111 46t-113.5 -49.5t-49.5 -125.5t50 -126t113.5 -50t115.5 51q2 3 39 48zM1056 970q170 -171 170 -406 t-170.5 -405.5t-417.5 -170.5t-417.5 170.5t-170.5 405.5t170.5 406t418 171t417.5 -171zM927 865.5q-122 122.5 -288.5 122.5t-289 -122.5t-122.5 -301.5t122.5 -301t289 -122t288.5 122t122 301t-122 301.5z" />
<glyph unicode="&#xaa;" horiz-adv-x="639" d="M605 905h-162v71q-12 -83 -131 -83t-199 80.5t-80 187t80 186.5t199 80t131 -83v46h162v-485zM423 1130v60q-7 36 -37.5 66.5t-74 30.5t-79 -35.5t-35.5 -91.5t35 -91t79 -35t74.5 30.5t37.5 65.5z" />
<glyph unicode="&#xab;" horiz-adv-x="903" d="M347 449l501 531v-244l-267 -287l267 -287v-245zM55 449l496 532v-245l-268 -287l268 -287v-246z" />
<glyph unicode="&#xac;" horiz-adv-x="1142" d="M1011 281h-181v326h-691v156h872v-482z" />
<glyph unicode="&#xad;" horiz-adv-x="680" d="M48 621h584v-157h-584v157z" />
<glyph unicode="&#xae;" horiz-adv-x="1236" d="M611 1003v-105h14q70 0 73 60q0 45 -63 45h-24zM934 365q-88 -44 -174 -53h-3q-26 -4 -53 -4h-16q-313 4 -473 165q-165 163 -165 391.5t165 388t403 159.5t403 -159.5t165 -389.5q-32 -314 -266 -343q-23 -3 -46 -3q-162 0 -263 154v-108h-188v586h195q250 -2 264 -195 q0 -145 -134 -176q72 -122 142 -122q91 0 118 211q0 168 -115.5 284.5t-274 116.5t-274.5 -116.5t-116 -286.5q0 -171 113 -284t353 -119h25q18 0 38 3q1 1 177 -100z" />
<glyph unicode="&#xaf;" horiz-adv-x="754" d="M75 1092h604v-157h-604v157z" />
<glyph unicode="&#xb0;" horiz-adv-x="474" d="M375.5 1329q54.5 -55 54.5 -126.5t-54.5 -126t-138.5 -54.5t-138.5 54.5t-54.5 126t54.5 126.5t138.5 55t138.5 -55zM292.5 1253.5q-21.5 22.5 -55 22.5t-55.5 -22.5t-22 -50.5t22 -50t55.5 -22t55 22t21.5 50t-21.5 50.5z" />
<glyph unicode="&#xb1;" horiz-adv-x="1138" d="M479 221v388h-394v156h394v395h180v-395h394v-156h-394v-388h-180zM85 0v157h968v-157h-968z" />
<glyph unicode="&#xb2;" horiz-adv-x="879" d="M133 566q423 495 423 615q-3 95 -83 96q-54 -3 -92 -75l-169 70q96 146 260 153q274 -6 274 -240q0 -164 -274 -473h274v-146h-613z" />
<glyph unicode="&#xb3;" horiz-adv-x="836" d="M384 993h-99v144q101 1 117 7t39 28t23 53t-18 47t-38 16t-33.5 -12t-44.5 -84l-165 60q28 83 67 118q72 65 176.5 65t173.5 -64t69 -146q0 -122 -68 -130l65 -65q84 -83 84 -191.5t-89.5 -191.5t-222.5 -83t-225 86q-70 64 -90 185l181 62q15 -121 49 -153 q36 -31 85 -31t87 34.5t38 92t-40.5 98t-120.5 55.5z" />
<glyph unicode="&#xb4;" horiz-adv-x="652" d="M577 1273l-313 -239h-189l208 239h294z" />
<glyph unicode="&#xb5;" horiz-adv-x="893" d="M636 77q-25 -85 -191.5 -85t-185.5 19v-329h-181v1232h181v-654q11 -25 39 -53q60 -58 140.5 -58t142.5 60q41 41 55 90v615h179v-914h-179v77z" />
<glyph unicode="&#xb6;" horiz-adv-x="1236" d="M829 1284v-1535h-180v723h-77q-209 0 -352 143.5t-143 340.5t145 342q117 117 296 141h21v1h620v-156h-74v-1535h-181v1535h-75z" />
<glyph unicode="&#xb7;" horiz-adv-x="344" d="M256 792q33 -32 33 -72.5t-33 -72.5t-84 -32t-84 32t-33 72.5t33 72.5t84 32t84 -32z" />
<glyph unicode="&#xb8;" horiz-adv-x="494" d="M170 -127l31 172h109l-27 -70q58 -4 95 -81q16 -34 16 -65t-14 -58q-41 -82 -171 -82q-55 0 -109 29l55 84q15 -8 37.5 -8t40.5 12t18 28.5t-18 28.5t-36 12t-27 -2z" />
<glyph unicode="&#xb9;" horiz-adv-x="836" d="M327 692v463l-16 -10l-137 91l338 226v-770h177v-145h-542v145h180z" />
<glyph unicode="&#xba;" horiz-adv-x="649" d="M312 1287q-44 0 -79.5 -35.5t-35.5 -91.5t35 -91t80 -35h25q44 0 79.5 35t35.5 91t-35.5 91.5t-79.5 35.5h-25zM312 893q-119 0 -199 80.5t-80 187t80 186.5t199 80h25q118 0 198 -80t80 -186.5t-80 -187t-198 -80.5h-25z" />
<glyph unicode="&#xbb;" horiz-adv-x="903" d="M55 -83v245l266 287l-266 287v244l502 -531zM353 -84v246l267 287l-267 287v245l495 -532z" />
<glyph unicode="&#xbc;" horiz-adv-x="1998" d="M327 692v463l-16 -10l-137 91l338 226v-770h177v-145h-542v145h180zM1684 1439l-1032 -1439h-216l1030 1439h218zM1807 1054v-716h78v-145h-78v-193h-185v193h-376zM1622 457l-77 -119h77v119z" />
<glyph unicode="&#xbd;" horiz-adv-x="2012" d="M327 692v463l-16 -10l-137 91l338 226v-770h177v-145h-542v145h180zM1684 1439l-1032 -1439h-216l1030 1439h218zM1266 0q423 495 423 615q-3 95 -83 96q-54 -3 -92 -75l-169 70q96 146 260 153q274 -6 274 -240q0 -164 -274 -473h274v-146h-613z" />
<glyph unicode="&#xbe;" horiz-adv-x="1998" d="M384 993h-99v144q101 1 117 7t39 28t23 53t-18 47t-38 16t-33.5 -12t-44.5 -84l-165 60q28 83 67 118q72 65 176.5 65t173.5 -64t69 -146q0 -122 -68 -130l65 -65q84 -83 84 -191.5t-89.5 -191.5t-222.5 -83t-225 86q-70 64 -90 185l181 62q15 -121 49 -153 q36 -31 85 -31t87 34.5t38 92t-40.5 98t-120.5 55.5zM1684 1439l-1032 -1439h-216l1030 1439h218zM1807 1054v-716h78v-145h-78v-193h-185v193h-376zM1622 457l-77 -119h77v119z" />
<glyph unicode="&#xbf;" horiz-adv-x="832" d="M405 1238.5q-36 -35.5 -92 -35.5t-92.5 35.5t-36.5 80.5t36.5 80.5t92.5 35.5t92 -35.5t36 -80.5t-36 -80.5zM229 347q3 -72 12 -96q24 -66 85 -95q31 -14 59 -14t55 9q62 23 92 79q19 35 19 70t-8 66q-23 82 -179.5 275.5t-156.5 393.5q0 14 3 66h181q-6 -61 -6 -78 q0 -142 141 -317t173.5 -256.5t32.5 -139.5t-23 -121q-46 -120 -177 -175q-67 -26 -135.5 -26t-135.5 26q-134 53 -191 192q-16 39 -18 141h177z" />
<glyph unicode="&#xc0;" horiz-adv-x="1208" d="M743 754l-138 382l-139 -382h277zM684 1439l521 -1439h-188l-217 598h-391l-221 -598h-189l528 1439h157zM562 1798l208 -239h-190l-312 239h294z" />
<glyph unicode="&#xc1;" horiz-adv-x="1208" d="M743 754l-138 382l-139 -382h277zM684 1439l521 -1439h-188l-217 598h-391l-221 -598h-189l528 1439h157zM937 1798l-313 -239h-189l208 239h294z" />
<glyph unicode="&#xc2;" horiz-adv-x="1208" d="M743 754l-138 382l-139 -382h277zM684 1439l521 -1439h-188l-217 598h-391l-221 -598h-189l528 1439h157zM946 1560h-231l-117 87l-110 -87h-230l338 278z" />
<glyph unicode="&#xc3;" horiz-adv-x="1208" d="M743 754l-138 382l-139 -382h277zM684 1439l521 -1439h-188l-217 598h-391l-221 -598h-189l528 1439h157zM534 1631q-2 -22 -2 -77l-167 36q2 71 11 98q23 70 86 96q22 10 49 10q59 0 135 -55q14 -10 23 -16q1 22 1 75l169 -33q-4 -72 -13 -99q-22 -70 -87 -98 q-24 -8 -47 -8q-59 0 -136 55q-13 10 -22 16z" />
<glyph unicode="&#xc4;" horiz-adv-x="1208" d="M743 754l-138 382l-139 -382h277zM684 1439l521 -1439h-188l-217 598h-391l-221 -598h-189l528 1439h157zM552.5 1760.5q36.5 -35.5 36.5 -80.5t-36.5 -80.5t-92.5 -35.5t-92 35.5t-36 80.5t36 80.5t92 35.5t92.5 -35.5zM837 1760.5q36 -35.5 36 -80.5t-36 -80.5 t-92 -35.5t-92.5 35.5t-36.5 80.5t36.5 80.5t92.5 35.5t92 -35.5z" />
<glyph unicode="&#xc5;" horiz-adv-x="1208" d="M743 754l-138 382l-139 -382h277zM602 1549q-21 0 -34.5 -13.5t-13.5 -31t13.5 -31t34.5 -13.5t34.5 13.5t13.5 31t-13.5 31t-34.5 13.5zM763 1504q0 -65 -60 -116l502 -1388h-188l-217 598h-391l-221 -598h-189l508 1384q-65 47 -65 120q0 58 45 103.5t115 45.5 t115.5 -45.5t45.5 -103.5z" />
<glyph unicode="&#xc6;" horiz-adv-x="1514" d="M1402 798v-157h-602v-484h602v-157h-782v521h-199l-231 -521h-191l625 1439h778v-157h-602v-484h602zM620 677v317l-136 -317h136z" />
<glyph unicode="&#xc7;" horiz-adv-x="1419" d="M661 -1q-212 43 -370 202q-217 216 -217 517.5t216.5 519.5t519.5 218t546 -222l-126 -112q-198 175 -418.5 175t-388 -167.5t-167.5 -410.5t167.5 -410t388 -167t418.5 175l126 -112q-243 -221 -535 -221q-33 0 -66 2l-4 -11q58 -4 95 -81q16 -34 16 -65t-14 -58 q-41 -82 -171 -82q-55 0 -109 29l55 84q15 -8 37.5 -8t40.5 12t18 28.5t-18 28.5t-36 12t-27 -2z" />
<glyph unicode="&#xc8;" horiz-adv-x="1007" d="M895 1439v-157h-602v-484h602v-157h-602v-484h602v-157h-783v1439h783zM463 1798l208 -239h-190l-312 239h294z" />
<glyph unicode="&#xc9;" horiz-adv-x="1007" d="M895 1439v-157h-602v-484h602v-157h-602v-484h602v-157h-783v1439h783zM838 1798l-313 -239h-189l208 239h294z" />
<glyph unicode="&#xca;" horiz-adv-x="1007" d="M895 1439v-157h-602v-484h602v-157h-602v-484h602v-157h-783v1439h783zM847 1560h-231l-117 87l-110 -87h-230l338 278z" />
<glyph unicode="&#xcb;" horiz-adv-x="1007" d="M895 1439v-157h-602v-484h602v-157h-602v-484h602v-157h-783v1439h783zM453.5 1760.5q36.5 -35.5 36.5 -80.5t-36.5 -80.5t-92.5 -35.5t-92 35.5t-36 80.5t36 80.5t92 35.5t92.5 -35.5zM738 1760.5q36 -35.5 36 -80.5t-36 -80.5t-92 -35.5t-92.5 35.5t-36.5 80.5 t36.5 80.5t92.5 35.5t92 -35.5z" />
<glyph unicode="&#xcc;" horiz-adv-x="425" d="M303 1439v-1439h-181v1439h181zM172 1798l208 -239h-190l-312 239h294z" />
<glyph unicode="&#xcd;" horiz-adv-x="425" d="M303 1439v-1439h-181v1439h181zM547 1798l-313 -239h-189l208 239h294z" />
<glyph unicode="&#xce;" horiz-adv-x="425" d="M303 1439v-1439h-181v1439h181zM556 1560h-231l-117 87l-110 -87h-230l338 278z" />
<glyph unicode="&#xcf;" horiz-adv-x="425" d="M303 1439v-1439h-181v1439h181zM162.5 1760.5q36.5 -35.5 36.5 -80.5t-36.5 -80.5t-92.5 -35.5t-92 35.5t-36 80.5t36 80.5t92 35.5t92.5 -35.5zM447 1760.5q36 -35.5 36 -80.5t-36 -80.5t-92 -35.5t-92.5 35.5t-36.5 80.5t36.5 80.5t92.5 35.5t92 -35.5z" />
<glyph unicode="&#xd0;" horiz-adv-x="1298" d="M324 641v-482h121q269 0 421 148q170 169 170 412t-170 414q-152 146 -421 146h-121v-481h472v-157h-472zM143 798v641h304q360 -2 567 -210.5t207 -510t-218 -520.5q-196 -196 -556 -198h-304v641h-123v157h123z" />
<glyph unicode="&#xd1;" horiz-adv-x="1398" d="M288 1439l820 -1150v1150h181v-1439h-200l-799 1121v-1121h-181v1439h179zM631 1631q-2 -22 -2 -77l-167 36q2 71 11 98q23 70 86 96q22 10 49 10q59 0 135 -55q14 -10 23 -16q1 22 1 75l169 -33q-4 -72 -13 -99q-22 -70 -87 -98q-24 -8 -47 -8q-59 0 -136 55 q-13 10 -22 16z" />
<glyph unicode="&#xd2;" horiz-adv-x="1621" d="M1341.5 1241q217.5 -218 217.5 -520t-217.5 -519.5t-531 -217.5t-531 217.5t-217.5 519.5t217.5 520t531 218t531 -218zM1209 1132.5q-168 168.5 -398.5 168.5t-398.5 -168.5t-168 -411.5t168 -411t398.5 -168t398.5 168t168 411t-168 411.5zM770 1798l208 -239h-190 l-312 239h294z" />
<glyph unicode="&#xd3;" horiz-adv-x="1621" d="M1341.5 1241q217.5 -218 217.5 -520t-217.5 -519.5t-531 -217.5t-531 217.5t-217.5 519.5t217.5 520t531 218t531 -218zM1209 1132.5q-168 168.5 -398.5 168.5t-398.5 -168.5t-168 -411.5t168 -411t398.5 -168t398.5 168t168 411t-168 411.5zM1145 1798l-313 -239h-189 l208 239h294z" />
<glyph unicode="&#xd4;" horiz-adv-x="1621" d="M1341.5 1241q217.5 -218 217.5 -520t-217.5 -519.5t-531 -217.5t-531 217.5t-217.5 519.5t217.5 520t531 218t531 -218zM1209 1132.5q-168 168.5 -398.5 168.5t-398.5 -168.5t-168 -411.5t168 -411t398.5 -168t398.5 168t168 411t-168 411.5zM1154 1560h-231l-117 87 l-110 -87h-230l338 278z" />
<glyph unicode="&#xd5;" horiz-adv-x="1621" d="M1341.5 1241q217.5 -218 217.5 -520t-217.5 -519.5t-531 -217.5t-531 217.5t-217.5 519.5t217.5 520t531 218t531 -218zM1209 1132.5q-168 168.5 -398.5 168.5t-398.5 -168.5t-168 -411.5t168 -411t398.5 -168t398.5 168t168 411t-168 411.5zM742 1631q-2 -22 -2 -77 l-167 36q2 71 11 98q23 70 86 96q22 10 49 10q59 0 135 -55q14 -10 23 -16q1 22 1 75l169 -33q-4 -72 -13 -99q-22 -70 -87 -98q-24 -8 -47 -8q-59 0 -136 55q-13 10 -22 16z" />
<glyph unicode="&#xd6;" horiz-adv-x="1621" d="M1341.5 1241q217.5 -218 217.5 -520t-217.5 -519.5t-531 -217.5t-531 217.5t-217.5 519.5t217.5 520t531 218t531 -218zM1209 1132.5q-168 168.5 -398.5 168.5t-398.5 -168.5t-168 -411.5t168 -411t398.5 -168t398.5 168t168 411t-168 411.5zM760.5 1760.5 q36.5 -35.5 36.5 -80.5t-36.5 -80.5t-92.5 -35.5t-92 35.5t-36 80.5t36 80.5t92 35.5t92.5 -35.5zM1045 1760.5q36 -35.5 36 -80.5t-36 -80.5t-92 -35.5t-92.5 35.5t-36.5 80.5t36.5 80.5t92.5 35.5t92 -35.5z" />
<glyph unicode="&#xd7;" horiz-adv-x="1172" d="M585 567l-277 -277l-120 118l279 279l-279 279l120 118l277 -277l279 277l120 -118l-279 -279l279 -279l-120 -118z" />
<glyph unicode="&#xd8;" horiz-adv-x="1693" d="M1009 1280q-52 21 -163 21q-230 0 -398 -168.5t-168 -411.5t166 -410q65 -64 79 -73zM683 162q53 -20 163 -20q231 0 399 168t168 411t-170 415q-61 60 -75 68zM1237 1353q61 -33 143 -114q215 -216 215 -518t-217.5 -519.5t-531.5 -217.5q-152 0 -231 32l-74 -160 l-159 76l74 158q-62 33 -143 114q-215 215 -215 517t217.5 520t530.5 218q152 0 232 -32l74 158l159 -73z" />
<glyph unicode="&#xd9;" horiz-adv-x="1214" d="M921 1439h181v-1018q-23 -169 -145 -291q-141 -142 -350 -142t-352 143.5t-143 340.5v967h181v-967q0 -138 94 -232.5t220.5 -94.5t220 94.5t93.5 232.5v967zM567 1798l208 -239h-190l-312 239h294z" />
<glyph unicode="&#xda;" horiz-adv-x="1214" d="M921 1439h181v-1018q-23 -169 -145 -291q-141 -142 -350 -142t-352 143.5t-143 340.5v967h181v-967q0 -138 94 -232.5t220.5 -94.5t220 94.5t93.5 232.5v967zM942 1798l-313 -239h-189l208 239h294z" />
<glyph unicode="&#xdb;" horiz-adv-x="1214" d="M921 1439h181v-1018q-23 -169 -145 -291q-141 -142 -350 -142t-352 143.5t-143 340.5v967h181v-967q0 -138 94 -232.5t220.5 -94.5t220 94.5t93.5 232.5v967zM951 1560h-231l-117 87l-110 -87h-230l338 278z" />
<glyph unicode="&#xdc;" horiz-adv-x="1214" d="M921 1439h181v-1018q-23 -169 -145 -291q-141 -142 -350 -142t-352 143.5t-143 340.5v967h181v-967q0 -138 94 -232.5t220.5 -94.5t220 94.5t93.5 232.5v967zM557.5 1760.5q36.5 -35.5 36.5 -80.5t-36.5 -80.5t-92.5 -35.5t-92 35.5t-36 80.5t36 80.5t92 35.5t92.5 -35.5 zM842 1760.5q36 -35.5 36 -80.5t-36 -80.5t-92 -35.5t-92.5 35.5t-36.5 80.5t36.5 80.5t92.5 35.5t92 -35.5z" />
<glyph unicode="&#xdd;" horiz-adv-x="1233" d="M526 582l-494 857h200l385 -666l384 666h200l-494 -857v-582h-181v582zM951 1798l-313 -239h-189l208 239h294z" />
<glyph unicode="&#xde;" horiz-adv-x="1019" d="M279 1204h231q180 -25 297 -142q145 -145 145 -342t-143 -340.5t-352 -143.5h-178v-236h-181v1439h181v-235zM279 393h178q126 0 220 94.5t94 233t-94 232.5t-220 94h-178v-654z" />
<glyph unicode="&#xdf;" horiz-adv-x="1061" d="M531 1216q-80 0 -116.5 -34.5t-39.5 -87.5v-1094h-181v758h-84v156h84v187q7 108 88.5 187t246.5 79q290 -16 291 -267q0 -123 -115 -215q-90 -71 -90 -122q3 -44 171 -124q215 -104 215 -304q0 -166 -100.5 -256.5t-226.5 -90.5q-167 0 -279 114l121 118q75 -76 158 -76 q47 0 97.5 43t50.5 147q-8 125 -164 193q-217 95 -219 226t119 220q82 59 82 131q-1 99 -109 112z" />
<glyph unicode="&#xe0;" horiz-adv-x="1188" d="M1099 0h-181v160q-107 -184 -325 -184t-368.5 150.5t-150.5 356.5t150.5 356t368.5 150t325 -182v107h181v-914zM918 410v146q-19 99 -91 171q-101 102 -235.5 102t-233.5 -100t-99 -246.5t99 -245.5t233.5 -99t235.5 101q72 72 91 171zM546 1273l208 -239h-190l-312 239 h294z" />
<glyph unicode="&#xe1;" horiz-adv-x="1188" d="M1099 0h-181v160q-107 -184 -325 -184t-368.5 150.5t-150.5 356.5t150.5 356t368.5 150t325 -182v107h181v-914zM918 410v146q-19 99 -91 171q-101 102 -235.5 102t-233.5 -100t-99 -246.5t99 -245.5t233.5 -99t235.5 101q72 72 91 171zM921 1273l-313 -239h-189l208 239 h294z" />
<glyph unicode="&#xe2;" horiz-adv-x="1188" d="M1099 0h-181v160q-107 -184 -325 -184t-368.5 150.5t-150.5 356.5t150.5 356t368.5 150t325 -182v107h181v-914zM918 410v146q-19 99 -91 171q-101 102 -235.5 102t-233.5 -100t-99 -246.5t99 -245.5t233.5 -99t235.5 101q72 72 91 171zM930 1035h-231l-117 87l-110 -87 h-230l338 278z" />
<glyph unicode="&#xe3;" horiz-adv-x="1188" d="M1099 0h-181v160q-107 -184 -325 -184t-368.5 150.5t-150.5 356.5t150.5 356t368.5 150t325 -182v107h181v-914zM918 410v146q-19 99 -91 171q-101 102 -235.5 102t-233.5 -100t-99 -246.5t99 -245.5t233.5 -99t235.5 101q72 72 91 171zM518 1106q-2 -22 -2 -77l-167 36 q2 71 11 98q23 70 86 96q22 10 49 10q59 0 135 -55q14 -10 23 -16q1 22 1 75l169 -33q-4 -72 -13 -99q-22 -70 -87 -98q-24 -8 -47 -8q-59 0 -136 55q-13 10 -22 16z" />
<glyph unicode="&#xe4;" horiz-adv-x="1188" d="M1099 0h-181v160q-107 -184 -325 -184t-368.5 150.5t-150.5 356.5t150.5 356t368.5 150t325 -182v107h181v-914zM918 410v146q-19 99 -91 171q-101 102 -235.5 102t-233.5 -100t-99 -246.5t99 -245.5t233.5 -99t235.5 101q72 72 91 171zM536.5 1235.5 q36.5 -35.5 36.5 -80.5t-36.5 -80.5t-92.5 -35.5t-92 35.5t-36 80.5t36 80.5t92 35.5t92.5 -35.5zM821 1235.5q36 -35.5 36 -80.5t-36 -80.5t-92 -35.5t-92.5 35.5t-36.5 80.5t36.5 80.5t92.5 35.5t92 -35.5z" />
<glyph unicode="&#xe5;" horiz-adv-x="1188" d="M918 410v146q-19 99 -91 171q-101 102 -235.5 102t-233.5 -100t-99 -246.5t99 -245.5t233.5 -99t235.5 101q72 72 91 171zM586 1124q-21 0 -34.5 -13.5t-13.5 -31t13.5 -31t34.5 -13.5t34.5 13.5t13.5 31t-13.5 31t-34.5 13.5zM918 807v107h181v-914h-181v160 q-107 -184 -325 -184t-368.5 150.5t-150.5 356.5t151 356q106 106 246 137q-45 45 -45 103t45 103.5t115.5 45.5t115.5 -45.5t45 -103.5t-45 -103q138 -36 216 -169z" />
<glyph unicode="&#xe6;" horiz-adv-x="1908" d="M918 556q-17 97 -91 171q-101 102 -235.5 102t-233.5 -100t-99 -246.5t99 -245.5t233.5 -99t235.5 101q74 74 91 171v146zM1658 643q-10 31 -68 88q-96 98 -230.5 98t-235.5 -102q-17 -16 -25 -29v-55h559zM1099 267q8 -12 29 -32q97 -97 231.5 -97t231.5 97q18 18 56 68 l171 -61q-38 -64 -88 -113q-152 -153 -364 -153t-267 52v-28h-181v160q-107 -184 -325 -184t-368.5 150.5t-150.5 356.5t150.5 356t368.5 150t325 -182v107h181q55 75 267 75t353.5 -142t148.5 -362l-769 1v-219z" />
<glyph unicode="&#xe7;" horiz-adv-x="1074" d="M480 -17q-159 25 -277 144q-151 150 -151 356t150.5 356t368.5 150t366 -148q34 -34 85 -103l-172 -64q-36 45 -49 59q-97 96 -231 96t-233 -99.5t-99 -246t99 -246t233 -99.5t235 101q9 9 45 53l172 -63q-51 -69 -81 -100q-151 -152 -368 -153v-1q58 -4 95 -81 q16 -34 16 -65t-14 -58q-41 -82 -171 -82q-55 0 -109 29l55 84q15 -8 37.5 -8t40.5 12t18 28.5t-18 28.5t-36 12t-27 -2z" />
<glyph unicode="&#xe8;" horiz-adv-x="1108" d="M269 643h599q-64 186 -298.5 186t-300.5 -186zM237 485v-3q0 -146 99 -245t233.5 -99t235.5 101q14 14 54 63l170 -60q-38 -64 -88 -113q-152 -153 -370 -153t-368.5 150.5t-150.5 356.5t150.5 356t368.5 150t370 -152q131 -132 131 -352h-835zM522 1273l208 -239h-190 l-312 239h294z" />
<glyph unicode="&#xe9;" horiz-adv-x="1108" d="M269 643h599q-64 186 -298.5 186t-300.5 -186zM237 485v-3q0 -146 99 -245t233.5 -99t235.5 101q14 14 54 63l170 -60q-38 -64 -88 -113q-152 -153 -370 -153t-368.5 150.5t-150.5 356.5t150.5 356t368.5 150t370 -152q131 -132 131 -352h-835zM897 1273l-313 -239h-189 l208 239h294z" />
<glyph unicode="&#xea;" horiz-adv-x="1108" d="M269 643h599q-64 186 -298.5 186t-300.5 -186zM237 485v-3q0 -146 99 -245t233.5 -99t235.5 101q14 14 54 63l170 -60q-38 -64 -88 -113q-152 -153 -370 -153t-368.5 150.5t-150.5 356.5t150.5 356t368.5 150t370 -152q131 -132 131 -352h-835zM906 1035h-231l-117 87 l-110 -87h-230l338 278z" />
<glyph unicode="&#xeb;" horiz-adv-x="1108" d="M269 643h599q-64 186 -298.5 186t-300.5 -186zM237 485v-3q0 -146 99 -245t233.5 -99t235.5 101q14 14 54 63l170 -60q-38 -64 -88 -113q-152 -153 -370 -153t-368.5 150.5t-150.5 356.5t150.5 356t368.5 150t370 -152q131 -132 131 -352h-835zM511.5 1235.5 q36.5 -35.5 36.5 -80.5t-36.5 -80.5t-92.5 -35.5t-92 35.5t-36 80.5t36 80.5t92 35.5t92.5 -35.5zM796 1235.5q36 -35.5 36 -80.5t-36 -80.5t-92 -35.5t-92.5 35.5t-36.5 80.5t36.5 80.5t92.5 35.5t92 -35.5z" />
<glyph unicode="&#xec;" horiz-adv-x="418" d="M299 914v-914h-180v914h180zM168 1273l208 -239h-190l-312 239h294z" />
<glyph unicode="&#xed;" horiz-adv-x="418" d="M299 914v-914h-180v914h180zM544 1273l-313 -239h-189l208 239h294z" />
<glyph unicode="&#xee;" horiz-adv-x="418" d="M299 914v-914h-180v914h180zM553 1035h-231l-117 87l-110 -87h-230l338 278z" />
<glyph unicode="&#xef;" horiz-adv-x="418" d="M299 914v-914h-180v914h180zM158.5 1235.5q36.5 -35.5 36.5 -80.5t-36.5 -80.5t-92.5 -35.5t-92 35.5t-36 80.5t36 80.5t92 35.5t92.5 -35.5zM443 1235.5q36 -35.5 36 -80.5t-36 -80.5t-92 -35.5t-92.5 35.5t-36.5 80.5t36.5 80.5t92.5 35.5t92 -35.5z" />
<glyph unicode="&#xf0;" horiz-adv-x="1179" d="M356 729q-99 -100 -99 -246.5t99 -245.5t233.5 -99t234 99t99.5 245.5t-99.5 246.5t-234 100t-233.5 -100zM613 1168q304 -288 348 -331q146 -148 146 -354t-149 -356.5t-367 -150.5t-368.5 150.5t-150.5 356.5t150.5 356t333.5 157l-60 55l-48 -48l-191 49l117 117 l-230 228h238l110 -110l61 61l177 -63z" />
<glyph unicode="&#xf1;" d="M280 682v-682h-181v914h181q46 50 204.5 50t264.5 -106t108 -259v-599h-180v591q0 93 -63 154.5t-143.5 61.5t-128.5 -46.5t-62 -78.5zM410 1106q-2 -22 -2 -77l-167 36q2 71 11 98q23 70 86 96q22 10 49 10q59 0 135 -55q14 -10 23 -16q1 22 1 75l169 -33 q-4 -72 -13 -99q-22 -70 -87 -98q-24 -8 -47 -8q-59 0 -136 55q-13 10 -22 16z" />
<glyph unicode="&#xf2;" horiz-adv-x="1179" d="M222.5 839q150.5 150 368.5 150t367 -150t149 -356t-149 -356.5t-367 -150.5t-368.5 150.5t-150.5 356.5t150.5 356zM356 729q-99 -100 -99 -246.5t99 -245.5t233.5 -99t234 99t99.5 245.5t-99.5 246.5t-234 100t-233.5 -100zM549 1273l208 -239h-190l-312 239h294z" />
<glyph unicode="&#xf3;" horiz-adv-x="1179" d="M222.5 839q150.5 150 368.5 150t367 -150t149 -356t-149 -356.5t-367 -150.5t-368.5 150.5t-150.5 356.5t150.5 356zM356 729q-99 -100 -99 -246.5t99 -245.5t233.5 -99t234 99t99.5 245.5t-99.5 246.5t-234 100t-233.5 -100zM924 1273l-313 -239h-189l208 239h294z" />
<glyph unicode="&#xf4;" horiz-adv-x="1179" d="M222.5 839q150.5 150 368.5 150t367 -150t149 -356t-149 -356.5t-367 -150.5t-368.5 150.5t-150.5 356.5t150.5 356zM356 729q-99 -100 -99 -246.5t99 -245.5t233.5 -99t234 99t99.5 245.5t-99.5 246.5t-234 100t-233.5 -100zM933 1035h-231l-117 87l-110 -87h-230 l338 278z" />
<glyph unicode="&#xf5;" horiz-adv-x="1179" d="M222.5 839q150.5 150 368.5 150t367 -150t149 -356t-149 -356.5t-367 -150.5t-368.5 150.5t-150.5 356.5t150.5 356zM356 729q-99 -100 -99 -246.5t99 -245.5t233.5 -99t234 99t99.5 245.5t-99.5 246.5t-234 100t-233.5 -100zM522 1106q-2 -22 -2 -77l-167 36q2 71 11 98 q23 70 86 96q22 10 49 10q59 0 135 -55q14 -10 23 -16q1 22 1 75l169 -33q-4 -72 -13 -99q-22 -70 -87 -98q-24 -8 -47 -8q-59 0 -136 55q-13 10 -22 16z" />
<glyph unicode="&#xf6;" horiz-adv-x="1179" d="M222.5 839q150.5 150 368.5 150t367 -150t149 -356t-149 -356.5t-367 -150.5t-368.5 150.5t-150.5 356.5t150.5 356zM356 729q-99 -100 -99 -246.5t99 -245.5t233.5 -99t234 99t99.5 245.5t-99.5 246.5t-234 100t-233.5 -100zM539.5 1235.5q36.5 -35.5 36.5 -80.5 t-36.5 -80.5t-92.5 -35.5t-92 35.5t-36 80.5t36 80.5t92 35.5t92.5 -35.5zM824 1235.5q36 -35.5 36 -80.5t-36 -80.5t-92 -35.5t-92.5 35.5t-36.5 80.5t36.5 80.5t92.5 35.5t92 -35.5z" />
<glyph unicode="&#xf7;" horiz-adv-x="1138" d="M85 609v156h968v-156h-968zM661.5 471.5q36.5 -35.5 36.5 -80.5t-36.5 -80.5t-92 -35.5t-92 35.5t-36.5 80.5t36.5 80.5t92 35.5t92 -35.5zM661.5 1064.5q36.5 -35.5 36.5 -80.5t-36.5 -80.5t-92 -35.5t-92 35.5t-36.5 80.5t36.5 80.5t92 35.5t92 -35.5z" />
<glyph unicode="&#xf8;" horiz-adv-x="1145" d="M666 819q-20 10 -93 10q-135 0 -234 -99.5t-99 -246t97 -244.5zM816 730l-337 -582q21 -9 94 -9q134 0 233.5 99t99.5 245.5t-90 246.5zM246 90q-10 7 -44 39q-147 149 -147 355t150.5 356t367.5 150q123 0 178 -26l104 183l154 -82l-108 -187q9 -7 43 -40 q146 -148 146 -354t-149 -356.5t-368 -150.5q-124 0 -177 26l-104 -180l-156 73z" />
<glyph unicode="&#xf9;" d="M869 354q-3 -154 -108.5 -260t-282.5 -106t-282.5 106t-108.5 260v561h181v-554q0 -92 63 -154.5t147 -62.5t147 62.5t63 154.5v554h181v-561zM437 1273l208 -239h-190l-312 239h294z" />
<glyph unicode="&#xfa;" d="M869 354q-3 -154 -108.5 -260t-282.5 -106t-282.5 106t-108.5 260v561h181v-554q0 -92 63 -154.5t147 -62.5t147 62.5t63 154.5v554h181v-561zM812 1273l-313 -239h-189l208 239h294z" />
<glyph unicode="&#xfb;" d="M869 354q-3 -154 -108.5 -260t-282.5 -106t-282.5 106t-108.5 260v561h181v-554q0 -92 63 -154.5t147 -62.5t147 62.5t63 154.5v554h181v-561zM822 1035h-231l-117 87l-110 -87h-230l338 278z" />
<glyph unicode="&#xfc;" d="M869 354q-3 -154 -108.5 -260t-282.5 -106t-282.5 106t-108.5 260v561h181v-554q0 -92 63 -154.5t147 -62.5t147 62.5t63 154.5v554h181v-561zM427.5 1235.5q36.5 -35.5 36.5 -80.5t-36.5 -80.5t-92.5 -35.5t-92 35.5t-36 80.5t36 80.5t92 35.5t92.5 -35.5zM712 1235.5 q36 -35.5 36 -80.5t-36 -80.5t-92 -35.5t-92.5 35.5t-36.5 80.5t36.5 80.5t92.5 35.5t92 -35.5z" />
<glyph unicode="&#xfd;" horiz-adv-x="896" d="M307 -317h-195l238 512l-335 719h195l238 -505l238 505h195zM783 1273l-313 -239h-189l208 239h294z" />
<glyph unicode="&#xfe;" horiz-adv-x="1270" d="M308 574v-184q21 -87 91 -156q96 -97 230.5 -97t233.5 99.5t99 246t-99.5 246.5t-233.5 100t-230 -98q-70 -69 -91 -157zM308 850q104 138 322 138t367.5 -149.5t149.5 -355.5t-149.5 -356.5t-367.5 -150.5t-322 129v-409h-181v1573h181v-419z" />
<glyph unicode="&#xff;" horiz-adv-x="896" d="M307 -317h-195l238 512l-335 719h195l238 -505l238 505h195zM398.5 1235.5q36.5 -35.5 36.5 -80.5t-36.5 -80.5t-92.5 -35.5t-92 35.5t-36 80.5t36 80.5t92 35.5t92.5 -35.5zM683 1235.5q36 -35.5 36 -80.5t-36 -80.5t-92 -35.5t-92.5 35.5t-36.5 80.5t36.5 80.5 t92.5 35.5t92 -35.5z" />
<glyph unicode="&#x100;" horiz-adv-x="1208" d="M743 754l-138 382l-139 -382h277zM684 1439l521 -1439h-188l-217 598h-391l-221 -598h-189l528 1439h157zM300 1699h604v-140h-604v140z" />
<glyph unicode="&#x101;" horiz-adv-x="1188" d="M1099 0h-181v160q-107 -184 -325 -184t-368.5 150.5t-150.5 356.5t150.5 356t368.5 150t325 -182v107h181v-914zM918 410v146q-19 99 -91 171q-101 102 -235.5 102t-233.5 -100t-99 -246.5t99 -245.5t233.5 -99t235.5 101q72 72 91 171zM284 1174h604v-140h-604v140z" />
<glyph unicode="&#x102;" horiz-adv-x="1208" d="M743 754l-138 382l-139 -382h277zM684 1439l521 -1439h-188l-217 598h-391l-221 -598h-189l528 1439h157zM604 1723q51 0 88 77h167q-31 -101 -74 -144q-73 -75 -182 -75t-182 75q-44 45 -76 144h168q21 -40 39.5 -58.5t51.5 -18.5z" />
<glyph unicode="&#x103;" horiz-adv-x="1188" d="M1099 0h-181v160q-107 -184 -325 -184t-368.5 150.5t-150.5 356.5t150.5 356t368.5 150t325 -182v107h181v-914zM918 410v146q-19 99 -91 171q-101 102 -235.5 102t-233.5 -100t-99 -246.5t99 -245.5t233.5 -99t235.5 101q72 72 91 171zM588 1198q51 0 88 77h167 q-31 -101 -74 -144q-73 -75 -182 -75t-182 75q-44 45 -76 144h168q21 -40 39.5 -58.5t51.5 -18.5z" />
<glyph unicode="&#x104;" horiz-adv-x="1208" d="M743 754l-138 382l-139 -382h277zM1179 0q-54 -34 -54 -56.5t13.5 -36t29.5 -13.5t24 3l13 -105q-15 -2 -32 -2q-70 0 -115 45t-45 90.5t15 74.5h-11l-217 598h-391l-221 -598h-189l528 1439h157l521 -1439h-26z" />
<glyph unicode="&#x105;" horiz-adv-x="1188" d="M918 410v146q-19 99 -91 171q-101 102 -235.5 102t-233.5 -100t-99 -246.5t99 -245.5t233.5 -99t235.5 101q72 72 91 171zM1073 0q-54 -34 -54 -56.5t13.5 -36t29 -13.5t24.5 3l13 -105q-16 -2 -32 -2q-70 0 -115 45t-45 90.5t15 74.5h-4v160q-107 -184 -325 -184 t-368.5 150.5t-150.5 356.5t150.5 356t368.5 150t325 -182v107h181v-914h-26z" />
<glyph unicode="&#x106;" horiz-adv-x="1419" d="M1230 317l126 -112q-243 -221 -546 -221t-519.5 216.5t-216.5 518t216.5 519.5t519.5 218t546 -222l-126 -112q-198 175 -418.5 175t-388 -167.5t-167.5 -410.5t167.5 -410t388 -167t418.5 175zM1050 1798l-313 -239h-189l208 239h294z" />
<glyph unicode="&#x107;" horiz-adv-x="1074" d="M850 292l172 -63q-51 -69 -81 -100q-152 -153 -370 -153t-368.5 150.5t-150.5 356.5t150.5 356t368.5 150t366 -148q34 -34 85 -103l-172 -64q-36 45 -49 59q-97 96 -231 96t-233 -99.5t-99 -246t99 -246t233 -99.5t235 101q9 9 45 53zM872 1273l-313 -239h-189l208 239 h294z" />
<glyph unicode="&#x108;" horiz-adv-x="1419" d="M1230 317l126 -112q-243 -221 -546 -221t-519.5 216.5t-216.5 518t216.5 519.5t519.5 218t546 -222l-126 -112q-198 175 -418.5 175t-388 -167.5t-167.5 -410.5t167.5 -410t388 -167t418.5 175zM1059 1560h-231l-117 87l-110 -87h-230l338 278z" />
<glyph unicode="&#x109;" horiz-adv-x="1074" d="M850 292l172 -63q-51 -69 -81 -100q-152 -153 -370 -153t-368.5 150.5t-150.5 356.5t150.5 356t368.5 150t366 -148q34 -34 85 -103l-172 -64q-36 45 -49 59q-97 96 -231 96t-233 -99.5t-99 -246t99 -246t233 -99.5t235 101q9 9 45 53zM881 1035h-231l-117 87l-110 -87 h-230l338 278z" />
<glyph unicode="&#x10a;" horiz-adv-x="1419" d="M1230 317l126 -112q-243 -221 -546 -221t-519.5 216.5t-216.5 518t216.5 519.5t519.5 218t546 -222l-126 -112q-198 175 -418.5 175t-388 -167.5t-167.5 -410.5t167.5 -410t388 -167t418.5 175zM799 1770q33 -32 33 -72.5t-33 -72.5t-84 -32t-84 32t-33 72.5t33 72.5 t84 32t84 -32z" />
<glyph unicode="&#x10b;" horiz-adv-x="1074" d="M850 292l172 -63q-51 -69 -81 -100q-152 -153 -370 -153t-368.5 150.5t-150.5 356.5t150.5 356t368.5 150t366 -148q34 -34 85 -103l-172 -64q-36 45 -49 59q-97 96 -231 96t-233 -99.5t-99 -246t99 -246t233 -99.5t235 101q9 9 45 53zM621 1245q33 -32 33 -72.5 t-33 -72.5t-84 -32t-84 32t-33 72.5t33 72.5t84 32t84 -32z" />
<glyph unicode="&#x10c;" horiz-adv-x="1419" d="M1230 317l126 -112q-243 -221 -546 -221t-519.5 216.5t-216.5 518t216.5 519.5t519.5 218t546 -222l-126 -112q-198 175 -418.5 175t-388 -167.5t-167.5 -410.5t167.5 -410t388 -167t418.5 175zM709 1514l-338 277h230l110 -86l117 86h231z" />
<glyph unicode="&#x10d;" horiz-adv-x="1074" d="M850 292l172 -63q-51 -69 -81 -100q-152 -153 -370 -153t-368.5 150.5t-150.5 356.5t150.5 356t368.5 150t366 -148q34 -34 85 -103l-172 -64q-36 45 -49 59q-97 96 -231 96t-233 -99.5t-99 -246t99 -246t233 -99.5t235 101q9 9 45 53zM531 989l-338 277h230l110 -86 l117 86h231z" />
<glyph unicode="&#x10e;" horiz-adv-x="1252" d="M416 1439q360 -2 567 -210.5t207 -510t-218 -520.5q-196 -196 -556 -198h-304v1439h304zM293 1279v-1120h122q268 0 421 148q169 169 169 412t-169 414q-153 146 -421 146h-122zM645 1514l-338 277h230l110 -86l117 86h231z" />
<glyph unicode="&#x10f;" horiz-adv-x="1418" d="M1099 0h-181v110q-107 -134 -325 -134t-368.5 150.5t-150.5 356.5t150.5 356t368.5 150t325 -132v582h181v-1439zM918 410v146q-19 99 -91 171q-101 102 -235.5 102t-233.5 -100t-99 -246.5t99 -245.5t233.5 -99t235.5 101q72 72 91 171zM1193 1231l-11 23 q-33 33 -33 78.5t36 80.5t91.5 35t92 -35t36.5 -69.5t-8 -56.5l-98 -196h-159z" />
<glyph unicode="&#x110;" horiz-adv-x="1319" d="M324 641v-482h121q269 0 421 148q170 169 170 412t-170 414q-152 146 -421 146h-121v-481h472v-157h-472zM143 798v641h304q360 -2 567 -210.5t207 -510t-218 -520.5q-196 -196 -556 -198h-304v641h-123v157h123z" />
<glyph unicode="&#x111;" horiz-adv-x="1206" d="M918 410v146q-19 99 -91 171q-101 102 -235.5 102t-233.5 -100t-99 -246.5t99 -245.5t233.5 -99t235.5 101q72 72 91 171zM1099 1090v-1090h-181v90q-107 -114 -325 -114t-368.5 150.5t-150.5 356.5t150.5 356t368.5 150t325 -132v233h-294v156h294v193h181v-193h109 v-156h-109z" />
<glyph unicode="&#x112;" horiz-adv-x="1007" d="M895 1439v-157h-602v-484h602v-157h-602v-484h602v-157h-783v1439h783zM201 1699h604v-140h-604v140z" />
<glyph unicode="&#x113;" horiz-adv-x="1108" d="M269 643h599q-64 186 -298.5 186t-300.5 -186zM237 485v-3q0 -146 99 -245t233.5 -99t235.5 101q14 14 54 63l170 -60q-38 -64 -88 -113q-152 -153 -370 -153t-368.5 150.5t-150.5 356.5t150.5 356t368.5 150t370 -152q131 -132 131 -352h-835zM260 1174h604v-140h-604 v140z" />
<glyph unicode="&#x114;" horiz-adv-x="1007" d="M895 1439v-157h-602v-484h602v-157h-602v-484h602v-157h-783v1439h783zM506 1723q51 0 88 77h167q-31 -101 -74 -144q-73 -75 -182 -75t-182 75q-44 45 -76 144h168q21 -40 39.5 -58.5t51.5 -18.5z" />
<glyph unicode="&#x115;" horiz-adv-x="1108" d="M269 643h599q-64 186 -298.5 186t-300.5 -186zM237 485v-3q0 -146 99 -245t233.5 -99t235.5 101q14 14 54 63l170 -60q-38 -64 -88 -113q-152 -153 -370 -153t-368.5 150.5t-150.5 356.5t150.5 356t368.5 150t370 -152q131 -132 131 -352h-835zM564 1198q51 0 88 77h167 q-31 -101 -74 -144q-73 -75 -182 -75t-182 75q-44 45 -76 144h168q21 -40 39.5 -58.5t51.5 -18.5z" />
<glyph unicode="&#x116;" horiz-adv-x="1007" d="M895 1439v-157h-602v-484h602v-157h-602v-484h602v-157h-783v1439h783zM588 1770q33 -32 33 -72.5t-33 -72.5t-84 -32t-84 32t-33 72.5t33 72.5t84 32t84 -32z" />
<glyph unicode="&#x117;" horiz-adv-x="1108" d="M269 643h599q-64 186 -298.5 186t-300.5 -186zM237 485v-3q0 -146 99 -245t233.5 -99t235.5 101q14 14 54 63l170 -60q-38 -64 -88 -113q-152 -153 -370 -153t-368.5 150.5t-150.5 356.5t150.5 356t368.5 150t370 -152q131 -132 131 -352h-835zM646 1245q33 -32 33 -72.5 t-33 -72.5t-84 -32t-84 32t-33 72.5t33 72.5t84 32t84 -32z" />
<glyph unicode="&#x118;" horiz-adv-x="1007" d="M869 0q-54 -34 -54 -56.5t13.5 -36t29 -13.5t24.5 3l13 -105q-16 -2 -32 -2q-70 0 -115 45t-45 90.5t15 74.5h-606v1439h783v-157h-602v-484h602v-157h-602v-484h602v-157h-26z" />
<glyph unicode="&#x119;" horiz-adv-x="1108" d="M269 643h599q-64 186 -298.5 186t-300.5 -186zM701 -9q-62 -15 -131 -15q-217 0 -367.5 150.5t-150.5 356.5t150.5 356t368.5 150t370 -152q131 -132 131 -352h-835v-3q0 -146 99 -245t233.5 -99t235.5 101q14 14 54 63l170 -60q-64 -107 -163 -176q-54 -30 -54 -60 q0 -17 13.5 -30.5t29 -13.5t24.5 3l13 -105q-15 -2 -32 -2q-70 0 -112 42t-47 91z" />
<glyph unicode="&#x11a;" horiz-adv-x="1007" d="M895 1439v-157h-602v-484h602v-157h-602v-484h602v-157h-783v1439h783zM497 1514l-338 277h230l110 -86l117 86h231z" />
<glyph unicode="&#x11b;" horiz-adv-x="1108" d="M269 643h599q-64 186 -298.5 186t-300.5 -186zM237 485v-3q0 -146 99 -245t233.5 -99t235.5 101q14 14 54 63l170 -60q-38 -64 -88 -113q-152 -153 -370 -153t-368.5 150.5t-150.5 356.5t150.5 356t368.5 150t370 -152q131 -132 131 -352h-835zM556 989l-338 277h230 l110 -86l117 86h231z" />
<glyph unicode="&#x11c;" horiz-adv-x="1431" d="M1335 196q-221 -212 -524.5 -212t-520 216.5t-216.5 518t216.5 519.5t519.5 218t546 -222l-126 -112q-198 175 -418.5 175t-388 -167.5t-167.5 -410.5t167.5 -410t381 -167t350.5 110v438h180v-494zM1059 1560h-231l-117 87l-110 -87h-230l338 278z" />
<glyph unicode="&#x11d;" horiz-adv-x="1149" d="M895 559q-20 97 -94 172q-97 98 -231.5 98t-233.5 -100t-99 -246.5t99 -246t233.5 -99.5t235.5 101q70 70 90 166v155zM883 155q-94 -179 -312 -179t-368.5 150.5t-150.5 356.5t150.5 355.5t368 149.5t325.5 -181v107h181v-688q0 -201 -148.5 -349.5t-366.5 -148.5 t-367 149q-34 35 -86 104l173 63q35 -44 49 -56q97 -98 231 -98q283 0 321 265zM908 1035h-231l-117 87l-110 -87h-230l338 278z" />
<glyph unicode="&#x11e;" horiz-adv-x="1431" d="M1335 196q-221 -212 -524.5 -212t-520 216.5t-216.5 518t216.5 519.5t519.5 218t546 -222l-126 -112q-198 175 -418.5 175t-388 -167.5t-167.5 -410.5t167.5 -410t381 -167t350.5 110v438h180v-494zM717 1723q51 0 88 77h167q-31 -101 -74 -144q-73 -75 -182 -75t-182 75 q-44 45 -76 144h168q21 -40 39.5 -58.5t51.5 -18.5z" />
<glyph unicode="&#x11f;" horiz-adv-x="1149" d="M895 559q-20 97 -94 172q-97 98 -231.5 98t-233.5 -100t-99 -246.5t99 -246t233.5 -99.5t235.5 101q70 70 90 166v155zM883 155q-94 -179 -312 -179t-368.5 150.5t-150.5 356.5t150.5 355.5t368 149.5t325.5 -181v107h181v-688q0 -201 -148.5 -349.5t-366.5 -148.5 t-367 149q-34 35 -86 104l173 63q35 -44 49 -56q97 -98 231 -98q283 0 321 265zM566 1198q51 0 88 77h167q-31 -101 -74 -144q-73 -75 -182 -75t-182 75q-44 45 -76 144h168q21 -40 39.5 -58.5t51.5 -18.5z" />
<glyph unicode="&#x120;" horiz-adv-x="1431" d="M1335 196q-221 -212 -524.5 -212t-520 216.5t-216.5 518t216.5 519.5t519.5 218t546 -222l-126 -112q-198 175 -418.5 175t-388 -167.5t-167.5 -410.5t167.5 -410t381 -167t350.5 110v438h180v-494zM799 1770q33 -32 33 -72.5t-33 -72.5t-84 -32t-84 32t-33 72.5t33 72.5 t84 32t84 -32z" />
<glyph unicode="&#x121;" horiz-adv-x="1149" d="M895 559q-20 97 -94 172q-97 98 -231.5 98t-233.5 -100t-99 -246.5t99 -246t233.5 -99.5t235.5 101q70 70 90 166v155zM883 155q-94 -179 -312 -179t-368.5 150.5t-150.5 356.5t150.5 355.5t368 149.5t325.5 -181v107h181v-688q0 -201 -148.5 -349.5t-366.5 -148.5 t-367 149q-34 35 -86 104l173 63q35 -44 49 -56q97 -98 231 -98q283 0 321 265zM649 1245q33 -32 33 -72.5t-33 -72.5t-84 -32t-84 32t-33 72.5t33 72.5t84 32t84 -32z" />
<glyph unicode="&#x122;" horiz-adv-x="1431" d="M721 -10q-249 29 -430 211q-217 216 -217 517.5t216.5 519.5t519.5 218t546 -222l-126 -112q-198 175 -418.5 175t-388 -167.5t-167.5 -410.5t167.5 -410t381 -167t350.5 110v438h180v-494q-221 -212 -514 -212h-5l-3 -9q58 -4 95 -81q16 -34 16 -65t-14 -58 q-41 -82 -171 -82q-55 0 -109 29l55 84q15 -8 37.5 -8t40.5 12t18 28.5t-18 28.5t-36 12t-27 -2z" />
<glyph unicode="&#x123;" horiz-adv-x="1149" d="M895 559q-20 97 -94 172q-97 98 -231.5 98t-233.5 -100t-99 -246.5t99 -246t233.5 -99.5t235.5 101q70 70 90 166v155zM883 155q-94 -179 -312 -179t-368.5 150.5t-150.5 356.5t150.5 355.5t368 149.5t325.5 -181v107h181v-688q0 -201 -148.5 -349.5t-366.5 -148.5 t-367 149q-34 35 -86 104l173 63q35 -44 49 -56q97 -98 231 -98q283 0 321 265zM648 1254l10 -23q34 -33 34 -78.5t-36.5 -80.5t-92 -35t-92 35t-36.5 69.5t9 56.5l97 196h159z" />
<glyph unicode="&#x124;" horiz-adv-x="1141" d="M275 641v-641h-181v1439h181v-641h591v641h181v-1439h-181v641h-591zM914 1560h-231l-117 87l-110 -87h-230l338 278z" />
<glyph unicode="&#x125;" horiz-adv-x="936" d="M94 1439h181v-525q46 50 204.5 50t264.5 -106t108 -259v-599h-180v591q0 93 -63 154.5t-143.5 61.5t-128.5 -46.5t-62 -78.5v-682h-181v1439zM817 1441h-231l-117 87l-110 -87h-230l338 278z" />
<glyph unicode="&#x126;" horiz-adv-x="1134" d="M1043 1090v-1090h-180v641h-592v-641h-180v1090h-80v156h80v193h180v-193h592v193h180v-193h80v-156h-80zM271 1090v-292h592v292h-592z" />
<glyph unicode="&#x127;" horiz-adv-x="912" d="M80 1246v193h181v-193h186v-156h-186v-194q19 68 185.5 68t272.5 -106t109 -259v-599h-181v591q0 93 -63 154.5t-143.5 61.5t-140.5 -58q-29 -28 -39 -52v-697h-181v1090h-96v156h96z" />
<glyph unicode="&#x128;" horiz-adv-x="425" d="M303 1439v-1439h-181v1439h181zM144 1631q-2 -22 -2 -77l-167 36q2 71 11 98q23 70 86 96q22 10 49 10q59 0 135 -55q14 -10 23 -16q1 22 1 75l169 -33q-4 -72 -13 -99q-22 -70 -87 -98q-24 -8 -47 -8q-59 0 -136 55q-13 10 -22 16z" />
<glyph unicode="&#x129;" horiz-adv-x="418" d="M299 914v-914h-180v914h180zM141 1106q-2 -22 -2 -77l-167 36q2 71 11 98q23 70 86 96q22 10 49 10q59 0 135 -55q14 -10 23 -16q1 22 1 75l169 -33q-4 -72 -13 -99q-22 -70 -87 -98q-24 -8 -47 -8q-59 0 -136 55q-13 10 -22 16z" />
<glyph unicode="&#x12a;" horiz-adv-x="425" d="M303 1439v-1439h-181v1439h181zM-90 1699h604v-140h-604v140z" />
<glyph unicode="&#x12b;" horiz-adv-x="418" d="M299 914v-914h-180v914h180zM-93 1174h604v-140h-604v140z" />
<glyph unicode="&#x12c;" horiz-adv-x="425" d="M303 1439v-1439h-181v1439h181zM215 1723q51 0 88 77h167q-31 -101 -74 -144q-73 -75 -182 -75t-182 75q-44 45 -76 144h168q21 -40 39.5 -58.5t51.5 -18.5z" />
<glyph unicode="&#x12d;" horiz-adv-x="418" d="M299 914v-914h-180v914h180zM211 1198q51 0 88 77h167q-31 -101 -74 -144q-73 -75 -182 -75t-182 75q-44 45 -76 144h168q21 -40 39.5 -58.5t51.5 -18.5z" />
<glyph unicode="&#x12e;" horiz-adv-x="425" d="M277 0q-54 -34 -54 -56.5t13.5 -36t29 -13.5t24.5 3l13 -105q-15 -2 -32 -2q-70 0 -115 45t-45 90.5t15 74.5h-4v1439h181v-1439h-26z" />
<glyph unicode="&#x12f;" horiz-adv-x="415" d="M299.5 1174.5q36.5 -35.5 36.5 -80.5t-36.5 -80.5t-92.5 -35.5t-92 35.5t-36 80.5t36 80.5t92 35.5t92.5 -35.5zM266 0q-30 -10 -30 -34.5t13.5 -38t29 -13.5t24.5 3l13 -105q-16 -2 -32 -2q-70 0 -115 45t-45 103q0 22 6 42h-13v914h180v-914h-31z" />
<glyph unicode="&#x130;" horiz-adv-x="425" d="M303 1439v-1439h-181v1439h181zM297 1770q33 -32 33 -72.5t-33 -72.5t-84 -32t-84 32t-33 72.5t33 72.5t84 32t84 -32z" />
<glyph unicode="&#x131;" horiz-adv-x="418" d="M299 914v-914h-180v914h180z" />
<glyph unicode="&#x132;" horiz-adv-x="825" d="M303 1439v-1439h-181v1439h181zM711 14q0 -117 -84 -197.5t-263 -80.5v150q97 0 131.5 34t34.5 104v1415h181v-1425z" />
<glyph unicode="&#x133;" horiz-adv-x="794" d="M297 914v-914h-180v914h180zM299.5 1174.5q36.5 -35.5 36.5 -80.5t-36.5 -80.5t-92.5 -35.5t-92 35.5t-36 80.5t36 80.5t92 35.5t92.5 -35.5zM404 -43q103 12 103 81v876h180v-874q0 -208 -283 -231v148zM689 1174.5q36 -35.5 36 -80.5t-36 -80.5t-92 -35.5t-92.5 35.5 t-36.5 80.5t36.5 80.5t92.5 35.5t92 -35.5z" />
<glyph unicode="&#x134;" horiz-adv-x="529" d="M353 14q0 -117 -83.5 -201t-263.5 -84v157q97 0 131.5 34t34.5 104v1415h181v-1425zM621 1520h-231l-117 86l-110 -86h-230l338 277z" />
<glyph unicode="&#x135;" horiz-adv-x="507" d="M53 -43q102 12 102 81v876h180v-874q0 -215 -282 -238v155zM587 1032h-231l-117 86l-110 -86h-230l338 277z" />
<glyph unicode="&#x136;" horiz-adv-x="1102" d="M874 1439l-380 -550l622 -889h-211l-518 741l-94 -135v-606h-181v1439h181v-532l371 532h210zM460 -136q31 0 35 23v3q0 4 -1.5 6t-72.5 3v133q146 0 194 -38t48 -95v-10q-6 -64 -77 -116q-64 -36 -117.5 -36t-140.5 23l45 132q73 -28 87 -28z" />
<glyph unicode="&#x137;" horiz-adv-x="744" d="M650 914l-240 -298l348 -616h-207l-258 472l-13 -17v-455h-181v1269h181v-541l151 186h219zM276 -108q73 -28 95 -28t28 23v3q0 4 -2 6t-72 3v133q145 0 193.5 -38t48.5 -95v-10q-7 -64 -78 -116q-63 -36 -117 -36t-140 23z" />
<glyph unicode="&#x138;" horiz-adv-x="744" d="M650 914l-240 -298l348 -616h-207l-258 472l-13 -17v-455h-181v914h181v-186l151 186h219z" />
<glyph unicode="&#x139;" horiz-adv-x="862" d="M112 0v1439h181v-1282h517v-157h-698zM796 1798l-313 -239h-189l208 239h294z" />
<glyph unicode="&#x13a;" horiz-adv-x="401" d="M291 1439v-1439h-181v1439h181zM451 1719l-313 -239h-189l208 239h294z" />
<glyph unicode="&#x13b;" horiz-adv-x="862" d="M112 0v1439h181v-1282h517v-157h-698zM364 -176q31 0 35 23v3q0 4 -1.5 6t-72.5 3v133q146 0 194 -38t48 -95v-10q-6 -64 -77 -116q-64 -36 -117.5 -36t-140.5 23l45 132q73 -28 87 -28z" />
<glyph unicode="&#x13c;" horiz-adv-x="379" d="M285 1439v-1439h-181v1439h181zM66 -158q73 -28 95 -28t28 23v3q0 4 -2 6t-72 3v133q145 0 193.5 -38t48.5 -95v-10q-7 -64 -78 -116q-63 -36 -117 -36t-140 23z" />
<glyph unicode="&#x13d;" horiz-adv-x="862" d="M112 0v1439h181v-1282h517v-157h-698zM557 1231l-10 23q-34 33 -34 78.5t36.5 80.5t92 35t92 -35t36.5 -69.5t-8 -56.5l-98 -196h-159z" />
<glyph unicode="&#x13e;" horiz-adv-x="636" d="M293 1439v-1439h-181v1439h181zM417 1231l-10 23q-34 33 -34 78.5t36.5 80.5t92 35t92 -35t36.5 -69.5t-8 -56.5l-98 -196h-159z" />
<glyph unicode="&#x13f;" horiz-adv-x="862" d="M112 0v1439h181v-1282h517v-157h-698zM739 792q33 -32 33 -72.5t-33 -72.5t-84 -32t-84 32t-33 72.5t33 72.5t84 32t84 -32z" />
<glyph unicode="&#x140;" horiz-adv-x="618" d="M280 1439v-1439h-181v1439h181zM572.5 792q32.5 -32 32.5 -72.5t-32.5 -72.5t-83.5 -32t-84 32t-33 72.5t33 72.5t84 32t83.5 -32z" />
<glyph unicode="&#x141;" horiz-adv-x="942" d="M375 809l386 315v-206l-386 -315v-446h517v-157h-698v455l-194 -157v205l194 158v778h181v-630z" />
<glyph unicode="&#x142;" horiz-adv-x="465" d="M142 740v699h181v-552l142 117v-206l-142 -117v-681h-181v534l-142 -117v206z" />
<glyph unicode="&#x143;" horiz-adv-x="1398" d="M288 1439l820 -1150v1150h181v-1439h-200l-799 1121v-1121h-181v1439h179zM1034 1798l-313 -239h-189l208 239h294z" />
<glyph unicode="&#x144;" d="M280 682v-682h-181v914h181q46 50 204.5 50t264.5 -106t108 -259v-599h-180v591q0 93 -63 154.5t-143.5 61.5t-128.5 -46.5t-62 -78.5zM812 1273l-313 -239h-189l208 239h294z" />
<glyph unicode="&#x145;" horiz-adv-x="1398" d="M288 1439l820 -1150v1150h181v-1439h-200l-799 1121v-1121h-181v1439h179zM627 -136q29 0 35 23v3q0 4 -1.5 6t-72.5 3v133q145 0 193.5 -38t48.5 -95v-10q-6 -64 -77 -116q-64 -36 -117.5 -36t-140.5 23l45 132q73 -28 87 -28z" />
<glyph unicode="&#x146;" d="M280 682v-682h-181v914h181q46 50 204.5 50t264.5 -106t108 -259v-599h-180v591q0 93 -63 154.5t-143.5 61.5t-128.5 -46.5t-62 -78.5zM442 -136q31 0 35 23v3q0 4 -1.5 6t-72.5 3v133q146 0 194 -38t48 -95v-10q-6 -64 -77 -116q-64 -36 -117.5 -36t-140.5 23l45 132 q73 -28 87 -28z" />
<glyph unicode="&#x147;" horiz-adv-x="1398" d="M288 1439l820 -1150v1150h181v-1439h-200l-799 1121v-1121h-181v1439h179zM693 1514l-338 277h230l110 -86l117 86h231z" />
<glyph unicode="&#x148;" d="M280 682v-682h-181v914h181q46 50 204.5 50t264.5 -106t108 -259v-599h-180v591q0 93 -63 154.5t-143.5 61.5t-128.5 -46.5t-62 -78.5zM472 989l-338 277h230l110 -86l117 86h231z" />
<glyph unicode="&#x149;" horiz-adv-x="1168" d="M492 682v-682h-181v914h181q46 50 204 50t264 -106t109 -259v-599h-180v591q0 93 -63.5 154.5t-144 61.5t-140.5 -58q-36 -35 -49 -67zM64 1231l-10 23q-34 33 -34 78.5t36.5 80.5t92 35t92 -35t36.5 -69.5t-8 -56.5l-98 -196h-159z" />
<glyph unicode="&#x14a;" horiz-adv-x="1229" d="M939 111l-649 913v-1024h-181v1576l830 -1166v1029h181v-1447q0 -117 -83.5 -201t-263.5 -84v157q98 0 132 34t34 104v109z" />
<glyph unicode="&#x14b;" horiz-adv-x="962" d="M680 591q0 93 -63 154.5t-143.5 61.5t-128.5 -46.5t-62 -78.5v-682h-181v914h181q26 50 194.5 50t274.5 -106t108 -259v-403h1v-204q0 -117 -83.5 -201t-263.5 -84v157q97 0 131.5 34t34.5 104v589z" />
<glyph unicode="&#x14c;" horiz-adv-x="1621" d="M1341.5 1241q217.5 -218 217.5 -520t-217.5 -519.5t-531 -217.5t-531 217.5t-217.5 519.5t217.5 520t531 218t531 -218zM1209 1132.5q-168 168.5 -398.5 168.5t-398.5 -168.5t-168 -411.5t168 -411t398.5 -168t398.5 168t168 411t-168 411.5zM508 1699h604v-140h-604v140 z" />
<glyph unicode="&#x14d;" horiz-adv-x="1179" d="M222.5 839q150.5 150 368.5 150t367 -150t149 -356t-149 -356.5t-367 -150.5t-368.5 150.5t-150.5 356.5t150.5 356zM356 729q-99 -100 -99 -246.5t99 -245.5t233.5 -99t234 99t99.5 245.5t-99.5 246.5t-234 100t-233.5 -100zM288 1174h604v-140h-604v140z" />
<glyph unicode="&#x14e;" horiz-adv-x="1621" d="M1341.5 1241q217.5 -218 217.5 -520t-217.5 -519.5t-531 -217.5t-531 217.5t-217.5 519.5t217.5 520t531 218t531 -218zM1209 1132.5q-168 168.5 -398.5 168.5t-398.5 -168.5t-168 -411.5t168 -411t398.5 -168t398.5 168t168 411t-168 411.5zM813 1723q51 0 88 77h167 q-31 -101 -74 -144q-73 -75 -182 -75t-182 75q-44 45 -76 144h168q21 -40 39.5 -58.5t51.5 -18.5z" />
<glyph unicode="&#x14f;" horiz-adv-x="1179" d="M222.5 839q150.5 150 368.5 150t367 -150t149 -356t-149 -356.5t-367 -150.5t-368.5 150.5t-150.5 356.5t150.5 356zM356 729q-99 -100 -99 -246.5t99 -245.5t233.5 -99t234 99t99.5 245.5t-99.5 246.5t-234 100t-233.5 -100zM592 1198q51 0 88 77h167q-31 -101 -74 -144 q-73 -75 -182 -75t-182 75q-44 45 -76 144h168q21 -40 39.5 -58.5t51.5 -18.5z" />
<glyph unicode="&#x150;" horiz-adv-x="1621" d="M1341.5 1241q217.5 -218 217.5 -520t-217.5 -519.5t-531 -217.5t-531 217.5t-217.5 519.5t217.5 520t531 218t531 -218zM1209 1132.5q-168 168.5 -398.5 168.5t-398.5 -168.5t-168 -411.5t168 -411t398.5 -168t398.5 168t168 411t-168 411.5zM910 1791l-313 -238h-189 l208 238h294zM1214 1791l-312 -238h-190l208 238h294z" />
<glyph unicode="&#x151;" horiz-adv-x="1179" d="M222.5 839q150.5 150 368.5 150t367 -150t149 -356t-149 -356.5t-367 -150.5t-368.5 150.5t-150.5 356.5t150.5 356zM356 729q-99 -100 -99 -246.5t99 -245.5t233.5 -99t234 99t99.5 245.5t-99.5 246.5t-234 100t-233.5 -100zM689 1266l-313 -238h-189l208 238h294z M993 1266l-312 -238h-190l208 238h294z" />
<glyph unicode="&#x152;" horiz-adv-x="2044" d="M1342 1282l28 -43q202 -203 212 -441h374v-157h-374q-12 -237 -216 -441l-26 -43h616v-157h-895q-103 -16 -225 -16q-313 0 -530.5 217.5t-217.5 519.5t217.5 520t530.5 218q123 0 226 -20h894v-157h-614zM1233 1136q-168 165 -397.5 165t-397.5 -168.5t-168 -411.5 t168 -411t398 -168q107 0 170 23.5t114 52t117 93.5q166 166 166 409.5t-170 415.5z" />
<glyph unicode="&#x153;" horiz-adv-x="1862" d="M350 729q-99 -100 -99 -246.5t99 -245.5t233.5 -99t234 99t99.5 245.5t-99.5 246.5t-234 100t-233.5 -100zM1054 699q17 -33 23 -56h535q-9 31 -62 84q-102 102 -236 102t-231 -98q-23 -23 -29 -32zM1054 266q6 -8 24 -27q102 -101 236 -101t236 101q13 14 54 63l168 -60 q-38 -64 -91 -117q-149 -149 -367 -149t-366 143q-145 -143 -363 -143t-368.5 150.5t-150.5 356.5t150.5 356t368.5 150t363 -148q148 148 366 148t371 -152q131 -132 137 -352l-719 1l-1 9q-1 0 -1 -13q0 -127 -47 -216z" />
<glyph unicode="&#x154;" horiz-adv-x="1041" d="M293 1281v-652h178q126 0 220 93.5t94 233t-94 232.5t-220 93h-178zM462 471h-169v-471h-181v1439h412q180 -24 311 -155.5t131 -328t-145 -341.5q-96 -97 -170 -115l323 -499h-209zM878 1798l-313 -239h-189l208 239h294z" />
<glyph unicode="&#x155;" horiz-adv-x="570" d="M518 778q-124 -19 -192 -98.5t-68 -199.5v-480h-181v914h181v-130q40 107 172 149zM632 1273l-313 -239h-189l208 239h294z" />
<glyph unicode="&#x156;" horiz-adv-x="1041" d="M293 1281v-652h178q126 0 220 93.5t94 233t-94 232.5t-220 93h-178zM464 469l-171 2v-471h-181v1439h412q180 -24 311 -155.5t131 -328t-145 -341.5q-96 -97 -170 -115l323 -499h-209zM435 -136q31 0 35 23v3q0 4 -1.5 6t-72.5 3v133q146 0 194 -38t48 -95v-10 q-6 -64 -77 -116q-64 -36 -117.5 -36t-140.5 23l45 132q73 -28 87 -28z" />
<glyph unicode="&#x157;" horiz-adv-x="570" d="M518 778q-124 -19 -192 -98.5t-68 -199.5v-480h-181v914h181v-130q40 107 172 149zM205 -184q29 0 35 23v3q0 4 -1.5 6t-72.5 3v133q145 0 193.5 -38t48.5 -95v-10q-6 -64 -77 -116q-64 -36 -117.5 -36t-140.5 23l45 132q73 -28 87 -28z" />
<glyph unicode="&#x158;" horiz-adv-x="1041" d="M293 1281v-652h178q126 0 220 93.5t94 233t-94 232.5t-220 93h-178zM462 471h-169v-471h-181v1439h412q180 -24 311 -155.5t131 -328t-145 -341.5q-96 -97 -170 -115l323 -499h-209zM537 1514l-338 277h230l110 -86l117 86h231z" />
<glyph unicode="&#x159;" horiz-adv-x="570" d="M518 778q-124 -19 -192 -98.5t-68 -199.5v-480h-181v914h181v-130q40 107 172 149zM291 989l-338 277h230l110 -86l117 86h231z" />
<glyph unicode="&#x15a;" horiz-adv-x="1017" d="M511 757q-155 51 -249 145t-94 225.5t97.5 230t241.5 98.5t246 -101q53 -52 83 -146l-162 -63q-30 81 -54 105q-49 50 -111.5 50t-111 -48.5t-48.5 -123t50 -126.5q52 -50 142 -92q172 -56 296.5 -180t124.5 -304t-131.5 -311.5t-323 -131.5t-324.5 135 q-104 103 -128 267l174 63q16 -157 92.5 -233t187 -76t193 82.5t82.5 204.5t-81 203q-82 81 -192 127zM843 1798l-313 -239h-189l208 239h294z" />
<glyph unicode="&#x15b;" horiz-adv-x="727" d="M334 456q-102 56 -140 94q-74 74 -74 169.5t72 168.5t180 73t175 -67.5t67 -148.5v-28l-162 -66q-15 113 -34.5 133t-45.5 20t-49 -23t-23 -61t21.5 -60t83.5 -61q113 -62 165 -113q82 -84 82 -199.5t-85 -201.5t-213 -86t-213.5 86t-85.5 215l180 45q0 -116 37 -153 t82 -37t82.5 37t37.5 95t-32 89t-108 80zM688 1273l-313 -239h-189l208 239h294z" />
<glyph unicode="&#x15c;" horiz-adv-x="1017" d="M511 757q-155 51 -249 145t-94 225.5t97.5 230t241.5 98.5t246 -101q53 -52 83 -146l-162 -63q-30 81 -54 105q-49 50 -111.5 50t-111 -48.5t-48.5 -123t50 -126.5q52 -50 142 -92q172 -56 296.5 -180t124.5 -304t-131.5 -311.5t-323 -131.5t-324.5 135 q-104 103 -128 267l174 63q16 -157 92.5 -233t187 -76t193 82.5t82.5 204.5t-81 203q-82 81 -192 127zM852 1560h-231l-117 87l-110 -87h-230l338 278z" />
<glyph unicode="&#x15d;" horiz-adv-x="727" d="M334 456q-102 56 -140 94q-74 74 -74 169.5t72 168.5t180 73t175 -67.5t67 -148.5v-28l-162 -66q-15 113 -34.5 133t-45.5 20t-49 -23t-23 -61t21.5 -60t83.5 -61q113 -62 165 -113q82 -84 82 -199.5t-85 -201.5t-213 -86t-213.5 86t-85.5 215l180 45q0 -116 37 -153 t82 -37t82.5 37t37.5 95t-32 89t-108 80zM698 1035h-231l-117 87l-110 -87h-230l338 278z" />
<glyph unicode="&#x15e;" horiz-adv-x="1017" d="M452 -13q-156 17 -264.5 126t-132.5 273l174 63q16 -157 92.5 -233t187 -76t193 82.5t82.5 204.5t-81 203q-82 81 -192 127q-155 51 -249 145t-94 225.5t97.5 230t241.5 98.5t246 -101q53 -52 83 -146l-162 -63q-30 81 -54 105q-49 50 -111.5 50t-111 -48.5t-48.5 -123 t50 -126.5q52 -50 142 -92q172 -56 296.5 -180t124.5 -304t-124.5 -304.5t-289.5 -137.5l-4 -10q58 -4 95 -81q16 -34 16 -65t-14 -58q-41 -82 -171 -82q-55 0 -109 29l55 84q15 -8 37.5 -8t40.5 12t18 28.5t-18 28.5t-36 12t-27 -2z" />
<glyph unicode="&#x15f;" horiz-adv-x="727" d="M300 3q-93 15 -159 82q-86 86 -86 215l180 45q0 -116 37 -153t82 -37t82.5 37t37.5 95t-32 89t-108 80q-102 56 -140 94q-74 74 -74 169.5t72 168.5t180 73t175 -67.5t67 -148.5v-28l-162 -66q-15 113 -34.5 133t-45.5 20t-49 -23t-23 -61t21.5 -60t83.5 -61 q113 -62 165 -113q82 -84 82 -199.5t-77 -193.5t-175 -91l-10 -27q58 -4 95 -81q16 -34 16 -65t-14 -58q-41 -82 -171 -82q-55 0 -109 29l54 84q16 -8 38.5 -8t40.5 12t18 28.5t-18 28.5t-36 12t-27 -2z" />
<glyph unicode="&#x160;" horiz-adv-x="1017" d="M511 757q-155 51 -249 145t-94 225.5t97.5 230t241.5 98.5t246 -101q53 -52 83 -146l-162 -63q-30 81 -54 105q-49 50 -111.5 50t-111 -48.5t-48.5 -123t50 -126.5q52 -50 142 -92q172 -56 296.5 -180t124.5 -304t-131.5 -311.5t-323 -131.5t-324.5 135 q-104 103 -128 267l174 63q16 -157 92.5 -233t187 -76t193 82.5t82.5 204.5t-81 203q-82 81 -192 127zM502 1514l-338 277h230l110 -86l117 86h231z" />
<glyph unicode="&#x161;" horiz-adv-x="727" d="M334 456q-102 56 -140 94q-74 74 -74 169.5t72 168.5t180 73t175 -67.5t67 -148.5v-28l-162 -66q-15 113 -34.5 133t-45.5 20t-49 -23t-23 -61t21.5 -60t83.5 -61q113 -62 165 -113q82 -84 82 -199.5t-85 -201.5t-213 -86t-213.5 86t-85.5 215l180 45q0 -116 37 -153 t82 -37t82.5 37t37.5 95t-32 89t-108 80zM348 989l-338 277h230l110 -86l117 86h231z" />
<glyph unicode="&#x162;" horiz-adv-x="931" d="M556 1282v-1282h-180v1282h-344v157h867v-157h-343zM432 -186q29 0 35 23v3q0 4 -2 6t-72 3v133q145 0 193.5 -38t48.5 -95v-10q-6 -64 -77 -116q-64 -36 -117.5 -36t-140.5 23l45 132q73 -28 87 -28z" />
<glyph unicode="&#x163;" horiz-adv-x="584" d="M202 914v355h180v-355h170v-156h-170v-758h-180v758h-170v156h170zM240 -186q29 0 35 23v3q0 4 -2 6t-72 3v133q145 0 193.5 -38t48.5 -95v-10q-6 -64 -77 -116q-64 -36 -117.5 -36t-140.5 23l45 132q73 -28 87 -28z" />
<glyph unicode="&#x164;" horiz-adv-x="931" d="M556 1282v-1282h-180v1282h-344v157h867v-157h-343zM459 1514l-338 277h230l110 -86l117 86h231z" />
<glyph unicode="&#x165;" horiz-adv-x="708" d="M202 914v355h180v-355h170v-156h-170v-758h-180v758h-170v156h170zM484 1203l-10 23q-34 33 -34 78.5t36.5 80.5t92 35t92 -35t36.5 -69t-9 -57l-97 -196h-159z" />
<glyph unicode="&#x166;" horiz-adv-x="931" d="M377 798v484h-344v157h867v-157h-343v-484h249v-156h-249v-642h-180v642h-251v156h251z" />
<glyph unicode="&#x167;" horiz-adv-x="584" d="M203 758h-170v156h170v355h180v-355h170v-156h-170v-150h170v-157h-170v-451h-180v451h-170v157h170v150z" />
<glyph unicode="&#x168;" horiz-adv-x="1214" d="M921 1439h181v-1018q-23 -169 -145 -291q-141 -142 -350 -142t-352 143.5t-143 340.5v967h181v-967q0 -138 94 -232.5t220.5 -94.5t220 94.5t93.5 232.5v967zM539 1631q-2 -22 -2 -77l-167 36q2 71 11 98q23 70 86 96q22 10 49 10q59 0 135 -55q14 -10 23 -16q1 22 1 75 l169 -33q-4 -72 -13 -99q-22 -70 -87 -98q-24 -8 -47 -8q-59 0 -136 55q-13 10 -22 16z" />
<glyph unicode="&#x169;" d="M869 354q-3 -154 -108.5 -260t-282.5 -106t-282.5 106t-108.5 260v561h181v-554q0 -92 63 -154.5t147 -62.5t147 62.5t63 154.5v554h181v-561zM410 1106q-2 -22 -2 -77l-167 36q2 71 11 98q23 70 86 96q22 10 49 10q59 0 135 -55q14 -10 23 -16q1 22 1 75l169 -33 q-4 -72 -13 -99q-22 -70 -87 -98q-24 -8 -47 -8q-59 0 -136 55q-13 10 -22 16z" />
<glyph unicode="&#x16a;" horiz-adv-x="1214" d="M921 1439h181v-1018q-23 -169 -145 -291q-141 -142 -350 -142t-352 143.5t-143 340.5v967h181v-967q0 -138 94 -232.5t220.5 -94.5t220 94.5t93.5 232.5v967zM305 1699h604v-140h-604v140z" />
<glyph unicode="&#x16b;" d="M869 354q-3 -154 -108.5 -260t-282.5 -106t-282.5 106t-108.5 260v561h181v-554q0 -92 63 -154.5t147 -62.5t147 62.5t63 154.5v554h181v-561zM176 1174h604v-140h-604v140z" />
<glyph unicode="&#x16c;" horiz-adv-x="1214" d="M921 1439h181v-1018q-23 -169 -145 -291q-141 -142 -350 -142t-352 143.5t-143 340.5v967h181v-967q0 -138 94 -232.5t220.5 -94.5t220 94.5t93.5 232.5v967zM609 1723q51 0 88 77h167q-31 -101 -74 -144q-73 -75 -182 -75t-182 75q-44 45 -76 144h168q21 -40 39.5 -58.5 t51.5 -18.5z" />
<glyph unicode="&#x16d;" d="M869 354q-3 -154 -108.5 -260t-282.5 -106t-282.5 106t-108.5 260v561h181v-554q0 -92 63 -154.5t147 -62.5t147 62.5t63 154.5v554h181v-561zM480 1198q51 0 88 77h167q-31 -101 -74 -144q-73 -75 -182 -75t-182 75q-44 45 -76 144h168q21 -40 39.5 -58.5t51.5 -18.5z " />
<glyph unicode="&#x16e;" horiz-adv-x="1214" d="M921 1439h181v-1018q-23 -169 -145 -291q-141 -142 -350 -142t-352 143.5t-143 340.5v967h181v-967q0 -138 94 -232.5t220.5 -94.5t220 94.5t93.5 232.5v967zM723 1707.5q45 -45.5 45 -103.5t-45 -103t-115.5 -45t-115.5 45t-45 103t45 103.5t115.5 45.5t115.5 -45.5z M642.5 1635.5q-13.5 13.5 -35 13.5t-35 -13.5t-13.5 -31t13.5 -31t35 -13.5t35 13.5t13.5 31t-13.5 31z" />
<glyph unicode="&#x16f;" d="M869 354q-3 -154 -108.5 -260t-282.5 -106t-282.5 106t-108.5 260v561h181v-554q0 -92 63 -154.5t147 -62.5t147 62.5t63 154.5v554h181v-561zM593 1182.5q45 -45.5 45 -103.5t-45 -103t-115.5 -45t-115.5 45t-45 103t45 103.5t115.5 45.5t115.5 -45.5zM512.5 1110.5 q-13.5 13.5 -35 13.5t-35 -13.5t-13.5 -31t13.5 -31t35 -13.5t35 13.5t13.5 31t-13.5 31z" />
<glyph unicode="&#x170;" horiz-adv-x="1214" d="M921 1439h181v-1018q-23 -169 -145 -291q-141 -142 -350 -142t-352 143.5t-143 340.5v967h181v-967q0 -138 94 -232.5t220.5 -94.5t220 94.5t93.5 232.5v967zM706 1791l-313 -238h-189l208 238h294zM1010 1791l-312 -238h-190l208 238h294z" />
<glyph unicode="&#x171;" d="M869 354q-3 -154 -108.5 -260t-282.5 -106t-282.5 106t-108.5 260v561h181v-554q0 -92 63 -154.5t147 -62.5t147 62.5t63 154.5v554h181v-561zM577 1266l-313 -238h-189l208 238h294zM881 1266l-312 -238h-190l208 238h294z" />
<glyph unicode="&#x172;" horiz-adv-x="1214" d="M803 25q-89 -37 -195 -37q-210 0 -353 143.5t-143 340.5v967h181v-967q0 -138 94 -232.5t220.5 -94.5t220 94.5t93.5 232.5v967h181v-1018q-23 -169 -151 -297q-44 -91 -44 -145q0 -17 13.5 -30.5t29 -13.5t24.5 3l13 -104q-15 -3 -32 -3q-70 0 -115 45t-45 103 q0 24 8 46z" />
<glyph unicode="&#x173;" d="M638 14q-69 -26 -155 -26q-182 0 -287.5 106t-108.5 260v561h181v-554q0 -92 63 -154.5t147 -62.5t147 62.5t63 154.5v554h181v-561q-2 -128 -77 -224q-37 -73 -44 -138q0 -17 13.5 -30.5t29 -13.5t24.5 3l13 -105q-16 -2 -32 -2q-70 0 -115 45t-45 103q0 11 2 22z" />
<glyph unicode="&#x174;" horiz-adv-x="1665" d="M893 1079l291 -751l298 1111h183l-386 -1439h-158l-288 758l-289 -758h-158l-386 1439h184l299 -1111l289 751h121zM1177 1560h-231l-117 87l-110 -87h-230l338 278z" />
<glyph unicode="&#x175;" horiz-adv-x="1184" d="M1185 914l-311 -914h-127l-155 433l-154 -433h-129l-309 914h195l183 -568l154 426h122l153 -426l182 568h196zM936 1035h-231l-117 87l-110 -87h-230l338 278z" />
<glyph unicode="&#x176;" horiz-adv-x="1233" d="M526 582l-494 857h200l385 -666l384 666h200l-494 -857v-582h-181v582zM960 1560h-231l-117 87l-110 -87h-230l338 278z" />
<glyph unicode="&#x177;" horiz-adv-x="896" d="M307 -317h-195l238 512l-335 719h195l238 -505l238 505h195zM792 1035h-231l-117 87l-110 -87h-230l338 278z" />
<glyph unicode="&#x178;" horiz-adv-x="1233" d="M526 582l-494 857h200l385 -666l384 666h200l-494 -857v-582h-181v582zM566.5 1760.5q36.5 -35.5 36.5 -80.5t-36.5 -80.5t-92.5 -35.5t-92 35.5t-36 80.5t36 80.5t92 35.5t92.5 -35.5zM851 1760.5q36 -35.5 36 -80.5t-36 -80.5t-92 -35.5t-92.5 35.5t-36.5 80.5 t36.5 80.5t92.5 35.5t92 -35.5z" />
<glyph unicode="&#x179;" horiz-adv-x="1168" d="M823 1282h-615v157h906l-740 -1282h780v-157h-1070zM953 1798l-313 -239h-189l208 239h294z" />
<glyph unicode="&#x17a;" horiz-adv-x="850" d="M492 746h-402v156h693l-431 -745h436v-157h-726zM760 1273l-313 -239h-189l208 239h294z" />
<glyph unicode="&#x17b;" horiz-adv-x="1168" d="M823 1282h-615v157h906l-740 -1282h780v-157h-1070zM703 1770q33 -32 33 -72.5t-33 -72.5t-84 -32t-84 32t-33 72.5t33 72.5t84 32t84 -32z" />
<glyph unicode="&#x17c;" horiz-adv-x="850" d="M492 746h-402v156h693l-431 -745h436v-157h-726zM509 1245q33 -32 33 -72.5t-33 -72.5t-84 -32t-84 32t-33 72.5t33 72.5t84 32t84 -32z" />
<glyph unicode="&#x17d;" horiz-adv-x="1168" d="M823 1282h-615v157h906l-740 -1282h780v-157h-1070zM613 1514l-338 277h230l110 -86l117 86h231z" />
<glyph unicode="&#x17e;" horiz-adv-x="850" d="M492 746h-402v156h693l-431 -745h436v-157h-726zM419 989l-338 277h230l110 -86l117 86h231z" />
<glyph unicode="&#x17f;" horiz-adv-x="483" d="M291 0h-181v1101q7 107 83 186q87 80 201 80q59 0 163 -36l-53 -150q-81 35 -109.5 35t-65.5 -33q-36 -36 -38 -89v-1094z" />
<glyph unicode="&#x192;" horiz-adv-x="488" d="M296 0h-1v-28q-11 -281 -350 -281v152q163 0 170 129v786h-85v156h85v187q6 107 83 186q87 80 201 80q59 0 163 -36l-53 -150q-82 35 -110 35t-65 -33q-36 -36 -38 -89v-180h170v-156h-170v-758z" />
<glyph unicode="&#x1fa;" horiz-adv-x="1210" d="M753 687l-147 387l-148 -387h295zM546 1563l96 135h291l-214 -173q41 -43 41 -98.5t-45 -100.5l-8 -15l500 -1311h-188l-208 531h-411l-212 -531h-189l505 1310l-15 20q-41 41 -41 96.5t37 93t61 43.5zM626.5 1458.5q-11.5 11.5 -28 11.5t-27.5 -11.5t-11 -27.5t11 -27.5 t27.5 -11.5t28 11.5t11.5 27.5t-11.5 27.5z" />
<glyph unicode="&#x1fb;" horiz-adv-x="1188" d="M918 410v146q-19 99 -91 171q-101 102 -235.5 102t-233.5 -100t-99 -246.5t99 -245.5t233.5 -99t235.5 101q72 72 91 171zM609.5 1103.5q-11.5 11.5 -28 11.5t-27.5 -11.5t-11 -27.5t11 -27.5t27.5 -11.5t28 11.5t11.5 27.5t-11.5 27.5zM702 976q138 -36 216 -169v107 h181v-914h-181v160q-107 -184 -325 -184t-368.5 150.5t-150.5 356.5t151 356q106 106 246 137q-40 41 -40 96t37 92.5t61 43.5l26 65h291l-144 -103q41 -43 41 -97t-41 -97z" />
<glyph unicode="&#x1fc;" horiz-adv-x="1514" d="M1402 798v-157h-602v-484h602v-157h-782v521h-199l-231 -521h-191l625 1439h778v-157h-602v-484h602zM620 677v317l-136 -317h136zM1035 1798l-313 -239h-189l208 239h294z" />
<glyph unicode="&#x1fd;" horiz-adv-x="1908" d="M918 556q-17 97 -91 171q-101 102 -235.5 102t-233.5 -100t-99 -246.5t99 -245.5t233.5 -99t235.5 101q74 74 91 171v146zM1658 643q-10 31 -68 88q-96 98 -230.5 98t-235.5 -102q-17 -16 -25 -29v-55h559zM1099 267q8 -12 29 -32q97 -97 231.5 -97t231.5 97q18 18 56 68 l171 -61q-38 -64 -88 -113q-152 -153 -364 -153t-267 52v-28h-181v160q-107 -184 -325 -184t-368.5 150.5t-150.5 356.5t150.5 356t368.5 150t325 -182v107h181q55 75 267 75t353.5 -142t148.5 -362l-769 1v-219zM1306 1273l-313 -239h-189l208 239h294z" />
<glyph unicode="&#x1fe;" horiz-adv-x="1693" d="M1009 1280q-52 21 -163 21q-230 0 -398 -168.5t-168 -411.5t166 -410q65 -64 79 -73zM683 162q53 -20 163 -20q231 0 399 168t168 411t-170 415q-61 60 -75 68zM1237 1353q61 -33 143 -114q215 -216 215 -518t-217.5 -519.5t-531.5 -217.5q-152 0 -231 32l-74 -160 l-159 76l74 158q-62 33 -143 114q-215 215 -215 517t217.5 520t530.5 218q152 0 232 -32l74 158l159 -73zM1181 1798l-313 -239h-189l208 239h294z" />
<glyph unicode="&#x1ff;" horiz-adv-x="1145" d="M666 819q-20 10 -93 10q-135 0 -234 -99.5t-99 -246t97 -244.5zM816 730l-337 -582q21 -9 94 -9q134 0 233.5 99t99.5 245.5t-90 246.5zM246 90q-10 7 -44 39q-147 149 -147 355t150.5 356t367.5 150q123 0 178 -26l104 183l154 -82l-108 -187q9 -7 43 -40 q146 -148 146 -354t-149 -356.5t-368 -150.5q-124 0 -177 26l-104 -180l-156 73zM907 1273l-313 -239h-189l208 239h294z" />
<glyph unicode="&#x2c6;" horiz-adv-x="878" d="M783 1035h-231l-117 87l-110 -87h-230l338 278z" />
<glyph unicode="&#x2c7;" horiz-adv-x="878" d="M433 989l-338 277h230l110 -86l117 86h231z" />
<glyph unicode="&#x2c9;" horiz-adv-x="754" d="M75 1174h604v-140h-604v140z" />
<glyph unicode="&#x2d8;" horiz-adv-x="681" d="M342 1198q51 0 88 77h167q-31 -101 -74 -144q-73 -75 -182 -75t-182 75q-44 45 -76 144h168q21 -40 39.5 -58.5t51.5 -18.5z" />
<glyph unicode="&#x2d9;" horiz-adv-x="384" d="M276 1245q33 -32 33 -72.5t-33 -72.5t-84 -32t-84 32t-33 72.5t33 72.5t84 32t84 -32z" />
<glyph unicode="&#x2da;" horiz-adv-x="589" d="M410 1182.5q45 -45.5 45 -103.5t-45 -103t-115.5 -45t-115.5 45t-45 103t45 103.5t115.5 45.5t115.5 -45.5zM329.5 1110.5q-13.5 13.5 -35 13.5t-35 -13.5t-13.5 -31t13.5 -31t35 -13.5t35 13.5t13.5 31t-13.5 31z" />
<glyph unicode="&#x2db;" horiz-adv-x="535" d="M303 -17q-21 0 -34.5 -13.5t-13.5 -31t13.5 -31t29 -13.5t24.5 3l13 -105q-15 -2 -32 -2q-70 0 -115 45t-45 103t44 102.5t111 46.5l13 -104h-8z" />
<glyph unicode="&#x2dc;" horiz-adv-x="625" d="M244 1106q-2 -22 -2 -77l-167 36q2 71 11 98q23 70 86 96q22 10 49 10q59 0 135 -55q14 -10 23 -16q1 22 1 75l169 -33q-4 -72 -13 -99q-22 -70 -87 -98q-24 -8 -47 -8q-59 0 -136 55q-13 10 -22 16z" />
<glyph unicode="&#x2dd;" horiz-adv-x="854" d="M526 1266l-313 -238h-189l208 238h294zM830 1266l-312 -238h-190l208 238h294z" />
<glyph unicode="&#x384;" horiz-adv-x="597" d="M577 1439l-313 -238h-189l208 238h294z" />
<glyph unicode="&#x385;" horiz-adv-x="795" d="M637 1439l-236 -238h-158l131 238h263zM715.5 1356.5q29.5 -28.5 29.5 -64t-29.5 -64t-75.5 -28.5t-75.5 28.5t-29.5 64t29.5 64t75.5 28.5t75.5 -28.5zM231 1356.5q30 -28.5 30 -64t-30 -64t-76 -28.5t-75.5 28.5t-29.5 64t29.5 64t75.5 28.5t76 -28.5z" />
<glyph unicode="&#x386;" horiz-adv-x="1093" d="M403 1439l-314 -238h-189l208 238h295zM703 754l-138 382l-139 -382h277zM644 1439l521 -1439h-188l-217 598h-391l-221 -598h-189l528 1439h157z" />
<glyph unicode="&#x387;" horiz-adv-x="344" d="M256 1091q33 -32 33 -72.5t-33 -72.5t-84 -32t-84 32t-33 72.5t33 72.5t84 32t84 -32z" />
<glyph unicode="&#x388;" horiz-adv-x="1151" d="M209 1439l-313 -238h-189l208 238h294zM1058 1439v-157h-602v-484h602v-157h-602v-484h602v-157h-783v1439h783z" />
<glyph unicode="&#x389;" horiz-adv-x="1343" d="M212 1439l-313 -238h-189l208 238h294zM459 641v-641h-181v1439h181v-641h591v641h181v-1439h-181v641h-591z" />
<glyph unicode="&#x38a;" horiz-adv-x="535" d="M199 1439l-313 -238h-189l208 238h294zM439 1439v-1439h-181v1439h181z" />
<glyph unicode="&#x38c;" horiz-adv-x="1623" d="M285 1439l-313 -238h-189l208 238h294zM1315.5 1241q217.5 -218 217.5 -520t-217.5 -519.5t-531 -217.5t-531 217.5t-217.5 519.5t217.5 520t531 218t531 -218zM784 1301q-231 0 -399 -168.5t-168 -411.5t168 -411t399 -168t399 168t168 411t-168 411.5t-399 168.5z" />
<glyph unicode="&#x38e;" horiz-adv-x="1322" d="M141 1439l-313 -238h-189l208 238h294zM676 582l-494 857h200l384 -666l384 666h201l-494 -857v-582h-181v582z" />
<glyph unicode="&#x38f;" horiz-adv-x="1464" d="M266 1439l-313 -238h-189l208 238h294zM720 1459q299 0 475.5 -207t176.5 -544q0 -251 -330 -551h243v-157h-465v147q107 48 239 187t132 374q0 283 -132 444t-344 161h-4q-213 0 -344.5 -161t-131.5 -444q0 -235 131.5 -374t238.5 -187v-147h-465v157h244 q-331 300 -331 551q0 337 177 544t476 207h14z" />
<glyph unicode="&#x390;" horiz-adv-x="470" d="M326 914v-914h-180v914h180zM475 1279l-236 -238h-158l131 238h263zM553.5 1196.5q29.5 -28.5 29.5 -64t-29.5 -64t-75.5 -28.5t-75.5 28.5t-29.5 64t29.5 64t75.5 28.5t75.5 -28.5zM69 1196.5q30 -28.5 30 -64t-30 -64t-76 -28.5t-75.5 28.5t-29.5 64t29.5 64t75.5 28.5 t76 -28.5z" />
<glyph unicode="&#x391;" horiz-adv-x="1208" d="M743 754l-138 382l-139 -382h277zM684 1439l521 -1439h-188l-217 598h-391l-221 -598h-189l528 1439h157z" />
<glyph unicode="&#x392;" horiz-adv-x="1102" d="M555 157q125 0 218.5 93.5t93.5 232.5t-93.5 233t-218.5 94h-262v-653h262zM293 1283v-316h290q59 6 97 44t38 109t-46 117t-104 46h-275zM910 821q140 -140 140 -337t-145 -342q-117 -118 -296 -142h-497v1439h457q141 0 236 -95t95 -223.5t-93 -220.5q33 -8 103 -79z " />
<glyph unicode="&#x393;" horiz-adv-x="832" d="M810 1439v-157h-517v-1282h-181v1439h698z" />
<glyph unicode="&#x394;" horiz-adv-x="1195" d="M44 1h-74l524 1438h171l530 -1439h-1151v1zM948 157l-369 999l-364 -999h733z" />
<glyph unicode="&#x395;" horiz-adv-x="985" d="M895 1439v-157h-602v-484h602v-157h-602v-484h602v-157h-783v1439h783z" />
<glyph unicode="&#x396;" horiz-adv-x="1168" d="M823 1282h-615v157h906l-740 -1282h780v-157h-1070z" />
<glyph unicode="&#x397;" horiz-adv-x="1173" d="M291 641v-641h-181v1439h181v-641h591v641h181v-1439h-181v641h-591z" />
<glyph unicode="&#x398;" horiz-adv-x="1621" d="M1341.5 1241q217.5 -218 217.5 -520t-217.5 -519.5t-531 -217.5t-531 217.5t-217.5 519.5t217.5 520t531 218t531 -218zM1209 1132.5q-168 168.5 -398.5 168.5t-398.5 -168.5t-168 -411.5t168 -411t398.5 -168t398.5 168t168 411t-168 411.5zM375 800h872v-157h-872v157z " />
<glyph unicode="&#x399;" horiz-adv-x="425" d="M303 1439v-1439h-181v1439h181z" />
<glyph unicode="&#x39a;" horiz-adv-x="1102" d="M874 1439l-380 -550l622 -889h-211l-518 741l-94 -135v-606h-181v1439h181v-532l371 532h210z" />
<glyph unicode="&#x39b;" horiz-adv-x="1225" d="M695 1439l530 -1439h-189l-427 1156l-421 -1155h-188l524 1438h171z" />
<glyph unicode="&#x39c;" horiz-adv-x="1496" d="M1403 1439v-1439h-181v1170l-473 -621l-474 621v-1170h-181v1439h193l462 -605l461 605h193z" />
<glyph unicode="&#x39d;" horiz-adv-x="1398" d="M288 1439l820 -1150v1150h181v-1439h-200l-799 1121v-1121h-181v1439h179z" />
<glyph unicode="&#x39e;" horiz-adv-x="1164" d="M145 800h872v-157h-872v157zM50 1440h1064v-157h-1064v157zM50 158h1064v-157h-1064v157z" />
<glyph unicode="&#x39f;" horiz-adv-x="1621" d="M1341.5 1241q217.5 -218 217.5 -520t-217.5 -519.5t-531 -217.5t-531 217.5t-217.5 519.5t217.5 520t531 218t531 -218zM1209 1132.5q-168 168.5 -398.5 168.5t-398.5 -168.5t-168 -411.5t168 -411t398.5 -168t398.5 168t168 411t-168 411.5z" />
<glyph unicode="&#x3a0;" horiz-adv-x="1141" d="M275 1282v-1282h-181v1439h953v-1439h-181v1282h-591z" />
<glyph unicode="&#x3a1;" horiz-adv-x="1032" d="M293 471v-471h-181v1439h412q180 -24 311 -155.5t131 -328t-143 -340.5t-352 -144h-178zM293 1281v-652h178q126 0 220 93.5t94 233t-94 232.5t-220 93h-178z" />
<glyph unicode="&#x3a3;" horiz-adv-x="1125" d="M24 1438h1077v-157h-848l463 -562l-463 -562h848v-157h-1077v163l470 556l-470 557v162z" />
<glyph unicode="&#x3a4;" horiz-adv-x="971" d="M576 1282v-1282h-180v1282h-344v157h867v-157h-343z" />
<glyph unicode="&#x3a5;" horiz-adv-x="1169" d="M526 582l-494 857h200l385 -666l384 666h200l-494 -857v-582h-181v582z" />
<glyph unicode="&#x3a6;" horiz-adv-x="1625" d="M722 365v686q-188 -5 -327 -102.5t-139 -240t139 -240.5t327 -103zM903 204v-200h-181v200q-263 7 -450 147q-202 148 -202 358t194.5 353t457.5 150v225h181v-225q263 -7 457.5 -150t194.5 -353t-194.5 -354t-457.5 -151zM903 1051v-686q188 5 327.5 103t139.5 240.5 t-139 240t-328 102.5z" />
<glyph unicode="&#x3a7;" horiz-adv-x="1137" d="M15 0l453 787l-376 652h200l276 -479l276 479h201l-377 -652l455 -787h-201l-354 613l-354 -613h-199z" />
<glyph unicode="&#x3a8;" horiz-adv-x="1661" d="M918 300v-296h-181v296q-263 7 -451 147q-191 149 -196 361v629h181v-633q0 -142 139 -240t327 -103v976h181v-976q189 5 328 103t139 284h5v589h181v-634q-1 -209 -195 -352.5t-458 -150.5z" />
<glyph unicode="&#x3a9;" horiz-adv-x="1519" d="M766 1459q300 0 476.5 -207t176.5 -544q0 -251 -330 -551h243v-157h-465v147q107 48 239 187t132 374q0 283 -132 444t-344 161h-4q-213 0 -344.5 -161t-131.5 -444q0 -235 131.5 -374t238.5 -187v-147h-465l-1 157h244q-330 300 -330 551q0 337 177 544t476 207h13z" />
<glyph unicode="&#x3aa;" horiz-adv-x="425" d="M303 1439v-1439h-181v1439h181zM162.5 1760.5q36.5 -35.5 36.5 -80.5t-36.5 -80.5t-92.5 -35.5t-92 35.5t-36 80.5t36 80.5t92 35.5t92.5 -35.5zM447 1760.5q36 -35.5 36 -80.5t-36 -80.5t-92 -35.5t-92.5 35.5t-36.5 80.5t36.5 80.5t92.5 35.5t92 -35.5z" />
<glyph unicode="&#x3ab;" horiz-adv-x="1169" d="M526 582l-494 857h200l385 -666l384 666h200l-494 -857v-582h-181v582zM566.5 1760.5q36.5 -35.5 36.5 -80.5t-36.5 -80.5t-92.5 -35.5t-92 35.5t-36 80.5t36 80.5t92 35.5t92.5 -35.5zM851 1760.5q36 -35.5 36 -80.5t-36 -80.5t-92 -35.5t-92.5 35.5t-36.5 80.5 t36.5 80.5t92.5 35.5t92 -35.5z" />
<glyph unicode="&#x3ac;" horiz-adv-x="1234" d="M969 130q-152 -154 -370 -154t-368.5 150.5t-150.5 356.5t150.5 356t368.5 150t370 -152l47 77h178l-105 -457l105 -457h-179zM829 731q-97 98 -231.5 98t-233.5 -100t-99 -246.5t99 -245.5t233.5 -99t231.5 96q76 76 79 227q0 189 -79 270zM972 1279l-313 -238h-189 l208 238h294z" />
<glyph unicode="&#x3ad;" horiz-adv-x="838" d="M660 460q108 -83 108 -193t-104 -189t-249.5 -79t-249.5 79t-104 190v48h185v-48q0 -53 49 -89.5t119.5 -36.5t119 36.5t48.5 89.5t-38.5 82t-67.5 36h-236v156h259q14 6 35 22q48 36 48 88.5t-48.5 89.5t-119.5 37q-152 0 -172 -149h-184q13 141 112 216t244.5 75 t249.5 -79t104 -189t-108 -193zM748 1269l-314 -238h-188l208 238h294z" />
<glyph unicode="&#x3ae;" horiz-adv-x="918" d="M271 682v-682h-181v914h181q26 50 194.5 50t274.5 -106t108 -259v-917h-180v909q0 93 -63 154.5t-143.5 61.5t-128.5 -46.5t-62 -78.5zM804 1279l-314 -238h-189l208 238h295z" />
<glyph unicode="&#x3af;" horiz-adv-x="470" d="M325 914v-914h-180v914h180zM570 1279l-314 -238h-188l207 238h295z" />
<glyph unicode="&#x3b0;" d="M869 354q-3 -154 -108.5 -260t-282.5 -106t-282.5 106t-108.5 260v561h181v-554q0 -92 63 -154.5t147 -62.5t147 62.5t63 154.5v554h181v-561zM717 1269l-236 -238h-157l130 238h263zM796 1186.5q30 -28.5 30 -64t-30 -64t-76 -28.5t-75.5 28.5t-29.5 64t29.5 64 t75.5 28.5t76 -28.5zM311.5 1186.5q29.5 -28.5 29.5 -64t-29.5 -64t-76 -28.5t-76 28.5t-29.5 64t29.5 64t76 28.5t76 -28.5z" />
<glyph unicode="&#x3b1;" horiz-adv-x="1234" d="M969 130q-152 -154 -370 -154t-368.5 150.5t-150.5 356.5t150.5 356t368.5 150t370 -152l47 77h178l-105 -457l105 -457h-179zM829 731q-97 98 -231.5 98t-233.5 -100t-99 -246.5t99 -245.5t233.5 -99t231.5 96q76 76 79 227q0 189 -79 270z" />
<glyph unicode="&#x3b2;" horiz-adv-x="986" d="M469 142q110 0 191.5 81.5t81.5 204t-82 211.5t-243 120l-59 3v154q69 1 108 16.5t89.5 69t50.5 128t-47.5 121.5t-107.5 47t-105 -50t-45 -147v-1416h-181v1426q0 150 91.5 248.5t238 98.5t244 -99t97.5 -231t-117 -278q36 -11 126 -107q126 -136 126 -316.5 t-132 -312.5t-325 -132q-65 0 -140 22l76 148q37 -10 64 -10z" />
<glyph unicode="&#x3b3;" horiz-adv-x="1004" d="M409 34l-369 880h198l262 -625l266 625h198l-371 -875v-357h-184v352z" />
<glyph unicode="&#x3b4;" horiz-adv-x="1179" d="M356 729q-99 -100 -99 -246.5t99 -245.5t233.5 -99t234 99t99.5 245.5t-99.5 246.5t-234 100t-233.5 -100zM983 814q124 -125 124 -331t-149 -356.5t-367 -150.5t-368.5 150.5t-150.5 356.5t141 346.5t302 158.5l-369 446h750v-156h-387q190 -261 270 -300t204 -164z" />
<glyph unicode="&#x3b5;" horiz-adv-x="838" d="M660 460q108 -83 108 -193t-104 -189t-249.5 -79t-249.5 79t-104 190v48h185v-48q0 -53 49 -89.5t119.5 -36.5t119 36.5t48.5 89.5t-38.5 82t-67.5 36h-236v156h259q14 6 35 22q48 36 48 88.5t-48.5 89.5t-119.5 37q-152 0 -172 -149h-184q13 141 112 216t244.5 75 t249.5 -79t104 -189t-108 -193z" />
<glyph unicode="&#x3b6;" horiz-adv-x="866" d="M886 1361q-607 -609 -607 -987q0 -225 282 -234.5t282 -226.5q-35 -189 -276 -197v161q92 0 96 50v4q0 51 -104 51q-459 9 -459 378q0 42 7 88q55 422 487 834h-458v157h750v-78z" />
<glyph unicode="&#x3b7;" horiz-adv-x="918" d="M271 682v-682h-181v914h181q26 50 194.5 50t274.5 -106t108 -259v-917h-180v909q0 93 -63 154.5t-143.5 61.5t-128.5 -46.5t-62 -78.5z" />
<glyph unicode="&#x3b8;" horiz-adv-x="1195" d="M828.5 283q102.5 145 102.5 424.5t-102.5 425t-231 145.5t-230.5 -145.5t-102 -425t102 -424.5t230.5 -145t231 145zM968 1239q147 -200 147 -531.5t-147 -531.5t-369.5 -200t-370.5 200t-148 531.5t148 531.5t370.5 200t369.5 -200zM385 787h426v-157h-426v157z" />
<glyph unicode="&#x3b9;" horiz-adv-x="470" d="M325 914v-914h-180v914h180z" />
<glyph unicode="&#x3ba;" horiz-adv-x="843" d="M747 914l-240 -298l348 -616h-207l-261 476l-106 -118v-358h-181v914h181v-289l248 289h218z" />
<glyph unicode="&#x3bb;" horiz-adv-x="966" d="M916 0h-195l-238 506l-238 -506h-195l335 720l-257 550h195z" />
<glyph unicode="&#x3bc;" horiz-adv-x="957" d="M668 67q-25 -75 -191.5 -75t-185.5 19v-329h-181v1232h181v-654q11 -25 39 -53q60 -58 140.5 -58t142.5 60q41 41 55 90v615h179v-914h-179v67z" />
<glyph unicode="&#x3bd;" horiz-adv-x="946" d="M241 914l230 -548l233 548h198l-431 -1034l-428 1034h198z" />
<glyph unicode="&#x3be;" horiz-adv-x="964" d="M212 128.5q-132 116.5 -132 297.5t126 317q90 96 126 107q-118 125 -118 261q18 326 422 327l260 2v-151h-232q-254 0 -254 -172v-7q0 -73 44.5 -117.5t124.5 -75.5l311 -1v-156l-301 2q-161 -33 -243 -122.5t-82 -211t81.5 -190.5t355 -100t273.5 -251v-23 q-37 -148 -284 -171v175q101 0 103 31v4q0 73 -224.5 91t-356.5 134.5z" />
<glyph unicode="&#x3bf;" horiz-adv-x="1179" d="M222.5 839q150.5 150 368.5 150t367 -150t149 -356t-149 -356.5t-367 -150.5t-368.5 150.5t-150.5 356.5t150.5 356zM356 729q-99 -100 -99 -246.5t99 -245.5t233.5 -99t234 99t99.5 245.5t-99.5 246.5t-234 100t-233.5 -100z" />
<glyph unicode="&#x3c0;" horiz-adv-x="1179" d="M488 758v-758h-180v758h-248v156h1059v-156h-247v-758h-180v758h-204z" />
<glyph unicode="&#x3c1;" horiz-adv-x="1176" d="M92 599q40 152 164.5 270.5t342 118.5t367.5 -149.5t150 -355.5t-150 -356.5t-368 -150.5t-325 132v-426h-181v917zM273 559v-154q18 -97 93 -171q98 -97 232 -97t233.5 99.5t99.5 246t-99.5 246.5t-233.5 100t-236 -102q-71 -71 -89 -168z" />
<glyph unicode="&#x3c2;" horiz-adv-x="980" d="M251 133q-151 109 -151 291.5t126 317.5q141 156 446 175l238 -1v-156h-192q-236 -7 -335 -109t-99 -221.5t100.5 -186t307 -113.5t206.5 -214v-22q-36 -168 -284 -191v174q100 0 103 50v4q0 31 -157.5 62t-308.5 140z" />
<glyph unicode="&#x3c3;" horiz-adv-x="1259" d="M366 729q-99 -100 -99 -246.5t99 -245.5t233.5 -99t234 99t99.5 245.5t-99.5 246.5t-234 100t-233.5 -100zM1044 758q73 -80 73 -280.5t-149 -351t-367 -150.5t-368.5 150.5t-150.5 356.5t150.5 356t367.5 150q163 0 274 -75h315v-156h-145z" />
<glyph unicode="&#x3c4;" horiz-adv-x="991" d="M586 758v-758h-180v758h-344v156h867v-156h-343z" />
<glyph unicode="&#x3c5;" d="M869 354q-3 -154 -108.5 -260t-282.5 -106t-282.5 106t-108.5 260v561h181v-554q0 -92 63 -154.5t147 -62.5t147 62.5t63 154.5v554h181v-561z" />
<glyph unicode="&#x3c6;" horiz-adv-x="1196" d="M518 -12q-150 9 -294 153t-144 350.5t148 353.5q49 51 140 105l57 -160q-40 -33 -61 -54q-98 -99 -98 -245.5t97.5 -244.5t148.5 -98v677q20 128 155 128q74 0 184 -49q265 -119 265 -413q0 -205 -140 -346t-277 -154v-304h-181v301zM693 174q81 13 136 68 q103 102 103 249q0 178 -146 262q-60 34 -74.5 34t-17.5 -1z" />
<glyph unicode="&#x3c7;" horiz-adv-x="1095" d="M548 175l-298 -488h-200l397 653l-349 574h201l249 -408l248 408h201l-349 -574l397 -653h-200z" />
<glyph unicode="&#x3c8;" horiz-adv-x="1231" d="M709 -11v-293h-187v293q-146 10 -289 153t-143 349v424h186v-424q0 -147 97.5 -245t148.5 -98v767h187v-767q51 0 148.5 98t97.5 245v424h186v-424q0 -206 -143.5 -349t-288.5 -153z" />
<glyph unicode="&#x3c9;" horiz-adv-x="1415" d="M255 506q0 -379 217 -379q94 0 146 62v530h180v-530q51 -62 147.5 -62t156 85.5t59.5 284t-102 355.5v62h160q126 -215 126 -408q0 -251 -98.5 -390.5t-293.5 -139.5t-244 82q-50 -82 -245 -82t-294.5 139.5t-99.5 390.5q0 196 134 408h161v-58q-110 -144 -110 -350z" />
<glyph unicode="&#x3ca;" horiz-adv-x="470" d="M325 914v-914h-180v914h180zM184.5 1235.5q36.5 -35.5 36.5 -80.5t-36.5 -80.5t-92.5 -35.5t-92 35.5t-36 80.5t36 80.5t92 35.5t92.5 -35.5zM469 1235.5q36 -35.5 36 -80.5t-36 -80.5t-92 -35.5t-92.5 35.5t-36.5 80.5t36.5 80.5t92.5 35.5t92 -35.5z" />
<glyph unicode="&#x3cb;" d="M869 354q-3 -154 -108.5 -260t-282.5 -106t-282.5 106t-108.5 260v561h181v-554q0 -92 63 -154.5t147 -62.5t147 62.5t63 154.5v554h181v-561zM427.5 1235.5q36.5 -35.5 36.5 -80.5t-36.5 -80.5t-92.5 -35.5t-92 35.5t-36 80.5t36 80.5t92 35.5t92.5 -35.5zM712 1235.5 q36 -35.5 36 -80.5t-36 -80.5t-92 -35.5t-92.5 35.5t-36.5 80.5t36.5 80.5t92.5 35.5t92 -35.5z" />
<glyph unicode="&#x3cc;" horiz-adv-x="1179" d="M222.5 839q150.5 150 368.5 150t367 -150t149 -356t-149 -356.5t-367 -150.5t-368.5 150.5t-150.5 356.5t150.5 356zM356 729q-99 -100 -99 -246.5t99 -245.5t233.5 -99t234 99t99.5 245.5t-99.5 246.5t-234 100t-233.5 -100zM902 1270l-314 -239h-188l207 239h295z" />
<glyph unicode="&#x3cd;" d="M869 354q-3 -154 -108.5 -260t-282.5 -106t-282.5 106t-108.5 260v561h181v-554q0 -92 63 -154.5t147 -62.5t147 62.5t63 154.5v554h181v-561zM790 1270l-313 -239h-189l208 239h294z" />
<glyph unicode="&#x3ce;" horiz-adv-x="1415" d="M255 506q0 -379 217 -379q94 0 146 62v530h180v-530q51 -62 147.5 -62t156 85.5t59.5 284t-102 355.5v62h160q126 -215 126 -408q0 -251 -98.5 -390.5t-293.5 -139.5t-244 82q-50 -82 -245 -82t-294.5 139.5t-99.5 390.5q0 196 134 408h161v-58q-110 -144 -110 -350z M1042 1269l-313 -238h-189l208 238h294z" />
<glyph unicode="&#x1e80;" horiz-adv-x="1665" d="M893 1079l291 -751l298 1111h183l-386 -1439h-158l-288 758l-289 -758h-158l-386 1439h184l299 -1111l289 751h121zM792 1798l208 -239h-190l-312 239h294z" />
<glyph unicode="&#x1e81;" horiz-adv-x="1184" d="M1185 914l-311 -914h-127l-155 433l-154 -433h-129l-309 914h195l183 -568l154 426h122l153 -426l182 568h196zM552 1273l208 -239h-190l-312 239h294z" />
<glyph unicode="&#x1e82;" horiz-adv-x="1665" d="M893 1079l291 -751l298 1111h183l-386 -1439h-158l-288 758l-289 -758h-158l-386 1439h184l299 -1111l289 751h121zM1167 1798l-313 -239h-189l208 239h294z" />
<glyph unicode="&#x1e83;" horiz-adv-x="1184" d="M1185 914l-311 -914h-127l-155 433l-154 -433h-129l-309 914h195l183 -568l154 426h122l153 -426l182 568h196zM927 1273l-313 -239h-189l208 239h294z" />
<glyph unicode="&#x1e84;" horiz-adv-x="1665" d="M893 1079l291 -751l298 1111h183l-386 -1439h-158l-288 758l-289 -758h-158l-386 1439h184l299 -1111l289 751h121zM782.5 1760.5q36.5 -35.5 36.5 -80.5t-36.5 -80.5t-92.5 -35.5t-92 35.5t-36 80.5t36 80.5t92 35.5t92.5 -35.5zM1067 1760.5q36 -35.5 36 -80.5 t-36 -80.5t-92 -35.5t-92.5 35.5t-36.5 80.5t36.5 80.5t92.5 35.5t92 -35.5z" />
<glyph unicode="&#x1e85;" horiz-adv-x="1184" d="M1185 914l-311 -914h-127l-155 433l-154 -433h-129l-309 914h195l183 -568l154 426h122l153 -426l182 568h196zM542.5 1235.5q36.5 -35.5 36.5 -80.5t-36.5 -80.5t-92.5 -35.5t-92 35.5t-36 80.5t36 80.5t92 35.5t92.5 -35.5zM827 1235.5q36 -35.5 36 -80.5t-36 -80.5 t-92 -35.5t-92.5 35.5t-36.5 80.5t36.5 80.5t92.5 35.5t92 -35.5z" />
<glyph unicode="&#x1ef2;" horiz-adv-x="1233" d="M526 582l-494 857h200l385 -666l384 666h200l-494 -857v-582h-181v582zM576 1798l208 -239h-190l-312 239h294z" />
<glyph unicode="&#x1ef3;" horiz-adv-x="896" d="M307 -317h-195l238 512l-335 719h195l238 -505l238 505h195zM408 1273l208 -239h-190l-312 239h294z" />
<glyph unicode="&#x2000;" horiz-adv-x="919" />
<glyph unicode="&#x2001;" horiz-adv-x="1838" />
<glyph unicode="&#x2002;" horiz-adv-x="919" />
<glyph unicode="&#x2003;" horiz-adv-x="1838" />
<glyph unicode="&#x2004;" horiz-adv-x="612" />
<glyph unicode="&#x2005;" horiz-adv-x="459" />
<glyph unicode="&#x2006;" horiz-adv-x="306" />
<glyph unicode="&#x2007;" horiz-adv-x="306" />
<glyph unicode="&#x2008;" horiz-adv-x="229" />
<glyph unicode="&#x2009;" horiz-adv-x="367" />
<glyph unicode="&#x200a;" horiz-adv-x="102" />
<glyph unicode="&#x2010;" horiz-adv-x="680" d="M48 621h584v-157h-584v157z" />
<glyph unicode="&#x2011;" horiz-adv-x="680" d="M48 621h584v-157h-584v157z" />
<glyph unicode="&#x2012;" horiz-adv-x="680" d="M48 621h584v-157h-584v157z" />
<glyph unicode="&#x2013;" horiz-adv-x="758" d="M0 621h758v-157h-758v157z" />
<glyph unicode="&#x2014;" horiz-adv-x="1308" d="M0 621h1308v-157h-1308v157z" />
<glyph unicode="&#x2015;" horiz-adv-x="3101" d="M0 621h1910v-157h-1910v157z" />
<glyph unicode="&#x2017;" horiz-adv-x="863" d="M-45 -135h953v-156h-953v156zM-45 54h953v-156h-953v156z" />
<glyph unicode="&#x2018;" horiz-adv-x="361" d="M262 1301l6 -20q38 -37 38 -82.5t-36.5 -81t-92.5 -35.5t-92 35.5t-36 70t8 56.5l98 195h159z" />
<glyph unicode="&#x2019;" horiz-adv-x="361" d="M100 1231l-10 23q-34 33 -34 78.5t36.5 80.5t92 35t92 -35t36.5 -69.5t-8 -56.5l-98 -196h-159z" />
<glyph unicode="&#x201a;" horiz-adv-x="361" d="M100 1l-10 24q-34 32 -34 77t36.5 80.5t92.5 35.5t92 -35.5t36 -69t-8 -55.5l-98 -196h-159z" />
<glyph unicode="&#x201b;" horiz-adv-x="361" d="M261 1231l10 23q34 33 34 78.5t-36.5 80.5t-92 35t-92 -35t-36.5 -69.5t8 -56.5l98 -196h159z" />
<glyph unicode="&#x201c;" horiz-adv-x="732" d="M262 1301l6 -20q38 -37 38 -82.5t-36.5 -81t-92.5 -35.5t-92 35.5t-36 70t8 56.5l98 195h159zM633 1301l6 -20q38 -37 38 -82.5t-36.5 -81t-92.5 -35.5t-92 35.5t-36 70t8 56.5l98 195h159z" />
<glyph unicode="&#x201d;" horiz-adv-x="732" d="M100 1231l-10 23q-34 33 -34 78.5t36.5 80.5t92 35t92 -35t36.5 -69.5t-8 -56.5l-98 -196h-159zM471 1231l-10 23q-34 33 -34 78.5t36.5 80.5t92 35t92 -35t36.5 -69.5t-8 -56.5l-98 -196h-159z" />
<glyph unicode="&#x201e;" horiz-adv-x="732" d="M100 -39l-10 23q-34 33 -34 78.5t36.5 80.5t92 35t92 -35t36.5 -69.5t-8 -56.5l-98 -196h-159zM471 -39l-10 23q-34 33 -34 78.5t36.5 80.5t92 35t92 -35t36.5 -69.5t-8 -56.5l-98 -196h-159z" />
<glyph unicode="&#x2020;" horiz-adv-x="773" d="M308 1254v185h153v-185h212v-129h-212v-1160h-153v1160h-212v129h212z" />
<glyph unicode="&#x2021;" horiz-adv-x="773" d="M314 1125h-212v129h212v185h153v-185h212v-129h-212v-333h212v-129h-212v-698h-153v698h-212v129h212v333z" />
<glyph unicode="&#x2022;" horiz-adv-x="763" d="M511 789.5q52 -50.5 52 -118t-52 -118t-129.5 -50.5t-129.5 50.5t-52 118t52 118t129.5 50.5t129.5 -50.5z" />
<glyph unicode="&#x2026;" horiz-adv-x="2048" d="M275.5 184.5q36.5 -35.5 36.5 -80.5t-36.5 -80.5t-92.5 -35.5t-92 35.5t-36 80.5t36 80.5t92 35.5t92.5 -35.5zM958.5 184.5q36.5 -35.5 36.5 -80.5t-36.5 -80.5t-92.5 -35.5t-92 35.5t-36 80.5t36 80.5t92 35.5t92.5 -35.5zM1641.5 184.5q36.5 -35.5 36.5 -80.5 t-36.5 -80.5t-92.5 -35.5t-92 35.5t-36 80.5t36 80.5t92 35.5t92.5 -35.5z" />
<glyph unicode="&#x202f;" horiz-adv-x="367" />
<glyph unicode="&#x2030;" horiz-adv-x="1706" d="M1053 1165l-829 -1185l-141 98l829 1185zM491.5 1041q70.5 -71 70.5 -165t-70.5 -165.5t-177.5 -71.5t-177.5 71.5t-70.5 165.5t70.5 165t177.5 71t177.5 -71zM361.5 935.5q-22.5 22.5 -48 22.5t-47.5 -22.5t-22 -60.5t22 -60t47.5 -22t48 22.5t22.5 60t-22.5 60z M999.5 531.5q70.5 -70.5 70.5 -165.5t-70.5 -165.5t-177 -70.5t-177 70.5t-70.5 165.5t70.5 165.5t177 70.5t177 -70.5zM871 426.5q-23 22.5 -48.5 22.5t-47.5 -22.5t-22 -60.5t22 -60t47.5 -22t48.5 22t23 60t-23 60.5zM1569.5 531.5q70.5 -70.5 70.5 -165.5t-70.5 -165.5 t-177 -70.5t-177 70.5t-70.5 165.5t70.5 165.5t177 70.5t177 -70.5zM1441 426.5q-23 22.5 -48.5 22.5t-47.5 -22.5t-22 -60.5t22 -60t47.5 -22t48.5 22t23 60t-23 60.5z" />
<glyph unicode="&#x2032;" horiz-adv-x="427" d="M123 850v589h181v-589h-181z" />
<glyph unicode="&#x2033;" horiz-adv-x="670" d="M123 850v589h181v-589h-181zM367 850v589h180v-589h-180z" />
<glyph unicode="&#x2039;" horiz-adv-x="695" d="M100 449l496 532v-245l-268 -287l268 -287v-246z" />
<glyph unicode="&#x203a;" horiz-adv-x="695" d="M100 -84v246l267 287l-267 287v245l496 -532z" />
<glyph unicode="&#x203c;" horiz-adv-x="734" d="M275.5 184.5q36.5 -35.5 36.5 -80.5t-36.5 -80.5t-92.5 -35.5t-92 35.5t-36 80.5t36 80.5t92 35.5t92.5 -35.5zM272 1439v-1104h-181v1104h181zM642.5 184.5q36.5 -35.5 36.5 -80.5t-36.5 -80.5t-92.5 -35.5t-92 35.5t-36 80.5t36 80.5t92 35.5t92.5 -35.5zM639 1439 v-1104h-181v1104h181z" />
<glyph unicode="&#x203e;" horiz-adv-x="863" d="M-45 1631h953v-156h-953v156z" />
<glyph unicode="&#x2044;" horiz-adv-x="297" d="M848 1439l-1032 -1439h-216l1030 1439h218z" />
<glyph unicode="&#x205f;" horiz-adv-x="459" />
<glyph unicode="&#x2074;" horiz-adv-x="865" d="M674 1653v-716h78v-145h-78v-193h-185v193h-376zM489 1056l-77 -119h77v119z" />
<glyph unicode="&#x20a3;" horiz-adv-x="966" d="M187 478v961h699v-157h-518v-484h518v-157h-518v-163h244v-157h-244v-321h-181v321h-137v157h137z" />
<glyph unicode="&#x20a4;" horiz-adv-x="976" d="M268 1059v-6q0 -92 70.5 -211t93.5 -214h175v-127h-147v-66h147v-127h-168q-22 -85 -78 -151h545v-157h-794v128q127 125 143 180h-175v127h200q0 2 -1 66h-199v127h165q-8 29 -85 159.5t-77 263.5v10q3 140 90 245q112 121 305 129q153 0 276 -102l-71 -161 q-107 105 -203 105h-7q-99 -3 -151 -65t-54 -153z" />
<glyph unicode="&#x20a7;" horiz-adv-x="1793" d="M275 1281v-652h160q113 0 197.5 93.5t84.5 233t-84.5 232.5t-197.5 93h-160zM842 758q-32 -77 -90 -143q-129 -144 -317 -144h-160v-471h-163v1439h371q162 -24 279.5 -155.5t117.5 -327.5q0 -21 -2 -42h42v355h180v-355h170v-15q69 62 172 62t170.5 -67.5t67.5 -148.5 v-28l-162 -66q-16 113 -35 133t-45 20t-49 -23t-23 -61t21.5 -60t82.5 -61q114 -62 165 -113q83 -84 83 -199.5t-85.5 -201.5t-213.5 -86t-213 86t-85 215l179 45q0 -116 37 -153t82 -37t82.5 37t37.5 95t-31.5 89t-107.5 80q-102 56 -140 94q-74 74 -74 170q0 19 3 38h-89 v-758h-180v758h-78z" />
<glyph unicode="&#x20ac;" horiz-adv-x="1118" d="M1022 1127q-180 154 -326 154q-176 -8 -258.5 -134t-100.5 -307h518l-32 -157h-494q0 -29 1 -35h505l-31 -157h-451q23 -104 87 -202q89 -138 306 -143q159 5 347 164v-222q-159 -99 -352 -99q-308 0 -460 206q-98 134 -124 296h-167l39 157h110q-1 14 -1 35h-129l39 157 h94q13 235 130 397q142 196 425 201q208 0 336 -112z" />
<glyph unicode="&#x2122;" horiz-adv-x="1315" d="M541 1292h-104v-513h-175v513h-212v147h640l188 -289l187 289h150v-660h-175v315l-162 -250l-163 251v-316h-174v513z" />
<glyph unicode="&#x2202;" horiz-adv-x="948" d="M702 642q-361 -45 -465 -307q-10 -39 -10 -71q0 -110 149 -112q233 25 326 490zM717 795q4 50 4 119q0 340 -139 366q-30 5 -59 5q-136 0 -285 -216l-85 171q154 187 363 187q67 0 141 -18q241 -62 241 -473q0 -115 -19 -260q-103 -658 -502 -667q-327 0 -327 250 q0 46 13 102q117 368 654 434z" />
<glyph unicode="&#x2206;" horiz-adv-x="1195" d="M44 1h-74l524 1438h171l530 -1439h-1151v1zM948 157l-369 999l-364 -999h733z" />
<glyph unicode="&#x220f;" horiz-adv-x="1237" d="M275 1282v-1599h-181v1756h1049v-1756h-181v1599h-687z" />
<glyph unicode="&#x2211;" horiz-adv-x="1136" d="M1046 1439v-157h-734l337 -721l-337 -721h734v-157h-996l402 878l-402 878h996z" />
<glyph unicode="&#x221a;" horiz-adv-x="1442" d="M789 383l464 1175h189l-649 -1683l-571 721l-82 -37l-90 112l334 189z" />
<glyph unicode="&#x221e;" horiz-adv-x="1137" d="M911 705q0 70 -34.5 108t-92 38t-97.5 -40t-52 -106q12 -67 52 -107t97.5 -40t92 38.5t34.5 108.5zM976.5 947.5q82.5 -89.5 82.5 -243t-82.5 -243t-191.5 -89.5t-254 139q-47 -59 -131 -59t-148 69t-64 183.5t64 184t148 69.5t131 -59q145 138 254 138t191.5 -89.5z M398 770q-62 0 -62 -65q0 -66 62 -66q31 0 53 22.5t28 43.5q-6 20 -28 42.5t-53 22.5z" />
<glyph unicode="&#x222b;" horiz-adv-x="585" d="M382 -28q-11 -281 -350 -281v152q163 0 170 129v1286q22 280 350 280l2 -140q-158 -5 -172 -141v-1285z" />
<glyph unicode="&#x2248;" horiz-adv-x="1142" d="M333 1016q106 0 259.5 -88.5t209.5 -88.5q3 0 4 1q41 12 55.5 48.5t14.5 113.5l184 -29q-6 -79 -24 -126q-47 -113 -163 -151q-31 -10 -66 -10q-106 0 -260 88t-209 88h-7q-38 -12 -56 -58q-12 -28 -12 -104l-182 30q4 78 22 125q47 112 164 151q30 10 66 10zM333 693 q106 0 259.5 -88.5t209.5 -88.5h4q41 12 55.5 48.5t14.5 114.5l184 -30q-6 -79 -24 -126q-47 -112 -163 -151q-31 -9 -66 -9q-106 0 -260 88t-209 88q-6 0 -7 -1q-38 -11 -56 -58q-12 -27 -12 -104l-182 30q4 79 22 125q47 112 164 152q30 10 66 10z" />
<glyph unicode="&#x2260;" horiz-adv-x="1138" d="M515 745h-430v157h572l149 165h213l-149 -165h183v-157h-325l-105 -115h426v-157h-568l-149 -165h-212l149 165h-180v157h322z" />
<glyph unicode="&#x2264;" horiz-adv-x="1180" d="M445 782l646 -299v-182l-1006 481l1006 481v-182zM127 0v157h968v-157h-968z" />
<glyph unicode="&#x2265;" horiz-adv-x="1180" d="M89 1081v182l1006 -481l-1006 -481v182l646 299zM85 0v157h968v-157h-968z" />
<glyph unicode="&#x25ca;" horiz-adv-x="1836" d="M1371 709l-452 -708l-454 709l454 708zM919 1249l-346 -540l346 -539l344 540z" />
<glyph unicode="&#xe000;" horiz-adv-x="915" d="M0 915h915v-915h-915v915z" />
</font>
</defs>
</svg>
