<?xml version="1.0" standalone="no"?>
<!DOCTYPE svg PUBLIC "-//W3C//DTD SVG 1.1//EN" "http://www.w3.org/Graphics/SVG/1.1/DTD/svg11.dtd" >
<svg xmlns="http://www.w3.org/2000/svg">
<metadata></metadata>
<defs>
<font id="LinuxBiolinumOItalic" horiz-adv-x="1296" >
<font-face units-per-em="2048" ascent="1638" descent="-410" />
<missing-glyph horiz-adv-x="512" />
<glyph unicode="&#x2e;&#x2e;&#x2e;" horiz-adv-x="1533" d="M130 90l1 8q24 41 54.5 67t80.5 44h8q41 -17 61.5 -42.5t25.5 -68.5l-2 -8q-26 -49 -57 -74t-77 -36h-8q-46 11 -65.5 35t-21.5 75zM673 90l1 8q24 41 54.5 67t79.5 44h9q41 -17 61.5 -42.5t25.5 -68.5l-2 -8q-26 -49 -57 -74t-77 -36h-8q-46 11 -65.5 35t-21.5 75z M1213 90l2 8q24 41 54.5 67t79.5 44h8q41 -17 61.5 -42.5t25.5 -68.5l-1 -8q-26 -49 -57.5 -74t-77.5 -36h-8q-46 11 -65.5 35t-21.5 75z" />
<glyph unicode="&#x21;&#x21;" horiz-adv-x="841" d="M896 1352q46 0 72 -39.5t11 -110.5q-16 -75 -66.5 -203.5t-71.5 -191.5q-33 -97 -58.5 -183.5t-38 -134t-15.5 -55.5q-12 -41 -37 -41t-23 27q0 3 20 147.5t31 239.5q8 71 12 193t21 202q16 75 59 112.5t84 37.5zM514 94l1 8q24 41 54.5 67t79.5 44h9q41 -17 61.5 -42.5 t25.5 -68.5l-2 -8q-26 -49 -57 -74t-77 -36h-8q-46 11 -65.5 35t-21.5 75zM518 1348q46 0 72 -39.5t11 -110.5q-16 -75 -66.5 -203.5t-71.5 -191.5q-33 -97 -58.5 -183.5t-38 -134t-15.5 -55.5q-12 -41 -37 -41t-23 27q0 4 20.5 148t31.5 239q8 72 11.5 194t20.5 201 q16 75 59 112.5t84 37.5zM136 90l2 8q24 41 54.5 67t79.5 44h8q41 -17 61.5 -42.5t25.5 -68.5l-2 -8q-26 -49 -57 -74t-77 -36h-8q-46 11 -65.5 35t-21.5 75z" />
<glyph unicode="&#x3f;&#x3f;" horiz-adv-x="1599" d="M1439 1268q-140 0 -293 -193l-26 2l-4 137l8 9q65 46 159.5 86.5t191.5 40.5q156 0 229 -85t43 -225q-10 -47 -33.5 -90t-48.5 -72t-67 -63t-66.5 -50.5t-70.5 -45.5q-99 -64 -128 -103q-52 -72 -68 -149l-20 -90q-5 -21 -31 -21q-12 0 -18 5.5t-4 15.5l20 94 q10 44 19 74t31 76.5t61.5 91.5t95.5 88q79 61 119 112t54 119q21 100 -22.5 168t-130.5 68zM1043 90l2 8q24 41 54.5 67t79.5 44h8q41 -17 61.5 -42.5t25.5 -68.5l-1 -8q-26 -49 -57.5 -74t-77.5 -36h-8q-46 11 -65.5 35t-21.5 75zM669 1268q-140 0 -293 -193l-26 2l-4 137 l8 9q65 46 159.5 86.5t191.5 40.5q156 0 229 -85t43 -225q-10 -47 -33.5 -90t-48.5 -72t-67 -63t-66.5 -50.5t-70.5 -45.5q-99 -64 -128 -103q-52 -72 -68 -149l-20 -90q-4 -21 -31 -21q-12 0 -18 5.5t-4 15.5l20 94q10 44 19 74t31 76.5t61.5 91.5t95.5 88q79 61 118.5 112 t53.5 119q21 100 -22 168t-130 68zM273 90l2 8q24 41 54.5 67t79.5 44h8q41 -17 61.5 -42.5t25.5 -68.5l-1 -8q-26 -49 -57.5 -74t-77.5 -36h-8q-46 11 -65.5 35t-21.5 75z" />
<glyph unicode="&#x3f;&#x21;" horiz-adv-x="1216" d="M1270 1352q46 0 72 -39.5t11 -110.5q-16 -76 -66.5 -205t-70.5 -190q-33 -97 -58.5 -183.5t-38 -134t-15.5 -55.5q-12 -41 -37 -41t-23 27q0 3 20 147.5t31 239.5q8 71 12 193t21 202q16 75 58.5 112.5t83.5 37.5zM888 94l2 8q24 41 54.5 67t79.5 44h8q41 -17 61.5 -42.5 t25.5 -68.5l-1 -8q-26 -49 -57 -74t-77 -36h-9q-46 11 -65.5 35t-21.5 75zM669 1268q-140 0 -293 -193l-26 2l-4 137l8 9q65 46 159.5 86.5t191.5 40.5q156 0 229 -85t43 -225q-10 -47 -33.5 -90t-48.5 -72t-67 -63t-66.5 -50.5t-70.5 -45.5q-99 -64 -128 -103 q-52 -72 -68 -149l-20 -90q-4 -21 -31 -21q-12 0 -18 5.5t-4 15.5l20 94q10 44 19 74t31 76.5t61.5 91.5t95.5 88q79 61 118.5 112t53.5 119q21 100 -22 168t-130 68zM273 90l2 8q24 41 54.5 67t79.5 44h8q41 -17 61.5 -42.5t25.5 -68.5l-1 -8q-26 -49 -57.5 -74t-77.5 -36 h-8q-46 11 -65.5 35t-21.5 75z" />
<glyph unicode="&#x21;&#x3f;" horiz-adv-x="1202" d="M518 1348q46 0 72 -39.5t11 -110.5q-16 -75 -66.5 -203.5t-71.5 -191.5q-33 -97 -58.5 -183.5t-38 -134t-15.5 -55.5q-12 -41 -37 -41t-23 27q0 4 20.5 148t31.5 239q8 72 11.5 194t20.5 201q16 75 59 112.5t84 37.5zM136 90l2 8q24 41 54.5 67t79.5 44h8 q41 -17 61.5 -42.5t25.5 -68.5l-2 -8q-26 -49 -57 -74t-77 -36h-8q-46 11 -65.5 35t-21.5 75zM1041 1264q-140 0 -293 -193l-26 2l-4 137l8 9q65 46 159 86.5t191 40.5q156 0 229.5 -85t43.5 -225q-10 -47 -33.5 -90t-48.5 -72t-67 -63t-66.5 -50.5t-70.5 -45.5 q-99 -64 -128 -103q-54 -74 -69 -149l-19 -90q-5 -21 -31 -21q-12 0 -18 5.5t-4 15.5l20 94q10 44 19 74t31 76.5t61.5 91.5t95.5 88q79 61 118.5 112t53.5 119q21 100 -22 168t-130 68zM645 86l2 8q24 41 54.5 67t79.5 44h8q41 -17 61.5 -42.5t25.5 -68.5l-2 -8 q-26 -49 -57 -74.5t-77 -36.5h-8q-46 11 -65.5 35.5t-21.5 75.5z" />
<glyph horiz-adv-x="0" />
<glyph horiz-adv-x="2048" />
<glyph unicode=" "  horiz-adv-x="512" />
<glyph unicode="&#x09;" horiz-adv-x="512" />
<glyph unicode="&#xa0;" horiz-adv-x="512" />
<glyph unicode="!" horiz-adv-x="466" d="M518 1348q46 0 72 -39.5t11 -110.5q-16 -75 -66.5 -203.5t-71.5 -191.5q-33 -97 -58.5 -183.5t-38 -134t-15.5 -55.5q-12 -41 -37 -41t-23 27q0 4 20.5 148t31.5 239q8 72 11.5 194t20.5 201q16 75 59 112.5t84 37.5zM136 90l2 8q24 41 54.5 67t79.5 44h8 q41 -17 61.5 -42.5t25.5 -68.5l-2 -8q-26 -49 -57 -74t-77 -36h-8q-46 11 -65.5 35t-21.5 75z" />
<glyph unicode="&#x22;" horiz-adv-x="688" d="M626 874q16 327 20 345q8 36 45.5 69t80.5 33q37 0 50.5 -20t7.5 -48q-3 -15 -40 -107.5t-72 -177.5l-35 -85zM368 872q16 327 20 345q8 36 45.5 69t80.5 33q37 0 50 -20t7 -48q-3 -15 -39.5 -107.5t-71.5 -177.5l-35 -85z" />
<glyph unicode="#" horiz-adv-x="901" d="M647 473l83 225h-225l-85 -225h227zM798 698l-85 -225h184l-35 -98h-182l-132 -348h-67l127 348h-223l-131 -348h-68l129 348h-184l35 98h186l83 225h-184l38 101h184l129 348h70l-132 -348h228l127 348h68l-130 -348h187l-38 -101h-184z" />
<glyph unicode="$" horiz-adv-x="901" d="M418 57l100 470q-60 27 -102.5 53.5t-82.5 67t-53.5 95t0.5 121.5q18 84 79.5 153.5t139 107.5t155.5 45l24 114h70l-24 -114q52 -3 94.5 -11.5t67 -19.5t42 -22t23.5 -18l6 -7l3 -7q-43 -81 -71 -170l-19 -2q-37 155 -162 181l-91 -424q25 -10 46 -19t45.5 -21.5 t44 -25.5t39.5 -30t34.5 -35t26.5 -41t17.5 -48t5.5 -55t-7 -63q-24 -116 -141 -215t-255 -128l-33 -155h-70l31 146h-14q-61 0 -114.5 8.5t-86.5 20t-57.5 23.5t-34.5 20l-11 9l-3 7q46 94 74 174l17 2q21 -84 87 -135t160 -52zM554 698l85 402q-82 -4 -141.5 -56.5 t-76.5 -132.5q-29 -132 133 -213zM581 499l-92 -434q79 17 138 68.5t77 134.5q5 36 7 63t-7 50.5t-18.5 39.5t-28 31.5t-35.5 25.5t-41 21z" />
<glyph unicode="%" horiz-adv-x="1304" d="M921 170q-16 -72 5.5 -103.5t57.5 -31.5q78 0 154.5 101.5t96.5 199.5q6 40 3.5 64.5t-17 38t-27 18t-25.5 4.5q-71 0 -149.5 -97.5t-98.5 -193.5zM821 201q26 120 127.5 221.5t211.5 101.5q34 0 60.5 -8t50.5 -29t29.5 -57t-3.5 -92q-11 -53 -41.5 -114.5t-74 -118 t-103 -93.5t-119.5 -37q-59 0 -96 34.5t-44 84.5t2 107zM972 1067q83 0 179.5 26.5t151.5 84.5l59 -33l-1089 -1170l-63 31l953 1024q-106 -39 -227 -39q-36 0 -83 13t-72 30q2 -22 -5 -51q-9 -40 -29.5 -87.5t-53 -96.5t-71 -88.5t-87.5 -64.5t-98 -25q-46 0 -78.5 20 t-46 52.5t-18 72t5.5 78.5q26 122 128.5 223.5t209.5 101.5q41 0 77.5 -15.5t48.5 -35.5q100 -51 208 -51zM399 815q-15 -71 6.5 -103t56.5 -32q53 0 108.5 51t92 119.5t49.5 130.5q15 68 -7 96.5t-58 28.5q-71 0 -149.5 -97.5t-98.5 -193.5z" />
<glyph unicode="&#x26;" horiz-adv-x="1443" d="M659 692q-167 -83 -240.5 -169t-98.5 -204q-13 -75 -5 -126t39.5 -81.5t72 -43.5t91.5 -13t91 11.5t82.5 43.5t70 58.5t83.5 86.5l6 6l5 5t5 6q-60 110 -126 248t-76 172zM769 842q111 64 182.5 135t83.5 127q15 69 -12 106t-90 37q-22 0 -49.5 -10.5t-57 -30.5 t-54 -57.5t-34.5 -85.5q-20 -92 31 -221zM968 393q137 154 209.5 269t108.5 223q19 -6 78 -6q68 0 90 6q-45 -56 -228.5 -294.5t-216.5 -277.5l49 -94q16 -32 34.5 -57.5t35.5 -41t32.5 -23t28.5 -7.5q52 0 94 26t85 85l29 -17q-37 -69 -81.5 -116t-85 -67.5t-77.5 -20.5 q-24 0 -39.5 1.5t-40.5 8.5t-43.5 21t-41 41t-42.5 65l-43 76q-100 -106 -196.5 -159.5t-219.5 -53.5q-68 0 -123.5 12.5t-101.5 39t-72.5 68.5t-36 102t8.5 138q24 112 134 213.5t334 214.5q-69 160 -40 291q10 47 40.5 93.5t76.5 86t112.5 64t140.5 24.5q109 0 171 -63.5 t42 -159.5q-12 -55 -66 -117.5t-133.5 -119.5t-177.5 -107q27 -93 172 -367z" />
<glyph unicode="'" horiz-adv-x="389" d="M347 872q16 327 20 345q8 36 45.5 69t80.5 33q37 0 50.5 -20t7.5 -48q-3 -15 -40 -107.5t-72 -177.5l-35 -85z" />
<glyph unicode="(" horiz-adv-x="614" d="M200 516q58 274 231 520.5t401 411.5l39 -37q-386 -353 -501 -895q-114 -541 120 -899l-55 -35q-71 76 -123 164t-79.5 166t-42 164t-16.5 149.5t3.5 130.5t10.5 98t12 62z" />
<glyph unicode=")" horiz-adv-x="614" d="M634 516q-58 -274 -231 -520.5t-401 -411.5l-39 37q386 353 501 895q114 541 -120 899l54 35q71 -76 123 -164t80 -166t42 -164t16.5 -149.5t-3 -130.5t-10.5 -98.5t-12 -61.5z" />
<glyph unicode="*" horiz-adv-x="886" d="M652 1161q-33 8 -84 8q-82 0 -120.5 16.5t-29.5 59.5q5 25 26 43.5t55 18.5q24 0 45.5 -11.5t36.5 -27t40.5 -35t51.5 -31.5q5 41 -3.5 102t-3.5 87q7 33 29.5 56t49.5 23q29 0 44 -18t8 -53q-6 -29 -39.5 -99.5t-41.5 -99.5q41 16 83.5 44.5t73.5 45.5t60 17 q36 0 48.5 -20.5t8.5 -41.5q-16 -76 -158 -76q-63 0 -114 -8q16 -24 44.5 -48t48.5 -39t32.5 -39t6.5 -52q-6 -26 -27.5 -42.5t-44.5 -16.5q-36 0 -52 33t-26.5 93.5t-21.5 86.5q-21 -27 -59 -90.5t-66.5 -93t-63.5 -29.5q-26 0 -39 16.5t-8 40.5q8 39 40.5 65.5t85.5 56.5 t84 58z" />
<glyph unicode="+" horiz-adv-x="1079" d="M704 526h352l-21 -100h-353l-75 -356h-105l76 356h-352l21 100h352l76 357h104z" />
<glyph unicode="," horiz-adv-x="450" d="M118 90l1 8q24 41 54.5 67t79.5 44h9q57 -23 81 -72.5t4 -142.5q-22 -102 -111 -174.5t-192 -91.5q-17 18 1 51q77 19 140 72t71 90q2 19 1 29.5t-11 16t-18 6.5t-20 1q-50 11 -69 29t-21 67z" />
<glyph unicode="-" horiz-adv-x="681" d="M662 457h-463q-12 0 -18.5 7.5t-6.5 18.5q0 27 26 62t44 35h469q20 0 20 -25q0 -23 -25 -60.5t-46 -37.5z" />
<glyph unicode="." horiz-adv-x="450" d="M130 90l1 8q24 41 54.5 67t80.5 44h8q41 -17 61.5 -42.5t25.5 -68.5l-2 -8q-26 -49 -57 -74t-77 -36h-8q-46 11 -65.5 35t-21.5 75z" />
<glyph unicode="/" horiz-adv-x="661" d="M881 1323l-792 -1444h-84l792 1444h84z" />
<glyph unicode="0" horiz-adv-x="909" d="M684 1169q-213 0 -326 -581q-31 -157 -31 -283q0 -246 134 -246q13 0 28 3.5t39 15.5t47 31.5t49 56t48 84.5q46 103 94 318t48 362q0 155 -50 207q-29 32 -80 32zM442 -20q-91 0 -153.5 52t-91 139.5t-28.5 204.5q0 110 21 216q28 147 84 272t125.5 208.5t147 130 t151.5 46.5q114 0 174 -71q98 -114 98 -331q0 -101 -22 -214q-26 -138 -73 -251.5t-101 -186t-115 -123t-115 -71.5t-102 -21z" />
<glyph unicode="1" horiz-adv-x="909" d="M713 387q-50 -259 -60 -387l-4 -6q-55 6 -94 6l-90 -6l-2 6q44 139 92 387l98 508q7 37 10 57.5t5 47t-3.5 39t-17.5 12.5q-20 0 -103.5 -14t-125.5 -19v59q89 27 246.5 90t216.5 82q5 0 7.5 -0.5t4 -2.5t0.5 -7q-35 -103 -80 -332z" />
<glyph unicode="2" horiz-adv-x="909" d="M884 154q-25 -68 -25 -164q-233 10 -341 10q-64 0 -121 -1.5t-129 -4.5t-122 -4q-11 26 -11 59q0 27 9 47q6 5 99.5 85.5t147 129t139 137t144.5 168.5q108 146 108 335q0 74 -48.5 122.5t-103.5 48.5q-98 0 -165 -55q-70 -59 -120 -147l-25 2l-24 141q25 29 55.5 56 t77.5 59t107.5 51.5t123.5 19.5q143 0 223 -80.5t80 -199.5q0 -42 -6 -80t-22.5 -76.5t-28 -62.5t-41 -64.5t-41.5 -56t-48 -60.5q-21 -26 -45.5 -53.5t-44.5 -49.5t-49 -50.5t-46 -45t-49.5 -46.5l-45.5 -42t-48.5 -43.5t-44.5 -39.5q-42 -40 -42 -59q0 -5 1 -7q54 4 160 4 q172 0 362 17z" />
<glyph unicode="3" horiz-adv-x="909" d="M892 424q0 -124 -75.5 -228.5t-186 -160t-222.5 -55.5q-177 0 -271 98l-4 6l70 154l28 2q24 -94 42 -122q34 -53 124 -58q14 -1 29 -1q46 0 105 24t106 81q36 44 62 109.5t26 139.5q0 88 -47 136q-62 65 -176 65q-57 0 -82 -4l16 90q41 -6 70 -6q83 0 142.5 39t90.5 105 q39 82 39 165q0 75 -36.5 120.5t-88.5 45.5q-84 0 -143.5 -42.5t-110.5 -131.5l-28 2l-19 131q54 47 141.5 84t190.5 37q124 0 195 -61.5t71 -157.5q0 -127 -86 -231.5t-190 -128.5v-11q97 -10 157.5 -73.5t60.5 -161.5z" />
<glyph unicode="4" horiz-adv-x="909" d="M621 303h-406q-57 0 -85 9.5t-24 31.5q7 33 41 80q101 134 323.5 404t340.5 401l8 8q35 -8 66 -8q16 0 43 4t35 4q2 0 2 -8q-39 -125 -70 -303l-100 -520h125q29 0 22 -33q-3 -19 -27 -44.5t-43 -25.5h-98q-29 -150 -47 -303q0 -2 -2.5 -4t-3.5 -2q-7 0 -35 3t-45 3 l-94 -6l-2 6q27 84 40.5 137.5t35.5 165.5zM766 1049l-524 -643h399z" />
<glyph unicode="5" horiz-adv-x="909" d="M391 -20q-56 0 -102 11t-81 32.5t-53.5 36.5t-43.5 40l73 164l29 2q4 -11 11.5 -35t11 -34t11 -29t12.5 -27.5t14 -23t17.5 -20.5t21.5 -14.5t27 -12t32.5 -6.5t40.5 -3q100 0 177 83t105 223q12 63 12 113q0 106 -47 161t-127 55q-62 0 -119 -16t-137 -47l-12 6l180 602 q132 -12 222 -12q161 0 325 20l13 -6l-58 -139q-98 -12 -209 -12q-115 0 -245 18l-113 -362q88 30 221 30q136 0 209.5 -81.5t73.5 -208.5q0 -44 -9 -87q-35 -182 -172 -301.5t-311 -119.5z" />
<glyph unicode="6" horiz-adv-x="909" d="M358 567q-15 -51 -25.5 -127.5t-10.5 -129.5q0 -74 17 -127t46 -79.5t59.5 -37.5t65.5 -11q78 0 140.5 70.5t92.5 228.5q10 45 10 96q0 39 -8 72t-27 63.5t-56 48t-89 17.5q-121 0 -215 -84zM1016 1194q-111 -11 -200.5 -45.5t-174.5 -106.5q-87 -74 -157.5 -181 t-110.5 -234q29 29 75.5 54t95 38.5t87.5 13.5q71 0 125.5 -19t85.5 -48.5t51 -69.5t26.5 -76.5t6.5 -76.5q0 -45 -6 -74q-9 -48 -29.5 -97t-57.5 -102.5t-85.5 -94t-119.5 -67t-153 -26.5q-42 0 -82 8.5t-82.5 32t-73.5 60.5t-51 99.5t-20 143.5q0 82 18 172 q30 152 110.5 292t207.5 250q120 104 242 153t278 58z" />
<glyph unicode="7" horiz-adv-x="909" d="M885 1075q-117 4 -287 0t-270 -18q22 67 28 100q1 3 6 86q96 -14 549 -14q67 0 129 20l29 -20q-54 -91 -103 -175.5t-97 -170t-82 -146t-80.5 -147t-68 -126.5t-69.5 -131.5t-60 -114.5t-63.5 -123t-58.5 -113l-145 -9l-4 13q248 400 647 1089z" />
<glyph unicode="8" horiz-adv-x="909" d="M621 745q31 20 61.5 47t63.5 65t53.5 86t20.5 97q0 63 -37 102.5t-113 39.5q-84 0 -133 -49t-64 -127q-6 -34 -6 -53q0 -93 100 -171zM961 993q-28 -145 -277 -297l104 -88q123 -104 123 -233q0 -28 -6 -58q-12 -60 -50.5 -118.5t-97 -107.5t-142.5 -79t-177 -30 q-140 0 -221 62.5t-81 180.5q0 38 7 74q12 62 55.5 127t112.5 119q109 86 166 125l-35 28q-124 101 -124 231q0 25 6 54q24 120 122.5 193t247.5 73q127 0 199 -57t72 -150q0 -26 -4 -49zM457 49q232 0 276 225q5 30 5 54q0 143 -126 227l-80 53q-68 -41 -115.5 -87 t-71 -90.5t-33 -71.5t-15.5 -60q-7 -35 -7 -68q0 -92 50 -137t117 -45z" />
<glyph unicode="9" horiz-adv-x="909" d="M823 662q16 52 26.5 128.5t10.5 128.5q0 74 -17 127t-46 79.5t-59.5 37.5t-65.5 11q-78 0 -141 -71t-93 -229q-10 -45 -10 -95q0 -39 8 -72t27 -63.5t56 -48t89 -17.5q121 0 215 84zM166 35q111 11 200.5 45.5t174.5 105.5q87 74 157.5 181.5t110.5 234.5 q-43 -44 -120 -75t-138 -31q-71 0 -125.5 19t-85.5 48.5t-51 69.5t-26.5 76.5t-6.5 76.5q0 46 6 74q9 48 29.5 97t57.5 102.5t85.5 94t119.5 67t153 26.5q42 0 82 -8.5t82.5 -32t73.5 -60.5t51 -99.5t20 -143.5q0 -77 -19 -172q-30 -153 -110.5 -293t-206.5 -250 q-120 -104 -242 -153t-278 -58z" />
<glyph unicode=":" horiz-adv-x="450" d="M280 729l2 8q24 41 54.5 67t79.5 44h8q41 -17 61.5 -42.5t25.5 -68.5l-2 -8q-26 -49 -57 -74.5t-77 -36.5h-8q-46 11 -65.5 35.5t-21.5 75.5zM165 190l2 9q24 41 54 66t80 44h8q42 -17 62 -42t25 -68l-1 -9q-26 -49 -57 -74t-77 -36h-8q-46 11 -66 35t-22 75z" />
<glyph unicode=";" horiz-adv-x="450" d="M259 729l2 8q24 41 54.5 67t79.5 44h8q41 -17 61.5 -42.5t25.5 -68.5l-1 -8q-26 -49 -57 -74.5t-77 -36.5h-8q-46 11 -66 35.5t-22 75.5zM118 90l1 8q24 41 54.5 67t79.5 44h9q57 -23 81 -72.5t4 -142.5q-22 -102 -111 -174.5t-192 -91.5q-17 18 1 51q77 19 140 72t71 90 q2 19 1 29.5t-11 16t-18 6.5t-20 1q-50 11 -69 29t-21 67z" />
<glyph unicode="&#x3c;" horiz-adv-x="997" d="M354 489l599 -237l-22 -102l-737 290l21 99l860 288l-22 -102z" />
<glyph unicode="=" horiz-adv-x="1079" d="M1083 651l-22 -100h-809l22 100h809zM1028 395l-21 -100h-809l21 100h809z" />
<glyph unicode="&#x3e;" horiz-adv-x="997" d="M852 483l-598 238l21 102l737 -291l-21 -98l-860 -289l22 103z" />
<glyph unicode="?" horiz-adv-x="829" d="M669 1268q-140 0 -293 -193l-26 2l-4 137l8 9q65 46 159.5 86.5t191.5 40.5q156 0 229 -85t43 -225q-10 -47 -33.5 -90t-48.5 -72t-67 -63t-66.5 -50.5t-70.5 -45.5q-99 -64 -128 -103q-52 -72 -68 -149l-20 -90q-4 -21 -31 -21q-12 0 -18 5.5t-4 15.5l20 94q10 44 19 74 t31 76.5t61.5 91.5t95.5 88q79 61 118.5 112t53.5 119q21 100 -22 168t-130 68zM273 90l2 8q24 41 54.5 67t79.5 44h8q41 -17 61.5 -42.5t25.5 -68.5l-1 -8q-26 -49 -57.5 -74t-77.5 -36h-8q-46 11 -65.5 35t-21.5 75z" />
<glyph unicode="@" horiz-adv-x="1832" d="M899 143q59 0 148.5 88t163 207.5t92.5 208.5q12 57 -18.5 93t-87.5 36q-35 0 -93 -20t-108 -62q-170 -139 -217 -362q-41 -189 120 -189zM1226 152q-3 -13 4.5 -19t13.5 -6q65 0 118.5 12.5t103 43t88 80t70 125t52.5 175.5q27 127 9 227.5t-66 175.5t-119 125 t-149.5 74.5t-157.5 24.5q-96 0 -193 -25t-194 -80.5t-178 -135.5t-144.5 -197t-93.5 -258q-15 -69 -19.5 -138.5t3 -144.5t29 -141.5t63.5 -127t101.5 -104t148 -69t198.5 -25.5q243 0 441 135l18 -37q-126 -83 -239.5 -124.5t-272.5 -41.5q-120 0 -223.5 27.5t-181 78 t-135.5 121.5t-86.5 158t-35 187t18.5 209q46 216 198 399t368 289t443 106q216 0 371 -88t219 -241.5t24 -343.5q-16 -74 -49 -144.5t-91.5 -140t-135 -121.5t-186.5 -84.5t-239 -32.5q-27 0 -42 14.5t-15.5 33t1.5 36.5q8 34 58 129l-3 2q-85 -106 -170.5 -158.5 t-146.5 -52.5q-58 0 -100 19t-62.5 46.5t-30.5 64t-9.5 66.5t6.5 58q22 106 87.5 205.5t149 168.5t177.5 111t175 42q52 0 92 -24.5t47 -63.5l20 49l115 26l28 -10l-235 -528q-52 -119 -56 -137z" />
<glyph unicode="A" d="M470 468q-195 -315 -271 -474q-23 6 -90 6q-47 0 -73 -6q539 806 892 1354h57q35 -167 95 -483.5t106.5 -548t71.5 -322.5q-34 6 -121 6q-68 0 -104 -6q-12 182 -59 474q-115 3 -239 3q-148 0 -265 -3zM958 564q-46 261 -100 505h-4q-33 -51 -97.5 -151.5t-121 -188 t-104.5 -164.5q19 0 99 -2t114 -2q112 0 214 3z" />
<glyph unicode="B" horiz-adv-x="1212" d="M630 1145l-81 -385h147q273 0 308 225q6 53 5 92t-15 67t-31.5 46t-44 28.5t-52 14.5t-56.5 4q-78 0 -115 -10t-46 -23.5t-17 -51.5q-1 -2 -1.5 -3.5t-0.5 -3.5zM529 670l-104 -490q-11 -52 27.5 -74t144.5 -22q84 0 146 13t100.5 33.5t64 55t37 69.5t18.5 83 q13 70 5 130.5t-33 105.5t-82.5 70.5t-144.5 25.5h-179zM580 1321q48 0 124 3t110 3q79 0 141 -10.5t102.5 -27.5t68.5 -43.5t41.5 -52t19.5 -60t5 -61.5t-5 -62q-11 -93 -90 -167t-178 -106l5 -10q283 -86 250 -350q-8 -63 -29.5 -116.5t-65 -104t-104.5 -85.5t-152.5 -56 t-205.5 -21q-98 0 -180.5 3t-137.5 3q-32 0 -59 -1.5t-38 -2.5l-11 -2l-1 6q50 138 108 410l107 501q56 260 66 410l6 6q33 -6 103 -6z" />
<glyph unicode="C" horiz-adv-x="1331" d="M1014 1348q70 0 137.5 -9.5t114 -23t83 -27.5t53.5 -24l18 -9l3 -6q-10 -23 -28 -61t-24 -53.5t-17 -45.5t-21 -67l-25 -2q-35 123 -118.5 177t-225.5 54q-53 0 -111.5 -18.5t-123 -62t-120.5 -106.5t-104 -161.5t-73 -218.5q-19 -92 -21 -177.5t17 -163t58 -134.5 t108 -91t161 -34q144 0 244 42t233 161l45 -39q-262 -268 -562 -268q-92 0 -170 20t-134.5 55.5t-99.5 85.5t-68.5 109t-37.5 125.5t-9.5 136.5t17.5 141q31 147 112.5 278t190.5 221.5t239 143t259 52.5z" />
<glyph unicode="D" horiz-adv-x="1396" d="M419 168q-11 -32 -1 -50.5t51.5 -25t142.5 -6.5q93 0 166.5 11.5t146.5 44t127.5 87t98.5 143.5t70 210q15 71 21.5 136t2.5 131.5t-20 122.5t-49.5 106t-82 84.5t-122 54.5t-165.5 20q-84 0 -125.5 -16t-51.5 -66zM576 1321q64 0 163.5 3t163.5 3q116 0 215 -36 t168 -99.5t115 -151t55 -191t-13 -218.5q-22 -105 -62 -193.5t-90 -153t-111.5 -115t-125 -82.5t-134 -53t-134.5 -29.5t-129 -8.5q-114 0 -207 2t-155 2q-32 0 -59 -1.5t-38 -2.5l-11 -2l-1 6q50 138 108 410l107 501q56 260 66 410l5 6q34 -6 104 -6z" />
<glyph unicode="E" horiz-adv-x="1069" d="M997 758q-25 -56 -25 -115l-7 -6q-197 20 -453 20l-52 -247q-51 -254 -47 -299q122 0 267.5 6t229.5 12l85 6l3 -8q-15 -40 -27 -127l-6 -6q-48 6 -121 6h-559q-32 0 -59 -1.5t-38 -2.5l-11 -2l-1 6q50 138 108 410l106 501q57 267 67 410l5 6q33 -6 103 -6h539 q73 0 124 6l3 -6q-23 -83 -25 -117l-6 -8q-278 25 -551 25q-16 -31 -44 -143.5t-39 -166.5l-35 -168q203 0 461 21z" />
<glyph unicode="F" horiz-adv-x="976" d="M1001 758q-25 -56 -25 -115l-7 -6q-197 20 -452 20l-53 -247q-57 -267 -67 -410l-5 -6q-33 6 -103 6q-32 0 -59 -1.5t-38 -2.5l-11 -2l-1 6q50 138 108 410l106 501q57 267 67 410l5 6q34 -6 104 -6h532q79 0 130 6l3 -6q-23 -83 -25 -117l-6 -8q-278 25 -551 25 q-16 -31 -43.5 -142t-38.5 -168l-36 -168q203 0 461 21z" />
<glyph unicode="G" horiz-adv-x="1394" d="M1128 240q55 280 62 389l6 6q33 -6 103 -6q32 0 59 1.5t38 3.5l11 1l1 -6q-40 -108 -98 -361q-16 -72 0 -98l-1 -6q-130 -93 -261.5 -138.5t-302.5 -45.5q-87 0 -163 18.5t-134.5 52.5t-105.5 81t-77 105t-46 124.5t-15.5 139t16.5 148.5q47 220 169.5 380t291 239.5 t365.5 79.5q70 0 137.5 -9.5t114 -23t83.5 -27.5t55 -24l17 -9l3 -6q-10 -23 -28 -61t-24 -53.5t-17 -45.5t-21 -67l-21 -2q-36 125 -112 178t-215 53q-210 0 -366.5 -148t-212.5 -413q-15 -70 -17.5 -140t7 -139.5t38.5 -130t73 -107t114 -73t158 -26.5q95 0 167 16t130 62 z" />
<glyph unicode="H" horiz-adv-x="1413" d="M1220 911q56 260 66 410l6 6q33 -6 103 -6q32 0 59 1.5t38 3.5l11 1v-6q-46 -125 -107 -410l-107 -501q-56 -260 -66 -410l-6 -6q-33 6 -103 6q-32 0 -59 -1.5t-38 -2.5l-11 -2v6q47 131 107 410l53 247h-639l-53 -247q-56 -260 -66 -410l-6 -6q-33 6 -103 6 q-32 0 -59 -1.5t-38 -2.5l-11 -2l-1 6q50 138 108 410l107 501q56 260 66 410l6 6q33 -6 103 -6q32 0 59 1.5t38 3.5l11 1v-6q-46 -125 -107 -410l-36 -168h639z" />
<glyph unicode="I" horiz-adv-x="600" d="M411 911q56 260 66 410l6 6q33 -6 103 -6q32 0 59 1.5t38 3.5l11 1v-6q-46 -125 -107 -410l-107 -501q-56 -260 -66 -410l-6 -6q-33 6 -103 6q-32 0 -59 -1.5t-38 -2.5l-11 -2v6q47 131 107 410z" />
<glyph unicode="J" horiz-adv-x="636" d="M325 195l139 716q53 272 60 410l5 6q33 -6 103 -6q32 0 59 1.5t38 3.5l11 1l1 -6q-47 -139 -100 -410l-131 -671q-34 -174 -72.5 -252t-141.5 -185q-151 -155 -355 -155q-63 0 -88 18l-1 6q33 43 90 168l23 2q26 -71 105 -71q39 0 72.5 18t58.5 53t44 72.5t34.5 91.5 t25 94.5t20.5 94.5z" />
<glyph unicode="K" horiz-adv-x="1243" d="M411 911q56 260 66 410l6 6q33 -6 103 -6q32 0 59 1.5t38 3.5l11 1v-6q-46 -125 -107 -410l-44 -206h4q29 0 53 18l82 62q87 68 183 160t206 203t184 179q25 -6 99 -6q72 0 106 6q-229 -169 -694 -602v-4l451 -727q-38 6 -125 6q-93 0 -129 -6q-53 89 -139.5 245.5 t-150.5 270t-93 149.5q-15 15 -42 15h-2l-56 -264q-56 -260 -66 -410l-6 -6q-33 6 -103 6q-32 0 -59 -1.5t-38 -2.5l-11 -2v6q47 131 107 410z" />
<glyph unicode="L" horiz-adv-x="1036" d="M474 410q-51 -254 -47 -299q122 0 257.5 11t209.5 23l75 11l2 -9q-6 -16 -10.5 -35t-6 -31.5t-5 -40t-5.5 -40.5l-5 -6q-48 6 -122 6h-518q-31 0 -58 -1.5t-39 -2.5l-11 -2l-1 6q50 138 108 410l107 501q53 246 64 410l6 6q35 -6 105 -6q32 0 59 1.5t38 3.5l11 1v-6 q-46 -125 -107 -410z" />
<glyph unicode="M" horiz-adv-x="1705" d="M581 1356h53q20 -75 115 -460.5t164 -595.5l753 1056h46q-14 -143 -45.5 -444t-51 -509.5t-33.5 -408.5q-29 6 -101 6q-70 0 -102 -6q90 693 114 964q-259 -343 -659 -958h-39q-23 90 -74 293t-92 359.5t-84 302.5q-10 -32 -45.5 -139.5t-51.5 -157t-47.5 -146 t-49.5 -155t-40 -133t-37 -130.5t-25 -100q-21 6 -67 6q-55 0 -79 -6q329 890 478 1362z" />
<glyph unicode="N" horiz-adv-x="1331" d="M401 911q52 247 66 410l5 6q35 -6 63 -6l50 4l447 -909q47 -96 71 -95q16 0 25 44l96 444q78 361 136 512l5 6q21 -6 71 -6q20 0 38.5 1.5t26.5 3.5l8 1l1 -6q-117 -230 -178 -512l-164 -766q-13 -63 -56 -63q-53 0 -78 49l-461 903q-4 7 -10 20q-25 48 -30 49 q-6 0 -17 -53q-6 -30 -10 -49l-91 -428q-70 -329 -120 -471l-5 -6q-21 6 -71 6q-20 0 -38.5 -1.5t-26.5 -2.5l-8 -2l-1 6q101 193 161 471z" />
<glyph unicode="O" horiz-adv-x="1415" d="M943 1257q-163 0 -290 -131q-90 -93 -163 -277.5t-73 -376.5q0 -194 94 -298t249 -104q200 0 335 182q76 102 132.5 284t56.5 354q0 367 -341 367zM1186 160q-202 -180 -486 -180q-227 0 -362.5 129.5t-135.5 354.5q0 220 93.5 403.5t241.5 307.5q207 173 452 173 q233 0 368 -133.5t135 -362.5q0 -210 -91 -396t-215 -296z" />
<glyph unicode="P" horiz-adv-x="1069" d="M637 1176l-114 -529q34 -20 137 -20q314 0 365 311q15 78 8.5 135t-22 94t-46.5 59t-65.5 31t-79.5 9q-71 0 -110 -11t-52.5 -28.5t-20.5 -50.5zM405 911q56 260 66 410l6 6q33 -6 103 -6q32 0 138 7t131 7q78 0 141 -14t104 -36t70 -53.5t44 -63.5t21.5 -68.5t6.5 -66 t-5 -58.5q-8 -55 -34 -111.5t-74.5 -113.5t-112.5 -100.5t-157 -71t-200 -27.5q-87 0 -147 20l-32 -161q-57 -286 -66 -410l-6 -6q-33 6 -103 6q-32 0 -59 -1.5t-38 -2.5l-11 -2l-1 6q50 138 108 410z" />
<glyph unicode="Q" horiz-adv-x="1435" d="M943 1257q-163 0 -290 -131q-90 -93 -163 -277.5t-73 -376.5q0 -194 94 -298t249 -104q200 0 335 182q76 102 132.5 284t56.5 354q0 367 -341 367zM1109 101q11 -7 105 -71.5t175.5 -109t174.5 -78.5l-3 -12q-152 -72 -217 -117q-90 58 -186.5 143.5t-221.5 159.5 q-111 -36 -236 -36q-227 0 -362.5 129.5t-135.5 354.5q0 220 93.5 403.5t241.5 307.5q207 173 452 173q233 0 368 -133.5t135 -362.5q0 -210 -91 -396t-215 -296q-36 -32 -77 -59z" />
<glyph unicode="R" horiz-adv-x="1185" d="M814 1255q-70 0 -108 -11t-51 -28.5t-20 -50.5l-98 -459h88q123 0 194.5 16.5t118.5 65.5q49 51 68.5 99t19.5 158q0 108 -61 159t-151 51zM518 615l-44 -205q-57 -272 -66 -410l-6 -6q-33 6 -103 6q-32 0 -59 -1.5t-38 -2.5l-11 -2l-1 6q50 138 108 410l107 501 q56 260 66 410l6 6q33 -6 103 -6q32 0 128.5 7t120.5 7q63 0 118.5 -9t106.5 -31t87.5 -55t58 -84t21.5 -115q0 -78 -28 -135.5t-79 -117.5q-109 -127 -342 -164q55 -74 142 -215q70 -113 161 -235.5t142 -173.5l-6 -6q-40 6 -105 6q-103 0 -143 -6q-83 145 -211 351 q-131 213 -181 270h-53z" />
<glyph unicode="S" horiz-adv-x="993" d="M483 68q55 0 117 24.5t118.5 81.5t72.5 135q8 38 9 70t-4 56.5t-17 45.5t-25.5 36t-35 29t-41 24t-47.5 22q-29 12 -52 22.5t-51 24.5t-50 28t-46 31t-41 35.5t-34 40t-27 45.5t-16 51t-5 58t8 65q19 88 70 158.5t118.5 112t140 63t141.5 21.5q70 0 127 -9.5t88.5 -23 t53 -27.5t28.5 -24l7 -9l3 -6q-51 -97 -83 -196l-21 -2q-24 104 -79.5 159.5t-159.5 55.5q-82 0 -163.5 -63.5t-101.5 -153.5q-37 -174 215 -273q29 -11 53.5 -21.5t52.5 -25.5t50 -30t45 -34.5t39 -41t29 -48t19.5 -55.5t6 -64.5t-8.5 -74.5q-38 -179 -196.5 -290 t-343.5 -111q-70 0 -132 9.5t-100.5 23t-66.5 27t-40 22.5l-12 10l-3 6q59 125 84 201l21 2q23 -96 100 -154.5t186 -58.5z" />
<glyph unicode="T" horiz-adv-x="1105" d="M659 911q49 244 45 289q-122 0 -226.5 -6t-148.5 -12l-44 -6l-3 8q18 50 30 137l5 6q48 -6 121 -6h791q73 0 124 6l3 -6q-26 -93 -29 -137l-6 -8q-135 24 -408 24q-16 -31 -41.5 -133.5t-36.5 -155.5l-107 -501q-56 -260 -66 -410l-6 -6q-33 6 -103 6q-32 0 -59 -1.5 t-38 -2.5l-11 -2l-1 6q50 138 108 410z" />
<glyph unicode="U" horiz-adv-x="1333" d="M1240 911q57 267 67 410l5 6q21 -6 71 -6q20 0 38.5 1.5t26.5 3.5l8 1v-6q-46 -125 -107 -410l-66 -307q-20 -96 -46 -173.5t-63 -150t-87.5 -126t-115 -93.5t-150 -60.5t-188.5 -20.5q-42 0 -82 6t-84 20.5t-78.5 39.5t-65.5 63.5t-45 91t-17 123t18 159.5l91 428 q56 260 66 410l6 6q33 -6 103 -6q32 0 59 1.5t38 3.5l11 1l1 -6q-48 -132 -108 -410l-77 -360q-31 -142 -29 -218q6 -249 258 -249q72 0 132.5 15.5t103.5 39.5t78.5 63.5t58 77.5t42.5 92t31 95.5t23 99.5z" />
<glyph unicode="V" horiz-adv-x="1230" d="M721 271q150 232 309.5 527t271.5 529q23 -6 101 -6q47 0 73 6q-164 -245 -432.5 -696.5t-396.5 -650.5h-57q-33 161 -95 480.5t-108 547.5t-72 319q34 -6 121 -6q78 0 114 6q31 -438 167 -1056h4z" />
<glyph unicode="W" horiz-adv-x="1849" d="M1360 281q77 120 155 257t163.5 307t120.5 242t115 240q23 -6 101 -6q53 0 79 6q-161 -241 -417.5 -690t-390.5 -657h-57q-41 196 -130 704l-448 -704h-57q-33 161 -95 480.5t-108 547.5t-72 319q34 -6 122 -6q73 0 109 6q32 -454 169 -1075h4q83 129 350 577 q-71 399 -99 498q34 -6 122 -6q84 0 120 6q0 -6 2.5 -59t5.5 -106t13 -150.5t23.5 -198.5t38.5 -242.5t57 -289.5h4z" />
<glyph unicode="X" horiz-adv-x="1169" d="M1133 -6q-36 6 -117 6q-82 0 -120 -6q-101 329 -200 585q-273 -313 -478 -585q-21 6 -85 6q-63 0 -87 -6q307 346 611 683q-100 250 -277 650q34 -6 114 -6t118 6q39 -146 182 -499q161 178 236 267.5t182 231.5q21 -6 85 -6q63 0 87 6q-33 -36 -130.5 -139t-207.5 -221 t-214 -234q16 -39 121 -296.5t180 -442.5z" />
<glyph unicode="Y" horiz-adv-x="1210" d="M809 585q-96 -473 -110 -591q-32 6 -105 6q-72 0 -106 -6q40 126 135 569q-44 117 -157 398t-151 366q34 -6 115 -6q82 0 118 6q22 -76 52 -162t52.5 -147.5t61 -162.5t59.5 -158q301 354 492 630q23 -6 85 -6q59 0 87 6q-79 -92 -212.5 -244.5t-186.5 -214.5t-120 -143 t-109 -140z" />
<glyph unicode="Z" horiz-adv-x="1236" d="M407 111q119 0 314.5 5.5t331.5 11.5l136 5l3 -6q-15 -40 -27 -127l-5 -6q-48 6 -144 6h-744l-216 -6l-4 8q16 16 39.5 43t29.5 33l991 1108q6 7 7.5 12.5t-1 8.5t-7.5 3q-113 0 -224.5 -3.5t-263.5 -9.5t-248 -9l-2 6q15 40 27 127l5 6q48 -6 124 -6h663q49 0 142.5 4 t118.5 8q12 0 9 -12q-5 -22 -75 -100q-7 -7 -10 -11l-952 -1063q-14 -15 -18 -36z" />
<glyph unicode="[" horiz-adv-x="739" d="M142 -393l389 1833h441l-13 -62q-75 -5 -122.5 -11t-86 -18.5t-59 -25.5t-37.5 -40.5t-25.5 -55.5t-19.5 -78l-266 -1251q-11 -50 -14.5 -78t1.5 -55.5t20 -41t48 -26t78.5 -19t118.5 -12.5l-13 -59h-440z" />
<glyph unicode="\" horiz-adv-x="598" d="M427 1430l146 -1528h-100l-147 1528h101z" />
<glyph unicode="]" horiz-adv-x="739" d="M820 1440l-390 -1833h-440l13 61q75 5 122.5 11t86 18.5t59 26t37.5 41t25.5 55.5t19.5 78l266 1251q11 50 14.5 78t-1.5 55.5t-20 40.5t-48.5 26t-78.5 19t-118 12l13 60h440z" />
<glyph unicode="^" horiz-adv-x="1060" d="M788 1214l-316 -505h-92l393 622h86l125 -622h-92z" />
<glyph unicode="_" horiz-adv-x="995" d="M939 -225l-19 -90h-977l19 90h977z" />
<glyph unicode="`" horiz-adv-x="802" d="M669 1432l88 -258q10 -28 2 -50t-35 -22q-17 0 -51 41l-186 223l9 23q74 47 143 47q14 0 30 -4z" />
<glyph unicode="a" horiz-adv-x="970" d="M723 449q23 58 41 143t24 140l7 56q-54 21 -127 21q-89 0 -178.5 -89t-144 -214.5t-54.5 -233.5q0 -89 22.5 -131.5t73.5 -42.5t157 108.5t179 242.5zM836 283q-17 -73 -17 -131q0 -33 16.5 -49.5t43.5 -16.5q45 0 98 14l4 -6v-53q-35 -18 -54 -27.5t-61 -21.5t-80 -12 q-52 0 -89.5 26.5t-37.5 81.5q0 35 15 96l26 107l-4 4q-44 -66 -72 -104t-67 -84t-70.5 -70t-72 -40.5t-82.5 -16.5q-50 0 -88 16.5t-60.5 42t-36.5 61t-19 69t-5 71.5q0 93 37 191t96.5 178.5t130.5 145.5t144 101.5t131 36.5q108 0 163 -6q22 -4 86 1t70 5z" />
<glyph unicode="b" horiz-adv-x="1005" d="M357 166q25 -42 62 -69t81 -27q152 0 255 141.5t103 347.5q0 104 -49 166.5t-127 62.5q-109 0 -211 -86zM539 1024l-50 -238q67 59 126.5 86t130.5 27q121 0 207.5 -84.5t86.5 -223.5q0 -90 -26 -175t-69 -150.5t-99 -120.5t-117 -90.5t-122 -55t-114 -19.5 q-115 0 -203 92q-39 -59 -99 -95q-38 0 -61 23q2 4 11 19t11.5 20t9 18.5t10 24t8.5 27.5t9 36l179 842q61 290 65 397l5 7q101 7 190 39q18 0 13 -21q-57 -171 -102 -385z" />
<glyph unicode="c" horiz-adv-x="808" d="M643 817q-113 0 -202 -137q-42 -66 -72 -162.5t-30 -191.5q0 -115 51 -179.5t134 -64.5q114 0 217 86h7l26 -43q-71 -77 -143.5 -111t-157.5 -34q-142 0 -229 91t-87 247q0 243 168 418q74 77 164.5 120t174.5 43q68 0 130.5 -16t100.5 -41l4 -6l-80 -168l-22 -2 q-47 151 -154 151z" />
<glyph unicode="d" horiz-adv-x="1011" d="M749 236l95 450q-27 64 -64 94.5t-105 30.5q-134 0 -222 -113q-45 -58 -82 -169.5t-37 -216.5q0 -112 48.5 -167t131.5 -55q89 0 235 146zM726 131q-149 -151 -288 -151q-124 0 -206 91.5t-82 236.5t62.5 263.5t162.5 201.5q153 126 342 126q34 0 84 -13t79 -32l28 133 q62 295 66 397l5 7q92 7 183 39q18 0 14 -21q-45 -143 -96 -385l-134 -631q-51 -239 -51 -342q0 -23 4 -51l-5 -6q-39 6 -90 6q-12 0 -68 -6q-6 0 -10 1.5t-3 4.5q2 78 9 131h-6z" />
<glyph unicode="e" horiz-adv-x="874" d="M756 745q0 80 -102 80q-214 0 -299 -329q401 17 401 249zM345 425q0 -4 -2 -23t-3 -36.5t-1 -25.5q0 -129 48.5 -195.5t122.5 -66.5q73 0 163.5 59.5t134.5 136.5l12 -2q1 -8 4.5 -32t7 -43t8.5 -29q-62 -86 -170.5 -137t-235.5 -51q-125 0 -200.5 90.5t-75.5 221.5 q0 79 21 162.5t66 163t108 142t153.5 101t194.5 38.5q108 0 158 -43t50 -114q0 -21 -3 -41.5t-16.5 -52t-36 -58t-65.5 -56t-100 -51t-145.5 -37.5t-197.5 -21z" />
<glyph unicode="f" horiz-adv-x="651" d="M301 483l65 305h-143q-11 0 -8 13l8 37q3 15 17 28t39 13h106l22 82q29 110 65.5 171t113.5 142q71 75 161.5 115.5t187.5 40.5q26 0 56.5 -10t43.5 -19l1 -6q-35 -44 -89 -158l-23 -2q-11 31 -44 51.5t-76 20.5q-83 0 -137.5 -59.5t-73.5 -151.5q-4 -17 -14.5 -81 t-18.5 -104l-7 -32h230q16 0 13 -13l-10 -51q-3 -12 -20 -19.5t-33 -7.5h-199l-144 -651q-29 -133 -88.5 -257t-122.5 -197q-134 -156 -309 -156q-24 0 -53 10t-41 19v6q37 51 83 157l21 2q10 -33 37.5 -55t65.5 -22q60 0 102.5 56.5t78.5 160.5q17 49 38.5 144.5t52 248.5 t46.5 229z" />
<glyph unicode="g" horiz-adv-x="937" d="M305 -10q-8 -6 -26 -18.5t-27 -19t-21 -17.5t-20 -21q-59 -72 -59 -162q0 -40 23.5 -71t58.5 -47.5t68 -24.5t60 -8q261 0 357 59q49 30 49 92q0 30 -16.5 66.5t-51.5 60.5q-102 68 -356 109q-6 1 -19.5 1t-19.5 1zM565 283q-47 0 -99 13t-73 34q-98 -74 -98 -127 q0 -62 129 -92q18 -4 85.5 -18.5t95.5 -22t76.5 -21t80.5 -27.5t55 -30q48 -33 67 -85.5t19 -101.5q0 -144 -135 -219q-76 -41 -206.5 -57t-246.5 -16q-81 0 -151 20t-116 62t-46 98q0 123 80 215q39 45 143 104q-28 17 -45.5 53.5t-17.5 77.5q0 67 50.5 124t125.5 95 q-39 35 -64.5 94.5t-25.5 125.5q0 143 106.5 230t251.5 87q34 0 95 -8t77 -8q59 0 96 24.5t37 75.5q0 28 -22 53l2 8q59 15 98 48l8 -2q33 -49 33 -119q0 -57 -40 -97t-105 -40q-27 0 -43 2l-6 -5q39 -39 65.5 -95.5t26.5 -112.5q0 -107 -53.5 -186t-134.5 -116.5 t-175 -37.5zM768 610q0 95 -47 152t-129 57q-87 0 -135.5 -67t-48.5 -162q0 -93 46 -160.5t130 -67.5q71 0 127.5 66.5t56.5 181.5z" />
<glyph unicode="h" horiz-adv-x="1052" d="M799 369l46 215q13 63 14 101t-13.5 60t-40 29.5t-71.5 7.5q-93 0 -278 -149l-56 -264q-50 -237 -58 -369l-5 -6q-27 6 -97 6q-32 0 -57.5 -1.5t-34.5 -2.5l-10 -2l-1 6q50 133 99 369l131 616q62 295 66 399l5 7q92 7 183 39q19 0 14 -21q-53 -178 -96 -383l-61 -289 q196 162 373 162q225 0 157 -317l-45 -213q-50 -237 -58 -369l-5 -6q-27 6 -97 6q-32 0 -57.5 -1.5t-35.5 -2.5l-9 -2l-1 6q50 133 99 369z" />
<glyph unicode="i" horiz-adv-x="548" d="M295 481q55 259 58 371l5 6q93 7 189 41q19 0 15 -20q-49 -146 -96 -365l-31 -145q-48 -229 -58 -369l-5 -6q-28 6 -98 6q-32 0 -57 -1.5t-35 -2.5l-9 -2l-1 6q49 136 99 369zM422 1229q0 41 31.5 72.5t72.5 31.5t73 -31.5t32 -72.5t-32 -73t-73 -32t-72.5 32t-31.5 73z " />
<glyph unicode="j" horiz-adv-x="577" d="M208 -129q2 8 8 44.5t20 110t35 171.5l61 284q53 250 56 361l5 6q24 2 45.5 5.5t43.5 10t34.5 10.5t37 13t32.5 12q18 0 14 -20q-50 -145 -97 -365l-111 -518q-24 -111 -51.5 -166t-93.5 -125q-135 -141 -303 -141q-58 0 -82 16l-1 6q16 21 36 77.5t29 74.5l21 2 q7 -20 10 -27t11.5 -19t21.5 -16t33 -4q142 0 185 197zM449 1229q0 41 31.5 72.5t72.5 31.5t72.5 -31.5t31.5 -72.5t-31.5 -73t-72.5 -32t-72.5 32t-31.5 73z" />
<glyph unicode="k" horiz-adv-x="946" d="M426 492q54 6 86 30q64 44 170 150t192 207q158 0 195 6l2 -6q-66 -50 -148 -124t-176.5 -163t-111.5 -105q158 -281 297 -487l-4 -6q-24 6 -113 6q-81 0 -127 -6q-27 58 -57 128t-45.5 105.5t-42 83.5t-60.5 97q-16 19 -70 22l-13 -61q-50 -235 -58 -369l-5 -6 q-27 6 -97 6q-32 0 -57.5 -1.5t-34.5 -2.5l-10 -2l-1 6q50 133 99 369l131 616q62 295 66 399l5 7q92 7 183 39q19 0 14 -21q-51 -171 -96 -383z" />
<glyph unicode="l" horiz-adv-x="534" d="M360 168q0 -29 8 -47t19.5 -26.5t32.5 -9.5t40.5 2t49.5 8q18 3 27 5l4 -6v-53q-37 -22 -104 -41.5t-124 -19.5q-61 0 -94 38t-33 107q0 19 41 219l133 643q64 312 66 397l6 7q93 7 182 39q18 0 15 -21q-50 -159 -97 -385l-147 -700q-25 -117 -25 -156z" />
<glyph unicode="m" horiz-adv-x="1540" d="M938 369q-50 -236 -59 -369l-5 -6q-37 6 -98 6q-28 0 -53 -1.5t-36 -2.5l-11 -2v6q40 109 96 369l43 200q24 125 4.5 166t-92.5 41q-111 0 -276 -168l-52 -239q-50 -236 -59 -369l-6 -6q-33 6 -96 6q-28 0 -53 -1.5t-37 -2.5l-11 -2l-2 6q49 138 98 369l23 112 q50 233 29 365l4 6q82 8 168 43q10 0 13.5 -3.5t2.5 -17.5q5 -65 -4 -153l4 -6q179 184 334 184q172 0 192 -158q103 88 180 123t161 35q64 0 106 -17.5t61.5 -44t24 -72t-1 -87.5t-18.5 -105l-43 -204q-50 -237 -58 -369l-5 -6q-27 6 -97 6q-32 0 -57.5 -1.5t-35.5 -2.5 l-9 -2l-1 6q50 133 99 369l49 229q22 102 -3.5 142t-109.5 40q-57 0 -106.5 -27.5t-135.5 -103.5q-4 -43 -14.5 -90.5t-25 -103t-21.5 -86.5zM996 739l-1 3q0 -1 -1 -5z" />
<glyph unicode="n" horiz-adv-x="1032" d="M965 369q-51 -243 -60 -369l-4 -6q-37 6 -98 6q-28 0 -53.5 -1.5t-36.5 -2.5l-11 -2v6q43 116 97 369l43 200q24 125 4.5 166t-92.5 41q-56 0 -137.5 -41.5t-165.5 -126.5l-52 -239q-50 -236 -59 -369l-6 -6q-33 6 -96 6q-28 0 -53 -1.5t-37 -2.5l-11 -2l-2 6 q49 138 98 369l23 112q50 233 29 365l4 6q82 8 168 43q10 0 13.5 -3.5t2.5 -17.5q5 -65 -4 -153l4 -6q69 71 144.5 115t125 56.5t91.5 12.5q248 0 180 -324q-7 -33 -24.5 -103t-24.5 -103z" />
<glyph unicode="o" horiz-adv-x="1003" d="M299 709q75 86 178 138t220 52q91 0 158.5 -27.5t106 -76t56.5 -106.5t18 -127q0 -140 -68 -276t-180 -218q-121 -88 -291 -88q-166 0 -255.5 96t-89.5 243q0 221 147 390zM669 815q-92 0 -168.5 -72t-117.5 -183.5t-41 -231.5q0 -265 192 -265q115 0 200 107 q55 70 87 165t32 244q0 236 -184 236z" />
<glyph unicode="p" horiz-adv-x="1036" d="M449 616l-98 -458q57 -88 151 -88q176 0 270 159q87 149 87 330q0 110 -45 171t-121 61q-55 0 -125 -48t-119 -127zM256 481q34 155 34 269q0 55 -7 96l4 6q82 8 168 43q10 0 13 -3.5t3 -17.5q1 -17 1 -45q0 -45 -4 -93l8 1q142 162 289 162q125 0 205 -95t80 -232 q0 -145 -68 -269.5t-169 -207.5q-142 -115 -318 -115q-99 0 -172 45l-19 -91q-59 -275 -67 -409l-6 -6q-26 6 -96 6q-32 0 -57.5 -1.5t-35.5 -3.5l-9 -1l-1 6q51 137 108 409z" />
<glyph unicode="q" horiz-adv-x="999" d="M840 668q-57 145 -174 145q-139 0 -222 -127q-41 -64 -71 -165t-30 -197q0 -69 19.5 -119.5t52.5 -77t69 -38t76 -11.5q75 0 167 61zM684 -66l24 113q-89 -67 -221 -67q-88 0 -155 29t-104.5 79t-56 108.5t-18.5 124.5q0 245 189 428q155 150 351 150q152 0 236 -90 l44 57q30 39 55 39q19 0 19 -24q0 -12 -3 -27l-196 -920q-58 -269 -66 -409l-6 -6q-27 6 -97 6q-32 0 -57 -1.5t-34 -3.5l-10 -1l-1 6q48 129 107 409z" />
<glyph unicode="r" horiz-adv-x="710" d="M480 725h4q59 67 142.5 120.5t150.5 53.5q35 0 81 -14l6 -8l-73 -162l-17 -4q-14 13 -36 20t-35.5 7.5t-41.5 0.5q-73 0 -135 -47q-46 -39 -70 -107l-46 -216q-51 -243 -60 -369l-6 -6q-33 6 -96 6q-28 0 -53 -1.5t-37 -2.5l-11 -2l-2 6q51 145 99 369l22 112 q50 233 29 365l4 6q82 8 168 43q10 0 13.5 -3.5t2.5 -17.5q6 -64 -3 -149z" />
<glyph unicode="s" horiz-adv-x="749" d="M128 197l29 2q18 -62 80.5 -100t128.5 -38q74 0 127 41t53 120q0 92 -134 175q-126 79 -159 146q-16 32 -16 78q0 60 21.5 109t56.5 79.5t81.5 51.5t93.5 29.5t96 8.5q115 0 218 -65l3 -7l-58 -137l-27 -2q-12 50 -55.5 89.5t-112.5 39.5q-68 0 -113.5 -32t-45.5 -95 q0 -71 41 -116t118 -85q155 -79 155 -223q0 -125 -97 -205.5t-260 -80.5q-144 0 -281 55z" />
<glyph unicode="t" horiz-adv-x="618" d="M367 879q9 44 19.5 96t17.5 87.5t16 70.5l5 6q38 3 61.5 8.5t53.5 18.5t43 18q18 0 14 -21q-36 -125 -70 -284h221q8 0 11.5 -3.5t2.5 -9.5l-11 -51q-3 -12 -20.5 -19.5t-34.5 -7.5h-188l-63 -292q-15 -70 -35 -158t-25 -109q-29 -137 40 -137q89 0 148 30l14 -56 q-54 -40 -127 -63t-139 -23q-68 0 -97 52.5t-16 129.5q6 34 33 147t38 164l69 315h-131q-9 0 -7 9l16 73q2 9 8 9h133z" />
<glyph unicode="u" horiz-adv-x="1052" d="M739 131q-173 -151 -326 -151q-68 0 -113 24t-62 63.5t-21 89.5t10 101l53 252q52 244 58 369l6 6q27 -6 97 -6q32 0 57 1.5t34 3.5l10 1l1 -6q-45 -117 -99 -369l-43 -203q-14 -68 -15 -110.5t13.5 -65.5t38 -31t63.5 -8q99 0 261 152l57 266q52 244 58 369l5 6 q27 -6 97 -6q32 0 57.5 1.5t35.5 3.5l9 1l1 -6q-45 -117 -99 -369l-25 -117q-45 -209 -49 -393l-5 -6q-39 6 -90 6q-16 0 -72 -6q-9 0 -13.5 1.5t-3.5 4.5l18 131h-4z" />
<glyph unicode="v" horiz-adv-x="847" d="M360 -6q-79 605 -135 891q29 -6 117 -6q67 0 92 6q2 -28 7.5 -111.5t8 -119.5t8.5 -108t11.5 -119t13.5 -108.5t18 -116.5q54 88 114.5 203.5t132 258.5t112.5 221q14 -6 62 -6q61 0 79 6q-358 -593 -518 -891q-14 6 -51 6q-52 0 -72 -6z" />
<glyph unicode="w" horiz-adv-x="1359" d="M365 -8q-69 528 -140 891q29 -6 115 -6q67 0 92 6q11 -161 17.5 -243t21.5 -215t35 -243h10q90 143 249 441q-12 121 -24 262q29 -6 111 -6q69 0 94 6q-7 -389 33 -701h14q188 316 377 701q14 -6 62 -6q61 0 79 6q-190 -304 -532 -891q-14 6 -66 6q-62 0 -82 -6 q-31 273 -52 484q-83 -143 -267 -486q-14 6 -63 6q-64 0 -84 -6z" />
<glyph unicode="x" horiz-adv-x="931" d="M468 424l-251 461q32 -6 117 -6q76 0 112 6q53 -134 157 -335q216 220 320 335q21 -6 75 -6q69 0 93 6l-444 -413q86 -181 253 -478q-29 6 -103 6q-86 0 -118 -6q-34 81 -165 344q-271 -294 -315 -344q-19 6 -88 6q-53 0 -75 -6z" />
<glyph unicode="y" horiz-adv-x="995" d="M225 885q27 -6 105 -6q74 0 102 6q5 -43 11.5 -90t12 -82.5t15.5 -91.5t14.5 -83t17.5 -92.5t16.5 -83.5t19 -94.5t17.5 -88.5h4q194 284 419 706q19 -6 78 -6q67 0 89 6q-123 -173 -461 -688.5t-424 -681.5q-32 10 -98 10q-37 0 -74 -10q182 224 324 446 q-22 137 -87.5 455.5t-100.5 468.5z" />
<glyph unicode="z" horiz-adv-x="851" d="M300 102q111 0 240 6t203 11l74 6l3 -6q-12 -32 -25 -119l-6 -6q-45 6 -113 6h-463l-167 -6l-4 9q9 8 18 18t21 23.5t19 21.5l632 710q-104 -1 -222 -6.5t-183 -10.5l-66 -5l-3 6q12 32 25 119l5 6q45 -6 114 -6h418q26 0 65.5 3t69.5 6t33 3q11 0 8 -12q-22 -21 -80 -86 z" />
<glyph unicode="{" horiz-adv-x="569" d="M611 1151l-76 -360q-20 -95 -43.5 -148.5t-56.5 -84t-90 -52.5q32 -15 51.5 -36t28.5 -44.5t8 -61.5t-6.5 -74t-18.5 -95l-69 -326q-25 -110 -1.5 -184t89.5 -74l-9 -45q-65 1 -108.5 10.5t-75.5 32t-45 60.5t-11.5 94.5t18.5 136.5l74 348q24 93 1.5 157.5t-97.5 83.5 l6 31q156 42 198 238l80 377q37 173 118.5 240.5t241.5 72.5l-10 -45q-74 -20 -122 -72.5t-75 -179.5z" />
<glyph unicode="|" horiz-adv-x="430" d="M165 -475h-100l405 1905h100z" />
<glyph unicode="}" horiz-adv-x="569" d="M173 -139l77 360q30 139 68 196t121 89q-32 15 -51.5 36t-28.5 44.5t-8 61.5t6.5 74t18.5 95l70 326q25 110 1 184t-90 74l10 45q65 -1 108.5 -10.5t75.5 -32t45 -60.5t11.5 -94.5t-18.5 -136.5l-74 -348q-44 -206 96 -242l-7 -30q-156 -42 -198 -238l-80 -377 q-37 -173 -118 -240.5t-241 -72.5l9 45q74 20 122 72.5t75 179.5z" />
<glyph unicode="~" horiz-adv-x="919" d="M701 436q-29 0 -58.5 13.5t-55 33t-50.5 39.5t-54.5 33.5t-58.5 13.5q-57 0 -132 -41t-122 -106l-26 6q43 104 135 183t183 79q31 0 69.5 -21t68.5 -45.5t67.5 -45.5t67.5 -21q52 0 119.5 34t112.5 103l32 -12q-38 -77 -84.5 -130t-89 -76t-71.5 -31.5t-53 -8.5z" />
<glyph unicode="&#xa1;" horiz-adv-x="466" d="M136 -469q-46 0 -72 39.5t-11 110.5q16 76 66.5 205t70.5 190q33 97 58.5 183.5t38 134t15.5 55.5q12 40 38 40q24 0 22 -26q0 -3 -20 -147.5t-31 -239.5q-8 -71 -12 -193t-21 -202q-16 -75 -58.5 -112.5t-83.5 -37.5zM518 788l-2 -8q-24 -41 -54 -66t-80 -44h-8 q-42 17 -62 42t-25 68l1 8q26 49 57.5 74.5t77.5 36.5h8q46 -11 65.5 -35.5t21.5 -75.5z" />
<glyph unicode="&#xa2;" horiz-adv-x="901" d="M712 1184h70l-40 -187q3 0 9 0.5t8 0.5q64 0 127.5 -17.5t106.5 -41.5l3 -6l-75 -151l-24 -2q-24 64 -64.5 99.5t-93.5 35.5q-3 0 -7 -0.5t-7 -0.5l-137 -642q11 -2 34 -2q123 0 228 116h7l31 -30q-62 -89 -149 -136.5t-173 -49.5l-41 -195h-70l43 199 q-144 20 -211.5 129t-33.5 269t154.5 272.5t263.5 143.5zM523 293l129 606q-81 -28 -145.5 -102t-87.5 -185q-25 -116 5 -199.5t99 -119.5z" />
<glyph unicode="&#xa3;" horiz-adv-x="901" d="M595 795l-29 -138h241q15 0 12 -12l-9 -43q-2 -11 -18.5 -17.5t-33.5 -6.5h-209q-60 -273 -227 -402h10q61 0 105 -9.5t68 -22.5t43.5 -26t45.5 -22.5t61 -9.5q140 0 219 84l30 -20q-53 -78 -133 -124t-173 -46q-48 0 -83 11.5t-57.5 28.5t-44 34t-56 28.5t-81.5 11.5 q-83 0 -92 -47q-7 -32 -32.5 -49.5t-59.5 -17.5q-28 0 -41.5 15t-8.5 38q9 42 119 96q92 58 142.5 161.5t82.5 254.5l7 33h-123q-7 0 -9 2t0 10l5 26q3 15 17.5 28t38.5 13h88l8 39q26 121 68.5 190t133.5 144q167 137 372 137q54 0 78 -16l1 -6q-33 -41 -83 -148l-21 -2 q-24 64 -91 64q-80 0 -169.5 -81t-111.5 -183z" />
<glyph unicode="&#xa4;" horiz-adv-x="901" d="M335 592q-25 -115 25 -195t156 -80q104 0 187.5 80.5t107.5 192.5q25 114 -27 193t-148 79q-105 0 -191 -79.5t-110 -190.5zM906 811q27 -44 35.5 -94.5t1 -98t-27 -94.5t-45.5 -85t-56 -68l87 -90l-90 -78l-72 104q-116 -76 -241 -76q-123 0 -206 74l-111 -108l-67 82 l130 88q-35 56 -41 122t13.5 126t51 111.5t71.5 88.5l-89 84l94 82l72 -104q113 71 234 71q125 0 207 -76l118 113l62 -84z" />
<glyph unicode="&#xa5;" horiz-adv-x="901" d="M196 469q-7 0 -8.5 2.5t0.5 9.5l6 29q3 15 16.5 28t37.5 13h205q-21 63 -96.5 314t-98.5 313q34 -7 104 -7q66 0 103 7q31 -176 60 -300.5t78 -259.5q40 47 77 96.5t78.5 112.5t67.5 104t78 125.5t75 121.5q22 -7 75 -7q49 0 77 7q-202 -258 -473 -627h264q15 0 12 -12 l-10 -43q-3 -12 -19 -19.5t-33 -7.5h-247q-8 -41 -26 -129h278q15 0 12 -12l-9 -41q-3 -12 -19.5 -19.5t-33.5 -7.5h-243q-34 -174 -47 -266q-27 6 -93 6q-63 0 -93 -6q21 69 67 266h-266q-7 0 -8.5 2t0.5 10l6 27q3 15 16 28t37 13h233q6 27 28 129h-268z" />
<glyph unicode="&#xa6;" horiz-adv-x="419" d="M558 1380l-158 -741h-98l157 741h99zM334 330l-157 -742h-99l158 742h98z" />
<glyph unicode="&#xa7;" horiz-adv-x="989" d="M471 793q-27 -22 -50.5 -47.5t-43 -58t-25.5 -62.5q-11 -51 2 -97t34.5 -77.5t67.5 -68t75.5 -54t85.5 -48.5q26 -15 38 -22q40 -24 75 -55q27 22 50.5 47.5t43 58t25.5 62.5q12 56 -2 104.5t-44 82.5t-75 67.5t-88.5 57t-91.5 54t-77 56.5zM434 834q-70 95 -43 223 q11 51 45.5 102.5t85.5 93.5t120.5 68.5t143.5 26.5q47 0 87.5 -11t73 -33.5t49 -37.5t41.5 -40q1 -2 2 -2.5t2 -2t2 -2.5l4 -11l-66 -149l-30 -4q-13 36 -24.5 61.5t-30 56t-38 49t-47.5 31.5t-61 13q-48 0 -92 -21.5t-76 -60t-42 -86.5q-28 -135 121 -203q25 -11 47.5 -22 t49.5 -26t49.5 -31t47 -35t44 -40t37 -45.5t29 -52t18.5 -57.5t7 -65t-8 -72q-19 -88 -77 -162.5t-138 -125.5q70 -94 43 -222q-11 -51 -45.5 -102.5t-85.5 -93.5t-120.5 -68.5t-143.5 -26.5q-48 0 -88.5 11t-73 33.5t-49.5 37.5t-41 41l-6 6l-4 10l67 150l29 4 q11 -30 20.5 -51.5t23 -48t29 -44.5t34.5 -34.5t43 -24.5t51 -8q73 0 133.5 47.5t76.5 120.5q28 135 -121 202q-25 11 -47.5 22t-49.5 26t-49.5 31t-47 35t-43.5 40.5t-37 46t-29.5 52t-18.5 57.5t-6.5 65t8.5 72q18 88 76.5 162t138.5 125z" />
<glyph unicode="&#xa8;" horiz-adv-x="768" d="M361 1178q8 38 42 66t72 28t60 -28t14 -66t-42 -66.5t-72 -28.5t-60 28.5t-14 66.5zM689 1178q8 38 42 66t72 28t60 -28t14 -66t-42 -66.5t-72 -28.5t-60 28.5t-14 66.5z" />
<glyph unicode="&#xa9;" d="M993 442q-46 -53 -118 -92t-151 -39q-134 0 -207.5 90.5t-47.5 214.5q28 130 142.5 225t248.5 95q82 0 130 -15.5t67 -15.5l-6 -160l-42 -8q-12 77 -48 114.5t-119 37.5q-34 0 -67 -11.5t-68 -38.5t-63.5 -78.5t-43.5 -123.5q-25 -117 14.5 -191.5t140.5 -74.5 q116 0 206 102zM659 47q-158 0 -275 78.5t-165.5 212t-15.5 289.5q25 117 94 224t163 184.5t210.5 123t234.5 45.5q157 0 273.5 -77t165.5 -210t16 -290t-139 -290.5t-255.5 -211.5t-306.5 -78zM892 1141q-141 0 -274.5 -68.5t-227.5 -187t-124 -258.5q-24 -106 -2 -199.5 t75 -163.5t140.5 -110.5t193.5 -40.5q213 0 395.5 150.5t227.5 363.5q30 140 -13.5 258.5t-147 187t-243.5 68.5z" />
<glyph unicode="&#xaa;" horiz-adv-x="608" d="M604 1028q-135 -33 -189.5 -65t-65.5 -80q-8 -36 9 -60t66 -24q55 0 145 67zM629 733q-35 0 -53 24.5t-16 55.5q-64 -47 -102.5 -63.5t-88.5 -16.5q-66 0 -103.5 40t-23.5 104q26 122 248 176l125 30q9 44 9 76.5t-7 50t-20.5 28t-26 13t-29.5 2.5q-61 0 -97.5 -20.5 t-26.5 -61.5q7 -26 -12 -46.5t-52 -20.5q-24 0 -35.5 14t-6.5 37q12 58 93.5 104t151.5 46q33 0 60 -6t54 -21t41 -41.5t20 -67.5t-8 -98l-32 -153q-25 -117 3 -117q15 0 27 10l14 -33q-52 -45 -106 -45z" />
<glyph unicode="&#xab;" horiz-adv-x="1097" d="M354 440q93 -115 195 -344l-70 -49q-78 127 -132.5 200t-127.5 144q-23 23 -35 33l6 33l50 32q104 71 191 145.5t216 199.5l47 -50q-203 -234 -340 -344zM688 440q93 -115 195 -344l-68 -49q-78 127 -132.5 200t-127.5 144q-23 23 -35 33l6 33l49 32q104 72 192 147 t216 198l45 -50q-203 -234 -340 -344z" />
<glyph unicode="&#xac;" horiz-adv-x="1146" d="M1047 272l98 459h-940l19 90h1050l-116 -549h-111z" />
<glyph unicode="&#xad;" horiz-adv-x="681" d="M664 483h-463q-13 0 -19.5 10.5t-3.5 24.5q5 25 27 50.5t40 25.5h469q14 0 19 -11t2 -26q-4 -19 -28 -46.5t-43 -27.5z" />
<glyph unicode="&#xae;" d="M1044 758q-12 -57 -54 -96.5t-97 -55.5l62 -168q19 -54 79 -43l1 -35q-38 -14 -77 -14q-82 0 -109 72l-64 164q-9 8 -74 8l-31 -148q-9 -40 15 -43l28 -4h3q17 -2 17 -8v-4l-7 -33l-5 -4q-83 4 -120 4l-126 -4l-3 4l7 35q2 7 23 10l36 4q26 3 35 43l79 369q5 25 -5.5 38 t-30.5 13h-23q-10 0 -12.5 2.5t-1.5 7.5l7 35l5 4h279q44 0 77.5 -10t50.5 -26t28 -36.5t10.5 -41t-2.5 -39.5zM931 758q22 104 -80 104q-82 0 -93 -51l-36 -172h65q55 0 92 24t52 95zM659 47q-158 0 -275 78.5t-165.5 212t-15.5 289.5q25 117 94 224t163 184.5t210.5 123 t234.5 45.5q157 0 273.5 -77t165.5 -210t16 -290t-139 -290.5t-255.5 -211.5t-306.5 -78zM892 1141q-141 0 -274.5 -68.5t-227.5 -187t-124 -258.5q-24 -106 -2 -199.5t75 -163.5t140.5 -110.5t193.5 -40.5q213 0 395.5 150.5t227.5 363.5q30 140 -13.5 258.5t-147 187 t-243.5 68.5z" />
<glyph unicode="&#xaf;" horiz-adv-x="813" d="M875 1083h-499q-12 0 -16.5 9.5t-1.5 21.5q4 20 21.5 40t35.5 20h500q14 0 20 -9.5t3 -19.5q-4 -20 -24 -41t-39 -21z" />
<glyph unicode="&#xb0;" horiz-adv-x="546" d="M638 1073q12 58 -14 104t-90 46q-63 0 -109.5 -45t-59.5 -105q-12 -57 16.5 -100t90.5 -43q60 0 107 43.5t59 99.5zM298 1075q18 86 90.5 145.5t157.5 59.5t131.5 -59.5t28.5 -145.5q-18 -85 -89.5 -144t-156.5 -59t-132.5 59t-29.5 144z" />
<glyph unicode="&#xb1;" horiz-adv-x="1079" d="M741 700h352l-21 -100h-353l-75 -356h-105l76 356h-352l21 100h352l76 357h105zM974 139l-22 -100h-809l22 100h809z" />
<glyph unicode="&#xb2;" horiz-adv-x="628" d="M718 823q-14 -34 -18 -82q-71 4 -165 4h-284q14 67 77.5 130.5t163.5 130.5q90 62 130 107.5t57 123.5q13 64 -16 93.5t-67 29.5q-110 0 -123 -60q-2 -9 -0.5 -25.5t0.5 -23.5q-5 -22 -27 -35.5t-41 -13.5q-20 0 -33.5 14.5t-9.5 34.5q11 52 78 105t175 53q41 0 76 -8.5 t64.5 -27t42 -53t2.5 -81.5q-14 -66 -70 -121.5t-164 -122.5q-78 -48 -121 -91t-53 -89h146q68 0 180 8z" />
<glyph unicode="&#xb3;" horiz-adv-x="628" d="M657 1278q10 43 -10.5 62.5t-54.5 19.5q-38 0 -78.5 -18.5t-49.5 -53.5q-5 -17 -10 -27.5t-19.5 -21t-36.5 -10.5q-18 0 -27.5 8.5t-11 16t-0.5 12.5q8 40 80 91.5t188 51.5q80 0 120.5 -32t28.5 -89q-18 -80 -135 -139q59 -5 101 -52t25 -128q-22 -104 -122.5 -170 t-226.5 -66q-62 0 -117 23t-49 53q3 15 22 28t36 13q13 0 23 -5t14 -9.5t10 -14.5q11 -18 30 -27.5t64 -9.5q19 0 43.5 7t55.5 23.5t57 52.5t36 85q4 29 2.5 50t-14.5 36t-26 23.5t-32 13.5t-33 6.5t-29 1.5q-8 0 -42 -4l6 49q71 9 120 48.5t62 101.5z" />
<glyph unicode="&#xb4;" horiz-adv-x="698" d="M664 1440q14 4 30 4q64 0 103 -47l1 -23l-283 -223q-47 -39 -70 -39q-11 0 -18 8.5t-5 18.5q1 5 2 9t3.5 8t3.5 6.5t5 7.5t6 7t7.5 9t8.5 10z" />
<glyph unicode="&#xb5;" horiz-adv-x="995" d="M105 -479q-31 0 -62.5 38.5t-19.5 94.5q10 49 49.5 155.5t53.5 174.5q6 27 17.5 125.5t25.5 164.5l82 385q5 25 11.5 80t10.5 97l4 43q27 0 91.5 9t80.5 11q-22 -131 -36 -197l-85 -401q-13 -68 -12.5 -118.5t27 -80.5t78.5 -30q80 0 159.5 38.5t126.5 92.5l143 676 q29 0 88.5 9.5t69.5 10.5l-137 -645q-23 -97 -22 -137.5t38 -40.5q34 0 87 86l45 -23q-50 -84 -97.5 -121.5t-122.5 -37.5q-58 0 -90 41.5t-19 101.5q-160 -143 -328 -143q-34 0 -63.5 13.5t-42.5 33.5q-9 0 -18.5 -6t-10.5 -13q-15 -72 -9.5 -199t-2.5 -165 q-13 -60 -43 -91.5t-67 -31.5z" />
<glyph unicode="&#xb6;" horiz-adv-x="1232" d="M1001 1176l-319 -1506q-9 -39 9.5 -58.5t55.5 -19.5q83 0 100 78l320 1506q10 44 -8.5 60.5t-58.5 16.5q-82 0 -99 -77zM1116 1321l204 6l1 -6q-46 -125 -107 -410l-208 -977q-57 -268 -67 -409l-5 -6q-131 6 -201 6l-203 -6l-2 6q50 142 107 409l138 650q-29 -6 -67 -6 q-227 0 -325 102t-55 305q13 63 49 122t92 108.5t139.5 79.5t180.5 30q89 0 201.5 -2t127.5 -2z" />
<glyph unicode="&#xb7;" horiz-adv-x="512" d="M252 514v8q15 41 39.5 67t70.5 44h9q45 -17 70.5 -42.5t39.5 -68.5v-8q-16 -49 -41 -74.5t-69 -36.5h-9q-48 11 -72.5 35t-37.5 76z" />
<glyph unicode="&#xb8;" horiz-adv-x="1107" d="M577 -197q-53 0 -95 -12l-10 12l124 197h70l-81 -137q25 6 55 6q63 0 97 -35t21 -92q-14 -66 -85.5 -109t-165.5 -43q-46 0 -76 8t-68 27q7 33 31 53q71 -28 113 -28q47 0 80.5 21.5t41.5 60.5q15 71 -52 71z" />
<glyph unicode="&#xb9;" horiz-adv-x="628" d="M515 1008l37 174q12 50 11.5 68t-17.5 18q-19 0 -71.5 -15t-78.5 -26l-8 59q221 74 311 123h12q3 -3 3 -8.5t-4.5 -23t-8.5 -33t-10 -38.5t-10 -40l-55 -258q-35 -160 -42 -263l-3 -4q-17 4 -68 4l-71 -4l-1 4q39 99 74 263z" />
<glyph unicode="&#xba;" horiz-adv-x="714" d="M267 879q28 131 119 205.5t223 74.5q58 0 102.5 -14.5t69.5 -40t39.5 -60t13.5 -73t-8 -80.5q-24 -113 -114.5 -191.5t-227.5 -78.5q-114 0 -177 74t-40 184zM586 1108q-73 0 -125 -60t-71 -149q-10 -37 -6 -76.5t16.5 -71.5t43.5 -52.5t75 -20.5q24 0 48.5 8t52 26.5 t50 56t33.5 89.5q26 120 -6.5 185t-110.5 65z" />
<glyph unicode="&#xbb;" horiz-adv-x="1097" d="M799 440q-93 115 -195 344l70 50q79 -129 133 -202t127 -143q23 -22 35 -32l-6 -33l-50 -33q-104 -72 -191.5 -146.5t-215.5 -197.5l-47 49q203 234 340 344zM465 440q-93 115 -195 344l68 50q79 -129 133 -202t127 -143q23 -22 35 -32l-6 -33l-49 -33 q-105 -73 -193.5 -147.5t-214.5 -196.5l-45 49q203 234 340 344z" />
<glyph unicode="&#xbc;" horiz-adv-x="1351" d="M1402 1231l81 -17l-1223 -1341l-83 16zM1030 -166q34 85 61 203h-295l-3 24q167 185 411 447l59 -21q-68 -78 -195.5 -215.5t-151.5 -165.5h190l34 158q6 23 36 50.5t48 27.5q9 0 16.5 -1t15.5 -6t6 -13l-45 -216h100l-27 -69h-87q-24 -127 -30 -203l-3 -4q-18 4 -69 4 l-70 -4zM488 907l37 174q12 49 11.5 67.5t-17.5 18.5q-19 0 -72 -15t-79 -26l-7 60q218 73 310 123h13q5 0 0.5 -20.5t-15.5 -60t-16 -63.5l-55 -258q-33 -154 -41 -262l-3 -4q-18 4 -69 4l-70 -4l-1 4q40 100 74 262z" />
<glyph unicode="&#xbd;" horiz-adv-x="1351" d="M1351 1231l83 -17l-1226 -1341l-80 16zM1258 -84q-13 -30 -17 -82q-71 4 -165 4h-285q14 67 77.5 130t164.5 130q89 61 129 107.5t57 124.5q13 64 -16 93.5t-66 29.5q-60 0 -89.5 -17.5t-34.5 -42.5q-2 -9 -0.5 -25.5t0.5 -23.5q-5 -22 -27 -35.5t-41 -13.5t-32.5 14.5 t-9.5 34.5q11 52 77.5 105t174.5 53q41 0 76 -8.5t64.5 -27t42 -53t2.5 -81.5q-14 -66 -70 -121.5t-164 -122.5q-154 -95 -173 -180h145q68 0 180 8zM492 907l37 174q12 49 11.5 67.5t-17.5 18.5q-8 0 -23 -3t-32.5 -7.5t-35.5 -10t-34 -11t-25 -9.5l-8 60q7 2 30.5 10 t32 11t30.5 10.5t32 11.5t30 11t32 12l30 12.5t32 14t30 14.5t31 16h13q5 0 0.5 -20.5t-15.5 -60t-16 -63.5l-54 -258q-35 -161 -42 -262l-3 -4q-18 4 -69 4q-23 0 -40.5 -1t-23.5 -2l-6 -1l-1 4q40 100 74 262z" />
<glyph unicode="&#xbe;" horiz-adv-x="1351" d="M1413 1231l80 -17l-1223 -1341l-83 16zM630 1174q10 43 -10 62t-54 19q-38 0 -78.5 -18.5t-49.5 -52.5q-5 -17 -10 -27.5t-19.5 -21.5t-36.5 -11q-18 0 -27.5 8.5t-11 16t-0.5 12.5q3 15 20.5 37.5t48.5 47.5t84 42t115 17q80 0 120 -32t28 -89q-18 -82 -134 -140 q59 -5 101 -52t25 -128q-22 -104 -122.5 -169.5t-226.5 -65.5q-62 0 -117.5 23t-49.5 53q3 15 21.5 27.5t36.5 12.5q30 0 48 -28q11 -18 30 -27.5t64 -9.5q18 0 42.5 7t55.5 23.5t57 52.5t36 85q4 29 2.5 50t-14.5 36t-26 23.5t-32 13.5t-32.5 6.5t-28.5 1.5q-8 0 -42 -4 l6 49q71 9 119.5 48.5t61.5 101.5zM1039 -162q34 85 61 203h-295l-3 25q138 153 411 446l59 -20q-68 -78 -195.5 -215.5t-151.5 -165.5h190l34 157q6 23 36 50.5t48 27.5q9 0 16.5 -1t15.5 -6t6 -13l-45 -215h100l-27 -70h-87q-24 -127 -30 -203l-3 -4q-18 4 -69 4l-70 -4z " />
<glyph unicode="&#xbf;" horiz-adv-x="829" d="M349 -389q141 0 293 192l26 -2l4 -137l-8 -8q-65 -46 -159 -86.5t-191 -40.5q-156 0 -229.5 84.5t-43.5 224.5q10 47 33.5 90t48.5 72.5t66.5 63t67 51t70.5 45.5q101 65 128 102q53 74 69 150l19 90q4 20 31 20q12 0 18 -5t4 -15l-20 -94q-10 -44 -19 -74t-31 -76.5 t-61.5 -91.5t-95.5 -88q-78 -61 -118 -112t-54 -120q-21 -100 22 -167.5t130 -67.5zM745 788l-2 -8q-24 -41 -54 -66t-80 -44h-8q-42 17 -62 42t-25 68l2 8q26 49 57 74.5t77 36.5h8q46 -11 65.5 -35.5t21.5 -75.5z" />
<glyph unicode="&#xc0;" d="M880 1675l212 -172q26 -22 21 -43q-2 -12 -13.5 -21t-23.5 -9q-31 0 -83 24l-288 129q75 60 175 92zM470 468q-195 -315 -271 -474q-23 6 -90 6q-47 0 -73 -6q539 806 892 1354h57q35 -167 95 -483.5t106.5 -548t71.5 -322.5q-34 6 -121 6q-68 0 -104 -6q-12 182 -59 474 q-115 3 -239 3q-148 0 -265 -3zM958 564q-46 261 -100 505h-4q-33 -51 -97.5 -151.5t-121 -188t-104.5 -164.5q19 0 99 -2t114 -2q112 0 214 3z" />
<glyph unicode="&#xc1;" d="M1154 1679q78 -40 104 -106l-320 -119q-63 -24 -91 -24q-13 0 -20 9t-5 21q5 23 40 43zM470 468q-195 -315 -271 -474q-23 6 -90 6q-47 0 -73 -6q539 806 892 1354h57q35 -167 95 -483.5t106.5 -548t71.5 -322.5q-34 6 -121 6q-68 0 -104 -6q-12 182 -59 474 q-115 3 -239 3q-148 0 -265 -3zM958 564q-46 261 -100 505h-4q-33 -51 -97.5 -151.5t-121 -188t-104.5 -164.5q19 0 99 -2t114 -2q112 0 214 3z" />
<glyph unicode="&#xc2;" d="M1069 1649q63 -102 166 -193l-42 -43q-113 58 -190 127q-117 -74 -246 -127l-20 43q104 67 244 193h88zM470 468q-195 -315 -271 -474q-23 6 -90 6q-47 0 -73 -6q539 806 892 1354h57q35 -167 95 -483.5t106.5 -548t71.5 -322.5q-34 6 -121 6q-68 0 -104 -6 q-12 182 -59 474q-115 3 -239 3q-148 0 -265 -3zM958 564q-46 261 -100 505h-4q-33 -51 -97.5 -151.5t-121 -188t-104.5 -164.5q19 0 99 -2t114 -2q112 0 214 3z" />
<glyph unicode="&#xc3;" d="M1131 1524q36 0 63.5 22t61.5 84l46 -12q-76 -184 -217 -184q-52 0 -120 53q-63 45 -101 45q-39 0 -66.5 -23t-54.5 -75l-47 10q41 93 89.5 137.5t113.5 44.5q66 0 135 -57q50 -45 97 -45zM470 468q-195 -315 -271 -474q-23 6 -90 6q-47 0 -73 -6q539 806 892 1354h57 q35 -167 95 -483.5t106.5 -548t71.5 -322.5q-34 6 -121 6q-68 0 -104 -6q-12 182 -59 474q-115 3 -239 3q-148 0 -265 -3zM958 564q-46 261 -100 505h-4q-33 -51 -97.5 -151.5t-121 -188t-104.5 -164.5q19 0 99 -2t114 -2q112 0 214 3z" />
<glyph unicode="&#xc4;" d="M636 1452q8 38 42 65t72 27t59.5 -27t13.5 -65t-41 -65t-71 -27q-39 0 -61 27t-14 65zM1128 1452q8 38 42 65t72 27t59 -27t13 -65t-41 -65t-71 -27t-60 27t-14 65zM470 468q-195 -315 -271 -474q-23 6 -90 6q-47 0 -73 -6q539 806 892 1354h57q35 -167 95 -483.5 t106.5 -548t71.5 -322.5q-34 6 -121 6q-68 0 -104 -6q-12 182 -59 474q-115 3 -239 3q-148 0 -265 -3zM958 564q-46 261 -100 505h-4q-33 -51 -97.5 -151.5t-121 -188t-104.5 -164.5q19 0 99 -2t114 -2q112 0 214 3z" />
<glyph unicode="&#xc5;" d="M999 1577q-46 0 -81.5 -34t-45.5 -81q-10 -45 11.5 -79.5t66.5 -34.5t81.5 34.5t45.5 79.5q11 48 -11 81.5t-67 33.5zM796 1462q15 70 79 120t135 50q72 0 115 -49.5t28 -120.5q-12 -55 -56.5 -100t-101.5 -62q33 -163 92 -472.5t102.5 -527.5t68.5 -306q-34 6 -121 6 q-68 0 -104 -6q-12 182 -59 474q-115 3 -239 3q-148 0 -265 -3q-195 -315 -271 -474q-23 6 -90 6q-47 0 -73 -6q440 657 859 1304q-54 15 -83 60.5t-16 103.5zM958 564q-46 261 -100 505h-4q-33 -51 -97.5 -151.5t-121 -188t-104.5 -164.5q19 0 99 -2t114 -2q112 0 214 3z " />
<glyph unicode="&#xc6;" horiz-adv-x="1642" d="M1578 696q-25 -56 -25 -114l-7 -7q-177 19 -435 21q6 -261 18 -482l440 21l2 -8q-15 -40 -27 -127l-5 -6q-48 6 -122 6h-393q-68 0 -104 -6q21 98 33 578q-45 1 -135 1q-126 0 -242 -3q-241 -347 -377 -576q-23 6 -90 6q-47 0 -73 -6q57 77 276.5 383.5t379 516.5 t339.5 428l5 5q33 -6 103 -6h436q73 0 124 6l3 -6q-23 -83 -25 -117l-6 -8q-154 21 -370 21q-116 0 -152.5 -19t-41.5 -81q-3 -205 2 -435q224 0 464 20zM955 665q1 40 2.5 122t2.5 158t2 148h-4q-138 -177 -314 -426q180 -3 183 -3q83 0 128 1z" />
<glyph unicode="&#xc7;" horiz-adv-x="1331" d="M1014 1348q70 0 137.5 -9.5t114 -23t83 -27.5t53.5 -24l18 -9l3 -6q-10 -23 -28 -61t-24 -53.5t-17 -45.5t-21 -67l-25 -2q-35 123 -118.5 177t-225.5 54q-53 0 -111.5 -18.5t-123 -62t-120.5 -106.5t-104 -161.5t-73 -218.5q-19 -92 -21 -177.5t17 -163t58 -134.5 t108 -91t161 -34q144 0 244 42t233 161l45 -39q-245 -250 -520 -267l-69 -118q26 6 54 6q63 0 97 -35t22 -92q-14 -66 -86 -109t-166 -43q-46 0 -76 8t-68 27q6 32 32 53q71 -28 113 -28q47 0 80.5 21.5t41.5 60.5q15 71 -53 71q-53 0 -95 -12l-9 12l111 177 q-102 4 -184.5 33t-139 77t-95 111.5t-55.5 137.5t-16.5 153t17.5 161q31 147 112.5 278t190.5 221.5t239 143t259 52.5z" />
<glyph unicode="&#xc8;" horiz-adv-x="1069" d="M857 1673l212 -172q26 -22 21 -43q-2 -12 -13.5 -21.5t-23.5 -9.5q-29 0 -83 25l-288 129q75 60 175 92zM997 758q-25 -56 -25 -115l-7 -6q-197 20 -453 20l-52 -247q-51 -254 -47 -299q122 0 267.5 6t229.5 12l85 6l3 -8q-15 -40 -27 -127l-6 -6q-48 6 -121 6h-559 q-32 0 -59 -1.5t-38 -2.5l-11 -2l-1 6q50 138 108 410l106 501q57 267 67 410l5 6q33 -6 103 -6h539q73 0 124 6l3 -6q-23 -83 -25 -117l-6 -8q-278 25 -551 25q-16 -31 -44 -143.5t-39 -166.5l-35 -168q203 0 461 21z" />
<glyph unicode="&#xc9;" horiz-adv-x="1069" d="M1074 1679q78 -40 104 -106l-320 -119q-63 -24 -91 -24q-13 0 -19.5 9t-4.5 21q5 23 39 43zM997 758q-25 -56 -25 -115l-7 -6q-197 20 -453 20l-52 -247q-51 -254 -47 -299q122 0 267.5 6t229.5 12l85 6l3 -8q-15 -40 -27 -127l-6 -6q-48 6 -121 6h-559q-32 0 -59 -1.5 t-38 -2.5l-11 -2l-1 6q50 138 108 410l106 501q57 267 67 410l5 6q33 -6 103 -6h539q73 0 124 6l3 -6q-23 -83 -25 -117l-6 -8q-278 25 -551 25q-16 -31 -44 -143.5t-39 -166.5l-35 -168q203 0 461 21z" />
<glyph unicode="&#xca;" horiz-adv-x="1069" d="M1000 1649q63 -102 166 -193l-42 -43q-115 59 -191 127q-118 -75 -245 -127l-20 43q104 67 244 193h88zM997 758q-25 -56 -25 -115l-7 -6q-197 20 -453 20l-52 -247q-51 -254 -47 -299q122 0 267.5 6t229.5 12l85 6l3 -8q-15 -40 -27 -127l-6 -6q-48 6 -121 6h-559 q-32 0 -59 -1.5t-38 -2.5l-11 -2l-1 6q50 138 108 410l106 501q57 267 67 410l5 6q33 -6 103 -6h539q73 0 124 6l3 -6q-23 -83 -25 -117l-6 -8q-278 25 -551 25q-16 -31 -44 -143.5t-39 -166.5l-35 -168q203 0 461 21z" />
<glyph unicode="&#xcb;" horiz-adv-x="1069" d="M1011 1538q8 40 43.5 69t75.5 29t63 -29t15 -69t-44 -69t-76 -29t-62.5 29t-14.5 69zM624 1538q8 40 43.5 69t75.5 29t62.5 -29t14.5 -69t-43.5 -69t-75.5 -29t-62.5 29t-14.5 69zM997 758q-25 -56 -25 -115l-7 -6q-197 20 -453 20l-52 -247q-51 -254 -47 -299 q122 0 267.5 6t229.5 12l85 6l3 -8q-15 -40 -27 -127l-6 -6q-48 6 -121 6h-559q-32 0 -59 -1.5t-38 -2.5l-11 -2l-1 6q50 138 108 410l106 501q57 267 67 410l5 6q33 -6 103 -6h539q73 0 124 6l3 -6q-23 -83 -25 -117l-6 -8q-278 25 -551 25q-16 -31 -44 -143.5t-39 -166.5 l-35 -168q203 0 461 21z" />
<glyph unicode="&#xcc;" horiz-adv-x="600" d="M558 1673l212 -172q26 -22 21 -43q-2 -12 -13.5 -21.5t-23.5 -9.5q-29 0 -83 25l-288 129q75 60 175 92zM411 911q56 260 66 410l6 6q33 -6 103 -6q32 0 59 1.5t38 3.5l11 1v-6q-46 -125 -107 -410l-107 -501q-56 -260 -66 -410l-6 -6q-33 6 -103 6q-32 0 -59 -1.5 t-38 -2.5l-11 -2v6q47 131 107 410z" />
<glyph unicode="&#xcd;" horiz-adv-x="600" d="M787 1677q78 -40 104 -106l-320 -119q-65 -25 -91 -25q-13 0 -20 9.5t-5 21.5q5 23 40 43zM411 911q56 260 66 410l6 6q33 -6 103 -6q32 0 59 1.5t38 3.5l11 1v-6q-46 -125 -107 -410l-107 -501q-56 -260 -66 -410l-6 -6q-33 6 -103 6q-32 0 -59 -1.5t-38 -2.5l-11 -2v6 q47 131 107 410z" />
<glyph unicode="&#xce;" horiz-adv-x="600" d="M692 1649q62 -100 167 -193l-42 -43q-115 59 -191 127q-117 -74 -246 -127l-19 43q100 65 243 193h88zM411 911q56 260 66 410l6 6q33 -6 103 -6q32 0 59 1.5t38 3.5l11 1v-6q-46 -125 -107 -410l-107 -501q-56 -260 -66 -410l-6 -6q-33 6 -103 6q-32 0 -59 -1.5 t-38 -2.5l-11 -2v6q47 131 107 410z" />
<glyph unicode="&#xcf;" horiz-adv-x="600" d="M722 1536q8 40 43.5 69t75.5 29t62.5 -29t14.5 -69t-43.5 -69t-75.5 -29t-62.5 29t-14.5 69zM335 1536q8 40 43.5 69t75.5 29t62.5 -29t14.5 -69t-43.5 -69t-75.5 -29t-62.5 29t-14.5 69zM411 911q56 260 66 410l6 6q33 -6 103 -6q32 0 59 1.5t38 3.5l11 1v-6 q-46 -125 -107 -410l-107 -501q-56 -260 -66 -410l-6 -6q-33 6 -103 6q-32 0 -59 -1.5t-38 -2.5l-11 -2v6q47 131 107 410z" />
<glyph unicode="&#xd0;" horiz-adv-x="1396" d="M419 168q-11 -32 -1 -50.5t51.5 -25t142.5 -6.5q93 0 166.5 11.5t146.5 44t127.5 87t98.5 143.5t70 210q15 71 21.5 136t2.5 131.5t-20 122.5t-49.5 106t-82 84.5t-122 54.5t-165.5 20q-84 0 -125.5 -16t-51.5 -66l-104 -487h233l-17 -80h-233zM576 1321q64 0 163.5 3 t163.5 3q116 0 215 -36t168 -99.5t115 -151t55 -191t-13 -218.5q-22 -105 -62 -193.5t-90 -153t-111.5 -115t-125 -82.5t-134 -53t-134.5 -29.5t-129 -8.5q-114 0 -207 2t-155 2q-32 0 -59 -1.5t-38 -2.5l-11 -2l-1 6q50 138 108 410l38 178h-146l17 80h146l52 243 q56 260 66 410l5 6q34 -6 104 -6z" />
<glyph unicode="&#xd1;" horiz-adv-x="1331" d="M401 911q52 247 66 410l5 6q35 -6 63 -6l50 4l447 -909q47 -96 71 -95q16 0 25 44l96 444q78 361 136 512l5 6q21 -6 71 -6q20 0 38.5 1.5t26.5 3.5l8 1l1 -6q-117 -230 -178 -512l-164 -766q-13 -63 -56 -63q-53 0 -78 49l-461 903q-4 7 -10 20q-25 48 -30 49 q-6 0 -17 -53q-6 -30 -10 -49l-91 -428q-70 -329 -120 -471l-5 -6q-21 6 -71 6q-20 0 -38.5 -1.5t-26.5 -2.5l-8 -2l-1 6q101 193 161 471zM1189 1518q36 0 63.5 22t61.5 84l46 -12q-77 -185 -217 -185q-51 0 -120 54q-63 45 -101 45q-39 0 -66.5 -23.5t-54.5 -75.5l-47 11 q42 93 89.5 137.5t112.5 44.5q67 0 136 -57q49 -45 97 -45z" />
<glyph unicode="&#xd2;" horiz-adv-x="1415" d="M943 1257q-163 0 -290 -131q-90 -93 -163 -277.5t-73 -376.5q0 -194 94 -298t249 -104q200 0 335 182q76 102 132.5 284t56.5 354q0 367 -341 367zM1186 160q-203 -180 -486 -180q-227 0 -362.5 129.5t-135.5 354.5q0 220 93.5 403.5t241.5 307.5q207 173 452 173 q233 0 368 -133.5t135 -362.5q0 -210 -91 -396t-215 -296zM940 1671l211 -172q26 -22 22 -43q-2 -12 -14 -21.5t-24 -9.5q-29 0 -83 25l-287 129q75 60 175 92z" />
<glyph unicode="&#xd3;" horiz-adv-x="1415" d="M943 1257q-163 0 -290 -131q-90 -93 -163 -277.5t-73 -376.5q0 -194 94 -298t249 -104q200 0 335 182q76 102 132.5 284t56.5 354q0 367 -341 367zM1186 160q-203 -180 -486 -180q-227 0 -362.5 129.5t-135.5 354.5q0 220 93.5 403.5t241.5 307.5q207 173 452 173 q233 0 368 -133.5t135 -362.5q0 -210 -91 -396t-215 -296zM1068 1675q78 -40 104 -106l-320 -119q-65 -25 -91 -25q-13 0 -20 9.5t-5 21.5q5 23 40 43z" />
<glyph unicode="&#xd4;" horiz-adv-x="1415" d="M943 1257q-163 0 -290 -131q-90 -93 -163 -277.5t-73 -376.5q0 -194 94 -298t249 -104q200 0 335 182q76 102 132.5 284t56.5 354q0 367 -341 367zM1186 160q-203 -180 -486 -180q-227 0 -362.5 129.5t-135.5 354.5q0 220 93.5 403.5t241.5 307.5q207 173 452 173 q233 0 368 -133.5t135 -362.5q0 -210 -91 -396t-215 -296zM1042 1661q63 -102 166 -193l-42 -43q-113 58 -190 127q-117 -74 -246 -127l-20 43q104 67 244 193h88z" />
<glyph unicode="&#xd5;" horiz-adv-x="1415" d="M943 1257q-163 0 -290 -131q-90 -93 -163 -277.5t-73 -376.5q0 -194 94 -298t249 -104q200 0 335 182q76 102 132.5 284t56.5 354q0 367 -341 367zM1186 160q-203 -180 -486 -180q-227 0 -362.5 129.5t-135.5 354.5q0 220 93.5 403.5t241.5 307.5q207 173 452 173 q233 0 368 -133.5t135 -362.5q0 -210 -91 -396t-215 -296zM1101 1518q36 0 63.5 22t61.5 84l46 -12q-77 -185 -217 -185q-51 0 -120 54q-63 45 -101 45q-39 0 -66.5 -23.5t-54.5 -75.5l-47 11q42 93 89.5 137.5t112.5 44.5q67 0 136 -57q49 -45 97 -45z" />
<glyph unicode="&#xd6;" horiz-adv-x="1415" d="M542 1452q8 38 42 65t72 27t59 -27t13 -65t-40.5 -65t-70.5 -27q-39 0 -61 27t-14 65zM1300 1452q8 38 41 65t71 27t59 -27t13 -65t-41 -65t-71 -27t-59 27t-13 65zM943 1257q-163 0 -290 -131q-90 -93 -163 -277.5t-73 -376.5q0 -194 94 -298t249 -104q200 0 335 182 q76 102 132.5 284t56.5 354q0 367 -341 367zM1186 160q-203 -180 -486 -180q-227 0 -362.5 129.5t-135.5 354.5q0 220 93.5 403.5t241.5 307.5q207 173 452 173q233 0 368 -133.5t135 -362.5q0 -210 -91 -396t-215 -296z" />
<glyph unicode="&#xd7;" horiz-adv-x="1079" d="M710 471l199 -250l-87 -71l-197 249l-302 -249l-59 71l305 250l-198 252l89 72l196 -252l303 252l57 -72z" />
<glyph unicode="&#xd8;" horiz-adv-x="1476" d="M165 -82l-59 53l199 193q-145 184 -84 471q42 198 161.5 361.5t288 257.5t349.5 94q225 0 370 -125l153 149l59 -49l-159 -155q74 -91 98 -214t-7 -280q-43 -203 -158.5 -361t-283.5 -245.5t-361 -87.5q-229 0 -372 128zM974 1257q-61 0 -122.5 -19.5t-124.5 -64 t-117 -110.5t-99.5 -167t-71.5 -226q-45 -209 11 -364l830 810q-90 141 -306 141zM1315 1043l-829 -811q50 -79 129 -120.5t176 -41.5q180 0 323.5 148.5t200.5 416.5q54 250 0 408z" />
<glyph unicode="&#xd9;" horiz-adv-x="1353" d="M921 1675l212 -172q26 -22 21 -43q-2 -12 -13.5 -21t-23.5 -9q-31 0 -83 24l-288 129q75 60 175 92zM1261 911q56 260 66 410l6 6q20 -6 70 -6q20 0 38.5 1.5t26.5 3.5l8 1l1 -6q-48 -132 -108 -410l-65 -307q-24 -116 -56.5 -206t-85 -171t-121 -133.5t-167 -83 t-221.5 -30.5q-37 0 -72.5 4.5t-75.5 15t-74.5 29.5t-66.5 45.5t-54.5 66t-35.5 87.5t-12 113.5t17 141.5l91 428q56 260 66 410l6 6q33 -6 103 -6q32 0 59 1.5t38 3.5l11 1l1 -6q-48 -132 -108 -410l-77 -360q-7 -34 -12 -61.5t-9 -79t0 -91t20 -86t45.5 -77t81.5 -51.5 t123 -21q72 0 132.5 15.5t103.5 39.5t79 63.5t58.5 77.5t42.5 92t31 95.5t23 99.5z" />
<glyph unicode="&#xda;" horiz-adv-x="1353" d="M1186 1677q78 -40 104 -106l-320 -119q-65 -25 -91 -25q-13 0 -19.5 9.5t-4.5 21.5q5 23 40 43zM1261 911q56 260 66 410l6 6q20 -6 70 -6q20 0 38.5 1.5t26.5 3.5l8 1l1 -6q-48 -132 -108 -410l-65 -307q-24 -116 -56.5 -206t-85 -171t-121 -133.5t-167 -83 t-221.5 -30.5q-37 0 -72.5 4.5t-75.5 15t-74.5 29.5t-66.5 45.5t-54.5 66t-35.5 87.5t-12 113.5t17 141.5l91 428q56 260 66 410l6 6q33 -6 103 -6q32 0 59 1.5t38 3.5l11 1l1 -6q-48 -132 -108 -410l-77 -360q-7 -34 -12 -61.5t-9 -79t0 -91t20 -86t45.5 -77t81.5 -51.5 t123 -21q72 0 132.5 15.5t103.5 39.5t79 63.5t58.5 77.5t42.5 92t31 95.5t23 99.5z" />
<glyph unicode="&#xdb;" horiz-adv-x="1353" d="M1108 1649q63 -102 166 -193l-42 -43q-113 58 -190 127q-117 -74 -246 -127l-20 43q104 67 244 193h88zM1261 911q56 260 66 410l6 6q20 -6 70 -6q20 0 38.5 1.5t26.5 3.5l8 1l1 -6q-48 -132 -108 -410l-65 -307q-24 -116 -56.5 -206t-85 -171t-121 -133.5t-167 -83 t-221.5 -30.5q-37 0 -72.5 4.5t-75.5 15t-74.5 29.5t-66.5 45.5t-54.5 66t-35.5 87.5t-12 113.5t17 141.5l91 428q56 260 66 410l6 6q33 -6 103 -6q32 0 59 1.5t38 3.5l11 1l1 -6q-48 -132 -108 -410l-77 -360q-7 -34 -12 -61.5t-9 -79t0 -91t20 -86t45.5 -77t81.5 -51.5 t123 -21q72 0 132.5 15.5t103.5 39.5t79 63.5t58.5 77.5t42.5 92t31 95.5t23 99.5z" />
<glyph unicode="&#xdc;" horiz-adv-x="1353" d="M763 1452q8 38 41 65t71 27t59.5 -27t13.5 -65t-41 -65t-71 -27t-59.5 27t-13.5 65zM1099 1452q8 38 41 65t71 27t59 -27t13 -65t-40.5 -65t-70.5 -27t-59.5 27t-13.5 65zM1261 911q56 260 66 410l6 6q20 -6 70 -6q20 0 38.5 1.5t26.5 3.5l8 1l1 -6q-48 -132 -108 -410 l-65 -307q-24 -116 -56.5 -206t-85 -171t-121 -133.5t-167 -83t-221.5 -30.5q-37 0 -72.5 4.5t-75.5 15t-74.5 29.5t-66.5 45.5t-54.5 66t-35.5 87.5t-12 113.5t17 141.5l91 428q56 260 66 410l6 6q33 -6 103 -6q32 0 59 1.5t38 3.5l11 1l1 -6q-48 -132 -108 -410l-77 -360 q-7 -34 -12 -61.5t-9 -79t0 -91t20 -86t45.5 -77t81.5 -51.5t123 -21q72 0 132.5 15.5t103.5 39.5t79 63.5t58.5 77.5t42.5 92t31 95.5t23 99.5z" />
<glyph unicode="&#xdd;" horiz-adv-x="1210" d="M1094 1679q78 -40 104 -106l-320 -119q-63 -24 -91 -24q-13 0 -19.5 9t-4.5 21q5 23 40 43zM809 585q-96 -473 -110 -591q-32 6 -105 6q-72 0 -106 -6q40 126 135 569q-44 117 -157 398t-151 366q34 -6 115 -6q82 0 118 6q22 -76 52 -162t52.5 -147.5t61 -162.5 t59.5 -158q301 354 492 630q23 -6 85 -6q59 0 87 6q-79 -92 -212.5 -244.5t-186.5 -214.5t-120 -143t-109 -140z" />
<glyph unicode="&#xde;" horiz-adv-x="1081" d="M388 911q57 267 67 410l5 6q33 -6 103 -6q32 0 59 1.5t38 3.5l11 1l1 -6q-36 -100 -71 -247q54 3 179 3q91 0 161.5 -17.5t113 -48t69.5 -67.5t36.5 -81t9 -83t-8.5 -78q-11 -49 -37 -101t-75 -106.5t-112 -97t-154.5 -69.5t-196.5 -27q-106 0 -148 13q-37 -189 -47 -314 l-5 -6q-33 6 -103 6q-32 0 -59 -1.5t-38 -2.5l-11 -2l-1 6q50 138 108 410zM454 394q30 -9 140 -9q299 0 366 317q62 291 -200 291q-32 0 -90 -6.5t-92 -14.5q-9 -36 -14 -61l-106 -501q-1 -2 -2.5 -8t-1.5 -8z" />
<glyph unicode="&#xdf;" horiz-adv-x="1089" d="M696 55q62 0 109.5 59t68.5 134.5t21 146.5q0 113 -61.5 221.5t-163.5 200.5l6 27q1 1 18.5 11.5t34 21.5t42.5 31.5t48 42t46 52t40.5 63t27 73.5t10.5 84q0 61 -27.5 98t-87.5 37q-44 0 -103 -42.5t-92 -103.5q-7 -13 -13.5 -27.5t-11.5 -26.5t-11 -30.5t-9.5 -28.5 t-9.5 -32t-8.5 -30.5t-8 -33.5t-7 -31t-8 -34.5t-7.5 -32.5l-172 -768q-30 -137 -87 -259.5t-119 -194.5q-134 -156 -307 -156q-25 0 -53.5 7t-38.5 15l-1 7q27 38 84 168l20 2q9 -32 38.5 -55t67.5 -23q60 0 99 54t76 159q13 38 31 114t32 145.5t37 184.5t36 178l61 273 q4 19 0 25.5t-18 6.5h-92q-14 0 -14 11l10 51q7 29 42 29q52 0 89 16q20 33 30 82q24 115 93 218.5t170.5 169t207.5 65.5q118 0 173 -44q73 -58 73 -160q0 -192 -287 -378l-1 -4q56 -43 94.5 -78.5t82 -87.5t66 -113t22.5 -128q0 -118 -39 -202t-107 -157q-91 -98 -258 -98 q-46 0 -93.5 13t-70.5 24.5t-35 19.5l-1 6q11 14 20 28.5t13.5 24t14.5 31.5t16 35l23 2q12 -36 50.5 -72.5t78.5 -36.5z" />
<glyph unicode="&#xe0;" horiz-adv-x="970" d="M723 449q23 58 41 143t24 140l7 56q-54 21 -127 21q-89 0 -178.5 -89t-144 -214.5t-54.5 -233.5q0 -89 22.5 -131.5t73.5 -42.5t157 108.5t179 242.5zM836 283q-17 -73 -17 -131q0 -33 16.5 -49.5t43.5 -16.5q45 0 98 14l4 -6v-53q-35 -18 -54 -27.5t-61 -21.5t-80 -12 q-52 0 -89.5 26.5t-37.5 81.5q0 35 15 96l26 107l-4 4q-44 -66 -72 -104t-67 -84t-70.5 -70t-72 -40.5t-82.5 -16.5q-50 0 -88 16.5t-60.5 42t-36.5 61t-19 69t-5 71.5q0 93 37 191t96.5 178.5t130.5 145.5t144 101.5t131 36.5q108 0 163 -6q22 -4 86 1t70 5zM777 1374 l89 -258q10 -28 1.5 -50t-35.5 -22q-17 0 -51 41l-186 224l9 22q74 47 143 47q14 0 30 -4z" />
<glyph unicode="&#xe1;" horiz-adv-x="970" d="M723 449q23 58 41 143t24 140l7 56q-54 21 -127 21q-89 0 -178.5 -89t-144 -214.5t-54.5 -233.5q0 -89 22.5 -131.5t73.5 -42.5t157 108.5t179 242.5zM836 283q-17 -73 -17 -131q0 -33 16.5 -49.5t43.5 -16.5q45 0 98 14l4 -6v-53q-35 -18 -54 -27.5t-61 -21.5t-80 -12 q-52 0 -89.5 26.5t-37.5 81.5q0 35 15 96l26 107l-4 4q-44 -66 -72 -104t-67 -84t-70.5 -70t-72 -40.5t-82.5 -16.5q-50 0 -88 16.5t-60.5 42t-36.5 61t-19 69t-5 71.5q0 93 37 191t96.5 178.5t130.5 145.5t144 101.5t131 36.5q108 0 163 -6q22 -4 86 1t70 5zM767 1364 q14 4 29 4q64 0 103 -47l2 -23l-284 -223q-47 -39 -69 -39q-11 0 -18 8.5t-5 18.5q2 11 7 20.5t9 14t19 22.5z" />
<glyph unicode="&#xe2;" horiz-adv-x="970" d="M723 449q23 58 41 143t24 140l7 56q-54 21 -127 21q-89 0 -178.5 -89t-144 -214.5t-54.5 -233.5q0 -89 22.5 -131.5t73.5 -42.5t157 108.5t179 242.5zM836 283q-17 -73 -17 -131q0 -33 16.5 -49.5t43.5 -16.5q45 0 98 14l4 -6v-53q-35 -18 -54 -27.5t-61 -21.5t-80 -12 q-52 0 -89.5 26.5t-37.5 81.5q0 35 15 96l26 107l-4 4q-44 -66 -72 -104t-67 -84t-70.5 -70t-72 -40.5t-82.5 -16.5q-50 0 -88 16.5t-60.5 42t-36.5 61t-19 69t-5 71.5q0 93 37 191t96.5 178.5t130.5 145.5t144 101.5t131 36.5q108 0 163 -6q22 -4 86 1t70 5zM795 1337 q43 -106 151 -264l-49 -29q-120 106 -178 185q-109 -92 -259 -185l-35 29q190 171 268 264h102z" />
<glyph unicode="&#xe3;" horiz-adv-x="970" d="M723 449q23 58 41 143t24 140l7 56q-54 21 -127 21q-89 0 -178.5 -89t-144 -214.5t-54.5 -233.5q0 -89 22.5 -131.5t73.5 -42.5t157 108.5t179 242.5zM836 283q-17 -73 -17 -131q0 -33 16.5 -49.5t43.5 -16.5q45 0 98 14l4 -6v-53q-35 -18 -54 -27.5t-61 -21.5t-80 -12 q-52 0 -89.5 26.5t-37.5 81.5q0 35 15 96l26 107l-4 4q-44 -66 -72 -104t-67 -84t-70.5 -70t-72 -40.5t-82.5 -16.5q-50 0 -88 16.5t-60.5 42t-36.5 61t-19 69t-5 71.5q0 93 37 191t96.5 178.5t130.5 145.5t144 101.5t131 36.5q108 0 163 -6q22 -4 86 1t70 5zM822 1157 q36 0 63.5 22.5t61.5 84.5l46 -13q-76 -184 -217 -184q-52 0 -120 53q-63 45 -101 45q-39 0 -66.5 -23t-54.5 -75l-47 10q42 93 90 138t113 45t135 -58q49 -45 97 -45z" />
<glyph unicode="&#xe4;" horiz-adv-x="970" d="M723 449q23 58 41 143t24 140l7 56q-54 21 -127 21q-89 0 -178.5 -89t-144 -214.5t-54.5 -233.5q0 -89 22.5 -131.5t73.5 -42.5t157 108.5t179 242.5zM836 283q-17 -73 -17 -131q0 -33 16.5 -49.5t43.5 -16.5q45 0 98 14l4 -6v-53q-35 -18 -54 -27.5t-61 -21.5t-80 -12 q-52 0 -89.5 26.5t-37.5 81.5q0 35 15 96l26 107l-4 4q-44 -66 -72 -104t-67 -84t-70.5 -70t-72 -40.5t-82.5 -16.5q-50 0 -88 16.5t-60.5 42t-36.5 61t-19 69t-5 71.5q0 93 37 191t96.5 178.5t130.5 145.5t144 101.5t131 36.5q108 0 163 -6q22 -4 86 1t70 5zM451 1178 q8 38 42 66t72 28t60 -28t14 -66t-42 -66.5t-72 -28.5t-60 28.5t-14 66.5zM795 1188q8 38 42 66t72 28t60 -28t14 -66t-42 -66t-72 -28t-60 28t-14 66z" />
<glyph unicode="&#xe5;" horiz-adv-x="970" d="M723 449q23 58 41 143t24 140l7 56q-54 21 -127 21q-89 0 -178.5 -89t-144 -214.5t-54.5 -233.5q0 -89 22.5 -131.5t73.5 -42.5t157 108.5t179 242.5zM836 283q-17 -73 -17 -131q0 -33 16.5 -49.5t43.5 -16.5q45 0 98 14l4 -6v-53q-35 -18 -54 -27.5t-61 -21.5t-80 -12 q-52 0 -89.5 26.5t-37.5 81.5q0 35 15 96l26 107l-4 4q-44 -66 -72 -104t-67 -84t-70.5 -70t-72 -40.5t-82.5 -16.5q-50 0 -88 16.5t-60.5 42t-36.5 61t-19 69t-5 71.5q0 93 37 191t96.5 178.5t130.5 145.5t144 101.5t131 36.5q108 0 163 -6q22 -4 86 1t70 5zM737 1329 q-46 0 -81.5 -34t-45.5 -81q-10 -45 11.5 -79.5t66.5 -34.5t81.5 34.5t45.5 79.5q11 48 -11 81.5t-67 33.5zM534 1214q15 70 79 120t135 50q72 0 114.5 -49.5t27.5 -120.5q-15 -69 -78 -119.5t-136 -50.5q-71 0 -114 50t-28 120z" />
<glyph unicode="&#xe6;" horiz-adv-x="1406" d="M700 440q-366 -33 -406 -223q-29 -135 117 -135q59 0 121 33t95 90q36 63 73 235zM880 528q54 3 112 4t91 1t68.5 1.5t54 6t36.5 15t27 27.5t15 44q8 36 0.5 76t-36.5 72t-75 32q-97 0 -175 -74.5t-118 -204.5zM585 807q-64 0 -136.5 -52.5t-133.5 -129.5l-26 2l-4 137 l8 8q178 127 330 127q28 0 55 -3.5t69 -16t76 -44t50 -79.5q65 69 149.5 106t172.5 37q48 0 88.5 -11t68 -29.5t49.5 -42t33 -49t19 -51t7 -47t-2 -36.5q-23 -103 -85 -148q-29 -14 -78.5 -21t-99.5 -8t-150 -3.5t-184 -6.5q-34 -163 14 -259.5t164 -96.5q133 0 282 139 l28 -57q-63 -85 -162.5 -138.5t-199.5 -53.5q-45 0 -81.5 6t-63.5 19.5t-45.5 25t-34.5 32t-22 29.5t-18 29q-177 -141 -337 -141q-157 0 -220.5 59.5t-40.5 167.5q28 130 180.5 213.5t412.5 101.5q33 144 4.5 214.5t-136.5 70.5z" />
<glyph unicode="&#xe7;" horiz-adv-x="808" d="M643 817q-113 0 -202 -137q-42 -66 -72 -162.5t-30 -191.5q0 -115 51 -179.5t134 -64.5q114 0 217 86h7l26 -43q-126 -137 -280 -145l-66 -113q25 6 54 6q63 0 97 -35t21 -92q-14 -66 -85.5 -109t-165.5 -43q-46 0 -76 8t-68 27q7 33 32 54q33 -13 45 -17t30 -8t38 -4 q47 0 80 21.5t41 60.5q15 71 -52 71q-53 0 -95 -12l-9 12l110 176q-122 15 -195 104t-73 231q0 243 168 418q74 77 164.5 120t174.5 43q68 0 130.5 -16t100.5 -41l4 -6l-80 -168l-22 -2q-47 151 -154 151z" />
<glyph unicode="&#xe8;" horiz-adv-x="874" d="M756 745q0 80 -102 80q-214 0 -299 -329q401 17 401 249zM345 425q0 -4 -2 -23t-3 -36.5t-1 -25.5q0 -129 48.5 -195.5t122.5 -66.5q73 0 163.5 59.5t134.5 136.5l12 -2q1 -8 4.5 -32t7 -43t8.5 -29q-62 -86 -170.5 -137t-235.5 -51q-125 0 -200.5 90.5t-75.5 221.5 q0 79 21 162.5t66 163t108 142t153.5 101t194.5 38.5q108 0 158 -43t50 -114q0 -21 -3 -41.5t-16.5 -52t-36 -58t-65.5 -56t-100 -51t-145.5 -37.5t-197.5 -21zM701 1374l89 -258q10 -28 1.5 -50t-35.5 -22q-16 0 -50 41l-186 224l8 22q74 47 144 47q13 0 29 -4z" />
<glyph unicode="&#xe9;" horiz-adv-x="874" d="M756 745q0 80 -102 80q-214 0 -299 -329q401 17 401 249zM345 425q0 -4 -2 -23t-3 -36.5t-1 -25.5q0 -129 48.5 -195.5t122.5 -66.5q73 0 163.5 59.5t134.5 136.5l12 -2q1 -8 4.5 -32t7 -43t8.5 -29q-62 -86 -170.5 -137t-235.5 -51q-125 0 -200.5 90.5t-75.5 221.5 q0 79 21 162.5t66 163t108 142t153.5 101t194.5 38.5q108 0 158 -43t50 -114q0 -21 -3 -41.5t-16.5 -52t-36 -58t-65.5 -56t-100 -51t-145.5 -37.5t-197.5 -21zM777 1364q14 4 30 4q63 0 102 -47l2 -23l-283 -223q-47 -39 -70 -39q-11 0 -18 8.5t-5 18.5q1 5 2 9t3.5 8 t3.5 6.5t5 7.5t6 7t7.5 9t8.5 10z" />
<glyph unicode="&#xea;" horiz-adv-x="874" d="M756 745q0 80 -102 80q-214 0 -299 -329q401 17 401 249zM345 425q0 -4 -2 -23t-3 -36.5t-1 -25.5q0 -129 48.5 -195.5t122.5 -66.5q73 0 163.5 59.5t134.5 136.5l12 -2q1 -8 4.5 -32t7 -43t8.5 -29q-62 -86 -170.5 -137t-235.5 -51q-125 0 -200.5 90.5t-75.5 221.5 q0 79 21 162.5t66 163t108 142t153.5 101t194.5 38.5q108 0 158 -43t50 -114q0 -21 -3 -41.5t-16.5 -52t-36 -58t-65.5 -56t-100 -51t-145.5 -37.5t-197.5 -21zM729 1337q43 -106 151 -264l-49 -29q-120 106 -178 185q-111 -94 -258 -185l-35 29q186 168 267 264h102z" />
<glyph unicode="&#xeb;" horiz-adv-x="874" d="M756 745q0 80 -102 80q-214 0 -299 -329q401 17 401 249zM345 425q0 -4 -2 -23t-3 -36.5t-1 -25.5q0 -129 48.5 -195.5t122.5 -66.5q73 0 163.5 59.5t134.5 136.5l12 -2q1 -8 4.5 -32t7 -43t8.5 -29q-62 -86 -170.5 -137t-235.5 -51q-125 0 -200.5 90.5t-75.5 221.5 q0 79 21 162.5t66 163t108 142t153.5 101t194.5 38.5q108 0 158 -43t50 -114q0 -21 -3 -41.5t-16.5 -52t-36 -58t-65.5 -56t-100 -51t-145.5 -37.5t-197.5 -21zM400 1178q8 38 42 66t72 28t60 -28t14 -66t-42 -66.5t-72 -28.5t-60 28.5t-14 66.5zM744 1188q8 38 42 66t72 28 t60 -28t14 -66t-42 -66t-72 -28t-60 28t-14 66z" />
<glyph unicode="&#xec;" horiz-adv-x="548" d="M295 481q55 259 58 371l5 6q93 7 189 41q19 0 15 -20q-49 -146 -96 -365l-31 -145q-48 -229 -58 -369l-5 -6q-28 6 -98 6q-32 0 -57 -1.5t-35 -2.5l-9 -2l-1 6q49 136 99 369zM450 1374l88 -258q10 -28 1.5 -50t-35.5 -22q-16 0 -50 41l-186 224l8 22q74 47 144 47 q14 0 30 -4z" />
<glyph unicode="&#xed;" horiz-adv-x="548" d="M295 481q55 259 58 371l5 6q93 7 189 41q19 0 15 -20q-49 -146 -96 -365l-31 -145q-48 -229 -58 -369l-5 -6q-28 6 -98 6q-32 0 -57 -1.5t-35 -2.5l-9 -2l-1 6q49 136 99 369zM638 1393q14 4 29 4q64 0 103 -47l1 -23l-283 -223q-47 -39 -69 -39q-11 0 -18 8.5t-5 18.5 q2 11 7 20.5t9 14t19 22.5z" />
<glyph unicode="&#xee;" horiz-adv-x="548" d="M295 481q55 259 58 371l5 6q93 7 189 41q19 0 15 -20q-49 -146 -96 -365l-31 -145q-48 -229 -58 -369l-5 -6q-28 6 -98 6q-32 0 -57 -1.5t-35 -2.5l-9 -2l-1 6q49 136 99 369zM588 1337q43 -106 151 -264l-49 -29q-120 106 -178 185q-111 -94 -258 -185l-35 29 q186 168 267 264h102z" />
<glyph unicode="&#xef;" horiz-adv-x="548" d="M295 481q55 259 58 371l5 6q93 7 189 41q19 0 15 -20q-49 -146 -96 -365l-31 -145q-48 -229 -58 -369l-5 -6q-28 6 -98 6q-32 0 -57 -1.5t-35 -2.5l-9 -2l-1 6q49 136 99 369zM238 1178q8 38 42 66t72 28t60 -28t14 -66t-42 -66.5t-72 -28.5t-60 28.5t-14 66.5zM582 1188 q8 38 42 66t72 28t60 -28t14 -66t-42 -66t-72 -28t-60 28t-14 66z" />
<glyph unicode="&#xf0;" horiz-adv-x="1013" d="M554 63q32 0 62.5 8.5t67 34.5t67 67.5t58.5 114t46 167.5q29 154 21 274q-50 86 -191 86q-60 0 -108.5 -23t-80 -57t-57 -84t-39 -94t-24.5 -98q-37 -172 15.5 -284t162.5 -112zM185 424q22 102 67.5 185t100.5 135.5t119.5 88.5t123 51t111.5 15q84 0 152 -29 q-30 151 -120 301l-217 -124l-31 65l207 121l-25 33q-32 44 -121 118l49 46q97 -60 186 -146l248 146l31 -66l-227 -133l29 -37q255 -324 173 -711q-27 -126 -83 -224t-129 -158t-156 -90.5t-171 -30.5q-74 0 -135 25.5t-99.5 69t-63.5 101t-27.5 120.5t8.5 128z" />
<glyph unicode="&#xf1;" horiz-adv-x="1032" d="M965 369q-51 -243 -60 -369l-4 -6q-37 6 -98 6q-28 0 -53.5 -1.5t-36.5 -2.5l-11 -2v6q43 116 97 369l43 200q24 125 4.5 166t-92.5 41q-56 0 -137.5 -41.5t-165.5 -126.5l-52 -239q-50 -236 -59 -369l-6 -6q-33 6 -96 6q-28 0 -53 -1.5t-37 -2.5l-11 -2l-2 6 q49 138 98 369l23 112q50 233 29 365l4 6q82 8 168 43q10 0 13.5 -3.5t2.5 -17.5q5 -65 -4 -153l4 -6q69 71 144.5 115t125 56.5t91.5 12.5q248 0 180 -324q-7 -33 -24.5 -103t-24.5 -103zM906 1167q36 0 63.5 22.5t61.5 84.5l46 -12q-77 -185 -217 -185q-52 0 -120 53 q-64 46 -101 46q-39 0 -66.5 -23.5t-54.5 -75.5l-47 10q42 93 90 138t113 45t135 -58q49 -45 97 -45z" />
<glyph unicode="&#xf2;" horiz-adv-x="1003" d="M742 1374l89 -258q10 -28 1.5 -50t-35.5 -22q-17 0 -51 41l-185 224l8 22q74 47 143 47q14 0 30 -4zM299 709q75 86 178 138t220 52q91 0 158.5 -27.5t106 -76t56.5 -106.5t18 -127q0 -140 -68 -276t-180 -218q-121 -88 -291 -88q-166 0 -255.5 96t-89.5 243 q0 221 147 390zM669 815q-92 0 -168.5 -72t-117.5 -183.5t-41 -231.5q0 -265 192 -265q115 0 200 107q55 70 87 165t32 244q0 236 -184 236z" />
<glyph unicode="&#xf3;" horiz-adv-x="1003" d="M796 1364q14 4 29 4q64 0 103 -47l1 -23l-283 -223q-47 -39 -69 -39q-11 0 -18.5 8.5t-5.5 18.5q1 5 2 9t3.5 8t3.5 6.5t5 7.5t6 7t7.5 9t8.5 10zM299 709q75 86 178 138t220 52q91 0 158.5 -27.5t106 -76t56.5 -106.5t18 -127q0 -140 -68 -276t-180 -218 q-121 -88 -291 -88q-166 0 -255.5 96t-89.5 243q0 221 147 390zM669 815q-92 0 -168.5 -72t-117.5 -183.5t-41 -231.5q0 -265 192 -265q115 0 200 107q55 70 87 165t32 244q0 236 -184 236z" />
<glyph unicode="&#xf4;" horiz-adv-x="1003" d="M815 1337q43 -106 151 -264l-49 -29q-120 106 -178 185q-109 -92 -259 -185l-34 29q186 168 267 264h102zM299 709q75 86 178 138t220 52q91 0 158.5 -27.5t106 -76t56.5 -106.5t18 -127q0 -140 -68 -276t-180 -218q-121 -88 -291 -88q-166 0 -255.5 96t-89.5 243 q0 221 147 390zM669 815q-92 0 -168.5 -72t-117.5 -183.5t-41 -231.5q0 -265 192 -265q115 0 200 107q55 70 87 165t32 244q0 236 -184 236z" />
<glyph unicode="&#xf5;" horiz-adv-x="1003" d="M853 1167q36 0 63.5 22.5t61.5 84.5l46 -12q-77 -185 -217 -185q-52 0 -120 53q-64 46 -101 46q-39 0 -66.5 -23.5t-54.5 -75.5l-47 10q42 93 90 138t113 45t135 -58q49 -45 97 -45zM299 709q75 86 178 138t220 52q91 0 158.5 -27.5t106 -76t56.5 -106.5t18 -127 q0 -140 -68 -276t-180 -218q-121 -88 -291 -88q-166 0 -255.5 96t-89.5 243q0 221 147 390zM669 815q-92 0 -168.5 -72t-117.5 -183.5t-41 -231.5q0 -265 192 -265q115 0 200 107q55 70 87 165t32 244q0 236 -184 236z" />
<glyph unicode="&#xf6;" horiz-adv-x="1003" d="M299 709q75 86 178 138t220 52q91 0 158.5 -27.5t106 -76t56.5 -106.5t18 -127q0 -140 -68 -276t-180 -218q-121 -88 -291 -88q-166 0 -255.5 96t-89.5 243q0 221 147 390zM669 815q-92 0 -168.5 -72t-117.5 -183.5t-41 -231.5q0 -265 192 -265q115 0 200 107 q55 70 87 165t32 244q0 236 -184 236zM473 1178q8 38 42.5 66t72.5 28t60 -28t14 -66t-42 -66.5t-72 -28.5t-60.5 28.5t-14.5 66.5zM818 1188q8 38 42 66t72 28t60 -28t14 -66t-42 -66t-72 -28t-60 28t-14 66z" />
<glyph unicode="&#xf7;" horiz-adv-x="1079" d="M607 751l1 7q20 35 45.5 56.5t66.5 36.5h7q65 -25 73 -93l-1 -7q-39 -75 -113 -92h-6q-39 9 -55 29t-18 63zM490 203l2 6q20 35 45.5 56.5t66.5 36.5h7q65 -25 73 -93l-2 -6q-22 -41 -48 -62.5t-64 -30.5h-7q-38 9 -54.5 29.5t-18.5 63.5zM1056 526l-21 -100h-809l21 100 h809z" />
<glyph unicode="&#xf8;" horiz-adv-x="1003" d="M963 977l67 -49l-89 -110q95 -89 95 -256q0 -140 -68 -276t-180 -218q-121 -88 -291 -88q-117 0 -197 49l-103 -127l-68 55l105 128q-82 93 -82 234q0 221 147 390q75 86 178 138t220 52q103 0 174 -34zM669 815q-92 0 -168.5 -72t-117.5 -183.5t-41 -231.5q0 -52 9 -100 l443 543q-46 44 -125 44zM839 692l-453 -557q49 -72 148 -72q115 0 200 107q55 70 87 165t32 244q0 68 -14 113z" />
<glyph unicode="&#xf9;" horiz-adv-x="1052" d="M757 1374l88 -258q10 -28 1.5 -50t-34.5 -22q-17 0 -51 41l-186 224l9 22q74 47 143 47q14 0 30 -4zM739 131q-173 -151 -326 -151q-68 0 -113 24t-62 63.5t-21 89.5t10 101l53 252q52 244 58 369l6 6q27 -6 97 -6q32 0 57 1.5t34 3.5l10 1l1 -6q-45 -117 -99 -369 l-43 -203q-14 -68 -15 -110.5t13.5 -65.5t38 -31t63.5 -8q99 0 261 152l57 266q52 244 58 369l5 6q27 -6 97 -6q32 0 57.5 1.5t35.5 3.5l9 1l1 -6q-45 -117 -99 -369l-25 -117q-45 -209 -49 -393l-5 -6q-39 6 -90 6q-16 0 -72 -6q-9 0 -13.5 1.5t-3.5 4.5l18 131h-4z" />
<glyph unicode="&#xfa;" horiz-adv-x="1052" d="M884 1364q14 4 29 4q64 0 103 -47l1 -23l-283 -223q-47 -39 -69 -39q-11 0 -18.5 8.5t-5.5 18.5q1 5 2 9t3.5 8t3.5 6.5t5 7.5t6 7t7.5 9t8.5 10zM739 131q-173 -151 -326 -151q-68 0 -113 24t-62 63.5t-21 89.5t10 101l53 252q52 244 58 369l6 6q27 -6 97 -6 q32 0 57 1.5t34 3.5l10 1l1 -6q-45 -117 -99 -369l-43 -203q-14 -68 -15 -110.5t13.5 -65.5t38 -31t63.5 -8q99 0 261 152l57 266q52 244 58 369l5 6q27 -6 97 -6q32 0 57.5 1.5t35.5 3.5l9 1l1 -6q-45 -117 -99 -369l-25 -117q-45 -209 -49 -393l-5 -6q-39 6 -90 6 q-16 0 -72 -6q-9 0 -13.5 1.5t-3.5 4.5l18 131h-4z" />
<glyph unicode="&#xfb;" horiz-adv-x="1052" d="M852 1337q43 -106 151 -264l-49 -29q-120 106 -178 185q-109 -92 -259 -185l-34 29q186 168 267 264h102zM739 131q-173 -151 -326 -151q-68 0 -113 24t-62 63.5t-21 89.5t10 101l53 252q52 244 58 369l6 6q27 -6 97 -6q32 0 57 1.5t34 3.5l10 1l1 -6q-45 -117 -99 -369 l-43 -203q-14 -68 -15 -110.5t13.5 -65.5t38 -31t63.5 -8q99 0 261 152l57 266q52 244 58 369l5 6q27 -6 97 -6q32 0 57.5 1.5t35.5 3.5l9 1l1 -6q-45 -117 -99 -369l-25 -117q-45 -209 -49 -393l-5 -6q-39 6 -90 6q-16 0 -72 -6q-9 0 -13.5 1.5t-3.5 4.5l18 131h-4z" />
<glyph unicode="&#xfc;" horiz-adv-x="1052" d="M739 131q-173 -151 -326 -151q-68 0 -113 24t-62 63.5t-21 89.5t10 101l53 252q52 244 58 369l6 6q27 -6 97 -6q32 0 57 1.5t34 3.5l10 1l1 -6q-45 -117 -99 -369l-43 -203q-14 -68 -15 -110.5t13.5 -65.5t38 -31t63.5 -8q99 0 261 152l57 266q52 244 58 369l5 6 q27 -6 97 -6q32 0 57.5 1.5t35.5 3.5l9 1l1 -6q-45 -117 -99 -369l-25 -117q-45 -209 -49 -393l-5 -6q-39 6 -90 6q-16 0 -72 -6q-9 0 -13.5 1.5t-3.5 4.5l18 131h-4zM490 1178q8 38 42 66t72 28t60 -28t14 -66t-42 -66.5t-72 -28.5t-60 28.5t-14 66.5zM834 1188q8 38 42 66 t72 28t60 -28t14 -66t-42 -66t-72 -28t-60 28t-14 66z" />
<glyph unicode="&#xfd;" horiz-adv-x="995" d="M808 1366q14 4 29 4q64 0 103 -47l1 -23l-283 -223q-47 -39 -69 -39q-11 0 -18 8.5t-5 18.5q2 11 7 20.5t9 14t19 22.5zM225 885q27 -6 105 -6q74 0 102 6q5 -43 11.5 -90t12 -82.5t15.5 -91.5t14.5 -83t17.5 -92.5t16.5 -83.5t19 -94.5t17.5 -88.5h4q194 284 419 706 q19 -6 78 -6q67 0 89 6q-123 -173 -461 -688.5t-424 -681.5q-32 10 -98 10q-37 0 -74 -10q182 224 324 446q-22 137 -87.5 455.5t-100.5 468.5z" />
<glyph unicode="&#xfe;" horiz-adv-x="1034" d="M467 627l-102 -480q54 -88 156 -88q63 0 114 22t84.5 55.5t60.5 84t42 98t28 107.5q21 89 18 153t-16.5 105.5t-40 66t-52.5 34.5t-56 10q-56 0 -121.5 -44.5t-114.5 -123.5zM320 -66q-59 -275 -67 -409l-5 -6q-27 6 -97 6q-32 0 -57.5 -1.5t-35.5 -3.5l-9 -1v6 q49 131 107 409l224 1053q59 279 63 395l6 7q95 7 191 41q18 0 14 -21q-55 -164 -102 -385l-48 -221l-16 -68q136 164 291 164q97 0 170 -59.5t103 -156t7 -202.5q-48 -223 -205 -362t-340 -139q-102 0 -175 45z" />
<glyph unicode="&#xff;" horiz-adv-x="995" d="M225 885q27 -6 105 -6q74 0 102 6q5 -43 11.5 -90t12 -82.5t15.5 -91.5t14.5 -83t17.5 -92.5t16.5 -83.5t19 -94.5t17.5 -88.5h4q194 284 419 706q19 -6 78 -6q67 0 89 6q-123 -173 -461 -688.5t-424 -681.5q-32 10 -98 10q-37 0 -74 -10q182 224 324 446 q-22 137 -87.5 455.5t-100.5 468.5zM488 1178q8 38 42 66t72 28t60 -28t14 -66t-42 -66.5t-72 -28.5t-60 28.5t-14 66.5zM832 1188q8 38 42 66t72 28t60 -28t14 -66t-42 -66t-72 -28t-60 28t-14 66z" />
<glyph unicode="&#x100;" d="M1225 1487h-499q-13 0 -18 9.5t-2 21.5q4 20 22 39.5t35 19.5h502q14 0 20 -9.5t3 -19.5q-4 -20 -24 -40.5t-39 -20.5zM470 468q-195 -315 -271 -474q-23 6 -90 6q-47 0 -73 -6q539 806 892 1354h57q35 -167 95 -483.5t106.5 -548t71.5 -322.5q-34 6 -121 6 q-68 0 -104 -6q-12 182 -59 474q-115 3 -239 3q-148 0 -265 -3zM958 564q-46 261 -100 505h-4q-33 -51 -97.5 -151.5t-121 -188t-104.5 -164.5q19 0 99 -2t114 -2q112 0 214 3z" />
<glyph unicode="&#x101;" horiz-adv-x="970" d="M941 1104h-499q-13 0 -18 9.5t-3 21.5q4 19 22.5 39t35.5 20h502q14 0 19.5 -9.5t2.5 -19.5q-4 -20 -23.5 -40.5t-38.5 -20.5zM723 449q23 58 41 143t24 140l7 56q-54 21 -127 21q-89 0 -178.5 -89t-144 -214.5t-54.5 -233.5q0 -89 22.5 -131.5t73.5 -42.5t157 108.5 t179 242.5zM836 283q-17 -73 -17 -131q0 -33 16.5 -49.5t43.5 -16.5q45 0 98 14l4 -6v-53q-35 -18 -54 -27.5t-61 -21.5t-80 -12q-52 0 -89.5 26.5t-37.5 81.5q0 35 15 96l26 107l-4 4q-44 -66 -72 -104t-67 -84t-70.5 -70t-72 -40.5t-82.5 -16.5q-50 0 -88 16.5t-60.5 42 t-36.5 61t-19 69t-5 71.5q0 93 37 191t96.5 178.5t130.5 145.5t144 101.5t131 36.5q108 0 163 -6q22 -4 86 1t70 5z" />
<glyph unicode="&#x102;" d="M1304 1647q-31 -105 -126 -168.5t-201 -63.5q-115 0 -180 63.5t-50 168.5h58q-1 -58 54 -91.5t140 -33.5q80 0 153 34t95 91h57zM470 468q-195 -315 -271 -474q-23 6 -90 6q-47 0 -73 -6q539 806 892 1354h57q35 -167 95 -483.5t106.5 -548t71.5 -322.5q-34 6 -121 6 q-68 0 -104 -6q-12 182 -59 474q-115 3 -239 3q-148 0 -265 -3zM958 564q-46 261 -100 505h-4q-33 -51 -97.5 -151.5t-121 -188t-104.5 -164.5q19 0 99 -2t114 -2q112 0 214 3z" />
<glyph unicode="&#x103;" horiz-adv-x="970" d="M495 1325q-1 -82 49 -133t133 -51q82 0 154.5 48.5t105.5 135.5l50 -25q-44 -126 -141.5 -201t-193.5 -75q-108 0 -166 73t-52 203zM723 449q23 58 41 143t24 140l7 56q-54 21 -127 21q-89 0 -178.5 -89t-144 -214.5t-54.5 -233.5q0 -89 22.5 -131.5t73.5 -42.5 t157 108.5t179 242.5zM836 283q-17 -73 -17 -131q0 -33 16.5 -49.5t43.5 -16.5q45 0 98 14l4 -6v-53q-35 -18 -54 -27.5t-61 -21.5t-80 -12q-52 0 -89.5 26.5t-37.5 81.5q0 35 15 96l26 107l-4 4q-44 -66 -72 -104t-67 -84t-70.5 -70t-72 -40.5t-82.5 -16.5q-50 0 -88 16.5 t-60.5 42t-36.5 61t-19 69t-5 71.5q0 93 37 191t96.5 178.5t130.5 145.5t144 101.5t131 36.5q108 0 163 -6q22 -4 86 1t70 5z" />
<glyph unicode="&#x104;" d="M1045 -330q-53 -52 -114 -83t-113 -31q-75 0 -109.5 41.5t-19.5 113.5q36 169 339 346q-17 185 -54 415q-115 3 -239 3q-148 0 -265 -3q-195 -315 -271 -474q-23 6 -90 6q-47 0 -73 -6q539 806 892 1354h57q35 -167 95 -483.5t106.5 -548t71.5 -322.5q-34 6 -121 6 q-68 0 -104 -6q-95 -78 -142 -136t-62 -128q-7 -34 11.5 -61t56.5 -27q52 0 121 61l6 -2zM958 568q-46 261 -100 505h-4q-33 -51 -97.5 -151.5t-121 -188t-104.5 -164.5q19 0 99 -2t114 -2q112 0 214 3z" />
<glyph unicode="&#x105;" horiz-adv-x="903" d="M682 180l33 111l-4 4q-103 -152 -190 -236t-163 -84q-198 0 -198 281q0 116 50 236.5t125.5 209.5t167.5 146t173 57q60 0 170 -12q41 -10 143 -10l-139 -641q-25 -98 -25 -125q0 -11 6.5 -18.5t11.5 -9t9 -1.5q7 0 31 14q25 16 94 99l39 -23q-40 -54 -66 -84t-59 -59 q-215 -190 -215 -287q0 -36 29 -63t77 -27q42 0 73.5 17t78.5 57l29 -15q-115 -139 -242 -139q-76 0 -123 36.5t-47 102.5q0 121 164 265q-49 18 -49 86q0 57 16 112zM737 449q23 58 42.5 146.5t27.5 148.5l8 59q-61 39 -133 39q-67 0 -134.5 -56t-115.5 -139t-78 -180 t-30 -178q0 -201 90 -201q49 0 148.5 111t174.5 250z" />
<glyph unicode="&#x106;" horiz-adv-x="1331" d="M1159 1677q80 -41 105 -106l-320 -119q-65 -25 -92 -25q-13 0 -19.5 9.5t-4.5 21.5q5 23 40 43zM1034 1348q70 0 139.5 -9.5t119 -23t89.5 -27.5t60 -24l19 -9l3 -6q-10 -23 -28 -61t-24 -53.5t-17 -45.5t-21 -67l-20 -2q-66 231 -369 231q-53 0 -113.5 -18.5t-128.5 -62 t-127 -106.5t-109 -162t-75 -218q-19 -92 -21 -177.5t17 -163t58 -134.5t108 -91t161 -34q151 0 270 44t248 159l41 -31q-131 -134 -288.5 -205t-310.5 -71q-107 0 -195 26.5t-146.5 72.5t-100.5 109.5t-58.5 137.5t-19 155.5t17.5 163.5q42 196 172.5 359t303 253.5 t345.5 90.5z" />
<glyph unicode="&#x107;" horiz-adv-x="894" d="M841 1374q14 4 30 4q63 0 102 -47l1 -22l-282 -224q-45 -38 -70 -38q-11 0 -18 8t-5 18q2 11 7 20.5t9 14t19 22.5zM704 807q-112 0 -217 -89t-139 -247q-19 -90 -8.5 -161t43 -119.5t82 -74.5t109.5 -26q137 0 253 129h8l34 -33q-70 -101 -168 -153.5t-195 -52.5 q-194 0 -289 124t-53 322q22 105 82.5 196t139 150.5t168 93t172.5 33.5q72 0 142.5 -19t117.5 -46l3 -7l-83 -168l-27 -2q-26 71 -71.5 110.5t-103.5 39.5z" />
<glyph unicode="&#x108;" horiz-adv-x="1331" d="M1125 1651q63 -102 166 -193l-42 -43q-113 58 -190 127q-117 -74 -246 -127l-20 43q104 67 244 193h88zM1034 1348q70 0 139.5 -9.5t119 -23t89.5 -27.5t60 -24l19 -9l3 -6q-10 -23 -28 -61t-24 -53.5t-17 -45.5t-21 -67l-20 -2q-66 231 -369 231q-53 0 -113.5 -18.5 t-128.5 -62t-127 -106.5t-109 -162t-75 -218q-19 -92 -21 -177.5t17 -163t58 -134.5t108 -91t161 -34q151 0 270 44t248 159l41 -31q-131 -134 -288.5 -205t-310.5 -71q-107 0 -195 26.5t-146.5 72.5t-100.5 109.5t-58.5 137.5t-19 155.5t17.5 163.5q42 196 172.5 359 t303 253.5t345.5 90.5z" />
<glyph unicode="&#x109;" horiz-adv-x="808" d="M729 1323q43 -106 151 -264l-49 -29q-42 37 -65.5 59t-55.5 56t-57 69q-104 -88 -259 -184l-34 29q186 168 267 264h102zM643 817q-113 0 -202 -137q-42 -66 -72 -162.5t-30 -191.5q0 -115 51 -179.5t134 -64.5q114 0 217 86h7l26 -43q-71 -77 -143.5 -111t-157.5 -34 q-142 0 -229 91t-87 247q0 243 168 418q74 77 164.5 120t174.5 43q68 0 130.5 -16t100.5 -41l4 -6l-80 -168l-22 -2q-47 151 -154 151z" />
<glyph unicode="&#x10a;" horiz-adv-x="1331" d="M953 1534q9 41 47 72.5t79 31.5t66.5 -31.5t16.5 -72.5t-47.5 -72.5t-79.5 -31.5t-66 31.5t-16 72.5zM1034 1348q70 0 139.5 -9.5t119 -23t89.5 -27.5t60 -24l19 -9l3 -6q-10 -23 -28 -61t-24 -53.5t-17 -45.5t-21 -67l-20 -2q-66 231 -369 231q-53 0 -113.5 -18.5 t-128.5 -62t-127 -106.5t-109 -162t-75 -218q-19 -92 -21 -177.5t17 -163t58 -134.5t108 -91t161 -34q151 0 270 44t248 159l41 -31q-131 -134 -288.5 -205t-310.5 -71q-107 0 -195 26.5t-146.5 72.5t-100.5 109.5t-58.5 137.5t-19 155.5t17.5 163.5q42 196 172.5 359 t303 253.5t345.5 90.5z" />
<glyph unicode="&#x10b;" horiz-adv-x="808" d="M539 1229q0 41 31.5 72.5t72.5 31.5t73 -31.5t32 -72.5t-32 -73t-73 -32t-72.5 32t-31.5 73zM643 817q-113 0 -202 -137q-42 -66 -72 -162.5t-30 -191.5q0 -115 51 -179.5t134 -64.5q114 0 217 86h7l26 -43q-71 -77 -143.5 -111t-157.5 -34q-142 0 -229 91t-87 247 q0 243 168 418q74 77 164.5 120t174.5 43q68 0 130.5 -16t100.5 -41l4 -6l-80 -168l-22 -2q-47 151 -154 151z" />
<glyph unicode="&#x10c;" horiz-adv-x="1331" d="M985 1427q-54 91 -165 195l41 41q112 -55 191 -125q133 81 246 125l22 -41q-116 -75 -246 -195h-89zM1034 1348q70 0 139.5 -9.5t119 -23t89.5 -27.5t60 -24l19 -9l3 -6q-10 -23 -28 -61t-24 -53.5t-17 -45.5t-21 -67l-20 -2q-66 231 -369 231q-53 0 -113.5 -18.5 t-128.5 -62t-127 -106.5t-109 -162t-75 -218q-19 -92 -21 -177.5t17 -163t58 -134.5t108 -91t161 -34q151 0 270 44t248 159l41 -31q-131 -134 -288.5 -205t-310.5 -71q-107 0 -195 26.5t-146.5 72.5t-100.5 109.5t-58.5 137.5t-19 155.5t17.5 163.5q42 196 172.5 359 t303 253.5t345.5 90.5z" />
<glyph unicode="&#x10d;" horiz-adv-x="808" d="M578 1028q-50 122 -151 266l47 27q42 -37 65.5 -59t55.5 -56t57 -69q91 77 260 184l34 -27q-174 -156 -266 -266h-102zM643 817q-113 0 -202 -137q-42 -66 -72 -162.5t-30 -191.5q0 -115 51 -179.5t134 -64.5q114 0 217 86h7l26 -43q-71 -77 -143.5 -111t-157.5 -34 q-142 0 -229 91t-87 247q0 243 168 418q74 77 164.5 120t174.5 43q68 0 130.5 -16t100.5 -41l4 -6l-80 -168l-22 -2q-47 151 -154 151z" />
<glyph unicode="&#x10e;" horiz-adv-x="1429" d="M899 1427q-54 91 -165 195l41 41q112 -55 191 -125q133 81 246 125l22 -41q-116 -75 -246 -195h-89zM419 168q-8 -36 3 -51.5t55.5 -23t146.5 -7.5q94 0 169 11.5t151.5 44t133.5 86.5t103.5 143.5t72.5 210.5q21 100 23.5 189.5t-21 176.5t-74 149.5t-143.5 101 t-221 38.5q-42 0 -70.5 -3t-55 -11t-42.5 -25t-21 -43zM576 1321q66 0 170 3t169 3q97 0 184 -25t154.5 -70.5t120 -109.5t80.5 -141.5t36 -166t-14 -183.5q-31 -145 -98 -259t-149 -183t-182.5 -114t-192.5 -62t-185 -17q-114 0 -212 2t-162 2q-32 0 -59 -1.5t-38 -2.5 l-11 -2l-1 6q50 138 108 410l107 501q56 260 66 410l5 6q34 -6 104 -6z" />
<glyph unicode="&#x10f;" horiz-adv-x="1081" d="M1314 1430q56 0 80 -45.5t11 -104.5q-14 -67 -84.5 -136.5t-170.5 -80.5l-3 35q62 12 106 56t53 85q4 20 -1.5 31.5t-17.5 11.5q-95 0 -78 78q6 27 34 48.5t71 21.5zM749 236l95 450q-27 64 -64 94.5t-105 30.5q-134 0 -222 -113q-45 -58 -82 -169.5t-37 -216.5 q0 -112 48.5 -167t131.5 -55q89 0 235 146zM726 131q-149 -151 -288 -151q-124 0 -206 91.5t-82 236.5t62.5 263.5t162.5 201.5q153 126 342 126q34 0 84 -13t79 -32l28 133q62 295 66 397l5 7q92 7 183 39q18 0 14 -21q-45 -143 -96 -385l-134 -631q-51 -239 -51 -342 q0 -23 4 -51l-5 -6q-39 6 -90 6q-12 0 -68 -6q-6 0 -10 1.5t-3 4.5q2 78 9 131h-6z" />
<glyph unicode="&#x110;" horiz-adv-x="1429" d="M419 168q-8 -36 3 -51.5t55.5 -23t146.5 -7.5q94 0 169 11.5t151.5 44t133.5 86.5t103.5 143.5t72.5 210.5q21 100 23.5 189.5t-21 176.5t-74 149.5t-143.5 101t-221 38.5q-42 0 -70.5 -3t-55 -11t-42.5 -25t-21 -43l-104 -485h322l-18 -82h-321zM576 1321q66 0 170 3 t169 3q97 0 184 -25t154.5 -70.5t120 -109.5t80.5 -141.5t36 -166t-14 -183.5q-31 -145 -98 -259t-149 -183t-182.5 -114t-192.5 -62t-185 -17q-114 0 -212 2t-162 2q-32 0 -59 -1.5t-38 -2.5l-11 -2l-1 6q50 138 108 410l38 178h-172l17 82h172l52 241q56 260 66 410l5 6 q34 -6 104 -6z" />
<glyph unicode="&#x111;" horiz-adv-x="1052" d="M1349 1171l-15 -79h-198q-10 -44 -15 -68l-134 -631q-45 -209 -49 -393l-5 -6q-39 6 -90 6q-16 0 -72 -6q-9 0 -13.5 1.5t-3.5 4.5l17 131h-4q-69 -69 -159 -110t-166 -41q-164 0 -238 122.5t-34 313.5q44 207 214.5 345t373.5 138q34 0 84 -13t79 -32l28 133 q5 23 22 105h-245l17 79h242q22 126 25 201l6 6q30 2 60 8.5t44.5 11t48.5 17.5t40 15q19 0 14 -21q-42 -126 -69 -238h195zM787 223l98 463q-27 63 -64 92t-105 29q-35 0 -70 -7t-81.5 -30t-85 -59.5t-73.5 -103t-54 -154.5q-28 -127 -5 -206.5t68 -115t105 -35.5 q140 0 267 127z" />
<glyph unicode="&#x112;" horiz-adv-x="1069" d="M1108 1501h-500q-13 0 -18 9.5t-2 21.5q4 19 22.5 39t35.5 20h501q14 0 20 -9t3 -19q-4 -20 -23.5 -41t-38.5 -21zM997 758q-25 -56 -25 -115l-7 -6q-197 20 -453 20l-52 -247q-51 -254 -47 -299q122 0 267.5 6t229.5 12l85 6l3 -8q-15 -40 -27 -127l-6 -6q-48 6 -121 6 h-559q-32 0 -59 -1.5t-38 -2.5l-11 -2l-1 6q50 138 108 410l106 501q57 267 67 410l5 6q33 -6 103 -6h539q73 0 124 6l3 -6q-23 -83 -25 -117l-6 -8q-278 25 -551 25q-16 -31 -44 -143.5t-39 -166.5l-35 -168q203 0 461 21z" />
<glyph unicode="&#x113;" horiz-adv-x="874" d="M908 1102h-499q-13 0 -18 9.5t-2 21.5q4 20 22 39.5t35 19.5h502q14 0 20 -9.5t3 -19.5q-4 -20 -24 -40.5t-39 -20.5zM756 745q0 80 -102 80q-214 0 -299 -329q401 17 401 249zM345 425q0 -4 -2 -23t-3 -36.5t-1 -25.5q0 -129 48.5 -195.5t122.5 -66.5q73 0 163.5 59.5 t134.5 136.5l12 -2q1 -8 4.5 -32t7 -43t8.5 -29q-62 -86 -170.5 -137t-235.5 -51q-125 0 -200.5 90.5t-75.5 221.5q0 79 21 162.5t66 163t108 142t153.5 101t194.5 38.5q108 0 158 -43t50 -114q0 -21 -3 -41.5t-16.5 -52t-36 -58t-65.5 -56t-100 -51t-145.5 -37.5 t-197.5 -21z" />
<glyph unicode="&#x114;" horiz-adv-x="1069" d="M1202 1645q-31 -105 -126.5 -168.5t-201.5 -63.5q-115 0 -179.5 63t-49.5 169h57q-1 -58 54 -91.5t140 -33.5q80 0 153 34t95 91h58zM997 758q-25 -56 -25 -115l-7 -6q-197 20 -453 20l-52 -247q-51 -254 -47 -299q122 0 267.5 6t229.5 12l85 6l3 -8q-15 -40 -27 -127 l-6 -6q-48 6 -121 6h-559q-32 0 -59 -1.5t-38 -2.5l-11 -2l-1 6q50 138 108 410l106 501q57 267 67 410l5 6q33 -6 103 -6h539q73 0 124 6l3 -6q-23 -83 -25 -117l-6 -8q-278 25 -551 25q-16 -31 -44 -143.5t-39 -166.5l-35 -168q203 0 461 21z" />
<glyph unicode="&#x115;" horiz-adv-x="874" d="M515 1327q-1 -82 49.5 -133t133.5 -51q82 0 154.5 48.5t105.5 135.5l50 -24q-44 -126 -141.5 -201.5t-193.5 -75.5q-108 0 -166 73.5t-52 203.5zM756 745q0 80 -102 80q-214 0 -299 -329q401 17 401 249zM345 425q0 -4 -2 -23t-3 -36.5t-1 -25.5q0 -129 48.5 -195.5 t122.5 -66.5q73 0 163.5 59.5t134.5 136.5l12 -2q1 -8 4.5 -32t7 -43t8.5 -29q-62 -86 -170.5 -137t-235.5 -51q-125 0 -200.5 90.5t-75.5 221.5q0 79 21 162.5t66 163t108 142t153.5 101t194.5 38.5q108 0 158 -43t50 -114q0 -21 -3 -41.5t-16.5 -52t-36 -58t-65.5 -56 t-100 -51t-145.5 -37.5t-197.5 -21z" />
<glyph unicode="&#x116;" horiz-adv-x="1069" d="M791 1516q9 41 47.5 72.5t79.5 31.5t66 -31.5t16 -72.5t-47.5 -73t-79.5 -32t-66 32t-16 73zM997 758q-25 -56 -25 -115l-7 -6q-197 20 -453 20l-52 -247q-51 -254 -47 -299q122 0 267.5 6t229.5 12l85 6l3 -8q-15 -40 -27 -127l-6 -6q-48 6 -121 6h-559q-32 0 -59 -1.5 t-38 -2.5l-11 -2l-1 6q50 138 108 410l106 501q57 267 67 410l5 6q33 -6 103 -6h539q73 0 124 6l3 -6q-23 -83 -25 -117l-6 -8q-278 25 -551 25q-16 -31 -44 -143.5t-39 -166.5l-35 -168q203 0 461 21z" />
<glyph unicode="&#x117;" horiz-adv-x="874" d="M557 1087q0 41 32 73t73 32t72.5 -32t31.5 -73t-31.5 -72.5t-72.5 -31.5t-73 31.5t-32 72.5zM756 745q0 80 -102 80q-214 0 -299 -329q401 17 401 249zM345 425q0 -4 -2 -23t-3 -36.5t-1 -25.5q0 -129 48.5 -195.5t122.5 -66.5q73 0 163.5 59.5t134.5 136.5l12 -2 q1 -8 4.5 -32t7 -43t8.5 -29q-62 -86 -170.5 -137t-235.5 -51q-125 0 -200.5 90.5t-75.5 221.5q0 79 21 162.5t66 163t108 142t153.5 101t194.5 38.5q108 0 158 -43t50 -114q0 -21 -3 -41.5t-16.5 -52t-36 -58t-65.5 -56t-100 -51t-145.5 -37.5t-197.5 -21z" />
<glyph unicode="&#x118;" horiz-adv-x="1069" d="M997 758q-25 -56 -25 -115l-7 -6q-197 20 -453 20l-52 -247q-51 -254 -47 -299q122 0 267.5 6t229.5 12l85 6l3 -8q-15 -40 -27 -127l-6 -6q-20 3 -73 5q-109 -8 -201 -91.5t-109 -165.5q-11 -51 14 -86t79 -35q73 0 159 74l27 -17q-49 -67 -120.5 -102t-133.5 -35 q-84 0 -127.5 46.5t-25.5 127.5q16 74 89.5 154.5t175.5 130.5h-434q-32 0 -59 -1.5t-38 -2.5l-11 -2l-1 6q50 138 108 410l106 501q57 267 67 410l5 6q33 -6 103 -6h539q73 0 124 6l3 -6q-23 -83 -25 -117l-6 -8q-278 25 -551 25q-16 -31 -44 -143.5t-39 -166.5l-35 -168 q203 0 461 21z" />
<glyph unicode="&#x119;" horiz-adv-x="894" d="M336 432q52 5 110 17.5t125.5 39t120.5 62t88 90t35 119.5q0 82 -123 82q-41 0 -89 -21.5t-99.5 -66t-97 -128.5t-70.5 -194zM958 758q0 -20 -5 -42t-22.5 -54.5t-44.5 -63.5t-76 -65t-113 -62t-159.5 -53t-211.5 -39q-2 -16 -2 -41q0 -129 61.5 -196.5t140.5 -67.5 q72 0 143 42.5t154 133.5l45 -33q-74 -105 -168 -168q-52 -40 -96.5 -82t-86.5 -106t-42 -117q0 -37 29 -64.5t78 -27.5q42 0 74.5 17.5t76.5 56.5l29 -15q-113 -137 -242 -137q-76 0 -123 35t-47 100q0 126 172 271q-57 -5 -69 -5q-149 0 -224 88t-75 228q0 78 26.5 163.5 t78.5 165.5t121 144t162.5 102.5t194.5 38.5q115 0 168 -42.5t53 -104.5z" />
<glyph unicode="&#x11a;" horiz-adv-x="1069" d="M852 1427q-54 91 -165 195l41 41q112 -55 191 -125q135 82 245 125l22 -41q-116 -75 -246 -195h-88zM997 758q-25 -56 -25 -115l-7 -6q-197 20 -453 20l-52 -247q-51 -254 -47 -299q122 0 267.5 6t229.5 12l85 6l3 -8q-15 -40 -27 -127l-6 -6q-48 6 -121 6h-559 q-32 0 -59 -1.5t-38 -2.5l-11 -2l-1 6q50 138 108 410l106 501q57 267 67 410l5 6q33 -6 103 -6h539q73 0 124 6l3 -6q-23 -83 -25 -117l-6 -8q-278 25 -551 25q-16 -31 -44 -143.5t-39 -166.5l-35 -168q203 0 461 21z" />
<glyph unicode="&#x11b;" horiz-adv-x="874" d="M598 1026q-51 126 -150 266l47 27q42 -37 65.5 -59t55.5 -56t57 -69q91 77 260 184l33 -27q-169 -152 -265 -266h-103zM756 745q0 80 -102 80q-214 0 -299 -329q401 17 401 249zM345 425q0 -4 -2 -23t-3 -36.5t-1 -25.5q0 -129 48.5 -195.5t122.5 -66.5q73 0 163.5 59.5 t134.5 136.5l12 -2q1 -8 4.5 -32t7 -43t8.5 -29q-62 -86 -170.5 -137t-235.5 -51q-125 0 -200.5 90.5t-75.5 221.5q0 79 21 162.5t66 163t108 142t153.5 101t194.5 38.5q108 0 158 -43t50 -114q0 -21 -3 -41.5t-16.5 -52t-36 -58t-65.5 -56t-100 -51t-145.5 -37.5 t-197.5 -21z" />
<glyph unicode="&#x11c;" horiz-adv-x="1431" d="M1139 1649q63 -102 166 -193l-42 -43q-113 58 -190 127q-117 -74 -246 -127l-20 43q104 67 244 193h88zM1169 240q55 280 62 389l6 6q33 -6 103 -6q32 0 59 1.5t38 3.5l11 1l1 -6q-40 -108 -98 -361q-16 -72 0 -98l-1 -6q-259 -184 -584 -184q-201 0 -345 88.5 t-201.5 236.5t-20.5 324q35 163 126.5 301.5t212 228t258.5 139.5t271 50q70 0 139.5 -9.5t119.5 -23t89.5 -27.5t58.5 -24l20 -9l2 -6q-9 -21 -23 -51t-20 -43.5t-14.5 -35.5t-16 -44.5t-15.5 -52.5l-21 -2q-66 231 -368 231q-210 0 -376.5 -158t-222.5 -423 q-15 -69 -14.5 -138t15 -136t48 -125t82.5 -102t122 -69.5t161 -25.5q218 0 317 78z" />
<glyph unicode="&#x11d;" horiz-adv-x="937" d="M752 1403q44 -109 150 -264l-49 -29q-42 37 -65.5 59t-55.5 56t-57 69q-107 -91 -258 -184l-35 29q186 168 267 264h103zM305 -10q-8 -6 -26 -18.5t-27 -19t-21 -17.5t-20 -21q-59 -72 -59 -162q0 -40 23.5 -71t58.5 -47.5t68 -24.5t60 -8q261 0 357 59q49 30 49 92 q0 30 -16.5 66.5t-51.5 60.5q-102 68 -356 109q-6 1 -19.5 1t-19.5 1zM565 283q-47 0 -99 13t-73 34q-98 -74 -98 -127q0 -62 129 -92q18 -4 85.5 -18.5t95.5 -22t76.5 -21t80.5 -27.5t55 -30q48 -33 67 -85.5t19 -101.5q0 -144 -135 -219q-76 -41 -206.5 -57t-246.5 -16 q-81 0 -151 20t-116 62t-46 98q0 123 80 215q39 45 143 104q-28 17 -45.5 53.5t-17.5 77.5q0 67 50.5 124t125.5 95q-39 35 -64.5 94.5t-25.5 125.5q0 143 106.5 230t251.5 87q34 0 95 -8t77 -8q59 0 96 24.5t37 75.5q0 28 -22 53l2 8q59 15 98 48l8 -2q33 -49 33 -119 q0 -57 -40 -97t-105 -40q-27 0 -43 2l-6 -5q39 -39 65.5 -95.5t26.5 -112.5q0 -107 -53.5 -186t-134.5 -116.5t-175 -37.5zM768 610q0 95 -47 152t-129 57q-87 0 -135.5 -67t-48.5 -162q0 -93 46 -160.5t130 -67.5q71 0 127.5 66.5t56.5 181.5z" />
<glyph unicode="&#x11e;" horiz-adv-x="1431" d="M1391 1651q-31 -105 -126 -168.5t-201 -63.5q-115 0 -180 63.5t-50 168.5h57q-1 -58 54.5 -91.5t140.5 -33.5q80 0 153 34t95 91h57zM1169 240q55 280 62 389l6 6q33 -6 103 -6q32 0 59 1.5t38 3.5l11 1l1 -6q-40 -108 -98 -361q-16 -72 0 -98l-1 -6q-259 -184 -584 -184 q-201 0 -345 88.5t-201.5 236.5t-20.5 324q35 163 126.5 301.5t212 228t258.5 139.5t271 50q70 0 139.5 -9.5t119.5 -23t89.5 -27.5t58.5 -24l20 -9l2 -6q-9 -21 -23 -51t-20 -43.5t-14.5 -35.5t-16 -44.5t-15.5 -52.5l-21 -2q-66 231 -368 231q-210 0 -376.5 -158 t-222.5 -423q-15 -69 -14.5 -138t15 -136t48 -125t82.5 -102t122 -69.5t161 -25.5q218 0 317 78z" />
<glyph unicode="&#x11f;" horiz-adv-x="937" d="M475 1319q-1 -82 49 -133t133 -51q82 0 154.5 48.5t105.5 135.5l50 -25q-44 -126 -141.5 -201t-193.5 -75q-108 0 -166 73t-52 203zM305 -10q-8 -6 -26 -18.5t-27 -19t-21 -17.5t-20 -21q-59 -72 -59 -162q0 -40 23.5 -71t58.5 -47.5t68 -24.5t60 -8q261 0 357 59 q49 30 49 92q0 30 -16.5 66.5t-51.5 60.5q-102 68 -356 109q-6 1 -19.5 1t-19.5 1zM565 283q-47 0 -99 13t-73 34q-98 -74 -98 -127q0 -62 129 -92q18 -4 85.5 -18.5t95.5 -22t76.5 -21t80.5 -27.5t55 -30q48 -33 67 -85.5t19 -101.5q0 -144 -135 -219q-76 -41 -206.5 -57 t-246.5 -16q-81 0 -151 20t-116 62t-46 98q0 123 80 215q39 45 143 104q-28 17 -45.5 53.5t-17.5 77.5q0 67 50.5 124t125.5 95q-39 35 -64.5 94.5t-25.5 125.5q0 143 106.5 230t251.5 87q34 0 95 -8t77 -8q59 0 96 24.5t37 75.5q0 28 -22 53l2 8q59 15 98 48l8 -2 q33 -49 33 -119q0 -57 -40 -97t-105 -40q-27 0 -43 2l-6 -5q39 -39 65.5 -95.5t26.5 -112.5q0 -107 -53.5 -186t-134.5 -116.5t-175 -37.5zM768 610q0 95 -47 152t-129 57q-87 0 -135.5 -67t-48.5 -162q0 -93 46 -160.5t130 -67.5q71 0 127.5 66.5t56.5 181.5z" />
<glyph unicode="&#x120;" horiz-adv-x="1431" d="M991 1542q9 41 47.5 73t79.5 32t66 -32t16 -73t-47 -72.5t-79 -31.5t-66.5 31.5t-16.5 72.5zM1169 240q55 280 62 389l6 6q33 -6 103 -6q32 0 59 1.5t38 3.5l11 1l1 -6q-40 -108 -98 -361q-16 -72 0 -98l-1 -6q-259 -184 -584 -184q-201 0 -345 88.5t-201.5 236.5 t-20.5 324q35 163 126.5 301.5t212 228t258.5 139.5t271 50q70 0 139.5 -9.5t119.5 -23t89.5 -27.5t58.5 -24l20 -9l2 -6q-9 -21 -23 -51t-20 -43.5t-14.5 -35.5t-16 -44.5t-15.5 -52.5l-21 -2q-66 231 -368 231q-210 0 -376.5 -158t-222.5 -423q-15 -69 -14.5 -138t15 -136 t48 -125t82.5 -102t122 -69.5t161 -25.5q218 0 317 78z" />
<glyph unicode="&#x121;" horiz-adv-x="937" d="M538 1164q0 41 32 73t73 32t72.5 -32t31.5 -73t-31.5 -72.5t-72.5 -31.5t-73 31.5t-32 72.5zM305 -10q-8 -6 -26 -18.5t-27 -19t-21 -17.5t-20 -21q-59 -72 -59 -162q0 -40 23.5 -71t58.5 -47.5t68 -24.5t60 -8q261 0 357 59q49 30 49 92q0 30 -16.5 66.5t-51.5 60.5 q-102 68 -356 109q-6 1 -19.5 1t-19.5 1zM565 283q-47 0 -99 13t-73 34q-98 -74 -98 -127q0 -62 129 -92q18 -4 85.5 -18.5t95.5 -22t76.5 -21t80.5 -27.5t55 -30q48 -33 67 -85.5t19 -101.5q0 -144 -135 -219q-76 -41 -206.5 -57t-246.5 -16q-81 0 -151 20t-116 62t-46 98 q0 123 80 215q39 45 143 104q-28 17 -45.5 53.5t-17.5 77.5q0 67 50.5 124t125.5 95q-39 35 -64.5 94.5t-25.5 125.5q0 143 106.5 230t251.5 87q34 0 95 -8t77 -8q59 0 96 24.5t37 75.5q0 28 -22 53l2 8q59 15 98 48l8 -2q33 -49 33 -119q0 -57 -40 -97t-105 -40 q-27 0 -43 2l-6 -5q39 -39 65.5 -95.5t26.5 -112.5q0 -107 -53.5 -186t-134.5 -116.5t-175 -37.5zM768 610q0 95 -47 152t-129 57q-87 0 -135.5 -67t-48.5 -162q0 -93 46 -160.5t130 -67.5q71 0 127.5 66.5t56.5 181.5z" />
<glyph unicode="&#x122;" horiz-adv-x="1394" d="M750 -127q58 0 82.5 -48t7.5 -128q-18 -87 -89.5 -137.5t-170.5 -65.5q-13 16 -6 49q75 16 122.5 47.5t53.5 61.5q6 28 -7.5 39t-44.5 14q-83 15 -69 80q8 37 42.5 62.5t78.5 25.5zM1128 240q55 280 62 389l6 6q33 -6 103 -6q32 0 59 1.5t38 3.5l11 1l1 -6 q-40 -108 -98 -361q-16 -72 0 -98l-1 -6q-130 -93 -261.5 -138.5t-302.5 -45.5q-87 0 -163 18.5t-134.5 52.5t-105.5 81t-77 105t-46 124.5t-15.5 139t16.5 148.5q47 220 169.5 380t291 239.5t365.5 79.5q70 0 137.5 -9.5t114 -23t83.5 -27.5t55 -24l17 -9l3 -6 q-10 -23 -28 -61t-24 -53.5t-17 -45.5t-21 -67l-21 -2q-36 125 -112 178t-215 53q-210 0 -366.5 -148t-212.5 -413q-15 -70 -17.5 -140t7 -139.5t38.5 -130t73 -107t114 -73t158 -26.5q95 0 167 16t130 62z" />
<glyph unicode="&#x123;" horiz-adv-x="937" d="M642 1047q-57 0 -82.5 45t-12.5 104q18 88 90.5 149t173.5 74q8 -11 2 -41q-84 -17 -131 -56.5t-56 -80.5q-2 -10 -2 -16t1 -9t6 -3.5t10.5 -0.5t17 1t21.5 1q55 0 73 -25.5t11 -58.5q-6 -29 -39.5 -56t-82.5 -27zM305 -10q-8 -6 -26 -18.5t-27 -19t-21 -17.5t-20 -21 q-59 -72 -59 -162q0 -40 23.5 -71t58.5 -47.5t68 -24.5t60 -8q261 0 357 59q49 30 49 92q0 30 -16.5 66.5t-51.5 60.5q-102 68 -356 109q-6 1 -19.5 1t-19.5 1zM565 283q-47 0 -99 13t-73 34q-98 -74 -98 -127q0 -62 129 -92q18 -4 85.5 -18.5t95.5 -22t76.5 -21t80.5 -27.5 t55 -30q48 -33 67 -85.5t19 -101.5q0 -144 -135 -219q-76 -41 -206.5 -57t-246.5 -16q-81 0 -151 20t-116 62t-46 98q0 123 80 215q39 45 143 104q-28 17 -45.5 53.5t-17.5 77.5q0 67 50.5 124t125.5 95q-39 35 -64.5 94.5t-25.5 125.5q0 143 106.5 230t251.5 87q34 0 95 -8 t77 -8q59 0 96 24.5t37 75.5q0 28 -22 53l2 8q59 15 98 48l8 -2q33 -49 33 -119q0 -57 -40 -97t-105 -40q-27 0 -43 2l-6 -5q39 -39 65.5 -95.5t26.5 -112.5q0 -107 -53.5 -186t-134.5 -116.5t-175 -37.5zM768 610q0 95 -47 152t-129 57q-87 0 -135.5 -67t-48.5 -162 q0 -93 46 -160.5t130 -67.5q71 0 127.5 66.5t56.5 181.5z" />
<glyph unicode="&#x124;" horiz-adv-x="1413" d="M1220 911q56 260 66 410l6 6q33 -6 103 -6q32 0 59 1.5t38 3.5l11 1v-6q-46 -125 -107 -410l-107 -501q-56 -260 -66 -410l-6 -6q-33 6 -103 6q-32 0 -59 -1.5t-38 -2.5l-11 -2v6q47 131 107 410l53 247h-639l-53 -247q-56 -260 -66 -410l-6 -6q-33 6 -103 6 q-32 0 -59 -1.5t-38 -2.5l-11 -2l-1 6q50 138 108 410l107 501q56 260 66 410l6 6q33 -6 103 -6q32 0 59 1.5t38 3.5l11 1v-6q-46 -125 -107 -410l-36 -168h639zM1075 1645q63 -102 166 -193l-42 -43q-113 58 -190 127q-117 -74 -246 -127l-20 43q104 67 244 193h88z" />
<glyph unicode="&#x125;" horiz-adv-x="1052" d="M858 1704q63 -102 166 -193l-42 -43q-113 58 -190 127q-117 -74 -246 -127l-20 43q104 67 244 193h88zM799 369l46 215q13 63 14 101t-13.5 60t-40 29.5t-71.5 7.5q-93 0 -278 -149l-56 -264q-50 -237 -58 -369l-5 -6q-27 6 -97 6q-32 0 -57.5 -1.5t-34.5 -2.5l-10 -2 l-1 6q50 133 99 369l131 616q62 295 66 399l5 7q92 7 183 39q19 0 14 -21q-53 -178 -96 -383l-61 -289q196 162 373 162q225 0 157 -317l-45 -213q-50 -237 -58 -369l-5 -6q-27 6 -97 6q-32 0 -57.5 -1.5t-35.5 -2.5l-9 -2l-1 6q50 133 99 369z" />
<glyph unicode="&#x126;" horiz-adv-x="1433" d="M1186 657h-659l-53 -247q-56 -260 -66 -410l-6 -6q-33 6 -103 6q-32 0 -59 -1.5t-38 -2.5l-11 -2l-1 6q50 138 108 410l107 501q13 62 27 138h-125l15 69h123q19 115 26 203l6 6q33 -6 103 -6q32 0 59 1.5t38 3.5l11 1v-6q-29 -79 -60 -203h653q19 115 26 203l5 6 q33 -6 103 -6q32 0 59 1.5t38 3.5l11 1l1 -6q-29 -79 -60 -203h117l-15 -69h-119q-3 -13 -14 -62t-17 -76l-106 -501q-57 -267 -67 -410l-5 -6q-33 6 -103 6q-32 0 -59 -1.5t-38 -2.5l-11 -2l-1 6q50 138 108 410zM1205 743l35 168q20 94 28 138h-657q-15 -67 -30 -138 l-36 -168h660z" />
<glyph unicode="&#x127;" horiz-adv-x="1064" d="M812 369l45 215q13 63 14 101t-13.5 60t-40 29.5t-71.5 7.5q-93 0 -278 -149l-56 -264q-50 -237 -58 -369l-5 -6q-27 6 -97 6q-32 0 -57.5 -1.5t-34.5 -2.5l-10 -2v6q47 127 98 369l131 616l10 45t11 55h-116l17 80h114q23 127 26 207l6 6q30 2 60 8.5t44.5 11t48.5 17.5 t40 15q18 0 14 -21q-41 -124 -71 -244h363l-17 -80h-364q-1 -7 -6 -27t-7 -32l-62 -289q196 162 373 162q111 0 151.5 -80t6.5 -237l-46 -213q-49 -230 -57 -369l-6 -6q-27 6 -97 6q-32 0 -57.5 -1.5t-34.5 -2.5l-9 -2l-1 6q50 133 99 369z" />
<glyph unicode="&#x128;" horiz-adv-x="600" d="M759 1518q36 0 63.5 22t61.5 84l46 -12q-77 -185 -217 -185q-51 0 -120 54q-63 45 -101 45q-39 0 -66.5 -23.5t-54.5 -75.5l-47 11q41 93 89.5 137.5t113.5 44.5q66 0 135 -57q49 -45 97 -45zM411 911q56 260 66 410l6 6q33 -6 103 -6q32 0 59 1.5t38 3.5l11 1v-6 q-46 -125 -107 -410l-107 -501q-56 -260 -66 -410l-6 -6q-33 6 -103 6q-32 0 -59 -1.5t-38 -2.5l-11 -2v6q47 131 107 410z" />
<glyph unicode="&#x129;" horiz-adv-x="548" d="M648 1167q32 0 57 22.5t57 84.5l42 -12q-72 -185 -199 -185q-47 0 -107 53q-56 46 -90 46q-35 0 -60.5 -23t-50.5 -76l-42 10q39 93 83.5 138t102.5 45q26 0 49.5 -9.5t37.5 -20t33 -28.5q43 -45 87 -45zM295 481q53 250 56 361l5 6q24 2 45.5 5.5t43.5 10t34.5 10.5 t37 13t32.5 12q19 0 15 -20q-52 -153 -98 -365l-31 -145q-48 -229 -58 -369l-5 -6q-28 6 -98 6q-32 0 -57 -1.5t-35 -2.5l-9 -2l-1 6q49 136 99 369z" />
<glyph unicode="&#x12a;" horiz-adv-x="600" d="M862 1501h-500q-13 0 -18 9.5t-2 21.5q4 19 22.5 39t35.5 20h502q14 0 19.5 -9t2.5 -19q-4 -20 -23.5 -41t-38.5 -21zM411 911q56 260 66 410l6 6q33 -6 103 -6q32 0 59 1.5t38 3.5l11 1v-6q-46 -125 -107 -410l-107 -501q-56 -260 -66 -410l-6 -6q-33 6 -103 6 q-32 0 -59 -1.5t-38 -2.5l-11 -2v6q47 131 107 410z" />
<glyph unicode="&#x12b;" horiz-adv-x="548" d="M726 1102h-450q-12 0 -16.5 9.5t-1.5 21.5q4 19 21.5 39t32.5 20h451q12 0 17.5 -9.5t2.5 -19.5q-4 -20 -22 -40.5t-35 -20.5zM295 481q53 250 56 361l5 6q24 2 45.5 5.5t43.5 10t34.5 10.5t37 13t32.5 12q19 0 15 -20q-52 -153 -98 -365l-31 -145q-48 -229 -58 -369 l-5 -6q-28 6 -98 6q-32 0 -57 -1.5t-35 -2.5l-9 -2l-1 6q49 136 99 369z" />
<glyph unicode="&#x12c;" horiz-adv-x="600" d="M934 1649q-31 -105 -126.5 -168.5t-201.5 -63.5q-115 0 -179.5 63t-49.5 169h57q-1 -58 54.5 -91.5t140.5 -33.5q80 0 153 34t95 91h57zM411 911q56 260 66 410l6 6q33 -6 103 -6q32 0 59 1.5t38 3.5l11 1v-6q-46 -125 -107 -410l-107 -501q-56 -260 -66 -410l-6 -6 q-33 6 -103 6q-32 0 -59 -1.5t-38 -2.5l-11 -2v6q47 131 107 410z" />
<glyph unicode="&#x12d;" horiz-adv-x="548" d="M343 1331q0 -82 45 -133t119 -51q75 0 139.5 48.5t94.5 135.5l45 -24q-40 -126 -127 -201.5t-174 -75.5q-97 0 -149.5 73.5t-46.5 203.5zM295 481q55 259 58 371l5 6q93 7 189 41q19 0 15 -20q-49 -146 -96 -365l-31 -145q-48 -229 -58 -369l-5 -6q-28 6 -98 6 q-32 0 -57 -1.5t-35 -2.5l-9 -2l-1 6q49 136 99 369z" />
<glyph unicode="&#x12e;" horiz-adv-x="600" d="M91 -461q-84 0 -128 46.5t-26 127.5q15 73 87.5 152t172.5 130v5q47 131 107 410l107 501q56 260 66 410l6 6q33 -6 103 -6q32 0 59 1.5t38 3.5l11 1v-6q-46 -125 -107 -410l-107 -501q-56 -260 -66 -410l-6 -6l-30 3q-110 -8 -202.5 -91t-109.5 -166q-11 -51 14 -86 t79 -35q76 0 159 74l27 -17q-49 -67 -120.5 -102t-133.5 -35z" />
<glyph unicode="&#x12f;" horiz-adv-x="548" d="M45 -461q-85 0 -128 46t-25 128q17 77 95.5 160.5t186.5 132.5q49 135 97 363l24 112q53 250 56 361l5 6q24 2 45.5 5.5t43.5 10t34.5 10.5t37 13t32.5 12q19 0 15 -20q-52 -153 -98 -365l-31 -145q-48 -229 -58 -369l-5 -6q-10 2 -32 4q-112 -4 -207 -88.5t-113 -169.5 q-11 -51 14.5 -86t79.5 -35q74 0 157 74l29 -17q-49 -67 -121.5 -102t-133.5 -35zM418 1167q9 41 47.5 73t79.5 32t66 -32t16 -73t-47.5 -72.5t-79.5 -31.5t-66 31.5t-16 72.5z" />
<glyph unicode="&#x130;" horiz-adv-x="600" d="M521 1536q9 41 47.5 72.5t79.5 31.5t66 -31.5t16 -72.5t-47.5 -72.5t-79.5 -31.5t-66 31.5t-16 72.5zM411 911q56 260 66 410l6 6q33 -6 103 -6q32 0 59 1.5t38 3.5l11 1v-6q-46 -125 -107 -410l-107 -501q-56 -260 -66 -410l-6 -6q-33 6 -103 6q-32 0 -59 -1.5t-38 -2.5 l-11 -2v6q47 131 107 410z" />
<glyph unicode="&#x131;" horiz-adv-x="548" d="M295 481q55 259 58 371l5 6q93 7 189 41q19 0 15 -20q-49 -146 -96 -365l-31 -145q-48 -229 -58 -369l-5 -6q-28 6 -98 6q-32 0 -57 -1.5t-35 -2.5l-9 -2l-1 6q49 136 99 369z" />
<glyph unicode="&#x132;" horiz-adv-x="1204" d="M887 195l153 716q56 260 66 410l5 6q34 -6 104 -6q32 0 59 1.5t38 3.5l10 1l1 -6q-46 -125 -107 -410l-143 -671q-37 -174 -77 -252.5t-145 -184.5q-154 -155 -357 -155q-63 0 -88 18v6q31 39 92 168l23 2q24 -71 104 -71q34 0 64 14.5t52.5 37.5t43 59t34.5 70t28 80.5 t22 81.5t18 81zM411 911q56 260 66 410l6 6q33 -6 103 -6q32 0 59 1.5t38 3.5l11 1v-6q-46 -125 -107 -410l-107 -501q-56 -260 -66 -410l-6 -6q-33 6 -103 6q-32 0 -59 -1.5t-38 -2.5l-11 -2v6q47 131 107 410z" />
<glyph unicode="&#x133;" horiz-adv-x="1097" d="M763 131h-4q-173 -151 -325 -151q-55 0 -95 16t-61.5 42t-31.5 63t-9 75.5t10 81.5l48 223q55 259 58 371l5 6q93 7 189 41q19 0 15 -20q-49 -147 -97 -369l-43 -203q-15 -68 -15.5 -110.5t13.5 -65.5t37.5 -31t63.5 -8q100 0 262 152l51 237q55 259 58 371l5 6 q93 7 189 41q18 0 14 -20q-49 -147 -97 -369l-24 -117q-24 -112 -81 -397q-22 -109 -50.5 -164.5t-95.5 -126.5q-135 -141 -302 -141q-59 0 -83 16v6q16 21 36 77.5t29 74.5l21 2q7 -20 10 -27t11.5 -19t21.5 -16t33 -4q142 0 185 197q2 8 7 39t16 89t26 132zM948 1229 q0 41 32 72.5t73 31.5t72.5 -31.5t31.5 -72.5t-31.5 -73t-72.5 -32t-73 32t-32 73zM412 1229q0 41 31.5 72.5t72.5 31.5t73 -31.5t32 -72.5t-32 -73t-73 -32t-72.5 32t-31.5 73z" />
<glyph unicode="&#x134;" horiz-adv-x="645" d="M758 1649q63 -102 166 -193l-42 -43q-113 58 -190 127q-117 -74 -246 -127l-20 43q104 67 244 193h88zM328 195l152 716q57 267 67 410l5 6q34 -6 104 -6q32 0 59 1.5t37 3.5l11 1l1 -6q-46 -125 -107 -410l-143 -671q-37 -174 -77 -252.5t-145 -184.5 q-154 -155 -357 -155q-63 0 -88 18l-1 6q34 42 93 168l23 2q24 -71 104 -71q34 0 64 14.5t52.5 37.5t43 59t34.5 70t28 80.5t22 81.5t18 81z" />
<glyph unicode="&#x135;" horiz-adv-x="577" d="M641 1319q43 -106 151 -264l-50 -29q-42 37 -65.5 59t-55.5 56t-57 69q-107 -91 -258 -184l-35 29q186 168 267 264h103zM208 -129q2 8 8 44.5t20 110t35 171.5l61 284q53 250 56 361l5 6q24 2 45.5 5.5t43.5 10t34.5 10.5t37 13t32.5 12q18 0 14 -20q-50 -145 -97 -365 l-111 -518q-24 -111 -51.5 -166t-93.5 -125q-135 -141 -303 -141q-58 0 -82 16l-1 6q16 21 36 77.5t29 74.5l21 2q7 -20 10 -27t11.5 -19t21.5 -16t33 -4q142 0 185 197z" />
<glyph unicode="&#x136;" horiz-adv-x="1304" d="M710 -80q58 0 82.5 -48t7.5 -128q-18 -87 -90 -137.5t-171 -65.5q-13 15 -5 49q75 16 122.5 47.5t53.5 61.5q6 28 -7.5 39t-44.5 14q-83 15 -69 80q8 37 42.5 62.5t78.5 25.5zM411 911q56 260 66 410l6 6q33 -6 103 -6q32 0 59 1.5t38 3.5l11 1v-6q-46 -125 -107 -410 l-42 -198q12 6 18 10q283 209 712 604q25 -6 99 -6q72 0 106 6q-186 -137 -408 -313.5t-342 -288.5l-1 -4l488 -727q-38 6 -125 6q-93 0 -129 -6q-332 555 -419 665q-3 3 -9 7l-55 -256q-56 -260 -66 -410l-6 -6q-33 6 -103 6q-32 0 -59 -1.5t-38 -2.5l-11 -2v6 q47 131 107 410z" />
<glyph unicode="&#x137;" horiz-adv-x="974" d="M529 -74q58 0 82.5 -48t7.5 -128q-18 -87 -90 -137.5t-171 -65.5q-14 16 -6 50q75 16 123 47t54 61q6 28 -7.5 39t-44.5 14q-83 15 -69 80q8 37 42.5 62.5t78.5 25.5zM261 410l123 577q57 270 61 385l6 6q30 2 60 8.5t44.5 11t48.5 17.5t40 15q18 0 14 -21 q-55 -164 -102 -385l-114 -537q20 5 57 29q68 45 186 154t208 209q168 0 208 6l3 -6q-70 -50 -159 -125t-186.5 -161t-120.5 -106q108 -176 171 -270.5t152 -216.5l-6 -6q-27 6 -121 6q-89 0 -137 -6q-29 57 -63 129t-52 108.5t-47.5 86t-65.5 98.5q-12 13 -39 17 q-1 -4 -2.5 -11.5t-2.5 -11.5q-59 -275 -67 -410l-5 -6q-27 6 -97 6q-32 0 -57.5 -1.5t-34.5 -2.5l-10 -2v6q48 130 107 410z" />
<glyph unicode="&#x138;" horiz-adv-x="1015" d="M279 481q53 250 56 361l5 6q24 2 45.5 5.5t43.5 10t34.5 10.5t37 13t32.5 12q18 0 14 -20q-52 -153 -98 -365l-6 -29q45 2 87 31q72 46 197 157t211 206q168 0 208 6l3 -6q-55 -39 -134 -102.5t-126.5 -103.5t-136.5 -116.5t-91 -77.5q64 -105 122.5 -184.5t124 -160 t104.5 -134.5l-6 -6q-27 6 -121 6q-89 0 -137 -6q-36 72 -76 136.5t-59.5 93t-74.5 101t-69 91.5q-17 18 -37 18l-14 -65q-48 -229 -58 -369l-5 -6q-27 6 -97 6q-32 0 -57.5 -1.5t-34.5 -2.5l-10 -2v6q49 136 99 369z" />
<glyph unicode="&#x139;" horiz-adv-x="1077" d="M750 1677q78 -40 104 -106l-320 -119q-65 -25 -91 -25q-13 0 -20 9.5t-5 21.5q5 23 40 43zM474 410q-51 -254 -47 -299q122 0 267.5 6t230.5 12l85 6l2 -8q-15 -40 -27 -127l-5 -6q-48 6 -122 6h-559q-31 0 -58 -1.5t-39 -2.5l-11 -2l-1 6q50 138 108 410l107 501 q53 246 64 410l6 6q35 -6 105 -6q32 0 59 1.5t38 3.5l11 1v-6q-46 -125 -107 -410z" />
<glyph unicode="&#x13a;" horiz-adv-x="534" d="M360 168q0 -29 8 -47t19.5 -26.5t32.5 -9.5t40.5 2t49.5 8q18 3 27 5l4 -6v-53q-37 -22 -104 -41.5t-124 -19.5q-61 0 -94 38t-33 107q0 19 41 219l133 643q64 312 66 397l6 7q93 7 182 39q18 0 15 -21q-50 -159 -97 -385l-147 -700q-25 -117 -25 -156zM705 1735 q78 -40 104 -107l-320 -119q-63 -24 -91 -24q-13 0 -19.5 9.5t-4.5 21.5q5 23 40 43z" />
<glyph unicode="&#x13b;" horiz-adv-x="1077" d="M528 -88q58 0 82.5 -48t7.5 -128q-18 -87 -90 -137.5t-171 -65.5q-13 16 -6 49q75 16 123 47.5t54 61.5q6 28 -7.5 39t-44.5 14q-83 15 -69 80q8 37 42.5 62.5t78.5 25.5zM474 410q-51 -254 -47 -299q122 0 267.5 6t230.5 12l85 6l2 -8q-15 -40 -27 -127l-5 -6 q-48 6 -122 6h-559q-31 0 -58 -1.5t-39 -2.5l-11 -2l-1 6q50 138 108 410l107 501q53 246 64 410l6 6q35 -6 105 -6q32 0 59 1.5t38 3.5l11 1v-6q-46 -125 -107 -410z" />
<glyph unicode="&#x13c;" horiz-adv-x="534" d="M360 168q0 -29 8 -47t19.5 -26.5t32.5 -9.5t40.5 2t49.5 8q18 3 27 5l4 -6v-53q-37 -22 -104 -41.5t-124 -19.5q-61 0 -94 38t-33 107q0 19 41 219l133 643q64 312 66 397l6 7q93 7 182 39q18 0 15 -21q-50 -159 -97 -385l-147 -700q-25 -117 -25 -156zM320 -102 q58 0 82.5 -48.5t7.5 -128.5q-18 -87 -89.5 -137t-170.5 -65q-13 16 -6 49q75 16 122.5 47t53.5 61q6 28 -7.5 39.5t-44.5 14.5q-83 15 -69 80q8 37 42.5 62.5t78.5 25.5z" />
<glyph unicode="&#x13d;" horiz-adv-x="1077" d="M1123 1430q56 0 80 -45.5t11 -104.5q-14 -67 -84.5 -136.5t-170.5 -80.5l-3 35q62 12 106 56t53 85q4 20 -1.5 31.5t-17.5 11.5q-95 0 -78 78q6 27 34 48.5t71 21.5zM474 410q-51 -254 -47 -299q122 0 267.5 6t230.5 12l85 6l2 -8q-15 -40 -27 -127l-5 -6q-48 6 -122 6 h-559q-31 0 -58 -1.5t-39 -2.5l-11 -2l-1 6q50 138 108 410l107 501q53 246 64 410l6 6q35 -6 105 -6q32 0 59 1.5t38 3.5l11 1v-6q-46 -125 -107 -410z" />
<glyph unicode="&#x13e;" horiz-adv-x="593" d="M827 1430q56 0 80 -45.5t11 -104.5q-14 -67 -84.5 -136.5t-170.5 -80.5l-3 35q62 12 106 56t53 85q4 20 -2 31.5t-18 11.5q-94 0 -77 78q6 27 34 48.5t71 21.5zM360 168q0 -29 8 -47t19.5 -26.5t32.5 -9.5t40.5 2t49.5 8q18 3 27 5l4 -6v-53q-37 -22 -104 -41.5 t-124 -19.5q-61 0 -94 38t-33 107q0 19 41 219l133 643q64 312 66 397l6 7q93 7 182 39q18 0 15 -21q-50 -159 -97 -385l-147 -700q-25 -117 -25 -156z" />
<glyph unicode="&#x13f;" horiz-adv-x="1077" d="M821 578q-49 0 -72.5 32.5t-14.5 77.5q9 43 49.5 77t84.5 34q42 0 69.5 -33t17.5 -78t-48.5 -77.5t-85.5 -32.5zM474 410q-51 -254 -47 -299q122 0 267.5 6t230.5 12l85 6l2 -8q-15 -40 -27 -127l-5 -6q-48 6 -122 6h-559q-31 0 -58 -1.5t-39 -2.5l-11 -2l-1 6 q50 138 108 410l107 501q53 246 64 410l6 6q35 -6 105 -6q32 0 59 1.5t38 3.5l11 1v-6q-46 -125 -107 -410z" />
<glyph unicode="&#x140;" horiz-adv-x="653" d="M555 737q0 39 29.5 70t68.5 31q38 0 68.5 -30.5t30.5 -70.5q0 -39 -29 -67.5t-70 -28.5q-43 0 -70.5 29t-27.5 67zM360 168q0 -29 8 -47t19.5 -26.5t32.5 -9.5t40.5 2t49.5 8q18 3 27 5l4 -6v-53q-37 -22 -104 -41.5t-124 -19.5q-61 0 -94 38t-33 107q0 19 41 219 l133 643q64 312 66 397l6 7q93 7 182 39q18 0 15 -21q-50 -159 -97 -385l-147 -700q-25 -117 -25 -156z" />
<glyph unicode="&#x141;" horiz-adv-x="1077" d="M830 920l24 -62l-319 -163l-61 -285q-51 -254 -47 -299q122 0 267.5 6t230.5 12l85 6l2 -8q-15 -40 -27 -127l-5 -6q-48 6 -122 6h-559q-31 0 -58 -1.5t-39 -2.5l-11 -2l-1 6q50 138 108 410l39 184l-184 -94l-23 63l225 115l50 233q53 246 64 410l6 6q35 -6 105 -6 q32 0 59 1.5t38 3.5l11 1v-6q-46 -125 -107 -410l-28 -133z" />
<glyph unicode="&#x142;" horiz-adv-x="534" d="M657 897l19 -61l-207 -114l-84 -398q-25 -117 -25 -156q0 -29 8 -47t19.5 -26.5t32.5 -9.5t40.5 2t49.5 8q18 3 27 5l4 -6v-53q-37 -22 -104 -41.5t-124 -19.5q-61 0 -94 38t-33 107q0 19 41 219l57 277l-124 -68l-19 59l160 88l59 287q64 312 66 397l6 7q93 7 182 39 q18 0 15 -21q-50 -159 -97 -385l-46 -222z" />
<glyph unicode="&#x143;" horiz-adv-x="1331" d="M1135 1679q78 -40 104 -106l-320 -119q-63 -24 -91 -24q-13 0 -19.5 9t-4.5 21q5 23 40 43zM401 911q52 247 66 410l5 6q35 -6 63 -6l50 4l447 -909q47 -96 71 -95q16 0 25 44l96 444q78 361 136 512l5 6q21 -6 71 -6q20 0 38.5 1.5t26.5 3.5l8 1l1 -6 q-117 -230 -178 -512l-164 -766q-13 -63 -56 -63q-53 0 -78 49l-461 903q-4 7 -10 20q-25 48 -30 49q-6 0 -17 -53q-6 -30 -10 -49l-91 -428q-70 -329 -120 -471l-5 -6q-21 6 -71 6q-20 0 -38.5 -1.5t-26.5 -2.5l-8 -2l-1 6q101 193 161 471z" />
<glyph unicode="&#x144;" horiz-adv-x="1032" d="M912 1374q14 4 30 4q63 0 102 -47l2 -22l-283 -224q-45 -38 -70 -38q-11 0 -18 8t-5 18q1 5 2 9t3.5 8t3.5 6.5t5 7.5t6 7t7.5 9t8.5 10zM965 369q-51 -243 -60 -369l-4 -6q-37 6 -98 6q-28 0 -53.5 -1.5t-36.5 -2.5l-11 -2v6q43 116 97 369l43 200q24 125 4.5 166 t-92.5 41q-56 0 -137.5 -41.5t-165.5 -126.5l-52 -239q-50 -236 -59 -369l-6 -6q-33 6 -96 6q-28 0 -53 -1.5t-37 -2.5l-11 -2l-2 6q49 138 98 369l23 112q50 233 29 365l4 6q82 8 168 43q10 0 13.5 -3.5t2.5 -17.5q5 -65 -4 -153l4 -6q69 71 144.5 115t125 56.5t91.5 12.5 q248 0 180 -324q-7 -33 -24.5 -103t-24.5 -103z" />
<glyph unicode="&#x145;" horiz-adv-x="1331" d="M820 -78q58 0 82 -48t7 -128q-18 -87 -89.5 -137.5t-170.5 -65.5q-13 16 -6 49q75 16 123 47.5t54 61.5q6 28 -7.5 39t-44.5 14q-83 15 -69 80q8 37 42.5 62.5t78.5 25.5zM401 911q52 247 66 410l5 6q35 -6 63 -6l50 4l447 -909q47 -96 71 -95q16 0 25 44l96 444 q78 361 136 512l5 6q21 -6 71 -6q20 0 38.5 1.5t26.5 3.5l8 1l1 -6q-117 -230 -178 -512l-164 -766q-13 -63 -56 -63q-53 0 -78 49l-461 903q-4 7 -10 20q-25 48 -30 49q-6 0 -17 -53q-6 -30 -10 -49l-91 -428q-70 -329 -120 -471l-5 -6q-21 6 -71 6q-20 0 -38.5 -1.5 t-26.5 -2.5l-8 -2l-1 6q101 193 161 471z" />
<glyph unicode="&#x146;" horiz-adv-x="1032" d="M527 -84q58 0 82 -48t7 -128q-18 -87 -89.5 -137.5t-170.5 -65.5q-13 16 -6 49q75 16 123 47.5t54 61.5q6 28 -7.5 39t-44.5 14q-83 15 -69 80q8 37 42.5 62.5t78.5 25.5zM965 369q-51 -243 -60 -369l-4 -6q-37 6 -98 6q-28 0 -53.5 -1.5t-36.5 -2.5l-11 -2v6 q43 116 97 369l43 200q24 125 4.5 166t-92.5 41q-56 0 -137.5 -41.5t-165.5 -126.5l-52 -239q-50 -236 -59 -369l-6 -6q-33 6 -96 6q-28 0 -53 -1.5t-37 -2.5l-11 -2l-2 6q49 138 98 369l23 112q50 233 29 365l4 6q82 8 168 43q10 0 13.5 -3.5t2.5 -17.5q5 -65 -4 -153l4 -6 q69 71 144.5 115t125 56.5t91.5 12.5q248 0 180 -324q-7 -33 -24.5 -103t-24.5 -103z" />
<glyph unicode="&#x147;" horiz-adv-x="1331" d="M957 1411q-54 91 -165 195l41 41q112 -55 191 -125q133 81 246 125l21 -41q-112 -73 -245 -195h-89zM401 911q52 247 66 410l5 6q35 -6 63 -6l50 4l447 -909q47 -96 71 -95q16 0 25 44l96 444q78 361 136 512l5 6q21 -6 71 -6q20 0 38.5 1.5t26.5 3.5l8 1l1 -6 q-117 -230 -178 -512l-164 -766q-13 -63 -56 -63q-53 0 -78 49l-461 903q-4 7 -10 20q-25 48 -30 49q-6 0 -17 -53q-6 -30 -10 -49l-91 -428q-70 -329 -120 -471l-5 -6q-21 6 -71 6q-20 0 -38.5 -1.5t-26.5 -2.5l-8 -2l-1 6q101 193 161 471z" />
<glyph unicode="&#x148;" horiz-adv-x="1032" d="M965 369q-51 -243 -60 -369l-4 -6q-37 6 -98 6q-28 0 -53.5 -1.5t-36.5 -2.5l-11 -2v6q43 116 97 369l43 200q24 125 4.5 166t-92.5 41q-56 0 -137.5 -41.5t-165.5 -126.5l-52 -239q-50 -236 -59 -369l-6 -6q-33 6 -96 6q-28 0 -53 -1.5t-37 -2.5l-11 -2l-2 6 q49 138 98 369l23 112q50 233 29 365l4 6q82 8 168 43q10 0 13.5 -3.5t2.5 -17.5q5 -65 -4 -153l4 -6q69 71 144.5 115t125 56.5t91.5 12.5q248 0 180 -324q-7 -33 -24.5 -103t-24.5 -103zM680 1030q-51 126 -150 266l47 27q120 -105 177 -184q88 75 261 184l33 -27 q-169 -152 -265 -266h-103z" />
<glyph unicode="&#x149;" horiz-adv-x="1103" d="M991 369q-50 -236 -59 -369l-4 -6q-38 6 -99 6q-28 0 -53 -1.5t-36 -2.5l-11 -2v6q40 109 96 369l43 200q24 125 4.5 166t-92.5 41q-56 0 -137.5 -41.5t-165.5 -126.5l-51 -239q-50 -236 -59 -369l-7 -6q-33 6 -96 6q-28 0 -53 -1.5t-36 -2.5l-11 -2l-2 6q49 138 98 369 l23 112q49 231 28 365l4 6q82 8 168 43q10 0 14 -3.5t3 -17.5q5 -65 -4 -153l4 -6q69 71 144.5 115t124.5 56.5t91 12.5q248 0 180 -324q-7 -33 -24.5 -103t-24.5 -103zM431 1430q56 0 80 -45.5t11 -104.5q-14 -67 -84.5 -136.5t-170.5 -80.5l-2 35q62 12 106 56t53 85 q4 20 -2 31.5t-18 11.5q-95 0 -78 78q6 27 34 48.5t71 21.5z" />
<glyph unicode="&#x14a;" horiz-adv-x="1423" d="M401 911q56 260 66 410l5 6q34 -6 104 -6l29 4l509 -909l14 -26l14 -26q14 -27 20.5 -37.5t14.5 -20t12 -3.5t9.5 20t11.5 42l116 546q57 267 67 410l5 6q21 -6 71 -6q20 0 38.5 1.5t26.5 3.5l8 1v-6q-46 -125 -107 -410l-143 -671q-26 -121 -51 -189.5t-61.5 -121.5 t-109.5 -128q-152 -155 -357 -155q-63 0 -88 18l-1 6q34 42 93 168l23 2q24 -71 104 -71q159 0 250 298l-501 865q-15 27 -23.5 41t-17.5 21t-13 5.5t-10.5 -15.5t-10.5 -31.5t-12 -53.5l-104 -489q-56 -260 -66 -410l-5 -6q-21 6 -71 6q-20 0 -38.5 -1.5t-26.5 -2.5l-8 -2 l-1 6q48 132 108 410z" />
<glyph unicode="&#x14b;" horiz-adv-x="1032" d="M844 569q24 124 3.5 165.5t-93.5 41.5q-56 0 -137.5 -41.5t-165.5 -126.5l-52 -239q-50 -236 -59 -369l-6 -6q-33 6 -96 6q-28 0 -53 -1.5t-37 -2.5l-11 -2l-2 6q49 138 98 369l23 112q50 233 29 365l4 6q82 8 168 43q10 0 13.5 -3.5t2.5 -17.5q5 -65 -4 -153l4 -6 q69 71 144.5 115t125 56.5t91.5 12.5q124 0 170.5 -82.5t12.5 -241.5l-123 -579q-24 -111 -52 -166t-94 -125q-135 -141 -302 -141q-59 0 -83 16v6q16 21 36 77.5t29 74.5l21 2q7 -20 10 -27t11.5 -19t21.5 -16t33 -4q142 0 185 197q2 8 6 44.5t16 110t33 171.5z" />
<glyph unicode="&#x14c;" horiz-adv-x="1415" d="M943 1257q-163 0 -290 -131q-90 -93 -163 -277.5t-73 -376.5q0 -194 94 -298t249 -104q200 0 335 182q76 102 132.5 284t56.5 354q0 367 -341 367zM1186 160q-203 -180 -486 -180q-227 0 -362.5 129.5t-135.5 354.5q0 220 93.5 403.5t241.5 307.5q207 173 452 173 q233 0 368 -133.5t135 -362.5q0 -210 -91 -396t-215 -296zM1189 1501h-500q-13 0 -18 9.5t-2 21.5q4 19 22.5 39t35.5 20h502q14 0 19.5 -9t2.5 -19q-4 -20 -23.5 -41t-38.5 -21z" />
<glyph unicode="&#x14d;" horiz-adv-x="1003" d="M958 1102h-500q-13 0 -18 9.5t-2 21.5q4 20 22 39.5t35 19.5h502q14 0 20 -9.5t3 -19.5q-4 -20 -23.5 -40.5t-38.5 -20.5zM299 709q75 86 178 138t220 52q91 0 158.5 -27.5t106 -76t56.5 -106.5t18 -127q0 -140 -68 -276t-180 -218q-121 -88 -291 -88q-166 0 -255.5 96 t-89.5 243q0 221 147 390zM669 815q-92 0 -168.5 -72t-117.5 -183.5t-41 -231.5q0 -265 192 -265q115 0 200 107q55 70 87 165t32 244q0 236 -184 236z" />
<glyph unicode="&#x14e;" horiz-adv-x="1476" d="M1364 1649q-31 -105 -126.5 -168.5t-201.5 -63.5q-115 0 -179.5 63t-49.5 169h57q-1 -58 54.5 -91.5t140.5 -33.5q80 0 153 34t95 91h57zM974 1257q-61 0 -122.5 -19.5t-124.5 -64t-117 -110.5t-99.5 -167t-71.5 -226q-41 -197 -0.5 -330.5t133 -201.5t219.5 -68 q180 0 323.5 148.5t200.5 416.5q66 311 -25.5 466.5t-315.5 155.5zM1534 674q-43 -203 -158.5 -361t-283.5 -245.5t-361 -87.5q-132 0 -240.5 45.5t-179 130.5t-96.5 206.5t6 272.5q42 198 161.5 361.5t288 257.5t349.5 94q137 0 248 -48t180 -136.5t94 -213t-8 -276.5z" />
<glyph unicode="&#x14f;" horiz-adv-x="1003" d="M503 1321q-1 -82 49 -133t133 -51t155.5 49t105.5 135l50 -25q-44 -126 -142 -201t-194 -75q-108 0 -165.5 73t-51.5 203zM299 709q75 86 178 138t220 52q91 0 158.5 -27.5t106 -76t56.5 -106.5t18 -127q0 -140 -68 -276t-180 -218q-121 -88 -291 -88q-166 0 -255.5 96 t-89.5 243q0 221 147 390zM669 815q-92 0 -168.5 -72t-117.5 -183.5t-41 -231.5q0 -265 192 -265q115 0 200 107q55 70 87 165t32 244q0 236 -184 236z" />
<glyph unicode="&#x150;" horiz-adv-x="1476" d="M1318 1700q38 0 56 -23.5t13 -51.5t-25 -44l-239 -172q-7 -6 -18 -6q-13 0 -17.5 9t-1.5 20t10 20l169 223q22 25 53 25zM1119 1632q-5 -27 -23 -39l-215 -165q-21 -15 -32 -15q-13 0 -18 8t-2.5 19t9.5 20l159 226q21 24 61 24q27 0 47.5 -22t13.5 -56zM974 1257 q-61 0 -122.5 -19.5t-124.5 -64t-117 -110.5t-99.5 -167t-71.5 -226q-41 -197 -0.5 -330.5t133 -201.5t219.5 -68q180 0 323.5 148.5t200.5 416.5q66 311 -25.5 466.5t-315.5 155.5zM1534 674q-43 -203 -158.5 -361t-283.5 -245.5t-361 -87.5q-132 0 -240.5 45.5t-179 130.5 t-96.5 206.5t6 272.5q42 198 161.5 361.5t288 257.5t349.5 94q137 0 248 -48t180 -136.5t94 -213t-8 -276.5z" />
<glyph unicode="&#x151;" horiz-adv-x="1003" d="M962 1327q30 0 48 -21t15.5 -49t-24.5 -45l-281 -225q-5 -4 -13 -4q-9 0 -17 8t-6 19q0 5 3 8l221 285q19 24 54 24zM694 1337q44 0 60 -37.5t-15 -68.5l-262 -248q-7 -6 -17 -6t-17.5 8t-5.5 19q0 3 3 6l194 299q19 28 60 28zM299 709q75 86 178 138t220 52 q91 0 158.5 -27.5t106 -76t56.5 -106.5t18 -127q0 -140 -68 -276t-180 -218q-121 -88 -291 -88q-166 0 -255.5 96t-89.5 243q0 221 147 390zM669 815q-92 0 -168.5 -72t-117.5 -183.5t-41 -231.5q0 -265 192 -265q115 0 200 107q55 70 87 165t32 244q0 236 -184 236z" />
<glyph unicode="&#x152;" horiz-adv-x="1716" d="M729 76h27q60 0 86 19t35 63l214 1007q10 46 -9 61t-79 15h-72q-79 0 -148.5 -28.5t-136 -91.5t-120 -177.5t-87.5 -273.5q-31 -159 -22.5 -271.5t54.5 -184.5t111 -105t147 -33zM1644 758q-25 -56 -25 -115l-7 -6q-197 20 -452 20l-53 -247q-51 -254 -47 -299 q122 0 267.5 6t230.5 12l84 6l3 -8q-15 -40 -27 -127l-5 -6q-48 6 -122 6h-559l-216 -4q-188 1 -314.5 88t-171.5 235t-6 332q29 139 97 261t164 213.5t223.5 144.5t266.5 53q145 -2 238 -2h538q73 0 124 6l3 -6q-23 -83 -25 -117l-5 -8q-279 25 -552 25q-16 -31 -43.5 -142 t-38.5 -168l-36 -168q203 0 461 21z" />
<glyph unicode="&#x153;" horiz-adv-x="1587" d="M1067 588h371q29 0 35 28q10 58 5 96.5t-26.5 62t-47 33t-55.5 9.5q-19 0 -40 -3t-56 -16.5t-66 -36.5t-64 -68t-56 -105zM1543 215l29 -53q-79 -83 -180.5 -132.5t-207.5 -49.5q-122 0 -203.5 45.5t-119.5 126.5q-52 -58 -97.5 -92.5t-117 -57t-165.5 -22.5 q-127 0 -210 58t-111 157.5t-1 226.5q25 116 81 208.5t130 150t158 88t171 30.5q74 0 128 -14.5t87 -42.5t51.5 -56.5t34.5 -70.5q80 87 178.5 135.5t188.5 48.5q78 0 135 -22t88 -57.5t45.5 -84.5t14 -98.5t-12.5 -104.5q-7 -34 -44 -34h-551q-21 -91 -14.5 -158.5 t26.5 -113.5t54.5 -74t69.5 -40t72 -12q163 0 293 115zM357 485q-19 -88 -20 -162.5t16.5 -134t62 -93.5t111.5 -34q32 0 63.5 8t69.5 31.5t70 60.5t61.5 100.5t46.5 146.5q22 118 16.5 197t-36.5 126.5t-66 67.5t-72 20q-62 0 -119 -32t-97 -82.5t-67.5 -107.5t-39.5 -112z " />
<glyph unicode="&#x154;" horiz-adv-x="1185" d="M996 1679q78 -40 104 -106l-320 -119q-63 -24 -91 -24q-13 0 -19.5 9t-4.5 21q5 23 40 43zM824 1255q-71 0 -111 -11t-55.5 -29t-22.5 -50l-104 -489h98q64 0 113 7t97.5 26.5t83 52.5t62.5 87.5t44 129.5q11 50 11 91t-7.5 69.5t-23.5 49.5t-35.5 33.5t-45.5 20 t-50.5 10t-53.5 2.5zM914 -6q-10 90 -102.5 288t-165.5 307q-60 -3 -134 -3l-38 -176q-56 -260 -66 -410l-6 -6q-33 6 -103 6q-32 0 -59 -1.5t-38 -2.5l-11 -2l-1 6q50 138 108 410l107 501q56 260 66 410l6 6q33 -6 103 -6q32 0 133.5 7t125.5 7q122 0 202 -18t133 -80 q87 -103 54 -256q-25 -118 -99.5 -201.5t-174.5 -128.5q-53 -25 -107 -37q32 -58 153 -303t165 -311l-5 -6q-40 6 -105 6q-101 0 -141 -6z" />
<glyph unicode="&#x155;" horiz-adv-x="727" d="M786 1374q14 4 29 4q64 0 103 -47l1 -22l-283 -224q-45 -38 -70 -38q-11 0 -17.5 8t-4.5 18q2 11 7 20.5t9 14t19 22.5zM510 725q59 67 142.5 120.5t150.5 53.5q35 0 81 -14l7 -8l-73 -152l-18 -4q-14 13 -35.5 20t-36 8t-40.5 1q-58 0 -135 -58q-61 -50 -78 -135 l-40 -188q-48 -229 -58 -369l-5 -6q-28 6 -98 6q-32 0 -57 -1.5t-35 -2.5l-9 -2l-1 6q49 136 99 369l24 112q42 197 46 361l5 6q30 2 58 8t43.5 11.5t42.5 16.5t39 15q18 0 14 -20l-37 -154h4z" />
<glyph unicode="&#x156;" horiz-adv-x="1185" d="M575 -88q58 0 82.5 -48t7.5 -128q-18 -87 -90 -137.5t-171 -65.5q-13 15 -5 49q75 16 122.5 47.5t53.5 61.5q6 28 -7.5 39t-44.5 14q-83 15 -69 80q8 37 42.5 62.5t78.5 25.5zM824 1255q-71 0 -111 -11t-55.5 -29t-22.5 -50l-104 -489h98q64 0 113 7t97.5 26.5t83 52.5 t62.5 87.5t44 129.5q11 50 11 91t-7.5 69.5t-23.5 49.5t-35.5 33.5t-45.5 20t-50.5 10t-53.5 2.5zM914 -6q-10 90 -102.5 288t-165.5 307q-60 -3 -134 -3l-38 -176q-56 -260 -66 -410l-6 -6q-33 6 -103 6q-32 0 -59 -1.5t-38 -2.5l-11 -2l-1 6q50 138 108 410l107 501 q56 260 66 410l6 6q33 -6 103 -6q32 0 133.5 7t125.5 7q122 0 202 -18t133 -80q87 -103 54 -256q-25 -118 -99.5 -201.5t-174.5 -128.5q-53 -25 -107 -37q32 -58 153 -303t165 -311l-5 -6q-40 6 -105 6q-101 0 -141 -6z" />
<glyph unicode="&#x157;" horiz-adv-x="727" d="M242 -84q58 0 82.5 -48t7.5 -128q-18 -87 -89.5 -137.5t-170.5 -65.5q-13 16 -6 49q75 16 122.5 47.5t53.5 61.5q6 28 -7.5 39t-44.5 14q-83 15 -69 80q8 37 42.5 62.5t78.5 25.5zM510 725q59 67 142.5 120.5t150.5 53.5q35 0 81 -14l7 -8l-73 -152l-18 -4 q-14 13 -35.5 20t-36 8t-40.5 1q-58 0 -135 -58q-61 -50 -78 -135l-40 -188q-48 -229 -58 -369l-5 -6q-28 6 -98 6q-32 0 -57 -1.5t-35 -2.5l-9 -2l-1 6q49 136 99 369l24 112q42 197 46 361l5 6q30 2 58 8t43.5 11.5t42.5 16.5t39 15q18 0 14 -20l-37 -154h4z" />
<glyph unicode="&#x158;" horiz-adv-x="1185" d="M728 1427q-53 89 -166 195l42 41q110 -54 190 -125q133 81 246 125l22 -41q-116 -75 -246 -195h-88zM814 1255q-70 0 -108 -11t-51 -28.5t-20 -50.5l-98 -459h88q123 0 194.5 16.5t118.5 65.5q49 51 68.5 99t19.5 158q0 108 -61 159t-151 51zM518 615l-44 -205 q-57 -272 -66 -410l-6 -6q-33 6 -103 6q-32 0 -59 -1.5t-38 -2.5l-11 -2l-1 6q50 138 108 410l107 501q56 260 66 410l6 6q33 -6 103 -6q32 0 128.5 7t120.5 7q63 0 118.5 -9t106.5 -31t87.5 -55t58 -84t21.5 -115q0 -78 -28 -135.5t-79 -117.5q-109 -127 -342 -164 q55 -74 142 -215q70 -113 161 -235.5t142 -173.5l-6 -6q-40 6 -105 6q-103 0 -143 -6q-83 145 -211 351q-131 213 -181 270h-53z" />
<glyph unicode="&#x159;" horiz-adv-x="710" d="M522 1030q-51 126 -150 266l47 27q42 -37 65.5 -59t55.5 -56t57 -69q91 77 260 184l33 -27q-169 -152 -265 -266h-103zM480 725h4q59 67 142.5 120.5t150.5 53.5q35 0 81 -14l6 -8l-73 -162l-17 -4q-14 13 -36 20t-35.5 7.5t-41.5 0.5q-73 0 -135 -47q-46 -39 -70 -107 l-46 -216q-51 -243 -60 -369l-6 -6q-33 6 -96 6q-28 0 -53 -1.5t-37 -2.5l-11 -2l-2 6q51 145 99 369l22 112q50 233 29 365l4 6q82 8 168 43q10 0 13.5 -3.5t2.5 -17.5q6 -64 -3 -149z" />
<glyph unicode="&#x15a;" horiz-adv-x="983" d="M935 1679q78 -40 104 -106l-320 -119q-63 -24 -91 -24q-13 0 -20 9t-5 21q5 23 40 43zM483 68q112 0 197.5 61.5t110.5 179.5q8 38 9 70t-4 56.5t-17 45.5t-25.5 36t-35 29t-41 24t-47.5 22q-29 12 -52 22.5t-50.5 24.5t-49 28t-45 31t-40.5 35.5t-33 40t-25.5 45.5 t-15.5 51t-5 58t8 65q22 103 100.5 187t175.5 126t188 42q70 0 127 -9.5t88.5 -23t53 -27.5t28.5 -24l7 -9l3 -6q-51 -97 -83 -196l-21 -2q-24 104 -79.5 159.5t-159.5 55.5q-100 0 -172 -61t-93 -156q-37 -174 215 -273q29 -11 53.5 -21.5t52 -25.5t49.5 -30t44 -34.5 t38 -41t28.5 -48t18 -55.5t5 -64.5t-8.5 -74.5q-22 -103 -104 -196t-198 -149t-232 -56q-70 0 -132 9.5t-100.5 23t-66.5 27t-40 22.5l-12 10l-3 6q59 125 84 201l21 2q23 -96 100 -154.5t186 -58.5z" />
<glyph unicode="&#x15b;" horiz-adv-x="749" d="M128 197l29 2q18 -62 80.5 -100t128.5 -38q74 0 127 41t53 120q0 92 -134 175q-126 79 -159 146q-16 32 -16 78q0 60 21.5 109t56.5 79.5t81.5 51.5t93.5 29.5t96 8.5q115 0 218 -65l3 -7l-58 -137l-27 -2q-12 50 -55.5 89.5t-112.5 39.5q-68 0 -113 -32t-45 -95 q0 -71 40.5 -116.5t117.5 -84.5q155 -79 155 -223q0 -125 -97 -205.5t-260 -80.5q-144 0 -281 55zM675 1374q14 4 29 4q64 0 103 -47l1 -22l-283 -224q-45 -38 -69 -38q-11 0 -18 8t-5 18q2 11 7 20.5t9 14t19 22.5z" />
<glyph unicode="&#x15c;" horiz-adv-x="983" d="M865 1663q63 -102 166 -193l-41 -43q-115 59 -191 127q-117 -74 -246 -127l-19 43q100 65 243 193h88zM483 68q112 0 197.5 61.5t110.5 179.5q8 38 9 70t-4 56.5t-17 45.5t-25.5 36t-35 29t-41 24t-47.5 22q-29 12 -52 22.5t-50.5 24.5t-49 28t-45 31t-40.5 35.5t-33 40 t-25.5 45.5t-15.5 51t-5 58t8 65q22 103 100.5 187t175.5 126t188 42q70 0 127 -9.5t88.5 -23t53 -27.5t28.5 -24l7 -9l3 -6q-51 -97 -83 -196l-21 -2q-24 104 -79.5 159.5t-159.5 55.5q-100 0 -172 -61t-93 -156q-37 -174 215 -273q29 -11 53.5 -21.5t52 -25.5t49.5 -30 t44 -34.5t38 -41t28.5 -48t18 -55.5t5 -64.5t-8.5 -74.5q-22 -103 -104 -196t-198 -149t-232 -56q-70 0 -132 9.5t-100.5 23t-66.5 27t-40 22.5l-12 10l-3 6q59 125 84 201l21 2q23 -96 100 -154.5t186 -58.5z" />
<glyph unicode="&#x15d;" horiz-adv-x="749" d="M128 197l29 2q18 -62 80.5 -100t128.5 -38q74 0 127 41t53 120q0 92 -134 175q-126 79 -159 146q-16 32 -16 78q0 60 21.5 109t56.5 79.5t81.5 51.5t93.5 29.5t96 8.5q115 0 218 -65l3 -7l-58 -137l-27 -2q-12 50 -55.5 89.5t-112.5 39.5q-68 0 -113 -32t-45 -95 q0 -71 40.5 -116.5t117.5 -84.5q155 -79 155 -223q0 -125 -97 -205.5t-260 -80.5q-144 0 -281 55zM672 1323q44 -109 150 -264l-49 -29q-42 37 -65.5 59t-55.5 56t-57 69q-107 -91 -258 -184l-35 29q186 168 267 264h103z" />
<glyph unicode="&#x15e;" horiz-adv-x="993" d="M411 -207q-53 0 -95 -12l-10 12l118 187q-65 1 -123 11t-94 23.5t-62.5 26.5t-38.5 22l-11 9l-3 6q59 125 84 201l21 2q23 -96 100 -154.5t186 -58.5q55 0 117 24.5t118.5 81.5t72.5 135q8 38 9 70t-4 56.5t-17 45.5t-25.5 36t-35 29t-41 24t-47.5 22q-29 12 -52 22.5 t-51 24.5t-50 28t-46 31t-41 35.5t-34 40t-27 45.5t-16 51t-5 58t8 65q19 88 70 158.5t118.5 112t140 63t141.5 21.5q70 0 127 -9.5t88.5 -23t53 -27.5t28.5 -24l7 -9l3 -6q-51 -97 -83 -196l-21 -2q-24 104 -79.5 159.5t-159.5 55.5q-82 0 -163.5 -63.5t-101.5 -153.5 q-37 -174 215 -273q29 -11 53.5 -21.5t52.5 -25.5t50 -30t45 -34.5t39 -41t29 -48t19.5 -55.5t6 -64.5t-8.5 -74.5q-24 -112 -99.5 -201t-177.5 -138.5t-214 -59.5l-76 -129q25 6 55 6q63 0 97 -35t21 -92q-14 -66 -85.5 -109t-165.5 -43q-46 0 -76 8t-68 27q6 32 32 53 q71 -28 112 -28q47 0 80.5 21t41.5 60q15 72 -52 72z" />
<glyph unicode="&#x15f;" horiz-adv-x="749" d="M347 -207q-52 0 -94 -12l-10 12l117 187h-8q-144 0 -281 55l57 162l29 2q18 -62 80.5 -100t128.5 -38q74 0 127 41t53 120q0 92 -134 175q-126 79 -159 146q-16 32 -16 78q0 60 21.5 109t56.5 79.5t81.5 51.5t93.5 29.5t96 8.5q115 0 218 -65l3 -7l-58 -137l-27 -2 q-12 50 -55.5 89.5t-112.5 39.5q-68 0 -113 -32t-45 -95q0 -71 40.5 -116.5t117.5 -84.5q155 -79 155 -223q0 -108 -73.5 -185t-201.5 -96l-78 -132q25 6 54 6q63 0 97 -35t22 -92q-14 -66 -86 -109t-166 -43q-46 0 -76 8t-68 27q6 32 32 53q71 -28 113 -28q47 0 80.5 21 t41.5 60q15 72 -53 72z" />
<glyph unicode="&#x160;" horiz-adv-x="993" d="M771 1427q-53 89 -166 195l42 41q110 -54 190 -125q133 81 246 125l22 -41q-116 -75 -246 -195h-88zM483 68q55 0 117 24.5t118.5 81.5t72.5 135q8 38 9 70t-4 56.5t-17 45.5t-25.5 36t-35 29t-41 24t-47.5 22q-29 12 -52 22.5t-51 24.5t-50 28t-46 31t-41 35.5t-34 40 t-27 45.5t-16 51t-5 58t8 65q19 88 70 158.5t118.5 112t140 63t141.5 21.5q70 0 127 -9.5t88.5 -23t53 -27.5t28.5 -24l7 -9l3 -6q-51 -97 -83 -196l-21 -2q-24 104 -79.5 159.5t-159.5 55.5q-82 0 -163.5 -63.5t-101.5 -153.5q-37 -174 215 -273q29 -11 53.5 -21.5 t52.5 -25.5t50 -30t45 -34.5t39 -41t29 -48t19.5 -55.5t6 -64.5t-8.5 -74.5q-38 -179 -196.5 -290t-343.5 -111q-70 0 -132 9.5t-100.5 23t-66.5 27t-40 22.5l-12 10l-3 6q59 125 84 201l21 2q23 -96 100 -154.5t186 -58.5z" />
<glyph unicode="&#x161;" horiz-adv-x="749" d="M138 197l29 2q13 -43 42.5 -76t70 -50.5t86.5 -17.5q77 0 134.5 47.5t74.5 128.5q3 15 3 29t-1.5 24.5t-8 21t-11.5 17.5t-17 15.5t-20 13.5t-24.5 13t-26.5 12l-30 12q-13 5 -19 8q-23 10 -35 15t-33 16t-32 18.5t-27.5 20.5t-24.5 25t-17.5 29.5t-12 35.5t-2 42t5.5 50 q17 80 78.5 139t136 85t150.5 26q125 0 228 -65l2 -7l-68 -137l-27 -2q-13 54 -52.5 95.5t-106.5 41.5q-66 0 -121 -38t-68 -99q-19 -87 79 -135q18 -9 61 -25q29 -11 48 -19t43.5 -20t40 -23.5t32.5 -27t26 -33t16 -39.5t6.5 -48.5t-7.5 -57.5q-10 -48 -34 -92.5t-67.5 -89 t-117.5 -71.5t-168 -27q-144 0 -281 55zM565 1028q-50 122 -151 266l47 27q31 -28 49.5 -44.5t43 -40.5t45.5 -48t40 -51q43 36 92 72t79.5 55.5t88.5 56.5l33 -27q-169 -152 -265 -266h-102z" />
<glyph unicode="&#x162;" horiz-adv-x="1105" d="M511 -197q-53 0 -95 -12l-10 12l124 197l-85 -6l-1 6q50 138 108 410l107 501q49 244 45 289q-122 0 -226.5 -6t-148.5 -12l-44 -6l-3 8q16 46 29 137l6 6q48 -6 121 -6h791q73 0 124 6l3 -6q-26 -93 -29 -137l-6 -8q-135 24 -408 24q-16 -31 -41.5 -133.5t-36.5 -155.5 l-107 -501q-56 -260 -66 -410l-6 -6q-18 3 -57 5l-80 -136q25 6 55 6q63 0 97 -35t21 -92q-14 -66 -85.5 -109t-165.5 -43q-46 0 -76 8t-68 27q7 33 31 53q71 -28 113 -28q47 0 80.5 21.5t41.5 60.5q15 71 -52 71z" />
<glyph unicode="&#x163;" horiz-adv-x="618" d="M302 -197q-53 0 -95 -12l-9 12l111 177q-62 5 -88 57t-13 125q6 34 33 147t38 164l69 315h-131q-9 0 -7 9l16 73q2 9 8 9h133q9 44 19.5 96t17.5 87.5t16 70.5l5 6q38 3 61.5 8.5t53.5 18.5t43 18q18 0 14 -21q-36 -125 -70 -284h221q8 0 11.5 -3.5t2.5 -9.5l-11 -51 q-3 -12 -20.5 -19.5t-34.5 -7.5h-189l-62 -292q-15 -70 -35 -158t-25 -109q-29 -137 40 -137q89 0 148 30l14 -56q-87 -65 -205 -82l-72 -121q26 6 55 6q63 0 97 -35t22 -92q-14 -66 -86 -109t-166 -43q-46 0 -76 8t-68 27q6 32 32 53q71 -28 112 -28q47 0 80.5 21.5 t41.5 60.5q15 71 -52 71z" />
<glyph unicode="&#x164;" horiz-adv-x="1105" d="M822 1427q-53 89 -166 195l42 41q110 -54 190 -125q133 81 246 125l22 -41q-116 -75 -246 -195h-88zM659 911q49 244 45 289q-122 0 -226.5 -6t-148.5 -12l-44 -6l-3 8q18 50 30 137l5 6q48 -6 121 -6h791q73 0 124 6l3 -6q-26 -93 -29 -137l-6 -8q-135 24 -408 24 q-16 -31 -41.5 -133.5t-36.5 -155.5l-107 -501q-56 -260 -66 -410l-6 -6q-33 6 -103 6q-32 0 -59 -1.5t-38 -2.5l-11 -2l-1 6q50 138 108 410z" />
<glyph unicode="&#x165;" horiz-adv-x="641" d="M827 1430q56 0 80 -45.5t11 -104.5q-14 -67 -84.5 -136.5t-170.5 -80.5l-3 35q62 12 106 56t53 85q4 20 -2 31.5t-18 11.5q-94 0 -77 78q6 27 34 48.5t71 21.5zM367 879q9 44 19.5 96t17.5 87.5t16 70.5l5 6q38 3 61.5 8.5t53.5 18.5t43 18q18 0 14 -21 q-36 -125 -70 -284h221q8 0 11.5 -3.5t2.5 -9.5l-11 -51q-3 -12 -20.5 -19.5t-34.5 -7.5h-189l-62 -292q-15 -70 -35 -158t-25 -109q-29 -137 40 -137q89 0 148 30l14 -56q-54 -40 -127 -63t-139 -23q-68 0 -97 52.5t-16 129.5q6 34 33 147t38 164l69 315h-131q-9 0 -7 9 l16 73q2 9 8 9h133z" />
<glyph unicode="&#x166;" horiz-adv-x="1105" d="M350 674l17 80h258l34 157q49 244 45 289q-122 0 -226.5 -6t-148.5 -12l-44 -6l-3 8q18 50 30 137l5 6q48 -6 121 -6h791q73 0 124 6l3 -6q-26 -93 -29 -137l-6 -8q-135 24 -408 24q-16 -31 -41.5 -133.5t-36.5 -155.5l-34 -157h277l-17 -80h-277l-56 -264 q-56 -260 -66 -410l-6 -6q-33 6 -103 6q-32 0 -59 -1.5t-38 -2.5l-11 -2l-1 6q50 138 108 410l56 264h-258z" />
<glyph unicode="&#x167;" horiz-adv-x="618" d="M367 879q9 44 19.5 96t17.5 87.5t16 70.5l5 6q38 3 61.5 8.5t53.5 18.5t43 18q18 0 14 -21q-36 -125 -70 -284h221q8 0 11.5 -3.5t2.5 -9.5l-11 -51q-3 -12 -20.5 -19.5t-34.5 -7.5h-188l-44 -206h208q12 0 17 -9t3 -18q-3 -18 -20 -35.5t-35 -17.5h-190l-2 -6 q-15 -70 -35 -158t-25 -109q-29 -137 40 -137q89 0 148 30l14 -56q-54 -40 -127 -63t-139 -23q-68 0 -97 52.5t-16 129.5q6 34 33 147t38 164l6 29h-117q-21 0 -16 28q3 16 19.5 34t29.5 18h101l46 206h-131q-9 0 -7 9l16 73q2 9 8 9h133z" />
<glyph unicode="&#x168;" horiz-adv-x="1353" d="M1169 1520q36 0 63.5 22t61.5 84l46 -12q-76 -184 -217 -184q-52 0 -120 53q-63 45 -101 45q-39 0 -66.5 -23t-54.5 -75l-47 10q41 93 89.5 137.5t113.5 44.5q66 0 135 -57q49 -45 97 -45zM1261 911q56 260 66 410l6 6q20 -6 70 -6q20 0 38.5 1.5t26.5 3.5l8 1l1 -6 q-48 -132 -108 -410l-65 -307q-24 -116 -56.5 -206t-85 -171t-121 -133.5t-167 -83t-221.5 -30.5q-37 0 -72.5 4.5t-75.5 15t-74.5 29.5t-66.5 45.5t-54.5 66t-35.5 87.5t-12 113.5t17 141.5l91 428q56 260 66 410l6 6q33 -6 103 -6q32 0 59 1.5t38 3.5l11 1l1 -6 q-48 -132 -108 -410l-77 -360q-7 -34 -12 -61.5t-9 -79t0 -91t20 -86t45.5 -77t81.5 -51.5t123 -21q72 0 132.5 15.5t103.5 39.5t79 63.5t58.5 77.5t42.5 92t31 95.5t23 99.5z" />
<glyph unicode="&#x169;" horiz-adv-x="1067" d="M930 1167q36 0 63.5 22.5t61.5 84.5l47 -12q-77 -185 -218 -185q-51 0 -119 53q-64 46 -101 46q-39 0 -67 -23.5t-55 -75.5l-47 10q42 93 90 138t113 45t135 -58q49 -45 97 -45zM745 131q-99 -86 -172 -118.5t-143 -32.5q-73 0 -121.5 23.5t-67.5 62.5t-23.5 89t9.5 103 l53 252q52 244 58 369l6 6q27 -6 97 -6q32 0 57 1.5t34 3.5l10 1l1 -6q-45 -117 -99 -369l-43 -203q-13 -54 -9.5 -92t12.5 -62t28 -37.5t36.5 -18.5t38.5 -5q100 0 262 152l56 266q52 244 58 369l5 6q27 -6 97 -6q32 0 57.5 1.5t35.5 3.5l9 1l1 -6q-45 -117 -99 -369 l-25 -117q-45 -209 -49 -393l-5 -6q-39 6 -90 6q-16 0 -72 -6q-9 0 -13.5 1.5t-3.5 4.5l18 131h-4z" />
<glyph unicode="&#x16a;" horiz-adv-x="1353" d="M1267 1499h-500q-13 0 -18 9.5t-2 21.5q4 19 22.5 39t35.5 20h501q14 0 20 -9t3 -19q-4 -20 -23.5 -41t-38.5 -21zM1261 911q56 260 66 410l6 6q20 -6 70 -6q20 0 38.5 1.5t26.5 3.5l8 1l1 -6q-48 -132 -108 -410l-65 -307q-24 -116 -56.5 -206t-85 -171t-121 -133.5 t-167 -83t-221.5 -30.5q-37 0 -72.5 4.5t-75.5 15t-74.5 29.5t-66.5 45.5t-54.5 66t-35.5 87.5t-12 113.5t17 141.5l91 428q56 260 66 410l6 6q33 -6 103 -6q32 0 59 1.5t38 3.5l11 1l1 -6q-48 -132 -108 -410l-77 -360q-7 -34 -12 -61.5t-9 -79t0 -91t20 -86t45.5 -77 t81.5 -51.5t123 -21q72 0 132.5 15.5t103.5 39.5t79 63.5t58.5 77.5t42.5 92t31 95.5t23 99.5z" />
<glyph unicode="&#x16b;" horiz-adv-x="1067" d="M1023 1102h-500q-13 0 -18 9.5t-2 21.5q4 19 22.5 39t35.5 20h501q14 0 20 -9.5t3 -19.5q-4 -20 -23.5 -40.5t-38.5 -20.5zM745 131q-99 -86 -172 -118.5t-143 -32.5q-73 0 -121.5 23.5t-67.5 62.5t-23.5 89t9.5 103l53 252q52 244 58 369l6 6q27 -6 97 -6q32 0 57 1.5 t34 3.5l10 1l1 -6q-45 -117 -99 -369l-43 -203q-13 -54 -9.5 -92t12.5 -62t28 -37.5t36.5 -18.5t38.5 -5q100 0 262 152l56 266q52 244 58 369l5 6q27 -6 97 -6q32 0 57.5 1.5t35.5 3.5l9 1l1 -6q-45 -117 -99 -369l-25 -117q-45 -209 -49 -393l-5 -6q-39 6 -90 6 q-16 0 -72 -6q-9 0 -13.5 1.5t-3.5 4.5l18 131h-4z" />
<glyph unicode="&#x16c;" horiz-adv-x="1353" d="M1341 1647q-31 -105 -126 -168.5t-201 -63.5q-115 0 -180 63.5t-50 168.5h58q-1 -58 54 -91.5t140 -33.5q80 0 153 34t95 91h57zM1261 911q56 260 66 410l6 6q20 -6 70 -6q20 0 38.5 1.5t26.5 3.5l8 1l1 -6q-48 -132 -108 -410l-65 -307q-24 -116 -56.5 -206t-85 -171 t-121 -133.5t-167 -83t-221.5 -30.5q-37 0 -72.5 4.5t-75.5 15t-74.5 29.5t-66.5 45.5t-54.5 66t-35.5 87.5t-12 113.5t17 141.5l91 428q56 260 66 410l6 6q33 -6 103 -6q32 0 59 1.5t38 3.5l11 1l1 -6q-48 -132 -108 -410l-77 -360q-7 -34 -12 -61.5t-9 -79t0 -91t20 -86 t45.5 -77t81.5 -51.5t123 -21q72 0 132.5 15.5t103.5 39.5t79 63.5t58.5 77.5t42.5 92t31 95.5t23 99.5z" />
<glyph unicode="&#x16d;" horiz-adv-x="1067" d="M589 1323q-1 -82 48.5 -133t132.5 -51t155.5 49t105.5 135l50 -25q-44 -126 -141.5 -201t-193.5 -75q-108 0 -166 73t-52 203zM745 131q-99 -86 -172 -118.5t-143 -32.5q-73 0 -121.5 23.5t-67.5 62.5t-23.5 89t9.5 103l53 252q52 244 58 369l6 6q27 -6 97 -6 q32 0 57 1.5t34 3.5l10 1l1 -6q-45 -117 -99 -369l-43 -203q-13 -54 -9.5 -92t12.5 -62t28 -37.5t36.5 -18.5t38.5 -5q100 0 262 152l56 266q52 244 58 369l5 6q28 -6 98 -6q32 0 57 1.5t35 3.5l9 1l1 -6q-45 -117 -99 -369l-25 -117q-45 -209 -49 -393l-5 -6q-39 6 -90 6 q-16 0 -72 -6q-9 0 -13.5 1.5t-3.5 4.5l18 131h-4z" />
<glyph unicode="&#x16e;" horiz-adv-x="1353" d="M1050 1595q-46 0 -81.5 -33.5t-45.5 -80.5q-10 -45 11.5 -80t66.5 -35t81 35t46 80q11 48 -11 81t-67 33zM847 1481q15 70 79 120t135 50q72 0 115 -49.5t28 -120.5q-15 -69 -78.5 -119.5t-136.5 -50.5q-71 0 -114 50t-28 120zM1261 911q56 260 66 410l6 6q20 -6 70 -6 q20 0 38.5 1.5t26.5 3.5l8 1l1 -6q-48 -132 -108 -410l-65 -307q-24 -116 -56.5 -206t-85 -171t-121 -133.5t-167 -83t-221.5 -30.5q-37 0 -72.5 4.5t-75.5 15t-74.5 29.5t-66.5 45.5t-54.5 66t-35.5 87.5t-12 113.5t17 141.5l91 428q56 260 66 410l6 6q33 -6 103 -6 q32 0 59 1.5t38 3.5l11 1l1 -6q-48 -132 -108 -410l-77 -360q-7 -34 -12 -61.5t-9 -79t0 -91t20 -86t45.5 -77t81.5 -51.5t123 -21q72 0 132.5 15.5t103.5 39.5t79 63.5t58.5 77.5t42.5 92t31 95.5t23 99.5z" />
<glyph unicode="&#x16f;" horiz-adv-x="1067" d="M792 1309q-46 0 -81.5 -34t-45.5 -81q-10 -45 11.5 -80t66.5 -35t81 35t46 80q11 48 -11 81.5t-67 33.5zM590 1194q15 70 79 120t135 50q72 0 114.5 -49.5t27.5 -120.5q-15 -69 -78 -119.5t-136 -50.5q-71 0 -114 50t-28 120zM745 131q-99 -86 -172 -118.5t-143 -32.5 q-73 0 -121.5 23.5t-67.5 62.5t-23.5 89t9.5 103l53 252q52 244 58 369l6 6q27 -6 97 -6q32 0 57 1.5t34 3.5l10 1l1 -6q-45 -117 -99 -369l-43 -203q-13 -54 -9.5 -92t12.5 -62t28 -37.5t36.5 -18.5t38.5 -5q100 0 262 152l56 266q52 244 58 369l5 6q27 -6 97 -6 q32 0 57.5 1.5t35.5 3.5l9 1l1 -6q-45 -117 -99 -369l-25 -117q-45 -209 -49 -393l-5 -6q-39 6 -90 6q-16 0 -72 -6q-9 0 -13.5 1.5t-3.5 4.5l18 131h-4z" />
<glyph unicode="&#x170;" horiz-adv-x="1353" d="M1330 1700q38 0 56 -23.5t13 -51.5t-25 -44l-239 -172q-7 -6 -18 -6q-8 0 -15.5 8t-5.5 19q1 7 13 22l169 223q22 25 52 25zM1131 1632q-5 -28 -22 -39l-215 -165q-21 -15 -32 -15q-19 0 -21.5 17t9.5 30l159 226q21 24 61 24q27 0 47.5 -22t13.5 -56zM1261 911 q56 260 66 410l6 6q20 -6 70 -6q20 0 38.5 1.5t26.5 3.5l8 1l1 -6q-48 -132 -108 -410l-65 -307q-24 -116 -56.5 -206t-85 -171t-121 -133.5t-167 -83t-221.5 -30.5q-37 0 -72.5 4.5t-75.5 15t-74.5 29.5t-66.5 45.5t-54.5 66t-35.5 87.5t-12 113.5t17 141.5l91 428 q56 260 66 410l6 6q33 -6 103 -6q32 0 59 1.5t38 3.5l11 1l1 -6q-48 -132 -108 -410l-77 -360q-7 -34 -12 -61.5t-9 -79t0 -91t20 -86t45.5 -77t81.5 -51.5t123 -21q72 0 132.5 15.5t103.5 39.5t79 63.5t58.5 77.5t42.5 92t31 95.5t23 99.5z" />
<glyph unicode="&#x171;" horiz-adv-x="1067" d="M1089 1327q30 0 48 -21t15.5 -49t-24.5 -45l-281 -225q-5 -4 -13 -4q-9 0 -17 8t-6 19q0 5 3 8l221 285q19 24 54 24zM821 1337q44 0 60 -37.5t-15 -68.5l-262 -248q-8 -6 -17 -6q-10 0 -17.5 8t-5.5 19q0 3 3 6l194 299q19 28 60 28zM745 131q-99 -86 -172 -118.5 t-143 -32.5q-73 0 -121.5 23.5t-67.5 62.5t-23.5 89t9.5 103l53 252q52 244 58 369l6 6q27 -6 97 -6q32 0 57 1.5t34 3.5l10 1l1 -6q-45 -117 -99 -369l-43 -203q-13 -54 -9.5 -92t12.5 -62t28 -37.5t36.5 -18.5t38.5 -5q100 0 262 152l56 266q52 244 58 369l5 6 q27 -6 97 -6q32 0 57.5 1.5t35.5 3.5l9 1l1 -6q-45 -117 -99 -369l-25 -117q-45 -209 -49 -393l-5 -6q-39 6 -90 6q-16 0 -72 -6q-9 0 -13.5 1.5t-3.5 4.5l18 131h-4z" />
<glyph unicode="&#x172;" horiz-adv-x="1353" d="M1020 -260q-54 -52 -115 -83.5t-112 -31.5q-75 0 -109.5 42t-19.5 114q23 104 147 213q-75 -14 -158 -14q-37 0 -72.5 4.5t-75.5 15t-74.5 29.5t-66.5 45.5t-54.5 66t-35.5 87.5t-12 113.5t17 141.5l91 428q56 260 66 410l6 6q33 -6 103 -6q32 0 59 1.5t38 3.5l11 1l1 -6 q-48 -132 -108 -410l-77 -360q-7 -34 -12 -61.5t-9 -79t0 -91t20 -86t45.5 -77t81.5 -51.5t123 -21q72 0 132.5 15.5t103.5 39.5t79 63.5t58.5 77.5t42.5 92t31 95.5t23 99.5l73 344q56 260 66 410l6 6q20 -6 70 -6q20 0 38.5 1.5t26.5 3.5l8 1l1 -6q-48 -132 -108 -410 l-65 -307q-39 -182 -104 -312t-172 -207q-106 -86 -157.5 -147t-66.5 -135q-7 -34 11 -61t56 -27q25 0 59 18.5t63 43.5l6 -2z" />
<glyph unicode="&#x173;" horiz-adv-x="1067" d="M620 -426q-87 0 -129.5 42t-25.5 124q16 75 91.5 157.5t178.5 134.5l14 99h-4q-99 -86 -172 -118.5t-143 -32.5q-73 0 -121.5 23.5t-67.5 62.5t-23.5 89t9.5 103l53 252q52 244 58 369l6 6q27 -6 97 -6q32 0 57 1.5t34 3.5l10 1l1 -6q-45 -117 -99 -369l-43 -203 q-13 -54 -9.5 -92t12.5 -62t28 -37.5t36.5 -18.5t38.5 -5q100 0 262 152l56 266q52 244 58 369l5 6q27 -6 97 -6q32 0 57.5 1.5t35.5 3.5l9 1l1 -6q-45 -117 -99 -369l-25 -117q-45 -209 -49 -393l-5 -6q-39 6 -90 6q-24 0 -45 -3q-68 -39 -118 -103t-62 -119 q-11 -52 14.5 -85.5t81.5 -33.5q71 0 156 70l27 -15q-49 -67 -120.5 -102t-133.5 -35z" />
<glyph unicode="&#x174;" horiz-adv-x="1849" d="M1189 1649q63 -102 166 -193l-41 -43q-113 58 -190 127q-115 -73 -247 -127l-19 43q100 65 243 193h88zM1360 281q77 120 155 257t163.5 307t120.5 242t115 240q23 -6 101 -6q53 0 79 6q-161 -241 -417.5 -690t-390.5 -657h-57q-41 196 -130 704l-448 -704h-57 q-33 161 -95 480.5t-108 547.5t-72 319q34 -6 122 -6q73 0 109 6q32 -454 169 -1075h4q83 129 350 577q-71 399 -99 498q34 -6 122 -6q84 0 120 6q0 -6 2.5 -59t5.5 -106t13 -150.5t23.5 -198.5t38.5 -242.5t57 -289.5h4z" />
<glyph unicode="&#x175;" horiz-adv-x="1540" d="M1084 1321q44 -109 150 -264l-49 -29q-42 37 -65.5 59t-55.5 56t-57 69q-107 -91 -258 -184l-35 29q186 168 267 264h103zM420 -8q-83 488 -181 891q32 -6 107 -6q76 0 104 6q43 -424 106 -701h13q128 189 265 424q-34 164 -62 279q32 -6 107 -6q76 0 104 6 q41 -398 109 -700h16q48 70 106 166t98.5 167.5t108.5 192.5t98 174q17 -6 69 -6q69 0 89 6q-44 -67 -182 -274t-225.5 -344.5t-164.5 -272.5q-17 6 -83 6q-53 0 -75 -6q-61 351 -86 479q-124 -199 -283 -481q-17 6 -89 6q-47 0 -69 -6z" />
<glyph unicode="&#x176;" horiz-adv-x="1210" d="M993 1649q63 -102 166 -193l-41 -43q-115 59 -191 127q-117 -74 -246 -127l-19 43q100 65 243 193h88zM809 585q-96 -473 -110 -591q-32 6 -105 6q-72 0 -106 -6q40 126 135 569q-44 117 -157 398t-151 366q34 -6 115 -6q82 0 118 6q22 -76 52 -162t52.5 -147.5 t61 -162.5t59.5 -158q301 354 492 630q23 -6 85 -6q59 0 87 6q-79 -92 -212.5 -244.5t-186.5 -214.5t-120 -143t-109 -140z" />
<glyph unicode="&#x177;" horiz-adv-x="995" d="M859 1323q44 -109 150 -264l-49 -29q-42 37 -65.5 59t-55.5 56t-57 69q-107 -91 -258 -184l-35 29q186 168 267 264h103zM225 885q27 -6 105 -6q74 0 102 6q5 -43 11.5 -90t12 -82.5t15.5 -91.5t14.5 -83t17.5 -92.5t16.5 -83.5t19 -94.5t17.5 -88.5h4q194 284 419 706 q19 -6 78 -6q67 0 89 6q-123 -173 -461 -688.5t-424 -681.5q-32 10 -98 10q-37 0 -74 -10q182 224 324 446q-22 137 -87.5 455.5t-100.5 468.5z" />
<glyph unicode="&#x178;" horiz-adv-x="1210" d="M693 1538q8 38 42.5 66t72.5 28t60 -28t14 -66t-42 -66t-72 -28t-60.5 28t-14.5 66zM1021 1538q8 38 42 66t72 28t60.5 -28t14.5 -66t-42.5 -66t-72.5 -28t-60 28t-14 66zM809 585q-96 -473 -110 -591q-32 6 -105 6q-72 0 -106 -6q40 126 135 569q-44 117 -157 398 t-151 366q34 -6 115 -6q82 0 118 6q22 -76 52 -162t52.5 -147.5t61 -162.5t59.5 -158q301 354 492 630q23 -6 85 -6q59 0 87 6q-79 -92 -212.5 -244.5t-186.5 -214.5t-120 -143t-109 -140z" />
<glyph unicode="&#x179;" horiz-adv-x="1236" d="M366 111q119 0 325 5.5t352 11.5l146 5l3 -6q-15 -40 -27 -127l-5 -6q-48 6 -144 6h-785l-179 -6l-4 8q16 16 39.5 43t29.5 33l1032 1108q6 7 7.5 12.5t-1 8.5t-7.5 3q-112 0 -305 -5.5t-331 -10.5l-137 -6l-2 6q15 40 27 127l5 6q48 -6 124 -6h663q49 0 142.5 4t118.5 8 q12 0 9 -12q-6 -26 -85 -111l-993 -1063q-15 -19 -18 -36zM1070 1679q78 -40 104 -106l-320 -119q-63 -24 -91 -24q-13 0 -19.5 9t-4.5 21q5 23 39 43z" />
<glyph unicode="&#x17a;" horiz-adv-x="851" d="M816 1374q14 4 30 4q64 0 103 -47l1 -22l-283 -224q-45 -38 -70 -38q-11 0 -18 8t-5 18q1 5 2 9t3.5 8t3.5 6.5t5 7.5t6 7t7.5 9t8.5 10zM300 102q111 0 240 6t203 11l74 6l3 -6q-12 -32 -25 -119l-6 -6q-45 6 -113 6h-463l-167 -6l-4 9q9 8 18 18t21 23.5t19 21.5 l632 710q-104 -1 -222 -6.5t-183 -10.5l-66 -5l-3 6q12 32 25 119l5 6q45 -6 114 -6h418q26 0 65.5 3t69.5 6t33 3q11 0 8 -12q-22 -21 -80 -86z" />
<glyph unicode="&#x17b;" horiz-adv-x="1236" d="M857 1536q9 41 47.5 72.5t79.5 31.5t66 -31.5t16 -72.5t-47.5 -72.5t-79.5 -31.5t-66 31.5t-16 72.5zM366 111q119 0 325 5.5t352 11.5l146 5l3 -6q-15 -40 -27 -127l-5 -6q-48 6 -144 6h-785l-179 -6l-4 8q16 16 39.5 43t29.5 33l1032 1108q6 7 7.5 12.5t-1 8.5t-7.5 3 q-112 0 -305 -5.5t-331 -10.5l-137 -6l-2 6q15 40 27 127l5 6q48 -6 124 -6h663q49 0 142.5 4t118.5 8q12 0 9 -12q-6 -26 -85 -111l-993 -1063q-15 -19 -18 -36z" />
<glyph unicode="&#x17c;" horiz-adv-x="851" d="M584 1169q9 41 47.5 73t79.5 32t66 -32t16 -73t-47 -72.5t-79 -31.5t-66.5 31.5t-16.5 72.5zM300 102q111 0 240 6t203 11l74 6l3 -6q-12 -32 -25 -119l-6 -6q-45 6 -113 6h-463l-167 -6l-4 9q9 8 18 18t21 23.5t19 21.5l632 710q-104 -1 -222 -6.5t-183 -10.5l-66 -5 l-3 6q12 32 25 119l5 6q45 -6 114 -6h418q26 0 65.5 3t69.5 6t33 3q11 0 8 -12q-22 -21 -80 -86z" />
<glyph unicode="&#x17d;" horiz-adv-x="1236" d="M877 1427q-53 89 -166 195l42 41q110 -54 190 -125q133 81 246 125l22 -41q-116 -75 -246 -195h-88zM366 111q119 0 325 5.5t352 11.5l146 5l3 -6q-15 -40 -27 -127l-5 -6q-48 6 -144 6h-785l-179 -6l-4 8q16 16 39.5 43t29.5 33l1032 1108q6 7 7.5 12.5t-1 8.5t-7.5 3 q-112 0 -305 -5.5t-331 -10.5l-137 -6l-2 6q15 40 27 127l5 6q48 -6 124 -6h663q49 0 142.5 4t118.5 8q12 0 9 -12q-6 -26 -85 -111l-993 -1063q-15 -19 -18 -36z" />
<glyph unicode="&#x17e;" horiz-adv-x="851" d="M603 1026q-51 126 -150 266l47 27q120 -105 177 -184q88 75 261 184l33 -27q-169 -152 -265 -266h-103zM300 102q111 0 240 6t203 11l74 6l3 -6q-12 -32 -25 -119l-6 -6q-45 6 -113 6h-463l-167 -6l-4 9q9 8 18 18t21 23.5t19 21.5l632 710q-104 -1 -222 -6.5t-183 -10.5 l-66 -5l-3 6q12 32 25 119l5 6q45 -6 114 -6h418q26 0 65.5 3t69.5 6t33 3q11 0 8 -12q-22 -21 -80 -86z" />
<glyph unicode="&#x17f;" horiz-adv-x="593" d="M360 895q19 23 32 82q27 125 49.5 175t91.5 122q148 156 342 156q62 0 89 -19v-6q-34 -42 -93 -168l-23 -2q-25 72 -103 72q-32 0 -58.5 -11t-44.5 -28.5t-32 -45t-22.5 -54.5t-16 -63.5t-11.5 -66.5t-10 -69t-11 -64l-168 -768q-31 -141 -84.5 -262.5t-113.5 -191.5 q-134 -156 -293 -156q-56 0 -79 18l-1 6q27 38 84 168l20 2q21 -71 94 -71q25 0 46 11.5t35 26t29.5 47.5t24 55.5t25.5 70.5t37 146t47 245t44 231l57 273q4 19 0 25.5t-18 6.5h-86q-14 0 -14 11l10 51q7 29 42 29q46 0 83 16z" />
<glyph unicode="&#x180;" horiz-adv-x="1017" d="M781 1130l-15 -69h-223q-1 -6 -4 -18.5t-4 -18.5l-50 -238q128 113 280 113q67 0 126.5 -28t101 -80t57.5 -126.5t-3 -168.5q-25 -117 -88 -217t-143.5 -164t-168.5 -99.5t-168 -35.5q-121 0 -193 75q-45 -35 -84 -80q-47 0 -62 11q24 60 45 159l179 842q10 50 15 74 h-137l15 69h135q30 164 33 242l5 6q30 2 60 8.5t44.5 11t48.5 17.5t40 15q19 0 14 -21q-43 -125 -78 -279h222zM353 166q56 -96 133 -96q143 0 242 105t137 284q31 145 -18.5 237t-146.5 92q-22 0 -50 -3.5t-83.5 -24.5t-99.5 -58z" />
<glyph unicode="&#x181;" horiz-adv-x="1335" d="M770 1241l-102 -477h162q75 0 135.5 16t97.5 39.5t63.5 56.5t39 62t19.5 61q8 51 7 89t-18 66t-39.5 46t-56 29t-68 15.5t-75.5 4.5q-101 0 -165 -8zM651 684l-129 -608q78 -10 178 -10q108 0 192.5 27.5t135.5 75t80 98t41 108.5q7 32 7.5 64t-5 68t-24 66.5t-48 56 t-78.5 40t-112 14.5h-238zM568 1266q-80 0 -136.5 -50.5t-51.5 -130.5q0 -5 -0.5 -13t-1 -15.5t-1.5 -14.5q-8 -37 -33 -55t-54 -18q-32 0 -48.5 22t-9.5 53q9 45 40 92t78.5 89t116.5 69t144 27h411q75 0 134 -14.5t94.5 -40t59 -56.5t31.5 -68t8 -70.5t-7 -67.5 q-17 -82 -85.5 -155t-160.5 -114q69 -19 119 -52t75 -70.5t39 -80.5t11.5 -82.5t-7.5 -74.5q-17 -81 -70 -153t-123 -120.5t-151 -77t-156 -28.5q-89 0 -231.5 2t-179.5 2l-234 -4l9 43q4 16 15 16h64q28 0 45 5t26.5 19.5t13.5 26.5t10 41l219 1029q10 46 5.5 68t-27.5 22z " />
<glyph unicode="&#x182;" horiz-adv-x="1159" d="M503 711l-133 -625q94 -16 171 -16q371 0 438 315q7 34 9.5 65.5t-2 64.5t-16.5 61.5t-34.5 53.5t-54.5 42.5t-80 28t-107 10.5h-191zM437 1180q12 57 1 71.5t-62 14.5h-62q-9 0 -8 8l10 47h923l-34 -287l-55 -6q-8 127 -52 171t-127 44h-355l-98 -463h117q72 0 131 -4 t115 -13.5t98 -24.5t78.5 -37.5t58 -53t36.5 -69.5t12.5 -88t-12.5 -109q-25 -121 -105 -209.5t-183 -130t-217 -41.5h-612l9 45q1 7 13 10h61q42 0 66 24t35 75z" />
<glyph unicode="&#x183;" horiz-adv-x="987" d="M329 111q21 -36 52 -49t82 -13q141 0 241 113t139 295q32 154 -14.5 253t-142.5 99q-22 0 -48.5 -3.5t-80.5 -24.5t-98 -58zM689 1409h411l-32 -287l-55 -6q-2 39 -10 75t-24 71t-45 56t-68 21h-276l-118 -553q128 113 274 113q139 0 218.5 -117.5t41.5 -298.5 q-25 -118 -84.5 -215.5t-136 -159t-160.5 -95t-164 -33.5q-130 0 -198 71q-25 -28 -80 -76l-41 11q17 49 40 159l221 1039q17 88 9.5 116.5t-39.5 28.5l-67 -6q-10 0 -8 10l7 51q159 25 384 25z" />
<glyph unicode="&#x184;" horiz-adv-x="1171" d="M516 711l-134 -627q69 -14 171 -14q371 0 438 315q7 34 9.5 65.5t-2 64.5t-16.5 61.5t-34.5 53.5t-54.5 42.5t-80 28t-107 10.5h-190zM400 946q20 95 -7.5 148.5t-86.5 64.5l15 70q147 26 275 119h55l-121 -568h115q64 0 118 -3t105 -10.5t92 -19t76.5 -29t61.5 -40 t44 -52.5t26.5 -66t7.5 -81t-12 -98q-25 -121 -105 -209.5t-183 -130t-217 -41.5h-612l10 45q1 8 12 10h61q42 0 66 23.5t35 73.5z" />
<glyph unicode="&#x185;" horiz-adv-x="993" d="M343 113q40 -64 136 -64q140 0 241 115t140 297q32 154 -15 252t-144 98q-126 0 -228 -86zM386 1026q37 176 -98 213l15 70q147 29 275 121h45l-136 -642q126 111 275 111q139 0 219 -115.5t42 -296.5q-25 -118 -85 -216t-137 -160.5t-161.5 -96.5t-164.5 -34 q-124 0 -197 73q-24 -27 -80 -76l-39 11q21 70 41 162z" />
<glyph unicode="&#x186;" horiz-adv-x="1331" d="M571 -20q-70 0 -139.5 9.5t-119.5 23t-89.5 27t-58.5 22.5l-20 10l-2 6q9 21 23 51t20 43.5t14.5 35.5t16 44.5t15.5 52.5l21 2q66 -231 368 -231q53 0 113.5 18.5t128.5 62t127 106.5t109 162t75 218q19 92 21 177.5t-17 163t-58 134.5t-108 91t-161 34q-151 0 -270 -44 t-248 -159l-41 31q131 134 289.5 205.5t310.5 71.5q107 0 194.5 -26.5t147 -73t100 -109.5t58.5 -138t18.5 -155t-17.5 -164q-31 -147 -116 -279t-197 -224t-245.5 -145.5t-262.5 -53.5z" />
<glyph unicode="&#x187;" horiz-adv-x="1331" d="M1450 1261q10 -4 14 -12q-6 -15 -16.5 -36.5t-13.5 -27.5v-9l-4 -1q-34 -73 -56 -153l-20 -2q-66 231 -369 231q-53 0 -113.5 -18.5t-128.5 -62t-127 -106.5t-109 -162t-75 -218q-19 -92 -21 -177.5t17 -163t58 -134.5t108 -91t161 -34q151 0 270 44t248 159l41 -31 q-131 -134 -288.5 -205t-310.5 -71q-107 0 -195 26.5t-146.5 72.5t-100.5 109.5t-58.5 137.5t-19 155.5t17.5 163.5q42 196 172.5 359t303 253.5t345.5 90.5q187 0 366 -67q40 111 129.5 176t155.5 65q38 0 50.5 -24t7.5 -50q-16 -72 -117 -72q-26 0 -61.5 -29t-67 -57.5 t-47.5 -28.5z" />
<glyph unicode="&#x188;" horiz-adv-x="1009" d="M933 859q3 -1 12 -4.5t14.5 -5.5t12 -5.5t11 -7.5t6.5 -9l-83 -168l-27 -2q-11 31 -29 60h-12q-42 0 -42 2q6 23 15 46q-47 42 -107 42q-112 0 -217 -89t-139 -247q-19 -90 -8.5 -161t43 -119.5t82 -74.5t109.5 -26q137 0 253 129h8l34 -33q-70 -101 -168 -153.5 t-195 -52.5q-194 0 -289 124t-53 322q22 105 82.5 196t139 150.5t168 93t172.5 33.5q69 0 148 -21q55 71 128.5 107.5t132.5 36.5q47 0 61.5 -23t8.5 -51q-7 -32 -30 -51.5t-55 -19.5q-16 0 -50 9t-52 9q-46 0 -85 -36z" />
<glyph unicode="&#x189;" horiz-adv-x="1447" d="M419 168q-8 -36 3 -51.5t55.5 -23t146.5 -7.5q94 0 169 11.5t151.5 44t133.5 86.5t103.5 143.5t72.5 210.5q21 100 23.5 189.5t-21 176.5t-74 149.5t-143.5 101t-221 38.5q-42 0 -70.5 -3t-55 -11t-42.5 -25t-21 -43l-104 -487h207l-17 -80h-207zM576 1321q66 0 170 3 t169 3q97 0 184 -25t154.5 -70.5t120 -109.5t80.5 -141.5t36 -166t-14 -183.5q-31 -145 -98 -259t-149 -183t-182.5 -114t-192.5 -62t-185 -17q-114 0 -212 2t-162 2q-32 0 -59 -1.5t-38 -2.5l-11 -2l-1 6q50 138 108 410l38 178h-172l17 80h172l52 243q56 260 66 410l5 6 q34 -6 104 -6z" />
<glyph unicode="&#x18a;" horiz-adv-x="1593" d="M580 147q-8 -36 3.5 -51.5t56 -22.5t146.5 -7q92 0 171.5 13.5t159 49t141 92.5t110.5 149t75 212q17 81 20 159t-9.5 154.5t-47.5 140.5t-88.5 113t-137.5 76.5t-191 27.5q-45 0 -72 -2t-54.5 -9.5t-43 -23.5t-20.5 -42zM373 1092q9 -50 -17.5 -84.5t-68.5 -34.5 q-31 0 -49 19t-9 65q8 36 34.5 79t70 86.5t114 72t151.5 28.5q27 0 71.5 -1t73.5 -1q73 0 191 1t145 1q116 0 217.5 -35.5t173.5 -98.5t120 -150t59 -190t-11 -218q-31 -147 -91 -259t-135 -182.5t-172 -115t-194.5 -61.5t-211.5 -17q-60 0 -179 2t-193 2l-263 -4l8 41 q4 18 19 18h61q58 0 87 22.5t40 72.5l217 1021q13 47 1.5 71t-55.5 24q-67 0 -128 -31.5t-74 -91.5q-3 -16 -3 -51z" />
<glyph unicode="&#x18b;" horiz-adv-x="1150" d="M946 711h-183q-82 0 -149.5 -20t-112.5 -51.5t-79.5 -75.5t-53 -87.5t-28.5 -91.5q-68 -319 305 -319q71 0 167 18zM1209 1180l-218 -1028q-11 -50 3 -73.5t58 -23.5h62q7 -2 6 -10l-11 -49q-142 4 -232 4q-72 0 -185 -2t-183 -2q-85 0 -155 24.5t-119.5 73.5t-68 120.5 t0.5 166.5q20 94 62.5 164t101 114.5t141.5 71.5t174 38t208 11h107l98 463h-344q-82 0 -145.5 -44t-127.5 -171l-52 6l95 314q101 -27 226 -27h444l236 2l-10 -49q-1 -8 -10 -8h-62q-52 0 -70 -15t-30 -71z" />
<glyph unicode="&#x18c;" horiz-adv-x="1011" d="M724 186l110 521q-26 62 -65.5 92t-108.5 30q-122 0 -213 -104q-82 -88 -121 -272q-39 -186 16.5 -286.5t150.5 -100.5q49 0 100.5 28t130.5 92zM1140 1430l18 -19q-26 -25 -41 -98l-227 -1067q-17 -80 -15 -109q1 -13 13.5 -22t25.5 -9q64 0 101 7l-4 -58 q-225 -37 -285 -80h-49l37 146q-81 -68 -150.5 -104.5t-141.5 -36.5q-163 0 -233.5 122t-30.5 314q49 230 206 360q78 62 157 92.5t176 30.5q34 0 86.5 -13t81.5 -32l94 438q6 28 -1.5 37.5t-35.5 9.5h-250q-38 0 -75.5 -21t-68 -56t-54 -71t-42.5 -75l-52 6l94 308 q93 -21 212 -21h326q93 8 128 21z" />
<glyph unicode="&#x18d;" horiz-adv-x="1003" d="M486 49l29 -26l-10 32q306 101 366 383q11 51 12 104.5t-10.5 105t-34.5 91.5t-64 65t-96 25q-36 0 -70 -7.5t-78 -32.5t-80 -65t-70 -112t-54 -168q-17 -81 12.5 -180t96.5 -164zM533 4l31 -31q158 -148 138 -243q-12 -56 -44 -98.5t-77.5 -66t-96.5 -35t-107 -11.5 q-140 0 -223 64.5t-71 123.5q9 40 37.5 58t56.5 18q21 0 45.5 -20.5t39.5 -69.5q17 -55 52.5 -81t78.5 -26q171 0 198 123q11 51 -132 185l-121 114q-116 108 -161 199t-18 215q26 120 86 214.5t138 150t163 84t169 28.5q185 0 272.5 -121t48.5 -305q-17 -79 -56.5 -148 t-89 -117.5t-113 -90t-122 -67t-122.5 -46.5z" />
<glyph unicode="&#x18e;" horiz-adv-x="1146" d="M448 643q24 54 24 115l8 6q14 -1 48.5 -4t51.5 -4.5t50.5 -4t60.5 -3.5t65 -2.5t82 -2t94 -0.5l36 168q53 264 49 310q-122 0 -262.5 -6t-219.5 -13l-80 -6l-2 8q3 7 5 14t4 13t3.5 13.5l2.5 12.5t2.5 14.5t2 14.5t2 17t2.5 18l6 6q48 -6 121 -6h539q31 0 57.5 1.5 t37.5 3.5l11 1l3 -6q-52 -148 -108 -410l-107 -501q-57 -265 -66 -410l-4 -6q-33 6 -105 6h-559q-73 0 -124 -6l-3 6q25 89 27 127l6 8q299 -24 572 -24q16 31 42.5 137.5t37.5 161.5l53 247q-255 0 -461 -20z" />
<glyph unicode="&#x18f;" horiz-adv-x="1318" d="M426 1071l-36 49q84 66 135.5 101.5t116.5 68t130.5 45.5t148.5 13q107 0 192.5 -27.5t141 -76.5t93 -113.5t52 -141.5t13 -157.5t-19.5 -163.5q-43 -202 -143.5 -356.5t-257.5 -245.5t-350 -91q-96 0 -172 21t-126 58.5t-85.5 89.5t-49.5 114t-18 131.5t8 142.5h979 q7 23 18 76q32 143 22.5 265.5t-49.5 212.5t-116.5 141t-178.5 51q-68 0 -128.5 -15.5t-120.5 -50.5t-97.5 -62t-101.5 -79zM344 442q5 -197 89.5 -297t237.5 -100q104 0 199.5 57.5t162 145t108.5 194.5h-797z" />
<glyph unicode="&#x190;" horiz-adv-x="1058" d="M891 1348q81 0 161.5 -29t119.5 -33l-23 -293l-66 -10q-1 57 -4.5 94.5t-17 79t-36.5 65.5t-65 40t-101 16q-128 0 -222 -65.5t-120 -188.5q-6 -27 -6.5 -56t5 -61t23 -59.5t43.5 -50.5t70 -36t101 -13h139q17 0 23.5 -11.5t2.5 -29.5q-9 -39 -43 -39h-199 q-78 0 -141 -25.5t-102 -69t-63 -91t-35 -101.5q-17 -92 -9.5 -156t41.5 -104t81.5 -58t109.5 -18q56 0 113.5 16.5t116 50.5t110.5 95t87 141l61 -6l-98 -295q-43 -6 -110.5 -25.5t-135.5 -33t-140 -13.5q-42 0 -81 3.5t-81 12t-77.5 22t-69.5 33.5t-56 48t-38.5 64 t-17.5 81t9 101q17 79 57.5 146t94 112.5t110 75t114.5 45.5q-17 7 -34 16.5t-40.5 27.5t-40.5 40t-32.5 53.5t-16.5 68t6 83.5q23 110 109.5 189.5t193.5 115t220 35.5z" />
<glyph unicode="&#x191;" horiz-adv-x="1036" d="M554 670l-124 -584q-24 -113 -65.5 -202t-87.5 -142t-99 -88t-97.5 -47.5t-86.5 -12.5q-30 0 -62 6.5t-64.5 20.5t-49.5 42.5t-9 66.5q13 61 77 61q60 0 63 -80q-1 -16 1.5 -25.5t16 -18.5t40.5 -9q77 0 148 120t120 349l223 1049q10 47 -7.5 68.5t-80.5 21.5h-61 q-17 0 -14 14l9 41l9 2l255 -2l152 2h498q-22 -161 -24 -317l-62 -11q-4 38 -7 59t-9 51t-14 46.5t-21 36.5t-31 29.5t-43.5 16.5t-57.5 7h-240q-38 0 -59 -14.5t-28 -50.5l-93 -437h260q50 0 75 21t46 69l28 62q8 16 20 16h45q6 0 4 -8q-46 -134 -58 -194q-15 -69 -25 -197 l-5 -6h-47q-14 0 -16 14l1 64q2 47 -15.5 68.5t-67.5 21.5h-260z" />
<glyph unicode="&#x192;" horiz-adv-x="921" d="M972 1430q58 0 99.5 -13.5t60.5 -35t25.5 -44.5t1.5 -47q-7 -32 -29.5 -54t-52.5 -22q-33 0 -51.5 12t-17.5 40q3 104 -51 104q-16 0 -34 -11t-41 -38t-51 -81.5t-55 -131.5l-77 -227h215l-27 -80h-217l-12 -35q-184 -564 -243 -722q-121 -324 -225 -436 q-78 -83 -170 -83q-76 0 -105.5 38.5t-21.5 76.5q6 25 28 46t50 21q47 0 58 -43q5 -13 2 -27t3 -25t25 -11q49 0 94 61.5t85.5 175.5t72 225.5t72.5 265t68 240.5l73 232h-169l29 80h74q97 0 135 108q73 215 177.5 328t201.5 113z" />
<glyph unicode="&#x193;" horiz-adv-x="1476" d="M1485 1260q9 -4 11 -11q-16 -36 -26 -58q0 -3 -1 -8t-1 -7l-6 -1q-33 -74 -55 -153l-21 -2q-66 231 -368 231q-210 0 -376.5 -158t-222.5 -423q-15 -69 -14.5 -138t15 -136t48 -125t82.5 -102t122 -69.5t161 -25.5q218 0 317 78l19 88q55 280 62 389l6 6q33 -6 103 -6 q32 0 59 1.5t38 3.5l11 1l1 -6q-40 -108 -98 -361q-16 -72 0 -98l-1 -6q-259 -184 -584 -184q-201 0 -345 88.5t-201.5 236.5t-20.5 324q35 163 126.5 301.5t212 228t258.5 139.5t271 50q189 0 368 -67q40 111 129.5 176t155.5 65q38 0 50.5 -24t7.5 -50q-16 -72 -117 -72 q-7 0 -22 1t-19 1q-49 0 -83 -34t-52 -84z" />
<glyph unicode="&#x194;" horiz-adv-x="1263" d="M587 -41q-55 -62 -105 -149t-56 -117q-9 -39 2 -54.5t41 -15.5q37 0 62.5 47.5t35.5 96.5q22 100 20 192zM1249 1176q21 33 26 55t-20.5 28.5t-84.5 6.5h-37q-6 0 -10 4.5t-3 11.5l9 39l4 2q149 -2 229 -2l179 2l3 -2l-8 -39q-3 -16 -20 -16q-65 0 -101 -18.5t-67 -71.5 l-617 -1051q6 -100 3 -196.5t-11 -131.5q-15 -68 -50 -126t-93.5 -97t-127.5 -39q-78 0 -109 40t-19 97q9 40 76 149.5t169 252.5l-154 1097q-8 57 -40 76t-90 19q-6 0 -9.5 4.5t-2.5 11.5l8 39l4 2q159 -2 239 -2l255 2l4 -2l-9 -39q-3 -16 -20 -16h-55q-69 0 -91 -20.5 t-19 -74.5q15 -105 40 -287t46 -334.5t41 -285.5q105 181 306.5 525.5t226.5 386.5z" />
<glyph unicode="&#x195;" horiz-adv-x="1462" d="M425 1153q19 100 12.5 130t-39.5 30l-65 4q-12 0 -10 10l6 49q63 4 154.5 21.5t133.5 32.5q13 0 18.5 -5t3.5 -16q-23 -82 -51 -215l-98 -459q199 164 373 164q222 0 154 -317l-68 -316q-42 -194 113 -194q74 0 148.5 61.5t127 156t74.5 195.5q52 242 -69 263 q-12 1 -23.5 4t-25.5 10.5t-20 23t-1 37.5q7 30 34 53t66 23q200 0 118 -389q-29 -135 -80.5 -241t-113.5 -168t-127 -94t-129 -32q-304 0 -244 297l71 332q25 119 -1.5 159t-116.5 40q-98 0 -276 -144l-109 -512q-10 -46 5 -68t64 -22h39q16 0 13 -16l-8 -39l-5 -4 q-139 4 -219 4l-211 -4l-4 4l9 39q3 16 18 16h38q50 0 74 21.5t34 68.5z" />
<glyph unicode="&#x196;" horiz-adv-x="593" d="M429 1153q19 100 12.5 130t-39.5 30l-65 4q-12 0 -10 10l6 49q63 4 154.5 21.5t133.5 32.5q13 0 18.5 -5t3.5 -16q-23 -82 -51 -215l-195 -918q-22 -95 -17 -141.5t44 -46.5q38 0 69.5 12.5t80.5 44.5l29 -34q-76 -69 -142 -102.5t-133 -33.5q-149 0 -106 203z" />
<glyph unicode="&#x197;" horiz-adv-x="600" d="M721 754l-14 -70h-168l-59 -274q-56 -260 -66 -410l-6 -6q-33 6 -103 6q-32 0 -59 -1.5t-38 -2.5l-11 -2v6q47 131 107 410l58 274h-178l15 70h178l34 157q56 260 66 410l6 6q33 -6 103 -6q32 0 59 1.5t38 3.5l11 1v-6q-46 -125 -107 -410l-34 -157h168z" />
<glyph unicode="&#x198;" horiz-adv-x="1304" d="M1360 1348q90 0 141.5 -45t40.5 -99q-7 -30 -34 -52t-55 -22q-24 0 -36.5 15t-17.5 37t-11 44t-22 37t-44 15q-15 0 -39 -16t-58.5 -48t-66 -63.5l-80.5 -80.5l-81 -81q-46 -44 -118.5 -108.5t-102 -95.5t-34.5 -52q-4 -20 17 -51l377 -532q61 -93 140 -93h14 q7 0 11.5 -4.5t3.5 -11.5l-8 -39l-7 -4q-153 4 -233 4l-124 -4l-3 4q25 99 -9 148l-287 405q-25 34 -49 51t-58 24l-47 -220q-56 -260 -66 -410l-6 -6q-33 6 -103 6q-32 0 -59 -1.5t-38 -2.5l-11 -2v6q47 131 107 410l107 501q56 260 66 410l6 6q33 -6 103 -6q32 0 59 1.5 t38 3.5l11 1v-6q-46 -125 -107 -410l-42 -198q53 16 131 78q160 132 293 262q32 31 82.5 84t81 83t71 63.5t79 49t77.5 15.5z" />
<glyph unicode="&#x199;" horiz-adv-x="980" d="M396 1016q11 54 29 103.5t42 96.5t56.5 85.5t71 67.5t86 45t100.5 16q43 0 84 -13t66.5 -38t19.5 -54q-8 -37 -31.5 -58.5t-50.5 -21.5q-23 0 -38.5 14t-21.5 33.5t-7 42.5q-1 33 -26 33q-69 0 -126.5 -76.5t-86.5 -214.5l-126 -592q27 6 76.5 37t109.5 79t130 110 q50 41 58 80q3 14 -8 23t-44 9h-9q-7 0 -11 5.5t-2 11.5l9 39l7 4q97 -4 169 -4l191 4l8 -4l-9 -39q-1 -5 -5.5 -9t-10 -6t-10.5 -2h-14q-41 0 -106.5 -29t-111.5 -69l-192 -172q-10 -8 -12 -22t4 -27l164 -354q18 -41 56.5 -67t77.5 -26h15q18 0 15 -16l-9 -39l-5 -4 q-103 4 -183 4l-128 -4l-5 4l8 39q9 40 -24 109l-105 210q-21 43 -43.5 58.5t-61.5 15.5l-61 -287q-10 -46 5 -68t64 -22h4q16 0 13 -16l-8 -39l-5 -4q-104 4 -184 4l-211 -4l-4 4l9 39q3 16 18 16h38q50 0 74 21.5t34 68.5z" />
<glyph unicode="&#x19a;" horiz-adv-x="532" d="M682 705l-15 -70h-184l-48 -225q-58 -268 -66 -410l-6 -6q-27 6 -97 6q-32 0 -57 -1.5t-35 -2.5l-9 -2l-1 6q48 130 107 410l48 225h-176l15 70h176l60 282q57 270 61 385l6 6q30 2 60 8.5t44.5 11t48.5 17.5t40 15q18 0 14 -21q-55 -164 -102 -385l-68 -319h184z" />
<glyph unicode="&#x19b;" horiz-adv-x="1087" d="M981 1262l22 -62l-232 -120l57 -642q6 -75 10.5 -119.5t10.5 -87.5t12 -64t16 -38.5t21.5 -23t28.5 -5.5q37 0 64.5 10.5t64.5 47.5l37 -35q-41 -61 -99 -104.5t-102 -43.5q-73 0 -104 65.5t-45 217.5l-42 485l-451 -743q-106 -8 -159 -25l-46 25l642 891l-8 88 q-1 18 -5 50l-217 -114l-22 62l229 119q-36 209 -137 209q-75 0 -156 -52l-28 35q127 142 229 142q170 0 192 -265l1 -16z" />
<glyph unicode="&#x19c;" horiz-adv-x="1753" d="M623 1176l-195 -916q-21 -96 10.5 -141t99.5 -45q139 0 318 147q2 33 14 84l185 871q10 45 -6.5 67.5t-68.5 22.5h-43q-18 0 -15 16l8 39l5 2q151 -2 237 -2l227 2l6 -2l-8 -39q-3 -16 -22 -16h-41q-54 0 -79.5 -22t-35.5 -68l-194 -912q-21 -96 11 -143t100 -47 q119 0 309 151l202 951q10 45 -6.5 67.5t-68.5 22.5h-43q-18 0 -15 16l8 39l4 2q152 -2 238 -2l227 2l6 -2l-8 -39q-3 -16 -22 -16h-41q-54 0 -79 -22t-35 -68l-202 -953q-12 -56 -11.5 -84.5t8 -35.5t25.5 -7q44 0 95 10l-2 -55q-110 -18 -151.5 -28t-90.5 -31 q-43 -17 -59 -17h-33l44 177h-6q-223 -177 -394 -177q-88 0 -138.5 52t-45.5 125q-220 -177 -414 -177q-70 0 -112.5 25.5t-57 73.5t-13 103.5t17.5 129.5l185 869q10 45 -6.5 67.5t-68.5 22.5h-43q-18 0 -15 16l8 39l4 2q152 -2 238 -2l229 2l4 -2l-8 -39q-3 -16 -20 -16 h-43q-53 0 -78 -22t-35 -68z" />
<glyph unicode="&#x19d;" horiz-adv-x="1423" d="M251 180l201 946q0 12 -5 32.5t-16.5 46t-37 43.5t-60.5 18q-8 0 -15 4.5t-6 11.5l7 37l7 4h266l523 -903q11 -20 22.5 -43t18.5 -37.5t14.5 -27.5t13 -19t10.5 -6q10 0 26 78l165 776q11 49 -8 87t-76 38h-53q-9 0 -17.5 4.5t-7.5 11.5l8 39l11 2q151 -2 225 -2l227 2 l4 -2l-8 -39q-3 -16 -20 -16h-55q-56 0 -91.5 -37t-46.5 -88l-233 -1098q-12 -59 -56 -59q-50 3 -72 45l-523 903q-37 67 -55 67q-21 0 -42 -100l-152 -717q-16 -74 -26 -119t-29 -111.5t-36.5 -108t-45 -89t-57.5 -74.5t-71 -45t-89 -18q-67 0 -107 33t-33 67q6 30 24 47.5 t31.5 21t25.5 3.5q21 0 36 -25t16 -57q3 -29 35 -29q127 0 233 502z" />
<glyph unicode="&#x19e;" horiz-adv-x="1071" d="M531 899l-45 -182h6q114 107 199.5 144.5t173.5 37.5q54 0 90.5 -16.5t55.5 -44.5t25 -70.5t1.5 -88.5t-16.5 -104l-192 -903q-10 -44 5.5 -63.5t62.5 -24.5l38 -4q18 -2 15 -16l-9 -39l-4 -4q-135 4 -221 4l-201 -4l-4 4l9 39q3 14 19 16l30 4q51 7 74 25.5t33 62.5 l195 918q27 107 8.5 159t-96.5 52q-71 0 -141.5 -34.5t-164.5 -123.5l-106 -496q-10 -44 5.5 -62t64.5 -26l27 -4q16 -2 13 -16l-8 -39l-5 -4q-126 4 -208 4l-214 -4l-3 4l8 39q3 14 20 16l40 4q51 5 74 24t33 64l108 510q15 77 10 101t-28 26l-86 9l6 49q214 33 296 63 q4 0 6 -1t1 -5z" />
<glyph unicode="&#x19f;" horiz-adv-x="1476" d="M1534 674q-43 -203 -158.5 -361t-283.5 -245.5t-361 -87.5q-132 0 -240.5 45.5t-179 130.5t-96.5 206.5t6 272.5q42 198 161.5 361.5t288 257.5t349.5 94q137 0 248 -48t180 -136.5t94 -213t-8 -276.5zM1329 713q42 272 -52 408t-303 136q-59 0 -118 -18t-120.5 -59.5 t-114 -102.5t-98.5 -155t-74 -209h880zM1314 633h-882q-23 -138 -4.5 -243.5t70.5 -176.5t127.5 -107t165.5 -36q180 0 323 148t200 415z" />
<glyph unicode="&#x1a0;" horiz-adv-x="1476" d="M974 1257q-61 0 -122.5 -19.5t-124.5 -64t-117 -110.5t-99.5 -167t-71.5 -226q-41 -197 -0.5 -330.5t133 -201.5t219.5 -68q180 0 323.5 148.5t200.5 416.5q66 311 -25.5 466.5t-315.5 155.5zM1534 674q-43 -203 -158.5 -361t-283.5 -245.5t-361 -87.5 q-132 0 -240.5 45.5t-179 130.5t-96.5 206.5t6 272.5q42 198 161.5 361.5t288 257.5t349.5 94q178 0 310 -81q22 -3 46 -3q17 0 41.5 6t54 27t36.5 53q4 19 -13 34t-40 17q-47 6 -65.5 33.5t-10.5 62.5q8 37 37 58.5t74 21.5q58 0 88 -56t14 -130q-35 -165 -184 -185 q94 -91 127.5 -224.5t-1.5 -307.5z" />
<glyph unicode="&#x1a1;" horiz-adv-x="1021" d="M163 420q45 211 199.5 345t354.5 134q125 0 206 -47q23 -4 52 -4q17 0 40 5t51 25t35 52q4 19 -10.5 31.5t-37.5 15.5q-48 4 -67 31t-11 61q8 37 37.5 58.5t73.5 21.5q57 0 82.5 -53t10.5 -127q-16 -75 -63.5 -122t-116.5 -58q56 -66 71.5 -163.5t-6.5 -187.5 q-18 -84 -64.5 -164.5t-115 -146.5t-164.5 -106.5t-202 -40.5q-83 0 -150.5 24t-110.5 66t-71 98t-31.5 120t8.5 132zM685 815q-124 0 -210.5 -101t-117.5 -247q-11 -50 -12.5 -103t9.5 -107.5t35 -97t69 -69.5t106 -27q30 0 62 8.5t69 31.5t69 57.5t60.5 92t43.5 130.5 q92 432 -183 432z" />
<glyph unicode="&#x1a2;" horiz-adv-x="1806" d="M956 1278q-77 0 -157.5 -35.5t-157.5 -106t-140.5 -191.5t-96.5 -275q-40 -198 -4 -337t131 -213.5t230 -74.5q124 0 240 80l221 1040q-101 113 -266 113zM1589 1233q-44 0 -93 3t-76 6l-27 3l-238 -1122q-203 -148 -448 -148q-132 0 -238.5 46.5t-174.5 132.5t-93 208 t8 273q31 148 107.5 280t180.5 227t234.5 150.5t265.5 55.5q159 0 278 -72q44 14 88 47h47q159 -14 218 -14q97 0 139.5 6.5t106.5 32.5h45l-317 -1491q-9 -45 6 -67.5t63 -22.5h49q6 0 10 -5t3 -12l-9 -39l-4 -4q-149 4 -229 4l-222 -4l-3 4l8 39q3 17 20 17h49 q49 0 73 22.5t34 67.5l263 1235q8 35 10.5 58t-2 39.5t-11 24.5t-27 12.5t-39 5.5t-55.5 1z" />
<glyph unicode="&#x1a3;" horiz-adv-x="1413" d="M838 688q-55 141 -180 141q-120 0 -207.5 -100t-122.5 -264q-22 -92 -14.5 -159.5t27.5 -113t56 -72.5t71.5 -38.5t74.5 -11.5q106 0 174 45zM1180 -324q-10 -44 4.5 -63t64.5 -27l38 -6q16 -2 13 -16l-8 -39l-5 -4q-139 4 -219 4l-213 -4l-4 4l9 39q3 13 19 16l41 6 q51 8 74 27t33 63l211 994q3 13 3.5 24.5t-2.5 19.5t-6 15t-10.5 11.5t-13 8t-16 5.5t-17.5 3.5t-19.5 2t-19.5 0.5h-21q-48 0 -114 -25l-134 -631q-84 -50 -196.5 -87t-196.5 -37q-71 0 -128 19.5t-93 53.5t-60 77.5t-33 94t-8.5 100.5t11.5 99q44 205 188 340t329 135 q120 0 184 -39q56 -33 259 -33q64 0 125.5 19.5t103.5 39t58 19.5h31z" />
<glyph unicode="&#x1a4;" horiz-adv-x="1196" d="M788 1241l-124 -586q35 -10 143 -10q315 0 382 313q66 312 -227 312q-30 0 -86.5 -9.5t-87.5 -19.5zM389 143l220 1035q11 58 4.5 73t-35.5 15q-41 -1 -82 -12.5t-78 -40.5t-46 -70q-7 -31 -3 -51q0 -41 -2 -50q-7 -31 -31 -50t-55 -19q-29 0 -47 19t-9 65q8 37 34 79.5 t69 85t112.5 71.5t151.5 30h5l111 6q180 10 285 10q78 0 141 -13t104.5 -34t70.5 -50.5t43.5 -60t21 -65.5t5 -64t-7.5 -57q-12 -56 -37 -110.5t-71.5 -111t-107.5 -99t-152 -69.5t-198 -27q-91 0 -154 20l-96 -455q-10 -46 11.5 -67t82.5 -21h53q16 0 13 -16l-8 -39l-5 -4 q-178 4 -258 4l-265 -4l-3 4l8 39q3 16 20 16h55q61 0 91 21.5t39 66.5z" />
<glyph unicode="&#x1a5;" horiz-adv-x="980" d="M443 637l-107 -500q57 -88 152 -88q63 0 116.5 22.5t90 59t66 87.5t46.5 101t29 107q38 179 -4.5 279t-140.5 100q-57 0 -128.5 -45.5t-119.5 -122.5zM536 1077l-42 -196l-37 -146h6q143 164 304 164q72 0 128 -35t84.5 -93t38 -133.5t-9.5 -156.5q-51 -240 -226 -387 q-138 -114 -297 -114q-99 0 -172 45l-75 -349q-10 -44 4.5 -63t62.5 -27l38 -6q17 -3 15 -16l-8 -39l-5 -4q-141 4 -221 4l-211 -4l-4 4l8 39q3 12 20 16l41 6q53 8 75 27t32 63l284 1340q17 82 48.5 153.5t78.5 131.5t113.5 94.5t144.5 34.5q68 0 123 -31t46 -74 q-8 -37 -31.5 -58.5t-51.5 -21.5q-32 0 -48 26t-19 64q1 33 -23 33q-70 0 -127 -75.5t-87 -215.5z" />
<glyph unicode="&#x1a6;" horiz-adv-x="1155" d="M1187 795q-13 -61 -54 -116.5t-93.5 -92.5t-102.5 -61t-91 -33l109 -490q50 -158 159 -158l-3 -41q-39 -14 -89 -14q-87 0 -144.5 49t-84.5 127l-109 477q-3 12 -7.5 17.5t-26.5 9.5t-57.5 5t-108.5 1l-71 -332q-10 -46 11.5 -67t82.5 -21h54q15 0 12 -16l-8 -39l-5 -4 q-175 4 -257 4l-263 -4l-3 4l8 39q3 16 18 16h55q61 0 91 21.5t39 66.5l219 1033q10 47 -11 68.5t-80 21.5h-56q-16 0 -13 16l9 39l4 2q178 -2 258 -2l264 2l4 -2l-8 -39q-3 -16 -20 -16h-53q-113 0 -132 -90l-11 -52q43 2 156 2q55 0 103 -5t95 -15.5t83.5 -28.5t67 -43.5 t46.5 -60t21.5 -79t-7.5 -99.5zM1021 793q9 52 6.5 91.5t-20.5 68.5t-41.5 48.5t-55 31.5t-62 17t-63.5 5q-94 0 -181 -17l-105 -491h103q65 0 116.5 5.5t104 21t90 42.5t66.5 71.5t42 105.5z" />
<glyph unicode="&#x1a7;" horiz-adv-x="980" d="M473 1292q43 6 85 21t92.5 25t133.5 10q67 0 130 -25.5t109 -70t67 -113t4 -146.5q-11 -50 -35.5 -95t-54.5 -79t-73 -66t-79.5 -53t-86 -43t-81 -34t-74.5 -27q-59 -22 -98 -41t-80.5 -52t-69 -82t-41.5 -116q-26 -121 36.5 -188.5t183.5 -67.5q250 0 386 316l61 -7 q-8 -24 -25 -72t-24 -68.5t-19 -56.5t-19 -58t-15 -50t-14 -53q-17 0 -44 5t-48 5q-16 0 -48 -8.5t-93 -17.5t-149 -9q-114 0 -196 57t-114 149t-10 196q15 72 50 130.5t75.5 97t100.5 72.5t106.5 52.5t113.5 40.5q311 104 348 279q21 96 -28 162.5t-148 66.5 q-49 0 -92 -12.5t-78 -38t-62 -51.5t-53 -66.5t-42 -68t-37 -70.5l-60 10q71 178 109 311z" />
<glyph unicode="&#x1a8;" horiz-adv-x="759" d="M399 37q64 0 115 23.5t84 64t53.5 79.5t34.5 85l47 -2l-76 -287q-18 4 -46 4q-25 0 -40 -4q-80 -20 -188 -20q-32 0 -68 7t-76 25.5t-69 46.5t-42.5 74.5t-1.5 104.5q13 59 45.5 106.5t84.5 82.5t106 59.5t129 50.5q90 31 130.5 66.5t53.5 96.5q29 138 -128 138 q-20 0 -47.5 -8.5t-65 -28.5t-75.5 -62.5t-66 -101.5l-49 2q22 91 65 209q111 51 251 51q123 0 189.5 -63.5t44.5 -165.5q-10 -46 -27.5 -80.5t-38 -58.5t-57.5 -47t-69 -38t-89 -38q-131 -51 -187.5 -100.5t-71.5 -117.5q-15 -69 34 -111t111 -42z" />
<glyph unicode="&#x1a9;" horiz-adv-x="1212" d="M256 98q92 5 478 21t399 16l2 -8q-15 -40 -27 -127l-5 -6q-48 6 -122 6h-793l-144 -4l-3 4l10 49q10 10 18.5 17t17 14.5t18.5 17.5l546 535l4 2l-263 545q-23 47 -29 56.5t-30 33.5l11 51l5 2l184 -2h690q73 0 124 6l3 -6q-25 -89 -27 -127l-6 -8l-144 8 q-144 7 -327 12.5t-258 0.5l257 -529z" />
<glyph unicode="&#x1aa;" horiz-adv-x="624" d="M266 1231q19 90 93 144.5t168 54.5q57 0 93.5 -17.5t58.5 -60t21 -116.5t-24 -183l-218 -1026q-61 -288 -31 -349q19 -53 65 -53q29 0 60 53q40 60 76 60q26 0 41.5 -16t6.5 -56q-8 -37 -65.5 -68.5t-137.5 -31.5q-32 0 -78 19.5t-73 49.5q-24 27 -35.5 65t-14 74t5 96 t15.5 100.5t25 119.5l168 789q24 113 60 188q-61 -33 -105 -33q-100 0 -146.5 54.5t-28.5 142.5zM618 1231q12 55 -14.5 99t-90.5 44q-63 0 -108 -42.5t-57 -100.5q-13 -58 15 -99.5t90 -41.5q61 0 107 42t58 99z" />
<glyph unicode="&#x1ab;" horiz-adv-x="618" d="M273 -297q-33 0 -48.5 23t-8.5 55t30.5 48.5t49.5 19t59.5 7.5t51.5 15q37 19 58.5 59t27.5 90q-77 -40 -166 -40q-71 0 -105.5 44.5t-19.5 116.5q5 22 33.5 142t43.5 190l67 315h-129q-9 0 -7 9l16 73q2 9 8 9h131q34 162 38 247l6 7q38 3 65.5 9.5t65 22.5t46.5 19 q17 0 13 -21q-36 -125 -70 -284h219q8 0 11.5 -3.5t2.5 -9.5l-11 -51q-3 -12 -20.5 -19.5t-34.5 -7.5h-186l-63 -292q-15 -70 -36 -157.5t-26 -109.5q-10 -45 -10 -71t11.5 -41t38.5 -15q42 0 73 7.5t75 29.5l14 -57q-24 -18 -35 -26q-1 -38 -9 -76q-14 -65 -50 -120.5 t-78 -88t-80 -50.5t-62 -18z" />
<glyph unicode="&#x1ac;" horiz-adv-x="1204" d="M593 1239q-31 0 -57.5 -3t-56.5 -12.5t-50 -25t-31.5 -43t-7.5 -63.5q2 -35 -7.5 -62t-30.5 -42t-51 -15t-47.5 19t-8.5 65q6 29 22.5 61.5t47.5 69t71.5 66t100 48.5t126.5 19h731q19 0 32 10.5t15.5 17.5t5.5 19l54 6q-35 -206 -36 -313l-63 -10q-2 47 -3.5 71.5 t-7 49.5t-12.5 35t-21.5 19t-33 11t-48.5 2h-135q-57 0 -81.5 -17.5t-35.5 -68.5l-214 -1008q-11 -47 11 -68.5t82 -21.5h56q16 0 13 -16l-9 -39l-5 -4q-179 4 -259 4l-263 -4l-3 4l8 39q3 16 20 16h53q113 0 132 90l216 1014q10 47 -8 63.5t-74 16.5h-137z" />
<glyph unicode="&#x1ad;" horiz-adv-x="622" d="M506 799l-111 -523q-22 -95 -17 -141.5t44 -46.5q40 0 77 13t83 44l29 -34q-150 -136 -285 -136q-149 0 -106 203l132 621h-133q-8 0 -7 8l14 63q1 9 8 9q34 0 61.5 10.5t43 23t28.5 34.5t17.5 34t10.5 31q2 7 3 10q18 81 49.5 151.5t77.5 129.5t112 93t144 34 q68 0 123.5 -31t46.5 -74q-8 -37 -31.5 -58.5t-50.5 -21.5q-34 0 -50 26.5t-17 63.5q-1 33 -26 33q-61 0 -113.5 -61t-85.5 -173l-54 -255h225q8 0 11.5 -3.5t2.5 -9.5l-9 -41q-3 -12 -20 -19t-35 -7h-192z" />
<glyph unicode="&#x1ae;" horiz-adv-x="1167" d="M775 1159q10 47 -8 63.5t-76 16.5h-172q-85 0 -124 -33t-96 -155l-59 10q60 137 112 315l53 -8q-12 -47 33 -47h867q43 0 55 47l54 6q-34 -200 -35 -313l-64 -10q-2 47 -3.5 71.5t-7 49.5t-12.5 35t-21.5 19t-33 11t-48.5 2h-135q-57 0 -81.5 -17.5t-35.5 -68.5 l-245 -1153q-22 -102 -24.5 -170.5t13 -105.5t41 -51.5t65.5 -14.5q27 0 44.5 9t24 19t12.5 25q35 80 97 80q64 0 51 -61q-8 -38 -37 -66.5t-67.5 -42.5t-73 -20.5t-64.5 -6.5q-34 0 -67 7.5t-68.5 25.5t-61 48.5t-44.5 75.5t-19.5 106.5t14.5 142.5z" />
<glyph unicode="&#x1af;" horiz-adv-x="1413" d="M1529 1266q-89 0 -108 -90l-122 -576q-25 -116 -56.5 -206t-83.5 -171t-120 -134t-166 -83.5t-221 -30.5q-37 0 -72.5 4.5t-75 15t-73.5 30t-65.5 46t-53 65.5t-34.5 87.5t-11.5 114t17.5 141.5l148 697q11 48 -10 69t-81 21h-56q-15 0 -12 16l8 39l4 2q178 -2 258 -2 l265 2l3 -2l-8 -39q-3 -16 -20 -16h-53q-113 0 -132 -90l-134 -629q-14 -67 -20 -104t-8.5 -94t11.5 -102.5t44 -84.5q86 -103 222 -103q72 0 133 16.5t105.5 43t81.5 67.5t61.5 82t45.5 95.5t33 99t24 100.5l130 613q11 48 -10 69t-81 21h-56q-15 0 -12 16l8 39l4 2 q145 -2 225 -2q126 0 166.5 10t47.5 43q4 21 -9 30t-44 9q-50 0 -68 24.5t-10 59.5q7 36 39.5 58t77.5 22q58 0 86 -49.5t13 -122.5q-14 -65 -61 -102t-114 -37z" />
<glyph unicode="&#x1b0;" horiz-adv-x="1087" d="M745 131q-99 -86 -172 -118.5t-143 -32.5q-73 0 -121.5 23.5t-67.5 62.5t-23.5 89t9.5 103l53 252q52 244 58 369l6 6q27 -6 97 -6q32 0 57 1.5t34 3.5l10 1l1 -6q-45 -117 -99 -369l-43 -203q-13 -54 -9.5 -92t12.5 -62t28 -37.5t36.5 -18.5t38.5 -5q100 0 262 152 l56 266q52 244 58 369l5 6q27 -6 97 -6q59 0 83 3v1q30 3 61 20.5t35 34.5q4 18 -7 30t-39 13q-48 1 -68 27.5t-12 60.5q8 37 37.5 58.5t73.5 21.5q57 0 81.5 -53t9.5 -127q-10 -49 -55 -91.5t-116 -52.5q-36 -104 -80 -315l-25 -117q-45 -209 -49 -393l-5 -6q-39 6 -90 6 q-16 0 -72 -6q-9 0 -13.5 1.5t-3.5 4.5l18 131h-4z" />
<glyph unicode="&#x1b1;" horiz-adv-x="1363" d="M514 1202q-82 0 -119 -21.5t-63 -101.5h-53l65 242h197q98 0 133.5 -32.5t21.5 -94.5q-12 -54 -61 -142t-102.5 -167t-104.5 -173.5t-65 -160.5q-28 -148 -5 -260.5t107 -179t214 -66.5q103 0 193.5 41.5t156.5 112t112 160t67 190.5q22 105 11.5 211.5t-34 183.5 t-41 152t-8.5 116q12 55 77 82t209 27h143l-37 -242h-53q11 76 -17.5 99.5t-112.5 23.5q-95 0 -104 -45q-5 -25 13.5 -72.5t47 -102t55 -126.5t37.5 -145.5t-5 -159.5q-22 -105 -82 -205.5t-150 -184t-219 -135t-274 -51.5q-100 0 -182.5 21.5t-139 60t-97 92t-57.5 117.5 t-20.5 136.5t15.5 148.5q16 76 62.5 157.5t101.5 147.5t108.5 124t92.5 105t44 72q5 23 -12.5 34t-65.5 11z" />
<glyph unicode="&#x1b2;" horiz-adv-x="1333" d="M278 451l154 725q10 47 -11 68.5t-80 21.5h-56q-15 0 -12 16l8 39l4 2q178 -2 258 -2l265 2l3 -2l-8 -39q-3 -16 -20 -16h-53q-113 0 -132 -90l-142 -666q-14 -68 -21 -121.5t-7 -108.5t13.5 -94.5t40 -72t73 -48.5t111.5 -16q97 0 194.5 44t184.5 126.5t156.5 213 t103.5 290.5q7 35 14 78.5t14.5 111.5t5 128.5t-12.5 116.5t-40 89t-76 33q-58 0 -78 -49q-4 -10 -9.5 -21t-17.5 -27.5t-30.5 -27t-40.5 -10.5q-25 0 -42.5 16t-10.5 51q8 38 37.5 66.5t68.5 42.5t74.5 20.5t65.5 6.5q82 0 132.5 -47t68 -129.5t12.5 -185t-31 -224.5 q-30 -140 -77 -256t-100.5 -196t-117.5 -141.5t-124 -97t-125 -58t-115.5 -30.5t-99.5 -8q-59 0 -107.5 6t-94.5 21t-80 39t-60 61t-38 86t-10.5 115.5t18.5 147.5z" />
<glyph unicode="&#x1b3;" horiz-adv-x="1312" d="M663 891q-19 52 -29.5 81t-27 72t-27.5 67t-25.5 55.5t-26 48t-25 33t-26.5 23.5t-26 7q-19 0 -40.5 -10t-26.5 -33q-1 -7 -2.5 -23.5t-3.5 -27.5q-6 -31 -25 -52.5t-53 -21.5q-31 0 -42.5 21t-6.5 47q12 57 93 114.5t181 57.5q88 0 158 -92.5t152 -303.5l97 -256 l362 482q32 40 35 57q4 17 -5 23t-40 6h-62q-11 0 -9 14l9 41l4 2q161 -2 188 -2l179 2l4 -2l-9 -41q-3 -14 -24 -14h-43q-45 0 -75.5 -19.5t-68.5 -70.5l-427 -576l-97 -455q-11 -47 11.5 -68.5t82.5 -21.5h53q18 0 15 -16l-8 -39l-5 -4q-178 4 -258 4l-265 -4l-3 4l8 39 q3 16 20 16h53q113 0 132 90l92 430z" />
<glyph unicode="&#x1b4;" horiz-adv-x="1282" d="M1001 684q-292 -442 -540 -836q-26 -41 -41.5 -64.5t-42.5 -62t-47 -61.5t-48 -51t-53 -43t-55.5 -26t-60.5 -11q-17 0 -34.5 5t-35 15t-26 30t-2.5 46q9 42 36.5 61t57.5 19q42 0 58 -29q27 -34 48 -34q11 0 32.5 24.5t61.5 84.5t57 87t66 105q28 39 31.5 77t-11.5 103 l-130 600q-12 60 -32 80t-72 20q-9 0 -14.5 4.5t-3.5 10.5l9 41l5 4q90 -4 151 -4l244 4l3 -6l-8 -37q-1 -7 -9.5 -12t-16.5 -5q-62 0 -84 -20t-11 -72l113 -528l338 520q133 203 239 310.5t198 107.5q78 0 106 -27.5t19 -69.5q-7 -31 -36 -55t-61 -24q-56 0 -78 28 q-9 15 -46 15q-23 0 -55.5 -28t-77 -88t-69 -97t-72.5 -111z" />
<glyph unicode="&#x1b5;" horiz-adv-x="1236" d="M366 111q119 0 325 5.5t352 11.5l146 5l3 -6q-15 -40 -27 -127l-5 -6q-48 6 -144 6h-785l-179 -6l-4 8q16 16 39.5 43t29.5 33l515 553h-283l15 69h333l452 486q6 7 7.5 12.5t-1 8.5t-7.5 3q-112 0 -305 -5.5t-331 -10.5l-137 -6l-2 6q15 40 27 127l5 6q48 -6 124 -6h663 q49 0 142.5 4t118.5 8q12 0 9 -12q-6 -26 -85 -111l-476 -510h329l-15 -69h-379l-452 -484q-15 -19 -18 -36z" />
<glyph unicode="&#x1b6;" horiz-adv-x="851" d="M300 102q111 0 240 6t203 11l74 6l3 -6q-12 -32 -25 -119l-6 -6q-45 6 -113 6h-463l-167 -6l-4 9q9 8 18 18t21 23.5t19 21.5l306 344h-178l15 69h225l264 297q-104 -1 -222 -6.5t-183 -10.5l-66 -5l-3 6q12 32 25 119l5 6q45 -6 114 -6h418q26 0 65.5 3t69.5 6t33 3 q11 0 8 -12q-22 -21 -80 -86l-280 -314h170l-14 -69h-218z" />
<glyph unicode="&#x1b7;" horiz-adv-x="1245" d="M623 1321h727q30 0 41.5 -8t9.5 -21q-6 -31 -49 -84l-475 -618q189 -40 263.5 -173t36.5 -313q-30 -140 -136.5 -264t-261 -198t-314.5 -74q-65 0 -140.5 14t-145 38.5t-110.5 65.5t-31 89q9 42 36.5 72t75.5 30q42 0 76.5 -20t47.5 -52q33 -76 97.5 -118.5t148.5 -42.5 q86 0 190 69.5t182.5 173t98.5 199.5q22 97 10.5 170.5t-40 124t-73.5 82t-90.5 45.5t-90.5 14q-55 0 -85 -6l555 723h-510q-54 -1 -102.5 -28.5t-82.5 -70t-56.5 -84t-33.5 -79.5l-52 4l124 385q12 -3 71 -24t88 -21z" />
<glyph unicode="&#x1b8;" horiz-adv-x="1245" d="M1188 1321q30 0 97.5 21t82.5 24l-39 -385l-55 -6q2 29 2 63t-11 69.5t-28 64.5t-50 47.5t-76 19.5h-510l246 -723q-27 6 -83 6q-45 0 -96 -13.5t-109 -46.5t-108.5 -81t-92 -125t-61.5 -170q-20 -96 14 -199.5t108 -173t161 -69.5q84 0 166.5 42.5t148.5 118.5 q27 32 69.5 52t82.5 20q49 0 64 -30t6 -72q-10 -48 -68.5 -89t-138.5 -65.5t-161 -38.5t-146 -14q-120 0 -222 44t-167.5 117t-92.5 171.5t-5 203.5q38 179 170 312.5t339 173.5l-210 618q-8 23 -11.5 35t-5 29.5t4 26.5t20 15.5t38.5 6.5h727z" />
<glyph unicode="&#x1b9;" horiz-adv-x="917" d="M836 879q22 0 34 6.5t17 29.5l47 9l-1 -312l-57 -10q0 62 -9.5 103t-27.5 60.5t-36.5 26.5t-44.5 7h-291l198 -582q-60 14 -118 14q-122 0 -228 -87t-133 -216q-16 -91 -3 -155t50.5 -104.5t79 -59.5t81.5 -19q59 0 107.5 27.5t78.5 67.5q48 57 119 57q30 0 41 -18.5 t5 -45.5q-11 -53 -112 -100t-233 -47q-86 0 -155.5 22.5t-113.5 61t-72.5 90t-32.5 108.5t6 117q35 165 152.5 265.5t299.5 115.5l-166 482q-15 42 -7 64t54 22h471z" />
<glyph unicode="&#x1ba;" horiz-adv-x="917" d="M627 444q133 -6 193.5 -88t30.5 -225q-17 -82 -55.5 -140.5t-88 -90t-95 -50t-94.5 -33.5t-69 -26q-91 -51 -101 -100q-4 -17 -2 -41t0 -35q-8 -37 -38 -62.5t-56 -25.5q-29 0 -47.5 20t-10.5 56q17 79 73.5 131.5t172.5 118.5q19 11 46.5 20.5t47.5 15.5t44.5 21.5 t42.5 38t36 64.5t31 102q10 46 10.5 87t-11 83t-49 67t-99.5 25q-17 0 -41 -4.5t-61 -13.5t-48 -11l408 445h-364q-67 0 -96.5 -25t-67.5 -121l-40 4l86 252q32 -5 53 -14.5t54 -9.5h537q52 0 1 -68l-15 -18z" />
<glyph unicode="&#x1bb;" horiz-adv-x="897" d="M843 170q-41 -94 -38 -178q-192 8 -305 8q-92 0 -404 -8v8q19 91 82 174t230 223l138 113h-223l15 70h291q82 72 120 134t61 167q12 57 0 102t-39.5 69t-57.5 36t-59 12q-152 0 -279 -166l-27 2l-12 133l8 8q52 38 150.5 72.5t193.5 34.5q361 0 297 -305 q-20 -93 -68 -158.5t-140 -140.5h86l-15 -70h-157l-186 -150q-67 -53 -118 -116.5t-57 -89.5h180q69 0 120 1.5t75.5 3.5t66.5 5.5t71 5.5z" />
<glyph unicode="&#x1bc;" horiz-adv-x="878" d="M703 369q15 69 -1.5 130t-54 100.5t-86 62t-98.5 22.5q-97 0 -163 -22l128 389l-136 110h663l-41 -119l-1 -4h-401l-89 -264l105 4q80 0 143 -21.5t101 -58t62.5 -85t26 -102.5t-7.5 -110q-21 -102 -70.5 -184t-115.5 -134t-142.5 -80t-155.5 -28q-94 0 -175.5 44.5 t-69.5 101.5q6 28 30 46.5t53 18.5q53 0 72 -57q7 -24 16 -40t30.5 -30t52.5 -14q116 0 205 89t120 235z" />
<glyph unicode="&#x1bd;" horiz-adv-x="878" d="M668 283q13 62 -2.5 123t-60 102t-107.5 41q-49 0 -128 -8.5t-124 -20.5l122 246l-97 113h624l-41 -119l-1 -4h-402l-61 -127q145 10 180 10q97 0 161 -49t84.5 -122t3.5 -153q-10 -49 -31 -95.5t-57 -91.5t-83 -78.5t-113 -54t-143 -20.5q-60 0 -124.5 19.5t-108 54 t-35.5 72.5q6 28 30 46.5t53 18.5q49 0 69 -61q11 -33 44.5 -56.5t80.5 -23.5q97 0 169 59t98 179z" />
<glyph unicode="&#x1be;" horiz-adv-x="753" d="M321 799h-102q-8 0 -7 8l14 63q2 9 8 9q84 1 127 57t69 180l8 39l125 41l-67 -317h225q8 0 11.5 -3.5t2.5 -9.5l-9 -41q-3 -12 -19.5 -19t-32.5 -7h-201l-21 -99q-13 -63 8 -98t96 -65q48 -19 82 -38.5t61.5 -45.5t39.5 -56.5t16 -70.5t-8 -88q-12 -58 -47.5 -105 t-79 -75.5t-94 -48t-91.5 -27t-74 -7.5q-114 0 -193 23q-28 4 -39 4q-19 0 -48 -6l48 291l55 2q-9 -29 -2.5 -95.5t34.5 -101.5q14 -20 57.5 -39.5t95.5 -19.5q39 0 86.5 17.5t90 55t52.5 84.5q9 45 11 80t-28 70t-101 68q-33 16 -48.5 24t-41 22.5t-37.5 25t-28.5 26.5 t-22 31.5t-11.5 36t-4.5 44t7.5 52.5z" />
<glyph unicode="&#x1bf;" horiz-adv-x="1064" d="M797 811q-59 0 -134 -36.5t-210 -129.5l-160 -749q268 137 437 293t205 325q19 93 15 159t-42 102t-111 36zM301 657q15 77 10 101t-28 26l-86 9l7 49q214 33 296 63q7 0 6 -6l-44 -182h6q239 182 399 182q74 0 127 -18.5t81.5 -48.5t42 -71.5t13 -83.5t-10.5 -89 q-24 -111 -92 -214t-179 -197.5t-249.5 -180t-321.5 -174.5l-47 -217l-288 -74l3 51q0 16 14 19l37 10q48 13 72.5 42t35.5 81z" />
<glyph unicode="&#x1c0;" horiz-adv-x="378" d="M225 -20h-80l308 1450h80z" />
<glyph unicode="&#x1c1;" horiz-adv-x="587" d="M434 -20h-80l308 1450h80zM225 -20h-80l308 1450h80z" />
<glyph unicode="&#x1c2;" horiz-adv-x="679" d="M737 662l-15 -70h-238l-130 -612h-80l130 612h-227l15 70h227l32 147h-228l15 70h227l117 551h80l-117 -551h238l-15 -70h-238l-31 -147h238z" />
<glyph unicode="&#x1c3;" horiz-adv-x="466" d="M518 1348q46 0 72 -39.5t11 -110.5q-16 -75 -66.5 -203.5t-71.5 -191.5q-33 -97 -58.5 -183.5t-38 -134t-15.5 -55.5q-12 -41 -37 -41t-23 27q0 4 20.5 148t31.5 239q8 72 11.5 194t20.5 201q16 75 59 112.5t84 37.5zM136 90l2 8q24 41 54.5 67t79.5 44h8 q41 -17 61.5 -42.5t25.5 -68.5l-2 -8q-26 -49 -57 -74t-77 -36h-8q-46 11 -65.5 35t-21.5 75z" />
<glyph unicode="&#x1c4;" horiz-adv-x="2592" d="M419 168q-8 -36 3 -51.5t55.5 -23t146.5 -7.5q94 0 169 11.5t151.5 44t133.5 86.5t103.5 143.5t72.5 210.5q21 100 23.5 189.5t-21 176.5t-74 149.5t-143.5 101t-221 38.5q-42 0 -70.5 -3t-55 -11t-42.5 -25t-21 -43zM576 1321q66 0 170 3t169 3q97 0 184 -25 t154.5 -70.5t120 -109.5t80.5 -141.5t36 -166t-14 -183.5q-31 -145 -98 -259t-149 -183t-182.5 -114t-192.5 -62t-185 -17q-114 0 -212 2t-162 2q-32 0 -59 -1.5t-38 -2.5l-11 -2l-1 6q50 138 108 410l107 501q56 260 66 410l5 6q34 -6 104 -6zM2235 1427q-53 89 -166 195 l42 41q110 -54 190 -125q133 81 246 125l22 -41q-116 -75 -246 -195h-88zM1723 111q119 0 325 5.5t353 11.5l146 5l3 -6q-15 -40 -27 -127l-5 -6q-48 6 -144 6h-785l-179 -6l-5 8q12 12 26.5 28t26 29t17.5 19l1032 1108q6 7 7.5 12.5t-1 8.5t-7.5 3q-112 0 -305.5 -5.5 t-330.5 -10.5l-137 -6l-3 6q15 40 27 127l6 6q48 -6 123 -6h664q49 0 142.5 4t118.5 8q12 0 9 -12q-6 -26 -85 -111l-994 -1063q-15 -19 -18 -36z" />
<glyph unicode="&#x1c5;" horiz-adv-x="2193" d="M419 168q-8 -36 3 -51.5t55.5 -23t146.5 -7.5q94 0 169 11.5t151.5 44t133.5 86.5t103.5 143.5t72.5 210.5q21 100 23.5 189.5t-21 176.5t-74 149.5t-143.5 101t-221 38.5q-42 0 -70.5 -3t-55 -11t-42.5 -25t-21 -43zM576 1321q66 0 170 3t169 3q97 0 184 -25 t154.5 -70.5t120 -109.5t80.5 -141.5t36 -166t-14 -183.5q-31 -145 -98 -259t-149 -183t-182.5 -114t-192.5 -62t-185 -17q-114 0 -212 2t-162 2q-32 0 -59 -1.5t-38 -2.5l-11 -2l-1 6q50 138 108 410l107 501q56 260 66 410l5 6q34 -6 104 -6zM1955 1026q-50 122 -151 266 l47 27q42 -37 65.5 -59t55.5 -56t57 -69q91 77 260 184l34 -27q-174 -156 -266 -266h-102zM1652 102q70 0 149 2.5t141.5 6t115.5 6.5t82 6l29 2l2 -6q-12 -32 -25 -119l-5 -6q-45 6 -113 6h-463l-167 -6l-5 9q10 9 59 63l632 710q-104 -1 -222 -6.5t-184 -10.5l-66 -5l-2 6 q12 32 25 119l5 6q45 -6 114 -6h417q26 0 65.5 3t69.5 6t33 3q11 0 8 -12q-17 -16 -79 -86z" />
<glyph unicode="&#x1c6;" horiz-adv-x="1837" d="M787 223l98 463q-27 63 -64 92t-105 29q-35 0 -70 -7t-81.5 -30t-85 -59.5t-73.5 -103t-54 -154.5q-28 -127 -5 -206.5t68 -115t105 -35.5q140 0 267 127zM767 131q-69 -69 -159 -110t-166 -41q-164 0 -238 122.5t-34 313.5q44 207 214.5 345t373.5 138q34 0 84 -13 t79 -32l28 133q57 270 61 385l6 6q30 2 60 8.5t44.5 11t48.5 17.5t40 15q19 0 14 -21q-57 -171 -102 -385l-134 -631q-45 -209 -49 -393l-5 -6q-39 6 -90 6q-16 0 -72 -6q-9 0 -13.5 1.5t-3.5 4.5l17 131h-4zM1598 1026q-51 126 -150 266l47 27q42 -37 65.5 -59t55.5 -56 t57 -69q91 77 260 184l33 -27q-169 -152 -265 -266h-103zM1295 102q51 0 107 1.5t104.5 3.5t96 4.5t84.5 5t65.5 4.5t44.5 3l15 1l3 -6q-12 -32 -25 -119l-5 -6q-45 6 -114 6h-463l-167 -6l-4 9q9 8 18 18t21 23.5t19 21.5l632 710q-104 -1 -222 -6.5t-183 -10.5l-66 -5 l-3 6q12 32 25 119l6 6q45 -6 113 -6h418q26 0 65.5 3t69.5 6t33 3q11 0 8 -12q-23 -21 -80 -86z" />
<glyph unicode="&#x1c7;" horiz-adv-x="1572" d="M474 410q-51 -254 -47 -299q122 0 267.5 6t230.5 12l85 6l2 -8q-15 -40 -27 -127l-5 -6q-48 6 -122 6h-559q-31 0 -58 -1.5t-39 -2.5l-11 -2l-1 6q50 138 108 410l107 501q53 246 64 410l6 6q35 -6 105 -6q32 0 59 1.5t38 3.5l11 1v-6q-46 -125 -107 -410zM1254 195 l152 716q57 267 67 410l5 6q33 -6 103 -6q32 0 59 1.5t38 3.5l11 1l1 -6q-48 -132 -108 -410l-142 -671q-37 -174 -77 -252.5t-145 -184.5q-154 -155 -357 -155q-63 0 -88 18l-1 6q34 42 93 168l23 2q24 -71 104 -71q34 0 64 14.5t52.5 37.5t43 59t34.5 70t28 80.5t22 81.5 t18 81z" />
<glyph unicode="&#x1c8;" horiz-adv-x="1579" d="M474 410q-51 -254 -47 -299q122 0 267.5 6t230.5 12l85 6l2 -8q-15 -40 -27 -127l-5 -6q-48 6 -122 6h-559q-31 0 -58 -1.5t-39 -2.5l-11 -2l-1 6q50 138 108 410l107 501q53 246 64 410l6 6q35 -6 105 -6q32 0 59 1.5t38 3.5l11 1v-6q-46 -125 -107 -410zM1469 1178 q9 41 47.5 72.5t79.5 31.5t66 -31.5t16 -72.5t-47.5 -73t-79.5 -32t-66 32t-16 73zM1222 -119q2 8 8 44.5t20 110t35 171.5l61 285q53 250 56 360l5 6q24 2 45.5 5.5t43.5 10t34.5 10.5t37 13t32.5 12q18 0 14 -20q-52 -153 -98 -365l-110 -518q-24 -111 -51.5 -166 t-93.5 -125q-135 -141 -303 -141q-56 0 -82 16l-1 7q16 21 36 77t29 74l21 2q7 -19 10 -26.5t11.5 -19t21.5 -15.5t33 -4q142 0 185 196z" />
<glyph unicode="&#x1c9;" horiz-adv-x="993" d="M881 1167q9 41 47.5 73t79.5 32t66 -32t16 -73t-47.5 -72.5t-79.5 -31.5t-66 31.5t-16 72.5zM634 -129q2 8 8 44.5t20 110t35 171.5l61 284q53 250 56 361l5 6q24 2 45.5 5.5t43.5 10t34.5 10.5t37 13t32.5 12q18 0 14 -20q-50 -145 -97 -365l-111 -518 q-24 -111 -51.5 -166t-93.5 -125q-135 -141 -303 -141q-58 0 -82 16l-1 6q16 21 36 77.5t29 74.5l21 2q7 -20 10 -27t11.5 -19t21.5 -16t33 -4q142 0 185 197zM271 410l123 577q57 270 61 385l6 6q30 2 60 8.5t44.5 11t48.5 17.5t40 15q18 0 14 -21q-55 -164 -102 -385 l-131 -614q-58 -268 -66 -410l-6 -6q-27 6 -97 6q-32 0 -57 -1.5t-35 -2.5l-9 -2l-1 6q48 130 107 410z" />
<glyph unicode="&#x1ca;" horiz-adv-x="2084" d="M401 911q56 260 66 410l5 6q34 -6 104 -6l29 4l509 -909l14 -26l14 -26q14 -27 20.5 -37.5t14.5 -20t12 -3.5t9.5 20t11.5 42l116 546q57 267 67 410l5 6q21 -6 71 -6q20 0 38.5 1.5t26.5 3.5l8 1v-6q-46 -125 -107 -410l-185 -868q-13 -63 -56 -63q-53 0 -78 49 l-523 903q-15 27 -23.5 41t-17.5 21t-13 5.5t-10.5 -15.5t-10.5 -31.5t-12 -53.5l-104 -489q-56 -260 -66 -410l-5 -6q-21 6 -71 6q-20 0 -38.5 -1.5t-26.5 -2.5l-8 -2l-1 6q48 132 108 410zM1766 195l152 716q57 267 67 410l5 6q33 -6 103 -6q32 0 59 1.5t38 3.5l11 1l1 -6 q-48 -132 -108 -410l-142 -671q-37 -174 -77 -252.5t-145 -184.5q-154 -155 -357 -155q-63 0 -88 18l-1 6q34 42 93 168l23 2q24 -71 104 -71q34 0 64 14.5t52.5 37.5t43 59t34.5 70t28 80.5t22 81.5t18 81z" />
<glyph unicode="&#x1cb;" horiz-adv-x="1925" d="M401 911q56 260 66 410l5 6q34 -6 104 -6l29 4l509 -909l14 -26l14 -26q14 -27 20.5 -37.5t14.5 -20t12 -3.5t9.5 20t11.5 42l116 546q57 267 67 410l5 6q21 -6 71 -6q20 0 38.5 1.5t26.5 3.5l8 1v-6q-46 -125 -107 -410l-185 -868q-13 -63 -56 -63q-53 0 -78 49 l-523 903q-15 27 -23.5 41t-17.5 21t-13 5.5t-10.5 -15.5t-10.5 -31.5t-12 -53.5l-104 -489q-56 -260 -66 -410l-5 -6q-21 6 -71 6q-20 0 -38.5 -1.5t-26.5 -2.5l-8 -2l-1 6q48 132 108 410zM1813 1167q9 41 47 73t79 32t66.5 -32t16.5 -73t-47.5 -72.5t-79.5 -31.5 t-66 31.5t-16 72.5zM1566 -129q2 8 8 44.5t20 110t35 171.5l61 284q53 250 56 361l5 6q24 2 45.5 5.5t43.5 10t34.5 10.5t37 13t32.5 12q18 0 14 -20q-52 -153 -98 -365l-110 -518q-24 -111 -52 -166t-94 -125q-135 -141 -302 -141q-59 0 -83 16v6q16 21 36 77.5t29 74.5 l21 2q7 -20 10 -27t11.5 -19t21.5 -16t33 -4q142 0 185 197z" />
<glyph unicode="&#x1cc;" horiz-adv-x="1544" d="M975 369q-50 -238 -57 -369l-6 -6q-27 6 -97 6q-32 0 -57.5 -1.5t-34.5 -2.5l-9 -2l-1 6q46 121 99 369l42 200q27 107 10.5 159t-94.5 52q-72 0 -139.5 -31.5t-160.5 -119.5l-56 -260q-50 -237 -58 -369l-5 -6q-27 6 -97 6q-32 0 -57.5 -1.5t-34.5 -2.5l-10 -2v6 q45 119 98 369l24 112q53 246 57 361l5 6q30 2 58.5 8.5t44 11.5t45 16.5t39.5 14.5q18 0 14 -20l-50 -148h4q112 105 192 136.5t174 31.5q67 0 108.5 -24.5t56.5 -70t14 -101t-17 -128.5zM1432 1167q9 41 47.5 73t79.5 32t66 -32t16 -73t-47.5 -72.5t-79.5 -31.5t-66 31.5 t-16 72.5zM1185 -129q2 8 8 44.5t20 110t35 171.5l61 284q53 250 56 361l5 6q24 2 45.5 5.5t43.5 10t34.5 10.5t37 13t32.5 12q18 0 14 -20q-52 -153 -98 -365l-110 -518q-24 -111 -52 -166t-94 -125q-135 -141 -302 -141q-59 0 -83 16v6q16 21 36 77.5t29 74.5l21 2 q7 -20 10 -27t11.5 -19t21.5 -16t33 -4q142 0 185 197z" />
<glyph unicode="&#x1cd;" d="M934 1427q-54 91 -165 195l41 41q112 -55 191 -125q135 82 245 125l22 -41q-116 -75 -246 -195h-88zM470 468q-195 -315 -271 -474q-23 6 -90 6q-47 0 -73 -6q539 806 892 1354h57q35 -167 95 -483.5t106.5 -548t71.5 -322.5q-34 6 -121 6q-68 0 -104 -6q-12 182 -59 474 q-115 3 -239 3q-148 0 -265 -3zM958 564q-46 261 -100 505h-4q-33 -51 -97.5 -151.5t-121 -188t-104.5 -164.5q19 0 99 -2t114 -2q112 0 214 3z" />
<glyph unicode="&#x1ce;" horiz-adv-x="944" d="M606 1030q-51 126 -150 266l46 27q42 -37 65.5 -59t55.5 -56t57 -69q88 75 261 184l33 -27q-174 -156 -266 -266h-102zM695 457l-173 -43q-111 -27 -160 -77t-66 -128q-11 -50 18 -87.5t91 -37.5q68 0 195 88q33 21 40 53zM787 156q-14 -64 19 -64q13 0 26.5 6.5t34.5 21 t22 15.5l5 -4l24 -43q-59 -59 -106.5 -83.5t-96.5 -24.5q-34 0 -56 13t-30.5 34t-10.5 38t-1 33h-4q-92 -69 -151.5 -93.5t-138.5 -24.5q-112 0 -164.5 55.5t-29.5 165.5q22 104 125 183t259 114l190 43q13 4 17 24q12 55 12.5 97.5t-10 68t-24 42t-35.5 23.5t-38 9t-38 2 q-64 0 -136.5 -52.5t-133.5 -129.5l-26 2l-4 137l8 8q171 127 330 127q34 0 64 -4t62 -13.5t55.5 -26t45 -42t31 -60t11.5 -81t-12 -105.5q-2 -8 -45 -193t-50 -218z" />
<glyph unicode="&#x1cf;" horiz-adv-x="600" d="M553 1427q-54 91 -165 195l41 41q112 -55 191 -125q135 82 245 125l22 -41q-116 -75 -246 -195h-88zM411 911q56 260 66 410l6 6q33 -6 103 -6q32 0 59 1.5t38 3.5l11 1v-6q-46 -125 -107 -410l-107 -501q-56 -260 -66 -410l-6 -6q-33 6 -103 6q-32 0 -59 -1.5t-38 -2.5 l-11 -2v6q47 131 107 410z" />
<glyph unicode="&#x1d0;" horiz-adv-x="548" d="M455 1024q-51 126 -150 266l47 27q120 -105 177 -184q88 75 261 184l33 -27q-169 -152 -265 -266h-103zM295 481q53 250 56 361l5 6q24 2 45.5 5.5t43.5 10t34.5 10.5t37 13t32.5 12q19 0 15 -20q-52 -153 -98 -365l-31 -145q-48 -229 -58 -369l-5 -6q-28 6 -98 6 q-32 0 -57 -1.5t-35 -2.5l-9 -2l-1 6q49 136 99 369z" />
</font>
</defs>
</svg>
