<?xml version="1.0" standalone="no"?>
<!DOCTYPE svg PUBLIC "-//W3C//DTD SVG 1.1//EN" "http://www.w3.org/Graphics/SVG/1.1/DTD/svg11.dtd" >
<svg xmlns="http://www.w3.org/2000/svg">
<metadata></metadata>
<defs>
<font id="LinuxBiolinumORegular" horiz-adv-x="1024" >
<font-face units-per-em="2048" ascent="1638" descent="-410" />
<missing-glyph horiz-adv-x="512" />
<glyph unicode="&#x2e;&#x2e;&#x2e;" horiz-adv-x="1533" d="M111 90v8q15 41 39.5 67t70.5 44h8q45 -17 71 -42.5t40 -68.5v-8q-16 -49 -41.5 -74t-69.5 -36h-8q-48 11 -72.5 35t-37.5 75zM653 90v8q14 41 39.5 67t71.5 44h8q45 -17 71 -42.5t40 -68.5v-8q-16 -49 -41.5 -74t-69.5 -36h-8q-48 11 -73 35t-38 75zM1194 90v8 q14 41 39.5 67t71.5 44h8q45 -17 70.5 -42.5t39.5 -68.5v-8q-16 -49 -41 -74t-69 -36h-8q-48 11 -73 35t-38 75z" />
<glyph unicode="&#x21;&#x21;" horiz-adv-x="841" d="M608 1352q46 0 80.5 -39t34.5 -111q0 -75 -23 -203t-30 -192q-12 -97 -19 -183.5t-10 -134t-4 -55.5q-4 -41 -29 -41q-24 0 -28 27q-1 13 -5.5 78.5t-11.5 152t-14 156.5q-7 72 -29 194t-22 201q0 75 34.5 112.5t75.5 37.5zM494 94v8q15 41 39.5 67t70.5 44h8 q45 -17 71 -42.5t40 -68.5v-8q-16 -49 -41.5 -74t-69.5 -36h-8q-48 11 -72.5 35t-37.5 75zM231 1348q46 0 80.5 -39t34.5 -111q0 -75 -23 -203t-30 -192q-12 -97 -19 -183.5t-10 -134t-4 -55.5q-4 -41 -29 -41q-15 0 -20.5 7t-7.5 20q-1 13 -5.5 78.5t-11.5 152t-14 156.5 q-7 72 -29 194t-22 201q0 75 34.5 112.5t75.5 37.5zM117 90v8q15 41 39.5 67t70.5 44h9q45 -17 70.5 -42.5t39.5 -68.5v-8q-16 -49 -41 -74t-69 -36h-9q-48 11 -72.5 35t-37.5 75z" />
<glyph unicode="&#x3f;&#x3f;" horiz-adv-x="1599" d="M1169 1268q-140 0 -251 -193l-27 2l-33 137l6 9q55 46 141 86.5t183 40.5q156 0 247 -84.5t91 -225.5q0 -47 -14.5 -90t-33 -72.5t-53 -63t-56 -50.5t-60.5 -45q-88 -65 -107 -103q-37 -70 -37 -149v-90q0 -21 -26 -21q-27 0 -27 21v94q0 43 3 73.5t15 77t42 91.5t77 88 q66 61 94.5 111.5t28.5 119.5q0 100 -58 168t-145 68zM1024 90v8q14 41 39.5 67t71.5 44h8q45 -17 70.5 -42.5t39.5 -68.5v-8q-16 -49 -41 -74t-69 -36h-8q-48 11 -73 35t-38 75zM399 1268q-141 0 -252 -193l-26 2l-33 137l6 9q55 46 141 86.5t183 40.5q156 0 247 -84.5 t91 -225.5q0 -47 -14.5 -90t-33 -72.5t-53 -63t-56 -50.5t-60.5 -45q-88 -65 -107 -103q-37 -70 -37 -149v-90q0 -21 -26 -21q-27 0 -27 21v94q0 43 3 73.5t15 77t42 91.5t77 88q66 61 94.5 111.5t28.5 119.5q0 100 -58 168t-145 68zM254 90v8q14 41 39.5 67t71.5 44h8 q45 -17 70.5 -42.5t39.5 -68.5v-8q-16 -49 -41 -74t-69 -36h-8q-48 11 -73 35t-38 75z" />
<glyph unicode="&#x3f;&#x21;" horiz-adv-x="1216" d="M983 1352q46 0 80.5 -39t34.5 -111q0 -75 -23 -202t-31 -193q-12 -97 -19 -183.5t-9.5 -134t-3.5 -55.5q-4 -41 -29 -41t-29 27q0 1 -10 146t-20 241q-7 73 -29.5 194.5t-22.5 200.5q0 75 35 112.5t76 37.5zM868 94v8q14 41 39.5 67t71.5 44h8q45 -17 71 -42.5t40 -68.5 v-8q-16 -49 -41.5 -74t-69.5 -36h-8q-48 11 -73 35t-38 75zM399 1268q-141 0 -252 -193l-26 2l-33 137l6 9q55 46 141 86.5t183 40.5q156 0 247 -84.5t91 -225.5q0 -47 -14.5 -90t-33 -72.5t-53 -63t-56 -50.5t-60.5 -45q-88 -65 -107 -103q-37 -70 -37 -149v-90 q0 -21 -26 -21q-27 0 -27 21v94q0 43 3 73.5t15 77t42 91.5t77 88q66 61 94.5 111.5t28.5 119.5q0 100 -58 168t-145 68zM254 90v8q14 41 39.5 67t71.5 44h8q45 -17 70.5 -42.5t39.5 -68.5v-8q-16 -49 -41 -74t-69 -36h-8q-48 11 -73 35t-38 75z" />
<glyph unicode="&#x21;&#x3f;" horiz-adv-x="1202" d="M231 1348q46 0 80.5 -39t34.5 -111q0 -75 -23 -203t-30 -192q-12 -97 -19 -183.5t-10 -134t-4 -55.5q-4 -41 -29 -41q-15 0 -20.5 7t-7.5 20q-1 13 -5.5 78.5t-11.5 152t-14 156.5q-7 72 -29 194t-22 201q0 75 34.5 112.5t75.5 37.5zM117 90v8q15 41 39.5 67t70.5 44h9 q45 -17 70.5 -42.5t39.5 -68.5v-8q-16 -49 -41 -74t-69 -36h-9q-48 11 -72.5 35t-37.5 75zM772 1264q-141 0 -252 -193l-26 2l-33 137l6 9q55 46 141 86.5t183 40.5q156 0 246.5 -84.5t90.5 -225.5q0 -47 -14.5 -90t-33 -72.5t-53 -63t-56 -50.5t-60.5 -45 q-86 -64 -106 -103q-37 -70 -37 -149v-90q0 -21 -27 -21q-26 0 -26 21v94q0 43 3 73.5t15 77t42 91.5t77 88q66 61 94.5 111.5t28.5 119.5q0 100 -58 168t-145 68zM627 86v8q15 41 39.5 67t70.5 44h8q45 -17 71 -42.5t40 -68.5v-8q-16 -49 -41.5 -74.5t-69.5 -36.5h-8 q-48 11 -72.5 35t-37.5 76z" />
<glyph horiz-adv-x="0" />
<glyph horiz-adv-x="2048" />
<glyph unicode=" "  horiz-adv-x="512" />
<glyph unicode="&#x09;" horiz-adv-x="512" />
<glyph unicode="&#xa0;" horiz-adv-x="512" />
<glyph unicode="!" horiz-adv-x="466" d="M231 1348q46 0 80.5 -39t34.5 -111q0 -75 -23 -203t-30 -192q-12 -97 -19 -183.5t-10 -134t-4 -55.5q-4 -41 -29 -41q-15 0 -20.5 7t-7.5 20q-1 13 -5.5 78.5t-11.5 152t-14 156.5q-7 72 -29 194t-22 201q0 75 34.5 112.5t75.5 37.5zM117 90v8q15 41 39.5 67t70.5 44h9 q45 -17 70.5 -42.5t39.5 -68.5v-8q-16 -49 -41 -74t-69 -36h-9q-48 11 -72.5 35t-37.5 75z" />
<glyph unicode="&#x22;" horiz-adv-x="688" d="M440 874q-53 327 -53 345q0 36 31 69t74 33q37 0 54 -20t17 -48q0 -15 -16.5 -107.5t-33.5 -177.5l-17 -85zM182 872q-53 327 -53 345q0 36 30.5 69t73.5 33q37 0 54.5 -20t17.5 -48q0 -15 -16.5 -107.5t-33.5 -177.5l-17 -85z" />
<glyph unicode="#" horiz-adv-x="962" d="M584 506l37 239h-240l-39 -239h242zM694 745l-41 -239h199l-16 -107h-195l-61 -370h-72l57 370h-239l-62 -370h-71l59 370h-197l15 107h198l39 239h-198l18 109h197l59 371h74l-62 -371h244l57 371h72l-59 -371h198l-16 -109h-197z" />
<glyph unicode="$" horiz-adv-x="952" d="M438 748l24 423h-3q-92 0 -147.5 -56t-55.5 -144q0 -140 182 -223zM502 541l-26 -476q96 7 161 64.5t65 157.5q0 57 -15 99.5t-46 71.5t-61.5 46.5t-77.5 36.5zM471 -19l-9 -172q-17 -10 -76 -10l10 181q-92 4 -169 26t-108 42l-31 20l-4 6q33 134 39 186l18 2 q37 -78 105.5 -130t154.5 -65l27 503q-66 28 -115.5 57t-97 71t-73 99t-25.5 125q0 93 54 169t132.5 115.5t162.5 42.5l9 163q27 10 76 10l-10 -175q51 -4 95 -14t70.5 -21.5t45.5 -22.5t26 -19l8 -7l5 -6q-29 -93 -37 -180l-21 -2q-69 153 -197 187l-24 -444 q56 -20 98.5 -39t93 -51t83 -68t55 -89.5t22.5 -116.5q0 -75 -32 -147.5t-91 -122.5q-104 -89 -270 -103z" />
<glyph unicode="%" horiz-adv-x="1392" d="M946 182q0 -78 30 -111.5t68 -33.5q57 0 104.5 55.5t71 128t23.5 137.5q0 40 -10.5 69t-27.5 42t-31.5 18t-28.5 5q-50 0 -97.5 -51t-74.5 -123t-27 -136zM831 215q0 82 37.5 161t105.5 131t146 52q36 0 67 -9t60 -30t45.5 -62t16.5 -98t-18.5 -122.5t-52 -125.5 t-88.5 -99.5t-120 -39.5q-94 0 -146.5 73t-52.5 169zM797 1141q90 0 185.5 27t141.5 89l70 -34l-897 -1250l-74 33l785 1094q-104 -41 -234 -41q-39 0 -91.5 13.5t-82.5 31.5q6 -21 6 -53q0 -55 -18.5 -119.5t-52 -125.5t-89 -101.5t-120.5 -40.5q-94 0 -145.5 72t-51.5 165 q0 130 86 239t201 109q44 0 86.5 -17t60.5 -38q115 -53 234 -53zM242 870q0 -77 30 -110t68 -33q57 0 104.5 55t71 128t23.5 139q0 73 -30.5 103t-68.5 30q-50 0 -97 -51.5t-74 -124t-27 -136.5z" />
<glyph unicode="&#x26;" horiz-adv-x="1454" d="M522 692q-102 -56 -158.5 -117.5t-74 -119t-17.5 -136.5q0 -73 19.5 -125t54.5 -80t77 -40.5t93 -12.5q31 0 57.5 5.5t46.5 11.5t43 23.5t36.5 29t37 40.5t35.5 45t41 56q-82 108 -177 246t-114 174zM600 842q96 63 153.5 139t57.5 133q0 70 -35.5 112t-97.5 42 q-50 0 -103 -52t-53 -143q0 -41 19.5 -103.5t58.5 -127.5zM895 393q104 154 152 269.5t61 222.5q20 -6 80 -6q68 0 88 6q-31 -53 -164.5 -293t-159.5 -279l70 -94q44 -63 87.5 -96t70.5 -33q52 0 88.5 26t66.5 85l33 -17q-33 -102 -88 -153t-113 -51q-31 0 -51.5 3t-52 15 t-64.5 42t-67 77l-60 76q-77 -106 -162 -159.5t-208 -53.5q-85 0 -157 20t-130.5 61t-91.5 112.5t-33 166.5q0 110 92 212t295 216q-110 171 -110 301q0 46 22 94.5t61 90t102 68t136 26.5q107 0 183.5 -68.5t76.5 -165.5q0 -83 -86 -180.5t-217 -173.5l8 -17 q66 -112 242 -350z" />
<glyph unicode="'" horiz-adv-x="389" d="M162 872q-53 327 -53 345q0 36 30.5 69t73.5 33q37 0 54.5 -20t17.5 -48q0 -15 -17 -107.5t-34 -177.5l-17 -85z" />
<glyph unicode="(" horiz-adv-x="614" d="M90 516q0 274 120.5 520.5t313.5 411.5l47 -37q-21 -24 -38.5 -45t-51.5 -70.5t-60.5 -98.5t-58 -125.5t-52.5 -155.5t-35.5 -184t-14.5 -216q0 -542 311 -899l-47 -35q-87 76 -157.5 164t-115 166t-77 164t-48 149t-24.5 130.5t-10.5 98.5t-1.5 62z" />
<glyph unicode=")" horiz-adv-x="614" d="M524 516q0 -274 -120.5 -520.5t-313.5 -411.5l-47 37q21 24 38.5 45t51.5 70.5t60.5 98.5t58 125.5t52.5 155.5t35.5 184t14.5 216q0 542 -311 899l47 35q87 -76 157.5 -164t115 -166t77 -164t48 -149t24.5 -130.5t10.5 -98.5t1.5 -62z" />
<glyph unicode="*" horiz-adv-x="886" d="M406 1161q-36 8 -87 8q-82 0 -123.5 16.5t-41.5 59.5q0 25 16.5 43.5t50.5 18.5q30 0 59 -17.5t65.5 -45t72.5 -42.5q-4 41 -25.5 102t-21.5 87q0 33 17 56t44 23q30 0 49 -18t19 -53q0 -29 -18.5 -99.5t-20.5 -99.5q37 16 73.5 44.5t64 45.5t56.5 17q36 0 53 -20.5 t17 -41.5q0 -76 -141 -76q-64 0 -113 -8q25 -28 72 -58.5t72.5 -57t25.5 -62.5q0 -26 -18 -42.5t-41 -16.5q-36 0 -59.5 33t-46.5 93.5t-40 86.5q-15 -27 -39.5 -90.5t-46.5 -93t-57 -29.5q-26 0 -43 16.5t-17 40.5q0 39 27 65.5t74 56.5t72 58z" />
<glyph unicode="+" horiz-adv-x="1079" d="M592 526h352v-100h-352v-356h-105v356h-352v100h352v357h105v-357z" />
<glyph unicode="," horiz-adv-x="450" d="M98 90v8q14 41 39.5 67t71.5 44h8q62 -23 96.5 -72.5t34.5 -142.5q0 -35 -7 -66t-15 -53t-28 -45.5t-32 -36t-41 -32.5t-42 -28t-48 -28q-26 22 -26 43q81 55 120 100t39 93q0 18 -5 29.5t-15 16t-18.5 6t-20.5 1.5q-52 11 -75 29t-36 67z" />
<glyph unicode="-" horiz-adv-x="681" d="M561 483h-463q-13 0 -21.5 10.5t-8.5 24.5q0 25 16.5 50.5t34.5 25.5h469q28 0 28 -37q0 -19 -18 -46.5t-37 -27.5z" />
<glyph unicode="." horiz-adv-x="450" d="M111 90v8q15 41 39.5 67t70.5 44h8q45 -17 71 -42.5t40 -68.5v-8q-16 -49 -41.5 -74t-69.5 -36h-8q-48 11 -72.5 35t-37.5 75z" />
<glyph unicode="/" horiz-adv-x="661" d="M600 1323l-485 -1444h-84l485 1444h84z" />
<glyph unicode="0" horiz-adv-x="952" d="M477 1169q-221 0 -221 -581q0 -44 1.5 -86t7.5 -96.5t15 -101t25.5 -93t38 -79t54 -53t71.5 -20.5q18 0 38.5 6.5t48.5 24.5t53.5 59.5t41.5 100.5q21 75 28 162.5t7 236.5q0 194 -34 319.5t-85 168.5q-37 32 -90 32zM467 -20q-123 0 -212 84.5t-132 221t-43 306.5 q0 147 33 272t88.5 208.5t127 130t148.5 46.5q118 0 195 -71q33 -30 62 -71t60 -105.5t49.5 -160t18.5 -208.5q0 -138 -26 -251.5t-67.5 -186t-94.5 -123t-105 -71.5t-102 -21z" />
<glyph unicode="1" horiz-adv-x="952" d="M668 387q0 -229 18 -387l-4 -6q-57 6 -98 6l-95 -6l-2 6q17 142 17 387v508q0 37 -0.5 57t-4 47t-11.5 39.5t-21 12.5q-22 0 -106.5 -14t-127.5 -19l-12 59q86 26 238 89.5t211 82.5q14 0 14 -10q-16 -116 -16 -332v-520z" />
<glyph unicode="2" horiz-adv-x="952" d="M455 1133q-98 0 -158 -48q-19 -15 -33.5 -34t-19.5 -29t-19 -42t-18 -40l-27 2l-45 141q29 37 70.5 71t119 64.5t163.5 30.5q169 0 264 -90.5t95 -239.5q0 -151 -148 -350q-63 -85 -127.5 -159t-100 -109.5t-104.5 -101.5q-36 -36 -36 -56q0 -5 3 -10q56 4 167 4 q180 0 375 17q-11 -43 -11 -97q0 -18 7 -67q-243 10 -356 10q-67 0 -126.5 -1.5t-134.5 -4.5t-127 -4q-20 33 -20 80q0 14 3 26q4 3 71.5 66t103.5 99t99 101t114.5 128.5t93.5 125.5q38 57 58 132t20 143q0 104 -66 173t-150 69z" />
<glyph unicode="3" horiz-adv-x="952" d="M406 694q116 0 181.5 69.5t65.5 188.5q0 95 -53 156t-117 61q-89 0 -144 -42t-93 -132l-31 2l-43 131l6 7q50 44 134 79t190 35q149 0 239 -76.5t90 -189.5q0 -118 -75.5 -205t-165.5 -108v-11q121 -11 201.5 -91t80.5 -199q0 -78 -30 -144t-77.5 -110t-107.5 -75.5 t-119.5 -45.5t-113.5 -14q-207 0 -311 104l45 154l30 2q43 -92 64 -119q45 -55 141 -61q16 -1 35 -1q26 0 56.5 6t69.5 26t69.5 50.5t51.5 85.5t21 125q0 129 -80 197q-79 65 -200 65q-61 0 -86 -4v90q44 -6 76 -6z" />
<glyph unicode="4" horiz-adv-x="952" d="M586 303h-422q-121 0 -121 41q0 30 27 80q79 136 255.5 405.5t270.5 399.5l8 8q37 -8 70 -8q17 0 45 4t35 4q4 0 4 -8q-13 -122 -13 -303v-520h132q30 0 30 -33q0 -19 -19.5 -44.5t-39.5 -25.5h-103q0 -110 13 -303q0 -6 -4 -6q-7 0 -37.5 3t-48.5 3l-97 -6l-2 6 q17 147 17 303zM586 1049l-416 -643h416v643z" />
<glyph unicode="5" horiz-adv-x="952" d="M414 -20q-181 0 -310 114l-8 6l45 164l29 2l21 -39t20 -37t19 -31.5t21 -29t22 -23t27.5 -20.5t31.5 -13t39.5 -9.5t46.5 -2.5q105 0 169 83t64 223q0 161 -65 245t-170 84q-45 0 -92 -10t-78.5 -21t-83.5 -32l-15 5l66 603q140 -12 233 -12q169 0 336 20l15 -6l-33 -139 q-101 -12 -215 -12q-123 0 -260 18l-43 -362q84 30 223 30q165 0 263.5 -110.5t98.5 -266.5q0 -182 -117.5 -301.5t-299.5 -119.5z" />
<glyph unicode="6" horiz-adv-x="952" d="M260 567q-2 -20 -2 -75q0 -105 17.5 -185t44 -126.5t63 -76t70 -39.5t69.5 -10q81 0 132 70.5t51 228.5q0 35 -4.5 69.5t-20 77.5t-40 74.5t-69.5 53.5t-104 22q-125 0 -207 -84zM819 1194q-112 -11 -199 -45.5t-161 -106.5q-161 -158 -195 -415q36 45 109.5 75.5 t136.5 30.5q91 0 161 -29t109 -70.5t64 -94.5t33 -94t8 -76q0 -48 -11 -97t-39 -102.5t-70 -94t-110.5 -67t-154.5 -26.5q-53 0 -103.5 12t-107 46.5t-98.5 89.5t-69.5 150t-27.5 218q0 153 54.5 292.5t164.5 249.5q103 104 221 153t279 58z" />
<glyph unicode="7" horiz-adv-x="952" d="M707 1075q-88 5 -283 1t-295 -19q10 77 10 100q0 9 -10 86q103 -14 573 -14q70 0 132 20l34 -20q-106 -260 -200 -511.5t-132.5 -364.5t-125.5 -371l-150 -9l-6 13q129 289 453 1089z" />
<glyph unicode="8" horiz-adv-x="952" d="M481 1182q-89 0 -139.5 -50.5t-50.5 -125.5q0 -60 28 -113.5t115 -110.5l64 -37q61 44 113.5 110.5t52.5 139.5q0 80 -45 133.5t-138 53.5zM815 993q0 -46 -23 -91t-65.5 -85.5t-75 -65.5t-78.5 -55l125 -82q179 -117 179 -282q0 -60 -27.5 -121t-78 -112.5t-131.5 -84 t-177 -32.5q-169 0 -276 82.5t-107 234.5q0 60 36 125t99 121q65 57 143 117l-41 22q-87 51 -133.5 124.5t-46.5 160.5q0 120 101 200t256 80q149 0 235 -71.5t86 -184.5zM467 49q31 0 61 5.5t63.5 22t58.5 42t41 69.5t16 101q0 152 -181 266l-94 59q-192 -128 -192 -315 q0 -66 22 -116.5t57 -78t72.5 -41.5t75.5 -14z" />
<glyph unicode="9" horiz-adv-x="952" d="M682 662q2 20 2 75q0 105 -17.5 185t-44 126.5t-63 76t-70 39.5t-69.5 10q-81 0 -131.5 -71t-50.5 -229q0 -24 2 -48t8.5 -54t17.5 -56.5t29 -52.5t42 -44t59.5 -29.5t78.5 -11.5q125 0 207 84zM123 35q113 11 199.5 45.5t160.5 105.5q75 74 126.5 181t68.5 235 q-36 -45 -109.5 -75.5t-136.5 -30.5q-91 0 -161 29t-109 70.5t-64 94.5t-33 94t-8 76q0 48 11 97t39 102.5t70 94t110.5 67t154.5 26.5q53 0 103.5 -12t107 -46.5t98.5 -89.5t69.5 -150t27.5 -218q0 -154 -54.5 -293.5t-164.5 -249.5q-103 -104 -221 -153t-279 -58z" />
<glyph unicode=":" horiz-adv-x="450" d="M125 729v8q14 41 39.5 67t71.5 44h8q45 -17 70.5 -42.5t39.5 -68.5v-8q-16 -49 -41 -74.5t-69 -36.5h-8q-48 11 -73 35.5t-38 75.5zM125 190v9q14 41 39.5 66t71.5 44h8q45 -17 70.5 -42t39.5 -68v-9q-16 -49 -41 -74t-69 -36h-8q-48 11 -73 35t-38 75z" />
<glyph unicode=";" horiz-adv-x="450" d="M104 729v8q14 41 39.5 67t71.5 44h8q45 -17 71 -42.5t40 -68.5v-8q-16 -49 -41.5 -74.5t-69.5 -36.5h-8q-48 11 -73 35.5t-38 75.5zM98 90v8q14 41 39.5 67t71.5 44h8q62 -23 96.5 -72.5t34.5 -142.5q0 -35 -7 -66t-15 -53t-28 -45.5t-32 -36t-41 -32.5t-42 -28t-48 -28 q-26 22 -26 43q81 55 120 100t39 93q0 18 -5 29.5t-15 16t-18.5 6t-20.5 1.5q-52 11 -75 29t-36 67z" />
<glyph unicode="&#x3c;" horiz-adv-x="997" d="M250 489l649 -237v-102l-799 290v99l799 288v-102z" />
<glyph unicode="=" horiz-adv-x="1079" d="M944 651v-100h-809v100h809zM944 395v-100h-809v100h809z" />
<glyph unicode="&#x3e;" horiz-adv-x="997" d="M750 483l-650 238v102l799 -291v-98l-799 -289v103z" />
<glyph unicode="?" horiz-adv-x="829" d="M399 1268q-141 0 -252 -193l-26 2l-33 137l6 9q55 46 141 86.5t183 40.5q156 0 247 -84.5t91 -225.5q0 -47 -14.5 -90t-33 -72.5t-53 -63t-56 -50.5t-60.5 -45q-88 -65 -107 -103q-37 -70 -37 -149v-90q0 -21 -26 -21q-27 0 -27 21v94q0 43 3 73.5t15 77t42 91.5t77 88 q66 61 94.5 111.5t28.5 119.5q0 100 -58 168t-145 68zM254 90v8q14 41 39.5 67t71.5 44h8q45 -17 70.5 -42.5t39.5 -68.5v-8q-16 -49 -41 -74t-69 -36h-8q-48 11 -73 35t-38 75z" />
<glyph unicode="@" horiz-adv-x="1832" d="M1165 647q0 57 -38 93t-95 36q-35 0 -89 -20t-95 -62q-139 -139 -139 -362q0 -189 159 -189q54 0 121 77t115 190q61 142 61 237zM1194 152q0 -13 8.5 -19t14.5 -6q82 0 141.5 20.5t105.5 69.5t69 135t23 211q0 122 -39.5 227t-103.5 177t-145.5 123.5t-165 75.5 t-162.5 24q-96 0 -188 -25t-177 -80.5t-149 -135.5t-102.5 -197t-38.5 -258q0 -69 10 -138.5t33.5 -144.5t59 -141.5t91 -127t124 -104t162.5 -69t204 -25.5q241 0 411 135l27 -37q-108 -83 -213 -124.5t-264 -41.5q-180 0 -332.5 61t-256 166t-162 248t-58.5 306 q0 162 67 309t179.5 253.5t268 169t325.5 62.5q162 0 303.5 -51.5t240.5 -141t156 -214t57 -266.5q0 -74 -18 -144.5t-62 -140t-109.5 -121.5t-168.5 -84.5t-232 -32.5q-40 0 -56.5 26t-16.5 58q0 33 30 129l-4 2q-63 -106 -137 -158.5t-135 -52.5q-72 0 -124.5 27.5t-78 70 t-36.5 81.5t-11 75q0 106 44 205.5t113 168.5t154 111t166 42q52 0 97.5 -24.5t60.5 -63.5l10 49l109 26l30 -10l-122 -528q-27 -124 -27 -137z" />
<glyph unicode="A" horiz-adv-x="1288" d="M834 564q-97 253 -207 505h-4l-216 -504q135 -6 214 -6q100 0 213 5zM367 468q-124 -305 -170 -474q-25 6 -93 6q-46 0 -71 -6q338 741 604 1354h57q69 -165 197.5 -483.5t223.5 -549t140 -321.5q-35 6 -122 6q-68 0 -103 -6q-45 168 -159 474q-83 5 -240 5 q-179 0 -264 -5z" />
<glyph unicode="B" horiz-adv-x="1261" d="M389 1145v-385h160q138 0 212.5 51t74.5 174q0 74 -24 127t-64.5 79t-82.5 37t-90 11q-82 0 -122.5 -10t-52 -28.5t-11.5 -55.5zM389 672v-492q0 -51 46.5 -74.5t152.5 -23.5q86 0 149 13.5t100 35.5t59 56t29 69t7 82q0 146 -90 240t-262 94h-191zM301 1321 q55 0 141.5 3t118.5 3q110 0 193 -20.5t131.5 -51.5t78.5 -75t40 -84t10 -86q0 -82 -55 -157.5t-136 -115.5q143 -41 227.5 -130.5t84.5 -229.5q0 -57 -13 -108t-48.5 -102.5t-91 -88.5t-146.5 -60.5t-209 -23.5q-98 0 -183.5 3t-142.5 3q-32 0 -58.5 -1.5t-36.5 -2.5 l-11 -2l-2 6q20 139 20 410v501q0 264 -20 410l4 6q34 -6 104 -6z" />
<glyph unicode="C" horiz-adv-x="1386" d="M778 1348q111 0 223 -26t168 -52l56 -25l4 -6q-18 -68 -25 -109.5t-12 -117.5l-25 -2q-121 241 -417 241q-53 0 -109.5 -18.5t-115 -62t-104.5 -106.5t-75 -162t-29 -218q0 -159 57.5 -296t162 -220.5t231.5 -83.5q144 0 248 47.5t211 165.5l14 -6q11 -27 13 -87 q-186 -224 -504 -224q-129 0 -235.5 35t-181.5 97t-126.5 146t-76 181.5t-24.5 205.5q0 147 56.5 279t149.5 224t215 146t251 54z" />
<glyph unicode="D" horiz-adv-x="1454" d="M389 168q0 -36 14 -51.5t60.5 -23t148.5 -7.5q66 0 120.5 5.5t109.5 20.5t98 39t81 62t63 89.5t39 122t14 157.5q0 100 -17 190t-59 176.5t-106 149t-165 101t-229 38.5q-42 0 -70 -3t-53 -11t-37 -25t-12 -43v-987zM301 1321q65 0 169 3t169 3q145 0 276.5 -55.5 t226 -149t150.5 -222.5t56 -269q0 -105 -22.5 -193.5t-60 -153t-91 -115t-112.5 -82.5t-126.5 -53t-131 -29.5t-128.5 -8.5q-114 0 -212.5 2t-162.5 2q-32 0 -58.5 -1.5t-36.5 -2.5l-11 -2l-2 6q20 139 20 410v501q0 264 -20 410l4 6q34 -6 104 -6z" />
<glyph unicode="E" horiz-adv-x="1101" d="M389 410q0 -236 17 -295q122 0 266 6t228 12l83 6l4 -8q-4 -32 -4 -68q0 -5 4 -63l-4 -6q-49 6 -123 6h-559q-32 0 -58.5 -1.5t-36.5 -2.5l-11 -2l-2 6q20 139 20 410v501q0 264 -20 410l4 6q34 -6 104 -6h539q74 0 123 6l4 -6q-4 -58 -4 -78q0 -21 4 -53l-4 -8 q-284 24 -557 24q-17 -60 -17 -295v-159q215 0 457 20l6 -6q-6 -27 -6 -66q0 -38 6 -65l-6 -6q-201 20 -457 20v-239z" />
<glyph unicode="F" horiz-adv-x="1032" d="M834 1321q80 0 129 6l4 -6q-4 -58 -4 -70q0 -29 4 -61l-4 -8q-284 24 -557 24q-17 -60 -17 -295v-159q215 0 457 20l6 -6q-6 -27 -6 -66q0 -38 6 -65l-6 -6q-201 20 -457 20v-239q0 -256 21 -410l-4 -6q-35 6 -105 6q-32 0 -58.5 -1.5t-36.5 -2.5l-11 -2l-2 6 q20 139 20 410v501q0 264 -20 410l4 6q34 -6 104 -6h533z" />
<glyph unicode="G" horiz-adv-x="1468" d="M1118 240q0 243 -20 389l4 6q34 -6 104 -6q32 0 59 1.5t37 3.5l11 1l2 -6q-21 -143 -21 -348v-13q0 -72 21 -98v-6q-219 -184 -545 -184q-150 0 -276.5 54.5t-210.5 147t-130.5 213.5t-46.5 254q0 131 40.5 245t110 196t161 141t194.5 88t209 29q111 0 228 -26t178 -52 l61 -25l4 -6q-33 -116 -41 -238l-24 -2q-70 119 -184 188.5t-250 69.5q-210 0 -343 -161t-133 -426q0 -84 16.5 -166t55 -161.5t94.5 -139.5t142.5 -96.5t191.5 -36.5q219 0 301 77v93z" />
<glyph unicode="H" horiz-adv-x="1486" d="M1098 911q0 256 -21 410l4 6q38 -6 105 -6q68 0 106 6l2 -6q-20 -136 -20 -410v-501q0 -264 20 -410l-4 -6q-38 6 -104 6q-70 0 -107 -6l-2 6q21 146 21 410v247h-709v-247q0 -256 21 -410l-4 -6q-37 6 -105 6q-69 0 -106 -6l-2 6q20 139 20 410v501q0 264 -20 410l4 6 q37 -6 104 -6q69 0 107 6l2 -6q-21 -143 -21 -410v-163h709v163z" />
<glyph unicode="I" horiz-adv-x="602" d="M213 911q0 264 -20 410l4 6q37 -6 104 -6q68 0 105 6l4 -6q-21 -143 -21 -410v-501q0 -256 21 -410l-4 -6q-37 6 -105 6q-67 0 -104 -6l-4 6q20 139 20 410v501z" />
<glyph unicode="J" horiz-adv-x="655" d="M287 195v716q0 256 -21 410l4 6q38 -6 105 -6q69 0 106 6l2 -6q-20 -136 -20 -410v-671q0 -121 -10 -189t-36 -121t-83 -127q-120 -155 -324 -155q-63 0 -92 18l-2 6q25 42 57 168l23 2q40 -71 119 -71q34 0 60.5 14.5t44.5 37.5t31 59t19.5 70t10.5 80.5t5 81.5t1 81z " />
<glyph unicode="K" horiz-adv-x="1288" d="M213 911q0 264 -20 410l4 6q37 -6 104 -6q68 0 105 6l4 -6q-21 -143 -21 -410v-206q27 3 45 18q246 216 584 604q27 -6 100 -6q72 0 105 6q-161 -141 -344.5 -316t-278.5 -286v-4l643 -727q-39 6 -127 6q-92 0 -127 -6q-445 549 -561 665q-14 12 -39 14v-263 q0 -256 21 -410l-4 -6q-37 6 -105 6q-67 0 -104 -6l-4 6q20 139 20 410v501z" />
<glyph unicode="L" horiz-adv-x="1054" d="M391 911v-501q0 -226 17 -285q122 0 266 11t228 22l83 12l4 -8q-4 -32 -4 -72q0 -32 4 -90l-4 -6q-49 6 -123 6h-559q-31 0 -57.5 -1.5t-37.5 -2.5l-11 -2l-2 6q20 139 20 410v501q0 264 -20 410l4 6q37 -6 104 -6q69 0 107 6l2 -6q-21 -143 -21 -410z" />
<glyph unicode="M" horiz-adv-x="1814" d="M395 1356h68q239 -558 459 -1015l17 -1l497 1016h51q80 -699 192 -1362q-31 6 -114 6q-70 0 -101 -6q-33 371 -113 974l-8 1q-231 -458 -454 -969h-39q-223 540 -430 975h-9q-88 -542 -151 -981q-23 6 -61 6q-45 0 -68 -6q162 776 264 1362z" />
<glyph unicode="N" horiz-adv-x="1470" d="M221 1321l4 6q16 -6 86 -6l29 4l702 -909q72 -93 86 -105q25 -22 32 14q2 14 3 40v546q0 264 -20 410l4 6q37 -6 72 -6q33 0 71 6l4 -6q-12 -160 -19 -335.5t-10 -290t-6.5 -329.5t-5.5 -323q-3 -63 -39 -63q-52 0 -88 49l-714 903q-21 27 -32.5 41t-21.5 21t-14.5 5.5 t-7.5 -15.5t-3.5 -32t-0.5 -53v-489q0 -264 20 -410l-4 -6q-38 6 -72 6t-71 -6l-4 6q24 236 29 636.5t-9 684.5z" />
<glyph unicode="O" horiz-adv-x="1517" d="M727 1257q-61 0 -118.5 -19.5t-111 -64t-93 -110.5t-63.5 -167t-24 -226q0 -143 40 -259t108 -189t153 -112.5t179 -39.5q180 0 291.5 148.5t111.5 416.5q0 311 -125 466.5t-348 155.5zM1411 674q0 -203 -81.5 -361t-231 -245.5t-342.5 -87.5q-177 0 -324 78.5 t-236.5 229.5t-89.5 347q0 198 85 361.5t233.5 257.5t329.5 94q184 0 333 -83t236.5 -237.5t87.5 -353.5z" />
<glyph unicode="P" horiz-adv-x="1144" d="M389 1157v-483q41 -21 162 -21q157 0 235 71t78 241q0 71 -17.5 123t-44 82t-66.5 48t-78 23.5t-85 5.5q-105 0 -144.5 -21.5t-39.5 -68.5zM213 911q0 264 -20 410l4 6q37 -6 104 -6q31 0 146 7t141 7q109 0 194.5 -23t137 -59.5t85 -85.5t46 -96t12.5 -96 q0 -55 -16 -109.5t-54 -109.5t-94 -97t-143.5 -68t-194.5 -26q-104 0 -172 21v-176q0 -256 21 -410l-4 -6q-37 6 -105 6q-67 0 -104 -6l-4 6q20 139 20 410v501z" />
<glyph unicode="Q" horiz-adv-x="1517" d="M727 1257q-61 0 -118.5 -19.5t-111 -64t-93 -110.5t-63.5 -167t-24 -226q0 -143 40 -259t108 -189t153 -112.5t179 -39.5q180 0 291.5 148.5t111.5 416.5q0 311 -125 466.5t-348 155.5zM1148 101q12 -7 120.5 -71.5t199 -109t191.5 -78.5v-12q-136 -72 -193 -117 q-101 57 -216.5 143.5t-258.5 161.5q-108 -38 -235 -38q-177 0 -324 78.5t-236.5 229.5t-89.5 347q0 198 85 361.5t233.5 257.5t329.5 94q184 0 333 -83t236.5 -237.5t87.5 -353.5q0 -185 -69 -333t-194 -240z" />
<glyph unicode="R" horiz-adv-x="1228" d="M389 586v-176q0 -256 21 -410l-4 -6q-37 6 -105 6q-67 0 -104 -6l-4 6q20 139 20 410v501q0 264 -20 410l4 6q37 -6 104 -6q32 0 142.5 7t134.5 7q82 0 138 -4.5t127.5 -27.5t117.5 -66q108 -102 108 -256q0 -118 -57 -201.5t-148 -128.5q-45 -23 -124 -39 q48 -64 214.5 -305.5t223.5 -306.5l-4 -6q-41 6 -123 6q-84 0 -123 -6q-16 50 -75.5 159.5t-119.5 206.5q-11 17 -37 60l-39 64.5t-35.5 52.5t-42.5 55q-82 -6 -190 -6zM580 1247q-73 0 -108 -2t-56 -13.5t-24 -26t-3 -48.5v-489h119q63 0 114.5 8t99 29.5t80 56t51.5 89.5 t19 128q0 64 -18.5 112.5t-47.5 77.5t-69.5 47t-78 24.5t-78.5 6.5z" />
<glyph unicode="S" horiz-adv-x="1036" d="M496 70q97 0 168 64.5t71 174.5q0 63 -17.5 111.5t-53 82.5t-74 57t-94.5 46q-59 25 -103 47.5t-94 58t-81.5 73.5t-53 92t-21.5 116q0 107 65 193t161 127q83 35 176 35q67 0 125.5 -9.5t93.5 -23t60.5 -27.5t35.5 -24l10 -9l4 -6q-39 -133 -47 -205l-20 -2 q-42 96 -118.5 155.5t-160.5 59.5q-78 0 -125 -24q-40 -22 -67 -75t-27 -109q0 -49 17 -90t40 -67t61 -50t65 -35.5t67 -26.5q56 -21 102.5 -43.5t98 -59t86 -78t57.5 -100.5t23 -128q0 -175 -127 -283t-320 -108q-67 0 -130 9.5t-105.5 23t-75 27t-47.5 22.5l-15 10l-4 6 q3 10 13 46.5t15 56t11 51t9 57.5l20 2q47 -91 143.5 -156t182.5 -65z" />
<glyph unicode="T" horiz-adv-x="1105" d="M465 911q0 239 -16 295q-122 0 -225.5 -7t-145.5 -14l-43 -7l-4 8q6 48 0 135l4 6q50 -6 123 -6h790q73 0 123 6l4 -6q-6 -87 0 -135l-4 -8q-141 28 -414 28q-16 -56 -16 -295v-501q0 -256 21 -410l-5 -6q-37 6 -104 6t-104 -6l-5 6q21 146 21 410v501z" />
<glyph unicode="U" horiz-adv-x="1417" d="M1114 911q0 264 -20 410l4 6q38 -6 71 -6q35 0 72 6l4 -6q-20 -136 -20 -410v-307q0 -115 -15 -206t-52.5 -171t-97.5 -133t-153.5 -83.5t-216.5 -30.5q-62 0 -121 11.5t-125.5 45.5t-116 87.5t-82 146t-32.5 212.5v428q0 264 -20 410l4 6q37 -6 104 -6q68 0 105 6l4 -6 q-21 -143 -21 -410v-360q0 -28 0.5 -45.5t3.5 -56t8.5 -66.5t17.5 -67.5t28.5 -68t43.5 -59t60 -50t79.5 -32t102.5 -12.5q72 0 130 14.5t97 38.5t68 61.5t45 75.5t25.5 89.5t12.5 95t3 98.5v344z" />
<glyph unicode="V" horiz-adv-x="1292" d="M664 271q5 11 49.5 114.5t55.5 128.5t51.5 120.5t56 133.5t49 119.5t50.5 127.5t40 109t38.5 111.5t26.5 91.5q35 -6 93 -6q44 0 81 6q-396 -867 -604 -1347h-57q-66 159 -196.5 480t-225 548t-139.5 319q51 -6 123 -6q61 0 112 6q123 -436 391 -1056h5z" />
<glyph unicode="W" horiz-adv-x="1947" d="M1319 270q9 20 56 129.5t62.5 145t58.5 136.5t62.5 149t53 133t52.5 138t39.5 115.5t33.5 110.5q25 -6 102 -6q47 0 72 6q-396 -867 -604 -1347h-58q-120 337 -269 740l-329 -740h-57q-66 159 -196.5 480t-225 548t-139.5 319q35 -6 123 -6q67 0 102 6q19 -67 51.5 -169 t130.5 -360.5t222 -545.5h4q183 424 260 612q-150 399 -176 463q35 -6 122 -6q78 0 113 6q57 -253 330 -1057h4z" />
<glyph unicode="X" horiz-adv-x="1189" d="M1155 -6q-37 6 -119 6q-81 0 -118 -6q-38 73 -87 155t-77 125.5t-101 152t-91 136.5q-203 -310 -343 -569q-23 6 -86 6t-86 -6l453 663l-443 670q35 -6 115 -6t117 6q17 -35 42 -79t62.5 -102.5t66 -103t80 -123t78.5 -119.5q138 200 195.5 290.5t136.5 236.5 q23 -6 86 -6t86 6q-6 -8 -168.5 -232t-274.5 -388q19 -29 83 -127.5t85 -130.5t72 -109.5t80.5 -121t72.5 -105.5t83 -119z" />
<glyph unicode="Y" horiz-adv-x="1191" d="M682 584q5 -476 14 -590q-38 6 -102 6t-102 -6q14 158 14 569q-63 107 -239 391.5t-234 372.5q52 -6 117 -6q64 0 116 6q50 -97 103.5 -191.5t140 -242t115.5 -197.5q227 355 358 631q37 -6 86 -6q45 0 86 6q-64 -98 -162 -246t-140.5 -213t-91.5 -145.5t-79 -138.5z" />
<glyph unicode="Z" horiz-adv-x="1273" d="M383 111q119 0 313.5 10.5t329.5 21.5l135 11l4 -7q-4 -32 -4 -67q0 -22 4 -80l-4 -6q-49 6 -145 6h-744l-178 -6l-6 8q13 17 31.5 44t21.5 32l756 1108q7 12 4.5 18t-10.5 6q-225 0 -727 -43l-4 7q4 32 4 67q0 22 -4 80l4 6q50 -6 125 -6h622q49 0 141 4t117 8 q13 0 13 -12q0 -25 -62 -111l-727 -1063q-10 -14 -10 -36z" />
<glyph unicode="[" horiz-adv-x="739" d="M225 -393v1833h441v-62q-74 -5 -120.5 -11t-82.5 -18.5t-53.5 -25.5t-28.5 -40.5t-13.5 -55.5t-2.5 -78v-1251q0 -50 2.5 -78t13 -55.5t28.5 -41t54 -26t82.5 -19t120.5 -12.5v-59h-441z" />
<glyph unicode="\" horiz-adv-x="598" d="M123 1430l471 -1528h-100l-471 1528h100z" />
<glyph unicode="]" horiz-adv-x="739" d="M514 1440v-1833h-440v61q74 5 120.5 11t82 18.5t53.5 26t29 41t13.5 55.5t2.5 78v1251q0 50 -2.5 78t-13.5 55.5t-28 40.5t-53.5 26t-82.5 19t-121 12v60h440z" />
<glyph unicode="^" horiz-adv-x="1060" d="M530 1214l-208 -505h-93l260 622h86l259 -622h-93z" />
<glyph unicode="_" horiz-adv-x="995" d="M987 -225v-90h-977v90h977z" />
<glyph unicode="`" horiz-adv-x="802" d="M365 1432l143 -258q12 -24 12 -50q0 -8 -9.5 -15t-21.5 -7q-15 0 -59 41l-233 223l4 23q63 47 133 47q15 0 31 -4z" />
<glyph unicode="a" horiz-adv-x="985" d="M635 461l-174 -47q-114 -31 -158.5 -81t-44.5 -124q0 -50 43 -87.5t109 -37.5q82 0 188 80q29 22 29 53zM635 98h-8q-83 -70 -139 -94t-140 -24q-119 0 -187.5 55.5t-68.5 165.5q0 104 91 183t249 114l191 43q14 5 14 24q0 66 -14 113.5t-33 71.5t-49 38t-51 16.5 t-50 2.5q-67 0 -121 -47t-104 -127l-27 2l-34 137l6 8q37 31 67.5 52t96 44t137.5 23q51 0 95.5 -7.5t90.5 -30t78.5 -58t53 -96t20.5 -140.5q0 -7 -3 -141t-3 -168q0 -129 34 -160q16 -15 60 -15q25 0 55 11l16 -51q-59 -63 -163 -63q-58 0 -100.5 30t-59.5 88z" />
<glyph unicode="b" horiz-adv-x="1032" d="M332 166q33 -42 84 -73.5t96 -31.5q142 0 206 100.5t64 297.5q0 180 -66.5 269t-168.5 89q-60 0 -105 -27t-110 -94v-530zM332 1024v-227q94 102 256 102q153 0 265 -120.5t112 -303.5q0 -125 -39 -223t-103.5 -155.5t-141 -87t-157.5 -29.5q-62 0 -127 29t-114 71 q-34 -63 -68 -100q-41 0 -57 16q10 50 10 154v837q0 259 -25 395l4 7q91 7 179 41q18 0 18 -21q-12 -151 -12 -385z" />
<glyph unicode="c" horiz-adv-x="878" d="M512 817q-106 0 -180 -98.5t-74 -261.5q0 -175 75 -275t191 -100q62 0 113 18.5t106 67.5h9l39 -43q-114 -145 -302 -145t-299.5 126.5t-111.5 339.5q0 101 38 188t100 144t140 89t158 32q75 0 149.5 -16t122.5 -41l5 -6l-48 -168l-26 -2q-88 151 -205 151z" />
<glyph unicode="d" horiz-adv-x="1085" d="M739 231v467q-39 62 -82 90.5t-112 28.5q-34 0 -66 -8t-69 -32t-64 -62.5t-45 -106t-18 -155.5q0 -182 57.5 -274.5t146.5 -92.5q64 0 130.5 37.5t121.5 107.5zM739 119q-108 -139 -264 -139q-163 0 -267 132t-104 324q0 207 130.5 335t332.5 128q33 0 86 -13t86 -32v133 q0 297 -18 395l4 7q90 7 178 41q19 0 19 -21q-19 -239 -19 -385v-631q0 -201 35 -393l-4 -6q-41 6 -91 6q-17 0 -71 -6q-18 0 -18 6l-11 119h-4z" />
<glyph unicode="e" horiz-adv-x="927" d="M256 559h377q29 0 29 29q0 108 -53 168.5t-120 60.5q-22 0 -46 -6t-54 -23.5t-55 -45t-46.5 -75t-31.5 -108.5zM803 213l41 -51q-60 -82 -155 -132t-202 -50q-103 0 -187.5 35.5t-137.5 99.5q-92 109 -92 313q0 109 35.5 200t95 149t134 90t154.5 32q78 0 140.5 -24 t101.5 -62.5t65.5 -90t37 -103.5t10.5 -107q0 -35 -37 -35h-557q0 -181 49 -260q38 -62 99.5 -89.5t123.5 -27.5q177 0 281 113z" />
<glyph unicode="f" horiz-adv-x="643" d="M203 879v79q0 173 112 314q57 73 148 115.5t188 42.5q58 0 92 -21l2 -6q-31 -64 -57 -168l-22 -2q-18 32 -49.5 52t-69.5 20q-87 0 -139 -53t-52 -138q0 -14 5.5 -94.5t5.5 -122.5v-18h88q75 0 143 4l10 -15q-16 -40 -24 -84q-36 4 -148 4h-69v-380q0 -270 20 -408l-4 -6 q-37 6 -98 6t-99 -6l-4 6q21 136 21 408v380h-2q-103 0 -152 -4l-10 15q27 42 45 84q27 -4 119 -4z" />
<glyph unicode="g" horiz-adv-x="1021" d="M207 -213q0 -66 40.5 -109t98 -59t129.5 -16q141 0 242.5 50.5t101.5 139.5q0 101 -80 148q-38 23 -84 28.5t-133 5.5q-10 0 -79 -3t-103 -3q-56 -30 -94.5 -81t-38.5 -101zM371 96q29 0 113 7.5t110 7.5q210 0 289 -68q86 -74 86 -203q0 -146 -136.5 -235.5 t-373.5 -89.5q-112 0 -198.5 23.5t-140.5 76.5t-54 131q0 28 13.5 66.5t33.5 68.5q91 71 174 104q-79 14 -119.5 62t-40.5 115q0 79 131 170q-145 84 -145 256q0 73 31.5 133.5t82 98.5t111.5 58.5t123 20.5q64 0 125 -18q87 5 187.5 20.5t135.5 18.5l6 -7q-6 -27 -6 -53 t6 -53l-6 -6q-144 15 -213 21q103 -69 103 -238q0 -126 -93 -215.5t-247 -89.5q-98 0 -152 28q-55 -48 -55 -114q0 -59 32.5 -78t86.5 -19zM639 582q0 239 -186 239q-88 0 -134.5 -60t-46.5 -163q0 -114 44.5 -176t148.5 -62q88 0 131 61.5t43 160.5z" />
<glyph unicode="h" horiz-adv-x="1124" d="M348 721l4 -6q46 55 98.5 93.5t100 57t85 26t71.5 7.5q135 0 194.5 -80t59.5 -244q0 -33 -2.5 -103t-2.5 -103q0 -230 19 -369l-4 -6q-37 6 -97 6q-58 0 -96 -6l-4 6q19 131 19 369v200q0 121 -33.5 164t-114.5 43q-63 0 -144 -41.5t-153 -126.5v-239q0 -221 19 -369 l-5 -6q-38 6 -96 6t-96 -6l-4 6q18 129 18 369v616q0 299 -18 397l4 7q90 7 178 41q19 0 19 -21q-19 -239 -19 -383v-305z" />
<glyph unicode="i" horiz-adv-x="532" d="M164 1223q0 41 31.5 72.5t72.5 31.5t73 -31.5t32 -72.5t-32 -73t-73 -32t-72.5 32t-31.5 73zM184 481q0 276 -18 398l4 6q31 -2 88 -2t90 4q12 0 15.5 -4t3.5 -17q-19 -183 -19 -352v-145q0 -222 19 -369l-5 -6q-38 6 -96 6t-96 -6l-4 6q18 133 18 369v112z" />
<glyph unicode="j" horiz-adv-x="557" d="M184 1223q0 41 32 72.5t73 31.5t72.5 -31.5t31.5 -72.5t-31.5 -73t-72.5 -32t-73 32t-32 73zM373 514v-268q0 -223 -20.5 -334t-69.5 -188q-105 -166 -277 -166q-59 0 -88 18l-2 6q8 31 8 182l33 9q52 -92 123 -92q41 0 68 39t39.5 116.5t17 159t4.5 201.5v284 q0 269 -19 398l5 6q31 -2 88 -2t90 4q12 0 15 -3.5t3 -17.5q-18 -173 -18 -352z" />
<glyph unicode="k" horiz-adv-x="1030" d="M184 410v577q0 297 -18 395l4 7q90 7 178 41q19 0 19 -21q-19 -247 -19 -385v-532q56 4 90 30q63 48 161.5 156t162.5 201q168 0 207 6l4 -6q-91 -77 -216.5 -197t-197.5 -195q87 -105 162.5 -186t160.5 -165t134 -136l-4 -6q-27 6 -123 6q-89 0 -135 -6 q-86 125 -120 172.5t-85.5 110.5t-116.5 131q-12 11 -39 16.5t-45 5.5v-20q0 -271 19 -410l-5 -6q-38 6 -96 6t-96 -6l-4 6q18 132 18 410z" />
<glyph unicode="l" horiz-adv-x="516" d="M184 410v577q0 297 -18 395l4 7q90 7 178 41q19 0 19 -21q-19 -247 -19 -385v-614q0 -271 19 -410l-5 -6q-38 6 -96 6t-96 -6l-4 6q18 132 18 410z" />
<glyph unicode="m" horiz-adv-x="1652" d="M332 721l6 -6q173 184 344 184q86 0 144.5 -44t72.5 -118q154 162 346 162q64 0 111 -17t74 -44.5t43 -71.5t21 -88.5t5 -104.5v-204q0 -230 19 -369l-5 -6q-37 6 -96 6t-96 -6l-4 6q18 125 18 369v225q0 100 -39 141t-125 41q-72 0 -132.5 -24.5t-127.5 -98.5 q2 -25 2 -78v-206q0 -230 19 -369l-4 -6q-38 6 -97 6t-96 -6l-4 6q19 132 19 369v225q0 182 -136 182q-55 0 -133 -44t-149 -116v-247q0 -237 18 -369l-4 -6q-38 6 -96 6t-96 -6l-4 6q18 125 18 369v112q0 284 -18 398l4 6q86 -9 165 6q13 0 13 -21v-149z" />
<glyph unicode="n" horiz-adv-x="1103" d="M942 369q0 -230 19 -369l-5 -6q-38 6 -96 6t-96 -6l-4 6q18 132 18 369v200q0 121 -33 164t-114 43q-63 0 -144 -41.5t-153 -126.5v-239q0 -237 18 -369l-4 -6q-38 6 -96 6t-96 -6l-4 6q18 125 18 369v112q0 284 -18 398l4 6q87 -9 166 6q12 0 12 -21v-149l4 -6 q46 55 98 93.5t100 57t85 26t71 7.5q135 0 194.5 -80t59.5 -244q0 -33 -2 -103t-2 -103z" />
<glyph unicode="o" d="M78 420q0 218 120.5 348.5t321.5 130.5q204 0 315 -124t111 -337q0 -204 -117 -331t-317 -127q-199 0 -316.5 125t-117.5 315zM506 817q-56 0 -99.5 -21t-71 -55t-45.5 -82t-25 -98t-7 -106q0 -52 7 -102t26.5 -104.5t49 -95t78.5 -66.5t111 -26q102 0 169 96.5t67 243.5 q0 101 -10.5 171t-38 128.5t-80 87.5t-131.5 29z" />
<glyph unicode="p" horiz-adv-x="1071" d="M332 602v-448q80 -93 190 -93q63 0 111.5 24.5t77 62.5t46.5 90.5t24.5 102.5t6.5 105q0 174 -53 266.5t-157 92.5q-61 0 -137 -61.5t-109 -141.5zM332 721l4 -6q121 184 276 184q110 0 193 -62t123.5 -157.5t40.5 -206.5q0 -220 -117 -356.5t-317 -136.5q-121 0 -203 45 v-91q0 -269 18 -409l-4 -6q-37 6 -96 6q-58 0 -96 -6l-4 6q18 132 18 409v547q0 284 -18 398l4 6q86 -9 165 6q13 0 13 -21v-149z" />
<glyph unicode="q" horiz-adv-x="1069" d="M731 770q-56 47 -192 47q-115 0 -186.5 -96.5t-71.5 -255.5q0 -110 24 -191t64 -123.5t84 -61.5t92 -19q35 0 95.5 18.5t96.5 46.5v344q0 91 -1.5 164t-3.5 100zM750 885q66 -11 165 0l5 -6q-19 -121 -19 -398v-547q0 -278 19 -409l-5 -6q-26 6 -96 6q-32 0 -56 -1.5 t-32 -3.5l-8 -1l-4 6q18 116 18 409v113q-28 -24 -94.5 -45.5t-146.5 -21.5q-102 0 -180.5 41.5t-124 110t-68.5 147.5t-23 163q0 200 122.5 328.5t303.5 128.5q138 0 224 -14z" />
<glyph unicode="r" horiz-adv-x="727" d="M342 684l6 -4q71 123 125.5 171t134.5 48q14 0 23.5 -1t13.5 -2t16.5 -5t20.5 -6l8 -8l-41 -152l-16 -4q-31 29 -107 29q-30 0 -61 -19t-53 -53q-37 -58 -53.5 -100.5t-16.5 -102.5v-106q0 -229 18 -369l-4 -6q-38 6 -96 6t-96 -6l-4 6q18 124 18 369v112q0 284 -18 398 l4 6q87 -9 166 6q12 0 12 -21v-186z" />
<glyph unicode="s" horiz-adv-x="811" d="M102 207l31 2q46 -65 109.5 -106.5t132.5 -41.5q84 0 136 45t52 125q0 68 -50.5 102.5t-156.5 63.5q-53 15 -91 31.5t-76 45t-58 72.5t-20 103q0 81 46.5 139.5t115 84.5t147.5 26q74 0 151.5 -18t124.5 -43l4 -7l-41 -151l-28 -2q-59 69 -93 94q-60 45 -126 45 q-69 0 -112.5 -34t-43.5 -95q0 -113 190 -160q60 -14 105.5 -33.5t87 -50t64 -77.5t22.5 -107q0 -37 -8.5 -72.5t-32.5 -74.5t-61.5 -67.5t-101 -47t-144.5 -18.5q-152 0 -309 55z" />
<glyph unicode="t" horiz-adv-x="696" d="M195 879q0 120 8 262l4 6q30 4 52.5 11.5t49 20.5t41.5 19q19 0 19 -20q-11 -145 -11 -299h97q21 0 47.5 0.5t55 2t40.5 1.5l10 -15q-16 -40 -24 -84q-36 4 -148 4h-78v-258q0 -69 -3 -159t-3 -113q0 -84 15.5 -123t52.5 -45q79 -12 161 16l25 -51q-64 -41 -118 -58 t-119 -17q-76 0 -128.5 51t-52.5 145q0 23 3.5 143t3.5 189v280q-99 0 -146 -4l-10 15q27 42 45 84q33 -4 111 -4z" />
<glyph unicode="u" horiz-adv-x="1099" d="M748 188q-57 -87 -139 -147.5t-171 -60.5q-73 0 -127 24t-83.5 65.5t-43.5 90t-14 104.5v246q0 237 -18 369l4 6q38 -6 96 -6t96 6l4 -6q-18 -123 -18 -369v-203q0 -68 11 -113t32 -65.5t42 -27.5t52 -7q71 0 151 65t130 150v201q0 230 -19 369l4 6q37 -6 97 -6 q58 0 96 6l4 -6q-19 -129 -19 -369v-117q0 -201 35 -393l-4 -6q-40 6 -91 6q-27 0 -81 -6q-8 0 -8 6l-10 182z" />
<glyph unicode="v" horiz-adv-x="946" d="M414 -6q-177 461 -373 891q33 -6 119 -6q75 0 102 6q9 -30 42 -135t47.5 -151t43 -129t54.5 -150.5t56 -134.5h5q42 89 83.5 207t88.5 265.5t76 227.5q18 -6 69 -6q60 0 78 6q-254 -574 -366 -891q-18 6 -62 6q-43 0 -63 -6z" />
<glyph unicode="w" horiz-adv-x="1478" d="M420 -8q-145 376 -379 891q33 -6 119 -6q75 0 102 6q7 -23 35.5 -114t39 -123.5t36 -110t42.5 -123.5t42 -110t50 -120h13q63 136 170 435q-64 171 -96 268q33 -6 119 -6q75 0 102 6q94 -432 196 -700h17q120 281 252 700q18 -6 70 -6q70 0 88 6q-134 -293 -381 -891 q-18 6 -76 6q-33 0 -53 -6q-26 71 -57 152t-69.5 180t-58.5 153q-64 -156 -182 -487q-18 6 -74 6q-47 0 -67 -6z" />
<glyph unicode="x" horiz-adv-x="931" d="M378 424l-329 461q40 -6 119 -6q69 0 111 6q19 -32 61.5 -105t75.5 -126.5t70 -103.5q50 66 130.5 187.5t98.5 147.5q26 -6 76 -6q61 0 92 6l-336 -413q27 -40 99.5 -147.5t125.5 -183t109 -147.5q-64 6 -117 6q-69 0 -105 -6q-18 28 -93.5 152.5t-123.5 191.5 q-46 -64 -118.5 -181.5t-102.5 -162.5q-31 6 -90 6q-44 0 -74 -6z" />
<glyph unicode="y" horiz-adv-x="1036" d="M57 885q29 -6 107 -6q73 0 100 6q11 -34 24 -71.5t23.5 -67t27 -73t25.5 -66.5t29 -73t26.5 -67t30 -74t28 -68t31 -75t29.5 -71h4q133 283 269 706q20 -6 80 -6q68 0 88 6q-85 -171 -314 -687.5t-280 -682.5q-33 10 -100 10q-39 0 -72 -10q145 240 242 465 q-25 68 -84.5 205t-108 245t-122.5 271t-83 184z" />
<glyph unicode="z" horiz-adv-x="851" d="M278 92q111 0 239 6t201 12l73 5l4 -6q-4 -32 -4 -54q0 -1 4 -55l-4 -6q-47 6 -115 6h-463l-166 -6l-6 9q19 23 45 63l481 720q-104 -1 -221 -6.5t-182 -10.5l-64 -5l-4 6q4 32 4 53q0 2 -4 56l4 6q46 -6 115 -6h418q26 0 65 3t68 6t32 3q11 0 11 -12q-15 -17 -61 -86z " />
<glyph unicode="{" horiz-adv-x="567" d="M365 1130l16 -339q6 -128 -47 -188.5t-168 -92.5v-8q113 -47 167 -117t48 -190l-16 -306q-6 -123 43 -198.5t120 -75.5q9 -9 9 -24.5t-9 -24.5q-82 0 -138 15t-98 52t-60.5 103t-14.5 164l12 348q7 208 -200 233q-25 25 0 49q105 10 152.5 75t47.5 153l-12 377 q-3 84 19 146t65 97.5t99 52.5t128 17q9 -9 9 -24.5t-9 -24.5q-30 -9 -48.5 -16.5t-44.5 -27t-40 -46t-23.5 -72.5t-6.5 -107z" />
<glyph unicode="|" horiz-adv-x="430" d="M266 -475h-100v1905h100v-1905z" />
<glyph unicode="}" horiz-adv-x="567" d="M195 -119l-17 340q-6 128 47 188.5t168 92.5v8q-113 47 -167 117t-48 190l17 305q6 123 -43.5 199t-120.5 76q-9 9 -9 24.5t9 24.5q82 0 138 -15t98 -52t60.5 -103t14.5 -164l-12 -348q-7 -209 200 -234q24 -24 0 -49q-105 -10 -152.5 -74.5t-47.5 -152.5l12 -377 q3 -84 -19 -146t-65 -97.5t-99 -52.5t-128 -17q-9 9 -9 24.5t9 24.5q30 9 48.5 16.5t45 27t40.5 45.5t23.5 72t6.5 107z" />
<glyph unicode="~" horiz-adv-x="919" d="M608 436q-35 0 -77 21t-75.5 45.5t-75.5 45.5t-77 21q-57 0 -123 -41t-100 -106l-27 6q21 104 96 183t166 79q26 0 58 -13.5t63 -33t61.5 -39.5t62 -33.5t56.5 -13.5q32 0 68 12t75 44.5t60 80.5l35 -12q-22 -77 -57 -130t-72.5 -76t-65 -31.5t-51.5 -8.5z" />
<glyph unicode="&#xa1;" horiz-adv-x="466" d="M236 -469q-46 0 -80.5 39t-34.5 111q0 75 23 203t30 192q12 97 19 183.5t10 134t4 55.5q3 40 29 40q24 0 28 -26q1 -13 5.5 -78.5t11.5 -152t14 -156.5q7 -72 29 -194t22 -201q0 -75 -34.5 -112.5t-75.5 -37.5zM350 788v-8q-14 -41 -39 -66.5t-71 -43.5h-9 q-45 17 -70.5 42t-39.5 68v8q16 49 41 74.5t69 36.5h9q48 -11 72.5 -35t37.5 -76z" />
<glyph unicode="&#xa2;" d="M523 1344h79v-211q76 0 151 -16.5t125 -42.5l4 -6l-48 -172l-27 -2q-42 72 -94.5 113t-110.5 42v-751h8q63 0 115.5 19t108.5 69h9l39 -44q-108 -139 -280 -148v-222h-79v224q-170 18 -269.5 145t-99.5 329q0 180 108.5 303.5t260.5 152.5v218zM523 314v721 q-82 -31 -133.5 -124.5t-51.5 -229.5q0 -143 50.5 -238.5t134.5 -128.5z" />
<glyph unicode="&#xa3;" d="M484 902v-156h274q16 0 16 -13v-49q0 -13 -16.5 -20.5t-36.5 -7.5h-237q-2 -306 -161 -456h12q70 0 122 -10.5t82 -26t55.5 -30.5t57 -25.5t71.5 -10.5q62 0 125.5 21.5t102.5 74.5l40 -23q-41 -88 -121.5 -140.5t-185.5 -52.5q-54 0 -97 13.5t-72 32.5l-58 38t-71 32.5 t-95 13.5q-93 0 -93 -54q0 -37 -25 -56.5t-64 -19.5q-31 0 -50 16.5t-19 43.5q0 29 29 54.5t82 54.5q90 66 123 184t33 289v37h-139q-9 0 -12 2.5t-3 11.5v30q0 17 13.5 31.5t40.5 14.5h100v45q0 137 31.5 215t117.5 164q156 156 388 156q59 0 93 -19l3 -7q-31 -53 -59 -167 l-23 -3q-41 72 -118 72q-92 0 -174 -92.5t-82 -207.5z" />
<glyph unicode="&#xa4;" d="M237 672q0 -131 75.5 -221.5t196.5 -90.5q119 0 194.5 91t75.5 219q0 129 -78 219t-187 90q-120 0 -198.5 -90t-78.5 -217zM509 263q-140 0 -251 84l-100 -124l-95 93l125 100q-90 108 -90 254q0 151 90 256l-121 95l86 93l108 -119q113 82 248 82q144 0 254 -86l107 128 l91 -96l-128 -102q88 -106 88 -251q0 -138 -86 -249l121 -102l-84 -89l-107 119q-114 -86 -256 -86z" />
<glyph unicode="&#xa5;" d="M109 532q-6 0 -8.5 1.5t-2.5 3.5v10v32q0 18 12 32t39 14h233q-39 72 -185.5 357t-187.5 355q35 -7 119 -7q81 0 116 7q145 -379 292 -635q34 53 64.5 109.5t62 128t51 117.5t58 141.5t56.5 138.5q23 -7 86 -7q60 0 86 7q-172 -302 -385 -712h299q16 0 16 -13v-49 q0 -15 -16.5 -23t-36.5 -8h-280q1 -24 1.5 -72.5t0.5 -73.5h315q16 0 16 -14v-46q0 -15 -16.5 -23t-36.5 -8h-277q5 -199 12 -302q-33 7 -107 7q-72 0 -105 -7q8 79 12 302h-303q-8 0 -9.5 2t-1.5 9v3v31q0 18 12 32t39 14h264q0 25 0.5 74t0.5 72h-305z" />
<glyph unicode="&#xa6;" horiz-adv-x="419" d="M264 1380v-741h-98v741h98zM264 330v-742h-98v742h98z" />
<glyph unicode="&#xa7;" horiz-adv-x="989" d="M302 793q-35 -35 -59 -79.5t-24 -88.5q0 -56 24.5 -105.5t62 -83.5t90 -67.5t101 -57t103 -53.5t87.5 -55q83 83 83 168q0 56 -24.5 105t-62 83t-90.5 67.5t-101 57.5t-102.5 54t-87.5 55zM256 834q-90 96 -90 223q0 51 24 102.5t66 93.5t106 68.5t138 26.5 q47 0 89.5 -11t79.5 -33t57 -37t50 -41q5 -5 8 -7l7 -11l-35 -149l-29 -4q-26 45 -48.5 77t-53.5 65.5t-67.5 51t-76.5 17.5q-73 0 -123.5 -47.5t-50.5 -120.5q0 -135 164 -203q41 -17 75.5 -33t79 -41t79.5 -51t70 -61t59 -73t38.5 -86.5t14.5 -100.5q0 -88 -42.5 -162.5 t-111.5 -125.5q90 -96 90 -222q0 -51 -24 -102.5t-66 -93.5t-106 -68.5t-138 -26.5q-47 0 -89.5 11t-79.5 33t-57 37t-50 41q-5 5 -8 7l-6 10l34 150l29 4q21 -36 38 -62t41.5 -56t48.5 -49t54.5 -31.5t63.5 -12.5q73 0 123.5 47.5t50.5 120.5q0 134 -164 202q-41 17 -76 33 t-79 41t-79 51t-70 61.5t-59 73.5t-38.5 86.5t-14.5 100.5q0 88 42.5 162t111.5 125z" />
<glyph unicode="&#xa8;" horiz-adv-x="776" d="M102 1176q0 40 28.5 69t68.5 29t68 -29t28 -69t-28 -68.5t-68 -28.5t-68.5 28.5t-28.5 68.5zM449 1176q0 40 28 69t68 29t68 -29t28 -69t-28 -68.5t-68 -28.5t-68 28.5t-28 68.5z" />
<glyph unicode="&#xa9;" horiz-adv-x="1296" d="M899 442q-35 -53 -99 -92t-143 -39q-134 0 -226.5 90.5t-92.5 214.5q0 130 95 225t229 95q82 0 132.5 -15.5t69.5 -15.5l29 -160l-41 -8q-29 77 -72.5 114.5t-126.5 37.5q-34 0 -64.5 -11.5t-59.5 -38.5t-46.5 -78.5t-17.5 -123.5q0 -117 55 -191.5t156 -74.5 q113 0 184 102zM649 47q-158 0 -291.5 78.5t-210.5 212t-77 289.5q0 117 46 224t123.5 184.5t184.5 123t225 45.5q157 0 290 -77t210.5 -210t77.5 -290t-77.5 -290.5t-210.5 -211.5t-290 -78zM649 1141q-141 0 -260 -68.5t-187.5 -187t-68.5 -258.5q0 -139 68.5 -257.5 t187.5 -187.5t260 -69q139 0 257.5 68.5t187.5 187t69 258.5t-68.5 258.5t-187 187t-258.5 68.5z" />
<glyph unicode="&#xaa;" horiz-adv-x="608" d="M387 1032l-104 -31q-69 -21 -95 -51t-26 -76q0 -31 24.5 -53t65.5 -22q49 0 113 49q16 13 16 33zM92 1225q80 80 191 80q209 0 209 -207q0 -4 -2.5 -119.5t-2.5 -136.5q0 -39 21 -39q6 0 13.5 3t13 6.5t13 9t9.5 7.5l4 -2l21 -26q-30 -38 -56 -53t-57 -15 q-41 0 -59.5 24.5t-20.5 49.5h-8q-53 -45 -85 -59.5t-83 -14.5q-74 0 -117 34.5t-43 102.5q0 64 56.5 112.5t154.5 72.5l115 26q8 4 8 15q0 50 -11 83t-31.5 46.5t-36.5 17.5t-38 4q-42 0 -74.5 -30t-64.5 -82h-16z" />
<glyph unicode="&#xab;" horiz-adv-x="1112" d="M319 440q128 -144 261 -348q-4 -15 -18.5 -26t-31.5 -13q-221 237 -378 375v25q162 142 378 374q17 -2 31.5 -13t18.5 -26q-133 -204 -261 -348zM688 440q124 -140 260 -348q-4 -15 -18 -26t-31 -13q-217 233 -379 375v25q168 147 379 374q17 -2 31 -13t18 -26 q-136 -208 -260 -348z" />
<glyph unicode="&#xac;" horiz-adv-x="1146" d="M989 272v459h-940v90h1051v-549h-111z" />
<glyph unicode="&#xad;" horiz-adv-x="681" d="M561 483h-463q-13 0 -21.5 10.5t-8.5 24.5q0 25 16.5 50.5t34.5 25.5h469q28 0 28 -37q0 -19 -18 -46.5t-37 -27.5z" />
<glyph unicode="&#xae;" horiz-adv-x="1296" d="M883 758q0 -57 -34 -96.5t-85 -55.5l98 -168q31 -53 88 -43l8 -35q-35 -14 -73 -14q-82 0 -125 72l-98 164q-11 8 -76 8v-148q0 -40 24 -43l29 -4q22 -6 23 -12v-33l-5 -4q-83 4 -120 4l-125 -4l-4 4v35q0 7 16 9q3 1 4 1l35 4q26 3 26 43v369q0 25 -13.5 38t-33.5 13 h-22q-17 0 -17 10v35l5 4h278q55 0 95.5 -15t61.5 -39t30.5 -49t9.5 -50zM770 758q0 104 -102 104q-82 0 -82 -51v-172h65q55 0 87 24t32 95zM649 47q-158 0 -291.5 78.5t-210.5 212t-77 289.5q0 117 46 224t123.5 184.5t184.5 123t225 45.5q157 0 290 -77t210.5 -210 t77.5 -290t-77.5 -290.5t-210.5 -211.5t-290 -78zM649 1141q-141 0 -260 -68.5t-187.5 -187t-68.5 -258.5q0 -139 68.5 -257.5t187.5 -187.5t260 -69q139 0 257.5 68.5t187.5 187t69 258.5t-68.5 258.5t-187 187t-258.5 68.5z" />
<glyph unicode="&#xaf;" horiz-adv-x="813" d="M645 1083h-500q-24 0 -24 31q0 20 13.5 40t31.5 20h500q14 0 21 -9t7 -20q0 -20 -15 -41t-34 -21z" />
<glyph unicode="&#xb0;" horiz-adv-x="546" d="M410 1073q0 57 -36 103.5t-100 46.5q-63 0 -100 -45t-37 -105q0 -57 37.5 -100t99.5 -43q60 0 98 43.5t38 99.5zM70 1075q0 86 59.5 145.5t144.5 59.5t144 -59.5t59 -145.5q0 -85 -59 -144t-144 -59t-144.5 59t-59.5 144z" />
<glyph unicode="&#xb1;" horiz-adv-x="1079" d="M592 700h352v-100h-352v-356h-105v356h-352v100h352v357h105v-357zM944 139v-100h-809v100h809z" />
<glyph unicode="&#xb2;" horiz-adv-x="636" d="M377 1241q0 40 -28.5 75.5t-65.5 35.5q-87 0 -138 -92h-26l-23 86q65 65 195 65q102 0 167.5 -43.5t65.5 -128.5q0 -84 -106 -184l-109 -107q-71 -71 -71 -94h88q68 0 202 10q-6 -28 -6 -71q0 -23 6 -52q-96 4 -188 4q-81 0 -260 -4l-2 4q0 72 149 224l82 80 q68 70 68 192z" />
<glyph unicode="&#xb3;" horiz-adv-x="641" d="M276 791q58 0 88.5 40.5t30.5 106.5q0 127 -121 127q-25 0 -41 -2v51q150 6 150 139q0 40 -22 70.5t-56 30.5q-56 0 -82 -21.5t-55 -75.5h-27l-22 86l2 7q68 59 192 59q87 0 142 -34t55 -105q0 -133 -129 -166v-4q71 -6 116.5 -48t45.5 -110q0 -100 -76 -154.5 t-193 -54.5q-114 0 -180 66l25 86l24 2q32 -56 50 -72q28 -24 83 -24z" />
<glyph unicode="&#xb4;" horiz-adv-x="698" d="M358 1440q12 4 29 4q64 0 113 -47l6 -23l-236 -223q-39 -39 -61 -39q-11 0 -20 8.5t-9 18.5q0 4 0.5 8t1 6.5t2 6.5t2 6t3.5 7t4 6.5t5.5 8t5.5 8.5z" />
<glyph unicode="&#xb5;" horiz-adv-x="995" d="M207 -479q-32 0 -71.5 38.5t-39.5 94.5q0 49 16.5 155.5t16.5 174.5q0 28 -9 126t-9 164v385q0 25 -5.5 80t-10.5 97l-5 43q27 0 90 9t78 11q6 -131 6 -197v-401q0 -229 142 -229q80 0 151 38.5t107 92.5v676q29 0 85.5 9.5t67.5 10.5v-645q0 -60 1 -84.5t5.5 -51 t15.5 -34.5t31 -8q19 0 35.5 21t34.5 65l49 -23q-32 -84 -71.5 -121.5t-114.5 -37.5q-58 0 -98.5 41.5t-40.5 101.5q-130 -143 -297 -143q-34 0 -67 13.5t-50 33.5q-9 0 -17 -6t-8 -13q0 -72 33 -199t33 -165q0 -60 -23.5 -91.5t-60.5 -31.5z" />
<glyph unicode="&#xb6;" horiz-adv-x="1232" d="M752 1176v-1506q0 -39 22.5 -58.5t59.5 -19.5q84 0 84 78v1506q0 44 -22 60.5t-62 16.5q-82 0 -82 -77zM836 1321l202 6l2 -6q-20 -136 -20 -410v-977q0 -263 20 -409l-4 -6q-132 6 -202 6l-201 -6l-4 6q20 146 20 409v650q-27 -6 -65 -6q-227 0 -347 102t-120 305 q0 63 23.5 122t69 108.5t122.5 79.5t174 30q89 0 202 -2t128 -2z" />
<glyph unicode="&#xb7;" horiz-adv-x="512" d="M141 514v8q14 41 39.5 67t71.5 44h8q45 -17 71 -42.5t40 -68.5v-8q-16 -49 -41.5 -74.5t-69.5 -36.5h-8q-48 11 -73 35.5t-38 75.5z" />
<glyph unicode="&#xb8;" horiz-adv-x="1107" d="M618 -197q-52 0 -92 -12l-12 12l82 197h70l-52 -137q24 6 54 6q63 0 104 -35t41 -92q0 -66 -62.5 -109t-156.5 -43q-74 0 -152 35q0 32 21 53q77 -28 119 -28q47 0 75.5 21.5t28.5 60.5q0 71 -68 71z" />
<glyph unicode="&#xb9;" horiz-adv-x="786" d="M498 950q0 -125 14 -205l-2 -4q-33 4 -78 4q-43 0 -74 -4v4q13 80 13 205v267q0 69 -21 69q-72 0 -119 -6l-2 47q76 19 275 82q6 0 6 -6q-12 -84 -12 -176v-277z" />
<glyph unicode="&#xba;" horiz-adv-x="714" d="M80 879q0 131 75 205.5t207 74.5q73 0 127.5 -22t86 -61t46.5 -85t15 -100q0 -113 -74 -191.5t-211 -78.5q-115 0 -193.5 74t-78.5 184zM350 1108q-73 0 -112 -60t-39 -149q0 -85 45.5 -153t130.5 -68q23 0 46 8t46.5 26.5t38 56t14.5 89.5q0 120 -46 185t-124 65z" />
<glyph unicode="&#xbb;" horiz-adv-x="1112" d="M793 440q-128 144 -261 348q4 15 18.5 26t31.5 13q211 -227 379 -374v-25q-162 -142 -379 -375q-17 2 -31.5 13t-18.5 26q133 204 261 348zM424 440q-124 140 -260 348q4 15 18 26t31 13q211 -227 379 -374v-25q-162 -142 -379 -375q-17 2 -31 13t-18 26q136 208 260 348 z" />
<glyph unicode="&#xbc;" horiz-adv-x="1351" d="M1141 1231l84 -17l-938 -1341l-86 16zM1255 66q0 -13 -10 -31.5t-20 -18.5h-62q0 -76 11 -159l-3 -4q-31 4 -73 4q-45 0 -76 -4v4q12 91 12 159h-221q-59 0 -61 15q0 35 12 51q120 162 280 428v4q11 -4 54 -4q42 0 73 4l3 -4q-11 -86 -11 -162v-260h78q14 0 14 -22z M836 88h198v313zM492 850q0 -125 14 -205l-2 -4q-33 4 -78 4q-43 0 -74 -4v4q13 80 13 205v266q0 70 -21 70q-72 0 -119 -6l-2 47q76 19 275 82q6 0 6 -6q-12 -84 -12 -177v-276z" />
<glyph unicode="&#xbd;" horiz-adv-x="1351" d="M1090 1231l86 -17l-940 -1341l-84 16zM1110 334q0 40 -28.5 75t-65.5 35q-86 0 -137 -92h-27l-23 86q82 66 195 66q102 0 167.5 -43.5t65.5 -128.5t-106 -185l-109 -106q-71 -71 -71 -94h88q69 0 203 10q-7 -33 -7 -72q0 -18 7 -51q-96 4 -189 4q-81 0 -260 -4l-2 4 q0 70 150 223l81 80q68 70 68 193zM496 850q0 -125 14 -205l-2 -4q-33 4 -78 4q-43 0 -74 -4v4q13 80 13 205v266q0 70 -21 70q-72 0 -119 -6l-2 47q76 19 275 82q6 0 6 -6q-12 -84 -12 -177v-276z" />
<glyph unicode="&#xbe;" horiz-adv-x="1351" d="M1151 1231l84 -17l-938 -1341l-86 16zM272 686q58 0 88.5 41t30.5 107q0 127 -121 127q-17 0 -41 -3v52q150 6 150 139q0 26 -9.5 48.5t-27.5 37t-41 14.5q-30 0 -51 -5.5t-36.5 -20t-25 -28.5t-24.5 -42h-27l-22 86l2 6q69 60 192 60q87 0 142 -34.5t55 -105.5 q0 -133 -129 -166v-4q45 -4 81.5 -23.5t58.5 -54t22 -79.5q0 -100 -76 -154.5t-193 -54.5q-115 0 -180 65l25 86l24 2q3 -5 8 -14q15 -26 22.5 -37t22 -24t33 -17t47.5 -4zM1264 70q0 -13 -11 -31.5t-20 -18.5h-62q0 -76 11 -159l-2 -4q-31 4 -74 4q-45 0 -76 -4v4 q12 91 12 159h-221q-59 0 -61 15q0 35 12 51q126 169 281 428v4q11 -4 53 -4q43 0 74 4l2 -4q-11 -86 -11 -162v-260h78q15 0 15 -22zM844 92h198v314z" />
<glyph unicode="&#xbf;" horiz-adv-x="829" d="M432 -389q141 0 252 192l27 -2l32 -137l-6 -8q-55 -46 -140.5 -86.5t-182.5 -40.5q-156 0 -247 84.5t-91 224.5q0 47 14.5 90t33 72.5t52.5 63t56.5 51t60.5 45.5q87 65 106 102q37 70 37 150v90q0 20 27 20q26 0 26 -20v-94q0 -43 -3 -73.5t-15 -77t-42 -91.5t-77 -88 q-65 -61 -94 -112t-29 -120q0 -100 58 -167.5t145 -67.5zM578 788v-8q-14 -41 -39.5 -66t-71.5 -44h-8q-45 17 -71 42t-40 68v8q16 49 41.5 74.5t69.5 36.5h8q48 -11 73 -35.5t38 -75.5z" />
<glyph unicode="&#xc0;" horiz-adv-x="1288" d="M524 1675l248 -172q31 -22 31 -43q0 -12 -9.5 -21t-21.5 -9q-31 0 -88 24l-315 129q62 60 155 92zM834 564q-97 253 -207 505h-4l-216 -504q135 -6 214 -6q100 0 213 5zM367 468q-124 -305 -170 -474q-25 6 -93 6q-46 0 -71 -6q338 741 604 1354h57q69 -165 197.5 -483.5 t223.5 -549t140 -321.5q-35 6 -122 6q-68 0 -103 -6q-45 168 -159 474q-83 5 -240 5q-179 0 -264 -5z" />
<glyph unicode="&#xc1;" horiz-adv-x="1288" d="M752 1679q88 -40 127 -106l-295 -119q-57 -24 -86 -24q-13 0 -22 9t-9 21q0 22 31 43zM834 564q-97 253 -207 505h-4l-216 -504q135 -6 214 -6q100 0 213 5zM367 468q-124 -305 -170 -474q-25 6 -93 6q-46 0 -71 -6q338 741 604 1354h57q69 -165 197.5 -483.5t223.5 -549 t140 -321.5q-35 6 -122 6q-68 0 -103 -6q-45 168 -159 474q-83 5 -240 5q-179 0 -264 -5z" />
<glyph unicode="&#xc2;" horiz-adv-x="1288" d="M709 1649q85 -103 206 -193l-32 -43q-124 58 -217 127q-103 -74 -220 -127l-28 43q90 68 203 193h88zM834 564q-97 253 -207 505h-4l-216 -504q135 -6 214 -6q100 0 213 5zM367 468q-124 -305 -170 -474q-25 6 -93 6q-46 0 -71 -6q338 741 604 1354h57 q69 -165 197.5 -483.5t223.5 -549t140 -321.5q-35 6 -122 6q-68 0 -103 -6q-45 168 -159 474q-83 5 -240 5q-179 0 -264 -5z" />
<glyph unicode="&#xc3;" horiz-adv-x="1288" d="M807 1524q36 0 58.5 22t43.5 84l49 -12q-37 -184 -178 -184q-52 0 -131 53q-72 45 -110 45q-39 0 -62.5 -23t-38.5 -75l-49 10q22 93 60.5 137.5t103.5 44.5q66 0 147 -57q59 -45 107 -45zM834 564q-97 253 -207 505h-4l-216 -504q135 -6 214 -6q100 0 213 5zM367 468 q-124 -305 -170 -474q-25 6 -93 6q-46 0 -71 -6q338 741 604 1354h57q69 -165 197.5 -483.5t223.5 -549t140 -321.5q-35 6 -122 6q-68 0 -103 -6q-45 168 -159 474q-83 5 -240 5q-179 0 -264 -5z" />
<glyph unicode="&#xc4;" horiz-adv-x="1288" d="M293 1452q0 38 28 65t66 27t65 -27t27 -65t-27 -65t-65 -27t-66 27t-28 65zM856 1452q0 38 28 65t66 27t65 -27t27 -65t-27 -65t-65 -27t-66 27t-28 65zM834 564q-97 253 -207 505h-4l-216 -504q135 -6 214 -6q100 0 213 5zM367 468q-124 -305 -170 -474q-25 6 -93 6 q-46 0 -71 -6q338 741 604 1354h57q69 -165 197.5 -483.5t223.5 -549t140 -321.5q-35 6 -122 6q-68 0 -103 -6q-45 168 -159 474q-83 5 -240 5q-179 0 -264 -5z" />
<glyph unicode="&#xc5;" horiz-adv-x="1288" d="M664 1577q-46 0 -74.5 -34t-28.5 -81q0 -45 29 -79.5t74 -34.5t73.5 34.5t28.5 79.5q0 48 -28.5 81.5t-73.5 33.5zM485 1462q0 70 54 120t125 50q72 0 125 -49.5t53 -120.5q0 -57 -36 -102t-92 -61q66 -159 192 -471t215.5 -529t133.5 -305q-35 6 -122 6q-68 0 -103 -6 q-45 168 -159 474q-83 5 -240 5q-179 0 -264 -5q-124 -305 -170 -474q-25 6 -93 6q-46 0 -71 -6q341 747 583 1305q-56 15 -93.5 60.5t-37.5 102.5zM834 564q-97 253 -207 505h-4l-216 -504q135 -6 214 -6q100 0 213 5z" />
<glyph unicode="&#xc6;" horiz-adv-x="1642" d="M455 570q-171 -357 -254 -576q-25 6 -92 6q-47 0 -72 -6q43 82 196 384.5t268 514t249 429.5l4 5q34 -6 104 -6h436q74 0 123 6l4 -6q-4 -58 -4 -64q0 -21 4 -53l-4 -8q-159 21 -375 21q-116 0 -148.5 -19t-24.5 -81q40 -196 95 -435q223 0 459 20l7 -6q-7 -31 -7 -57 q0 -25 7 -57l-7 -7q-181 19 -439 21q67 -285 121 -482l435 21l4 -8q-4 -32 -4 -68q0 -1 4 -59l-4 -6q-49 6 -123 6h-393q-67 0 -102 -6q0 98 -91 578q-45 1 -135 1q-127 0 -241 -3zM813 665q-9 45 -37 190.5t-46 237.5h-4q-103 -182 -224 -426q183 -3 184 -3q82 0 127 1z " />
<glyph unicode="&#xc7;" horiz-adv-x="1386" d="M752 -205q-53 0 -93 -12l-12 12l77 185q-124 4 -226.5 41t-174 98.5t-121 145t-73 179t-23.5 201.5q0 147 56.5 279t149.5 224t215 146t251 54q111 0 223 -26t168 -52l56 -25l4 -6q-18 -68 -25 -109.5t-12 -117.5l-25 -2q-121 241 -417 241q-53 0 -109.5 -18.5t-115 -62 t-104.5 -106.5t-75 -162t-29 -218q0 -159 57.5 -296t162 -220.5t231.5 -83.5q144 0 248 47.5t211 165.5l14 -6q11 -27 13 -87q-172 -208 -459 -223l-47 -126q24 6 53 6q63 0 104 -35t41 -92q0 -66 -62.5 -109t-156.5 -43q-74 0 -152 35q0 32 21 53q77 -28 119 -28 q47 0 75.5 21.5t28.5 60.5q0 71 -67 71z" />
<glyph unicode="&#xc8;" horiz-adv-x="1101" d="M389 410q0 -236 17 -295q122 0 266 6t228 12l83 6l4 -8q-4 -32 -4 -68q0 -5 4 -63l-4 -6q-49 6 -123 6h-559q-32 0 -58.5 -1.5t-36.5 -2.5l-11 -2l-2 6q20 139 20 410v501q0 264 -20 410l4 6q34 -6 104 -6h539q74 0 123 6l4 -6q-4 -58 -4 -78q0 -21 4 -53l-4 -8 q-284 24 -557 24q-17 -60 -17 -295v-159q215 0 457 20l6 -6q-6 -27 -6 -66q0 -38 6 -65l-6 -6q-201 20 -457 20v-239zM502 1673l248 -172q30 -21 30 -43q0 -12 -9 -21.5t-21 -9.5q-28 0 -88 25l-316 129q61 59 156 92z" />
<glyph unicode="&#xc9;" horiz-adv-x="1101" d="M389 410q0 -236 17 -295q122 0 266 6t228 12l83 6l4 -8q-4 -32 -4 -68q0 -5 4 -63l-4 -6q-49 6 -123 6h-559q-32 0 -58.5 -1.5t-36.5 -2.5l-11 -2l-2 6q20 139 20 410v501q0 264 -20 410l4 6q34 -6 104 -6h539q74 0 123 6l4 -6q-4 -58 -4 -78q0 -21 4 -53l-4 -8 q-284 24 -557 24q-17 -60 -17 -295v-159q215 0 457 20l6 -6q-6 -27 -6 -66q0 -38 6 -65l-6 -6q-201 20 -457 20v-239zM717 1679q88 -40 127 -106l-295 -119q-57 -24 -86 -24q-13 0 -22 9t-9 21q0 22 31 43z" />
<glyph unicode="&#xca;" horiz-adv-x="1101" d="M649 1649q83 -101 207 -193l-33 -43q-124 58 -217 127q-104 -76 -219 -127l-29 43q90 68 203 193h88zM389 410q0 -236 17 -295q122 0 266 6t228 12l83 6l4 -8q-4 -32 -4 -68q0 -5 4 -63l-4 -6q-49 6 -123 6h-559q-32 0 -58.5 -1.5t-36.5 -2.5l-11 -2l-2 6q20 139 20 410 v501q0 264 -20 410l4 6q34 -6 104 -6h539q74 0 123 6l4 -6q-4 -58 -4 -78q0 -21 4 -53l-4 -8q-284 24 -557 24q-17 -60 -17 -295v-159q215 0 457 20l6 -6q-6 -27 -6 -66q0 -38 6 -65l-6 -6q-201 20 -457 20v-239z" />
<glyph unicode="&#xcb;" horiz-adv-x="1101" d="M684 1538q0 40 29 69t69 29t69.5 -29t29.5 -69t-29.5 -69t-69.5 -29t-69 29t-29 69zM297 1538q0 40 29 69t69 29t69.5 -29t29.5 -69t-29.5 -69t-69.5 -29t-69 29t-29 69zM389 410q0 -236 17 -295q122 0 266 6t228 12l83 6l4 -8q-4 -32 -4 -68q0 -5 4 -63l-4 -6 q-49 6 -123 6h-559q-32 0 -58.5 -1.5t-36.5 -2.5l-11 -2l-2 6q20 139 20 410v501q0 264 -20 410l4 6q34 -6 104 -6h539q74 0 123 6l4 -6q-4 -58 -4 -78q0 -21 4 -53l-4 -8q-284 24 -557 24q-17 -60 -17 -295v-159q215 0 457 20l6 -6q-6 -27 -6 -66q0 -38 6 -65l-6 -6 q-201 20 -457 20v-239z" />
<glyph unicode="&#xcc;" horiz-adv-x="602" d="M213 911q0 264 -20 410l4 6q37 -6 104 -6q68 0 105 6l4 -6q-21 -143 -21 -410v-501q0 -256 21 -410l-4 -6q-37 6 -105 6q-67 0 -104 -6l-4 6q20 139 20 410v501zM203 1673l248 -172q30 -21 30 -43q0 -12 -9 -21.5t-21 -9.5q-29 0 -89 25l-315 129q61 59 156 92z" />
<glyph unicode="&#xcd;" horiz-adv-x="602" d="M213 911q0 264 -20 410l4 6q37 -6 104 -6q68 0 105 6l4 -6q-21 -143 -21 -410v-501q0 -256 21 -410l-4 -6q-37 6 -105 6q-67 0 -104 -6l-4 6q20 139 20 410v501zM430 1677q88 -40 127 -106l-295 -119q-60 -25 -86 -25q-13 0 -22 9.5t-9 21.5q0 22 31 43z" />
<glyph unicode="&#xce;" horiz-adv-x="602" d="M342 1649q83 -101 207 -193l-33 -43q-124 58 -217 127q-104 -76 -219 -127l-29 43q90 68 203 193h88zM213 911q0 264 -20 410l4 6q37 -6 104 -6q68 0 105 6l4 -6q-21 -143 -21 -410v-501q0 -256 21 -410l-4 -6q-37 6 -105 6q-67 0 -104 -6l-4 6q20 139 20 410v501z" />
<glyph unicode="&#xcf;" horiz-adv-x="602" d="M414 1536q0 40 29 69t69 29t69 -29t29 -69t-29 -69t-69 -29t-69 29t-29 69zM27 1536q0 40 29 69t69 29t69 -29t29 -69t-29 -69t-69 -29t-69 29t-29 69zM213 911q0 264 -20 410l4 6q37 -6 104 -6q68 0 105 6l4 -6q-21 -143 -21 -410v-501q0 -256 21 -410l-4 -6 q-37 6 -105 6q-67 0 -104 -6l-4 6q20 139 20 410v501z" />
<glyph unicode="&#xd0;" horiz-adv-x="1454" d="M389 168q0 -36 14 -51.5t60.5 -23t148.5 -7.5q66 0 120.5 5.5t109.5 20.5t98 39t81 62t63 89.5t39 122t14 157.5q0 100 -17 190t-59 176.5t-106 149t-165 101t-229 38.5q-42 0 -70 -3t-53 -11t-37 -25t-12 -43v-487h201v-80h-201v-420zM301 1321q65 0 169 3t169 3 q145 0 276.5 -55.5t226 -149t150.5 -222.5t56 -269q0 -105 -22.5 -193.5t-60 -153t-91 -115t-112.5 -82.5t-126.5 -53t-131 -29.5t-128.5 -8.5q-114 0 -212.5 2t-162.5 2q-32 0 -58.5 -1.5t-36.5 -2.5l-11 -2l-2 6q20 139 20 410v178h-178v80h178v243q0 264 -20 410l4 6 q34 -6 104 -6z" />
<glyph unicode="&#xd1;" horiz-adv-x="1470" d="M854 1520q36 0 58.5 22t43.5 84l50 -12q-37 -184 -179 -184q-52 0 -131 53q-72 45 -110 45q-39 0 -62.5 -23t-38.5 -75l-49 10q22 93 60.5 137.5t103.5 44.5q67 0 148 -57q59 -45 106 -45zM221 1321l4 6q16 -6 86 -6l29 4l702 -909q72 -93 86 -105q25 -22 32 14 q2 14 3 40v546q0 264 -20 410l4 6q37 -6 72 -6q33 0 71 6l4 -6q-12 -160 -19 -335.5t-10 -290t-6.5 -329.5t-5.5 -323q-3 -63 -39 -63q-52 0 -88 49l-714 903q-21 27 -32.5 41t-21.5 21t-14.5 5.5t-7.5 -15.5t-3.5 -32t-0.5 -53v-489q0 -264 20 -410l-4 -6q-38 6 -72 6 t-71 -6l-4 6q24 236 29 636.5t-9 684.5z" />
<glyph unicode="&#xd2;" horiz-adv-x="1517" d="M727 1257q-61 0 -118.5 -19.5t-111 -64t-93 -110.5t-63.5 -167t-24 -226q0 -143 40 -259t108 -189t153 -112.5t179 -39.5q180 0 291.5 148.5t111.5 416.5q0 311 -125 466.5t-348 155.5zM1411 674q0 -203 -81.5 -361t-231 -245.5t-342.5 -87.5q-177 0 -324 78.5 t-236.5 229.5t-89.5 347q0 198 85 361.5t233.5 257.5t329.5 94q184 0 333 -83t236.5 -237.5t87.5 -353.5zM623 1677l247 -172q31 -22 31 -43q0 -12 -9.5 -21t-21.5 -9q-31 0 -88 24l-315 129q61 59 156 92z" />
<glyph unicode="&#xd3;" horiz-adv-x="1517" d="M727 1257q-61 0 -118.5 -19.5t-111 -64t-93 -110.5t-63.5 -167t-24 -226q0 -143 40 -259t108 -189t153 -112.5t179 -39.5q180 0 291.5 148.5t111.5 416.5q0 311 -125 466.5t-348 155.5zM1411 674q0 -203 -81.5 -361t-231 -245.5t-342.5 -87.5q-177 0 -324 78.5 t-236.5 229.5t-89.5 347q0 198 85 361.5t233.5 257.5t329.5 94q184 0 333 -83t236.5 -237.5t87.5 -353.5zM793 1679q88 -40 127 -106l-295 -119q-57 -24 -86 -24q-13 0 -22 9t-9 21q0 22 31 43z" />
<glyph unicode="&#xd4;" horiz-adv-x="1517" d="M795 1649q85 -103 206 -193l-32 -43q-124 58 -217 127q-103 -74 -220 -127l-28 43q90 68 203 193h88zM727 1257q-61 0 -118.5 -19.5t-111 -64t-93 -110.5t-63.5 -167t-24 -226q0 -143 40 -259t108 -189t153 -112.5t179 -39.5q180 0 291.5 148.5t111.5 416.5 q0 311 -125 466.5t-348 155.5zM1411 674q0 -203 -81.5 -361t-231 -245.5t-342.5 -87.5q-177 0 -324 78.5t-236.5 229.5t-89.5 347q0 198 85 361.5t233.5 257.5t329.5 94q184 0 333 -83t236.5 -237.5t87.5 -353.5z" />
<glyph unicode="&#xd5;" horiz-adv-x="1517" d="M870 1520q36 0 59 22t44 84l49 -12q-37 -184 -178 -184q-52 0 -131 53q-72 45 -111 45t-62 -23t-38 -75l-49 10q22 93 60.5 137.5t102.5 44.5q67 0 148 -57q59 -45 106 -45zM727 1257q-61 0 -118.5 -19.5t-111 -64t-93 -110.5t-63.5 -167t-24 -226q0 -143 40 -259 t108 -189t153 -112.5t179 -39.5q180 0 291.5 148.5t111.5 416.5q0 311 -125 466.5t-348 155.5zM1411 674q0 -203 -81.5 -361t-231 -245.5t-342.5 -87.5q-177 0 -324 78.5t-236.5 229.5t-89.5 347q0 198 85 361.5t233.5 257.5t329.5 94q184 0 333 -83t236.5 -237.5 t87.5 -353.5z" />
<glyph unicode="&#xd6;" horiz-adv-x="1517" d="M193 1452q0 38 28 65t66 27t65 -27t27 -65t-27 -65t-65 -27t-66 27t-28 65zM1141 1452q0 38 27 65t65 27t65 -27t27 -65t-27 -65t-65 -27t-65 27t-27 65zM727 1257q-61 0 -118.5 -19.5t-111 -64t-93 -110.5t-63.5 -167t-24 -226q0 -143 40 -259t108 -189t153 -112.5 t179 -39.5q180 0 291.5 148.5t111.5 416.5q0 311 -125 466.5t-348 155.5zM1411 674q0 -203 -81.5 -361t-231 -245.5t-342.5 -87.5q-177 0 -324 78.5t-236.5 229.5t-89.5 347q0 198 85 361.5t233.5 257.5t329.5 94q184 0 333 -83t236.5 -237.5t87.5 -353.5z" />
<glyph unicode="&#xd7;" horiz-adv-x="1079" d="M610 471l252 -250l-71 -71l-250 249l-250 -249l-74 71l252 250l-252 252l74 72l250 -252l250 252l71 -72z" />
<glyph unicode="&#xd8;" horiz-adv-x="1517" d="M221 -27q-28 0 -48.5 20.5t-25.5 45.5l121 149q-162 180 -162 447q0 198 85 361.5t233.5 257.5t329.5 94q207 0 370 -107l86 107q28 0 49 -19t25 -43l-84 -104q100 -91 155.5 -221t55.5 -287q0 -203 -81.5 -361t-231 -245.5t-342.5 -87.5q-242 0 -416 140zM727 1257 q-61 0 -118.5 -19.5t-111 -64t-93 -110.5t-63.5 -167t-24 -226q0 -192 72 -334l653 804q-118 117 -315 117zM1103 1062l-659 -814q67 -87 159 -132.5t194 -45.5q180 0 291.5 148.5t111.5 416.5q0 271 -97 427z" />
<glyph unicode="&#xd9;" horiz-adv-x="1417" d="M1114 911q0 264 -20 410l4 6q38 -6 71 -6q35 0 72 6l4 -6q-20 -136 -20 -410v-307q0 -115 -15 -206t-52.5 -171t-97.5 -133t-153.5 -83.5t-216.5 -30.5q-62 0 -121 11.5t-125.5 45.5t-116 87.5t-82 146t-32.5 212.5v428q0 264 -20 410l4 6q37 -6 104 -6q68 0 105 6l4 -6 q-21 -143 -21 -410v-360q0 -28 0.5 -45.5t3.5 -56t8.5 -66.5t17.5 -67.5t28.5 -68t43.5 -59t60 -50t79.5 -32t102.5 -12.5q72 0 130 14.5t97 38.5t68 61.5t45 75.5t25.5 89.5t12.5 95t3 98.5v344zM688 1675l248 -172q31 -22 31 -43q0 -12 -9.5 -21t-21.5 -9q-31 0 -88 24 l-316 129q61 59 156 92z" />
<glyph unicode="&#xda;" horiz-adv-x="1417" d="M1114 911q0 264 -20 410l4 6q38 -6 71 -6q35 0 72 6l4 -6q-20 -136 -20 -410v-307q0 -115 -15 -206t-52.5 -171t-97.5 -133t-153.5 -83.5t-216.5 -30.5q-62 0 -121 11.5t-125.5 45.5t-116 87.5t-82 146t-32.5 212.5v428q0 264 -20 410l4 6q37 -6 104 -6q68 0 105 6l4 -6 q-21 -143 -21 -410v-360q0 -28 0.5 -45.5t3.5 -56t8.5 -66.5t17.5 -67.5t28.5 -68t43.5 -59t60 -50t79.5 -32t102.5 -12.5q72 0 130 14.5t97 38.5t68 61.5t45 75.5t25.5 89.5t12.5 95t3 98.5v344zM870 1677q88 -40 127 -106l-295 -119q-60 -25 -86 -25q-13 0 -21.5 9.5 t-8.5 21.5q0 23 30 43z" />
<glyph unicode="&#xdb;" horiz-adv-x="1417" d="M1114 911q0 264 -20 410l4 6q38 -6 71 -6q35 0 72 6l4 -6q-20 -136 -20 -410v-307q0 -115 -15 -206t-52.5 -171t-97.5 -133t-153.5 -83.5t-216.5 -30.5q-62 0 -121 11.5t-125.5 45.5t-116 87.5t-82 146t-32.5 212.5v428q0 264 -20 410l4 6q37 -6 104 -6q68 0 105 6l4 -6 q-21 -143 -21 -410v-360q0 -28 0.5 -45.5t3.5 -56t8.5 -66.5t17.5 -67.5t28.5 -68t43.5 -59t60 -50t79.5 -32t102.5 -12.5q72 0 130 14.5t97 38.5t68 61.5t45 75.5t25.5 89.5t12.5 95t3 98.5v344zM819 1649q83 -101 207 -193l-33 -43q-124 58 -217 127q-104 -76 -219 -127 l-29 43q90 68 203 193h88z" />
<glyph unicode="&#xdc;" horiz-adv-x="1417" d="M492 1452q0 38 27 65t65 27t65 -27t27 -65t-27 -65t-65 -27t-65 27t-27 65zM848 1452q0 38 27 65t65 27t65 -27t27 -65t-27 -65t-65 -27t-65 27t-27 65zM1114 911q0 264 -20 410l4 6q38 -6 71 -6q35 0 72 6l4 -6q-20 -136 -20 -410v-307q0 -115 -15 -206t-52.5 -171 t-97.5 -133t-153.5 -83.5t-216.5 -30.5q-62 0 -121 11.5t-125.5 45.5t-116 87.5t-82 146t-32.5 212.5v428q0 264 -20 410l4 6q37 -6 104 -6q68 0 105 6l4 -6q-21 -143 -21 -410v-360q0 -28 0.5 -45.5t3.5 -56t8.5 -66.5t17.5 -67.5t28.5 -68t43.5 -59t60 -50t79.5 -32 t102.5 -12.5q72 0 130 14.5t97 38.5t68 61.5t45 75.5t25.5 89.5t12.5 95t3 98.5v344z" />
<glyph unicode="&#xdd;" horiz-adv-x="1177" d="M682 584q5 -476 14 -590q-38 6 -102 6t-102 -6q14 158 14 569q-63 107 -239 391.5t-234 372.5q52 -6 117 -6q64 0 116 6q50 -97 103.5 -191.5t140 -242t115.5 -197.5q227 355 358 631q37 -6 86 -6q45 0 86 6q-64 -98 -162 -246t-140.5 -213t-91.5 -145.5t-79 -138.5z M737 1679q88 -40 127 -106l-295 -119q-57 -24 -86 -24q-13 0 -21.5 9t-8.5 21q0 23 30 43z" />
<glyph unicode="&#xde;" horiz-adv-x="1116" d="M213 911q0 264 -20 410l4 6q37 -6 104 -6q68 0 105 6l4 -6q-14 -98 -19 -247q53 3 178 3q109 0 193 -25.5t133.5 -64.5t81 -91t42.5 -99t11 -95q0 -49 -15.5 -101t-52.5 -106.5t-91 -97t-139.5 -69.5t-190.5 -27q-106 0 -151 13q3 -196 20 -314l-4 -6q-37 6 -105 6 q-67 0 -104 -6l-4 6q20 139 20 410v501zM389 394q31 -9 141 -9q48 0 88 7.5t80.5 28.5t68 55t45 92t17.5 134q0 291 -262 291q-32 0 -89.5 -6.5t-88.5 -14.5v-578z" />
<glyph unicode="&#xdf;" horiz-adv-x="1116" d="M1022 334q0 -168 -80.5 -261t-234.5 -93q-66 0 -127 20.5t-86 36.5l-2 6q8 14 14 28.5t8.5 24t7.5 31t8 35.5l23 2q19 -35 66 -69t88 -34q64 0 99.5 52.5t35.5 185.5t-79 273t-208 239v27q104 80 144 153t40 185q0 172 -159 172q-52 0 -90 -15.5t-60.5 -52t-36 -69.5 t-19 -95t-6.5 -99.5t-1 -111.5v-495q0 -286 18 -410l-4 -6q-37 6 -96 6q-60 0 -97 -6l-4 6q19 132 19 410v350q0 18 -5.5 23t-19.5 5h-86q-8 0 -12.5 5t-3.5 12l14 53q3 11 12.5 16t34.5 5q45 0 55.5 18t10.5 80q0 97 25.5 176.5t66.5 129.5t94 84.5t105.5 48.5t103.5 14 q76 0 136.5 -21.5t95.5 -56t53 -73t18 -77.5q0 -116 -46.5 -196t-156.5 -164v-4q139 -91 231.5 -220.5t92.5 -283.5z" />
<glyph unicode="&#xe0;" horiz-adv-x="985" d="M401 1374l144 -258q12 -24 12 -49q0 -8 -9.5 -15.5t-21.5 -7.5q-15 0 -59 41l-234 224l5 22q63 47 133 47q14 0 30 -4zM635 461l-174 -47q-114 -31 -158.5 -81t-44.5 -124q0 -50 43 -87.5t109 -37.5q82 0 188 80q29 22 29 53zM635 98h-8q-83 -70 -139 -94t-140 -24 q-119 0 -187.5 55.5t-68.5 165.5q0 104 91 183t249 114l191 43q14 5 14 24q0 66 -14 113.5t-33 71.5t-49 38t-51 16.5t-50 2.5q-67 0 -121 -47t-104 -127l-27 2l-34 137l6 8q37 31 67.5 52t96 44t137.5 23q51 0 95.5 -7.5t90.5 -30t78.5 -58t53 -96t20.5 -140.5 q0 -7 -3 -141t-3 -168q0 -129 34 -160q16 -15 60 -15q25 0 55 11l16 -51q-59 -63 -163 -63q-58 0 -100.5 30t-59.5 88z" />
<glyph unicode="&#xe1;" horiz-adv-x="985" d="M500 1374q12 4 28 4q64 0 113 -47l6 -22l-235 -224q-38 -38 -62 -38q-11 0 -19.5 8t-8.5 18q0 16 4 25.5t19 31.5zM635 461l-174 -47q-114 -31 -158.5 -81t-44.5 -124q0 -50 43 -87.5t109 -37.5q82 0 188 80q29 22 29 53zM635 98h-8q-83 -70 -139 -94t-140 -24 q-119 0 -187.5 55.5t-68.5 165.5q0 104 91 183t249 114l191 43q14 5 14 24q0 66 -14 113.5t-33 71.5t-49 38t-51 16.5t-50 2.5q-67 0 -121 -47t-104 -127l-27 2l-34 137l6 8q37 31 67.5 52t96 44t137.5 23q51 0 95.5 -7.5t90.5 -30t78.5 -58t53 -96t20.5 -140.5 q0 -7 -3 -141t-3 -168q0 -129 34 -160q16 -15 60 -15q25 0 55 11l16 -51q-59 -63 -163 -63q-58 0 -100.5 30t-59.5 88z" />
<glyph unicode="&#xe2;" horiz-adv-x="985" d="M512 1323q67 -109 207 -264l-43 -29q-142 105 -217 184q-92 -95 -219 -184l-41 29q149 165 211 264h102zM635 461l-174 -47q-114 -31 -158.5 -81t-44.5 -124q0 -50 43 -87.5t109 -37.5q82 0 188 80q29 22 29 53zM635 98h-8q-83 -70 -139 -94t-140 -24q-119 0 -187.5 55.5 t-68.5 165.5q0 104 91 183t249 114l191 43q14 5 14 24q0 66 -14 113.5t-33 71.5t-49 38t-51 16.5t-50 2.5q-67 0 -121 -47t-104 -127l-27 2l-34 137l6 8q37 31 67.5 52t96 44t137.5 23q51 0 95.5 -7.5t90.5 -30t78.5 -58t53 -96t20.5 -140.5q0 -7 -3 -141t-3 -168 q0 -129 34 -160q16 -15 60 -15q25 0 55 11l16 -51q-59 -63 -163 -63q-58 0 -100.5 30t-59.5 88z" />
<glyph unicode="&#xe3;" horiz-adv-x="985" d="M580 1167q35 0 58 22.5t44 84.5l49 -12q-38 -185 -178 -185q-52 0 -131 53q-74 46 -111 46q-39 0 -62 -23.5t-38 -75.5l-49 10q22 93 61 138t103 45q65 0 147 -58q59 -45 107 -45zM635 461l-174 -47q-114 -31 -158.5 -81t-44.5 -124q0 -50 43 -87.5t109 -37.5 q82 0 188 80q29 22 29 53zM635 98h-8q-83 -70 -139 -94t-140 -24q-119 0 -187.5 55.5t-68.5 165.5q0 104 91 183t249 114l191 43q14 5 14 24q0 66 -14 113.5t-33 71.5t-49 38t-51 16.5t-50 2.5q-67 0 -121 -47t-104 -127l-27 2l-34 137l6 8q37 31 67.5 52t96 44t137.5 23 q51 0 95.5 -7.5t90.5 -30t78.5 -58t53 -96t20.5 -140.5q0 -7 -3 -141t-3 -168q0 -129 34 -160q16 -15 60 -15q25 0 55 11l16 -51q-59 -63 -163 -63q-58 0 -100.5 30t-59.5 88z" />
<glyph unicode="&#xe4;" horiz-adv-x="985" d="M186 1176q0 40 28.5 69t68.5 29t68 -29t28 -69t-28 -68.5t-68 -28.5t-68.5 28.5t-28.5 68.5zM532 1176q0 40 28.5 69t68.5 29t68 -29t28 -69t-28 -68.5t-68 -28.5t-68.5 28.5t-28.5 68.5zM635 461l-174 -47q-114 -31 -158.5 -81t-44.5 -124q0 -50 43 -87.5t109 -37.5 q82 0 188 80q29 22 29 53zM635 98h-8q-83 -70 -139 -94t-140 -24q-119 0 -187.5 55.5t-68.5 165.5q0 104 91 183t249 114l191 43q14 5 14 24q0 66 -14 113.5t-33 71.5t-49 38t-51 16.5t-50 2.5q-67 0 -121 -47t-104 -127l-27 2l-34 137l6 8q37 31 67.5 52t96 44t137.5 23 q51 0 95.5 -7.5t90.5 -30t78.5 -58t53 -96t20.5 -140.5q0 -7 -3 -141t-3 -168q0 -129 34 -160q16 -15 60 -15q25 0 55 11l16 -51q-59 -63 -163 -63q-58 0 -100.5 30t-59.5 88z" />
<glyph unicode="&#xe5;" horiz-adv-x="985" d="M430 1307q-46 0 -74 -33.5t-28 -81.5q0 -45 28.5 -80t73.5 -35t73.5 35t28.5 80q0 48 -28.5 81.5t-73.5 33.5zM252 1192q0 70 53.5 120t124.5 50q72 0 125 -49.5t53 -120.5q0 -69 -52.5 -119.5t-125.5 -50.5q-71 0 -124.5 50t-53.5 120zM635 461l-174 -47 q-114 -31 -158.5 -81t-44.5 -124q0 -50 43 -87.5t109 -37.5q82 0 188 80q29 22 29 53zM635 98h-8q-83 -70 -139 -94t-140 -24q-119 0 -187.5 55.5t-68.5 165.5q0 104 91 183t249 114l191 43q14 5 14 24q0 66 -14 113.5t-33 71.5t-49 38t-51 16.5t-50 2.5q-67 0 -121 -47 t-104 -127l-27 2l-34 137l6 8q37 31 67.5 52t96 44t137.5 23q51 0 95.5 -7.5t90.5 -30t78.5 -58t53 -96t20.5 -140.5q0 -7 -3 -141t-3 -168q0 -129 34 -160q16 -15 60 -15q25 0 55 11l16 -51q-59 -63 -163 -63q-58 0 -100.5 30t-59.5 88z" />
<glyph unicode="&#xe6;" horiz-adv-x="1406" d="M606 440q-191 -18 -274.5 -77.5t-83.5 -145.5q0 -135 145 -135q59 0 114.5 33t76.5 90q22 63 22 235zM768 528q53 3 111 4t91.5 1t68.5 1.5t52.5 6t33 15t21 27.5t5.5 44q0 59 -41.5 119.5t-108.5 60.5q-97 0 -159 -74.5t-74 -204.5zM414 807q-64 0 -126 -53t-106 -129 l-26 2l-33 137l6 8q151 127 303 127q28 0 56 -3.5t72.5 -16t85.5 -44t67 -79.5q51 69 127 106t164 37q66 0 122 -21t91.5 -52.5t60 -69t35 -69t10.5 -54.5q0 -103 -53 -148q-26 -14 -74 -21t-98 -8t-149.5 -3.5t-182.5 -6.5q0 -163 69 -259.5t185 -96.5q134 0 252 139 l41 -57q-45 -84 -133.5 -138t-188.5 -54q-53 0 -98.5 11t-73 23t-56 36t-38.5 35.5t-29 35.5q-147 -141 -307 -141q-157 0 -233 59.5t-76 167.5q0 130 135 213.5t391 101.5q-2 151 -43 218t-149 67z" />
<glyph unicode="&#xe7;" horiz-adv-x="878" d="M477 -193q-52 0 -92 -12l-12 12l72 175q-169 15 -268 139.5t-99 324.5q0 101 38 188t100 144t140 89t158 32q75 0 149.5 -16t122.5 -41l5 -6l-48 -168l-26 -2q-88 151 -205 151q-106 0 -180 -98.5t-74 -261.5q0 -175 75 -275t191 -100q62 0 113 18.5t106 67.5h9l39 -43 q-106 -136 -276 -145l-42 -113q24 6 53 6q63 0 104.5 -35t41.5 -92q0 -66 -62.5 -109t-156.5 -43q-74 0 -152 35q0 33 21 54q72 -26 101 -28q8 -1 17 -1q47 0 76 21.5t29 60.5q0 71 -68 71z" />
<glyph unicode="&#xe8;" horiz-adv-x="927" d="M430 1374l143 -258q13 -26 13 -49q0 -8 -9.5 -15.5t-21.5 -7.5q-15 0 -59 41l-234 224l4 22q63 47 133 47q15 0 31 -4zM256 559h377q29 0 29 29q0 108 -53 168.5t-120 60.5q-22 0 -46 -6t-54 -23.5t-55 -45t-46.5 -75t-31.5 -108.5zM803 213l41 -51q-60 -82 -155 -132 t-202 -50q-103 0 -187.5 35.5t-137.5 99.5q-92 109 -92 313q0 109 35.5 200t95 149t134 90t154.5 32q78 0 140.5 -24t101.5 -62.5t65.5 -90t37 -103.5t10.5 -107q0 -35 -37 -35h-557q0 -181 49 -260q38 -62 99.5 -89.5t123.5 -27.5q177 0 281 113z" />
<glyph unicode="&#xe9;" horiz-adv-x="927" d="M553 1374q12 4 29 4q63 0 112 -47l6 -22l-235 -224q-38 -38 -62 -38q-11 0 -19.5 8t-8.5 18q0 16 4 25.5t19 31.5zM256 559h377q29 0 29 29q0 108 -53 168.5t-120 60.5q-22 0 -46 -6t-54 -23.5t-55 -45t-46.5 -75t-31.5 -108.5zM803 213l41 -51q-60 -82 -155 -132 t-202 -50q-103 0 -187.5 35.5t-137.5 99.5q-92 109 -92 313q0 109 35.5 200t95 149t134 90t154.5 32q78 0 140.5 -24t101.5 -62.5t65.5 -90t37 -103.5t10.5 -107q0 -35 -37 -35h-557q0 -181 49 -260q38 -62 99.5 -89.5t123.5 -27.5q177 0 281 113z" />
<glyph unicode="&#xea;" horiz-adv-x="927" d="M528 1323q67 -109 207 -264l-43 -29q-142 105 -217 184q-92 -95 -219 -184l-41 29q149 165 211 264h102zM256 559h377q29 0 29 29q0 108 -53 168.5t-120 60.5q-22 0 -46 -6t-54 -23.5t-55 -45t-46.5 -75t-31.5 -108.5zM803 213l41 -51q-60 -82 -155 -132t-202 -50 q-103 0 -187.5 35.5t-137.5 99.5q-92 109 -92 313q0 109 35.5 200t95 149t134 90t154.5 32q78 0 140.5 -24t101.5 -62.5t65.5 -90t37 -103.5t10.5 -107q0 -35 -37 -35h-557q0 -181 49 -260q38 -62 99.5 -89.5t123.5 -27.5q177 0 281 113z" />
<glyph unicode="&#xeb;" horiz-adv-x="927" d="M203 1176q0 40 28 69t68 29t68 -29t28 -69t-28 -68.5t-68 -28.5t-68 28.5t-28 68.5zM549 1176q0 40 28 69t68 29t68 -29t28 -69t-28 -68.5t-68 -28.5t-68 28.5t-28 68.5zM256 559h377q29 0 29 29q0 108 -53 168.5t-120 60.5q-22 0 -46 -6t-54 -23.5t-55 -45t-46.5 -75 t-31.5 -108.5zM803 213l41 -51q-60 -82 -155 -132t-202 -50q-103 0 -187.5 35.5t-137.5 99.5q-92 109 -92 313q0 109 35.5 200t95 149t134 90t154.5 32q78 0 140.5 -24t101.5 -62.5t65.5 -90t37 -103.5t10.5 -107q0 -35 -37 -35h-557q0 -181 49 -260q38 -62 99.5 -89.5 t123.5 -27.5q177 0 281 113z" />
<glyph unicode="&#xec;" horiz-adv-x="532" d="M225 1374l144 -258q12 -24 12 -49q0 -8 -9.5 -15.5t-21.5 -7.5q-15 0 -59 41l-234 224l4 22q63 47 134 47q14 0 30 -4zM184 481q0 276 -18 398l4 6q31 -2 88 -2t90 4q12 0 15.5 -4t3.5 -17q-19 -183 -19 -352v-145q0 -222 19 -369l-5 -6q-38 6 -96 6t-96 -6l-4 6 q18 133 18 369v112z" />
<glyph unicode="&#xed;" horiz-adv-x="532" d="M356 1374q12 4 29 4q64 0 113 -47l6 -22l-236 -224q-38 -38 -61 -38q-11 0 -20 8t-9 18q0 4 0.5 8t1 6.5t2 6.5t2 6t3.5 7t4 6.5t5.5 8t5.5 8.5zM184 481q0 276 -18 398l4 6q31 -2 88 -2t90 4q12 0 15.5 -4t3.5 -17q-19 -183 -19 -352v-145q0 -222 19 -369l-5 -6 q-38 6 -96 6t-96 -6l-4 6q18 133 18 369v112z" />
<glyph unicode="&#xee;" horiz-adv-x="532" d="M330 1323q67 -109 207 -264l-43 -29q-145 107 -218 184q-92 -95 -219 -184l-41 29q149 165 211 264h103zM184 481q0 276 -18 398l4 6q31 -2 88 -2t90 4q12 0 15.5 -4t3.5 -17q-19 -183 -19 -352v-145q0 -222 19 -369l-5 -6q-38 6 -96 6t-96 -6l-4 6q18 133 18 369v112z " />
<glyph unicode="&#xef;" horiz-adv-x="532" d="M10 1176q0 40 28 69t68 29t68.5 -29t28.5 -69t-28.5 -68.5t-68.5 -28.5t-68 28.5t-28 68.5zM356 1176q0 40 28.5 69t68.5 29t68 -29t28 -69t-28 -68.5t-68 -28.5t-68.5 28.5t-28.5 68.5zM184 481q0 276 -18 398l4 6q31 -2 88 -2t90 4q12 0 15.5 -4t3.5 -17 q-19 -183 -19 -352v-145q0 -222 19 -369l-5 -6q-38 6 -96 6t-96 -6l-4 6q18 133 18 369v112z" />
<glyph unicode="&#xf0;" horiz-adv-x="1013" d="M516 63q32 0 62 8.5t63 35t57 68t40 114.5t16 168q0 156 -33 272q-69 86 -209 86q-74 0 -127 -32.5t-80 -87t-39 -112t-12 -122.5q0 -173 76 -285.5t186 -112.5zM70 426q0 101 30.5 184.5t78 135.5t108 88t118 50.5t111.5 14.5q84 0 158 -29q-61 148 -185 301l-223 -149 l-45 65l215 146l-33 33q-43 45 -145 118l39 46q103 -56 217 -146l217 146l45 -66l-198 -133l36 -37q320 -320 320 -709q0 -125 -38 -224t-103 -159t-144.5 -91t-167.5 -31q-92 0 -171 39.5t-130.5 103.5t-80.5 143t-29 160z" />
<glyph unicode="&#xf1;" horiz-adv-x="1103" d="M700 1167q36 0 59 22.5t44 84.5l49 -12q-38 -185 -178 -185q-52 0 -131 53q-74 46 -111 46q-39 0 -62 -23.5t-38 -75.5l-49 10q22 94 60.5 138.5t102.5 44.5q66 0 148 -58q59 -45 106 -45zM942 369q0 -230 19 -369l-5 -6q-38 6 -96 6t-96 -6l-4 6q18 132 18 369v200 q0 121 -33 164t-114 43q-63 0 -144 -41.5t-153 -126.5v-239q0 -237 18 -369l-4 -6q-38 6 -96 6t-96 -6l-4 6q18 125 18 369v112q0 284 -18 398l4 6q87 -9 166 6q12 0 12 -21v-149l4 -6q46 55 98 93.5t100 57t85 26t71 7.5q135 0 194.5 -80t59.5 -244q0 -33 -2 -103t-2 -103z " />
<glyph unicode="&#xf2;" d="M479 1374l144 -258q12 -24 12 -49q0 -8 -9.5 -15.5t-21.5 -7.5q-15 0 -59 41l-234 224l4 22q63 47 134 47q14 0 30 -4zM78 420q0 218 120.5 348.5t321.5 130.5q204 0 315 -124t111 -337q0 -204 -117 -331t-317 -127q-199 0 -316.5 125t-117.5 315zM506 817 q-56 0 -99.5 -21t-71 -55t-45.5 -82t-25 -98t-7 -106q0 -52 7 -102t26.5 -104.5t49 -95t78.5 -66.5t111 -26q102 0 169 96.5t67 243.5q0 101 -10.5 171t-38 128.5t-80 87.5t-131.5 29z" />
<glyph unicode="&#xf3;" d="M573 1374q12 4 29 4q64 0 113 -47l6 -22l-236 -224q-38 -38 -61 -38q-11 0 -20 8t-9 18q0 4 0.5 8t1 6.5t2 6.5t2 6t3.5 7t4 6.5t5.5 8t5.5 8.5zM78 420q0 218 120.5 348.5t321.5 130.5q204 0 315 -124t111 -337q0 -204 -117 -331t-317 -127q-199 0 -316.5 125 t-117.5 315zM506 817q-56 0 -99.5 -21t-71 -55t-45.5 -82t-25 -98t-7 -106q0 -52 7 -102t26.5 -104.5t49 -95t78.5 -66.5t111 -26q102 0 169 96.5t67 243.5q0 101 -10.5 171t-38 128.5t-80 87.5t-131.5 29z" />
<glyph unicode="&#xf4;" d="M567 1323q67 -109 207 -264l-43 -29q-142 105 -217 184q-92 -95 -219 -184l-41 29q149 165 211 264h102zM78 420q0 218 120.5 348.5t321.5 130.5q204 0 315 -124t111 -337q0 -204 -117 -331t-317 -127q-199 0 -316.5 125t-117.5 315zM506 817q-56 0 -99.5 -21t-71 -55 t-45.5 -82t-25 -98t-7 -106q0 -52 7 -102t26.5 -104.5t49 -95t78.5 -66.5t111 -26q102 0 169 96.5t67 243.5q0 101 -10.5 171t-38 128.5t-80 87.5t-131.5 29z" />
<glyph unicode="&#xf5;" d="M643 1167q35 0 58 22.5t44 84.5l50 -12q-38 -185 -179 -185q-52 0 -131 53q-74 46 -110 46q-39 0 -62.5 -23.5t-38.5 -75.5l-49 10q22 93 61 138t103 45q66 0 148 -58q59 -45 106 -45zM78 420q0 218 120.5 348.5t321.5 130.5q204 0 315 -124t111 -337q0 -204 -117 -331 t-317 -127q-199 0 -316.5 125t-117.5 315zM506 817q-56 0 -99.5 -21t-71 -55t-45.5 -82t-25 -98t-7 -106q0 -52 7 -102t26.5 -104.5t49 -95t78.5 -66.5t111 -26q102 0 169 96.5t67 243.5q0 101 -10.5 171t-38 128.5t-80 87.5t-131.5 29z" />
<glyph unicode="&#xf6;" d="M229 1176q0 40 28.5 69t68.5 29t68 -29t28 -69t-28 -68.5t-68 -28.5t-68.5 28.5t-28.5 68.5zM575 1176q0 40 28.5 69t68.5 29t68 -29t28 -69t-28 -68.5t-68 -28.5t-68.5 28.5t-28.5 68.5zM78 420q0 218 120.5 348.5t321.5 130.5q204 0 315 -124t111 -337 q0 -204 -117 -331t-317 -127q-199 0 -316.5 125t-117.5 315zM506 817q-56 0 -99.5 -21t-71 -55t-45.5 -82t-25 -98t-7 -106q0 -52 7 -102t26.5 -104.5t49 -95t78.5 -66.5t111 -26q102 0 169 96.5t67 243.5q0 101 -10.5 171t-38 128.5t-80 87.5t-131.5 29z" />
<glyph unicode="&#xf7;" horiz-adv-x="1079" d="M447 751v7q12 34 33.5 56t59.5 37h7q38 -14 59 -35t33 -58v-7q-13 -41 -34 -62t-58 -30h-7q-41 9 -61.5 29t-31.5 63zM447 203v6q12 34 33.5 56t59.5 37h7q38 -14 59 -35t33 -58v-6q-14 -41 -34.5 -62.5t-57.5 -30.5h-7q-41 9 -61.5 29.5t-31.5 63.5zM944 526v-100h-809 v100h809z" />
<glyph unicode="&#xf8;" d="M868 930l64 -47l-93 -113q107 -122 107 -332q0 -204 -117 -331t-317 -127q-150 0 -259 76l-93 -113l-62 53l93 113q-113 121 -113 311q0 218 120.5 348.5t321.5 130.5q158 0 261 -75zM506 817q-56 0 -99.5 -21t-71 -55t-45.5 -82t-25 -98t-7 -106q0 -123 38 -219l406 492 q-61 89 -196 89zM739 648l-401 -489q71 -98 192 -98q102 0 169 96.5t67 243.5q0 157 -27 247z" />
<glyph unicode="&#xf9;" horiz-adv-x="1099" d="M467 1374l143 -258q13 -26 13 -49q0 -8 -9.5 -15.5t-21.5 -7.5q-16 0 -60 41l-233 224l4 22q63 47 133 47q15 0 31 -4zM748 188q-57 -87 -139 -147.5t-171 -60.5q-73 0 -127 24t-83.5 65.5t-43.5 90t-14 104.5v246q0 237 -18 369l4 6q38 -6 96 -6t96 6l4 -6 q-18 -123 -18 -369v-203q0 -68 11 -113t32 -65.5t42 -27.5t52 -7q71 0 151 65t130 150v201q0 230 -19 369l4 6q37 -6 97 -6q58 0 96 6l4 -6q-19 -129 -19 -369v-117q0 -201 35 -393l-4 -6q-40 6 -91 6q-27 0 -81 -6q-8 0 -8 6l-10 182z" />
<glyph unicode="&#xfa;" horiz-adv-x="1099" d="M627 1374q12 4 28 4q64 0 113 -47l6 -22l-235 -224q-38 -38 -62 -38q-11 0 -19.5 8t-8.5 18q0 16 4 25.5t19 31.5zM748 188q-57 -87 -139 -147.5t-171 -60.5q-73 0 -127 24t-83.5 65.5t-43.5 90t-14 104.5v246q0 237 -18 369l4 6q38 -6 96 -6t96 6l4 -6 q-18 -123 -18 -369v-203q0 -68 11 -113t32 -65.5t42 -27.5t52 -7q71 0 151 65t130 150v201q0 230 -19 369l4 6q37 -6 97 -6q58 0 96 6l4 -6q-19 -129 -19 -369v-117q0 -201 35 -393l-4 -6q-40 6 -91 6q-27 0 -81 -6q-8 0 -8 6l-10 182z" />
<glyph unicode="&#xfb;" horiz-adv-x="1099" d="M575 1323q67 -109 207 -264l-43 -29q-142 105 -217 184q-92 -95 -219 -184l-41 29q149 165 211 264h102zM748 188q-57 -87 -139 -147.5t-171 -60.5q-73 0 -127 24t-83.5 65.5t-43.5 90t-14 104.5v246q0 237 -18 369l4 6q38 -6 96 -6t96 6l4 -6q-18 -123 -18 -369v-203 q0 -68 11 -113t32 -65.5t42 -27.5t52 -7q71 0 151 65t130 150v201q0 230 -19 369l4 6q37 -6 97 -6q58 0 96 6l4 -6q-19 -129 -19 -369v-117q0 -201 35 -393l-4 -6q-40 6 -91 6q-27 0 -81 -6q-8 0 -8 6l-10 182z" />
<glyph unicode="&#xfc;" horiz-adv-x="1099" d="M270 1176q0 40 28.5 69t68.5 29t68 -29t28 -69t-28 -68.5t-68 -28.5t-68.5 28.5t-28.5 68.5zM616 1176q0 40 28.5 69t68.5 29t68 -29t28 -69t-28 -68.5t-68 -28.5t-68.5 28.5t-28.5 68.5zM748 188q-57 -87 -139 -147.5t-171 -60.5q-73 0 -127 24t-83.5 65.5t-43.5 90 t-14 104.5v246q0 237 -18 369l4 6q38 -6 96 -6t96 6l4 -6q-18 -123 -18 -369v-203q0 -68 11 -113t32 -65.5t42 -27.5t52 -7q71 0 151 65t130 150v201q0 230 -19 369l4 6q37 -6 97 -6q58 0 96 6l4 -6q-19 -129 -19 -369v-117q0 -201 35 -393l-4 -6q-40 6 -91 6q-27 0 -81 -6 q-8 0 -8 6l-10 182z" />
<glyph unicode="&#xfd;" horiz-adv-x="1036" d="M629 1374q12 4 28 4q64 0 113 -47l6 -22l-235 -224q-38 -38 -62 -38q-11 0 -19.5 8t-8.5 18q0 16 4 25.5t19 31.5zM57 885q29 -6 107 -6q73 0 100 6q11 -34 24 -71.5t23.5 -67t27 -73t25.5 -66.5t29 -73t26.5 -67t30 -74t28 -68t31 -75t29.5 -71h4q133 283 269 706 q20 -6 80 -6q68 0 88 6q-85 -171 -314 -687.5t-280 -682.5q-33 10 -100 10q-39 0 -72 -10q145 240 242 465q-25 68 -84.5 205t-108 245t-122.5 271t-83 184z" />
<glyph unicode="&#xfe;" horiz-adv-x="1054" d="M334 627v-480q73 -88 174 -88q78 0 133 31.5t83 86.5t40 115.5t12 133.5q0 85 -15 152t-38 107t-54 65.5t-59.5 35t-58.5 9.5q-58 0 -121.5 -45.5t-95.5 -122.5zM334 -66q0 -271 20 -409l-4 -6q-28 6 -98 6q-32 0 -57 -1.5t-34 -3.5l-9 -1l-2 6q20 129 20 409v1053 q0 276 -20 385l4 6q29 2 58.5 9t42 11t45.5 17.5t36 14.5q18 0 18 -21q-20 -157 -20 -385v-221l-2 -68q24 39 56.5 72t91 62.5t124.5 29.5q97 0 183 -59.5t136 -156t50 -202.5q0 -111 -38 -206.5t-101 -159t-145 -99.5t-171 -36q-102 0 -184 45v-91z" />
<glyph unicode="&#xff;" horiz-adv-x="1036" d="M270 1176q0 40 28.5 69t68.5 29t68 -29t28 -69t-28 -68.5t-68 -28.5t-68.5 28.5t-28.5 68.5zM616 1176q0 40 28.5 69t68.5 29t68 -29t28 -69t-28 -68.5t-68 -28.5t-68.5 28.5t-28.5 68.5zM57 885q29 -6 107 -6q73 0 100 6q11 -34 24 -71.5t23.5 -67t27 -73t25.5 -66.5 t29 -73t26.5 -67t30 -74t28 -68t31 -75t29.5 -71h4q133 283 269 706q20 -6 80 -6q68 0 88 6q-85 -171 -314 -687.5t-280 -682.5q-33 10 -100 10q-39 0 -72 -10q145 240 242 465q-25 68 -84.5 205t-108 245t-122.5 271t-83 184z" />
<glyph unicode="&#x100;" horiz-adv-x="1288" d="M909 1487h-499q-13 0 -20 9.5t-7 21.5q0 20 14 39.5t31 19.5h502q14 0 21 -9t7 -20q0 -20 -15 -40.5t-34 -20.5zM834 564q-97 253 -207 505h-4l-216 -504q135 -6 214 -6q100 0 213 5zM367 468q-124 -305 -170 -474q-25 6 -93 6q-46 0 -71 -6q338 741 604 1354h57 q69 -165 197.5 -483.5t223.5 -549t140 -321.5q-35 6 -122 6q-68 0 -103 -6q-45 168 -159 474q-83 5 -240 5q-179 0 -264 -5z" />
<glyph unicode="&#x101;" horiz-adv-x="985" d="M680 1102h-500q-12 0 -19 9.5t-7 21.5q0 20 14 39.5t31 19.5h501q14 0 21.5 -9t7.5 -20q0 -20 -15 -40.5t-34 -20.5zM635 461l-174 -47q-114 -31 -158.5 -81t-44.5 -124q0 -50 43 -87.5t109 -37.5q82 0 188 80q29 22 29 53zM635 98h-8q-83 -70 -139 -94t-140 -24 q-119 0 -187.5 55.5t-68.5 165.5q0 104 91 183t249 114l191 43q14 5 14 24q0 66 -14 113.5t-33 71.5t-49 38t-51 16.5t-50 2.5q-67 0 -121 -47t-104 -127l-27 2l-34 137l6 8q37 31 67.5 52t96 44t137.5 23q51 0 95.5 -7.5t90.5 -30t78.5 -58t53 -96t20.5 -140.5 q0 -7 -3 -141t-3 -168q0 -129 34 -160q16 -15 60 -15q25 0 55 11l16 -51q-59 -63 -163 -63q-58 0 -100.5 30t-59.5 88z" />
<glyph unicode="&#x102;" horiz-adv-x="1288" d="M934 1647q-9 -105 -91 -168.5t-188 -63.5q-115 0 -193 63.5t-85 168.5h57q12 -58 74 -91.5t147 -33.5q80 0 146 34t76 91h57zM834 564q-97 253 -207 505h-4l-216 -504q135 -6 214 -6q100 0 213 5zM367 468q-124 -305 -170 -474q-25 6 -93 6q-46 0 -71 -6 q338 741 604 1354h57q69 -165 197.5 -483.5t223.5 -549t140 -321.5q-35 6 -122 6q-68 0 -103 -6q-45 168 -159 474q-83 5 -240 5q-179 0 -264 -5z" />
<glyph unicode="&#x103;" horiz-adv-x="985" d="M201 1325q17 -82 77.5 -133t143.5 -51t144.5 49t76.5 135l55 -25q-18 -126 -99 -201t-177 -75q-108 0 -181.5 73t-95.5 203zM635 461l-174 -47q-114 -31 -158.5 -81t-44.5 -124q0 -50 43 -87.5t109 -37.5q82 0 188 80q29 22 29 53zM635 98h-8q-83 -70 -139 -94t-140 -24 q-119 0 -187.5 55.5t-68.5 165.5q0 104 91 183t249 114l191 43q14 5 14 24q0 66 -14 113.5t-33 71.5t-49 38t-51 16.5t-50 2.5q-67 0 -121 -47t-104 -127l-27 2l-34 137l6 8q37 31 67.5 52t96 44t137.5 23q51 0 95.5 -7.5t90.5 -30t78.5 -58t53 -96t20.5 -140.5 q0 -7 -3 -141t-3 -168q0 -129 34 -160q16 -15 60 -15q25 0 55 11l16 -51q-59 -63 -163 -63q-58 0 -100.5 30t-59.5 88z" />
<glyph unicode="&#x104;" horiz-adv-x="1288" d="M1116 -334q-42 -52 -96.5 -83.5t-106.5 -31.5q-75 0 -118 42t-43 114q0 168 262 344q-52 175 -143 417q-83 5 -240 5q-179 0 -264 -5q-124 -305 -170 -474q-25 6 -93 6q-46 0 -71 -6q338 741 604 1354h57q69 -165 197.5 -483.5t223.5 -549t140 -321.5q-35 6 -122 6 q-17 0 -49 -2.5t-49 -2.5q-78 -79 -113 -137t-35 -128q0 -34 24 -61t62 -27q51 0 108 61l6 -2zM834 564q-97 253 -207 505h-4l-216 -504q135 -6 214 -6q100 0 213 5z" />
<glyph unicode="&#x105;" horiz-adv-x="985" d="M911 -313q-42 -52 -96 -83.5t-106 -31.5q-75 0 -118.5 42t-43.5 114q0 133 164 271q-55 30 -76 99h-8q-83 -70 -139 -94t-140 -24q-119 0 -187.5 55.5t-68.5 165.5q0 104 91 183t249 114l191 43q14 5 14 24q0 66 -14 113.5t-33 71.5t-49 38t-51 16.5t-50 2.5 q-67 0 -121 -47t-104 -127l-27 2l-34 137l6 8q37 31 67.5 52t96 44t137.5 23q51 0 95.5 -7.5t90.5 -30t78.5 -58t53 -96t20.5 -140.5q0 -7 -3 -141t-3 -168q0 -129 34 -160q16 -15 60 -15q25 0 55 11l16 -51q-59 -63 -162 -63q-58 -62 -86 -115.5t-28 -114.5q0 -34 24 -61 t62 -27q25 0 55 18.5t54 43.5l6 -3zM635 461l-174 -47q-114 -31 -158.5 -81t-44.5 -124q0 -50 43 -87.5t109 -37.5q82 0 188 80q29 22 29 53z" />
<glyph unicode="&#x106;" horiz-adv-x="1386" d="M874 1679q88 -40 127 -106l-294 -119q-57 -24 -86 -24q-13 0 -22 9t-9 21q0 22 31 43zM778 1348q111 0 223 -26t168 -52l56 -25l4 -6q-18 -68 -25 -109.5t-12 -117.5l-25 -2q-121 241 -417 241q-53 0 -109.5 -18.5t-115 -62t-104.5 -106.5t-75 -162t-29 -218 q0 -159 57.5 -296t162 -220.5t231.5 -83.5q144 0 248 47.5t211 165.5l14 -6q11 -27 13 -87q-186 -224 -504 -224q-129 0 -235.5 35t-181.5 97t-126.5 146t-76 181.5t-24.5 205.5q0 147 56.5 279t149.5 224t215 146t251 54z" />
<glyph unicode="&#x107;" horiz-adv-x="878" d="M549 1374q12 4 29 4q63 0 112 -47l6 -22l-235 -224q-38 -38 -62 -38q-11 0 -19.5 8t-8.5 18q0 16 4 25.5t19 31.5zM512 817q-106 0 -180 -98.5t-74 -261.5q0 -175 75 -275t191 -100q62 0 113 18.5t106 67.5h9l39 -43q-114 -145 -302 -145t-299.5 126.5t-111.5 339.5 q0 101 38 188t100 144t140 89t158 32q75 0 149.5 -16t122.5 -41l5 -6l-48 -168l-26 -2q-88 151 -205 151z" />
<glyph unicode="&#x108;" horiz-adv-x="1386" d="M774 1651q83 -101 207 -193l-33 -43q-124 58 -217 127q-104 -76 -219 -127l-29 43q90 68 203 193h88zM778 1348q111 0 223 -26t168 -52l56 -25l4 -6q-18 -68 -25 -109.5t-12 -117.5l-25 -2q-121 241 -417 241q-53 0 -109.5 -18.5t-115 -62t-104.5 -106.5t-75 -162 t-29 -218q0 -159 57.5 -296t162 -220.5t231.5 -83.5q144 0 248 47.5t211 165.5l14 -6q11 -27 13 -87q-186 -224 -504 -224q-129 0 -235.5 35t-181.5 97t-126.5 146t-76 181.5t-24.5 205.5q0 147 56.5 279t149.5 224t215 146t251 54z" />
<glyph unicode="&#x109;" horiz-adv-x="878" d="M535 1323q69 -112 206 -264l-43 -29q-142 105 -217 184q-92 -95 -219 -184l-41 29q149 165 211 264h103zM510 817q-106 0 -180 -98.5t-74 -261.5q0 -175 75 -275t191 -100q62 0 113 18.5t106 67.5h9l38 -43q-114 -145 -301 -145q-188 0 -299.5 126.5t-111.5 339.5 q0 101 38 188t100 144t140 89t158 32q75 0 149.5 -16t122.5 -41l4 -6l-47 -168l-26 -2q-88 151 -205 151z" />
<glyph unicode="&#x10a;" horiz-adv-x="1386" d="M623 1599q0 43 31.5 75t74.5 32t75 -32t32 -75t-32 -74.5t-75 -31.5t-74.5 31.5t-31.5 74.5zM778 1348q111 0 223 -26t168 -52l56 -25l4 -6q-18 -68 -25 -109.5t-12 -117.5l-25 -2q-121 241 -417 241q-53 0 -109.5 -18.5t-115 -62t-104.5 -106.5t-75 -162t-29 -218 q0 -159 57.5 -296t162 -220.5t231.5 -83.5q144 0 248 47.5t211 165.5l14 -6q11 -27 13 -87q-186 -224 -504 -224q-129 0 -235.5 35t-181.5 97t-126.5 146t-76 181.5t-24.5 205.5q0 147 56.5 279t149.5 224t215 146t251 54z" />
<glyph unicode="&#x10b;" horiz-adv-x="878" d="M393 1223q0 41 32 72.5t73 31.5t72.5 -31.5t31.5 -72.5t-31.5 -73t-72.5 -32t-73 32t-32 73zM512 817q-106 0 -180 -98.5t-74 -261.5q0 -175 75 -275t191 -100q62 0 113 18.5t106 67.5h9l39 -43q-114 -145 -302 -145t-299.5 126.5t-111.5 339.5q0 101 38 188t100 144 t140 89t158 32q75 0 149.5 -16t122.5 -41l5 -6l-48 -168l-26 -2q-88 151 -205 151z" />
<glyph unicode="&#x10c;" horiz-adv-x="1386" d="M682 1427q-75 93 -207 195l33 41q121 -53 217 -125q118 82 219 125l31 -41q-103 -78 -205 -195h-88zM778 1348q111 0 223 -26t168 -52l56 -25l4 -6q-18 -68 -25 -109.5t-12 -117.5l-25 -2q-121 241 -417 241q-53 0 -109.5 -18.5t-115 -62t-104.5 -106.5t-75 -162 t-29 -218q0 -159 57.5 -296t162 -220.5t231.5 -83.5q144 0 248 47.5t211 165.5l14 -6q11 -27 13 -87q-186 -224 -504 -224q-129 0 -235.5 35t-181.5 97t-126.5 146t-76 181.5t-24.5 205.5q0 147 56.5 279t149.5 224t215 146t251 54z" />
<glyph unicode="&#x10d;" horiz-adv-x="878" d="M442 1028q-79 128 -206 266l40 27q145 -107 218 -184q80 82 221 184l39 -27q-139 -154 -209 -266h-103zM512 817q-106 0 -180 -98.5t-74 -261.5q0 -175 75 -275t191 -100q62 0 113 18.5t106 67.5h9l39 -43q-114 -145 -302 -145t-299.5 126.5t-111.5 339.5q0 101 38 188 t100 144t140 89t158 32q75 0 149.5 -16t122.5 -41l5 -6l-48 -168l-26 -2q-88 151 -205 151z" />
<glyph unicode="&#x10e;" horiz-adv-x="1454" d="M596 1427q-75 93 -207 195l33 41q121 -53 217 -125q118 82 219 125l31 -41q-103 -78 -205 -195h-88zM389 168q0 -36 14 -51.5t60.5 -23t148.5 -7.5q66 0 120.5 5.5t109.5 20.5t98 39t81 62t63 89.5t39 122t14 157.5q0 100 -17 190t-59 176.5t-106 149t-165 101t-229 38.5 q-42 0 -70 -3t-53 -11t-37 -25t-12 -43v-987zM301 1321q65 0 169 3t169 3q145 0 276.5 -55.5t226 -149t150.5 -222.5t56 -269q0 -105 -22.5 -193.5t-60 -153t-91 -115t-112.5 -82.5t-126.5 -53t-131 -29.5t-128.5 -8.5q-114 0 -212.5 2t-162.5 2q-32 0 -58.5 -1.5 t-36.5 -2.5l-11 -2l-2 6q20 139 20 410v501q0 264 -20 410l4 6q34 -6 104 -6z" />
<glyph unicode="&#x10f;" horiz-adv-x="1142" d="M1092 1430q56 0 89 -45t33 -105q0 -67 -55.5 -136.5t-152.5 -80.5l-11 35q59 12 94 56t35 85q0 20 -8 31.5t-20 11.5q-95 0 -95 78q0 27 24 48.5t67 21.5zM739 231v467q-39 62 -82 90.5t-112 28.5q-34 0 -66 -8t-69 -32t-64 -62.5t-45 -106t-18 -155.5 q0 -182 57.5 -274.5t146.5 -92.5q64 0 130.5 37.5t121.5 107.5zM739 119q-108 -139 -264 -139q-163 0 -267 132t-104 324q0 207 130.5 335t332.5 128q33 0 86 -13t86 -32v133q0 297 -18 395l4 7q90 7 178 41q19 0 19 -21q-19 -239 -19 -385v-631q0 -201 35 -393l-4 -6 q-41 6 -91 6q-17 0 -71 -6q-18 0 -18 6l-11 119h-4z" />
<glyph unicode="&#x110;" horiz-adv-x="1454" d="M389 168q0 -36 14 -51.5t60.5 -23t148.5 -7.5q66 0 120.5 5.5t109.5 20.5t98 39t81 62t63 89.5t39 122t14 157.5q0 100 -17 190t-59 176.5t-106 149t-165 101t-229 38.5q-42 0 -70 -3t-53 -11t-37 -25t-12 -43v-485h316v-82h-316v-420zM301 1321q65 0 169 3t169 3 q145 0 276.5 -55.5t226 -149t150.5 -222.5t56 -269q0 -105 -22.5 -193.5t-60 -153t-91 -115t-112.5 -82.5t-126.5 -53t-131 -29.5t-128.5 -8.5q-114 0 -212.5 2t-162.5 2q-32 0 -58.5 -1.5t-36.5 -2.5l-11 -2l-2 6q20 139 20 410v178h-178v82h178v241q0 264 -20 410l4 6 q34 -6 104 -6z" />
<glyph unicode="&#x111;" horiz-adv-x="1085" d="M1100 1171l2 -79h-198q0 -11 -0.5 -33.5t-0.5 -34.5v-631q0 -201 35 -393l-4 -6q-41 6 -91 6q-17 0 -71 -6q-18 0 -18 6l-11 119h-4q-108 -139 -264 -139q-163 0 -267 132t-104 324q0 207 130.5 335t332.5 128q33 0 86 -13t86 -32v238h-245v79h243q-3 137 -16 211l4 7 q90 7 178 41q19 0 19 -21q-13 -150 -16 -238h194zM739 231v467q-39 62 -82 90.5t-112 28.5q-34 0 -66 -8t-69 -32t-64 -62.5t-45 -106t-18 -155.5q0 -182 57.5 -274.5t146.5 -92.5q64 0 130.5 37.5t121.5 107.5z" />
<glyph unicode="&#x112;" horiz-adv-x="1101" d="M788 1501h-499q-13 0 -20 9.5t-7 21.5q0 20 14 39.5t31 19.5h502q14 0 21.5 -9t7.5 -19q0 -20 -15.5 -41t-34.5 -21zM389 410q0 -236 17 -295q122 0 266 6t228 12l83 6l4 -8q-4 -32 -4 -68q0 -5 4 -63l-4 -6q-49 6 -123 6h-559q-32 0 -58.5 -1.5t-36.5 -2.5l-11 -2l-2 6 q20 139 20 410v501q0 264 -20 410l4 6q34 -6 104 -6h539q74 0 123 6l4 -6q-4 -58 -4 -78q0 -21 4 -53l-4 -8q-284 24 -557 24q-17 -60 -17 -295v-159q215 0 457 20l6 -6q-6 -27 -6 -66q0 -38 6 -65l-6 -6q-201 20 -457 20v-239z" />
<glyph unicode="&#x113;" horiz-adv-x="927" d="M711 1102h-500q-13 0 -20 9.5t-7 21.5q0 20 14 39.5t31 19.5h502q14 0 21.5 -9t7.5 -20q0 -20 -15 -40.5t-34 -20.5zM256 559h377q29 0 29 29q0 108 -53 168.5t-120 60.5q-22 0 -46 -6t-54 -23.5t-55 -45t-46.5 -75t-31.5 -108.5zM803 213l41 -51q-60 -82 -155 -132 t-202 -50q-103 0 -187.5 35.5t-137.5 99.5q-92 109 -92 313q0 109 35.5 200t95 149t134 90t154.5 32q78 0 140.5 -24t101.5 -62.5t65.5 -90t37 -103.5t10.5 -107q0 -35 -37 -35h-557q0 -181 49 -260q38 -62 99.5 -89.5t123.5 -27.5q177 0 281 113z" />
<glyph unicode="&#x114;" horiz-adv-x="1101" d="M852 1645q-9 -105 -91 -168.5t-188 -63.5q-115 0 -193 63.5t-85 168.5h57q12 -58 74 -91.5t147 -33.5q80 0 146 34t76 91h57zM389 410q0 -236 17 -295q122 0 266 6t228 12l83 6l4 -8q-4 -32 -4 -68q0 -5 4 -63l-4 -6q-49 6 -123 6h-559q-32 0 -58.5 -1.5t-36.5 -2.5 l-11 -2l-2 6q20 139 20 410v501q0 264 -20 410l4 6q34 -6 104 -6h539q74 0 123 6l4 -6q-4 -58 -4 -78q0 -21 4 -53l-4 -8q-284 24 -557 24q-17 -60 -17 -295v-159q215 0 457 20l6 -6q-6 -27 -6 -66q0 -38 6 -65l-6 -6q-201 20 -457 20v-239z" />
<glyph unicode="&#x115;" horiz-adv-x="927" d="M246 1327q17 -82 77.5 -133t143.5 -51t144.5 49t76.5 135l55 -24q-18 -126 -99 -201.5t-177 -75.5q-108 0 -181.5 73.5t-95.5 203.5zM256 559h377q29 0 29 29q0 108 -53 168.5t-120 60.5q-22 0 -46 -6t-54 -23.5t-55 -45t-46.5 -75t-31.5 -108.5zM803 213l41 -51 q-60 -82 -155 -132t-202 -50q-103 0 -187.5 35.5t-137.5 99.5q-92 109 -92 313q0 109 35.5 200t95 149t134 90t154.5 32q78 0 140.5 -24t101.5 -62.5t65.5 -90t37 -103.5t10.5 -107q0 -35 -37 -35h-557q0 -181 49 -260q38 -62 99.5 -89.5t123.5 -27.5q177 0 281 113z" />
<glyph unicode="&#x116;" horiz-adv-x="1101" d="M459 1599q0 43 31.5 75t74.5 32t75 -32t32 -75t-32 -74.5t-75 -31.5t-74.5 31.5t-31.5 74.5zM389 410q0 -236 17 -295q122 0 266 6t228 12l83 6l4 -8q-4 -32 -4 -68q0 -5 4 -63l-4 -6q-49 6 -123 6h-559q-32 0 -58.5 -1.5t-36.5 -2.5l-11 -2l-2 6q20 139 20 410v501 q0 264 -20 410l4 6q34 -6 104 -6h539q74 0 123 6l4 -6q-4 -58 -4 -78q0 -21 4 -53l-4 -8q-284 24 -557 24q-17 -60 -17 -295v-159q215 0 457 20l6 -6q-6 -27 -6 -66q0 -38 6 -65l-6 -6q-201 20 -457 20v-239z" />
<glyph unicode="&#x117;" horiz-adv-x="927" d="M367 1223q0 41 31.5 72.5t72.5 31.5t72.5 -31.5t31.5 -72.5t-31.5 -73t-72.5 -32t-72.5 32t-31.5 73zM256 559h377q29 0 29 29q0 108 -53 168.5t-120 60.5q-22 0 -46 -6t-54 -23.5t-55 -45t-46.5 -75t-31.5 -108.5zM803 213l41 -51q-60 -82 -155 -132t-202 -50 q-103 0 -187.5 35.5t-137.5 99.5q-92 109 -92 313q0 109 35.5 200t95 149t134 90t154.5 32q78 0 140.5 -24t101.5 -62.5t65.5 -90t37 -103.5t10.5 -107q0 -35 -37 -35h-557q0 -181 49 -260q38 -62 99.5 -89.5t123.5 -27.5q177 0 281 113z" />
<glyph unicode="&#x118;" horiz-adv-x="1101" d="M705 -459q-84 0 -137.5 46.5t-53.5 127.5q0 74 57 154.5t148 130.5h-418q-32 0 -58.5 -1.5t-36.5 -2.5l-11 -2l-2 6q20 139 20 410v501q0 264 -20 410l4 6q34 -6 104 -6h539q74 0 123 6l4 -6q-4 -58 -4 -78q0 -21 4 -53l-4 -8q-284 24 -557 24q-17 -60 -17 -295v-159 q215 0 457 20l6 -6q-6 -27 -6 -66q0 -38 6 -65l-6 -6q-201 20 -457 20v-239q0 -236 17 -295q122 0 266 6t228 12l83 6l4 -8q-4 -32 -4 -68q0 -5 4 -63l-4 -6q-35 4 -86 6q-109 -7 -184.5 -91t-75.5 -167q0 -51 32.5 -86t86.5 -35q42 0 75 19t68 55l31 -17 q-34 -67 -98.5 -102t-126.5 -35z" />
<glyph unicode="&#x119;" horiz-adv-x="927" d="M256 559h377q29 0 29 29q0 108 -53 168.5t-120 60.5q-22 0 -46 -6t-54 -23.5t-55 -45t-46.5 -75t-31.5 -108.5zM803 213l41 -51q-28 -40 -80 -83l4 -3q-95 -94 -135.5 -155.5t-40.5 -137.5q0 -34 24 -61t62 -27q51 0 108 61l7 -2l28 -35q-42 -52 -96.5 -83t-106.5 -31 q-75 0 -118 41.5t-43 113.5q0 114 116 228q-37 -8 -86 -8q-103 0 -187.5 35.5t-137.5 99.5q-92 109 -92 313q0 109 35.5 200t95 149t134 90t154.5 32q78 0 140.5 -24t101.5 -62.5t65.5 -90t37 -103.5t10.5 -107q0 -35 -37 -35h-557q0 -181 49 -260q38 -62 99.5 -89.5 t123.5 -27.5q177 0 281 113z" />
<glyph unicode="&#x11a;" horiz-adv-x="1101" d="M549 1427q-75 93 -207 195l33 41q121 -53 217 -125q118 82 219 125l31 -41q-103 -78 -205 -195h-88zM389 410q0 -236 17 -295q122 0 266 6t228 12l83 6l4 -8q-4 -32 -4 -68q0 -5 4 -63l-4 -6q-49 6 -123 6h-559q-32 0 -58.5 -1.5t-36.5 -2.5l-11 -2l-2 6q20 139 20 410 v501q0 264 -20 410l4 6q34 -6 104 -6h539q74 0 123 6l4 -6q-4 -58 -4 -78q0 -21 4 -53l-4 -8q-284 24 -557 24q-17 -60 -17 -295v-159q215 0 457 20l6 -6q-6 -27 -6 -66q0 -38 6 -65l-6 -6q-201 20 -457 20v-239z" />
<glyph unicode="&#x11b;" horiz-adv-x="927" d="M408 1026q-77 125 -207 266l41 27q142 -105 217 -184q80 82 221 184l39 -27q-139 -154 -209 -266h-102zM256 559h377q29 0 29 29q0 108 -53 168.5t-120 60.5q-22 0 -46 -6t-54 -23.5t-55 -45t-46.5 -75t-31.5 -108.5zM803 213l41 -51q-60 -82 -155 -132t-202 -50 q-103 0 -187.5 35.5t-137.5 99.5q-92 109 -92 313q0 109 35.5 200t95 149t134 90t154.5 32q78 0 140.5 -24t101.5 -62.5t65.5 -90t37 -103.5t10.5 -107q0 -35 -37 -35h-557q0 -181 49 -260q38 -62 99.5 -89.5t123.5 -27.5q177 0 281 113z" />
<glyph unicode="&#x11c;" horiz-adv-x="1468" d="M788 1649q83 -101 207 -193l-32 -43q-127 59 -218 127q-104 -76 -219 -127l-28 43q87 65 202 193h88zM1118 240q0 243 -20 389l4 6q34 -6 104 -6q32 0 59 1.5t37 3.5l11 1l2 -6q-21 -143 -21 -348v-13q0 -72 21 -98v-6q-219 -184 -545 -184q-150 0 -276.5 54.5 t-210.5 147t-130.5 213.5t-46.5 254q0 131 40.5 245t110 196t161 141t194.5 88t209 29q111 0 228 -26t178 -52l61 -25l4 -6q-33 -116 -41 -238l-24 -2q-70 119 -184 188.5t-250 69.5q-210 0 -343 -161t-133 -426q0 -84 16.5 -166t55 -161.5t94.5 -139.5t142.5 -96.5 t191.5 -36.5q219 0 301 77v93z" />
<glyph unicode="&#x11d;" horiz-adv-x="1021" d="M522 1321q67 -109 207 -264l-43 -29q-142 105 -217 184q-92 -95 -219 -184l-41 29q149 165 211 264h102zM207 -213q0 -66 40.5 -109t98 -59t129.5 -16q141 0 242.5 50.5t101.5 139.5q0 101 -80 148q-38 23 -84 28.5t-133 5.5q-10 0 -79 -3t-103 -3q-56 -30 -94.5 -81 t-38.5 -101zM371 96q29 0 113 7.5t110 7.5q210 0 289 -68q86 -74 86 -203q0 -146 -136.5 -235.5t-373.5 -89.5q-112 0 -198.5 23.5t-140.5 76.5t-54 131q0 28 13.5 66.5t33.5 68.5q91 71 174 104q-79 14 -119.5 62t-40.5 115q0 79 131 170q-145 84 -145 256q0 73 31.5 133.5 t82 98.5t111.5 58.5t123 20.5q64 0 125 -18q87 5 187.5 20.5t135.5 18.5l6 -7q-6 -27 -6 -53t6 -53l-6 -6q-144 15 -213 21q103 -69 103 -238q0 -126 -93 -215.5t-247 -89.5q-98 0 -152 28q-55 -48 -55 -114q0 -59 32.5 -78t86.5 -19zM639 582q0 239 -186 239 q-88 0 -134.5 -60t-46.5 -163q0 -114 44.5 -176t148.5 -62q88 0 131 61.5t43 160.5z" />
<glyph unicode="&#x11e;" horiz-adv-x="1468" d="M1040 1651q-9 -105 -90.5 -168.5t-187.5 -63.5q-115 0 -193.5 63.5t-85.5 168.5h58q12 -58 74 -91.5t147 -33.5q80 0 145.5 34t75.5 91h57zM1118 240q0 243 -20 389l4 6q34 -6 104 -6q32 0 59 1.5t37 3.5l11 1l2 -6q-21 -143 -21 -348v-13q0 -72 21 -98v-6 q-219 -184 -545 -184q-150 0 -276.5 54.5t-210.5 147t-130.5 213.5t-46.5 254q0 131 40.5 245t110 196t161 141t194.5 88t209 29q111 0 228 -26t178 -52l61 -25l4 -6q-33 -116 -41 -238l-24 -2q-70 119 -184 188.5t-250 69.5q-210 0 -343 -161t-133 -426q0 -84 16.5 -166 t55 -161.5t94.5 -139.5t142.5 -96.5t191.5 -36.5q219 0 301 77v93z" />
<glyph unicode="&#x11f;" horiz-adv-x="1021" d="M229 1319q17 -82 78 -133t144 -51t144.5 49t76.5 135l55 -25q-18 -126 -99 -201t-177 -75q-108 0 -181.5 73t-95.5 203zM207 -213q0 -66 40.5 -109t98 -59t129.5 -16q141 0 242.5 50.5t101.5 139.5q0 101 -80 148q-38 23 -84 28.5t-133 5.5q-10 0 -79 -3t-103 -3 q-56 -30 -94.5 -81t-38.5 -101zM371 96q29 0 113 7.5t110 7.5q210 0 289 -68q86 -74 86 -203q0 -146 -136.5 -235.5t-373.5 -89.5q-112 0 -198.5 23.5t-140.5 76.5t-54 131q0 28 13.5 66.5t33.5 68.5q91 71 174 104q-79 14 -119.5 62t-40.5 115q0 79 131 170 q-145 84 -145 256q0 73 31.5 133.5t82 98.5t111.5 58.5t123 20.5q64 0 125 -18q87 5 187.5 20.5t135.5 18.5l6 -7q-6 -27 -6 -53t6 -53l-6 -6q-144 15 -213 21q103 -69 103 -238q0 -126 -93 -215.5t-247 -89.5q-98 0 -152 28q-55 -48 -55 -114q0 -59 32.5 -78t86.5 -19z M639 582q0 239 -186 239q-88 0 -134.5 -60t-46.5 -163q0 -114 44.5 -176t148.5 -62q88 0 131 61.5t43 160.5z" />
<glyph unicode="&#x120;" horiz-adv-x="1468" d="M664 1599q0 43 31.5 75t74.5 32t75 -32t32 -75t-32 -74.5t-75 -31.5t-74.5 31.5t-31.5 74.5zM1118 240q0 243 -20 389l4 6q34 -6 104 -6q32 0 59 1.5t37 3.5l11 1l2 -6q-21 -143 -21 -348v-13q0 -72 21 -98v-6q-219 -184 -545 -184q-150 0 -276.5 54.5t-210.5 147 t-130.5 213.5t-46.5 254q0 131 40.5 245t110 196t161 141t194.5 88t209 29q111 0 228 -26t178 -52l61 -25l4 -6q-33 -116 -41 -238l-24 -2q-70 119 -184 188.5t-250 69.5q-210 0 -343 -161t-133 -426q0 -84 16.5 -166t55 -161.5t94.5 -139.5t142.5 -96.5t191.5 -36.5 q219 0 301 77v93z" />
<glyph unicode="&#x121;" horiz-adv-x="1021" d="M354 1223q0 41 32 72.5t73 31.5t72.5 -31.5t31.5 -72.5t-31.5 -73t-72.5 -32t-73 32t-32 73zM207 -213q0 -66 40.5 -109t98 -59t129.5 -16q141 0 242.5 50.5t101.5 139.5q0 101 -80 148q-38 23 -84 28.5t-133 5.5q-10 0 -79 -3t-103 -3q-56 -30 -94.5 -81t-38.5 -101z M371 96q29 0 113 7.5t110 7.5q210 0 289 -68q86 -74 86 -203q0 -146 -136.5 -235.5t-373.5 -89.5q-112 0 -198.5 23.5t-140.5 76.5t-54 131q0 28 13.5 66.5t33.5 68.5q91 71 174 104q-79 14 -119.5 62t-40.5 115q0 79 131 170q-145 84 -145 256q0 73 31.5 133.5t82 98.5 t111.5 58.5t123 20.5q64 0 125 -18q87 5 187.5 20.5t135.5 18.5l6 -7q-6 -27 -6 -53t6 -53l-6 -6q-144 15 -213 21q103 -69 103 -238q0 -126 -93 -215.5t-247 -89.5q-98 0 -152 28q-55 -48 -55 -114q0 -59 32.5 -78t86.5 -19zM639 582q0 239 -186 239q-88 0 -134.5 -60 t-46.5 -163q0 -114 44.5 -176t148.5 -62q88 0 131 61.5t43 160.5z" />
<glyph unicode="&#x122;" horiz-adv-x="1468" d="M768 -127q58 0 92.5 -48t34.5 -128q0 -87 -60.5 -137.5t-156.5 -65.5q-16 16 -16 49q71 16 112 47.5t41 61.5q0 28 -15.5 39t-47.5 14q-86 15 -86 80q0 37 29 62.5t73 25.5zM1118 240q0 243 -20 389l4 6q34 -6 104 -6q32 0 59 1.5t37 3.5l11 1l2 -6q-21 -143 -21 -348 v-13q0 -72 21 -98v-6q-219 -184 -545 -184q-150 0 -276.5 54.5t-210.5 147t-130.5 213.5t-46.5 254q0 131 40.5 245t110 196t161 141t194.5 88t209 29q111 0 228 -26t178 -52l61 -25l4 -6q-33 -116 -41 -238l-24 -2q-70 119 -184 188.5t-250 69.5q-210 0 -343 -161 t-133 -426q0 -84 16.5 -166t55 -161.5t94.5 -139.5t142.5 -96.5t191.5 -36.5q219 0 301 77v93z" />
<glyph unicode="&#x123;" horiz-adv-x="1021" d="M467 1047q-57 0 -92 45t-35 104q0 46 16.5 85.5t45.5 67.5t68.5 46t86.5 24q10 -10 10 -41q-80 -17 -118.5 -56.5t-38.5 -80.5q0 -12 1 -18t6 -8.5t9.5 -2.5t18 1t24.5 1q55 0 78.5 -25.5t23.5 -58.5q0 -29 -27.5 -56t-76.5 -27zM207 -213q0 -50 22.5 -87t62 -57.5 t85 -30t98.5 -9.5q91 0 167.5 21t126.5 65t50 104q0 44 -19.5 83.5t-60.5 64.5q-27 16 -62 23.5t-65.5 9t-89.5 1.5q-10 0 -79 -3t-103 -3q-27 -15 -51 -35.5t-42.5 -44.5t-29 -50.5t-10.5 -51.5zM371 96q29 0 113 7.5t110 7.5q210 0 289 -68q86 -74 86 -203q0 -96 -60 -169 t-176.5 -114.5t-273.5 -41.5q-83 0 -153 13.5t-124.5 41t-85 72.5t-30.5 104q0 19 6.5 43t17 48.5t23.5 43.5q91 71 174 104q-79 14 -119.5 62t-40.5 115q0 79 131 170q-145 84 -145 256q0 73 31.5 133.5t82 98.5t111.5 58.5t123 20.5q64 0 125 -18q87 5 187.5 20.5 t135.5 18.5l6 -7q-6 -27 -6 -53t6 -53l-6 -6q-144 15 -213 21q103 -69 103 -238q0 -61 -23.5 -116t-66 -97t-107.5 -67t-143 -25q-30 0 -60.5 4t-54 10.5t-37.5 13.5q-32 -28 -43.5 -54t-11.5 -60q0 -31 10 -52t29 -30t37 -12t43 -3zM639 582q0 239 -186 239 q-88 0 -134.5 -60t-46.5 -163q0 -114 44.5 -176t148.5 -62q88 0 131 61.5t43 160.5z" />
<glyph unicode="&#x124;" horiz-adv-x="1486" d="M1098 911q0 256 -21 410l4 6q38 -6 105 -6q68 0 106 6l2 -6q-20 -136 -20 -410v-501q0 -264 20 -410l-4 -6q-38 6 -104 6q-70 0 -107 -6l-2 6q21 146 21 410v247h-709v-247q0 -256 21 -410l-4 -6q-37 6 -105 6q-69 0 -106 -6l-2 6q20 139 20 410v501q0 264 -20 410l4 6 q37 -6 104 -6q69 0 107 6l2 -6q-21 -143 -21 -410v-163h709v163zM754 1645q83 -101 207 -193l-33 -43q-124 58 -217 127q-104 -76 -219 -127l-29 43q90 68 203 193h88z" />
<glyph unicode="&#x125;" horiz-adv-x="1124" d="M586 1704q83 -101 207 -193l-33 -43q-124 58 -217 127q-104 -76 -219 -127l-29 43q90 68 203 193h88zM348 721l4 -6q46 55 98.5 93.5t100 57t85 26t71.5 7.5q135 0 194.5 -80t59.5 -244q0 -33 -2.5 -103t-2.5 -103q0 -230 19 -369l-4 -6q-37 6 -97 6q-58 0 -96 -6l-4 6 q19 131 19 369v200q0 121 -33.5 164t-114.5 43q-63 0 -144 -41.5t-153 -126.5v-239q0 -221 19 -369l-5 -6q-38 6 -96 6t-96 -6l-4 6q18 129 18 369v616q0 299 -18 397l4 7q90 7 178 41q19 0 19 -21q-19 -239 -19 -383v-305z" />
<glyph unicode="&#x126;" horiz-adv-x="1486" d="M393 1118h701q-5 120 -17 203l4 6q38 -6 105 -6q68 0 106 6l2 -6q-12 -77 -17 -203h109v-69h-111q-1 -45 -1 -138v-501q0 -264 20 -410l-4 -6q-38 6 -104 6q-70 0 -107 -6l-2 6q21 146 21 410v247h-709v-247q0 -256 21 -410l-4 -6q-37 6 -105 6q-69 0 -106 -6l-2 6 q20 139 20 410v501q0 94 -1 138h-128v69h125q-5 129 -16 203l4 6q37 -6 104 -6q69 0 107 6l2 -6q-12 -77 -17 -203zM391 1049q-2 -90 -2 -138v-163h709v163q0 50 -2 138h-705z" />
<glyph unicode="&#x127;" horiz-adv-x="1124" d="M348 721l4 -6q46 55 98.5 93.5t100 57t85 26t71.5 7.5q135 0 194.5 -80t59.5 -244q0 -33 -2.5 -103t-2.5 -103q0 -230 19 -369l-4 -6q-37 6 -97 6q-58 0 -96 -6l-4 6q19 131 19 369v200q0 121 -33.5 164t-114.5 43q-63 0 -144 -41.5t-153 -126.5v-239q0 -221 19 -369 l-5 -6q-38 6 -96 6t-96 -6l-4 6q18 129 18 369v716h-131v80h129q-3 142 -16 217l4 7q90 7 178 41q19 0 19 -21q-13 -154 -16 -244h347v-80h-349q0 -9 -0.5 -28.5t-0.5 -30.5v-305z" />
<glyph unicode="&#x128;" horiz-adv-x="602" d="M436 1518q36 0 59 22t44 84l49 -12q-38 -185 -178 -185q-51 0 -131 54q-72 45 -111 45t-62 -23.5t-38 -75.5l-50 11q22 93 60.5 137.5t103.5 44.5q67 0 148 -57q59 -45 106 -45zM213 911q0 264 -20 410l4 6q37 -6 104 -6q68 0 105 6l4 -6q-21 -143 -21 -410v-501 q0 -256 21 -410l-4 -6q-37 6 -105 6q-67 0 -104 -6l-4 6q20 139 20 410v501z" />
<glyph unicode="&#x129;" horiz-adv-x="532" d="M400 1167q32 0 52.5 22.5t39.5 84.5l44 -12q-33 -185 -160 -185q-47 0 -118 53q-66 46 -100 46q-35 0 -55.5 -23.5t-34.5 -75.5l-44 10q20 93 54.5 138t92.5 45q59 0 133 -58q52 -45 96 -45zM184 481q0 276 -18 398l4 6q31 -2 88 -2t90 4q12 0 15.5 -4t3.5 -17 q-19 -183 -19 -352v-145q0 -222 19 -369l-5 -6q-38 6 -96 6t-96 -6l-4 6q18 133 18 369v112z" />
<glyph unicode="&#x12a;" horiz-adv-x="602" d="M543 1501h-500q-13 0 -20 9.5t-7 21.5q0 20 14 39.5t31 19.5h502q14 0 21.5 -9t7.5 -19q0 -20 -15 -41t-34 -21zM213 911q0 264 -20 410l4 6q37 -6 104 -6q68 0 105 6l4 -6q-21 -143 -21 -410v-501q0 -256 21 -410l-4 -6q-37 6 -105 6q-67 0 -104 -6l-4 6q20 139 20 410 v501z" />
<glyph unicode="&#x12b;" horiz-adv-x="532" d="M491 1102h-449q-12 0 -18 9.5t-6 21.5q0 19 12.5 39t27.5 20h452q12 0 19 -9t7 -20q0 -20 -14 -40.5t-31 -20.5zM184 481q0 276 -18 398l4 6q31 -2 88 -2t90 4q12 0 15.5 -4t3.5 -17q-19 -183 -19 -352v-145q0 -222 19 -369l-5 -6q-38 6 -96 6t-96 -6l-4 6q18 133 18 369 v112z" />
<glyph unicode="&#x12c;" horiz-adv-x="602" d="M584 1649q-9 -105 -91 -168.5t-188 -63.5q-115 0 -193 63.5t-85 168.5h57q12 -58 74 -91.5t147 -33.5q80 0 145.5 34t75.5 91h58zM213 911q0 264 -20 410l4 6q37 -6 104 -6q68 0 105 6l4 -6q-21 -143 -21 -410v-501q0 -256 21 -410l-4 -6q-37 6 -105 6q-67 0 -104 -6 l-4 6q20 139 20 410v501z" />
<glyph unicode="&#x12d;" horiz-adv-x="532" d="M80 1331q15 -82 69.5 -133t129.5 -51t130.5 48.5t68.5 135.5l50 -24q-16 -126 -89 -201.5t-160 -75.5q-97 0 -163 73.5t-85 203.5zM184 481q0 276 -18 398l4 6q31 -2 88 -2t90 4q12 0 15.5 -4t3.5 -17q-19 -183 -19 -352v-145q0 -222 19 -369l-5 -6q-38 6 -96 6t-96 -6 l-4 6q18 133 18 369v112z" />
<glyph unicode="&#x12e;" horiz-adv-x="602" d="M188 -461q-84 0 -137 46.5t-53 127.5q0 72 55 151t143 130l-3 6q20 139 20 410v501q0 264 -20 410l4 6q37 -6 104 -6q68 0 105 6l4 -6q-21 -143 -21 -410v-501q0 -256 21 -410l-4 -6q-12 2 -30 3q-107 -9 -181 -92t-74 -165q0 -51 32.5 -86t86.5 -35q76 0 143 74l31 -17 q-34 -67 -99 -102t-127 -35z" />
<glyph unicode="&#x12f;" horiz-adv-x="532" d="M143 -461q-85 0 -137.5 46t-52.5 128q0 77 59 159t154 131q18 141 18 366v112q0 276 -18 398l4 6q31 -2 88 -2t90 4q12 0 15.5 -4t3.5 -17q-19 -183 -19 -352v-145q0 -222 19 -369l-5 -6q-12 2 -30 3q-108 -8 -182 -91t-74 -166q0 -51 32.5 -86t86.5 -35q74 0 141 74 l33 -17q-34 -67 -99.5 -102t-126.5 -35zM164 1223q0 41 31.5 72.5t72.5 31.5t73 -31.5t32 -72.5t-32 -73t-73 -32t-72.5 32t-31.5 73z" />
<glyph unicode="&#x130;" horiz-adv-x="602" d="M199 1599q0 43 31.5 75t74.5 32t75 -32t32 -75t-32 -74.5t-75 -31.5t-74.5 31.5t-31.5 74.5zM213 911q0 264 -20 410l4 6q37 -6 104 -6q68 0 105 6l4 -6q-21 -143 -21 -410v-501q0 -256 21 -410l-4 -6q-37 6 -105 6q-67 0 -104 -6l-4 6q20 139 20 410v501z" />
<glyph unicode="&#x131;" horiz-adv-x="532" d="M184 481q0 276 -18 398l4 6q31 -2 88 -2t90 4q12 0 15.5 -4t3.5 -17q-19 -183 -19 -352v-145q0 -222 19 -369l-5 -6q-38 6 -96 6t-96 -6l-4 6q18 133 18 369v112z" />
<glyph unicode="&#x132;" horiz-adv-x="1204" d="M846 195v716q0 256 -21 410l4 6q38 -6 105 -6q68 0 106 6l2 -6q-20 -136 -20 -410v-671q0 -121 -10 -189t-36 -121t-83 -127q-120 -155 -324 -155q-63 0 -92 18l-2 6q25 42 57 168l23 2q40 -71 119 -71q34 0 60.5 14.5t44.5 37.5t31 59t19.5 70t10.5 80.5t5 81.5t1 81z M213 911q0 264 -20 410l4 6q37 -6 104 -6q68 0 105 6l4 -6q-21 -143 -21 -410v-501q0 -256 21 -410l-4 -6q-37 6 -105 6q-67 0 -104 -6l-4 6q20 139 20 410v501z" />
<glyph unicode="&#x133;" horiz-adv-x="1097" d="M715 1223q0 41 31.5 72.5t72.5 31.5t73 -31.5t32 -72.5t-32 -73t-73 -32t-72.5 32t-31.5 73zM903 514v-268q0 -223 -20.5 -334t-69.5 -188q-105 -166 -276 -166q-59 0 -88 18l-3 6q9 35 9 182l32 9q52 -92 123 -92q41 0 68 39t39.5 116.5t17 159t4.5 201.5v284 q0 276 -18 398l4 6q31 -2 88 -2t90 4q12 0 15.5 -4t3.5 -17q-19 -183 -19 -352zM164 1223q0 41 31.5 72.5t72.5 31.5t73 -31.5t32 -72.5t-32 -73t-73 -32t-72.5 32t-31.5 73zM184 481q0 276 -18 398l4 6q31 -2 88 -2t90 4q12 0 15.5 -4t3.5 -17q-19 -183 -19 -352v-145 q0 -222 19 -369l-5 -6q-38 6 -96 6t-96 -6l-4 6q18 133 18 369v112z" />
<glyph unicode="&#x134;" horiz-adv-x="655" d="M408 1649q85 -103 206 -193l-32 -43q-124 58 -217 127q-103 -74 -220 -127l-28 43q87 65 202 193h89zM287 195v716q0 256 -21 410l4 6q38 -6 105 -6q69 0 106 6l2 -6q-20 -136 -20 -410v-671q0 -121 -10 -189t-36 -121t-83 -127q-120 -155 -324 -155q-63 0 -92 18l-2 6 q25 42 57 168l23 2q40 -71 119 -71q34 0 60.5 14.5t44.5 37.5t31 59t19.5 70t10.5 80.5t5 81.5t1 81z" />
<glyph unicode="&#x135;" horiz-adv-x="557" d="M360 1319q67 -109 207 -264l-43 -29q-142 105 -217 184q-92 -95 -219 -184l-41 29q149 165 211 264h102zM373 514v-268q0 -223 -20.5 -334t-69.5 -188q-105 -166 -277 -166q-59 0 -88 18l-2 6q8 31 8 182l33 9q52 -92 123 -92q41 0 68 39t39.5 116.5t17 159t4.5 201.5 v284q0 269 -19 398l5 6q31 -2 88 -2t90 4q12 0 15 -3.5t3 -17.5q-18 -173 -18 -352z" />
<glyph unicode="&#x136;" horiz-adv-x="1288" d="M727 -80q58 0 92.5 -48t34.5 -128q0 -87 -60.5 -137.5t-156.5 -65.5q-16 16 -16 49q71 16 112 47.5t41 61.5q0 28 -15.5 39t-47.5 14q-86 15 -86 80q0 37 29 62.5t73 25.5zM213 911q0 264 -20 410l4 6q37 -6 104 -6q68 0 105 6l4 -6q-21 -143 -21 -410v-206q27 3 45 18 q246 216 584 604q27 -6 100 -6q72 0 105 6q-161 -141 -344.5 -316t-278.5 -286v-4l643 -727q-39 6 -127 6q-92 0 -127 -6q-445 549 -561 665q-14 12 -39 14v-263q0 -256 21 -410l-4 -6q-37 6 -105 6q-67 0 -104 -6l-4 6q20 139 20 410v501z" />
<glyph unicode="&#x137;" horiz-adv-x="1030" d="M545 -74q58 0 92.5 -48t34.5 -128q0 -87 -60.5 -137.5t-156.5 -65.5q-17 17 -17 50q71 16 112.5 47t41.5 61q0 28 -16 39t-48 14q-86 15 -86 80q0 37 29.5 62.5t73.5 25.5zM184 410v577q0 297 -18 395l4 7q90 7 178 41q19 0 19 -21q-19 -247 -19 -385v-532q56 4 90 30 q63 48 161.5 156t162.5 201q168 0 207 6l4 -6q-91 -77 -216.5 -197t-197.5 -195q87 -105 162.5 -186t160.5 -165t134 -136l-4 -6q-27 6 -123 6q-89 0 -135 -6q-86 125 -120 172.5t-85.5 110.5t-116.5 131q-12 11 -39 16.5t-45 5.5v-20q0 -271 19 -410l-5 -6q-38 6 -96 6 t-96 -6l-4 6q18 132 18 410z" />
<glyph unicode="&#x138;" horiz-adv-x="1015" d="M336 485q46 0 84 31q63 47 165 158t167 205q167 0 206 6l5 -6q-38 -32 -83 -74t-96 -94t-83.5 -85t-84 -87t-57.5 -60q87 -105 162 -184.5t157.5 -160t133.5 -134.5l-4 -6q-27 6 -123 6q-89 0 -135 -6q-42 58 -79.5 106t-77 92t-65 71t-74.5 77.5t-73 75.5q-20 18 -45 18 v51zM168 481q0 276 -18 398l4 6q31 -2 88 -2t90 4q12 0 15 -3.5t3 -17.5q-18 -173 -18 -352v-145q0 -230 18 -369l-4 -6q-38 6 -96 6t-96 -6l-4 6q18 133 18 369v112z" />
<glyph unicode="&#x139;" horiz-adv-x="1054" d="M391 911v-501q0 -226 17 -285q122 0 266 11t228 22l83 12l4 -8q-4 -32 -4 -72q0 -32 4 -90l-4 -6q-49 6 -123 6h-559q-31 0 -57.5 -1.5t-37.5 -2.5l-11 -2l-2 6q20 139 20 410v501q0 264 -20 410l4 6q37 -6 104 -6q69 0 107 6l2 -6q-21 -143 -21 -410zM393 1677 q88 -40 127 -106l-295 -119q-60 -25 -86 -25q-13 0 -21.5 9.5t-8.5 21.5q0 23 30 43z" />
<glyph unicode="&#x13a;" horiz-adv-x="516" d="M416 1735q87 -40 127 -107l-295 -119q-57 -24 -86 -24q-13 0 -22 9.5t-9 21.5q0 22 31 43zM184 410v577q0 297 -18 395l4 7q90 7 178 41q19 0 19 -21q-19 -247 -19 -385v-614q0 -271 19 -410l-5 -6q-38 6 -96 6t-96 -6l-4 6q18 132 18 410z" />
<glyph unicode="&#x13b;" horiz-adv-x="1054" d="M547 -88q58 0 92.5 -48t34.5 -128q0 -87 -60.5 -137.5t-156.5 -65.5q-17 17 -17 49q71 16 112.5 47.5t41.5 61.5q0 28 -16 39t-48 14q-86 15 -86 80q0 37 29.5 62.5t73.5 25.5zM391 911v-501q0 -226 17 -285q122 0 266 11t228 22l83 12l4 -8q-4 -32 -4 -72q0 -32 4 -90 l-4 -6q-49 6 -123 6h-559q-31 0 -57.5 -1.5t-37.5 -2.5l-11 -2l-2 6q20 139 20 410v501q0 264 -20 410l4 6q37 -6 104 -6q69 0 107 6l2 -6q-21 -143 -21 -410z" />
<glyph unicode="&#x13c;" horiz-adv-x="516" d="M184 410v577q0 297 -18 395l4 7q90 7 178 41q19 0 19 -21q-19 -247 -19 -385v-614q0 -271 19 -410l-5 -6q-38 6 -96 6t-96 -6l-4 6q18 132 18 410zM266 -102q58 0 92.5 -48.5t34.5 -128.5q0 -87 -60.5 -137t-156.5 -65q-16 16 -16 49q71 16 112 47t41 61q0 28 -15.5 39.5 t-47.5 14.5q-86 15 -86 80q0 37 29 62.5t73 25.5z" />
<glyph unicode="&#x13d;" horiz-adv-x="1054" d="M819 1430q56 0 89.5 -45.5t33.5 -104.5q0 -67 -56 -136.5t-153 -80.5l-10 35q59 12 94 56t35 85q0 20 -8.5 31.5t-20.5 11.5q-94 0 -94 78q0 27 23.5 48.5t66.5 21.5zM391 911v-501q0 -226 17 -285q122 0 266 11t228 22l83 12l4 -8q-4 -32 -4 -72q0 -32 4 -90l-4 -6 q-49 6 -123 6h-559q-31 0 -57.5 -1.5t-37.5 -2.5l-11 -2l-2 6q20 139 20 410v501q0 264 -20 410l4 6q37 -6 104 -6q69 0 107 6l2 -6q-21 -143 -21 -410z" />
<glyph unicode="&#x13e;" horiz-adv-x="593" d="M543 1430q56 0 89.5 -45.5t33.5 -104.5q0 -67 -56 -136.5t-153 -80.5l-11 35q59 12 94 56t35 85q0 20 -8 31.5t-20 11.5q-94 0 -94 78q0 27 23.5 48.5t66.5 21.5zM184 410v577q0 297 -18 395l4 7q90 7 178 41q19 0 19 -21q-19 -247 -19 -385v-614q0 -271 19 -410l-5 -6 q-38 6 -96 6t-96 -6l-4 6q18 132 18 410z" />
<glyph unicode="&#x13f;" horiz-adv-x="1054" d="M584 674v8q15 41 39.5 67t70.5 44h8q45 -17 71 -42.5t40 -68.5v-8q-16 -49 -41.5 -74.5t-69.5 -36.5h-8q-48 11 -72.5 35t-37.5 76zM391 911v-501q0 -226 17 -285q122 0 266 11t228 22l83 12l4 -8q-4 -32 -4 -72q0 -32 4 -90l-4 -6q-49 6 -123 6h-559q-31 0 -57.5 -1.5 t-37.5 -2.5l-11 -2l-2 6q20 139 20 410v501q0 264 -20 410l4 6q37 -6 104 -6q69 0 107 6l2 -6q-21 -143 -21 -410z" />
<glyph unicode="&#x140;" horiz-adv-x="516" d="M436 737q0 39 29.5 70t69.5 31q36 0 66 -30.5t30 -70.5q0 -39 -27.5 -67.5t-68.5 -28.5q-44 0 -71.5 28.5t-27.5 67.5zM184 410v577q0 297 -18 395l4 7q90 7 178 41q19 0 19 -21q-19 -247 -19 -385v-614q0 -271 19 -410l-5 -6q-38 6 -96 6t-96 -6l-4 6q18 132 18 410z " />
<glyph unicode="&#x141;" horiz-adv-x="1054" d="M635 920l37 -62l-281 -161v-287q0 -226 17 -285q122 0 266 11t228 22l83 12l4 -8q-4 -32 -4 -72q0 -32 4 -90l-4 -6q-49 6 -123 6h-559q-31 0 -57.5 -1.5t-37.5 -2.5l-11 -2l-2 6q20 139 20 410v186l-168 -96l-37 63l205 117v231q0 264 -20 410l4 6q37 -6 104 -6 q69 0 107 6l2 -6q-21 -143 -21 -410v-131z" />
<glyph unicode="&#x142;" horiz-adv-x="516" d="M498 897l34 -61l-184 -108v-318q0 -271 19 -410l-5 -6q-38 6 -96 6t-96 -6l-4 6q18 132 18 410v223l-137 -80l-35 59l172 101v274q0 297 -18 395l4 7q90 7 178 41q19 0 19 -21q-19 -247 -19 -385v-215z" />
<glyph unicode="&#x143;" horiz-adv-x="1470" d="M874 1679q88 -40 127 -106l-294 -119q-57 -24 -86 -24q-13 0 -22 9t-9 21q0 22 31 43zM221 1321l4 6q16 -6 86 -6l29 4l702 -909q72 -93 86 -105q25 -22 32 14q2 14 3 40v546q0 264 -20 410l4 6q37 -6 72 -6q33 0 71 6l4 -6q-12 -160 -19 -335.5t-10 -290t-6.5 -329.5 t-5.5 -323q-3 -63 -39 -63q-52 0 -88 49l-714 903q-21 27 -32.5 41t-21.5 21t-14.5 5.5t-7.5 -15.5t-3.5 -32t-0.5 -53v-489q0 -264 20 -410l-4 -6q-38 6 -72 6t-71 -6l-4 6q24 236 29 636.5t-9 684.5z" />
<glyph unicode="&#x144;" horiz-adv-x="1103" d="M635 1374q12 4 29 4q63 0 112 -47l6 -22l-235 -224q-38 -38 -62 -38q-11 0 -19.5 8t-8.5 18q0 16 4 25.5t19 31.5zM942 369q0 -230 19 -369l-5 -6q-38 6 -96 6t-96 -6l-4 6q18 132 18 369v200q0 121 -33 164t-114 43q-63 0 -144 -41.5t-153 -126.5v-239q0 -237 18 -369 l-4 -6q-38 6 -96 6t-96 -6l-4 6q18 125 18 369v112q0 284 -18 398l4 6q87 -9 166 6q12 0 12 -21v-149l4 -6q46 55 98 93.5t100 57t85 26t71 7.5q135 0 194.5 -80t59.5 -244q0 -33 -2 -103t-2 -103z" />
<glyph unicode="&#x145;" horiz-adv-x="1470" d="M733 -78q58 0 92.5 -48t34.5 -128q0 -87 -60.5 -137.5t-156.5 -65.5q-16 16 -16 49q71 16 112 47.5t41 61.5q0 28 -15.5 39t-47.5 14q-86 15 -86 80q0 37 29 62.5t73 25.5zM221 1321l4 6q16 -6 86 -6l29 4l702 -909q72 -93 86 -105q25 -22 32 14q2 14 3 40v546 q0 264 -20 410l4 6q37 -6 72 -6q33 0 71 6l4 -6q-12 -160 -19 -335.5t-10 -290t-6.5 -329.5t-5.5 -323q-3 -63 -39 -63q-52 0 -88 49l-714 903q-21 27 -32.5 41t-21.5 21t-14.5 5.5t-7.5 -15.5t-3.5 -32t-0.5 -53v-489q0 -264 20 -410l-4 -6q-38 6 -72 6t-71 -6l-4 6 q24 236 29 636.5t-9 684.5z" />
<glyph unicode="&#x146;" horiz-adv-x="1103" d="M526 -84q58 0 92.5 -48t34.5 -128q0 -87 -60.5 -137.5t-156.5 -65.5q-16 16 -16 49q71 16 112 47.5t41 61.5q0 28 -15.5 39t-47.5 14q-86 15 -86 80q0 37 29 62.5t73 25.5zM942 369q0 -230 19 -369l-5 -6q-38 6 -96 6t-96 -6l-4 6q18 132 18 369v200q0 121 -33 164 t-114 43q-63 0 -144 -41.5t-153 -126.5v-239q0 -237 18 -369l-4 -6q-38 6 -96 6t-96 -6l-4 6q18 125 18 369v112q0 284 -18 398l4 6q87 -9 166 6q12 0 12 -21v-149l4 -6q46 55 98 93.5t100 57t85 26t71 7.5q135 0 194.5 -80t59.5 -244q0 -33 -2 -103t-2 -103z" />
<glyph unicode="&#x147;" horiz-adv-x="1470" d="M678 1427q-75 93 -207 195l33 41q121 -53 217 -125q118 82 219 125l31 -41q-103 -78 -205 -195h-88zM221 1321l4 6q16 -6 86 -6l29 4l702 -909q72 -93 86 -105q25 -22 32 14q2 14 3 40v546q0 264 -20 410l4 6q37 -6 72 -6q33 0 71 6l4 -6q-12 -160 -19 -335.5t-10 -290 t-6.5 -329.5t-5.5 -323q-3 -63 -39 -63q-52 0 -88 49l-714 903q-21 27 -32.5 41t-21.5 21t-14.5 5.5t-7.5 -15.5t-3.5 -32t-0.5 -53v-489q0 -264 20 -410l-4 -6q-38 6 -72 6t-71 -6l-4 6q24 236 29 636.5t-9 684.5z" />
<glyph unicode="&#x148;" horiz-adv-x="1103" d="M496 1030q-77 125 -207 266l41 27q142 -105 217 -184q80 82 221 184l39 -27q-139 -154 -209 -266h-102zM942 369q0 -230 19 -369l-5 -6q-38 6 -96 6t-96 -6l-4 6q18 132 18 369v200q0 121 -33 164t-114 43q-63 0 -144 -41.5t-153 -126.5v-239q0 -237 18 -369l-4 -6 q-38 6 -96 6t-96 -6l-4 6q18 125 18 369v112q0 284 -18 398l4 6q87 -9 166 6q12 0 12 -21v-149l4 -6q46 55 98 93.5t100 57t85 26t71 7.5q135 0 194.5 -80t59.5 -244q0 -33 -2 -103t-2 -103z" />
<glyph unicode="&#x149;" horiz-adv-x="1103" d="M147 1430q56 0 89.5 -45.5t33.5 -104.5q0 -67 -56 -136.5t-153 -80.5l-10 35q59 12 94 56t35 85q0 20 -8 31.5t-20 11.5q-95 0 -95 78q0 27 23.5 48.5t66.5 21.5zM969 369q0 -237 18 -369l-4 -6q-37 6 -96 6t-96 -6l-5 6q19 139 19 369v200q0 121 -33.5 164t-114.5 43 q-63 0 -144 -41.5t-153 -126.5v-239q0 -230 19 -369l-4 -6q-37 6 -96 6t-97 -6l-4 6q19 132 19 369v112q0 277 -19 398l4 6q87 -9 166 6q12 0 12 -21v-149l5 -6q46 55 98 93.5t100 57t85 26t71 7.5q135 0 194.5 -80t59.5 -244q0 -33 -2 -103t-2 -103z" />
<glyph unicode="&#x14a;" horiz-adv-x="1423" d="M207 911q0 256 -21 410l4 6q35 -6 105 -6l29 4l702 -909q15 -20 40 -52q44 -60 54 -62q7 -2 10 15l3 48v546q0 256 -21 410l4 6q22 -6 72 -6q20 0 38 1.5t26 3.5l8 1l2 -6q-21 -143 -21 -410v-671q0 -174 -23.5 -252.5t-105.5 -186.5q-119 -155 -324 -155q-63 0 -92 18 l-2 6q27 45 58 168l22 2q40 -71 119 -71q157 0 187 298l-685 865q-21 27 -32.5 41t-21.5 21t-14.5 5.5t-7.5 -15.5t-3.5 -32t-0.5 -53v-489q0 -256 21 -410l-4 -6q-22 6 -72 6q-20 0 -38 -1.5t-26 -2.5l-8 -2l-2 6q21 143 21 410v501z" />
<glyph unicode="&#x14b;" horiz-adv-x="1085" d="M334 369q0 -237 18 -369l-4 -6q-38 6 -96 6t-96 -6l-4 6q18 125 18 369v112q0 284 -18 398l4 6q87 -9 166 6q12 0 12 -21v-149l4 -6q150 184 373 184q67 0 113.5 -24.5t71.5 -70t35.5 -101t10.5 -128.5v-579q0 -111 -16 -166t-68 -125q-53 -72 -118.5 -106.5 t-153.5 -34.5q-58 0 -86 16l-2 6q11 21 19 77.5t13 74.5l21 2q13 -24 20.5 -35t25.5 -21t44 -10q143 0 143 197q0 8 -1.5 44.5t-3 110t-1.5 171.5v372q0 109 -31 158t-104 49q-74 0 -155 -40t-154 -126v-241z" />
<glyph unicode="&#x14c;" horiz-adv-x="1517" d="M969 1501h-500q-13 0 -20 9.5t-7 21.5q0 20 14 39.5t31 19.5h502q14 0 21.5 -9t7.5 -19q0 -20 -15 -41t-34 -21zM727 1257q-61 0 -118.5 -19.5t-111 -64t-93 -110.5t-63.5 -167t-24 -226q0 -143 40 -259t108 -189t153 -112.5t179 -39.5q180 0 291.5 148.5t111.5 416.5 q0 311 -125 466.5t-348 155.5zM1411 674q0 -203 -81.5 -361t-231 -245.5t-342.5 -87.5q-177 0 -324 78.5t-236.5 229.5t-89.5 347q0 198 85 361.5t233.5 257.5t329.5 94q184 0 333 -83t236.5 -237.5t87.5 -353.5z" />
<glyph unicode="&#x14d;" d="M758 1102h-500q-13 0 -20 9.5t-7 21.5q0 20 14 39.5t31 19.5h502q14 0 21.5 -9t7.5 -20q0 -20 -15 -40.5t-34 -20.5zM78 420q0 218 120.5 348.5t321.5 130.5q204 0 315 -124t111 -337q0 -204 -117 -331t-317 -127q-199 0 -316.5 125t-117.5 315zM506 817q-56 0 -99.5 -21 t-71 -55t-45.5 -82t-25 -98t-7 -106q0 -52 7 -102t26.5 -104.5t49 -95t78.5 -66.5t111 -26q102 0 169 96.5t67 243.5q0 101 -10.5 171t-38 128.5t-80 87.5t-131.5 29z" />
<glyph unicode="&#x14e;" horiz-adv-x="1517" d="M1014 1649q-9 -105 -91 -168.5t-188 -63.5q-115 0 -193 63.5t-85 168.5h57q12 -58 74 -91.5t147 -33.5q80 0 145.5 34t75.5 91h58zM727 1257q-61 0 -118.5 -19.5t-111 -64t-93 -110.5t-63.5 -167t-24 -226q0 -143 40 -259t108 -189t153 -112.5t179 -39.5 q180 0 291.5 148.5t111.5 416.5q0 311 -125 466.5t-348 155.5zM1411 674q0 -203 -81.5 -361t-231 -245.5t-342.5 -87.5q-177 0 -324 78.5t-236.5 229.5t-89.5 347q0 198 85 361.5t233.5 257.5t329.5 94q184 0 333 -83t236.5 -237.5t87.5 -353.5z" />
<glyph unicode="&#x14f;" d="M289 1321q17 -82 77.5 -133t143.5 -51t144.5 49t76.5 135l55 -25q-18 -126 -99 -201t-177 -75q-108 0 -181.5 73t-95.5 203zM78 420q0 218 120.5 348.5t321.5 130.5q204 0 315 -124t111 -337q0 -204 -117 -331t-317 -127q-199 0 -316.5 125t-117.5 315zM506 817 q-56 0 -99.5 -21t-71 -55t-45.5 -82t-25 -98t-7 -106q0 -52 7 -102t26.5 -104.5t49 -95t78.5 -66.5t111 -26q102 0 169 96.5t67 243.5q0 101 -10.5 171t-38 128.5t-80 87.5t-131.5 29z" />
<glyph unicode="&#x150;" horiz-adv-x="1517" d="M1040 1622q0 -27 -14 -41l-203 -172q-6 -6 -16 -6q-9 0 -18 8t-9 19q0 8 8 22l121 223q16 25 47 25q41 0 62.5 -24.5t21.5 -53.5zM772 1632q0 -28 -14 -39l-180 -165q-17 -15 -29 -15q-11 0 -19 7.5t-8 17.5q0 12 5 22l112 226q15 24 55 24q27 0 52.5 -22.5t25.5 -55.5z M727 1257q-61 0 -118.5 -19.5t-111 -64t-93 -110.5t-63.5 -167t-24 -226q0 -143 40 -259t108 -189t153 -112.5t179 -39.5q180 0 291.5 148.5t111.5 416.5q0 311 -125 466.5t-348 155.5zM1411 674q0 -203 -81.5 -361t-231 -245.5t-342.5 -87.5q-177 0 -324 78.5t-236.5 229.5 t-89.5 347q0 198 85 361.5t233.5 257.5t329.5 94q184 0 333 -83t236.5 -237.5t87.5 -353.5z" />
<glyph unicode="&#x151;" d="M834 1251q0 -24 -15 -39l-233 -225q-4 -4 -13 -4t-18.5 8t-9.5 19q0 6 2 8l160 285q13 24 49 24q32 0 55 -23.5t23 -52.5zM563 1264q0 -20 -10 -33l-209 -248q-6 -6 -16 -6t-19.5 8t-9.5 19q0 4 2 6l131 299q12 28 53 28q33 0 55.5 -21t22.5 -52zM78 420 q0 218 120.5 348.5t321.5 130.5q204 0 315 -124t111 -337q0 -204 -117 -331t-317 -127q-199 0 -316.5 125t-117.5 315zM506 817q-56 0 -99.5 -21t-71 -55t-45.5 -82t-25 -98t-7 -106q0 -52 7 -102t26.5 -104.5t49 -95t78.5 -66.5t111 -26q102 0 169 96.5t67 243.5 q0 101 -10.5 171t-38 128.5t-80 87.5t-131.5 29z" />
<glyph unicode="&#x152;" horiz-adv-x="1716" d="M713 76h26q60 0 82.5 19t22.5 63v1007q0 46 -22.5 61t-82.5 15h-71q-62 0 -115 -17t-101 -58.5t-82 -105t-53.5 -163t-19.5 -227.5q0 -153 35 -270.5t94.5 -186.5t132 -103t154.5 -34zM932 0l-215 -4q-188 1 -333 88t-221.5 235t-76.5 332q0 186 71.5 337.5t211.5 243 t325 91.5q145 -2 238 -2h538q74 0 123 6l4 -6q-4 -58 -4 -64q0 -21 4 -53l-4 -8q-284 25 -557 25q-16 -56 -16 -310v-168q203 0 457 21l6 -6q-6 -27 -6 -58q0 -30 6 -57l-6 -6q-201 20 -457 20v-247q0 -243 16 -299q122 0 266.5 6t227.5 12l84 6l4 -8q-4 -32 -4 -68 q0 -1 4 -59l-4 -6q-50 6 -123 6h-559z" />
<glyph unicode="&#x153;" horiz-adv-x="1587" d="M942 588h371q28 0 28 28q0 105 -49.5 153t-115.5 48q-19 0 -39.5 -3t-53 -16.5t-58 -36.5t-49.5 -68t-34 -105zM1497 215l41 -53q-61 -83 -152 -132.5t-198 -49.5q-122 0 -213 45.5t-146 126.5q-40 -58 -78.5 -92.5t-105 -57t-160.5 -22.5q-191 0 -303 124t-112 318 q0 116 36.5 208.5t98 150t139 88t164.5 30.5q74 0 131 -14.5t96 -42.5t63.5 -57t49.5 -70q62 87 150 135.5t178 48.5q97 0 167.5 -32.5t108.5 -87.5t55 -116.5t17 -130.5q0 -34 -37 -34h-551q0 -88 19.5 -158.5t50 -114t70.5 -73t78 -41t75 -11.5q162 0 268 115zM254 485 q0 -88 15 -162.5t45 -134t81.5 -93.5t118.5 -34q41 0 78.5 14.5t75.5 49.5t61 108t23 175q0 90 -17 163t-43.5 118t-60.5 75.5t-65 42.5t-60 12q-62 0 -112 -32t-79.5 -82.5t-45 -107.5t-15.5 -112z" />
<glyph unicode="&#x154;" horiz-adv-x="1228" d="M647 1679q88 -40 127 -106l-295 -119q-57 -24 -86 -24q-13 0 -22 9t-9 21q0 22 31 43zM389 586v-176q0 -256 21 -410l-4 -6q-37 6 -105 6q-67 0 -104 -6l-4 6q20 139 20 410v501q0 264 -20 410l4 6q37 -6 104 -6q32 0 142.5 7t134.5 7q82 0 138 -4.5t127.5 -27.5 t117.5 -66q108 -102 108 -256q0 -118 -57 -201.5t-148 -128.5q-45 -23 -124 -39q48 -64 214.5 -305.5t223.5 -306.5l-4 -6q-41 6 -123 6q-84 0 -123 -6q-16 50 -75.5 159.5t-119.5 206.5q-11 17 -37 60l-39 64.5t-35.5 52.5t-42.5 55q-82 -6 -190 -6zM580 1247 q-73 0 -108 -2t-56 -13.5t-24 -26t-3 -48.5v-489h119q63 0 114.5 8t99 29.5t80 56t51.5 89.5t19 128q0 64 -18.5 112.5t-47.5 77.5t-69.5 47t-78 24.5t-78.5 6.5z" />
<glyph unicode="&#x155;" horiz-adv-x="727" d="M494 1374q12 4 28 4q64 0 113 -47l6 -22l-235 -224q-38 -38 -62 -38q-11 0 -20 8t-9 18q0 4 0.5 8t1 6.5t2 6.5t2 6t3.5 7t4 6.5t5.5 8t5.5 8.5zM342 684l6 -4q71 123 125.5 171t134.5 48q14 0 23.5 -1t13.5 -2t16.5 -5t20.5 -6l8 -8l-41 -152l-16 -4q-31 29 -107 29 q-30 0 -61 -19t-53 -53q-37 -58 -53.5 -100.5t-16.5 -102.5v-106q0 -229 18 -369l-4 -6q-38 6 -96 6t-96 -6l-4 6q18 124 18 369v112q0 284 -18 398l4 6q87 -9 166 6q12 0 12 -21v-186z" />
<glyph unicode="&#x156;" horiz-adv-x="1228" d="M594 -88q58 0 92.5 -48t34.5 -128q0 -87 -60.5 -137.5t-156.5 -65.5q-17 17 -17 49q71 16 112.5 47.5t41.5 61.5q0 28 -15.5 39t-47.5 14q-86 15 -86 80q0 37 29 62.5t73 25.5zM389 586v-176q0 -256 21 -410l-4 -6q-37 6 -105 6q-67 0 -104 -6l-4 6q20 139 20 410v501 q0 264 -20 410l4 6q37 -6 104 -6q32 0 142.5 7t134.5 7q82 0 138 -4.5t127.5 -27.5t117.5 -66q108 -102 108 -256q0 -118 -57 -201.5t-148 -128.5q-45 -23 -124 -39q48 -64 214.5 -305.5t223.5 -306.5l-4 -6q-41 6 -123 6q-84 0 -123 -6q-16 50 -75.5 159.5t-119.5 206.5 q-11 17 -37 60l-39 64.5t-35.5 52.5t-42.5 55q-82 -6 -190 -6zM580 1247q-73 0 -108 -2t-56 -13.5t-24 -26t-3 -48.5v-489h119q63 0 114.5 8t99 29.5t80 56t51.5 89.5t19 128q0 64 -18.5 112.5t-47.5 77.5t-69.5 47t-78 24.5t-78.5 6.5z" />
<glyph unicode="&#x157;" horiz-adv-x="727" d="M260 -84q58 0 92.5 -48t34.5 -128q0 -87 -60.5 -137.5t-156.5 -65.5q-16 16 -16 49q71 16 112 47.5t41 61.5q0 28 -15.5 39t-47.5 14q-86 15 -86 80q0 37 29 62.5t73 25.5zM342 684l6 -4q71 123 125.5 171t134.5 48q14 0 23.5 -1t13.5 -2t16.5 -5t20.5 -6l8 -8l-41 -152 l-16 -4q-31 29 -107 29q-30 0 -61 -19t-53 -53q-37 -58 -53.5 -100.5t-16.5 -102.5v-106q0 -229 18 -369l-4 -6q-38 6 -96 6t-96 -6l-4 6q18 124 18 369v112q0 284 -18 398l4 6q87 -9 166 6q12 0 12 -21v-186z" />
<glyph unicode="&#x158;" horiz-adv-x="1228" d="M500 1427q-75 93 -207 195l33 41q121 -53 217 -125q118 82 219 125l31 -41q-103 -78 -205 -195h-88zM389 586v-176q0 -256 21 -410l-4 -6q-37 6 -105 6q-67 0 -104 -6l-4 6q20 139 20 410v501q0 264 -20 410l4 6q37 -6 104 -6q32 0 142.5 7t134.5 7q82 0 138 -4.5 t127.5 -27.5t117.5 -66q108 -102 108 -256q0 -118 -57 -201.5t-148 -128.5q-45 -23 -124 -39q48 -64 214.5 -305.5t223.5 -306.5l-4 -6q-41 6 -123 6q-84 0 -123 -6q-16 50 -75.5 159.5t-119.5 206.5q-11 17 -37 60l-39 64.5t-35.5 52.5t-42.5 55q-82 -6 -190 -6zM580 1247 q-73 0 -108 -2t-56 -13.5t-24 -26t-3 -48.5v-489h119q63 0 114.5 8t99 29.5t80 56t51.5 89.5t19 128q0 64 -18.5 112.5t-47.5 77.5t-69.5 47t-78 24.5t-78.5 6.5z" />
<glyph unicode="&#x159;" horiz-adv-x="727" d="M358 1030q-79 128 -206 266l41 27q142 -105 217 -184q80 82 221 184l39 -27q-139 -154 -209 -266h-103zM342 684l6 -4q71 123 125.5 171t134.5 48q14 0 23.5 -1t13.5 -2t16.5 -5t20.5 -6l8 -8l-41 -152l-16 -4q-31 29 -107 29q-30 0 -61 -19t-53 -53 q-37 -58 -53.5 -100.5t-16.5 -102.5v-106q0 -229 18 -369l-4 -6q-38 6 -96 6t-96 -6l-4 6q18 124 18 369v112q0 284 -18 398l4 6q87 -9 166 6q12 0 12 -21v-186z" />
<glyph unicode="&#x15a;" horiz-adv-x="1036" d="M496 70q97 0 168 64.5t71 174.5q0 63 -17.5 111.5t-53 82.5t-74 57t-94.5 46q-59 25 -103 47.5t-94 58t-81.5 73.5t-53 92t-21.5 116q0 107 65 193t161 127q83 35 176 35q67 0 125.5 -9.5t93.5 -23t60.5 -27.5t35.5 -24l10 -9l4 -6q-39 -133 -47 -205l-20 -2 q-42 96 -118.5 155.5t-160.5 59.5q-78 0 -125 -24q-40 -22 -67 -75t-27 -109q0 -49 17 -90t40 -67t61 -50t65 -35.5t67 -26.5q56 -21 102.5 -43.5t98 -59t86 -78t57.5 -100.5t23 -128q0 -175 -127 -283t-320 -108q-67 0 -130 9.5t-105.5 23t-75 27t-47.5 22.5l-15 10l-4 6 q3 10 13 46.5t15 56t11 51t9 57.5l20 2q47 -91 143.5 -156t182.5 -65zM578 1679q88 -40 127 -106l-295 -119q-57 -24 -86 -24q-13 0 -22 9t-9 21q0 22 31 43z" />
<glyph unicode="&#x15b;" horiz-adv-x="811" d="M102 207l31 2q46 -65 109.5 -106.5t132.5 -41.5q84 0 136 45t52 125q0 68 -50.5 102.5t-156.5 63.5q-53 15 -91 31.5t-76 45t-58 72.5t-20 103q0 81 46.5 139.5t115 84.5t147.5 26q74 0 151.5 -18t124.5 -43l4 -7l-41 -151l-28 -2q-59 69 -93 94q-60 45 -126 45 q-69 0 -112.5 -34t-43.5 -95q0 -113 190 -160q60 -14 105.5 -33.5t87 -50t64 -77.5t22.5 -107q0 -37 -8.5 -72.5t-32.5 -74.5t-61.5 -67.5t-101 -47t-144.5 -18.5q-152 0 -309 55zM465 1374q12 4 29 4q63 0 112 -47l6 -22l-235 -224q-38 -38 -62 -38q-11 0 -19.5 8t-8.5 18 q0 16 4 25.5t19 31.5z" />
<glyph unicode="&#x15c;" horiz-adv-x="1036" d="M512 1663q83 -101 207 -193l-33 -43q-124 58 -217 127q-104 -76 -219 -127l-29 43q90 68 203 193h88zM496 70q97 0 168 64.5t71 174.5q0 63 -17.5 111.5t-53 82.5t-74 57t-94.5 46q-59 25 -103 47.5t-94 58t-81.5 73.5t-53 92t-21.5 116q0 107 65 193t161 127 q83 35 176 35q67 0 125.5 -9.5t93.5 -23t60.5 -27.5t35.5 -24l10 -9l4 -6q-39 -133 -47 -205l-20 -2q-42 96 -118.5 155.5t-160.5 59.5q-78 0 -125 -24q-40 -22 -67 -75t-27 -109q0 -49 17 -90t40 -67t61 -50t65 -35.5t67 -26.5q56 -21 102.5 -43.5t98 -59t86 -78 t57.5 -100.5t23 -128q0 -175 -127 -283t-320 -108q-67 0 -130 9.5t-105.5 23t-75 27t-47.5 22.5l-15 10l-4 6q3 10 13 46.5t15 56t11 51t9 57.5l20 2q47 -91 143.5 -156t182.5 -65z" />
<glyph unicode="&#x15d;" horiz-adv-x="811" d="M102 207l31 2q46 -65 109.5 -106.5t132.5 -41.5q84 0 136 45t52 125q0 68 -50.5 102.5t-156.5 63.5q-53 15 -91 31.5t-76 45t-58 72.5t-20 103q0 81 46.5 139.5t115 84.5t147.5 26q74 0 151.5 -18t124.5 -43l4 -7l-41 -151l-28 -2q-59 69 -93 94q-60 45 -126 45 q-69 0 -112.5 -34t-43.5 -95q0 -113 190 -160q60 -14 105.5 -33.5t87 -50t64 -77.5t22.5 -107q0 -37 -8.5 -72.5t-32.5 -74.5t-61.5 -67.5t-101 -47t-144.5 -18.5q-152 0 -309 55zM451 1323q69 -112 206 -264l-43 -29q-142 105 -217 184q-92 -95 -219 -184l-41 29 q149 165 211 264h103z" />
<glyph unicode="&#x15e;" horiz-adv-x="1036" d="M494 -223q-50 0 -93 -13l-12 13l82 196h70l-52 -137q24 6 54 6q63 0 104 -35t41 -92q0 -66 -62.5 -108.5t-156.5 -42.5q-74 0 -152 35q0 32 21 53q35 -13 48 -17t32 -8t39 -4q47 0 75.5 21.5t28.5 60.5q0 72 -67 72zM496 70q97 0 168 64.5t71 174.5q0 63 -17.5 111.5 t-53 82.5t-74 57t-94.5 46q-59 25 -103 47.5t-94 58t-81.5 73.5t-53 92t-21.5 116q0 107 65 193t161 127q83 35 176 35q67 0 125.5 -9.5t93.5 -23t60.5 -27.5t35.5 -24l10 -9l4 -6q-39 -133 -47 -205l-20 -2q-42 96 -118.5 155.5t-160.5 59.5q-78 0 -125 -24 q-40 -22 -67 -75t-27 -109q0 -49 17 -90t40 -67t61 -50t65 -35.5t67 -26.5q56 -21 102.5 -43.5t98 -59t86 -78t57.5 -100.5t23 -128q0 -175 -127 -283t-320 -108q-67 0 -130 9.5t-105.5 23t-75 27t-47.5 22.5l-15 10l-4 6q3 10 13 46.5t15 56t11 51t9 57.5l20 2 q47 -91 143.5 -156t182.5 -65z" />
<glyph unicode="&#x15f;" horiz-adv-x="811" d="M102 207l31 2q46 -65 109.5 -106.5t132.5 -41.5q84 0 136 45t52 125q0 68 -50.5 102.5t-156.5 63.5q-53 15 -91 31.5t-76 45t-58 72.5t-20 103q0 81 46.5 139.5t115 84.5t147.5 26q74 0 151.5 -18t124.5 -43l4 -7l-41 -151l-28 -2q-59 69 -93 94q-60 45 -126 45 q-69 0 -112.5 -34t-43.5 -95q0 -113 190 -160q60 -14 105.5 -33.5t87 -50t64 -77.5t22.5 -107q0 -37 -8.5 -72.5t-32.5 -74.5t-61.5 -67.5t-101 -47t-144.5 -18.5h67l-51 -138q24 6 53 6q63 0 104.5 -35t41.5 -92q0 -66 -62.5 -108.5t-156.5 -42.5q-74 0 -152 35q0 32 21 53 q72 -26 101 -28q8 -1 17 -1q47 0 76 21.5t29 60.5q0 72 -68 72q-52 0 -92 -12l-12 12l82 197q-151 0 -307 55z" />
<glyph unicode="&#x160;" horiz-adv-x="1036" d="M440 1427q-75 93 -207 195l33 41q121 -53 217 -125q118 82 219 125l31 -41q-103 -78 -205 -195h-88zM496 70q97 0 168 64.5t71 174.5q0 63 -17.5 111.5t-53 82.5t-74 57t-94.5 46q-59 25 -103 47.5t-94 58t-81.5 73.5t-53 92t-21.5 116q0 107 65 193t161 127 q83 35 176 35q67 0 125.5 -9.5t93.5 -23t60.5 -27.5t35.5 -24l10 -9l4 -6q-39 -133 -47 -205l-20 -2q-42 96 -118.5 155.5t-160.5 59.5q-78 0 -125 -24q-40 -22 -67 -75t-27 -109q0 -49 17 -90t40 -67t61 -50t65 -35.5t67 -26.5q56 -21 102.5 -43.5t98 -59t86 -78 t57.5 -100.5t23 -128q0 -175 -127 -283t-320 -108q-67 0 -130 9.5t-105.5 23t-75 27t-47.5 22.5l-15 10l-4 6q3 10 13 46.5t15 56t11 51t9 57.5l20 2q47 -91 143.5 -156t182.5 -65z" />
<glyph unicode="&#x161;" horiz-adv-x="811" d="M102 207l31 2q46 -65 109.5 -106.5t132.5 -41.5q84 0 136 45t52 125q0 68 -50.5 102.5t-156.5 63.5q-53 15 -91 31.5t-76 45t-58 72.5t-20 103q0 81 46.5 139.5t115 84.5t147.5 26q74 0 151.5 -18t124.5 -43l4 -7l-41 -151l-28 -2q-59 69 -93 94q-60 45 -126 45 q-69 0 -112.5 -34t-43.5 -95q0 -113 190 -160q60 -14 105.5 -33.5t87 -50t64 -77.5t22.5 -107q0 -37 -8.5 -72.5t-32.5 -74.5t-61.5 -67.5t-101 -47t-144.5 -18.5q-152 0 -309 55zM346 1028q-77 125 -207 266l41 27q142 -105 217 -184q80 82 221 184l39 -27 q-136 -151 -208 -266h-103z" />
<glyph unicode="&#x162;" horiz-adv-x="1105" d="M549 -188q-49 0 -92 -13l-13 13l79 187q-58 -2 -74 -5l-5 6q21 146 21 410v501q0 239 -16 295q-122 0 -225.5 -7t-145.5 -14l-43 -7l-4 8q6 48 0 135l4 6q50 -6 123 -6h790q73 0 123 6l4 -6q-6 -87 0 -135l-4 -8q-141 28 -414 28q-16 -56 -16 -295v-501q0 -256 21 -410 l-5 -6q-25 3 -65 5l-47 -128q24 6 53 6q63 0 104 -35t41 -92q0 -66 -62.5 -108.5t-156.5 -42.5q-76 0 -151 34q0 34 20 54q35 -13 48 -17t32 -8t39 -4q47 0 75.5 21.5t28.5 60.5q0 72 -67 72z" />
<glyph unicode="&#x163;" horiz-adv-x="696" d="M344 -217q-52 0 -92 -12l-12 12l82 197h47q-49 0 -89 20.5t-66 66t-26 109.5q0 23 3.5 143t3.5 189v280q-99 0 -146 -4l-10 15q27 42 45 84q33 -4 111 -4q0 120 8 262l4 6q23 3 43.5 9t33.5 12t32 15t34 15q19 0 19 -20q-7 -96 -9 -143t-2 -156h97q21 0 47.5 0.5t55 2 t40.5 1.5l10 -15q-16 -40 -24 -84q-36 4 -148 4h-78v-258q0 -69 -3 -159t-3 -113q0 -84 15.5 -123t52.5 -45q79 -12 161 16l25 -51q-59 -38 -109 -55.5t-106 -19.5l-51 -138q24 6 53 6q63 0 104.5 -35t41.5 -92q0 -66 -63 -108.5t-157 -42.5q-46 0 -77 8t-74 27q0 33 20 53 q35 -13 48 -17t32 -8t39 -4q47 0 76 21.5t29 60.5q0 72 -68 72z" />
<glyph unicode="&#x164;" horiz-adv-x="1105" d="M518 1427q-75 93 -207 195l33 41q121 -53 217 -125q118 82 219 125l31 -41q-103 -78 -205 -195h-88zM465 911q0 239 -16 295q-122 0 -225.5 -7t-145.5 -14l-43 -7l-4 8q6 48 0 135l4 6q50 -6 123 -6h790q73 0 123 6l4 -6q-6 -87 0 -135l-4 -8q-141 28 -414 28 q-16 -56 -16 -295v-501q0 -256 21 -410l-5 -6q-37 6 -104 6t-104 -6l-5 6q21 146 21 410v501z" />
<glyph unicode="&#x165;" horiz-adv-x="696" d="M543 1430q56 0 89.5 -45.5t33.5 -104.5q0 -67 -56 -136.5t-153 -80.5l-11 35q59 12 94 56t35 85q0 20 -8 31.5t-20 11.5q-94 0 -94 78q0 27 23.5 48.5t66.5 21.5zM195 879q0 120 8 262l4 6q30 4 52.5 11.5t49 20.5t41.5 19q19 0 19 -20q-11 -145 -11 -299h97 q21 0 47.5 0.5t55 2t40.5 1.5l10 -15q-16 -40 -24 -84q-36 4 -148 4h-78v-258q0 -69 -3 -159t-3 -113q0 -84 15.5 -123t52.5 -45q79 -12 161 16l25 -51q-64 -41 -118 -58t-119 -17q-76 0 -128.5 51t-52.5 145q0 23 3.5 143t3.5 189v280q-99 0 -146 -4l-10 15q27 42 45 84 q33 -4 111 -4z" />
<glyph unicode="&#x166;" horiz-adv-x="1105" d="M207 674v80h258v157q0 239 -16 295q-122 0 -225.5 -7t-145.5 -14l-43 -7l-4 8q6 48 0 135l4 6q50 -6 123 -6h790q73 0 123 6l4 -6q-6 -87 0 -135l-4 -8q-141 28 -414 28q-16 -56 -16 -295v-157h277v-80h-277v-264q0 -256 21 -410l-5 -6q-37 6 -104 6t-104 -6l-5 6 q21 146 21 410v264h-258z" />
<glyph unicode="&#x167;" horiz-adv-x="696" d="M559 582v-80h-201q-1 -58 -3.5 -138t-2.5 -106q0 -84 15.5 -123t52.5 -45q79 -12 161 16l25 -51q-64 -41 -118 -58t-119 -17q-76 0 -128.5 51t-52.5 145q0 22 3.5 139.5t3.5 186.5h-154v80h154v206q-99 0 -146 -4l-10 15q27 42 45 84q33 -4 111 -4q0 120 8 262l4 6 q30 4 52.5 11.5t49 20.5t41.5 19q19 0 19 -20q-11 -145 -11 -299h97q21 0 47.5 0.5t55 2t40.5 1.5l10 -15q-16 -40 -24 -84q-36 4 -148 4h-78v-206h201z" />
<glyph unicode="&#x168;" horiz-adv-x="1417" d="M887 1520q36 0 58.5 22t43.5 84l49 -12q-37 -184 -178 -184q-52 0 -131 53q-72 45 -111 45t-62 -23t-38 -75l-49 10q22 93 60.5 137.5t103.5 44.5q66 0 147 -57q59 -45 107 -45zM1114 911q0 264 -20 410l4 6q38 -6 71 -6q35 0 72 6l4 -6q-20 -136 -20 -410v-307 q0 -115 -15 -206t-52.5 -171t-97.5 -133t-153.5 -83.5t-216.5 -30.5q-62 0 -121 11.5t-125.5 45.5t-116 87.5t-82 146t-32.5 212.5v428q0 264 -20 410l4 6q37 -6 104 -6q68 0 105 6l4 -6q-21 -143 -21 -410v-360q0 -28 0.5 -45.5t3.5 -56t8.5 -66.5t17.5 -67.5t28.5 -68 t43.5 -59t60 -50t79.5 -32t102.5 -12.5q72 0 130 14.5t97 38.5t68 61.5t45 75.5t25.5 89.5t12.5 95t3 98.5v344z" />
<glyph unicode="&#x169;" horiz-adv-x="1099" d="M682 1167q35 0 58 22.5t44 84.5l50 -12q-38 -185 -179 -185q-52 0 -131 53q-74 46 -110 46q-39 0 -62.5 -23.5t-38.5 -75.5l-49 10q22 93 61 138t103 45q65 0 147 -58q59 -45 107 -45zM748 188q-57 -87 -139 -147.5t-171 -60.5q-73 0 -127 24t-83.5 65.5t-43.5 90 t-14 104.5v246q0 237 -18 369l4 6q38 -6 96 -6t96 6l4 -6q-18 -123 -18 -369v-203q0 -68 11 -113t32 -65.5t42 -27.5t52 -7q71 0 151 65t130 150v201q0 230 -19 369l4 6q37 -6 97 -6q58 0 96 6l4 -6q-19 -129 -19 -369v-117q0 -201 35 -393l-4 -6q-40 6 -91 6q-27 0 -81 -6 q-8 0 -8 6l-10 182z" />
<glyph unicode="&#x16a;" horiz-adv-x="1417" d="M989 1499h-500q-12 0 -19 9.5t-7 21.5q0 20 14 39.5t31 19.5h502q14 0 21 -8.5t7 -19.5q0 -20 -15 -41t-34 -21zM1114 911q0 264 -20 410l4 6q38 -6 71 -6q35 0 72 6l4 -6q-20 -136 -20 -410v-307q0 -115 -15 -206t-52.5 -171t-97.5 -133t-153.5 -83.5t-216.5 -30.5 q-62 0 -121 11.5t-125.5 45.5t-116 87.5t-82 146t-32.5 212.5v428q0 264 -20 410l4 6q37 -6 104 -6q68 0 105 6l4 -6q-21 -143 -21 -410v-360q0 -28 0.5 -45.5t3.5 -56t8.5 -66.5t17.5 -67.5t28.5 -68t43.5 -59t60 -50t79.5 -32t102.5 -12.5q72 0 130 14.5t97 38.5t68 61.5 t45 75.5t25.5 89.5t12.5 95t3 98.5v344z" />
<glyph unicode="&#x16b;" horiz-adv-x="1099" d="M788 1102h-499q-13 0 -20 9.5t-7 21.5q0 20 14 39.5t31 19.5h502q14 0 21.5 -9t7.5 -20q0 -20 -15.5 -40.5t-34.5 -20.5zM748 188q-57 -87 -139 -147.5t-171 -60.5q-73 0 -127 24t-83.5 65.5t-43.5 90t-14 104.5v246q0 237 -18 369l4 6q38 -6 96 -6t96 6l4 -6 q-18 -123 -18 -369v-203q0 -68 11 -113t32 -65.5t42 -27.5t52 -7q71 0 151 65t130 150v201q0 230 -19 369l4 6q37 -6 97 -6q58 0 96 6l4 -6q-19 -129 -19 -369v-117q0 -201 35 -393l-4 -6q-40 6 -91 6q-27 0 -81 -6q-8 0 -8 6l-10 182z" />
<glyph unicode="&#x16c;" horiz-adv-x="1417" d="M991 1647q-9 -105 -90.5 -168.5t-187.5 -63.5q-115 0 -193.5 63.5t-85.5 168.5h58q12 -58 74 -91.5t147 -33.5q80 0 145.5 34t75.5 91h57zM1114 911q0 264 -20 410l4 6q38 -6 71 -6q35 0 72 6l4 -6q-20 -136 -20 -410v-307q0 -115 -15 -206t-52.5 -171t-97.5 -133 t-153.5 -83.5t-216.5 -30.5q-62 0 -121 11.5t-125.5 45.5t-116 87.5t-82 146t-32.5 212.5v428q0 264 -20 410l4 6q37 -6 104 -6q68 0 105 6l4 -6q-21 -143 -21 -410v-360q0 -28 0.5 -45.5t3.5 -56t8.5 -66.5t17.5 -67.5t28.5 -68t43.5 -59t60 -50t79.5 -32t102.5 -12.5 q72 0 130 14.5t97 38.5t68 61.5t45 75.5t25.5 89.5t12.5 95t3 98.5v344z" />
<glyph unicode="&#x16d;" horiz-adv-x="1099" d="M307 1323q17 -82 77.5 -133t143.5 -51t145 49t77 135l55 -25q-18 -126 -99.5 -201t-177.5 -75q-108 0 -181 73t-95 203zM748 188q-57 -87 -139 -147.5t-171 -60.5q-73 0 -127 24t-83.5 65.5t-43.5 90t-14 104.5v246q0 237 -18 369l4 6q38 -6 96 -6t96 6l4 -6 q-18 -123 -18 -369v-203q0 -68 11 -113t32 -65.5t42 -27.5t52 -7q71 0 151 65t130 150v201q0 230 -19 369l4 6q37 -6 97 -6q58 0 96 6l4 -6q-19 -129 -19 -369v-117q0 -201 35 -393l-4 -6q-40 6 -91 6q-27 0 -81 -6q-8 0 -8 6l-10 182z" />
<glyph unicode="&#x16e;" horiz-adv-x="1417" d="M711 1595q-46 0 -74.5 -33.5t-28.5 -80.5q0 -45 29 -80t74 -35t73.5 35t28.5 80q0 48 -28.5 81t-73.5 33zM532 1481q0 70 54 120t125 50q72 0 125 -49.5t53 -120.5q0 -69 -52.5 -119.5t-125.5 -50.5q-71 0 -125 50t-54 120zM1114 911q0 264 -20 410l4 6q38 -6 71 -6 q35 0 72 6l4 -6q-20 -136 -20 -410v-307q0 -115 -15 -206t-52.5 -171t-97.5 -133t-153.5 -83.5t-216.5 -30.5q-62 0 -121 11.5t-125.5 45.5t-116 87.5t-82 146t-32.5 212.5v428q0 264 -20 410l4 6q37 -6 104 -6q68 0 105 6l4 -6q-21 -143 -21 -410v-360q0 -28 0.5 -45.5 t3.5 -56t8.5 -66.5t17.5 -67.5t28.5 -68t43.5 -59t60 -50t79.5 -32t102.5 -12.5q72 0 130 14.5t97 38.5t68 61.5t45 75.5t25.5 89.5t12.5 95t3 98.5v344z" />
<glyph unicode="&#x16f;" horiz-adv-x="1099" d="M514 1309q-46 0 -74 -33.5t-28 -81.5q0 -45 28.5 -80t73.5 -35t73.5 35t28.5 80q0 48 -28.5 81.5t-73.5 33.5zM336 1194q0 70 53.5 120t124.5 50q72 0 125 -49.5t53 -120.5q0 -69 -52.5 -119.5t-125.5 -50.5q-71 0 -124.5 50t-53.5 120zM748 188q-57 -87 -139 -147.5 t-171 -60.5q-73 0 -127 24t-83.5 65.5t-43.5 90t-14 104.5v246q0 237 -18 369l4 6q38 -6 96 -6t96 6l4 -6q-18 -123 -18 -369v-203q0 -68 11 -113t32 -65.5t42 -27.5t52 -7q71 0 151 65t130 150v201q0 230 -19 369l4 6q37 -6 97 -6q58 0 96 6l4 -6q-19 -129 -19 -369v-117 q0 -201 35 -393l-4 -6q-40 6 -91 6q-27 0 -81 -6q-8 0 -8 6l-10 182z" />
<glyph unicode="&#x170;" horiz-adv-x="1417" d="M1053 1622q0 -26 -15 -41l-202 -172q-6 -6 -17 -6q-8 0 -17 8t-9 19q0 9 7 22l122 223q16 25 47 25q41 0 62.5 -24.5t21.5 -53.5zM784 1632q0 -28 -14 -39l-180 -165q-17 -15 -29 -15q-11 0 -18.5 7.5t-7.5 17.5q0 12 5 22l111 226q15 24 56 24q27 0 52 -22t25 -56z M1114 911q0 264 -20 410l4 6q38 -6 71 -6q35 0 72 6l4 -6q-20 -136 -20 -410v-307q0 -115 -15 -206t-52.5 -171t-97.5 -133t-153.5 -83.5t-216.5 -30.5q-62 0 -121 11.5t-125.5 45.5t-116 87.5t-82 146t-32.5 212.5v428q0 264 -20 410l4 6q37 -6 104 -6q68 0 105 6l4 -6 q-21 -143 -21 -410v-360q0 -28 0.5 -45.5t3.5 -56t8.5 -66.5t17.5 -67.5t28.5 -68t43.5 -59t60 -50t79.5 -32t102.5 -12.5q72 0 130 14.5t97 38.5t68 61.5t45 75.5t25.5 89.5t12.5 95t3 98.5v344z" />
<glyph unicode="&#x171;" horiz-adv-x="1099" d="M885 1251q0 -24 -15 -39l-233 -225q-4 -4 -12 -4q-9 0 -19 8t-10 19q0 6 2 8l160 285q13 24 49 24q32 0 55 -23.5t23 -52.5zM614 1264q0 -20 -10 -33l-209 -248q-6 -6 -16 -6t-19.5 8t-9.5 19q0 4 2 6l131 299q12 28 54 28q32 0 54.5 -21t22.5 -52zM748 188 q-57 -87 -139 -147.5t-171 -60.5q-73 0 -127 24t-83.5 65.5t-43.5 90t-14 104.5v246q0 237 -18 369l4 6q38 -6 96 -6t96 6l4 -6q-18 -123 -18 -369v-203q0 -68 11 -113t32 -65.5t42 -27.5t52 -7q71 0 151 65t130 150v201q0 230 -19 369l4 6q37 -6 97 -6q58 0 96 6l4 -6 q-19 -129 -19 -369v-117q0 -201 35 -393l-4 -6q-40 6 -91 6q-27 0 -81 -6q-8 0 -8 6l-10 182z" />
<glyph unicode="&#x172;" horiz-adv-x="1417" d="M1075 -260q-42 -52 -96.5 -83.5t-106.5 -31.5q-75 0 -118 42t-43 114q0 103 95 206q-50 -7 -116 -7q-62 0 -121 11.5t-125.5 45.5t-116 87.5t-82 146t-32.5 212.5v428q0 264 -20 410l4 6q37 -6 104 -6q68 0 105 6l4 -6q-21 -143 -21 -410v-360q0 -28 0.5 -45.5t3.5 -56 t8.5 -66.5t17.5 -67.5t28.5 -68t43.5 -59t60 -50t79.5 -32t102.5 -12.5q72 0 130 14.5t97 38.5t68 61.5t45 75.5t25.5 89.5t12.5 95t3 98.5v344q0 264 -20 410l4 6q38 -6 71 -6q35 0 72 6l4 -6q-20 -136 -20 -410v-307q0 -220 -62 -366t-208 -211q-56 -61 -82.5 -112 t-26.5 -112q0 -34 24 -61t62 -27q50 0 108 62l7 -2z" />
<glyph unicode="&#x173;" horiz-adv-x="1099" d="M711 -426q-87 0 -139 42t-52 124t68.5 172t174.5 138l-7 132l-8 6q-57 -87 -139 -147.5t-171 -60.5q-73 0 -127 24t-83.5 65.5t-43.5 90t-14 104.5v246q0 237 -18 369l4 6q38 -6 96 -6t96 6l4 -6q-18 -123 -18 -369v-203q0 -68 11 -113t32 -65.5t42 -27.5t52 -7 q71 0 151 65t130 150v201q0 230 -19 369l4 6q37 -6 97 -6q58 0 96 6l4 -6q-19 -129 -19 -369v-117q0 -201 35 -393l-4 -6q-40 6 -91 6q-27 0 -81 -6h-3q-57 -40 -92.5 -102.5t-35.5 -116.5q0 -52 32.5 -85.5t88.5 -33.5q71 0 141 70l31 -15q-34 -67 -98.5 -102t-126.5 -35z " />
<glyph unicode="&#x174;" horiz-adv-x="1947" d="M979 1649q83 -101 207 -193l-33 -43q-124 58 -217 127q-104 -76 -219 -127l-29 43q90 68 203 193h88zM1319 270q9 20 56 129.5t62.5 145t58.5 136.5t62.5 149t53 133t52.5 138t39.5 115.5t33.5 110.5q25 -6 102 -6q47 0 72 6q-396 -867 -604 -1347h-58q-120 337 -269 740 l-329 -740h-57q-66 159 -196.5 480t-225 548t-139.5 319q35 -6 123 -6q67 0 102 6q19 -67 51.5 -169t130.5 -360.5t222 -545.5h4q183 424 260 612q-150 399 -176 463q35 -6 122 -6q78 0 113 6q57 -253 330 -1057h4z" />
<glyph unicode="&#x175;" horiz-adv-x="1478" d="M803 1321q67 -109 207 -264l-43 -29q-142 105 -217 184q-90 -92 -220 -184l-41 29q149 165 211 264h103zM420 -8q-145 376 -379 891q33 -6 119 -6q75 0 102 6q7 -23 35.5 -114t39 -123.5t36 -110t42.5 -123.5t42 -110t50 -120h13q63 136 170 435q-64 171 -96 268 q33 -6 119 -6q75 0 102 6q94 -432 196 -700h17q120 281 252 700q18 -6 70 -6q70 0 88 6q-134 -293 -381 -891q-18 6 -76 6q-33 0 -53 -6q-26 71 -57 152t-69.5 180t-58.5 153q-64 -156 -182 -487q-18 6 -74 6q-47 0 -67 -6z" />
<glyph unicode="&#x176;" horiz-adv-x="1191" d="M643 1649q83 -101 207 -193l-33 -43q-124 58 -217 127q-104 -76 -219 -127l-29 43q90 68 203 193h88zM682 584q5 -476 14 -590q-38 6 -102 6t-102 -6q14 158 14 569q-63 107 -239 391.5t-234 372.5q52 -6 117 -6q64 0 116 6q50 -97 103.5 -191.5t140 -242t115.5 -197.5 q227 355 358 631q37 -6 86 -6q45 0 86 6q-64 -98 -162 -246t-140.5 -213t-91.5 -145.5t-79 -138.5z" />
<glyph unicode="&#x177;" horiz-adv-x="1036" d="M598 1323q67 -109 207 -264l-43 -29q-142 105 -217 184q-92 -95 -219 -184l-41 29q149 165 211 264h102zM57 885q29 -6 107 -6q73 0 100 6q11 -34 24 -71.5t23.5 -67t27 -73t25.5 -66.5t29 -73t26.5 -67t30 -74t28 -68t31 -75t29.5 -71h4q133 283 269 706q20 -6 80 -6 q68 0 88 6q-85 -171 -314 -687.5t-280 -682.5q-33 10 -100 10q-39 0 -72 -10q145 240 242 465q-25 68 -84.5 205t-108 245t-122.5 271t-83 184z" />
<glyph unicode="&#x178;" horiz-adv-x="1191" d="M358 1536q0 40 28.5 69t68.5 29t68 -29t28 -69t-28 -68t-68 -28t-68.5 28t-28.5 68zM705 1536q0 40 28 69t68 29t68 -29t28 -69t-28 -68t-68 -28t-68 28t-28 68zM682 584q5 -476 14 -590q-38 6 -102 6t-102 -6q14 158 14 569q-63 107 -239 391.5t-234 372.5q52 -6 117 -6 q64 0 116 6q50 -97 103.5 -191.5t140 -242t115.5 -197.5q227 355 358 631q37 -6 86 -6q45 0 86 6q-64 -98 -162 -246t-140.5 -213t-91.5 -145.5t-79 -138.5z" />
<glyph unicode="&#x179;" horiz-adv-x="1273" d="M713 1679q88 -40 127 -106l-295 -119q-57 -24 -86 -24q-13 0 -22 9t-9 21q0 22 31 43zM383 111q119 0 313.5 10.5t329.5 21.5l135 11l4 -7q-4 -32 -4 -67q0 -22 4 -80l-4 -6q-49 6 -145 6h-744l-178 -6l-6 8q13 17 31.5 44t21.5 32l756 1108q7 12 4.5 18t-10.5 6 q-225 0 -727 -43l-4 7q4 32 4 67q0 22 -4 80l4 6q50 -6 125 -6h622q49 0 141 4t117 8q13 0 13 -12q0 -25 -62 -111l-727 -1063q-10 -14 -10 -36z" />
<glyph unicode="&#x17a;" horiz-adv-x="851" d="M524 1374q12 4 29 4q64 0 113 -47l6 -22l-236 -224q-38 -38 -61 -38q-11 0 -20 8t-9 18q0 16 4 25.5t19 31.5zM278 92q111 0 239 6t201 12l73 5l4 -6q-4 -32 -4 -54q0 -1 4 -55l-4 -6q-47 6 -115 6h-463l-166 -6l-6 9q19 23 45 63l481 720q-104 -1 -221 -6.5t-182 -10.5 l-64 -5l-4 6q4 32 4 53q0 2 -4 56l4 6q46 -6 115 -6h418q26 0 65 3t68 6t32 3q11 0 11 -12q-15 -17 -61 -86z" />
<glyph unicode="&#x17b;" horiz-adv-x="1273" d="M520 1599q0 43 32 75t75 32t74.5 -32t31.5 -75t-31.5 -74.5t-74.5 -31.5t-75 31.5t-32 74.5zM383 111q119 0 313.5 10.5t329.5 21.5l135 11l4 -7q-4 -32 -4 -67q0 -22 4 -80l-4 -6q-49 6 -145 6h-744l-178 -6l-6 8q13 17 31.5 44t21.5 32l756 1108q7 12 4.5 18t-10.5 6 q-225 0 -727 -43l-4 7q4 32 4 67q0 22 -4 80l4 6q50 -6 125 -6h622q49 0 141 4t117 8q13 0 13 -12q0 -25 -62 -111l-727 -1063q-10 -14 -10 -36z" />
<glyph unicode="&#x17c;" horiz-adv-x="851" d="M336 1223q0 41 31.5 72.5t72.5 31.5t73 -31.5t32 -72.5t-32 -73t-73 -32t-72.5 32t-31.5 73zM278 92q111 0 239 6t201 12l73 5l4 -6q-4 -32 -4 -54q0 -1 4 -55l-4 -6q-47 6 -115 6h-463l-166 -6l-6 9q19 23 45 63l481 720q-104 -1 -221 -6.5t-182 -10.5l-64 -5l-4 6 q4 32 4 53q0 2 -4 56l4 6q46 -6 115 -6h418q26 0 65 3t68 6t32 3q11 0 11 -12q-15 -17 -61 -86z" />
<glyph unicode="&#x17d;" horiz-adv-x="1273" d="M573 1427q-76 95 -206 195l32 41q121 -53 217 -125q116 81 220 125l30 -41q-100 -76 -204 -195h-89zM383 111q119 0 313.5 10.5t329.5 21.5l135 11l4 -7q-4 -32 -4 -67q0 -22 4 -80l-4 -6q-49 6 -145 6h-744l-178 -6l-6 8q13 17 31.5 44t21.5 32l756 1108q7 12 4.5 18 t-10.5 6q-225 0 -727 -43l-4 7q4 32 4 67q0 22 -4 80l4 6q50 -6 125 -6h622q49 0 141 4t117 8q13 0 13 -12q0 -25 -62 -111l-727 -1063q-10 -14 -10 -36z" />
<glyph unicode="&#x17e;" horiz-adv-x="851" d="M385 1026q-77 125 -207 266l41 27q142 -105 217 -184q80 82 221 184l39 -27q-139 -154 -209 -266h-102zM278 92q111 0 239 6t201 12l73 5l4 -6q-4 -32 -4 -54q0 -1 4 -55l-4 -6q-47 6 -115 6h-463l-166 -6l-6 9q19 23 45 63l481 720q-104 -1 -221 -6.5t-182 -10.5l-64 -5 l-4 6q4 32 4 53q0 2 -4 56l4 6q46 -6 115 -6h418q26 0 65 3t68 6t32 3q11 0 11 -12q-15 -17 -61 -86z" />
<glyph unicode="&#x17f;" horiz-adv-x="593" d="M348 899v-489q0 -265 21 -410l-4 -6q-29 6 -99 6q-32 0 -57 -1.5t-34 -2.5l-9 -2l-2 6q20 129 20 410v346q0 19 -4.5 25.5t-19.5 6.5h-90q-11 0 -11 11v39q0 15 11 28t36 13q78 0 78 98q0 125 12 175t66 122q115 156 309 156q63 0 93 -19l2 -6q-27 -45 -58 -168l-22 -2 q-40 72 -119 72q-42 0 -69 -16t-39.5 -48.5t-16.5 -65t-4 -81.5q0 -17 5 -93t5 -104z" />
<glyph unicode="&#x180;" horiz-adv-x="1032" d="M541 1130v-69h-209v-264q94 102 256 102q153 0 265 -120.5t112 -303.5q0 -125 -39 -223t-103.5 -155.5t-141 -87t-157.5 -29.5q-62 0 -127 29t-114 71q-34 -63 -68 -100q-41 0 -57 16q10 50 10 154v837q0 13 -0.5 37.5t-0.5 36.5h-151v69h149q-7 168 -22 252l4 7 q91 7 179 41q18 0 18 -21q-11 -143 -12 -279h209zM332 166q33 -42 84 -73.5t96 -31.5q142 0 206 100.5t64 297.5q0 180 -66.5 269t-168.5 89q-60 0 -105 -27t-110 -94v-530z" />
<glyph unicode="&#x181;" horiz-adv-x="1335" d="M506 1241v-477h162q75 0 132 16t89 39.5t52 56.5t26 62t6 61q0 250 -303 250q-101 0 -164 -8zM506 684v-608q79 -10 180 -10q87 0 155.5 19t110.5 49t69 71.5t37.5 83t10.5 86.5q0 50 -14.5 98.5t-48.5 98.5t-102 81t-161 31h-237zM141 1135q0 -16 7.5 -46t7.5 -47 q0 -37 -21.5 -55t-50.5 -18q-32 0 -53 22t-21 53q0 45 21 92t59.5 89t101.5 69t138 27h411q90 0 160 -21t112 -53.5t68.5 -76.5t36.5 -84t10 -82q0 -82 -53 -155t-135 -114q90 -23 155 -67t97.5 -96.5t46.5 -100.5t14 -96q0 -81 -37 -153t-97 -120.5t-135 -77t-150 -28.5 q-88 0 -231 2t-181 2l-234 -4v43q0 16 13 16h63q28 0 44 5t22.5 19t8 26.5t1.5 41.5v1029q0 47 -9 68.5t-32 21.5q-65 0 -111.5 -38t-46.5 -93z" />
<glyph unicode="&#x182;" horiz-adv-x="1159" d="M352 711v-625q98 -16 174 -16q371 0 371 315q0 48 -9 91.5t-33.5 87.5t-63 75.5t-102.5 51.5t-146 20h-191zM186 1180q0 56 -14 71t-66 15h-61q-10 0 -10 8v47h923l27 -287l-53 -6q-19 66 -42.5 110t-53 66t-59.5 30.5t-70 8.5h-355v-463h117q146 0 251 -18t187 -61.5 t123 -123t41 -196.5q0 -91 -35 -165t-94.5 -120.5t-135 -71t-159.5 -24.5h-612v45q0 7 10 10h61q42 0 61 24t19 75v1026z" />
<glyph unicode="&#x183;" horiz-adv-x="987" d="M305 111q29 -36 63 -49t85 -13q141 0 216.5 113t75.5 295q0 154 -67.5 253t-163.5 99q-22 0 -48 -3.5t-75.5 -24.5t-85.5 -58v-612zM389 1409h412l28 -287l-53 -6q-15 55 -37 101t-64 84t-93 38h-277v-553q104 113 250 113q139 0 243.5 -117.5t104.5 -298.5 q0 -118 -39 -215.5t-102 -159t-140 -95t-157 -33.5q-131 0 -213 71q-13 -19 -64 -76l-43 11q7 55 7 159v1039q0 84 -14.5 114.5t-47.5 30.5l-65 -6q-11 0 -11 10l-4 51q153 25 379 25z" />
<glyph unicode="&#x184;" horiz-adv-x="1171" d="M365 711v-627q71 -14 174 -14q370 0 370 315q0 48 -9 91.5t-33.5 87.5t-63 75.5t-102.5 51.5t-146 20h-190zM199 946q0 94 -39 148t-101 65v70q143 26 250 119h56v-568h114q147 0 252 -18t187.5 -61.5t123.5 -123t41 -196.5q0 -91 -35 -165t-94.5 -120.5t-135 -71 t-159.5 -24.5h-612v45q0 7 10 10h62q42 0 61 23.5t19 73.5v794z" />
<glyph unicode="&#x185;" horiz-adv-x="993" d="M319 113q54 -64 150 -64q140 0 216.5 115t76.5 297q0 153 -68 251.5t-166 98.5q-125 0 -209 -86v-612zM168 1026q0 176 -143 213v70q141 29 249 121h45v-642q102 111 252 111q90 0 169 -50t129.5 -145.5t50.5 -216.5q0 -118 -39.5 -216t-103 -160.5t-141 -96.5 t-157.5 -34q-126 0 -213 73q-13 -21 -63 -76l-41 11q6 73 6 162v876z" />
<glyph unicode="&#x186;" horiz-adv-x="1386" d="M545 -20q-70 0 -142 10.5t-124 25.5t-94.5 30t-64.5 26l-22 10l-4 6q18 68 25 109.5t12 117.5l25 2q120 -241 417 -241q53 0 109.5 18.5t115 62t104.5 106.5t75 162t29 218q0 159 -57.5 296t-162 220.5t-231.5 83.5q-144 0 -248 -47.5t-211 -165.5l-14 6q-10 27 -13 87 q187 225 504 225q160 0 285.5 -54t202.5 -147t116.5 -211t39.5 -254q0 -147 -56.5 -279t-149.5 -224t-215 -145.5t-251 -53.5z" />
<glyph unicode="&#x187;" horiz-adv-x="1386" d="M1183 1264q40 -16 46 -25q-18 -68 -25 -109.5t-12 -117.5l-25 -2q-121 241 -417 241q-53 0 -109.5 -18.5t-115 -62t-104.5 -106.5t-75 -162t-29 -218q0 -159 57.5 -296t162 -220.5t231.5 -83.5q144 0 248 47.5t211 165.5l14 -6q11 -27 13 -87q-186 -224 -504 -224 q-129 0 -235.5 35t-181.5 97t-126.5 146t-76 181.5t-24.5 205.5q0 147 56.5 279t149.5 224t215 146t251 54q174 0 350 -63q17 109 92.5 173t141.5 64q38 0 56 -24.5t18 -49.5q0 -72 -103 -72q-26 0 -60 -28t-59.5 -56t-30.5 -28z" />
<glyph unicode="&#x188;" horiz-adv-x="1009" d="M719 869q60 -18 72 -33l-48 -168l-26 -2q-88 151 -205 151q-106 0 -180 -98.5t-74 -261.5q0 -175 75 -275t191 -100q62 0 113 18.5t106 67.5h9l39 -43q-114 -145 -302 -145t-299.5 126.5t-111.5 339.5q0 101 38 188t100 144t140 89t158 32q73 0 148 -16q34 99 110 149.5 t146 50.5q47 0 66.5 -22.5t19.5 -50.5q0 -32 -19 -52t-51 -20q-16 0 -52.5 9t-54.5 9q-72 0 -108 -87z" />
<glyph unicode="&#x189;" horiz-adv-x="1454" d="M389 168q0 -36 14 -51.5t60.5 -23t148.5 -7.5q66 0 120.5 5.5t109.5 20.5t98 39t81 62t63 89.5t39 122t14 157.5q0 100 -17 190t-59 176.5t-106 149t-165 101t-229 38.5q-42 0 -70 -3t-53 -11t-37 -25t-12 -43v-487h201v-80h-201v-420zM301 1321q65 0 169 3t169 3 q145 0 276.5 -55.5t226 -149t150.5 -222.5t56 -269q0 -105 -22.5 -193.5t-60 -153t-91 -115t-112.5 -82.5t-126.5 -53t-131 -29.5t-128.5 -8.5q-114 0 -212.5 2t-162.5 2q-32 0 -58.5 -1.5t-36.5 -2.5l-11 -2l-2 6q20 139 20 410v178h-178v80h178v243q0 264 -20 410l4 6 q34 -6 104 -6z" />
<glyph unicode="&#x18a;" horiz-adv-x="1593" d="M549 147q0 -36 14.5 -51.5t60.5 -22.5t148 -7q92 0 168.5 13.5t148.5 49t121.5 92.5t79 149t29.5 212q0 98 -19 191t-64.5 181t-112 153.5t-170 105.5t-230.5 40q-45 0 -71.5 -2t-53 -9.5t-38 -23.5t-11.5 -42v-1029zM133 1143q0 -16 8.5 -50.5t8.5 -50.5 q0 -32 -19.5 -50.5t-50.5 -18.5t-53.5 19t-22.5 65q0 28 10 61.5t34 70t58.5 66t89.5 49t121 19.5q27 0 72 -1t74 -1q73 0 191 1t145 1q194 0 356.5 -93t256 -252t93.5 -347q0 -147 -36 -259t-96 -182.5t-147.5 -115t-181.5 -61.5t-208 -17q-60 0 -179.5 2t-193.5 2l-262 -4 v41q0 18 14 18h61q58 0 82.5 22.5t24.5 72.5v1021q0 51 -15 73t-59 22q-67 0 -121.5 -31.5t-54.5 -91.5z" />
<glyph unicode="&#x18b;" horiz-adv-x="1150" d="M795 711h-183q-82 0 -145.5 -20t-102 -51.5t-63 -75.5t-34 -87.5t-9.5 -91.5q0 -319 373 -319q73 0 164 18v627zM958 1180v-1028q0 -50 19 -73.5t63 -23.5h62q8 -3 8 -10v-49q-143 4 -233 4q-72 0 -184.5 -2t-182.5 -2q-85 0 -160.5 25t-135 72.5t-94 121.5t-34.5 166 q0 94 27.5 164t77 114.5t126 71.5t165.5 38t206 11h107v463h-344q-83 0 -137 -44t-91 -171l-53 6l29 314q106 -27 231 -27h444l236 2v-49q0 -8 -8 -8h-62q-52 0 -67 -15t-15 -71z" />
<glyph unicode="&#x18c;" horiz-adv-x="1011" d="M684 186v521q-39 62 -85.5 92t-115.5 30q-122 0 -190 -104q-64 -89 -64 -272q0 -96 23 -173t60.5 -122t80.5 -68.5t86 -23.5q49 0 94 28t111 92zM836 1430l22 -19q-20 -25 -20 -98v-1067q0 -81 8 -109q4 -13 18 -22t27 -9q64 0 100 7l8 -58q-218 -37 -268 -80h-49l6 146 q-66 -68 -128 -104.5t-134 -36.5q-163 0 -259.5 122t-96.5 314q0 231 129 360q65 62 137.5 92.5t169.5 30.5q34 0 89.5 -13t88.5 -32v438q0 28 -9.5 37.5t-37.5 9.5h-250q-38 0 -71 -21t-56 -56t-39 -71t-26 -75l-54 6l29 308q96 -21 217 -21h326q90 8 123 21z" />
<glyph unicode="&#x18d;" horiz-adv-x="1003" d="M475 49l35 -26l-16 32q284 102 284 383q0 65 -17 131.5t-49 125.5t-87 96.5t-123 37.5q-25 0 -48 -3.5t-51 -14.5t-51.5 -28.5t-46.5 -47t-39 -69t-25.5 -96.5t-9.5 -126q0 -81 50.5 -180t132.5 -164zM532 4l37 -31q191 -149 191 -243q0 -56 -23.5 -98.5t-64 -66t-89 -35 t-104.5 -11.5q-140 0 -237 64.5t-97 123.5q0 40 25 58t53 18q21 0 50 -20.5t55 -69.5q56 -107 153 -107q172 0 172 123q0 53 -172 185l-145 114q-138 107 -202 198t-64 216q0 120 40 214.5t106 150t145 84t163 28.5q186 0 299 -121t113 -305q0 -79 -25 -148t-64 -117.5 t-94.5 -90t-108 -67t-112.5 -46.5z" />
<glyph unicode="&#x18e;" horiz-adv-x="1146" d="M774 410v247q-256 0 -457 -20l-6 6q6 27 6 57q0 31 -6 58l6 6q254 -21 457 -21v168q0 254 -16 310q-122 0 -261 -6.5t-217 -12.5l-79 -6l-4 8q4 32 4 53q0 6 -4 64l4 6q49 -6 123 -6h538q31 0 57.5 1.5t36.5 3.5l11 1l4 -6q-21 -154 -21 -410v-501q0 -264 21 -410l-2 -6 q-35 6 -107 6h-559q-73 0 -123 -6l-4 6q4 58 4 59q0 36 -4 68l4 8q305 -24 578 -24q16 56 16 299z" />
<glyph unicode="&#x18f;" horiz-adv-x="1318" d="M1055 643q0 159 -57.5 296t-162 220.5t-231.5 83.5q-144 0 -247.5 -47t-210.5 -166l-15 6q-9 24 -12 87q187 225 504 225q160 0 285.5 -54t202 -147t116 -211t39.5 -254q0 -150 -41.5 -278t-119 -222.5t-195.5 -148t-263 -53.5q-114 0 -208 32t-158 85.5t-109.5 128 t-69 155.5t-30.5 172h981q2 23 2 90zM260 463q47 -199 149 -300.5t253 -101.5q78 0 143.5 33.5t110.5 91t74.5 127.5t43.5 150h-774z" />
<glyph unicode="&#x190;" horiz-adv-x="1058" d="M604 1348q81 0 168 -29t127 -33l39 -293l-64 -10q-13 57 -24.5 94.5t-33.5 79t-50.5 65.5t-73.5 40t-104 16q-129 0 -209 -65.5t-80 -188.5q0 -34 7.5 -68.5t28.5 -72.5t53 -67.5t85 -48.5t121 -19h139q17 0 26 -11.5t9 -29.5q0 -39 -35 -39h-198q-78 0 -135.5 -25.5 t-88 -69t-44 -91t-13.5 -101.5q0 -89 23 -155.5t64.5 -105t93.5 -57t114 -18.5q44 0 87 10t87 33t80 57t65 86t43 117l62 -6l-35 -295q-41 -6 -104.5 -25.5t-129 -33t-137.5 -13.5q-57 0 -110 6.5t-110 21.5t-104 43t-85 67t-59 97t-21 130q0 79 26 146t70 112.5t94 75 t105 45.5q-30 11 -61 30t-70 53t-63.5 88t-24.5 118q0 67 26 124t70.5 96t102.5 66.5t121.5 40.5t129.5 13z" />
<glyph unicode="&#x191;" horiz-adv-x="1036" d="M412 670v-584q0 -113 -22.5 -202t-57.5 -142t-81 -88t-87.5 -47.5t-83.5 -12.5q-30 0 -63.5 6.5t-68.5 20.5t-58 42.5t-23 66.5q0 61 63 61q61 0 80 -80q2 -16 7 -25.5t20.5 -18.5t42.5 -9q77 0 122.5 120t45.5 349v1049q0 47 -22 68.5t-85 21.5h-61q-17 0 -17 14v41l9 2 l256 -2l151 2h498q11 -148 43 -317l-59 -11q-14 44 -23 68t-24 57.5t-30.5 51.5t-38.5 36t-52.5 25.5t-67.5 7.5h-240q-38 0 -55.5 -14.5t-17.5 -50.5v-437h260q50 0 71 21.5t31 68.5l14 62q4 16 17 16h45q6 0 6 -8q-16 -125 -16 -194q0 -71 16 -197l-4 -6h-47q-14 0 -19 14 l-12 64q-8 47 -30 68.5t-72 21.5h-260z" />
<glyph unicode="&#x192;" horiz-adv-x="921" d="M668 1430q112 0 164.5 -43t52.5 -97q0 -32 -18 -54t-48 -22q-71 0 -80 52q-19 104 -73 104q-16 0 -31.5 -11t-33 -38t-33.5 -81.5t-27 -131.5l-29 -227h215l-10 -80h-217l-4 -35q-4 -33 -11 -98q-74 -662 -138 -902.5t-226 -240.5q-76 0 -114 38.5t-38 76.5q0 25 18 46 t46 21q48 0 67 -43q5 -8 7.5 -26t9.5 -27.5t26 -9.5q36 0 62.5 33t43 94.5t27.5 135t18 169t11.5 180.5t11 186t13.5 170l24 232h-170l13 80h73q98 0 113 108q28 215 108.5 328t176.5 113z" />
<glyph unicode="&#x193;" horiz-adv-x="1468" d="M1220 1273q66 -24 72 -34q-33 -116 -41 -238l-24 -2q-70 119 -184 188.5t-250 69.5q-210 0 -343 -161t-133 -426q0 -84 16.5 -166t55 -161.5t94.5 -139.5t142.5 -96.5t191.5 -36.5q219 0 301 77v93q0 243 -20 389l4 6q34 -6 104 -6q32 0 59 1.5t37 3.5l11 1l2 -6 q-21 -143 -21 -348v-13q0 -72 21 -98v-6q-219 -184 -545 -184q-150 0 -276.5 54.5t-210.5 147t-130.5 213.5t-46.5 254q0 131 40.5 245t110 196t161 141t194.5 88t209 29q159 0 343 -57q10 56 38 102t63 73t69.5 41.5t62.5 14.5q38 0 55.5 -24.5t17.5 -49.5q0 -72 -102 -72 q-8 0 -22 1t-19 1q-44 0 -70.5 -30t-36.5 -75z" />
<glyph unicode="&#x194;" horiz-adv-x="1263" d="M596 -41q-41 -62 -72.5 -149t-31.5 -117q0 -39 14 -54.5t43 -15.5q20 0 34.5 16t21 40.5t9 46t2.5 41.5q0 106 -20 192zM999 1176q15 38 15 55q0 22 -27 28.5t-86 6.5h-37q-16 0 -16 16v39l4 2q149 -2 229 -2l179 2l4 -2v-39q0 -16 -17 -16q-65 0 -97 -18.5t-52 -71.5 l-393 -1051q25 -87 43 -189.5t18 -138.5q0 -68 -22.5 -126t-73 -97t-119.5 -39q-78 0 -118 40.5t-40 96.5q0 82 160 402l-387 1097q-20 57 -56 76t-94 19q-16 0 -16 16v39l4 2q160 -2 240 -2l254 2l4 -2v-39q0 -16 -17 -16h-55q-98 0 -98 -54q0 -9 8 -41q11 -33 133 -380.5 t186 -526.5q67 180 195.5 525t144.5 387z" />
<glyph unicode="&#x195;" horiz-adv-x="1462" d="M180 1153q0 95 -14 127.5t-47 32.5l-66 4q-12 0 -12 10l-4 49q62 4 150 21.5t126 32.5q27 0 27 -21q-6 -82 -6 -215v-459q164 164 338 164q221 0 221 -317v-316q0 -194 154 -194q74 0 135.5 61.5t94 156t32.5 195.5q0 242 -125 263q-86 7 -86 75q0 30 22.5 53t61.5 23 q200 0 200 -389q0 -135 -29 -241t-77.5 -168t-106.5 -94t-122 -32q-305 0 -308 297v332q0 119 -34.5 159t-124.5 40q-46 0 -110 -37t-136 -107v-512q0 -46 19.5 -68t68.5 -22h39q16 0 16 -16v-39l-4 -4q-139 4 -219 4l-211 -4l-4 4v39q0 16 14 16h39q50 0 69 21.5t19 68.5 v1006z" />
<glyph unicode="&#x196;" horiz-adv-x="593" d="M184 1153q0 95 -14 127.5t-47 32.5l-66 4q-12 0 -12 10l-4 49q62 4 150 21.5t126 32.5q27 0 27 -21q-6 -82 -6 -215v-918q0 -101 14 -144.5t54 -43.5q38 0 66.5 12.5t70.5 44.5l37 -34q-62 -69 -120.5 -102.5t-125.5 -33.5q-150 0 -150 203v975z" />
<glyph unicode="&#x197;" horiz-adv-x="602" d="M561 754v-70h-172v-274q0 -256 21 -410l-4 -6q-37 6 -105 6q-67 0 -104 -6l-4 6q20 139 20 410v274h-174v70h174v157q0 264 -20 410l4 6q37 -6 104 -6q68 0 105 6l4 -6q-21 -143 -21 -410v-157h172z" />
<glyph unicode="&#x198;" horiz-adv-x="1304" d="M1073 1348q90 0 151.5 -45t61.5 -99q0 -30 -23 -52t-51 -22t-47 23t-27.5 51t-30.5 51t-56 23q-15 0 -35.5 -16t-48.5 -48t-53 -63.5t-63.5 -80.5t-64.5 -81q-32 -39 -75.5 -87.5t-66.5 -74t-40.5 -51.5t-17.5 -43q0 -19 28 -51l490 -532q80 -93 160 -93h14 q7 0 12.5 -4.5t5.5 -11.5v-39l-6 -4q-153 4 -233 4l-123 -4l-4 4v12q0 91 -41 136l-373 405q-61 66 -127 76v-221q0 -256 21 -410l-4 -6q-37 6 -105 6q-67 0 -104 -6l-4 6q20 139 20 410v501q0 264 -20 410l4 6q37 -6 104 -6q68 0 105 6l4 -6q-21 -143 -21 -410v-199 q50 14 119 79q132 132 237 262q25 31 64.5 84t63.5 83t57.5 63.5t68.5 49t74 15.5z" />
<glyph unicode="&#x199;" horiz-adv-x="980" d="M180 1016q0 65 10 123.5t32.5 112.5t56 93t84.5 62t114 23q68 0 130.5 -31t62.5 -74q0 -37 -19 -58.5t-47 -21.5q-34 0 -55.5 26.5t-30.5 63.5q-9 33 -33 33q-69 0 -110 -76.5t-41 -214.5v-592q77 17 268 226q41 41 41 80q0 32 -59 32h-9q-7 0 -11.5 5.5t-4.5 11.5v39 l6 4q98 -4 170 -4l191 4l8 -4v-39q0 -7 -7.5 -12t-15.5 -5h-14q-41 0 -100 -29t-97 -69l-155 -172q-8 -8 -8 -21q0 -15 10 -28l239 -354q27 -41 71 -67t83 -26h14q19 0 19 -16v-39l-4 -4q-105 4 -185 4l-127 -4l-6 4v39q0 41 -47 109l-149 210q-30 43 -56 58.5t-65 15.5 v-287q0 -46 19.5 -68t68.5 -22h4q16 0 16 -16v-39l-4 -4q-104 4 -184 4l-211 -4l-4 4v39q0 16 14 16h39q50 0 69 21.5t19 68.5v869z" />
<glyph unicode="&#x19a;" horiz-adv-x="516" d="M532 705v-70h-184v-225q0 -271 19 -410l-5 -6q-38 6 -96 6t-96 -6l-4 6q18 132 18 410v225h-176v70h176v282q0 297 -18 395l4 7q90 7 178 41q19 0 19 -21q-19 -247 -19 -385v-319h184z" />
<glyph unicode="&#x19b;" horiz-adv-x="1011" d="M885 0l-97 -4l-7 -2h1q-11 35 -29 102t-38 127l-166 490l-297 -713q-108 -8 -156 -25l-51 25l451 909l-40 120l-194 -114l-35 62l207 121q-10 32 -22.5 71.5t-21 68t-15.5 52.5t-10 31l-23 62l-20 47q42 -10 75 -10q43 0 66 7q8 -61 64 -249l7 -21l179 105l35 -62 l-191 -111l313 -909q51 -125 80 -186q-2 5 -65 6z" />
<glyph unicode="&#x19c;" horiz-adv-x="1753" d="M373 1176v-916q0 -96 40.5 -141t108.5 -45q140 0 287 147q-4 27 -4 84v871q0 45 -21 67.5t-73 22.5h-43q-19 0 -19 16v39l4 2q152 -2 238 -2l227 2l6 -2v-39q0 -16 -18 -16h-41q-54 0 -75 -22t-21 -68v-912q0 -96 41.5 -143t109.5 -47q120 0 277 151v951q0 45 -21 67.5 t-73 22.5h-43q-19 0 -19 16v39l4 2q152 -2 238 -2l227 2l6 -2v-39q0 -16 -18 -16h-41q-54 0 -74 -22t-20 -68v-953q0 -81 11 -104t38 -23q43 0 92 10l10 -55q-107 -18 -146.5 -28t-82.5 -31q-39 -17 -55 -17h-33l6 177h-6q-184 -177 -357 -177q-88 0 -149 52t-72 125 q-183 -177 -377 -177q-70 0 -118 25.5t-72.5 73.5t-34.5 103.5t-10 129.5v869q0 45 -21 67.5t-73 22.5h-43q-19 0 -19 16v39l4 2q152 -2 238 -2l229 2l4 -2v-39q0 -16 -16 -16h-43q-53 0 -73.5 -22t-20.5 -68z" />
<glyph unicode="&#x19d;" horiz-adv-x="1423" d="M213 180v946q-2 12 -11.5 33t-27 46t-47 43t-64.5 18q-8 0 -16 4.5t-8 11.5v37l6 4h266l715 -903q21 -27 47.5 -65.5t39 -53t20.5 -14.5q10 0 10 78v776q0 49 -27 87t-84 38h-53q-9 0 -19 4.5t-10 11.5v39l11 2q151 -2 225 -2l227 2l4 -2v-39q0 -16 -16 -16h-55 q-56 0 -83.5 -37t-27.5 -88v-1098q0 -59 -43 -59q-51 3 -82 45l-715 903q-52 67 -69 67q-21 0 -21 -100v-717q0 -57 -0.5 -92t-2.5 -89t-6.5 -88t-12.5 -78.5t-19.5 -72.5t-29.5 -58.5t-40.5 -47.5t-53.5 -28t-68 -11q-67 0 -114.5 33t-47.5 67q0 30 14 47.5t26.5 21 t24.5 3.5q21 0 41.5 -25t28.5 -57q9 -29 41 -29q127 0 127 502z" />
<glyph unicode="&#x19e;" horiz-adv-x="1071" d="M340 899l-6 -182h6q91 107 168.5 144.5t165.5 37.5q54 0 94 -16.5t65 -44.5t40 -70.5t20.5 -88.5t5.5 -104v-903q0 -44 19 -63.5t67 -24.5l39 -4q18 -2 18 -16v-39l-4 -4q-135 4 -221 4l-201 -4l-4 4v39q0 14 17 16l28 4q50 7 69 25.5t19 62.5v918q0 114 -27.5 162.5 t-105.5 48.5q-71 0 -134 -35t-138 -123v-496q0 -44 18.5 -62t69.5 -26l29 -4q16 -2 16 -16v-39l-4 -4q-127 4 -209 4l-213 -4l-4 4v39q0 14 16 16l39 4q51 5 69.5 24t18.5 64v510q0 72 -10.5 98.5t-34.5 28.5l-88 9l-4 49q208 33 283 63q8 0 8 -6z" />
<glyph unicode="&#x19f;" horiz-adv-x="1517" d="M1411 674q0 -203 -81.5 -361t-231 -245.5t-342.5 -87.5q-177 0 -324 78.5t-236.5 229.5t-89.5 347q0 198 85 361.5t233.5 257.5t329.5 94q184 0 333 -83t236.5 -237.5t87.5 -353.5zM1198 713q-16 272 -139 408t-332 136q-59 0 -114 -18t-107.5 -59.5t-92 -103t-65.5 -155 t-30 -208.5h880zM1200 633h-882q5 -134 47 -243t108.5 -177.5t150 -105.5t173.5 -37q180 0 291 148t112 415z" />
<glyph unicode="&#x1a0;" horiz-adv-x="1517" d="M727 1257q-61 0 -118.5 -19.5t-111 -64t-93 -110.5t-63.5 -167t-24 -226q0 -143 40 -259t108 -189t153 -112.5t179 -39.5q180 0 291.5 148.5t111.5 416.5q0 311 -125 466.5t-348 155.5zM1411 674q0 -203 -81.5 -361t-231 -245.5t-342.5 -87.5q-177 0 -324 78.5 t-236.5 229.5t-89.5 347q0 198 85 361.5t233.5 257.5t329.5 94t332 -84h22q17 0 40 6t48 27t25 53q0 19 -20.5 34t-43.5 17q-49 6 -72.5 33.5t-23.5 62.5q0 37 24.5 58.5t69.5 21.5q58 0 99.5 -56t41.5 -130q0 -155 -128 -182q115 -91 179 -228.5t64 -306.5z" />
<glyph unicode="&#x1a1;" d="M78 420q0 218 120.5 348.5t321.5 130.5q119 0 211 -45q26 -6 64 -6q17 0 39 5t45.5 25t23.5 52q0 19 -16.5 31.5t-40.5 15.5q-49 4 -73.5 31t-24.5 61q0 37 25 58.5t69 21.5q57 0 94 -53t37 -127q0 -77 -39.5 -125t-110.5 -56q123 -123 123 -350q0 -204 -117 -331 t-317 -127q-199 0 -316.5 125t-117.5 315zM506 817q-56 0 -99.5 -21t-71 -55t-45.5 -82t-25 -98t-7 -106q0 -52 7 -102t26.5 -104.5t49 -95t78.5 -66.5t111 -26q102 0 169 96.5t67 243.5q0 101 -10.5 171t-38 128.5t-80 87.5t-131.5 29z" />
<glyph unicode="&#x1a2;" horiz-adv-x="1806" d="M684 1278q-61 0 -119.5 -21.5t-114 -69.5t-97 -117t-66.5 -172.5t-25 -227.5q0 -144 39 -263t105.5 -197.5t155.5 -121.5t190 -43q124 0 223 80v1040q-125 113 -291 113zM1327 1233q-44 0 -93.5 3t-77.5 6l-28 3v-1122q-172 -148 -415 -148q-132 0 -248.5 47t-203 131.5 t-137 209t-50.5 272.5q0 198 82 361.5t228.5 257.5t326.5 94q158 0 293 -72q38 13 77 47h47q163 -14 222 -14q97 0 137.5 6.5t99.5 32.5h45v-1491q0 -45 20 -67.5t68 -22.5h49q6 0 11.5 -5t5.5 -12v-39l-4 -4q-150 4 -230 4l-221 -4l-4 4v39q0 17 16 17h50q49 0 68.5 22.5 t19.5 67.5v1235q0 35 -2 58t-10 39.5t-16.5 24.5t-29.5 12.5t-40 5.5t-56 1z" />
<glyph unicode="&#x1a3;" horiz-adv-x="1413" d="M692 688q-84 141 -211 141q-120 0 -186 -100t-66 -264q0 -89 20 -159.5t51 -113.5t71.5 -71.5t79 -39.5t77.5 -11q106 0 164 45v573zM1249 -324q0 -44 18.5 -63t69.5 -27l39 -6q17 -2 17 -16v-39l-4 -4q-140 4 -220 4l-213 -4l-4 4v39q0 13 17 16l39 6q50 8 69 27t19 63 v994q0 26 -9 44t-20.5 27t-34 13.5t-37 5t-41.5 0.5q-47 0 -108 -25v-631q-73 -50 -178 -87t-189 -37q-85 0 -155 28t-115.5 73.5t-76.5 104.5t-44.5 118.5t-13.5 119.5q0 205 115 340t300 135q121 0 193 -39q63 -33 266 -33q64 0 121.5 19.5t95.5 39t54 19.5h30v-1229z" />
<glyph unicode="&#x1a4;" horiz-adv-x="1196" d="M524 1241v-586q38 -10 146 -10q155 0 235 75.5t80 237.5q0 312 -293 312q-30 0 -84.5 -9.5t-83.5 -19.5zM129 1143q0 -18 8 -51t8 -50q0 -31 -20 -50t-51 -19q-29 0 -51.5 19t-22.5 65q0 37 17 79.5t51 85t97.5 71.5t145.5 30h4l111 6q177 10 283 10q108 0 191.5 -24.5 t131 -61t77.5 -85.5t40 -90.5t10 -82.5q0 -56 -13.5 -110.5t-47.5 -111t-86.5 -99t-137.5 -69.5t-192 -27q-91 0 -158 20v-455q0 -46 26 -67t87 -21h53q6 0 11.5 -4.5t5.5 -11.5v-39l-5 -4q-178 4 -258 4l-264 -4l-4 4v39q0 16 17 16h55q61 0 85.5 21.5t24.5 66.5v1035 q0 56 -10 72t-39 16q-41 -1 -80 -12.5t-69.5 -40.5t-30.5 -70z" />
<glyph unicode="&#x1a5;" horiz-adv-x="980" d="M307 637v-500q75 -88 170 -88q63 0 111.5 23t77.5 59t47.5 87t25 101t6.5 107q0 180 -63.5 279.5t-161.5 99.5q-57 0 -119 -45.5t-94 -122.5zM905 481q0 -136 -49 -249t-145 -182.5t-222 -69.5q-100 0 -182 45v-349q0 -44 18.5 -63t67.5 -27l39 -6q19 -4 19 -16v-39 l-5 -4q-141 4 -221 4l-211 -4l-4 4v39q0 13 17 16l39 6q51 8 69.5 27t18.5 63v1340q0 65 10 123.5t32.5 112.5t56 93t84.5 62t114 23q68 0 129 -31t61 -74q0 -37 -19 -58.5t-47 -21.5q-32 0 -53.5 26t-32.5 64q-6 33 -30 33q-70 0 -111 -75.5t-41 -215.5v-196l-6 -146h6 q108 164 268 164q96 0 173 -59.5t117 -154.5t40 -204z" />
<glyph unicode="&#x1a6;" horiz-adv-x="1155" d="M1018 795q0 -61 -29 -116.5t-74 -92.5t-90 -61t-84 -33l213 -490q84 -158 193 -158l6 -41q-35 -14 -86 -14q-87 0 -155 49t-111 127l-211 477q-7 16 -20 22t-52 8.5t-135 2.5v-332q0 -46 26 -67t87 -21h53q16 0 16 -16v-39l-4 -4q-176 4 -258 4l-262 -4l-4 4v39 q0 16 14 16h55q61 0 86 21.5t25 66.5v1033q0 47 -26 68.5t-85 21.5h-55q-16 0 -16 16v39l4 2q178 -2 258 -2l264 2l4 -2v-39q0 -16 -16 -16h-53q-61 0 -87 -22.5t-26 -67.5v-52q43 2 156 2q78 0 145 -9.5t129.5 -33t107 -60t71 -95t26.5 -133.5zM852 793q0 60 -18.5 106.5 t-48 75t-69 47.5t-77.5 26t-78 7q-95 0 -178 -17v-491h102q65 0 115 5.5t99.5 21t81.5 42.5t51.5 71.5t19.5 105.5z" />
<glyph unicode="&#x1a7;" horiz-adv-x="980" d="M199 1292q35 5 67.5 15.5t53.5 19t67 15t111 6.5q91 0 178.5 -42.5t147 -126t59.5 -186.5q0 -50 -15 -95t-38 -79t-59 -66t-68 -53t-77 -43t-74 -34t-69 -27q-55 -22 -89.5 -41t-69.5 -52t-51.5 -82t-16.5 -116q0 -121 76.5 -188.5t197.5 -67.5q250 0 320 316l61 -7 q-36 -281 -39 -358q-17 0 -45 5t-49 5q-16 0 -46 -8.5t-89 -17.5t-147 -9q-114 0 -208.5 57t-146 149t-51.5 196q0 72 22.5 130.5t54.5 97t85 72.5t96 52.5t105 40.5q288 104 288 279q0 96 -63 162.5t-162 66.5q-42 0 -78.5 -10.5t-63 -26t-49.5 -42t-38 -50.5t-29.5 -59 t-22.5 -59t-18 -60l-61 10q34 189 43 311z" />
<glyph unicode="&#x1a8;" horiz-adv-x="759" d="M672 287l-15 -287q-18 4 -47 4q-25 0 -39 -4q-76 -20 -184 -20q-32 0 -69.5 7t-81.5 25.5t-78.5 46.5t-58 74.5t-23.5 104.5q0 59 22.5 106.5t67 82.5t93 59.5t118.5 50.5q84 31 116.5 66.5t32.5 96.5q0 138 -157 138q-20 0 -46 -8.5t-59 -28.5t-62 -62.5t-44 -101.5 l-49 2q3 94 20 209q102 51 240 51q123 0 202.5 -63.5t79.5 -165.5q0 -56 -13 -95.5t-46 -69.5t-67 -49t-99 -48q-120 -51 -166.5 -100.5t-46.5 -117.5q0 -69 58 -111t120 -42q53 0 95.5 18.5t64.5 40.5q34 35 52 91t22 102z" />
<glyph unicode="&#x1a9;" horiz-adv-x="1212" d="M236 98q90 5 472.5 21t395.5 16l4 -8q-4 -32 -4 -68q0 -1 4 -59l-4 -6q-50 6 -123 6h-793l-143 -4l-4 4v49l4 6q25 25 39 43l432 535l4 2l-379 545q-5 7 -14 20t-11.5 16.5l-7.5 10.5t-8 9.5t-6.5 7t-8.5 8.5t-9 7.5t-13 10.5v51l5 2l184 -2h690q74 0 123 6l4 -6 q-4 -58 -4 -59q0 -36 4 -68l-4 -8l-145 8q-145 7 -329 12.5t-260 0.5l369 -529z" />
<glyph unicode="&#x1aa;" horiz-adv-x="624" d="M571 -375q20 0 33.5 17.5t20 39t21.5 39t38 17.5q26 0 45 -16t19 -56q0 -37 -51.5 -68.5t-131.5 -31.5q-32 0 -82.5 19.5t-83.5 49.5q-24 22 -42 49.5t-28.5 65.5t-17 68.5t-9 84.5t-3 87t-0.5 100v789q0 113 20 188q-54 -33 -98 -33q-100 0 -158.5 54.5t-58.5 142.5 q0 90 62.5 144.5t156.5 54.5q77 0 125 -32t76.5 -116.5t28.5 -228.5v-1026q0 -172 11 -246t32 -103q29 -53 75 -53zM356 1231q0 55 -35.5 99t-99.5 44q-63 0 -99 -42.5t-36 -100.5t36.5 -99.5t98.5 -41.5q60 0 97.5 42t37.5 99z" />
<glyph unicode="&#x1ab;" horiz-adv-x="696" d="M336 -297q-33 0 -53.5 23t-20.5 55t20 48.5t45.5 19t58 7.5t48.5 15q55 32 55 121v5q-55 -17 -120 -17q-76 0 -128.5 51t-52.5 145q0 23 3.5 143t3.5 189v280q-99 0 -146 -4l-10 15q27 42 45 84q33 -4 111 -4q0 120 8 262l4 6q30 4 52.5 11.5t49 20.5t41.5 19 q19 0 19 -20q-11 -145 -11 -299h97q21 0 47.5 0.5t55 2t40.5 1.5l10 -15q-16 -40 -24 -84q-36 4 -148 4h-78v-258q0 -69 -3 -159t-3 -113q0 -84 15.5 -123t52.5 -45q79 -12 161 16l25 -51q-33 -21 -61 -35q2 -28 2 -40q0 -65 -24.5 -120.5t-59.5 -88t-69 -50.5t-58 -18z" />
<glyph unicode="&#x1ac;" horiz-adv-x="1204" d="M150 1139q0 -16 8 -48t8 -49q0 -32 -20.5 -50.5t-51.5 -18.5q-30 0 -52 19t-22 65q0 29 9.5 61.5t33 69t57.5 66t89.5 48.5t122.5 19h731q43 0 43 47l53 6q8 -205 31 -313l-62 -10q-12 47 -18.5 71.5t-17 49.5t-20 35t-26 19t-35 11t-48.5 2h-136q-57 0 -77.5 -17.5 t-20.5 -68.5v-1008q0 -47 26.5 -68.5t86.5 -21.5h55q16 0 16 -16v-39l-4 -4q-180 4 -260 4l-262 -4l-4 4v39q0 16 16 16h54q61 0 86.5 22.5t25.5 67.5v1014q0 47 -21 63.5t-77 16.5h-137q-180 0 -180 -100z" />
<glyph unicode="&#x1ad;" horiz-adv-x="622" d="M336 799v-523q0 -101 14 -144.5t53 -43.5q74 0 148 57l37 -34q-121 -136 -256 -136q-150 0 -150 203v621h-133q-8 0 -8 8v63q0 9 6 9q43 0 72 15.5t41 40.5t16 43.5t4 37.5v6q1 81 17.5 151.5t50.5 129.5t92.5 93t136.5 34q68 0 130.5 -31t62.5 -74q0 -37 -19 -58.5 t-47 -21.5q-34 0 -55.5 26.5t-30.5 63.5q-9 33 -33 33q-61 0 -101 -61t-48 -173v-255h225q17 0 17 -13v-41q0 -12 -16 -19t-34 -7h-192z" />
<glyph unicode="&#x1ae;" horiz-adv-x="1167" d="M528 1159q0 47 -21 63.5t-79 16.5h-172q-60 0 -89.5 -13.5t-49.5 -51.5t-41 -123l-62 10q30 133 45 315l56 -8q0 -47 43 -47h866q45 0 45 47l53 6q8 -205 31 -313l-61 -10q-12 47 -19 71.5t-17.5 49.5t-19.5 35t-26 19t-35.5 11t-48.5 2h-135q-57 0 -78 -17.5t-21 -68.5 v-1153q0 -102 11.5 -171t35 -105.5t52.5 -51t69 -14.5q38 0 52 14.5t18 38.5q19 80 80 80q63 0 63 -61q0 -38 -23 -66.5t-58 -42.5t-68.5 -20.5t-63.5 -6.5q-42 0 -84 10.5t-87.5 39.5t-80.5 72.5t-57.5 117t-22.5 166.5v1159z" />
<glyph unicode="&#x1af;" horiz-adv-x="1437" d="M1114 911q0 264 -20 410l4 6q38 -6 71 -6q97 0 157 14.5t60 38.5q0 39 -61 39q-50 0 -73 24.5t-23 59.5q0 36 27.5 58t72.5 22q58 0 96.5 -49.5t38.5 -122.5q0 -65 -39 -102t-106 -37q-76 0 -87 -69q-7 -100 -7 -286v-307q0 -115 -15 -206t-52.5 -171t-97.5 -133 t-153.5 -83.5t-216.5 -30.5q-62 0 -121 11.5t-125.5 45.5t-116 87.5t-82 146t-32.5 212.5v428q0 264 -20 410l4 6q37 -6 104 -6q68 0 105 6l4 -6q-21 -143 -21 -410v-360q0 -28 0.5 -45.5t3.5 -56t8.5 -66.5t17.5 -67.5t28.5 -68t43.5 -59t60 -50t79.5 -32t102.5 -12.5 q72 0 130 14.5t97 38.5t68 61.5t45 75.5t25.5 89.5t12.5 95t3 98.5v344z" />
<glyph unicode="&#x1b0;" horiz-adv-x="1099" d="M748 188q-57 -87 -139 -147.5t-171 -60.5q-73 0 -127 24t-83.5 65.5t-43.5 90t-14 104.5v246q0 237 -18 369l4 6q38 -6 96 -6t96 6l4 -6q-18 -123 -18 -369v-203q0 -68 11 -113t32 -65.5t42 -27.5t52 -7q71 0 151 65t130 150v201q0 230 -19 369l4 6q37 -6 97 -6 q42 0 65 2q34 7 50 23.5t16 33.5q0 40 -56 43q-49 1 -73.5 27t-24.5 61q0 37 25 58.5t69 21.5q57 0 93 -53t36 -127q0 -48 -27 -86.5t-80 -54.5q-12 -110 -12 -318v-117q0 -201 35 -393l-4 -6q-40 6 -91 6q-27 0 -81 -6q-8 0 -8 6l-10 182z" />
<glyph unicode="&#x1b1;" horiz-adv-x="1363" d="M258 1202q-42 0 -65 -3t-44.5 -15t-32 -37t-14.5 -68h-53l14 242h197q98 0 140 -32.5t42 -94.5q0 -54 -30.5 -142t-67.5 -167t-67.5 -173.5t-30.5 -160.5q0 -223 114 -364.5t310 -141.5q103 0 185 41.5t133 112t77.5 160t26.5 190.5t-33.5 211t-73 185t-73 150.5 t-33.5 116.5q0 55 59 82t203 27h143l14 -242h-53q-6 76 -38.5 99.5t-116.5 23.5q-95 0 -95 -45q0 -25 28.5 -71.5t69.5 -104t81.5 -123.5t69 -148t28.5 -159q0 -105 -38.5 -205.5t-110.5 -184t-190 -135t-263 -51.5q-149 0 -266.5 46.5t-190 127.5t-110 183t-37.5 219 q0 76 29 157.5t70 147.5t82 124t70 105t29 72q0 45 -88 45z" />
<glyph unicode="&#x1b2;" horiz-adv-x="1333" d="M182 451v725q0 47 -25.5 68.5t-84.5 21.5h-56q-16 0 -16 16v39l4 2q178 -2 258 -2l264 2l4 -2v-39q0 -16 -16 -16h-53q-61 0 -87 -22.5t-26 -67.5v-666q0 -68 4.5 -121.5t16 -108.5t33.5 -94.5t55 -72t83 -48.5t115 -16q97 0 185 44t158 126.5t111.5 213t41.5 290.5 q0 35 -2.5 78.5t-9 111.5t-22 128.5t-37.5 116.5t-59 89t-83 33q-60 0 -68 -49q-2 -14 -7 -30.5t-24.5 -36t-47.5 -19.5q-25 0 -46.5 16t-21.5 51q0 38 23.5 66.5t59.5 42.5t70 20.5t64 6.5q82 0 142.5 -46.5t95.5 -129.5t52 -185.5t17 -224.5q0 -140 -22.5 -256t-59 -196 t-87.5 -141.5t-103.5 -97t-112.5 -58t-109 -30.5t-98 -8q-84 0 -150.5 12.5t-128.5 44.5t-103.5 84.5t-66 137.5t-24.5 197z" />
<glyph unicode="&#x1b3;" horiz-adv-x="1312" d="M473 891q-41 71 -62 107t-54 90t-53 81t-44.5 56t-44 41t-37.5 12t-37.5 -10t-19.5 -33q0 -6 2 -23t2 -28q0 -74 -62 -74q-31 0 -47 21t-16 47q0 57 69 114.5t169 57.5q88 0 176.5 -92t216.5 -304l151 -256l260 482q23 42 23 57q0 17 -10 23t-41 6h-62q-12 0 -12 14v41 l4 2q162 -2 189 -2l178 2l4 -2v-41q0 -14 -21 -14h-43q-45 0 -71.5 -19.5t-53.5 -70.5l-305 -576v-455q0 -47 26.5 -68.5t86.5 -21.5h53q19 0 19 -16v-39l-5 -4q-178 4 -258 4l-264 -4l-4 4v39q0 16 17 16h53q61 0 86.5 22.5t25.5 67.5v430z" />
<glyph unicode="&#x1b4;" horiz-adv-x="1282" d="M856 684q-198 -442 -362 -836q-24 -57 -39.5 -91.5t-43.5 -83t-54.5 -76t-64 -48t-79.5 -20.5q-40 0 -79.5 23.5t-39.5 72.5q0 41 24 60.5t54 19.5q42 0 64 -29q34 -34 55 -34q11 0 28 25.5t42.5 82t39.5 90t43 103.5q17 35 17 63q0 27 -35 117l-258 600q-25 60 -49.5 80 t-75.5 20q-20 0 -20 15v41l4 4q90 -4 151 -4l244 4l4 -6v-37q0 -7 -7.5 -12t-15.5 -5q-46 0 -67 -10.5t-21 -34.5q0 -18 13 -47l225 -528l227 520q90 203 173 310.5t175 107.5q78 0 112 -27.5t34 -69.5q0 -31 -24 -55t-56 -24q-56 0 -84 28q-12 15 -49 15q-23 0 -50 -28.5 t-57.5 -87t-49 -98.5t-48.5 -110z" />
<glyph unicode="&#x1b5;" horiz-adv-x="1273" d="M383 111q119 0 313.5 10.5t329.5 21.5l135 11l4 -7q-4 -32 -4 -67q0 -22 4 -80l-4 -6q-49 6 -145 6h-744l-178 -6l-6 8q13 17 31.5 44t21.5 32l378 553h-304v69h351l331 486q7 12 4.5 18t-10.5 6q-225 0 -727 -43l-4 7q4 32 4 67q0 22 -4 80l4 6q50 -6 125 -6h622 q49 0 141 4t117 8q13 0 13 -12q0 -25 -62 -111l-349 -510h310v-69h-357l-331 -484q-10 -14 -10 -36z" />
<glyph unicode="&#x1b6;" horiz-adv-x="851" d="M278 92q111 0 239 6t201 12l73 5l4 -6q-4 -32 -4 -54q0 -1 4 -55l-4 -6q-47 6 -115 6h-463l-166 -6l-6 9q19 23 45 63l230 344h-175v69h221l205 307q-104 -1 -221 -6.5t-182 -10.5l-64 -5l-4 6q4 32 4 53q0 2 -4 56l4 6q46 -6 115 -6h418q26 0 65 3t68 6t32 3 q11 0 11 -12q-15 -17 -61 -86l-210 -314h167v-69h-214z" />
<glyph unicode="&#x1b7;" horiz-adv-x="1245" d="M596 -348q85 0 154.5 38.5t112.5 102t66 139t23 154.5q0 86 -30 159.5t-77 121t-104.5 81.5t-110.5 49t-98 15q-54 0 -83 -6l436 680q7 12 4.5 18t-10.5 6q-225 0 -727 -43l-5 7q5 40 5 67q0 7 -5 80l5 6q50 -6 124 -6h623q49 0 141 4t117 8q12 0 12 -12q0 -5 -1 -10 t-4.5 -12t-6 -12.5t-9 -16t-11 -16.5t-14 -20.5t-15.5 -23.5l-408 -618q221 -19 342 -151.5t121 -348.5q0 -81 -20.5 -157t-66 -145.5t-111.5 -121t-163.5 -82t-215.5 -30.5q-111 0 -228.5 19t-179.5 37l-61 19l-4 7q27 102 37 251l60 9q60 -119 168 -182.5t218 -63.5z" />
<glyph unicode="&#x1b8;" horiz-adv-x="1245" d="M907 1321q29 0 92.5 21t77.5 24l43 -385l-53 -6q-3 30 -11 63t-26 69t-41.5 64.5t-60.5 47.5t-80 20h-510l399 -723q-29 6 -84 6q-45 0 -93 -13.5t-99 -46.5t-91 -81t-65.5 -125t-25.5 -170q0 -96 55.5 -199.5t144.5 -173t176 -69.5q84 0 157.5 42.5t123.5 118.5 q20 32 58.5 52t78.5 20q49 0 70.5 -30t21.5 -72q0 -48 -50 -89t-124.5 -65.5t-153 -38.5t-143.5 -14q-161 0 -299.5 74t-219.5 198t-81 264q0 179 103.5 312.5t302.5 173.5l-342 618q-33 60 -33 84q0 29 55 29h727z" />
<glyph unicode="&#x1b9;" horiz-adv-x="917" d="M649 879q22 0 32.5 6.5t10.5 29.5l45 9l66 -312l-55 -10q-25 117 -65 157t-95 40h-291l321 -582q-63 14 -120 14q-122 0 -209.5 -87t-87.5 -216q0 -86 29 -154t74 -106.5t91 -58t86 -19.5q59 0 102 27.5t64 67.5q36 57 107 57q30 0 44.5 -18.5t14.5 -45.5 q0 -53 -90.5 -100t-222.5 -47q-107 0 -194.5 34.5t-143 91.5t-85.5 127.5t-30 145.5q0 165 96 265.5t275 115.5l-268 482q-21 47 -21 59q0 27 49 27h471z" />
<glyph unicode="&#x1ba;" horiz-adv-x="917" d="M532 444q134 -6 212.5 -88t78.5 -225q0 -69 -19.5 -122t-48.5 -83.5t-68 -54t-73 -34t-69 -23.5t-51 -23q-80 -50 -80 -100q0 -17 7 -41t7 -35q0 -37 -25 -62.5t-51 -25.5q-29 0 -51 20t-22 56q0 42 12.5 76t41 64.5t58.5 53.5t80 56q19 12 51 23t53.5 21.5t43.5 32.5 t33.5 68t11.5 117q0 36 -4.5 68.5t-18 69t-35 63t-59.5 44t-88 17.5q-17 0 -40.5 -4.5t-58 -13.5t-45.5 -11l314 445h-365q-66 0 -90.5 -25t-42.5 -121l-41 4l33 252q33 -5 56.5 -14.5t56.5 -9.5h536q29 0 29 -17q0 -32 -25 -69z" />
<glyph unicode="&#x1bb;" horiz-adv-x="897" d="M739 580v-70h-86q-52 -67 -108 -129t-86.5 -92.5t-91.5 -89.5q-36 -36 -36 -56q0 -5 3 -10q56 4 167 4q180 0 375 17q-11 -43 -11 -97q0 -18 7 -67q-243 10 -356 10q-67 0 -126.5 -1.5t-134.5 -4.5t-127 -4q-20 33 -20 80q0 14 3 26q2 2 74.5 70t110 105t104 107 t115.5 132h-300v70h353q9 12 25 36q38 57 58 132t20 143q0 104 -66 173t-150 69q-98 0 -158 -48q-19 -15 -33.5 -34t-19.5 -29t-19 -42t-18 -40l-27 2l-45 141q29 37 70.5 71t119 64.5t163.5 30.5q169 0 264 -90.5t95 -239.5q0 -146 -141 -339h33z" />
<glyph unicode="&#x1bc;" horiz-adv-x="878" d="M625 369q0 69 -29.5 130t-75.5 100.5t-99.5 62t-103.5 22.5q-97 0 -157 -22l45 389l-160 110h664l-17 -119v-4h-401l-33 -264l104 4q99 0 178.5 -32.5t128 -87t74 -120.5t25.5 -137q0 -102 -32 -184t-86.5 -134t-125 -80t-149.5 -28q-94 0 -185.5 44.5t-91.5 101.5 q0 28 20.5 46.5t49.5 18.5q53 0 84 -57q43 -84 117 -84q116 0 186 89t70 235z" />
<glyph unicode="&#x1bd;" horiz-adv-x="878" d="M608 283q0 98 -66.5 182t-160.5 84q-49 0 -126.5 -8.5t-119.5 -20.5l70 246l-121 113h625l-17 -119v-4h-401l-35 -127q145 10 178 10q97 0 171.5 -49t110.5 -122t36 -153q0 -49 -11 -95.5t-37.5 -91.5t-66 -78.5t-101.5 -54t-139 -20.5q-60 0 -129 19.5t-119.5 54 t-50.5 72.5q0 28 20.5 46.5t49.5 18.5q49 0 82 -61q19 -33 56.5 -56.5t84.5 -23.5q97 0 157 59t60 179z" />
<glyph unicode="&#x1be;" horiz-adv-x="753" d="M152 799h-103q-8 0 -8 8v63q0 9 6 9q84 1 115 57t31 180v39l116 41v-317h226q16 0 16 -13v-41q0 -12 -15.5 -19t-31.5 -7h-201v-99q0 -63 29 -98t110 -65q132 -49 193 -115t61 -184q0 -58 -25 -105t-62.5 -75.5t-83.5 -48t-85.5 -27t-72.5 -7.5q-115 0 -199 23 q-28 4 -39 4q-20 0 -47 -6l-14 291l55 2q2 -45 20.5 -103.5t53.5 -93.5q18 -20 65.5 -39.5t99.5 -19.5q39 0 82.5 17.5t78 55t34.5 84.5q0 34 -1 50.5t-9.5 43t-25 43.5t-48.5 39t-80 42q-41 18 -60.5 27.5t-51 26t-46 29t-34 32t-28 40t-15 47.5t-6.5 60v129z" />
<glyph unicode="&#x1bf;" horiz-adv-x="1064" d="M625 811q-60 0 -127.5 -36.5t-182.5 -129.5v-749q239 137 374.5 293t135.5 325q0 146 -46 221.5t-154 75.5zM162 657q0 72 -10.5 98.5t-34.5 28.5l-88 9l-4 49q206 33 282 63q8 0 8 -6l-6 -182h6q201 182 361 182q74 0 131 -18.5t92 -48.5t57 -71.5t30.5 -83.5t8.5 -89 q0 -111 -46 -214t-137.5 -197.5t-212 -180t-284.5 -174.5v-217l-272 -74l-8 51q-3 16 10 19l35 10q45 13 63.5 42t18.5 81v923z" />
<glyph unicode="&#x1c0;" horiz-adv-x="378" d="M229 -20h-79v1450h79v-1450z" />
<glyph unicode="&#x1c1;" horiz-adv-x="587" d="M438 -20h-80v1450h80v-1450zM229 -20h-79v1450h79v-1450z" />
<glyph unicode="&#x1c2;" horiz-adv-x="679" d="M596 662v-70h-238v-612h-79v612h-228v70h228v147h-228v70h228v551h79v-551h238v-70h-238v-147h238z" />
<glyph unicode="&#x1c3;" horiz-adv-x="466" d="M231 1348q46 0 80.5 -39t34.5 -111q0 -75 -23 -203t-30 -192q-12 -97 -19 -183.5t-10 -134t-4 -55.5q-4 -41 -29 -41q-15 0 -20.5 7t-7.5 20q-1 13 -5.5 78.5t-11.5 152t-14 156.5q-7 72 -29 194t-22 201q0 75 34.5 112.5t75.5 37.5zM117 90v8q15 41 39.5 67t70.5 44h9 q45 -17 70.5 -42.5t39.5 -68.5v-8q-16 -49 -41 -74t-69 -36h-9q-48 11 -72.5 35t-37.5 75z" />
<glyph unicode="&#x1c4;" horiz-adv-x="2592" d="M389 168q0 -36 14 -51.5t60.5 -23t148.5 -7.5q66 0 120.5 5.5t109.5 20.5t98 39t81 62t63 89.5t39 122t14 157.5q0 100 -17 190t-59 176.5t-106 149t-165 101t-229 38.5q-42 0 -70 -3t-53 -11t-37 -25t-12 -43v-987zM301 1321q65 0 169 3t169 3q145 0 276.5 -55.5 t226 -149t150.5 -222.5t56 -269q0 -105 -22.5 -193.5t-60 -153t-91 -115t-112.5 -82.5t-126.5 -53t-131 -29.5t-128.5 -8.5q-114 0 -212.5 2t-162.5 2q-32 0 -58.5 -1.5t-36.5 -2.5l-11 -2l-2 6q20 139 20 410v501q0 264 -20 410l4 6q34 -6 104 -6zM1931 1427 q-75 93 -207 195l33 41q121 -53 217 -125q118 82 219 125l31 -41q-103 -78 -205 -195h-88zM1741 111q119 0 313.5 10.5t329.5 21.5l135 11l4 -7q-4 -32 -4 -67q0 -22 4 -80l-4 -6q-49 6 -145 6h-744l-178 -6l-6 8q13 17 31.5 44t21.5 32l756 1108q7 12 4.5 18t-10.5 6 q-225 0 -727 -43l-4 7q4 32 4 67q0 22 -4 80l4 6q50 -6 125 -6h622q49 0 141 4t117 8q13 0 13 -12q0 -25 -62 -111l-727 -1063q-10 -14 -10 -36z" />
<glyph unicode="&#x1c5;" horiz-adv-x="2193" d="M389 168q0 -36 14 -51.5t60.5 -23t148.5 -7.5q66 0 120.5 5.5t109.5 20.5t98 39t81 62t63 89.5t39 122t14 157.5q0 100 -17 190t-59 176.5t-106 149t-165 101t-229 38.5q-42 0 -70 -3t-53 -11t-37 -25t-12 -43v-987zM301 1321q65 0 169 3t169 3q145 0 276.5 -55.5 t226 -149t150.5 -222.5t56 -269q0 -105 -22.5 -193.5t-60 -153t-91 -115t-112.5 -82.5t-126.5 -53t-131 -29.5t-128.5 -8.5q-114 0 -212.5 2t-162.5 2q-32 0 -58.5 -1.5t-36.5 -2.5l-11 -2l-2 6q20 139 20 410v501q0 264 -20 410l4 6q34 -6 104 -6zM1737 1026 q-77 125 -207 266l41 27q142 -105 217 -184q80 82 221 184l39 -27q-139 -154 -209 -266h-102zM1630 92q111 0 239 6t201 12l72 5l4 -6q-4 -32 -4 -54q0 -1 4 -55l-4 -6q-46 6 -114 6h-463l-166 -6l-6 9q19 23 45 63l481 720q-104 -1 -221 -6.5t-182 -10.5l-64 -5l-4 6 q4 32 4 53q0 2 -4 56l4 6q46 -6 115 -6h418q26 0 65 3t68 6t32 3q11 0 11 -12q-19 -22 -62 -86z" />
<glyph unicode="&#x1c6;" horiz-adv-x="1837" d="M739 231v467q-39 62 -82 90.5t-112 28.5q-34 0 -66 -8t-69 -32t-64 -62.5t-45 -106t-18 -155.5q0 -182 57.5 -274.5t146.5 -92.5q64 0 130.5 37.5t121.5 107.5zM739 119q-108 -139 -264 -139q-163 0 -267 132t-104 324q0 207 130.5 335t332.5 128q33 0 86 -13t86 -32v133 q0 297 -18 395l4 7q90 7 178 41q19 0 19 -21q-19 -239 -19 -385v-631q0 -201 35 -393l-4 -6q-41 6 -91 6q-17 0 -71 -6q-18 0 -18 6l-11 119h-4zM1380 1026q-79 128 -206 266l40 27q145 -107 218 -184q80 82 221 184l39 -27q-139 -154 -209 -266h-103zM1274 92q111 0 239 6 t201 12l72 5l4 -6q-4 -32 -4 -54q0 -1 4 -55l-4 -6q-46 6 -115 6h-463l-166 -6l-6 9q20 23 45 63l482 720q-104 -1 -221 -6.5t-182 -10.5l-64 -5l-4 6q4 32 4 53q0 2 -4 56l4 6q47 -6 114 -6h418q26 0 65 3t68 6t32 3q11 0 11 -12q-15 -17 -61 -86z" />
<glyph unicode="&#x1c7;" horiz-adv-x="1572" d="M391 911v-501q0 -226 17 -285q122 0 266 11t228 22l83 12l4 -8q-4 -32 -4 -72q0 -32 4 -90l-4 -6q-49 6 -123 6h-559q-31 0 -57.5 -1.5t-37.5 -2.5l-11 -2l-2 6q20 139 20 410v501q0 264 -20 410l4 6q37 -6 104 -6q69 0 107 6l2 -6q-21 -143 -21 -410zM1212 195v716 q0 264 -20 410l4 6q38 -6 104 -6q70 0 107 6l2 -6q-20 -136 -20 -410v-671q0 -121 -10 -189t-36 -121t-83 -127q-120 -155 -324 -155q-63 0 -92 18l-2 6q25 42 57 168l23 2q40 -71 118 -71q34 0 60.5 14.5t44.5 37.5t31 59t19.5 70t10.5 80.5t5 81.5t1 81z" />
<glyph unicode="&#x1c8;" horiz-adv-x="1579" d="M391 911v-501q0 -226 17 -285q122 0 266 11t228 22l83 12l4 -8q-4 -32 -4 -72q0 -32 4 -90l-4 -6q-49 6 -123 6h-559q-31 0 -57.5 -1.5t-37.5 -2.5l-11 -2l-2 6q20 139 20 410v501q0 264 -20 410l4 6q37 -6 104 -6q69 0 107 6l2 -6q-21 -143 -21 -410zM1196 1233 q0 41 31.5 72.5t72.5 31.5t73 -31.5t32 -72.5t-32 -73t-73 -32t-72.5 32t-31.5 73zM1384 524v-268q0 -223 -20.5 -334t-69.5 -188q-105 -166 -276 -166q-59 0 -88 18l-2 6q8 31 8 183l33 8q52 -92 123 -92q41 0 68 39t39.5 116.5t17 159t4.5 201.5v285q0 268 -19 397l4 6 q31 -2 88 -2t90 4q12 0 15.5 -3.5t3.5 -16.5q-19 -183 -19 -353z" />
<glyph unicode="&#x1c9;" horiz-adv-x="993" d="M610 1223q0 41 32 72.5t73 31.5t72.5 -31.5t31.5 -72.5t-31.5 -73t-72.5 -32t-73 32t-32 73zM799 514v-268q0 -223 -20.5 -334t-69.5 -188q-105 -166 -277 -166q-59 0 -88 18l-2 6q8 31 8 182l33 9q52 -92 123 -92q41 0 68 39t39.5 116.5t17 159t4.5 201.5v284 q0 269 -19 398l5 6q31 -2 88 -2t90 4q12 0 15 -3.5t3 -17.5q-18 -173 -18 -352zM184 410v577q0 297 -18 395l4 7q90 7 178 41q19 0 19 -21q-19 -247 -19 -385v-614q0 -271 19 -410l-5 -6q-38 6 -96 6t-96 -6l-4 6q18 132 18 410z" />
<glyph unicode="&#x1ca;" horiz-adv-x="2084" d="M221 1321l4 6q16 -6 86 -6l29 4l702 -909q72 -93 86 -105q25 -22 32 14q2 14 3 40v546q0 264 -20 410l4 6q37 -6 72 -6q33 0 71 6l4 -6q-12 -160 -19 -335.5t-10 -290t-6.5 -329.5t-5.5 -323q-3 -63 -39 -63q-52 0 -88 49l-714 903q-21 27 -32.5 41t-21.5 21t-14.5 5.5 t-7.5 -15.5t-3.5 -32t-0.5 -53v-489q0 -264 20 -410l-4 -6q-38 6 -72 6t-71 -6l-4 6q24 236 29 636.5t-9 684.5zM1724 195v716q0 264 -20 410l4 6q37 -6 104 -6q70 0 107 6l2 -6q-20 -136 -20 -410v-671q0 -121 -10 -189t-36 -121t-83 -127q-120 -155 -324 -155 q-63 0 -92 18l-2 6q25 42 57 168l23 2q40 -71 118 -71q34 0 60.5 14.5t44.5 37.5t31 59t19.5 70t10.5 80.5t5 81.5t1 81z" />
<glyph unicode="&#x1cb;" horiz-adv-x="1925" d="M221 1321l4 6q16 -6 86 -6l29 4l702 -909q72 -93 86 -105q25 -22 32 14q2 14 3 40v546q0 264 -20 410l4 6q37 -6 72 -6q33 0 71 6l4 -6q-12 -160 -19 -335.5t-10 -290t-6.5 -329.5t-5.5 -323q-3 -63 -39 -63q-52 0 -88 49l-714 903q-21 27 -32.5 41t-21.5 21t-14.5 5.5 t-7.5 -15.5t-3.5 -32t-0.5 -53v-489q0 -264 20 -410l-4 -6q-38 6 -72 6t-71 -6l-4 6q24 236 29 636.5t-9 684.5zM1542 1223q0 41 32 72.5t73 31.5t72.5 -31.5t31.5 -72.5t-31.5 -73t-72.5 -32t-73 32t-32 73zM1731 514v-268q0 -222 -21 -333.5t-70 -188.5 q-105 -166 -276 -166q-59 0 -88 18l-2 6q8 31 8 182l33 9q52 -92 123 -92q41 0 68 39t39.5 116.5t17 159t4.5 201.5v284q0 269 -19 398l4 6q31 -2 88.5 -2t90.5 4q12 0 15 -3.5t3 -17.5q-18 -173 -18 -352z" />
<glyph unicode="&#x1cc;" horiz-adv-x="1544" d="M942 369q0 -230 19 -369l-5 -6q-38 6 -96 6t-96 -6l-4 6q18 132 18 369v200q0 121 -33 164t-114 43q-63 0 -144 -41.5t-153 -126.5v-239q0 -237 18 -369l-4 -6q-38 6 -96 6t-96 -6l-4 6q18 125 18 369v112q0 284 -18 398l4 6q87 -9 166 6q12 0 12 -21v-149l4 -6 q46 55 98 93.5t100 57t85 26t71 7.5q135 0 194.5 -80t59.5 -244q0 -33 -2 -103t-2 -103zM1161 1223q0 41 32 72.5t73 31.5t72.5 -31.5t31.5 -72.5t-31.5 -73t-72.5 -32t-73 32t-32 73zM1350 514v-268q0 -223 -20.5 -334t-69.5 -188q-105 -166 -277 -166q-59 0 -88 18l-2 6 q8 31 8 182l33 9q52 -92 123 -92q41 0 68 39t39.5 116.5t17 159t4.5 201.5v284q0 269 -19 398l4 6q31 -2 88.5 -2t90.5 4q12 0 15 -3.5t3 -17.5q-18 -173 -18 -352z" />
<glyph unicode="&#x1cd;" horiz-adv-x="1288" d="M631 1427q-75 93 -207 195l33 41q121 -53 217 -125q118 82 219 125l31 -41q-103 -78 -205 -195h-88zM834 564q-97 253 -207 505h-4l-216 -504q135 -6 214 -6q100 0 213 5zM367 468q-124 -305 -170 -474q-25 6 -93 6q-46 0 -71 -6q338 741 604 1354h57 q69 -165 197.5 -483.5t223.5 -549t140 -321.5q-35 6 -122 6q-68 0 -103 -6q-45 168 -159 474q-83 5 -240 5q-179 0 -264 -5z" />
<glyph unicode="&#x1ce;" horiz-adv-x="985" d="M387 1030q-77 125 -207 266l41 27q142 -105 217 -184q80 82 221 184l39 -27q-139 -154 -209 -266h-102zM635 461l-174 -47q-114 -31 -158.5 -81t-44.5 -124q0 -50 43 -87.5t109 -37.5q82 0 188 80q29 22 29 53zM635 98h-8q-83 -70 -139 -94t-140 -24q-119 0 -187.5 55.5 t-68.5 165.5q0 104 91 183t249 114l191 43q14 5 14 24q0 66 -14 113.5t-33 71.5t-49 38t-51 16.5t-50 2.5q-67 0 -121 -47t-104 -127l-27 2l-34 137l6 8q37 31 67.5 52t96 44t137.5 23q51 0 95.5 -7.5t90.5 -30t78.5 -58t53 -96t20.5 -140.5q0 -7 -3 -141t-3 -168 q0 -129 34 -160q16 -15 60 -15q25 0 55 11l16 -51q-59 -63 -163 -63q-58 0 -100.5 30t-59.5 88z" />
<glyph unicode="&#x1cf;" horiz-adv-x="602" d="M250 1427q-75 93 -207 195l33 41q121 -53 217 -125q118 82 219 125l31 -41q-103 -78 -205 -195h-88zM213 911q0 264 -20 410l4 6q37 -6 104 -6q68 0 105 6l4 -6q-21 -143 -21 -410v-501q0 -256 21 -410l-4 -6q-37 6 -105 6q-67 0 -104 -6l-4 6q20 139 20 410v501z" />
<glyph unicode="&#x1d0;" horiz-adv-x="532" d="M238 1024q-77 125 -207 266l41 27q142 -105 217 -184q80 82 221 184l39 -27q-139 -154 -209 -266h-102zM184 481q0 276 -18 398l4 6q31 -2 88 -2t90 4q12 0 15.5 -4t3.5 -17q-19 -183 -19 -352v-145q0 -222 19 -369l-5 -6q-38 6 -96 6t-96 -6l-4 6q18 133 18 369v112z " />
<glyph unicode="&#x1d1;" horiz-adv-x="1517" d="M678 1427q-75 93 -207 195l33 41q121 -53 217 -125q118 82 219 125l31 -41q-103 -78 -205 -195h-88zM727 1257q-61 0 -118.5 -19.5t-111 -64t-93 -110.5t-63.5 -167t-24 -226q0 -143 40 -259t108 -189t153 -112.5t179 -39.5q180 0 291.5 148.5t111.5 416.5 q0 311 -125 466.5t-348 155.5zM1411 674q0 -203 -81.5 -361t-231 -245.5t-342.5 -87.5q-177 0 -324 78.5t-236.5 229.5t-89.5 347q0 198 85 361.5t233.5 257.5t329.5 94q184 0 333 -83t236.5 -237.5t87.5 -353.5z" />
<glyph unicode="&#x1d2;" d="M459 1028q-77 125 -207 266l41 27q142 -105 217 -184q80 82 221 184l39 -27q-139 -154 -209 -266h-102zM78 420q0 218 120.5 348.5t321.5 130.5q204 0 315 -124t111 -337q0 -204 -117 -331t-317 -127q-199 0 -316.5 125t-117.5 315zM506 817q-56 0 -99.5 -21t-71 -55 t-45.5 -82t-25 -98t-7 -106q0 -52 7 -102t26.5 -104.5t49 -95t78.5 -66.5t111 -26q102 0 169 96.5t67 243.5q0 101 -10.5 171t-38 128.5t-80 87.5t-131.5 29z" />
<glyph unicode="&#x1d3;" horiz-adv-x="1417" d="M668 1427q-75 93 -207 195l33 41q121 -53 217 -125q118 82 219 125l31 -41q-103 -78 -205 -195h-88zM1114 911q0 264 -20 410l4 6q38 -6 71 -6q35 0 72 6l4 -6q-20 -136 -20 -410v-307q0 -115 -15 -206t-52.5 -171t-97.5 -133t-153.5 -83.5t-216.5 -30.5q-62 0 -121 11.5 t-125.5 45.5t-116 87.5t-82 146t-32.5 212.5v428q0 264 -20 410l4 6q37 -6 104 -6q68 0 105 6l4 -6q-21 -143 -21 -410v-360q0 -28 0.5 -45.5t3.5 -56t8.5 -66.5t17.5 -67.5t28.5 -68t43.5 -59t60 -50t79.5 -32t102.5 -12.5q72 0 130 14.5t97 38.5t68 61.5t45 75.5 t25.5 89.5t12.5 95t3 98.5v344z" />
<glyph unicode="&#x1d4;" horiz-adv-x="1099" d="M485 1028q-79 128 -206 266l40 27q145 -107 218 -184q80 82 221 184l39 -27q-139 -154 -209 -266h-103zM748 188q-57 -87 -139 -147.5t-171 -60.5q-73 0 -127 24t-83.5 65.5t-43.5 90t-14 104.5v246q0 237 -18 369l4 6q38 -6 96 -6t96 6l4 -6q-18 -123 -18 -369v-203 q0 -68 11 -113t32 -65.5t42 -27.5t52 -7q71 0 151 65t130 150v201q0 230 -19 369l4 6q37 -6 97 -6q58 0 96 6l4 -6q-19 -129 -19 -369v-117q0 -201 35 -393l-4 -6q-40 6 -91 6q-27 0 -81 -6q-8 0 -8 6l-10 182z" />
<glyph unicode="&#x1d5;" horiz-adv-x="1417" d="M492 1452q0 38 27 65t65 27t65 -27t27 -65t-27 -65t-65 -27t-65 27t-27 65zM848 1452q0 38 27 65t65 27t65 -27t27 -65t-27 -65t-65 -27t-65 27t-27 65zM1114 911q0 264 -20 410l4 6q38 -6 71 -6q35 0 72 6l4 -6q-20 -136 -20 -410v-307q0 -115 -15 -206t-52.5 -171 t-97.5 -133t-153.5 -83.5t-216.5 -30.5q-62 0 -121 11.5t-125.5 45.5t-116 87.5t-82 146t-32.5 212.5v428q0 264 -20 410l4 6q37 -6 104 -6q68 0 105 6l4 -6q-21 -143 -21 -410v-360q0 -28 0.5 -45.5t3.5 -56t8.5 -66.5t17.5 -67.5t28.5 -68t43.5 -59t60 -50t79.5 -32 t102.5 -12.5q72 0 130 14.5t97 38.5t68 61.5t45 75.5t25.5 89.5t12.5 95t3 98.5v344zM1004 1622h-500q-13 0 -20 9.5t-7 21.5q0 20 14 39.5t31 19.5h502q14 0 21.5 -9t7.5 -20q0 -20 -15 -40.5t-34 -20.5z" />
<glyph unicode="&#x1d6;" horiz-adv-x="1099" d="M780 1337h-499q-13 0 -20 9.5t-7 21.5q0 20 14 39.5t31 19.5h502q14 0 21 -8.5t7 -19.5q0 -20 -15 -41t-34 -21zM270 1176q0 40 28.5 69t68.5 29t68 -29t28 -69t-28 -68.5t-68 -28.5t-68.5 28.5t-28.5 68.5zM616 1176q0 40 28.5 69t68.5 29t68 -29t28 -69t-28 -68.5 t-68 -28.5t-68.5 28.5t-28.5 68.5zM748 188q-57 -87 -139 -147.5t-171 -60.5q-73 0 -127 24t-83.5 65.5t-43.5 90t-14 104.5v246q0 237 -18 369l4 6q38 -6 96 -6t96 6l4 -6q-18 -123 -18 -369v-203q0 -68 11 -113t32 -65.5t42 -27.5t52 -7q71 0 151 65t130 150v201 q0 230 -19 369l4 6q37 -6 97 -6q58 0 96 6l4 -6q-19 -129 -19 -369v-117q0 -201 35 -393l-4 -6q-40 6 -91 6q-27 0 -81 -6q-8 0 -8 6l-10 182z" />
<glyph unicode="&#x1d7;" horiz-adv-x="1417" d="M889 1782q69 -37 98 -94l-227 -105q-43 -21 -67 -21q-10 0 -16.5 8t-6.5 19q0 20 23 38zM492 1452q0 38 27 65t65 27t65 -27t27 -65t-27 -65t-65 -27t-65 27t-27 65zM848 1452q0 38 27 65t65 27t65 -27t27 -65t-27 -65t-65 -27t-65 27t-27 65zM1114 911q0 264 -20 410 l4 6q38 -6 71 -6q35 0 72 6l4 -6q-20 -136 -20 -410v-307q0 -115 -15 -206t-52.5 -171t-97.5 -133t-153.5 -83.5t-216.5 -30.5q-62 0 -121 11.5t-125.5 45.5t-116 87.5t-82 146t-32.5 212.5v428q0 264 -20 410l4 6q37 -6 104 -6q68 0 105 6l4 -6q-21 -143 -21 -410v-360 q0 -28 0.5 -45.5t3.5 -56t8.5 -66.5t17.5 -67.5t28.5 -68t43.5 -59t60 -50t79.5 -32t102.5 -12.5q72 0 130 14.5t97 38.5t68 61.5t45 75.5t25.5 89.5t12.5 95t3 98.5v344z" />
<glyph unicode="&#x1d8;" horiz-adv-x="1099" d="M660 1530q10 4 23 4q51 0 90 -42l5 -21l-188 -201q-31 -35 -49 -35q-9 0 -16 7.5t-7 16.5q0 17 19 52zM270 1176q0 40 28.5 69t68.5 29t68 -29t28 -69t-28 -68.5t-68 -28.5t-68.5 28.5t-28.5 68.5zM616 1176q0 40 28.5 69t68.5 29t68 -29t28 -69t-28 -68.5t-68 -28.5 t-68.5 28.5t-28.5 68.5zM748 188q-57 -87 -139 -147.5t-171 -60.5q-73 0 -127 24t-83.5 65.5t-43.5 90t-14 104.5v246q0 237 -18 369l4 6q38 -6 96 -6t96 6l4 -6q-18 -123 -18 -369v-203q0 -68 11 -113t32 -65.5t42 -27.5t52 -7q71 0 151 65t130 150v201q0 230 -19 369l4 6 q37 -6 97 -6q58 0 96 6l4 -6q-19 -129 -19 -369v-117q0 -201 35 -393l-4 -6q-40 6 -91 6q-27 0 -81 -6q-8 0 -8 6l-10 182z" />
<glyph unicode="&#x1d9;" horiz-adv-x="1417" d="M492 1452q0 38 27 65t65 27t65 -27t27 -65t-27 -65t-65 -27t-65 27t-27 65zM848 1452q0 38 27 65t65 27t65 -27t27 -65t-27 -65t-65 -27t-65 27t-27 65zM1114 911q0 264 -20 410l4 6q38 -6 71 -6q35 0 72 6l4 -6q-20 -136 -20 -410v-307q0 -115 -15 -206t-52.5 -171 t-97.5 -133t-153.5 -83.5t-216.5 -30.5q-62 0 -121 11.5t-125.5 45.5t-116 87.5t-82 146t-32.5 212.5v428q0 264 -20 410l4 6q37 -6 104 -6q68 0 105 6l4 -6q-21 -143 -21 -410v-360q0 -28 0.5 -45.5t3.5 -56t8.5 -66.5t17.5 -67.5t28.5 -68t43.5 -59t60 -50t79.5 -32 t102.5 -12.5q72 0 130 14.5t97 38.5t68 61.5t45 75.5t25.5 89.5t12.5 95t3 98.5v344zM660 1510q-57 82 -159 171l25 36q97 -49 167 -110q87 70 169 110l23 -36q-76 -66 -157 -171h-68z" />
<glyph unicode="&#x1da;" horiz-adv-x="1099" d="M492 1319q-62 112 -166 240l33 24q111 -92 174 -166q64 73 177 166l31 -24q-110 -139 -167 -240h-82zM270 1176q0 40 28.5 69t68.5 29t68 -29t28 -69t-28 -68.5t-68 -28.5t-68.5 28.5t-28.5 68.5zM616 1176q0 40 28.5 69t68.5 29t68 -29t28 -69t-28 -68.5t-68 -28.5 t-68.5 28.5t-28.5 68.5zM748 188q-57 -87 -139 -147.5t-171 -60.5q-73 0 -127 24t-83.5 65.5t-43.5 90t-14 104.5v246q0 237 -18 369l4 6q38 -6 96 -6t96 6l4 -6q-18 -123 -18 -369v-203q0 -68 11 -113t32 -65.5t42 -27.5t52 -7q71 0 151 65t130 150v201q0 230 -19 369l4 6 q37 -6 97 -6q58 0 96 6l4 -6q-19 -129 -19 -369v-117q0 -201 35 -393l-4 -6q-40 6 -91 6q-27 0 -81 -6q-8 0 -8 6l-10 182z" />
<glyph unicode="&#x1db;" horiz-adv-x="1417" d="M543 1739l190 -151q24 -20 24 -38q0 -11 -7 -19t-17 -8q-24 0 -67 21l-243 114q48 53 120 81zM492 1452q0 38 27 65t65 27t65 -27t27 -65t-27 -65t-65 -27t-65 27t-27 65zM848 1452q0 38 27 65t65 27t65 -27t27 -65t-27 -65t-65 -27t-65 27t-27 65zM1114 911 q0 264 -20 410l4 6q38 -6 71 -6q35 0 72 6l4 -6q-20 -136 -20 -410v-307q0 -115 -15 -206t-52.5 -171t-97.5 -133t-153.5 -83.5t-216.5 -30.5q-62 0 -121 11.5t-125.5 45.5t-116 87.5t-82 146t-32.5 212.5v428q0 264 -20 410l4 6q37 -6 104 -6q68 0 105 6l4 -6 q-21 -143 -21 -410v-360q0 -28 0.5 -45.5t3.5 -56t8.5 -66.5t17.5 -67.5t28.5 -68t43.5 -59t60 -50t79.5 -32t102.5 -12.5q72 0 130 14.5t97 38.5t68 61.5t45 75.5t25.5 89.5t12.5 95t3 98.5v344z" />
<glyph unicode="&#x1dc;" horiz-adv-x="1099" d="M439 1557l114 -232q10 -23 10 -45q0 -7 -7.5 -13.5t-16.5 -6.5q-14 0 -48 37l-187 201l4 20q51 43 106 43q11 0 25 -4zM270 1176q0 40 28.5 69t68.5 29t68 -29t28 -69t-28 -68.5t-68 -28.5t-68.5 28.5t-28.5 68.5zM616 1176q0 40 28.5 69t68.5 29t68 -29t28 -69 t-28 -68.5t-68 -28.5t-68.5 28.5t-28.5 68.5zM748 188q-57 -87 -139 -147.5t-171 -60.5q-73 0 -127 24t-83.5 65.5t-43.5 90t-14 104.5v246q0 237 -18 369l4 6q38 -6 96 -6t96 6l4 -6q-18 -123 -18 -369v-203q0 -68 11 -113t32 -65.5t42 -27.5t52 -7q71 0 151 65t130 150 v201q0 230 -19 369l4 6q37 -6 97 -6q58 0 96 6l4 -6q-19 -129 -19 -369v-117q0 -201 35 -393l-4 -6q-40 6 -91 6q-27 0 -81 -6q-8 0 -8 6l-10 182z" />
<glyph unicode="&#x1dd;" horiz-adv-x="927" d="M621 319h-377q-29 0 -29 -28q0 -108 52.5 -169t119.5 -61q22 0 46 6t54 23.5t55.5 45t47 75t31.5 108.5zM74 666l-41 51q60 82 154.5 132t201.5 50q103 0 188 -35.5t138 -99.5q92 -109 92 -313q0 -109 -36 -200t-95 -149t-134 -90t-155 -32q-96 0 -168 35.5t-111 94.5 t-57 123.5t-18 133.5q0 34 37 34h557q0 182 -49 261q-38 62 -100 89t-124 27q-177 0 -280 -112z" />
<glyph unicode="&#x1de;" horiz-adv-x="1288" d="M293 1452q0 38 28 65t66 27t65 -27t27 -65t-27 -65t-65 -27t-66 27t-28 65zM856 1452q0 38 28 65t66 27t65 -27t27 -65t-27 -65t-65 -27t-66 27t-28 65zM834 564q-97 253 -207 505h-4l-216 -504q135 -6 214 -6q100 0 213 5zM367 468q-124 -305 -170 -474q-25 6 -93 6 q-46 0 -71 -6q338 741 604 1354h57q69 -165 197.5 -483.5t223.5 -549t140 -321.5q-35 6 -122 6q-68 0 -103 -6q-45 168 -159 474q-83 5 -240 5q-179 0 -264 -5zM909 1556h-499q-13 0 -20 9.5t-7 21.5q0 20 14 40t31 20h502q14 0 21 -9t7 -20q0 -20 -15 -41t-34 -21z" />
<glyph unicode="&#x1df;" horiz-adv-x="985" d="M678 1339h-500q-12 0 -19 9.5t-7 21.5q0 20 14 40t31 20h501q14 0 21.5 -9t7.5 -20q0 -20 -15 -41t-34 -21zM186 1176q0 40 28.5 69t68.5 29t68 -29t28 -69t-28 -68.5t-68 -28.5t-68.5 28.5t-28.5 68.5zM532 1176q0 40 28.5 69t68.5 29t68 -29t28 -69t-28 -68.5 t-68 -28.5t-68.5 28.5t-28.5 68.5zM635 461l-174 -47q-114 -31 -158.5 -81t-44.5 -124q0 -50 43 -87.5t109 -37.5q82 0 188 80q29 22 29 53zM635 98h-8q-83 -70 -139 -94t-140 -24q-119 0 -187.5 55.5t-68.5 165.5q0 104 91 183t249 114l191 43q14 5 14 24q0 66 -14 113.5 t-33 71.5t-49 38t-51 16.5t-50 2.5q-67 0 -121 -47t-104 -127l-27 2l-34 137l6 8q37 31 67.5 52t96 44t137.5 23q51 0 95.5 -7.5t90.5 -30t78.5 -58t53 -96t20.5 -140.5q0 -7 -3 -141t-3 -168q0 -129 34 -160q16 -15 60 -15q25 0 55 11l16 -51q-59 -63 -163 -63 q-58 0 -100.5 30t-59.5 88z" />
<glyph unicode="&#x1e0;" horiz-adv-x="1288" d="M846 1591h172q14 0 21.5 -9t7.5 -21q0 -20 -15 -40t-33 -20h-170zM504 1501h-174q-25 0 -25 31q0 19 13.5 39t31.5 20h172zM834 564q-97 253 -207 505h-4l-216 -504q135 -6 214 -6q100 0 213 5zM367 468q-124 -305 -170 -474q-25 6 -93 6q-46 0 -71 -6q338 741 604 1354 h57q69 -165 197.5 -483.5t223.5 -549t140 -321.5q-35 6 -122 6q-68 0 -103 -6q-45 168 -159 474q-83 5 -240 5q-179 0 -264 -5zM565 1599q0 43 32 75t75 32t74.5 -32t31.5 -75t-31.5 -74.5t-74.5 -31.5t-75 31.5t-32 74.5z" />
<glyph unicode="&#x1e1;" horiz-adv-x="985" d="M680 1337h-500q-12 0 -19 9.5t-7 21.5q0 20 14 39.5t31 19.5h501q14 0 21.5 -9t7.5 -19q0 -20 -15 -41t-34 -21zM635 461l-174 -47q-114 -31 -158.5 -81t-44.5 -124q0 -50 43 -87.5t109 -37.5q82 0 188 80q29 22 29 53zM635 98h-8q-83 -70 -139 -94t-140 -24 q-119 0 -187.5 55.5t-68.5 165.5q0 104 91 183t249 114l191 43q14 5 14 24q0 66 -14 113.5t-33 71.5t-49 38t-51 16.5t-50 2.5q-67 0 -121 -47t-104 -127l-27 2l-34 137l6 8q37 31 67.5 52t96 44t137.5 23q51 0 95.5 -7.5t90.5 -30t78.5 -58t53 -96t20.5 -140.5 q0 -7 -3 -141t-3 -168q0 -129 34 -160q16 -15 60 -15q25 0 55 11l16 -51q-59 -63 -163 -63q-58 0 -100.5 30t-59.5 88zM338 1223q0 41 31.5 72.5t72.5 31.5t73 -31.5t32 -72.5t-32 -73t-73 -32t-72.5 32t-31.5 73z" />
<glyph unicode="&#x1e2;" horiz-adv-x="1642" d="M1382 1501h-499q-13 0 -20 9.5t-7 21.5q0 20 14 39.5t31 19.5h502q14 0 21.5 -9t7.5 -19q0 -20 -15.5 -41t-34.5 -21zM455 570q-171 -357 -254 -576q-25 6 -92 6q-47 0 -72 -6q43 82 196 384.5t268 514t249 429.5l4 5q34 -6 104 -6h436q74 0 123 6l4 -6q-4 -58 -4 -64 q0 -21 4 -53l-4 -8q-159 21 -375 21q-116 0 -148.5 -19t-24.5 -81q40 -196 95 -435q223 0 459 20l7 -6q-7 -31 -7 -57q0 -25 7 -57l-7 -7q-181 19 -439 21q67 -285 121 -482l435 21l4 -8q-4 -32 -4 -68q0 -1 4 -59l-4 -6q-49 6 -123 6h-393q-67 0 -102 -6q0 98 -91 578 q-45 1 -135 1q-127 0 -241 -3zM813 665q-9 45 -37 190.5t-46 237.5h-4q-103 -182 -224 -426q183 -3 184 -3q82 0 127 1z" />
<glyph unicode="&#x1e3;" horiz-adv-x="1406" d="M954 1102h-499q-13 0 -20 9.5t-7 21.5q0 20 14 39.5t31 19.5h502q14 0 21.5 -9t7.5 -20q0 -20 -15.5 -40.5t-34.5 -20.5zM606 440q-191 -18 -274.5 -77.5t-83.5 -145.5q0 -135 145 -135q59 0 114.5 33t76.5 90q22 63 22 235zM768 528q53 3 111 4t91.5 1t68.5 1.5t52.5 6 t33 15t21 27.5t5.5 44q0 59 -41.5 119.5t-108.5 60.5q-97 0 -159 -74.5t-74 -204.5zM414 807q-64 0 -126 -53t-106 -129l-26 2l-33 137l6 8q151 127 303 127q28 0 56 -3.5t72.5 -16t85.5 -44t67 -79.5q51 69 127 106t164 37q66 0 122 -21t91.5 -52.5t60 -69t35 -69 t10.5 -54.5q0 -103 -53 -148q-26 -14 -74 -21t-98 -8t-149.5 -3.5t-182.5 -6.5q0 -163 69 -259.5t185 -96.5q134 0 252 139l41 -57q-45 -84 -133.5 -138t-188.5 -54q-53 0 -98.5 11t-73 23t-56 36t-38.5 35.5t-29 35.5q-147 -141 -307 -141q-157 0 -233 59.5t-76 167.5 q0 130 135 213.5t391 101.5q-2 151 -43 218t-149 67z" />
</font>
</defs>
</svg>
