<?xml version="1.0" standalone="no"?>
<!DOCTYPE svg PUBLIC "-//W3C//DTD SVG 1.1//EN" "http://www.w3.org/Graphics/SVG/1.1/DTD/svg11.dtd" >
<svg xmlns="http://www.w3.org/2000/svg">
<metadata></metadata>
<defs>
<font id="LinuxLibertineORegular" horiz-adv-x="1437" >
<font-face units-per-em="2048" ascent="1638" descent="-410" />
<missing-glyph horiz-adv-x="512" />
<glyph unicode="&#x2e;&#x2e;&#x2e;" horiz-adv-x="1533" d="M117 88q0 44 32 76.5t76 32.5t76.5 -32.5t32.5 -76.5t-32.5 -76t-76.5 -32t-76 32t-32 76zM659 88q0 44 32.5 76.5t76.5 32.5t76.5 -32.5t32.5 -76.5t-32.5 -76t-76.5 -32t-76.5 32t-32.5 76zM1200 88q0 44 32.5 76.5t76.5 32.5t76 -32.5t32 -76.5t-32 -76t-76 -32 t-76.5 32t-32.5 76z" />
<glyph unicode="&#x21;&#x21;" horiz-adv-x="966" d="M672 1352q43 0 75.5 -37t32.5 -113q0 -59 -7.5 -116t-20.5 -134.5t-21 -144.5q-12 -97 -18.5 -183.5t-9 -134t-3.5 -55.5q-4 -41 -28 -41t-29 27q-1 13 -6 78.5t-12.5 152t-14.5 156.5q-7 66 -27 190t-20 205q0 76 33 113t76 37zM563 92q0 44 32.5 76.5t76.5 32.5 t76 -32.5t32 -76.5t-32 -76t-76 -32t-76.5 32t-32.5 76zM295 1348q43 0 75.5 -37t32.5 -113q0 -59 -7.5 -116t-20.5 -134.5t-21 -144.5q-12 -97 -18.5 -183.5t-8.5 -134t-3 -55.5q-4 -41 -29 -41t-29 27q-1 13 -6 78.5t-12.5 152t-14.5 156.5q-7 66 -27 190t-20 205 q0 76 33 113t76 37zM186 88q0 44 32.5 76.5t76.5 32.5t76 -32.5t32 -76.5t-32 -76t-76 -32t-76.5 32t-32.5 76z" />
<glyph unicode="&#x3f;&#x3f;" horiz-adv-x="1660" d="M1004 1171q0 -31 12 -52.5t12 -49.5q0 -33 -24 -52.5t-56 -19.5t-58 20t-26 68q0 101 105 185q93 80 254 80q156 0 250 -85t94 -225q0 -34 -8.5 -66t-18.5 -55.5t-32 -51t-35.5 -43t-44 -40.5t-42 -33.5t-43.5 -31.5q-86 -64 -106 -103q-29 -55 -29 -149v-90 q0 -10 -10.5 -15.5t-23.5 -5.5q-33 0 -33 21v94q0 41 4 73.5t17 77.5t44 90.5t78 88.5q62 58 87.5 109t25.5 122q0 103 -55 176.5t-140 73.5q-86 0 -142 -32t-56 -79zM1065 88q0 44 32.5 76.5t76.5 32.5t76 -32.5t32 -76.5t-32 -76t-76 -32t-76.5 32t-32.5 76zM233 1171 q0 -31 12.5 -52t12.5 -50q0 -22 -12 -39t-30 -25t-38 -8q-32 0 -58 20t-26 68q0 101 105 185q93 80 254 80q156 0 250 -85t94 -225q0 -26 -5 -51.5t-11.5 -45.5t-21 -43t-23.5 -37t-30.5 -35t-31 -30.5t-35 -29t-33 -25t-33.5 -24.5q-86 -64 -106 -103q-18 -34 -23.5 -68.5 t-5.5 -80.5v-90q0 -10 -11 -15.5t-24 -5.5t-22.5 5.5t-9.5 15.5v94q0 41 4 73.5t17 77.5t44 90.5t78 88.5q62 58 87.5 109t25.5 122q0 103 -55 176.5t-140 73.5q-86 0 -142.5 -32t-56.5 -79zM295 88q0 44 32 76.5t76 32.5t76.5 -32.5t32.5 -76.5t-32.5 -76t-76.5 -32t-76 32 t-32 76z" />
<glyph unicode="&#x3f;&#x21;" horiz-adv-x="1382" d="M1087 1352q43 0 76 -37t33 -113q0 -59 -7.5 -116t-20.5 -134.5t-21 -144.5q-12 -97 -18.5 -183.5t-9 -134t-3.5 -55.5q-4 -41 -29 -41q-23 0 -28 27q-1 13 -6 78.5t-12.5 152t-14.5 156.5q-7 66 -27 190t-20 205q0 76 32.5 113t75.5 37zM979 92q0 44 32 76.5t76 32.5 t76.5 -32.5t32.5 -76.5t-32.5 -76t-76.5 -32t-76 32t-32 76zM233 1171q0 -31 12.5 -52t12.5 -50q0 -33 -24 -52.5t-56 -19.5t-58 20t-26 68q0 101 105 185q93 80 254 80q156 0 250 -85t94 -225q0 -34 -8.5 -66t-18.5 -55.5t-32 -51t-35.5 -43t-44 -40.5t-42 -33.5 t-43.5 -31.5q-86 -64 -106 -103q-29 -55 -29 -149v-90q0 -10 -11 -15.5t-24 -5.5q-32 0 -32 21v94q0 41 4 73.5t17 77.5t44 90.5t78 88.5q62 58 87.5 109t25.5 122q0 103 -55 176.5t-140 73.5q-86 0 -142.5 -32t-56.5 -79zM295 88q0 44 32 76.5t76 32.5t76.5 -32.5 t32.5 -76.5t-32.5 -76t-76.5 -32t-76 32t-32 76z" />
<glyph unicode="&#x21;&#x3f;" horiz-adv-x="1304" d="M295 1348q43 0 75.5 -37t32.5 -113q0 -59 -7.5 -116t-20.5 -134.5t-21 -144.5q-12 -97 -18.5 -183.5t-8.5 -134t-3 -55.5q-4 -41 -29 -41t-29 27q-1 13 -6 78.5t-12.5 152t-14.5 156.5q-7 66 -27 190t-20 205q0 76 33 113t76 37zM186 88q0 44 32.5 76.5t76.5 32.5 t76 -32.5t32 -76.5t-32 -76t-76 -32t-76.5 32t-32.5 76zM647 1167q0 -31 12.5 -52.5t12.5 -49.5q0 -33 -24 -52.5t-56 -19.5t-58 20t-26 68q0 101 104 185q93 80 254 80q156 0 250 -85t94 -225q0 -46 -15.5 -89.5t-33.5 -72t-55.5 -63.5t-57 -50t-61.5 -46 q-86 -64 -106 -103q-29 -55 -29 -149v-90q0 -10 -11 -15.5t-24 -5.5q-33 0 -33 21v94q0 56 7 99.5t41 109t96 121.5q62 57 87 108.5t25 122.5q0 103 -54.5 176.5t-139.5 73.5q-86 0 -142.5 -32t-56.5 -79zM709 84q0 22 8.5 42t23 34.5t34.5 23.5t42 9q44 0 76.5 -32.5 t32.5 -76.5t-32.5 -76.5t-76.5 -32.5t-76 32.5t-32 76.5z" />
<glyph unicode="&#xfb01;" horiz-adv-x="1146" d="M963 250q0 -44 1.5 -72t9 -50t15.5 -32.5t27.5 -18t38.5 -10t55 -4.5q9 -9 9 -33.5t-9 -33.5q-152 4 -227 4t-219 -4q-9 9 -9 33.5t9 33.5q48 3 70 8t40 25t22.5 54t4.5 100v403q0 80 -17 113t-63 33h-367v-549q0 -45 1.5 -72.5t9 -49.5t16 -32.5t28.5 -18t39.5 -10 t57.5 -4.5q9 -9 9 -33.5t-9 -33.5q-136 4 -232 4q-75 0 -215 -4q-9 9 -9 33.5t9 33.5q38 3 57 6.5t37.5 13.5t25 30.5t10.5 52t4 84.5v549h-138q-10 0 -10 12v27q0 15 11 28t36 13h101v30q0 132 22 223.5t82 161.5q59 69 136.5 102.5t154.5 33.5q145 0 254.5 -66t109.5 -160 q0 -32 -27 -58t-61 -26q-50 0 -81.5 30t-45.5 103q-20 107 -174 107q-99 0 -154 -105t-55 -260v-116h404q129 0 192 26q21 0 21 -12q-8 -131 -8 -211v-432z" />
<glyph unicode="&#xfb02;" horiz-adv-x="1105" d="M926 250q0 -52 4.5 -84t12 -52.5t27 -30.5t39.5 -13.5t60 -6.5q9 -9 9 -33.5t-9 -33.5q-132 4 -223 4q-81 0 -203 -4q-9 9 -9 33.5t9 33.5q35 2 52.5 6t33.5 13.5t22 30.5t9.5 52.5t3.5 84.5v903q0 29 2 51q-37 12 -57 56q-19 48 -65.5 74t-96.5 26q-23 0 -47 -9.5 t-51.5 -36t-49 -67.5t-35.5 -111.5t-14 -160.5v-96h225q17 0 17 -13v-41q0 -12 -15.5 -19t-31.5 -7h-191v-549q0 -65 5 -99.5t24 -54t41 -24.5t72 -9q9 -9 9 -33.5t-9 -33.5q-144 4 -222 4q-75 0 -215 -4q-9 9 -9 33.5t9 33.5q38 3 57 6.5t37.5 13.5t25 30.5t10.5 52t4 84.5 v549h-138q-10 0 -10 12v27q0 15 11 28t36 13h105v61q0 98 23.5 181t62 139t88.5 95t103 57t106 18q58 0 118.5 -13t92.5 -35q49 12 110 48q27 0 27 -21q-2 -82 -2 -215v-944z" />
<glyph horiz-adv-x="0" />
<glyph horiz-adv-x="2048" />
<glyph unicode=" "  horiz-adv-x="512" />
<glyph unicode="&#x09;" horiz-adv-x="512" />
<glyph unicode="&#xa0;" horiz-adv-x="512" />
<glyph unicode="!" horiz-adv-x="589" d="M295 1348q43 0 75.5 -37t32.5 -113q0 -59 -7.5 -116t-20.5 -134.5t-21 -144.5q-12 -97 -18.5 -183.5t-8.5 -134t-3 -55.5q-4 -41 -29 -41t-29 27q-1 13 -6 78.5t-12.5 152t-14.5 156.5q-7 66 -27 190t-20 205q0 76 33 113t76 37zM186 88q0 44 32.5 76.5t76.5 32.5 t76 -32.5t32 -76.5t-32 -76t-76 -32t-76.5 32t-32.5 76z" />
<glyph unicode="&#x22;" horiz-adv-x="688" d="M440 874q-53 327 -53 345q0 36 31 69t74 33q37 0 54 -20t17 -48q0 -15 -16.5 -107.5t-33.5 -177.5l-17 -85zM182 872q-53 327 -53 345q0 36 30.5 69t73.5 33q37 0 54.5 -20t17.5 -48q0 -15 -16.5 -107.5t-33.5 -177.5l-17 -85z" />
<glyph unicode="#" horiz-adv-x="952" d="M571 502l37 235h-231l-39 -235h233zM686 737l-39 -235h195l-15 -109h-192l-62 -364h-77l55 364h-229l-60 -364h-76l58 364h-191l17 109h192l37 235h-190l16 109h190l60 366h78l-62 -366h234l57 366h78l-60 -366h197l-16 -109h-195z" />
<glyph unicode="$" horiz-adv-x="952" d="M424 751l24 433q-82 -1 -144 -65t-62 -144q0 -134 182 -224zM488 548l-27 -499q112 1 172.5 61.5t60.5 174.5q0 58 -16.5 102.5t-49 74.5t-64 49t-76.5 37zM415 576q-54 22 -94 43t-83 52t-70.5 65.5t-45.5 83t-18 104.5q0 143 101 231.5t246 93.5l9 163q27 10 76 10 l-9 -174q71 -4 133 -24.5t100 -25.5q28 -141 35 -246q-14 -12 -64 -12q-14 46 -29 79.5t-39 68t-59 57t-81 32.5l-26 -458q17 -7 50 -19.5t45 -17.5q56 -24 99.5 -52t82 -67t59.5 -93t21 -120q0 -91 -48 -173.5t-130 -133.5q-93 -58 -219 -61l-10 -173q-17 -10 -75 -10 l10 184q-60 4 -144.5 23t-139.5 19q-18 74 -25.5 128t-13.5 160q31 17 62 6q27 -121 93 -185.5t172 -79.5z" />
<glyph unicode="%" horiz-adv-x="1304" d="M887 170q0 -72 27 -101.5t63 -29.5q53 0 96 51t63.5 118t20.5 128q0 70 -27.5 97.5t-58.5 27.5q-47 0 -91 -48t-68.5 -115.5t-24.5 -127.5zM774 201q0 128 81.5 225.5t193.5 97.5q34 0 62.5 -8.5t55.5 -28t42.5 -57.5t15.5 -92t-17.5 -115t-48.5 -117.5t-82.5 -93.5 t-111.5 -37q-88 0 -139.5 68.5t-51.5 157.5zM745 1067q83 0 174.5 26.5t133.5 84.5l65 -33l-839 -1170l-70 31l735 1024q-98 -39 -219 -39q-36 0 -85.5 13t-78.5 30q6 -21 6 -51q0 -51 -17.5 -112t-48.5 -118t-83 -94.5t-113 -37.5q-89 0 -138.5 68t-49.5 155 q0 134 80.5 229.5t191.5 95.5q41 0 81 -15.5t56 -35.5q111 -51 219 -51zM227 815q0 -71 27.5 -101t62.5 -30q53 0 96.5 50t65 117.5t21.5 129.5q0 69 -26.5 97t-61.5 28q-47 0 -91 -48t-69 -115.5t-25 -127.5z" />
<glyph unicode="&#x26;" horiz-adv-x="1443" d="M512 692q-149 -83 -202.5 -169t-53.5 -204q0 -141 67 -206.5t173 -65.5q102 0 169 48.5t150 162.5q-83 109 -183.5 254t-119.5 180zM862 193q-76 -104 -166.5 -158.5t-214.5 -54.5q-85 0 -154 18.5t-124 57t-85 105.5t-30 158q0 123 89.5 230.5t289.5 220.5 q-57 98 -81 164t-24 125q0 46 21 92.5t59.5 85.5t100 63.5t135.5 24.5q109 0 185.5 -63t76.5 -158q0 -81 -85.5 -174t-219.5 -170l8 -17q63 -108 250 -360q82 121 158 262q20 36 30.5 61t11.5 42.5t-3 27.5t-20 16.5t-33.5 8.5t-49.5 4q-9 9 -9 33.5t9 33.5q82 -4 195 -4 q90 0 172 4q9 -9 9 -33.5t-9 -33.5q-52 -3 -76.5 -8t-52 -26.5t-47 -52.5t-58.5 -100q-98 -175 -182 -296l74 -103q45 -62 87.5 -95.5t69.5 -33.5q52 0 89 26t67 85q22 0 43 -21q-33 -100 -92 -150t-119 -50q-31 0 -51.5 3t-52 15t-64.5 42t-67 77zM592 838q96 63 151.5 136 t55.5 130q0 70 -34.5 111.5t-96.5 41.5q-50 0 -102 -51.5t-52 -142.5q0 -78 78 -225z" />
<glyph unicode="'" horiz-adv-x="389" d="M162 872q-53 327 -53 345q0 36 30.5 69t73.5 33q37 0 54.5 -20t17.5 -48q0 -15 -17 -107.5t-34 -177.5l-17 -85z" />
<glyph unicode="(" horiz-adv-x="610" d="M90 516q0 274 120.5 520.5t313.5 411.5q32 -3 43 -37q-21 -23 -38.5 -45t-51 -70.5t-60 -98.5t-57 -126t-51.5 -155.5t-35 -184t-14 -215.5q0 -152 26.5 -293.5t60.5 -233t84 -178.5t77 -122t59 -72q-11 -29 -43 -35q-87 76 -157.5 164t-115 166t-77 164t-48 149 t-24.5 130.5t-10.5 98.5t-1.5 62z" />
<glyph unicode=")" horiz-adv-x="610" d="M520 516q0 -274 -120.5 -520.5t-313.5 -411.5q-32 3 -43 37q21 23 38.5 45t51 70.5t60 98.5t57 126t51.5 155.5t35 184t14 215.5q0 152 -26.5 293.5t-60.5 233t-84 178.5t-77 122t-59 72q11 29 43 35q87 -76 157.5 -164t115 -166t77 -164t48 -149t24.5 -130.5t10.5 -98.5 t1.5 -62z" />
<glyph unicode="*" horiz-adv-x="755" d="M344 1120q-36 8 -86 8q-82 0 -124 16.5t-42 59.5q0 25 17 43.5t51 18.5q30 0 58.5 -17.5t65 -45t72.5 -42.5q-4 41 -25.5 102t-21.5 87q0 33 17.5 56.5t44.5 23.5q29 0 48 -18.5t19 -53.5q0 -29 -18.5 -99.5t-20.5 -99.5q37 16 74 44.5t64.5 45.5t56.5 17q36 0 53 -20.5 t17 -41.5q0 -76 -142 -76q-63 0 -112 -8q25 -28 72 -58.5t72.5 -57t25.5 -62.5q0 -26 -18.5 -42.5t-41.5 -16.5q-36 0 -59 33t-46 93.5t-40 86.5q-15 -27 -39.5 -90.5t-47 -93t-57.5 -29.5q-26 0 -42.5 16.5t-16.5 40.5q0 39 26.5 65.5t73.5 56.5t72 58z" />
<glyph unicode="+" horiz-adv-x="1126" d="M512 891q0 19 25.5 37t42.5 18q14 0 24 -7t10 -21v-353h361q14 0 21.5 -10.5t7.5 -24.5q0 -17 -18.5 -42t-37.5 -25h-334v-328q0 -18 -22.5 -34.5t-46.5 -16.5q-13 0 -23 9t-10 22v348h-358q-13 0 -22 10t-9 23q0 24 16.5 46.5t34.5 22.5h338v326z" />
<glyph unicode="," horiz-adv-x="450" d="M213 195q61 0 98 -55.5t37 -147.5q0 -102 -71.5 -174t-170.5 -90q-18 18 -18 49q73 19 126.5 73t53.5 91q0 56 -73 63q-91 15 -91 90q0 43 31 72t78 29z" />
<glyph unicode="-" horiz-adv-x="692" d="M555 457h-442q-13 0 -22 12t-9 27q0 28 16.5 56t34.5 28h449q28 0 28 -41q0 -21 -18 -51.5t-37 -30.5z" />
<glyph unicode="." horiz-adv-x="450" d="M117 88q0 44 32 76.5t76 32.5t76.5 -32.5t32.5 -76.5t-32.5 -76t-76.5 -32t-76 32t-32 76z" />
<glyph unicode="/" horiz-adv-x="661" d="M600 1323l-485 -1444h-84l485 1444h84z" />
<glyph unicode="0" horiz-adv-x="952" d="M475 1178q-31 0 -58.5 -13t-57.5 -53t-51.5 -103.5t-35.5 -173.5t-14 -255q0 -53 2.5 -102t9.5 -113.5t22.5 -116.5t37.5 -98.5t57.5 -72.5t81.5 -26q18 0 38.5 6.5t48.5 23.5t53.5 57.5t41.5 99.5q35 126 35 421q0 193 -33.5 317t-85.5 167q-38 35 -92 35zM467 -20 q-122 0 -208 86q-84 84 -131.5 228t-47.5 308q0 119 21.5 223t59 180.5t87.5 132t108 83.5t119 28q149 0 250 -133q139 -184 139 -495q0 -138 -26.5 -250.5t-67.5 -183.5t-95 -119t-106 -68t-102 -20z" />
<glyph unicode="1" horiz-adv-x="952" d="M590 250q0 -44 3 -72.5t12 -50t20 -32.5t34 -18.5t45.5 -9.5t63.5 -4q9 -9 9 -33.5t-9 -33.5q-204 4 -250 4q-85 0 -285 -4q-9 9 -9 33.5t9 33.5q41 2 65 4.5t50 9t39 18.5t25 32.5t16 50t4 72.5v668q0 58 -8.5 88t-32.5 30q-56 0 -178 -51q-26 17 -31 55 q288 134 402 205q12 0 12 -10q-6 -54 -6 -274v-711z" />
<glyph unicode="2" horiz-adv-x="952" d="M125 958q0 47 26.5 97.5t72.5 94t117.5 71.5t152.5 28q65 0 124.5 -18t110 -54t81 -98t30.5 -141q0 -56 -14 -103.5t-46.5 -93.5t-61.5 -77t-83 -84l-207 -199q-15 -15 -30 -31.5t-48 -57t-53.5 -83t-20.5 -76.5h365q55 0 85.5 43.5t57.5 153.5q15 3 33 -0.5t27 -10.5 q-2 -51 -16 -149t-33 -174q-94 4 -160 4h-359l-170 -4q0 99 46 189t188 235l152 149q89 91 128 176t39 185q0 70 -17 121t-45 77.5t-56.5 38t-59.5 11.5q-102 0 -152 -39t-50 -86q0 -9 7.5 -28t8.5 -21q8 -28 8 -43q0 -31 -33.5 -56.5t-62.5 -25.5q-33 0 -57.5 23.5 t-24.5 55.5z" />
<glyph unicode="3" horiz-adv-x="952" d="M483 1249q131 0 209.5 -65.5t78.5 -176.5q0 -86 -47.5 -151t-168.5 -121l2 -4q51 -8 97 -28t91.5 -56.5t73 -98t27.5 -140.5q0 -130 -65 -229.5t-168.5 -149t-227.5 -49.5q-64 0 -131 16.5t-115.5 49t-48.5 71.5q0 25 27 48t59 23q51 0 88 -53q2 -3 9 -14t10 -15 t11 -13.5t14.5 -13.5t17.5 -11t22.5 -9.5t28 -5t35.5 -2.5q25 0 54.5 7.5t66 30t65 57t48.5 95.5t20 138q0 264 -269 264q-63 0 -98 -4l-10 66q73 10 135.5 42.5t102 74t62 87t22.5 84.5q0 93 -49 139t-122 46q-25 0 -53.5 -6.5t-62.5 -22t-56 -48.5t-22 -79 q0 -107 -80 -107q-34 0 -52 22t-18 48q0 19 8 43.5t25 55t48 59t71.5 53t101.5 39t133 14.5z" />
<glyph unicode="4" horiz-adv-x="952" d="M555 1038q-158 -217 -391 -589h391v589zM881 449q30 0 30 -33q0 -20 -19 -42t-40 -22h-141v-188q0 -33 6.5 -52.5t23.5 -28.5t38 -12.5t57 -6.5q12 -1 18 -1q9 -9 9 -33.5t-9 -33.5q-132 4 -223 4q-110 0 -242 -4q-9 9 -9 33.5t9 33.5q91 6 118 18q48 22 48 83v188h-418 q-63 0 -80 86q137 215 296.5 441t258.5 348q20 22 33 22h66l4 -4q-4 -21 -4 -198v-598h170z" />
<glyph unicode="5" horiz-adv-x="952" d="M653 387q0 159 -65 235t-172 76q-130 0 -260 -49l69 590q120 -10 221 -10q122 0 336 22l15 -8l-33 -139q-126 -12 -215 -12q-69 0 -240 18l-41 -342q87 33 201 33q111 0 196 -53t128 -138t43 -186q0 -194 -122.5 -320.5t-312.5 -126.5q-59 0 -126 20.5t-115.5 57 t-48.5 76.5q0 30 23.5 53t53.5 23q54 0 105 -66q3 -5 12.5 -18t14.5 -18.5t14.5 -16.5t18 -16t20 -11.5t25.5 -9t30 -2.5q93 0 159 97t66 241z" />
<glyph unicode="6" horiz-adv-x="952" d="M277 629q-17 -84 -17 -160q0 -102 13.5 -178t35.5 -121.5t55 -73t66.5 -37.5t75.5 -10q80 0 133 84t53 244q0 44 -11 90.5t-36 96t-76.5 81t-122.5 31.5q-97 0 -169 -47zM296 703q98 45 193 45q101 0 175.5 -27t116.5 -74.5t61.5 -105.5t19.5 -127q0 -70 -22.5 -143 t-66 -140.5t-119.5 -110.5t-171 -43q-37 0 -72 5.5t-75 20.5t-74.5 38.5t-66.5 63t-55 90t-36.5 122.5t-13.5 158q0 125 49 257t142 239q89 103 193 169t255 111q25 -16 25 -53q-98 -37 -177.5 -93.5t-133.5 -124t-89.5 -135t-57.5 -142.5z" />
<glyph unicode="7" horiz-adv-x="952" d="M348 1096q-29 0 -50 -5t-46 -22t-45.5 -54.5t-36.5 -96.5q-30 -4 -66 6q3 18 12.5 78.5t14 91t9 77t5.5 80.5q0 6 9 6q8 -2 34.5 -15t67.5 -13h422q81 0 158 22l32 -24q-106 -260 -200 -511.5t-132.5 -364.5t-125.5 -371l-140 -7l-16 15q147 329 461 1108h-367z" />
<glyph unicode="8" horiz-adv-x="952" d="M479 1178q-89 0 -138.5 -49t-49.5 -123q0 -58 28 -108t115 -107l64 -39q164 122 164 243q0 78 -45 130.5t-138 52.5zM805 993q0 -46 -25 -92t-66 -82.5t-80.5 -63t-80.5 -46.5l145 -88q160 -97 160 -289q0 -60 -25.5 -121t-73 -113.5t-126 -85t-174.5 -32.5 q-167 0 -266 83t-99 236q0 141 119 246q66 58 165 112l-52 33q-94 59 -137.5 125t-43.5 152q0 121 95 201.5t249 80.5q147 0 231.5 -71.5t84.5 -184.5zM463 51q31 0 61 5t65 20.5t60.5 41t42.5 70t17 103.5q0 162 -179 272l-96 58q-50 -33 -88.5 -72.5t-59.5 -73.5t-34 -70 t-17 -60t-4 -46q0 -65 23 -115.5t59 -78t74.5 -41t75.5 -13.5z" />
<glyph unicode="9" horiz-adv-x="952" d="M688 598q17 84 17 160q0 102 -13.5 178t-35.5 121.5t-55 73t-66.5 37.5t-75.5 10q-80 0 -133.5 -84t-53.5 -244q0 -44 11 -90.5t36 -96t76.5 -81t122.5 -31.5q98 0 170 47zM669 524q-98 -45 -194 -45q-101 0 -175.5 27t-116.5 74.5t-61.5 105.5t-19.5 127q0 55 13.5 113 t43.5 116.5t72.5 104t107.5 74t142 28.5q53 0 102 -11t104 -44.5t95 -86.5t66 -144.5t26 -210.5q0 -126 -48.5 -257.5t-141.5 -238.5q-89 -103 -193 -170t-255 -111q-25 16 -25 54q98 37 177.5 93.5t133.5 124t89.5 135t57.5 142.5z" />
<glyph unicode=":" horiz-adv-x="483" d="M143 727q0 44 32.5 76.5t76.5 32.5t76 -32.5t32 -76.5t-32 -76.5t-76 -32.5t-76.5 32.5t-32.5 76.5zM143 147q0 44 32.5 76.5t76.5 32.5t76 -32.5t32 -76.5t-32 -76t-76 -32t-76.5 32t-32.5 76z" />
<glyph unicode=";" horiz-adv-x="483" d="M143 727q0 44 32.5 76.5t76.5 32.5t76 -32.5t32 -76.5t-32 -76.5t-76 -32.5t-76.5 32.5t-32.5 76.5zM252 195q61 0 98 -55.5t37 -147.5q0 -102 -71.5 -174t-170.5 -90q-18 18 -18 49q73 19 126.5 73t53.5 91q0 32 -20 45.5t-54 17.5q-90 15 -90 90q0 43 31 72t78 29z" />
<glyph unicode="&#x3c;" horiz-adv-x="1126" d="M283 489l649 -237q21 -22 21 -57.5t-21 -44.5l-799 290q-29 46 0 99l799 288q21 -9 21 -44.5t-21 -57.5z" />
<glyph unicode="=" horiz-adv-x="1126" d="M950 633h-796q-13 0 -22 10t-9 23q0 24 16.5 46.5t34.5 22.5h803q14 0 21.5 -10.5t7.5 -24.5q0 -17 -18.5 -42t-37.5 -25zM950 293h-796q-13 0 -22 10t-9 23q0 24 16.5 46.5t34.5 22.5h803q14 0 21.5 -10.5t7.5 -24.5q0 -17 -18.5 -42t-37.5 -25z" />
<glyph unicode="&#x3e;" horiz-adv-x="1126" d="M844 483l-649 238q-21 22 -21 57.5t21 44.5l798 -291q29 -45 0 -98l-798 -289q-21 9 -21 45t21 58z" />
<glyph unicode="?" horiz-adv-x="890" d="M233 1171q0 -31 12.5 -52t12.5 -50q0 -33 -24 -52.5t-56 -19.5t-58 20t-26 68q0 101 105 185q93 80 254 80q156 0 250 -85t94 -225q0 -34 -8.5 -66t-18.5 -55.5t-32 -51t-35.5 -43t-44 -40.5t-42 -33.5t-43.5 -31.5q-86 -64 -106 -103q-29 -55 -29 -149v-90 q0 -10 -11 -15.5t-24 -5.5q-32 0 -32 21v94q0 41 4 73.5t17 77.5t44 90.5t78 88.5q62 58 87.5 109t25.5 122q0 103 -55 176.5t-140 73.5q-86 0 -142.5 -32t-56.5 -79zM295 88q0 44 32 76.5t76 32.5t76.5 -32.5t32.5 -76.5t-32.5 -76t-76.5 -32t-76 32t-32 76z" />
<glyph unicode="@" horiz-adv-x="1832" d="M1165 647q0 57 -38 93t-95 36q-35 0 -89 -20t-95 -62q-139 -139 -139 -362q0 -189 159 -189q54 0 121 77t115 190q61 142 61 237zM1194 152q0 -13 8.5 -19t14.5 -6q82 0 141.5 20.5t105 69.5t68 135t22.5 211q0 122 -39.5 226.5t-103 176.5t-144.5 123t-164.5 75 t-162.5 24q-96 0 -188 -25t-177 -80t-149 -134.5t-102.5 -196.5t-38.5 -258q0 -69 10 -138.5t33.5 -144.5t59 -141.5t91 -127t124 -104t162.5 -69t204 -25.5q241 0 411 135l27 -37q-108 -83 -213 -124.5t-264 -41.5q-180 0 -332.5 61t-256 166t-162 248t-58.5 306 q0 162 67 309t179.5 253.5t268 169t325.5 62.5q162 0 303.5 -51.5t240.5 -141t156 -214t57 -266.5q0 -74 -18 -144.5t-62 -140t-109.5 -121.5t-168.5 -84.5t-232 -32.5q-40 0 -56.5 26t-16.5 58q0 33 30 129l-4 2q-63 -106 -137 -158.5t-135 -52.5q-72 0 -124.5 27.5t-78 70 t-36.5 81.5t-11 75q0 106 44 205.5t113 168.5t154 111t166 42q52 0 97.5 -24.5t60.5 -63.5l10 49l109 26l30 -10l-122 -528q-27 -124 -27 -137z" />
<glyph unicode="A" horiz-adv-x="1423" d="M539 580h362l-192 557h-13l-209 -530q-6 -15 6 -21t46 -6zM317 162q-6 -15 -6.5 -28t4.5 -22.5t12.5 -16.5t20 -12t24 -8.5t28.5 -6t29.5 -3.5t29.5 -2q9 -9 9 -33.5t-9 -33.5q-152 4 -262 4q-77 0 -183 -4q-9 9 -9 33.5t9 33.5q78 5 123.5 32t81.5 114l465 1098 q42 0 113 41l422 -1172q10 -29 26 -49t31 -31.5t39.5 -18.5t40.5 -9t47 -5q9 -9 9 -33.5t-9 -33.5q-144 4 -234 4q-116 0 -268 -4q-9 9 -9 33.5t9 33.5q31 2 46.5 3.5t41.5 5.5t33.5 9t23.5 14t11 21.5t-4 30.5l-119 347h-432q-36 0 -50 -7t-22 -28z" />
<glyph unicode="B" horiz-adv-x="1204" d="M391 1126v-376h152q291 0 291 235q0 74 -24.5 129.5t-65.5 84.5t-84.5 42.5t-90.5 13.5q-35 0 -59 -0.5t-44 -4.5t-32 -6.5t-21 -12.5t-13 -16t-6 -23t-2.5 -28.5t-0.5 -37.5zM391 680v-438q0 -99 33.5 -139t136.5 -40q76 0 135 9.5t99 28.5t67 43t41.5 56.5t20.5 65 t6 72.5q0 149 -99.5 245.5t-298.5 96.5h-141zM303 1321q37 0 128.5 2t127.5 2q440 0 440 -315q0 -80 -56.5 -154t-137.5 -115v-4q144 -41 229.5 -130.5t85.5 -229.5q0 -56 -14 -107.5t-50.5 -102.5t-93 -88t-148.5 -60t-210 -23q-98 0 -186.5 2t-112.5 2q-106 0 -266 -4 q-9 9 -9 33.5t9 33.5q41 2 63.5 4t45.5 9.5t34 18.5t20 32.5t12 50t3 72.5v821q0 65 -6.5 100t-30 54.5t-52 24t-89.5 7.5q-9 9 -9 34t9 34q160 -4 264 -4z" />
<glyph unicode="C" horiz-adv-x="1323" d="M76 635q0 194 82 356.5t233.5 259.5t341.5 97q110 0 198 -21t151 -44.5t100 -27.5q32 -183 45 -317q-38 -20 -68 -10q-22 72 -53.5 129t-83 108t-130.5 79t-181 28q-83 0 -168 -45.5t-159 -136.5q-57 -70 -89.5 -178t-32.5 -238q0 -151 58 -290t167 -230t242 -91 q143 0 255 52.5t220 171.5q30 0 47 -31q-104 -136 -237 -206t-283 -70q-160 0 -287 52t-206 142.5t-120.5 207.5t-41.5 253z" />
<glyph unicode="D" horiz-adv-x="1435" d="M391 172q0 -38 13 -58t63 -34t147 -14q92 0 167.5 13.5t146 49t118.5 92.5t76.5 148.5t28.5 212.5q0 99 -18 191.5t-62 181.5t-109.5 154.5t-168 105.5t-230.5 40q-172 0 -172 -100v-983zM303 1321q32 0 144.5 2t193.5 2q145 0 276 -55.5t225.5 -148.5t150 -221 t55.5 -269q0 -105 -22 -193.5t-60 -153t-91 -115t-111.5 -82.5t-126.5 -53t-131 -29.5t-128 -8.5q-122 0 -237 2t-136 2q-106 0 -266 -4q-9 9 -9 33.5t9 33.5q41 2 63.5 4t45.5 9.5t34 18.5t20 32.5t12 50t3 72.5v821q0 65 -6.5 100t-30 54.5t-52 24t-89.5 7.5q-9 9 -9 34 t9 34q164 -4 264 -4z" />
<glyph unicode="E" horiz-adv-x="1140" d="M575 739q45 0 74 2t50.5 9.5t32.5 15.5t17.5 27t8.5 36t4 50q9 9 33.5 9t33.5 -9q-4 -98 -4 -177q0 -74 4 -180q-9 -9 -33.5 -9t-33.5 9q-2 34 -5 51t-13.5 37.5t-29.5 29.5t-53.5 15.5t-85.5 6.5h-186v-453q0 -72 25.5 -100.5t89.5 -28.5h237q108 0 171 71.5t98 196.5 q37 10 71 -10q-26 -170 -75 -342q-165 4 -263 4h-440q-114 0 -266 -4q-9 9 -9 33.5t9 33.5q41 2 63.5 4t45.5 9.5t34 18.5t20 32.5t12 50t3 72.5v821q0 65 -6.5 100t-30 54.5t-52 24t-89.5 7.5q-9 9 -9 34t9 34q164 -4 264 -4h522q54 0 101 8q8 0 8 -6q3 -14 20.5 -126.5 t24.5 -170.5q-32 -16 -68 -10q-13 42 -22 66t-23.5 53.5t-29.5 45.5t-37.5 31t-51.5 21t-67 6h-154q-80 0 -107.5 -30t-27.5 -101v-369h186z" />
<glyph unicode="F" horiz-adv-x="993" d="M580 662h-191v-412q0 -44 3 -72.5t12 -50t20 -32.5t34 -18.5t45.5 -9.5t63.5 -4q9 -9 9 -33.5t-9 -33.5q-144 4 -264 4q-122 0 -266 -4q-9 9 -9 33.5t9 33.5q41 2 63.5 4t45.5 9.5t34 18.5t20 32.5t12 50t3 72.5v821q0 65 -6.5 100t-30 54.5t-52 24t-89.5 7.5q-9 9 -9 34 t9 34q164 -4 264 -4h523q55 0 96 8q7 0 8 -6q20 -108 45 -297q-27 -10 -64 -10q-15 47 -29 78t-38 61t-55.5 47t-79 27t-111.5 10h-92q-69 0 -92 -24.5t-23 -106.5v-369h191q45 0 74 2t50 9.5t32 15.5t17.5 27t8.5 36t4 50q9 9 34 9t34 -9q-5 -133 -5 -177q0 -52 5 -180 q-9 -9 -34 -9t-34 9q-2 34 -5 50.5t-13 37.5t-29 30t-53.5 15.5t-85.5 6.5z" />
<glyph unicode="G" horiz-adv-x="1402" d="M772 1348q100 0 177 -18.5t141.5 -43t107.5 -31.5q39 -172 47 -315q-31 -14 -67 -12q-18 60 -37 104.5t-53.5 92.5t-78.5 78.5t-112 50.5t-154 20q-89 0 -174 -44.5t-151 -122.5t-106 -192.5t-40 -244.5q0 -82 20 -167.5t61.5 -166t99.5 -144t139.5 -101.5t175.5 -38 q234 0 317 78v313q0 57 -35.5 74t-131.5 25q-9 9 -9 36.5t9 36.5q180 -4 253 -4q85 0 183 4q9 -9 9 -36.5t-9 -36.5q-48 -5 -71 -26.5t-23 -72.5v-237q0 -32 32 -57q-199 -170 -571 -170q-191 0 -339 85.5t-227 232.5t-79 331q0 163 60.5 301.5t159.5 228t223 139.5t253 50z " />
<glyph unicode="H" horiz-adv-x="1495" d="M1266 250q0 -44 3 -72.5t12 -50t20 -32.5t34 -18.5t45.5 -9.5t63.5 -4q9 -9 9 -33.5t-9 -33.5q-180 4 -264 4q-83 0 -267 -4q-9 9 -9 33.5t9 33.5q41 2 63.5 4t46 9.5t34 18.5t20 32t12.5 50t3 73v407h-701v-407q0 -44 3 -72.5t12 -50t20 -32.5t34 -18.5t45.5 -9.5 t63.5 -4q9 -9 9 -33.5t-9 -33.5q-180 4 -264 4q-86 0 -266 -4q-9 9 -9 33.5t9 33.5q41 2 63.5 4t45.5 9.5t34 18.5t20 32.5t12 50t3 72.5v821q0 65 -6.5 100t-30 54.5t-52 24t-89.5 7.5q-9 9 -9 34t9 34q156 -4 264 -4q110 0 266 4q9 -9 9 -34t-9 -34q-61 -3 -89.5 -7.5 t-52 -24t-30 -54.5t-6.5 -100v-328h701v328q0 52 -5.5 84t-15.5 52.5t-34.5 30.5t-49.5 13.5t-74 5.5q-9 9 -9 34t9 34q180 -4 265 -4q98 0 266 4q9 -9 9 -34t-9 -34q-61 -3 -89.5 -7.5t-52 -24t-30 -54.5t-6.5 -100v-821z" />
<glyph unicode="I" horiz-adv-x="608" d="M391 250q0 -44 3 -72.5t12 -50t20 -32.5t34 -18.5t45.5 -9.5t63.5 -4q9 -9 9 -33.5t-9 -33.5q-184 4 -264 4q-82 0 -266 -4q-9 9 -9 33.5t9 33.5q41 2 63.5 4t45.5 9.5t34 18.5t20 32.5t12 50t3 72.5v821q0 65 -6.5 100t-30 54.5t-52 24t-89.5 7.5q-9 9 -9 34t9 34 q192 -4 264 -4q86 0 266 4q9 -9 9 -34t-9 -34q-61 -3 -89.5 -7.5t-52 -24t-30 -54.5t-6.5 -100v-821z" />
<glyph unicode="J" horiz-adv-x="659" d="M463 1071v-860q0 -84 -14.5 -155t-32.5 -116t-51 -89t-54 -64t-57 -51q-60 -52 -113.5 -70t-126.5 -18q-45 0 -99 30.5t-54 79.5q0 31 32.5 59.5t57.5 28.5q57 0 81 -52q11 -24 33 -39t50 -15q23 0 44.5 8.5t46 36t42 72t29.5 124t12 185.5v905q0 44 -3 72.5t-13 50 t-21.5 32.5t-37.5 18t-51.5 9t-72.5 4q-9 9 -9 34t9 34q204 -4 285 -4q90 0 246 4q9 -9 9 -34t-9 -34q-53 -3 -78 -8t-46 -23.5t-27.5 -54t-6.5 -100.5z" />
<glyph unicode="K" horiz-adv-x="1304" d="M391 250q0 -44 3 -72.5t12 -50t20 -32.5t34 -18.5t45.5 -9.5t63.5 -4q9 -9 9 -33.5t-9 -33.5q-184 4 -264 4q-82 0 -266 -4q-9 9 -9 33.5t9 33.5q41 2 63.5 4t45.5 9.5t34 18.5t20 32.5t12 50t3 72.5v821q0 65 -6.5 100t-30 54.5t-52 24t-89.5 7.5q-9 9 -9 34t9 34 q184 -4 264 -4q78 0 266 4q9 -9 9 -34t-9 -34q-61 -3 -89.5 -7.5t-52 -24t-30 -54.5t-6.5 -100v-360q93 8 162 80l338 360q21 22 31.5 39t8 28t-7.5 18t-22.5 11t-30 6t-36.5 4q-9 9 -9 34t9 34q152 -4 231 -4q69 0 195 4q9 -9 9 -34t-9 -34q-40 -3 -64 -6.5t-59.5 -14.5 t-68.5 -34t-67 -59l-301 -309q-33 -34 -49.5 -55.5t-19 -29t-2.5 -16.5q0 -20 26 -51l449 -532q42 -50 83 -66t97 -21q9 -9 9 -33.5t-9 -33.5q-136 4 -207 4q-28 0 -110 -4q-9 0 -11 12q-3 26 -23 65t-50 77l-322 405q-60 75 -170 78v-383z" />
<glyph unicode="L" horiz-adv-x="1081" d="M305 0q-106 0 -266 -4q-9 9 -9 33.5t9 33.5q41 2 63.5 4t45.5 9.5t34 18.5t20 32.5t12 50t3 72.5v821q0 65 -6.5 100t-30 54.5t-52 24t-89.5 7.5q-9 9 -9 34t9 34q188 -4 264 -4q82 0 266 4q9 -9 9 -34t-9 -34q-61 -3 -89.5 -7.5t-52 -24t-30 -54.5t-6.5 -100v-848 q0 -77 28 -110t89 -33h129q63 0 114 14t85.5 37.5t61.5 59t43.5 72.5t29.5 85q36 6 67 -10q-19 -170 -53 -342q-188 4 -244 4h-436z" />
<glyph unicode="M" horiz-adv-x="1718" d="M1357 238l-52 856h-5l-460 -1084q-15 -30 -29 -30q-19 0 -31 30l-424 1063h-4l-78 -821q-9 -96 16 -139t120 -50q9 -9 9 -33.5t-9 -33.5q-122 4 -193 4q-54 0 -176 -4q-9 9 -9 33.5t9 33.5q84 7 113.5 47t39.5 138l82 844q4 42 5 65.5t-4.5 43.5t-11.5 28.5t-27 15 t-40 8.5t-61 4q-9 9 -9 34t9 34l297 -4l420 -1040q10 -27 16 -27q7 0 19 29l434 1038l268 4q9 -9 9 -34t-9 -34q-53 -3 -81.5 -10.5t-44 -24t-16 -43.5t1.5 -69l61 -862q3 -49 5.5 -73t10 -48.5t15 -33t27 -17t40 -10t59.5 -3.5q9 -9 9 -33.5t-9 -33.5q-136 4 -223 4 q-67 0 -219 -4q-9 9 -9 33.5t9 33.5q30 1 44.5 2t33 5t25 7t15.5 13.5t10.5 20.5t3.5 31t1 41t-3 55z" />
<glyph unicode="N" horiz-adv-x="1431" d="M1139 1049q0 41 -3 69.5t-7 50.5t-15.5 36t-22 23t-33.5 14.5t-42 8t-55 6.5q-9 9 -9 34t9 34q180 -4 227 -4q61 0 229 4q9 -9 9 -34t-9 -34q-61 -6 -89.5 -12.5t-52 -28.5t-30 -59.5t-6.5 -107.5v-1006q0 -29 -12.5 -46t-34.5 -17q-46 0 -82 49l-715 903q-52 67 -69 67 q-11 0 -14 -21t-3 -79v-627q0 -48 2.5 -79.5t12.5 -54.5t20 -35t34 -20.5t45.5 -12t63.5 -7.5q9 -9 9 -33.5t-9 -33.5q-172 4 -227 4q-53 0 -229 -4q-9 9 -9 33.5t9 33.5q41 4 63.5 7.5t46 12.5t34 21.5t20 35.5t12 54t2.5 78v854q-10 45 -55.5 86t-106.5 45q-9 9 -9 34 t9 34l277 -4l702 -891q88 -113 98 -113t12.5 14t2.5 48v670z" />
<glyph unicode="O" d="M678 1274q-63 0 -120.5 -21t-110 -68t-91 -116t-61.5 -171.5t-23 -227.5q0 -143 40.5 -261.5t108.5 -195t155 -118.5t182 -42q179 0 294 156.5t115 425.5q0 151 -38.5 273.5t-105 201.5t-155 121.5t-190.5 42.5zM1364 674q0 -151 -46.5 -279.5t-130 -220t-205 -143 t-265.5 -51.5q-130 0 -247 46.5t-204.5 129.5t-138.5 207.5t-51 271.5q0 149 43 279t122 226.5t199 152t265 55.5q185 0 333.5 -79t237 -234t88.5 -361z" />
<glyph unicode="P" horiz-adv-x="1107" d="M387 1135v-478q38 -10 156 -10q153 0 229 74.5t76 236.5q0 75 -16.5 131.5t-42 89.5t-64 53t-76.5 27t-84 7q-99 0 -138.5 -38t-39.5 -93zM213 1071q0 65 -6.5 100t-30 54.5t-52 24t-89.5 7.5q-9 9 -9 34t9 34q164 -4 264 -4q41 0 142 7t139 7q108 0 192.5 -24t133 -60.5 t80 -84t42 -89t10.5 -82.5q0 -56 -14 -110.5t-49.5 -111t-89 -99t-139.5 -69.5t-193 -27q-102 0 -166 20v-348q0 -43 3.5 -72.5t15.5 -50t24.5 -32t40.5 -18.5t53 -9.5t72 -4.5q9 -9 9 -33.5t-9 -33.5q-204 4 -295 4q-82 0 -266 -4q-9 9 -9 33.5t9 33.5q41 2 63.5 4 t45.5 9.5t34 18.5t20 32.5t12 50t3 72.5v821z" />
<glyph unicode="Q" d="M678 1274q-63 0 -120.5 -21t-110 -68t-91 -116t-61.5 -171.5t-23 -227.5q0 -143 40.5 -261.5t108.5 -195t155 -118.5t182 -42q179 0 294 156.5t115 425.5q0 151 -38.5 273.5t-105 201.5t-155 121.5t-190.5 42.5zM1364 674q0 -275 -144 -459.5t-382 -225.5 q-134 -38 -268 -135q22 3 40 3q80 0 154 -24t163 -67q159 -77 255 -77q49 0 98 18.5t80 56.5l35 -24q-61 -88 -130.5 -128t-164.5 -40q-68 0 -135 18t-107.5 37.5t-101.5 54.5q-75 42 -129 63.5t-113 21.5q-32 0 -72 -26q-41 -44 -77 -95l-80 41q13 23 36 47 q59 70 140.5 136.5t171.5 113.5q-240 29 -398.5 205t-158.5 446q0 149 43 279t122 226.5t199 152t265 55.5q185 0 333.5 -79t237 -234t88.5 -361z" />
<glyph unicode="R" horiz-adv-x="1202" d="M557 1266q-170 0 -170 -131v-469h98q80 0 138.5 13.5t107 46.5t73.5 96.5t25 156.5q0 287 -272 287zM387 250q0 -44 3 -72.5t12 -50t20 -32.5t34 -18.5t45.5 -9.5t63.5 -4q9 -9 9 -33.5t-9 -33.5q-180 4 -264 4q-82 0 -266 -4q-9 9 -9 33.5t9 33.5q41 2 63.5 4t45.5 9.5 t34 18.5t20 32.5t12 50t3 72.5v821q0 65 -6.5 100t-30 54.5t-52 24t-89.5 7.5q-9 9 -9 34t9 34q192 -4 264 -4q34 0 119.5 7t136.5 7q122 0 205 -18t149 -80q109 -103 109 -256q0 -76 -29.5 -140.5t-75 -105.5t-87.5 -66t-81 -38l259 -430q47 -79 90 -118.5t106 -39.5 q13 -27 2 -49q-28 -14 -86 -14q-157 0 -270 182l-219 356q-16 27 -37 42t-70.5 25.5t-132.5 10.5v-346z" />
<glyph unicode="S" horiz-adv-x="993" d="M808 1292q29 -150 37 -264q-25 -20 -67 -12q-14 46 -28 80t-39 70t-55.5 59t-76.5 38t-104 15q-89 0 -156.5 -70.5t-67.5 -158.5q0 -36 12.5 -68.5t30.5 -57.5t48 -49t55 -39.5t63 -33t60.5 -26.5t56.5 -22q71 -27 124.5 -56t103.5 -73t77 -106.5t27 -140.5 q0 -97 -51.5 -185.5t-140.5 -144.5q-108 -67 -253 -67q-98 0 -204 23.5t-164 23.5q-19 77 -27 136t-14 175q33 17 67 6q64 -291 359 -291q123 0 189.5 64.5t66.5 187.5q0 42 -9.5 78t-22.5 62t-37.5 49.5t-44 38.5t-53 31.5t-53.5 24.5t-55 21q-61 23 -107.5 45.5t-96 57 t-81.5 72.5t-52.5 91.5t-20.5 116.5q0 158 114.5 256.5t275.5 98.5q88 0 138.5 -10t91.5 -25t84 -21z" />
<glyph unicode="T" horiz-adv-x="1222" d="M717 250q0 -44 2.5 -72.5t12.5 -50t21.5 -32.5t37.5 -18.5t51.5 -9.5t72.5 -4q9 -9 9 -33.5t-9 -33.5q-204 4 -284 4q-87 0 -287 -4q-9 9 -9 33.5t9 33.5q47 2 72.5 4t51.5 9.5t37.5 18.5t21.5 32.5t13 50t3 72.5v788q0 101 -21.5 152t-75.5 51h-100q-107 0 -174 -49.5 t-96 -167.5q-45 0 -70 10q40 170 51 297q0 6 9 6q208 -16 477 -16h176q272 0 459 16q2 0 4 -2.5t2 -3.5q3 -136 26 -291q-22 -10 -69 -10q-25 115 -95 163t-190 48h-45q-53 0 -73.5 -52t-20.5 -157v-782z" />
<glyph unicode="U" horiz-adv-x="1353" d="M352 1071v-526q0 -63 2.5 -105.5t12 -98.5t32 -101.5t58.5 -79.5q102 -97 243 -97q72 0 129.5 16.5t96.5 43t67.5 67.5t44 82t25 95.5t12 99t2.5 100.5v504q0 37 -3 62t-7 44.5t-16 32t-22.5 20.5t-35.5 13t-44.5 7.5t-59.5 6.5q-9 9 -9 34t9 34q188 -4 237 -4 q53 0 209 4q9 -9 9 -34t-9 -34q-37 -4 -55 -7t-39.5 -11t-30.5 -19t-18 -31t-11.5 -48t-2.5 -70v-467q0 -116 -13.5 -206t-49 -170.5t-93.5 -133.5t-150 -83.5t-215 -30.5q-70 0 -131.5 11t-127.5 44t-112.5 86t-77 144.5t-30.5 211.5v594q0 65 -6.5 100.5t-27.5 54 t-46 23.5t-78 8q-9 9 -9 34t9 34q160 -4 244 -4q85 0 277 4q9 -9 9 -34t-9 -34q-45 -2 -69.5 -4t-49.5 -9t-35.5 -18t-20 -32.5t-12 -50t-2.5 -72.5z" />
<glyph unicode="V" horiz-adv-x="1335" d="M918 1257q-9 9 -9 34t9 34q168 -4 223 -4q58 0 180 4q9 -9 9 -34t-9 -34q-38 -4 -67.5 -17t-47.5 -27t-35.5 -42t-26.5 -47.5t-24 -56.5l-424 -1044q-20 -48 -49 -48t-47 48l-404 1048q-43 113 -73 146t-111 40q-9 9 -10 34t8 34q136 -4 213 -4q84 0 248 4q9 -9 9 -34 t-9 -34q-103 -10 -122 -41t18 -122l326 -834h10l323 821q14 36 20 60t4.5 46.5t-16 35.5t-43 22t-73.5 12z" />
<glyph unicode="W" horiz-adv-x="1947" d="M1659 1157q6 18 6 32.5t-4 24.5t-16 17t-22.5 11.5t-30 7.5t-32.5 4t-36 3q-9 9 -9 34t9 34q164 -4 225 -4q60 0 178 4q9 -9 9 -34t-9 -34q-79 -4 -116.5 -34.5t-59.5 -89.5l-412 -1104q-17 -54 -47 -54q-17 0 -27 13t-20 43l-235 680q-20 57 -29 57q-13 0 -35 -51 l-305 -686q-13 -30 -24 -43t-29 -13q-16 0 -25.5 13.5t-19.5 42.5l-385 1108q-15 43 -25 64t-28.5 33.5t-35 15t-57.5 5.5q-9 9 -9 34t9 34q118 -4 191 -4q101 0 237 4q9 -9 9 -34t-9 -34q-20 -1 -34 -2.5t-29.5 -5.5t-23.5 -9.5t-15.5 -15t-5.5 -22.5t6 -31l299 -905l9 -2 l265 600q19 44 19 72q0 16 -15 63l-47 136q-39 115 -172 122q-9 9 -9 34t9 34q132 -4 205 -4q88 0 256 4q9 -9 9 -34t-9 -34q-23 -2 -35 -3.5t-31 -6t-27.5 -12.5t-16 -20.5t-6.5 -32.5t10 -47l281 -865l7 -2z" />
<glyph unicode="X" horiz-adv-x="1351" d="M1102 209q64 -88 102.5 -114.5t104.5 -31.5q9 -9 10 -33.5t-8 -33.5q-122 4 -209 4q-82 0 -234 -4q-9 9 -9 33.5t9 33.5q82 4 88.5 26.5t-40.5 84.5l-252 361q-15 22 -29 22q-9 0 -31 -29l-270 -378q-18 -26 -22 -42t9.5 -25.5t34 -13t58.5 -6.5q9 -9 9 -33.5t-9 -33.5 q-164 4 -215 4q-63 0 -185 -4q-9 9 -9 33.5t9 33.5q75 7 126.5 34t101.5 93l303 406q20 27 20 47q0 22 -28 62l-292 415q-59 85 -98.5 108.5t-109.5 28.5q-9 9 -10 34t8 34q122 -4 209 -4q81 0 233 4q9 -9 9 -34t-9 -34q-82 -4 -88.5 -27t40.5 -84l226 -335q16 -23 25 -23 q15 0 33 25l252 358q18 25 21 41t-9.5 25t-33 13.5t-58.5 6.5q-9 9 -9 34t9 34q164 -4 215 -4q62 0 184 4q9 -9 9 -34t-9 -34q-73 -7 -124.5 -34t-102.5 -93l-281 -362q-20 -25 -20 -61q0 -25 32 -68z" />
<glyph unicode="Y" horiz-adv-x="1177" d="M690 250q0 -44 3 -72.5t13 -50t21.5 -32.5t37.5 -18.5t51.5 -9.5t72.5 -4q9 -9 9 -33.5t-9 -33.5q-204 4 -285 4q-87 0 -287 -4q-9 9 -9 33.5t9 33.5q47 2 72.5 4t51.5 9.5t37.5 18.5t21.5 32.5t13 50t3 72.5v260q0 56 -8 84t-35 74l-269 452q-51 85 -87 108.5t-105 28.5 q-9 9 -10 34t8 34q122 -4 209 -4q86 0 234 4q9 -9 9 -34t-9 -34q-85 -4 -98.5 -26t24.5 -87l238 -419q9 -17 16 -22.5t14 -1.5t15 20l226 428q16 31 19 51t-8.5 32t-32.5 17.5t-57 7.5q-9 9 -9 34t9 34q132 -4 186 -4q56 0 170 4q9 -9 9 -34t-9 -34q-74 -7 -113.5 -32 t-80.5 -99l-245 -442q-24 -42 -30 -73t-6 -83v-278z" />
<glyph unicode="Z" horiz-adv-x="1236" d="M1128 -4q-204 4 -259 4h-746q-39 0 -39 31q0 26 16 47q164 244 408.5 585t388.5 523q16 22 16 37q0 18 -20 18l-432 -8q-113 -2 -177.5 -55t-97.5 -162q-28 0 -61 10q36 191 45 311q203 -16 371 -16h452q35 0 88.5 2t61.5 2q26 0 26 -22q0 -18 -9 -35t-40 -58 q-297 -382 -768 -1063q-16 -29 -16 -41q0 -29 51 -28l395 8q54 1 97.5 10t76 28.5t55 38.5t44 54.5t33.5 60t32 70.5q29 0 64 -10q-42 -176 -56 -342z" />
<glyph unicode="[" horiz-adv-x="729" d="M221 -395v1835h434q9 -9 9 -31t-9 -31q-74 -5 -120 -11t-81.5 -18.5t-52.5 -25.5t-28 -41t-13 -55.5t-2 -77.5v-1251q0 -38 1 -60.5t6 -47.5t12.5 -38t23 -28t36 -22t53 -15t71 -12t94.5 -9q9 -9 9 -30.5t-9 -30.5h-434z" />
<glyph unicode="\" horiz-adv-x="587" d="M113 1430l471 -1528h-90l-471 1528h90z" />
<glyph unicode="]" horiz-adv-x="729" d="M508 1442v-1835h-434q-9 9 -9 30.5t9 30.5q55 4 93.5 8t71 11.5t53 15t36.5 22t23.5 27.5t12.5 38t6 47.5t1 60.5v1251q0 38 -1 60.5t-6 47t-12.5 38t-23 28t-36 21.5t-53 15t-71 12t-94.5 9q-9 9 -9 31t9 31h434z" />
<glyph unicode="^" horiz-adv-x="1060" d="M530 1214l-208 -505h-93l260 622h86l259 -622h-93z" />
<glyph unicode="_" horiz-adv-x="995" d="M975 -225q12 -12 12 -45t-12 -45h-955q-12 12 -12 45t12 45h955z" />
<glyph unicode="`" horiz-adv-x="802" d="M365 1432l143 -258q12 -24 12 -50q0 -8 -9.5 -15t-21.5 -7q-15 0 -59 41l-233 223l4 23q63 47 133 47q15 0 31 -4z" />
<glyph unicode="a" horiz-adv-x="935" d="M600 477l-162 -43q-194 -50 -194 -225q0 -55 38.5 -100.5t108.5 -45.5q68 0 180 91q29 22 29 53v270zM270 745q0 -23 5.5 -41t5.5 -36q0 -23 -28 -46.5t-69 -23.5q-71 0 -71 74q0 87 105.5 157t232.5 70q49 0 90 -7.5t83 -30.5t71 -60t47 -100.5t18 -147.5v-301 q0 -44 1.5 -68.5t7 -52.5t18.5 -40.5t34 -12.5q38 0 76 33q30 -17 35 -56q-33 -32 -86 -53.5t-109 -21.5q-70 0 -98 30.5t-39 87.5h-4l-41 -32q-64 -50 -114.5 -68t-108.5 -18q-258 0 -258 221q0 102 93 180.5t245 116.5l176 43q12 4 12 24q0 266 -166 266q-67 0 -115.5 -21 t-48.5 -65z" />
<glyph unicode="b" horiz-adv-x="1009" d="M356 743q-20 -17 -27 -35.5t-7 -50.5v-512q37 -46 70.5 -71t76.5 -25q141 0 215 113.5t74 296.5q0 148 -66.5 249t-161.5 101q-100 0 -174 -66zM342 807q102 92 229 92q67 0 132 -28.5t116.5 -79t83 -128t31.5 -167.5q0 -117 -41 -217t-107 -164t-145.5 -99.5 t-159.5 -35.5q-121 0 -180 50q-17 15 -29 14t-27 -19q-16 -18 -48 -50q-29 0 -45 25q8 39 8 145v1000q0 35 -2 59.5t-4 43t-10 29.5t-13.5 18t-21.5 10.5t-26.5 4.5t-34.5 2q-12 1 -19 1q-9 9 -12.5 28.5t-0.5 32.5q62 5 155.5 23t131.5 33q27 0 27 -21q-8 -82 -8 -215v-377 q0 -28 20 -10z" />
<glyph unicode="c" horiz-adv-x="876" d="M815 186q-49 -81 -105.5 -128t-109 -62.5t-119.5 -15.5q-190 0 -297.5 122t-107.5 324q0 105 37 196t97 150.5t134.5 93t151.5 33.5q145 0 229 -54t84 -140q0 -43 -31.5 -67t-68.5 -24q-70 0 -78 74q-4 32 -10 53.5t-20.5 44t-43.5 34t-72 11.5q-103 0 -168 -97t-65 -263 q0 -176 79 -283.5t195 -107.5q141 0 246 135q32 -4 43 -29z" />
<glyph unicode="d" horiz-adv-x="1036" d="M707 254v389q0 46 -6.5 66t-28.5 45q-64 73 -166 73q-124 0 -191 -102q-59 -82 -59 -272q0 -180 67 -278.5t158 -98.5q80 0 193 98q21 18 27 33.5t6 46.5zM684 103q-77 -64 -137 -93.5t-119 -29.5q-162 0 -255 121t-93 315q0 219 141 360q65 62 137.5 92.5t169.5 30.5 q30 0 68 -8.5t64 -17.5t28 -9q19 0 19 19v262q0 41 -1.5 68t-8.5 46t-12.5 28.5t-22 15t-28.5 7t-40 2.5q-12 1 -19 1q-9 9 -12 28.5t0 32.5q62 5 155.5 23t131.5 33q27 0 27 -21q-9 -82 -9 -215v-928q0 -79 28 -110.5t122 -38.5q9 -9 9 -28t-9 -28q-166 -19 -242 -81 q-18 -8 -39 0q-17 70 -22 120q-1 10 -12 10t-19 -7z" />
<glyph unicode="e" horiz-adv-x="915" d="M254 578l371 6q30 0 30 28q0 61 -15 105.5t-41 67t-54 32.5t-60 10q-20 0 -39.5 -3.5t-51 -18t-57 -39.5t-49 -74t-34.5 -114zM485 -20q-196 0 -302.5 118.5t-106.5 315.5q0 90 25.5 169t67.5 135t95.5 97t110 60.5t110.5 19.5q346 0 346 -356q0 -35 -38 -35l-545 4 q0 -173 65 -281q45 -74 104.5 -110.5t119.5 -36.5q86 0 140.5 24.5t113.5 85.5q34 -3 43 -32q-138 -178 -349 -178z" />
<glyph unicode="f" horiz-adv-x="634" d="M358 250q0 -47 1 -72.5t8.5 -49t16 -33t31.5 -17.5t46.5 -10.5t68.5 -4.5q9 -9 9 -33.5t-9 -33.5q-144 4 -251 4q-82 0 -226 -4q-9 9 -9 33.5t9 33.5q32 2 49.5 4.5t36.5 9.5t28 18.5t17 32t10.5 50t2.5 72.5v549h-142q-10 0 -10 12v27q0 15 11 28t36 13h105v82 q0 115 32 207t85 148t116 85t129 29q64 0 105.5 -9t78.5 -35q66 -51 66 -104q0 -30 -28.5 -57t-55.5 -27q-53 0 -82 66q-22 53 -49.5 74.5t-73.5 21.5q-162 0 -162 -365v-116h222q16 0 16 -13v-41q0 -12 -15.5 -19t-31.5 -7h-191v-549z" />
<glyph unicode="g" horiz-adv-x="1024" d="M653 571q0 128 -51 196.5t-147 68.5q-164 0 -164 -218q0 -46 3 -80t14.5 -73t31 -64t55.5 -42t86 -17q32 0 59.5 9.5t54.5 33t42.5 71t15.5 115.5zM270 -20q-40 -49 -51.5 -90t-11.5 -103q0 -49 27.5 -89t68 -63t80.5 -35t70 -12q96 0 185.5 25t152.5 78t63 123 q0 40 -22 66.5t-82 60.5q-40 22 -96 28t-152 6q-10 0 -62 -3t-88 -3q-40 0 -82 11zM379 86q26 0 101 7t98 7q218 0 299 -67q90 -75 90 -166q0 -80 -51 -148t-133.5 -112.5t-184.5 -69t-207 -24.5q-63 0 -118 12t-103 37.5t-76 72.5t-28 111q0 68 43 134t124 114 q-42 21 -68 63t-26 95q0 55 24.5 112.5t65.5 93.5q-51 49 -78.5 101.5t-27.5 128.5q0 91 49.5 163t129 110t171.5 38q124 0 213 -57q37 48 98 76t107 28q41 0 67.5 -21.5t26.5 -54.5q0 -30 -23.5 -53.5t-52.5 -23.5q-16 0 -33.5 11.5t-23.5 24.5q-17 25 -41 25 q-19 0 -45 -16.5t-37 -32.5q46 -48 67 -96t21 -117q0 -144 -101.5 -228.5t-244.5 -84.5q-113 0 -186 43q-37 -52 -37 -119q0 -60 39.5 -88.5t91.5 -28.5z" />
<glyph unicode="h" horiz-adv-x="1101" d="M342 586v-336q0 -45 1.5 -72.5t7.5 -49.5t12.5 -32.5t23 -18t32 -10t45.5 -4.5q9 -9 9 -33.5t-9 -33.5q-114 4 -202 4q-89 0 -225 -4q-9 9 -9 33.5t9 33.5q34 2 52 4.5t37.5 10t27.5 18.5t15 32t9 49.5t2 72.5v895q0 35 -2 59.5t-4 43t-10 29.5t-13.5 18t-21.5 10.5 t-26.5 4.5t-34.5 2q-12 1 -19 1q-9 9 -12 28.5t0 32.5q62 5 155.5 23t131.5 33q26 0 26 -21q-8 -82 -8 -215l-2 -461q0 -25 17 -4q1 1 1.5 2t1.5 2q149 166 349 166q117 0 170 -70q33 -43 44 -109t11 -165v-305q0 -37 2 -62.5t5 -46t11 -32.5t16.5 -20.5t25.5 -13.5t33 -7.5 t44 -4.5q7 -9 7 -33.5t-7 -33.5q-136 4 -217 4q-95 0 -209 -4q-7 9 -7 33.5t7 33.5q45 4 65.5 9.5t37 25t20.5 53.5t4 99v311q0 109 -24 158q-18 35 -47.5 54.5t-61.5 19.5q-62 0 -133 -32.5t-129 -88.5q-35 -39 -35 -86z" />
<glyph unicode="i" horiz-adv-x="555" d="M184 1227q0 36 35 67t72 31q40 0 69 -33.5t29 -72.5q0 -34 -32.5 -66.5t-73.5 -32.5q-37 0 -68 33.5t-31 73.5zM371 250q0 -44 1.5 -72t9 -50t15.5 -32.5t27.5 -18t38.5 -10t55 -4.5q9 -9 9 -33.5t-9 -33.5q-136 4 -227 4q-94 0 -230 -4q-9 9 -9 33.5t9 33.5q37 3 55 5.5 t38.5 10t28 18t15.5 32t9.5 49.5t1.5 72v399q0 46 -4.5 70t-21 39.5t-39 20.5t-68.5 9q-3 10 -5 29t1 29q194 25 280 59q27 0 27 -14q-8 -131 -8 -233v-408z" />
<glyph unicode="j" horiz-adv-x="557" d="M203 1227q0 36 34.5 67t71.5 31q40 0 69.5 -34t29.5 -72q0 -34 -33 -66.5t-74 -32.5q-37 0 -67.5 33.5t-30.5 73.5zM231 649q0 46 -4.5 70t-21 39.5t-39 20.5t-68.5 9q-3 10 -5 29t1 29q197 25 281 59q26 0 26 -14q-8 -132 -8 -234v-432q0 -188 -19 -313.5t-51 -191.5 t-83 -107q-84 -70 -226 -70q-36 0 -74 24t-38 64q0 26 23 52t42 26q11 0 21.5 -3t17.5 -6t16 -10t12.5 -11t12 -12.5l10.5 -10.5q23 -23 64 -23q25 0 43.5 19t30.5 57.5t19.5 82.5t11 109.5t4.5 121t1 133.5v493z" />
<glyph unicode="k" horiz-adv-x="1048" d="M176 250v895q0 35 -2 59.5t-4 43t-10 29.5t-13.5 18t-21.5 10.5t-26.5 4.5t-34.5 2q-12 1 -19 1q-9 9 -12 28.5t0 32.5q61 4 154.5 22.5t131.5 33.5q27 0 27 -21q-8 -82 -8 -215v-714q67 9 139 63q73 54 164 168q10 13 16.5 26t10 31.5t-15 31t-58.5 15.5q-9 9 -9 34 t9 34q94 -4 201 -4q84 0 178 4q9 -9 9 -34t-9 -34q-71 -7 -122 -26t-93 -64l-180 -186q-9 -9 -9 -21q0 -10 15 -29l270 -339q38 -47 76 -63.5t100 -23.5q9 -9 9 -33.5t-9 -33.5q-82 4 -168 4q-45 0 -127 -4q-6 0 -8 10q-4 34 -86 144l-149 200q-33 46 -66 67q-27 9 -88 11 v-178q0 -52 3.5 -84t9 -52.5t20.5 -30.5t29.5 -13.5t43.5 -6.5q9 -9 9 -33.5t-9 -33.5q-94 4 -186 4q-83 0 -219 -4q-9 9 -9 33.5t9 33.5q33 2 50.5 4.5t35.5 10t26 18t15 32t8.5 50t1.5 72.5z" />
<glyph unicode="l" horiz-adv-x="540" d="M195 250v895q0 42 -1 66t-7 44t-12.5 29t-24.5 16t-35 9t-52 4q-9 9 -12 28.5t0 32.5q62 5 155.5 23t131.5 33q27 0 27 -21q-9 -82 -9 -215v-944q0 -66 4.5 -100.5t23.5 -54.5t43 -24.5t77 -7.5q9 -9 9 -33.5t-9 -33.5q-136 4 -228 4q-85 0 -229 -4q-9 9 -9 33.5t9 33.5 q53 3 77 7.5t43 24.5t23.5 54.5t4.5 100.5z" />
<glyph unicode="m" horiz-adv-x="1617" d="M348 733q1 -27 25 0q149 166 311 166q78 0 134 -42.5t71 -107.5q5 -21 22 -1q143 151 338 151q53 0 91 -17t61 -45t36.5 -71.5t18 -88t4.5 -104.5v-323q0 -44 1.5 -71.5t7.5 -49.5t13.5 -32.5t24.5 -18.5t34.5 -10.5t49.5 -4.5q7 -9 7 -33.5t-7 -33.5q-114 4 -211 4 q-107 0 -209 -4q-7 9 -7 33.5t7 33.5q59 4 82 15.5t34 48.5t11 123v360q0 99 -30.5 141t-91.5 42q-149 0 -271 -136q2 -25 2 -82v-325q0 -53 3.5 -84t9.5 -52t22 -30.5t33.5 -13.5t52.5 -7q8 -9 8 -33.5t-8 -33.5q-102 4 -201 4q-107 0 -209 -4q-8 9 -8 33.5t8 33.5 q38 3 56.5 7t35.5 13.5t23 31t9 52t3 83.5v356q0 187 -135 187q-97 0 -221 -121q-35 -39 -35 -86v-336q0 -43 2 -71.5t8.5 -49.5t13.5 -32t24 -18.5t33 -10t46 -5.5q9 -9 9 -33.5t-9 -33.5q-122 4 -207 4q-99 0 -221 -4q-9 9 -9 33.5t9 33.5q48 3 70.5 8.5t41 25t23.5 54.5 t5 99v399q0 46 -4.5 70.5t-21.5 39.5t-39 20t-69 9q-3 10 -5 29t1 29q155 20 252 59q18 0 25 -16q9 -20 16 -156z" />
<glyph unicode="n" horiz-adv-x="1110" d="M377 733q83 95 165.5 130.5t170.5 35.5q116 0 170 -70q32 -44 43.5 -110.5t11.5 -163.5v-305q0 -37 2 -62.5t5 -46t11 -32.5t16.5 -20.5t25.5 -13.5t33 -7.5t44 -4.5q7 -9 7 -33.5t-7 -33.5q-122 4 -217 4q-87 0 -209 -4q-7 9 -7 33.5t7 33.5q45 4 65.5 9.5t37 25 t20.5 53.5t4 99v311q0 109 -24 158q-18 35 -48 54.5t-61 19.5q-60 0 -125.5 -32t-124.5 -89q-35 -39 -35 -86v-336q0 -52 3.5 -83t10 -52t23.5 -30.5t34.5 -14t53.5 -7.5q9 -9 9 -33.5t-9 -33.5q-122 4 -204 4q-104 0 -226 -4q-9 9 -9 33.5t9 33.5q35 3 53.5 5.5t38 10 t27 18.5t15 32.5t9 49t1.5 71.5v399q0 46 -4.5 70.5t-21.5 39.5t-39 20t-69 9q-3 10 -5 29t1 29q155 20 252 59q18 0 25 -16q11 -23 16 -156q1 -27 25 0z" />
<glyph unicode="o" horiz-adv-x="1032" d="M948 438q0 -194 -117.5 -326t-316.5 -132q-84 0 -156 25.5t-121.5 69t-84.5 100.5t-51.5 119t-16.5 126q0 205 119 342t315 137q91 0 165 -27.5t122 -73t81 -106.5t47.5 -124.5t14.5 -129.5zM487 827q-227 0 -227 -360q0 -65 15 -132.5t46 -133.5t89 -108t133 -42 q40 0 77 15t73 48.5t57.5 100t21.5 158.5q0 219 -75.5 336.5t-209.5 117.5z" />
<glyph unicode="p" horiz-adv-x="1062" d="M358 678q-19 -22 -25.5 -40.5t-6.5 -49.5v-373q0 -54 8.5 -74t40.5 -49q25 -22 67.5 -32.5t77.5 -10.5q82 0 141 34.5t90 92t44.5 119.5t13.5 131q0 169 -71.5 274t-172.5 105q-44 0 -105 -38t-102 -89zM985 481q0 -141 -55 -254.5t-159 -180t-239 -66.5q-101 0 -178 31 q-16 8 -22 6t-6 -21v-221q0 -45 2 -72.5t10 -49.5t17 -32.5t31.5 -18t44 -10t63.5 -4.5q9 -9 9 -33.5t-9 -33.5q-136 4 -248 4q-86 0 -230 -4q-9 9 -9 33.5t9 33.5q53 3 77 7.5t43 24.5t23.5 54.5t4.5 100.5v874q0 46 -4.5 70.5t-21.5 39.5t-38.5 20t-68.5 9q-3 10 -5 29 t1 29q155 20 252 59q17 0 24 -16q10 -22 16 -135q1 -15 8 -17t15 8q63 70 137.5 112t143.5 42q101 0 185.5 -59t130.5 -155t46 -204z" />
<glyph unicode="q" horiz-adv-x="1030" d="M659 754q-68 75 -161 75q-120 0 -185 -99.5t-65 -264.5q0 -89 19.5 -159.5t50.5 -113.5t71.5 -71.5t79 -39.5t76.5 -11q83 0 135 27q19 10 24 21t5 40v471q0 38 -10 65t-40 60zM709 -227v227q0 31 -10.5 32t-45.5 -21q-54 -31 -157 -31q-85 0 -157 28t-120 73.5t-82 104 t-49.5 119t-15.5 119.5q0 203 123.5 339t310.5 136q138 0 231 -60q19 -11 29 -6.5t31 33.5q29 39 43 39q30 0 30 -51v-1081q0 -53 4 -84t11.5 -52t27.5 -30.5t41 -13t64 -5.5q9 -9 9 -33.5t-9 -33.5q-136 4 -227 4q-86 0 -230 -4q-9 9 -9 33.5t9 33.5q43 2 64 5.5t41 13 t27.5 30.5t11.5 52t4 84z" />
<glyph unicode="r" horiz-adv-x="761" d="M360 733q0 -10 7 -14.5t16 10.5q41 70 101 120t126 50q59 0 91 -31.5t32 -66.5q0 -39 -29.5 -71t-66.5 -32q-36 0 -74 48q-20 26 -53 26q-24 0 -94 -100q-49 -73 -49 -137v-285q0 -44 2 -72t10.5 -49.5t17.5 -32t31.5 -18t43.5 -10t63 -5.5q9 -9 9 -33.5t-9 -33.5 q-144 4 -248 4q-90 0 -234 -4q-9 9 -9 33.5t9 33.5q54 3 78.5 8t44 25t24.5 54t5 100v399q0 46 -4.5 70.5t-21.5 39.5t-38.5 20t-68.5 9q-3 10 -5 29t1 29q153 20 251 59q18 0 25 -16q11 -23 16 -156z" />
<glyph unicode="s" horiz-adv-x="798" d="M98 283q9 9 32 10t32 -8q8 -34 12 -50t14.5 -46.5t20 -46t26.5 -37t37.5 -32t49.5 -18.5t65 -8q66 0 120 37t54 106q0 67 -42 108t-167 93q-124 52 -174.5 111t-50.5 168q0 96 86.5 162.5t202.5 66.5q47 0 97 -7t103 -18.5t68 -13.5q-3 -108 -12 -217q-9 -9 -33 -10 t-33 8q-8 49 -26.5 86t-39 56t-46.5 30.5t-43.5 14.5t-34.5 3q-57 0 -100.5 -35.5t-43.5 -95.5q0 -28 6 -50t21 -40t28.5 -30t42.5 -26t48 -21.5t59 -22.5q240 -90 240 -272q0 -58 -23 -104.5t-58.5 -74.5t-80.5 -46.5t-85.5 -25.5t-78.5 -7q-100 0 -186 22q-14 4 -41 4 q-21 0 -51 -6q0 96 -15 283z" />
<glyph unicode="t" horiz-adv-x="647" d="M88 879h94q0 78 -1 129t-2 66.5t-2 25.5t-1 16q0 15 45 28q36 10 70 29q36 19 45 19q16 0 16 -18q-8 -83 -8 -216v-79h246q16 0 16 -13v-41q0 -12 -15.5 -19t-33.5 -7h-213v-518q0 -101 14.5 -145t53.5 -44q93 0 168 58q30 -3 36 -35q-59 -66 -131.5 -100.5t-144.5 -34.5 q-158 0 -158 202v617h-121q-10 0 -10 12v27q0 15 9 28t28 13z" />
<glyph unicode="u" horiz-adv-x="1087" d="M444 -20q-59 0 -105 15.5t-75.5 41.5t-48.5 62.5t-27 75.5t-8 83v393q0 97 -25.5 127.5t-101.5 36.5q-9 9 -9 34t9 34q140 -4 209 -4q52 0 72 4q16 0 16 -13q-8 -150 -8 -211v-372q0 -64 16.5 -109t43.5 -65.5t52 -28.5t52 -8q40 0 95 25.5t110 72.5q21 18 26.5 33.5 t5.5 46.5v395q0 99 -25 130t-102 36q-9 9 -9 34t9 34q140 -4 209 -4q52 0 72 4q16 0 16 -13q-8 -150 -8 -211v-393q0 -79 28 -110.5t122 -38.5q9 -9 9 -28t-9 -28q-166 -19 -242 -81q-19 -7 -39 0q-17 68 -22 120q-2 10 -12 9.5t-19 -7.5q-149 -122 -277 -122z" />
<glyph unicode="v" horiz-adv-x="1017" d="M666 815q-9 9 -9 34t9 34q102 -4 188 -4q61 0 143 4q9 -9 9 -34t-9 -34q-42 -4 -69.5 -14t-47.5 -33t-30 -42.5t-28 -61.5l-273 -641q-21 -48 -49 -48q-20 0 -31 9.5t-20 33.5l-262 648q-19 47 -28.5 66.5t-28 40.5t-42.5 29t-65 13q-9 9 -9 34t9 34q122 -4 190 -4 q71 0 207 4q9 -9 9 -34t-9 -34q-77 -10 -86.5 -37t22.5 -100l148 -395q17 -45 27.5 -58t21 -2t27.5 53l165 402q33 78 18 104.5t-97 32.5z" />
<glyph unicode="w" horiz-adv-x="1529" d="M416 815q-71 -4 -82.5 -34t20.5 -103l164 -422q20 -50 28 -49t29 53l144 363l-13 32q-14 35 -21.5 52t-21.5 40.5t-28 34.5t-36 20.5t-50 12.5q-9 9 -9 34t9 34q122 -4 180 -4q83 0 205 4q9 -9 9 -34t-9 -34q-80 -6 -92.5 -29.5t17.5 -95.5l177 -448q9 -22 15 -28t13 2 t17 34l172 426q11 27 15.5 42t4.5 35t-12 31t-39.5 20t-72.5 11q-9 9 -9 34t9 34q122 -4 209 -4q65 0 147 4q9 -9 9 -34t-9 -34q-72 -4 -108 -39.5t-65 -107.5l-267 -650q-17 -43 -47 -43q-32 0 -49 41l-211 508l-207 -504q-19 -45 -49 -45q-32 0 -49 41l-268 662 q-32 80 -61 105t-101 32q-9 9 -9 34t9 34q108 -4 186 -4q85 0 207 4q9 -9 9 -34t-9 -34z" />
<glyph unicode="x" horiz-adv-x="1003" d="M373 733l125 -184q12 -17 20 -18t19 14l133 186q19 26 25 41t-3 24t-24 12.5t-47 6.5q-9 9 -9 34t9 34q106 -4 172 -4q67 0 149 4q9 -9 9 -34t-9 -34q-64 -5 -105 -25.5t-94 -87.5l-172 -219q-12 -14 0 -30l185 -260q59 -83 94.5 -104t110.5 -26q9 -9 9 -33.5t-9 -33.5 q-98 4 -183 4q-81 0 -203 -4q-9 9 -9 33.5t9 33.5q25 3 35.5 5t22 8t10 17t-10.5 30.5t-30 48.5l-119 164q-9 14 -17 13.5t-20 -17.5l-129 -187q-23 -34 -24 -50t13.5 -22t55.5 -10q9 -9 9 -33.5t-9 -33.5q-106 4 -172 4q-65 0 -147 -4q-9 9 -9 33.5t9 33.5q63 3 103 23 t96 92l172 221q10 13 -2 31l-179 260q-79 116 -184 125q-9 9 -9 34t9 34q106 -4 176 -4q97 0 207 4q9 -9 9 -34t-9 -34q-40 -4 -55.5 -7t-25 -12t-3 -22.5t24.5 -40.5z" />
<glyph unicode="y" horiz-adv-x="1054" d="M418 -328q-83 -147 -199 -147q-41 0 -68.5 22t-27.5 54q0 26 25 57t65 31q11 0 27.5 -3t31.5 -3q70 0 103 59q48 98 80 188q13 38 1.5 94t-30.5 99l-232 539q-39 91 -68.5 118t-92.5 35q-9 9 -9 34t9 34q82 -4 166 -4q79 0 231 4q9 -9 9 -34t-9 -34q-34 -3 -54.5 -10 t-30 -15.5t-8 -26.5t7 -34.5t18.5 -46.5l182 -426q25 -59 49 -2l203 469q8 18 9 32t-5.5 23.5t-16 16t-25 10.5t-29 6t-32.5 4q-9 9 -9 34t9 34q122 -4 187 -4q63 0 145 4q9 -9 9 -34t-9 -34q-70 -9 -102.5 -36t-63.5 -95q-139 -298 -362 -836q-40 -98 -84 -176z" />
<glyph unicode="z" horiz-adv-x="868" d="M145 899q55 -20 121 -20h375q26 0 55.5 1t49 2t22.5 1q10 0 17.5 -4.5t7.5 -10.5q0 -13 -37 -75q-104 -171 -244.5 -379t-247.5 -344h273q77 1 118 35t82 120l29 60q40 0 61 -13q-21 -156 -65 -278l-639 6q-47 0 -47 25q0 17 18 41q306 412 504 743l-262 -6 q-115 -2 -166 -187q-36 -7 -68 7q29 160 31 264q0 4 4 8t8 4z" />
<glyph unicode="{" horiz-adv-x="567" d="M365 1130l16 -339q6 -128 -47 -188.5t-168 -92.5v-8q113 -47 167 -117t48 -190l-16 -306q-6 -123 43 -198.5t120 -75.5q9 -9 9 -24.5t-9 -24.5q-82 0 -138 15t-98 52t-60.5 103t-14.5 164l12 348q7 208 -200 233q-25 25 0 49q105 10 152.5 75t47.5 153l-12 377 q-3 84 19 146t65 97.5t99 52.5t128 17q9 -9 9 -24.5t-9 -24.5q-30 -9 -48.5 -16.5t-44.5 -27t-40 -46t-23.5 -72.5t-6.5 -107z" />
<glyph unicode="|" horiz-adv-x="419" d="M256 -475h-90v1905h90v-1905z" />
<glyph unicode="}" horiz-adv-x="567" d="M195 -119l-17 340q-6 128 47 188.5t168 92.5v8q-113 47 -167 117t-48 190l17 305q6 123 -43.5 199t-120.5 76q-9 9 -9 24.5t9 24.5q82 0 138 -15t98 -52t60.5 -103t14.5 -164l-12 -348q-7 -209 200 -234q24 -24 0 -49q-105 -10 -152.5 -74.5t-47.5 -152.5l12 -377 q3 -84 -19 -146t-65 -97.5t-99 -52.5t-128 -17q-9 9 -9 24.5t9 24.5q30 9 48.5 16.5t45 27t40.5 45.5t23.5 72t6.5 107z" />
<glyph unicode="~" horiz-adv-x="919" d="M53 428q21 104 96 183t166 79q66 0 154 -65q91 -68 147 -68q32 0 68 12t75 44.5t60 80.5q25 0 35 -12q-22 -77 -57 -130t-72.5 -76t-65 -31.5t-51.5 -8.5q-65 0 -155 68q-88 65 -150 65q-56 0 -118.5 -41.5t-96.5 -107.5q-19 0 -35 8z" />
<glyph unicode="&#xa1;" horiz-adv-x="589" d="M295 -469q-43 0 -76 37t-33 113t21.5 206.5t28.5 188.5q12 97 18.5 183.5t8.5 134t3 55.5q3 40 29 40q25 0 29 -26q1 -13 6 -78.5t12 -152t14 -156.5q7 -66 27 -190t20 -205q0 -76 -32.5 -113t-75.5 -37zM403 791q0 -44 -32 -76.5t-76 -32.5t-76.5 32.5t-32.5 76.5 t32.5 76t76.5 32t76 -32t32 -76z" />
<glyph unicode="&#xa2;" horiz-adv-x="952" d="M475 1251h74v-198q134 -1 212 -52.5t78 -131.5q0 -41 -30 -63.5t-66 -22.5q-66 0 -74 70q-3 29 -8 48.5t-17 40.5t-36 32.5t-59 14.5v-713q7 -1 21 -1q136 0 234 128q31 -3 41 -27q-64 -106 -135.5 -149t-160.5 -47v-207h-74v209q-158 17 -245.5 131t-87.5 291 q0 175 98 295.5t235 147.5v204zM475 298v682q-76 -25 -121 -112t-45 -221q0 -127 46 -219t120 -130z" />
<glyph unicode="&#xa3;" horiz-adv-x="952" d="M152 614q-13 0 -13 15v22q0 15 12 29t37 14h93v41q0 127 40 218t128 177q118 121 272 121q20 0 46 -5.5t53.5 -16.5t46 -31.5t18.5 -46.5q0 -38 -23.5 -61t-60.5 -23q-15 0 -28 5.5t-22 12.5t-24 21q-51 47 -102 47q-71 0 -120.5 -90t-49.5 -223v-146h254q16 0 16 -12 v-41q0 -11 -15.5 -19t-33.5 -8h-221q-2 -285 -154 -428q70 0 121.5 -10t80 -24t51.5 -28t52.5 -24t67.5 -10q58 0 116.5 20t94.5 70q26 -3 37 -22q-38 -82 -113 -131.5t-172 -49.5q-51 0 -91 12.5t-67 30.5t-54 36.5t-66.5 31t-88.5 12.5q-82 0 -82 -51q0 -34 -23.5 -53 t-58.5 -19q-30 0 -51.5 17t-21.5 41q0 27 27 50.5t77 51.5q84 61 114 169.5t30 268.5v39h-129z" />
<glyph unicode="&#xa4;" horiz-adv-x="952" d="M221 625q0 -122 69.5 -205.5t182.5 -83.5q111 0 181.5 84t70.5 203q0 120 -73.5 204t-174.5 84q-112 0 -184 -84t-72 -202zM473 244q-126 0 -233 78l-93 -115l-88 88l117 92q-86 106 -86 236q0 134 86 237l-113 90l80 86l99 -110q106 75 231 75q132 0 236 -79l100 118 l84 -88l-119 -96q82 -102 82 -233q0 -125 -80 -232l113 -94l-78 -82l-98 109q-109 -80 -240 -80z" />
<glyph unicode="&#xa5;" horiz-adv-x="952" d="M391 260v14h-289q-12 0 -12 15v26q0 15 12 27t37 12h252v148h-289q-8 0 -10 2t-2 10v25q0 15 12 29t37 14h244l-219 448q-30 63 -67 96t-97 39q-9 9 -9 34t9 34q132 -4 184 -4q51 0 183 4q9 -9 9 -34t-9 -34q-31 0 -46.5 -2t-25 -10t-6.5 -23.5t16 -42.5l219 -450h4 l158 360v1l1 2q46 104 47 128q0 24 -31 31q-15 3 -48 6q-9 9 -9 34t9 34q132 -4 162 -4q5 0 137 4q9 -9 7 -34t-11 -34q-35 -3 -52.5 -7t-33.5 -11t-27.5 -25.5t-23 -40t-31.5 -66.5q-5 -12 -8 -18l-188 -415h264q16 0 16 -13v-39q0 -14 -15.5 -21t-35.5 -7h-250v-148h285 q16 0 16 -12v-39q0 -14 -15.5 -21.5t-35.5 -7.5h-250v-14q0 -47 3 -77t13.5 -52.5t22.5 -34.5t39.5 -19.5t54 -9.5t76.5 -4q9 -9 9 -33.5t-9 -33.5q-218 4 -293 4q-87 0 -299 -4q-9 9 -9 33.5t9 33.5q50 2 76.5 4t54 9.5t39.5 19.5t22.5 34.5t13.5 52.5t3 77z" />
<glyph unicode="&#xa6;" horiz-adv-x="432" d="M266 1380v-741h-100v741h100zM266 330v-742h-100v742h100z" />
<glyph unicode="&#xa7;" horiz-adv-x="968" d="M256 850q-51 52 -71.5 105.5t-20.5 121.5q0 52 20.5 99.5t59.5 86.5t101 62t138 23q135 0 210 -67.5t75 -139.5q0 -78 -74 -78q-62 0 -84 84q-17 67 -47.5 102t-91.5 35q-72 0 -119 -47.5t-47 -118.5q0 -73 44.5 -132t142.5 -112q12 -6 48 -25t52 -27.5t50 -28.5 t50.5 -32.5t45 -35.5t43 -42t34 -46.5t28.5 -55t16 -61.5t7 -71q0 -180 -153 -304q51 -52 71.5 -105.5t20.5 -121.5q0 -109 -85 -189.5t-235 -80.5q-71 0 -128 21t-89.5 53t-49.5 66.5t-17 66.5q0 77 73 77q62 0 84 -84q17 -66 48 -101.5t92 -35.5q72 0 119 47.5t47 118.5 q0 73 -44.5 132t-142.5 112q-11 6 -48 25t-52.5 27.5t-49.5 28.5t-51 33t-45.5 36t-43 42t-34 46.5t-28.5 55t-16 61.5t-7 71q0 178 154 303zM670 185q86 77 86 165q0 52 -18.5 99t-39 77t-68.5 67t-73 53t-87 52l-15 9q-97 55 -156 104q-86 -78 -86 -166q0 -52 16.5 -97.5 t42 -78.5t64.5 -64.5t76 -55t84 -50.5q12 -7 18 -10q97 -55 156 -104z" />
<glyph unicode="&#xa8;" horiz-adv-x="776" d="M102 1178q0 40 28.5 69t68.5 29t68 -29t28 -69t-28 -68.5t-68 -28.5t-68.5 28.5t-28.5 68.5zM449 1178q0 40 28 69t68 29t68 -29t28 -69t-28 -68.5t-68 -28.5t-68 28.5t-28 68.5z" />
<glyph unicode="&#xa9;" horiz-adv-x="1423" d="M338 623q0 137 93.5 225t230.5 88q63 0 107.5 -6.5t72 -15t39.5 -9.5q4 -74 0 -170q-13 -8 -41 -8q-15 41 -28 66t-34 49.5t-52 35.5t-73 11q-34 0 -63 -11.5t-56 -38.5t-43 -78.5t-16 -123.5q0 -113 57.5 -189.5t143.5 -76.5q113 0 184 102q20 -6 39 -31 q-35 -53 -99 -92t-143 -39q-136 0 -227.5 91.5t-91.5 220.5zM657 47q-158 0 -293.5 78.5t-214.5 212t-79 289.5q0 117 47 224t126.5 184.5t187.5 123t226 45.5q157 0 292.5 -77t215.5 -210.5t80 -289.5q0 -157 -80 -290.5t-215.5 -211.5t-292.5 -78zM657 1139 q-141 0 -257 -68t-182 -185.5t-66 -258.5q0 -140 66 -258t182 -187t257 -69q139 0 255.5 68.5t183.5 187t67 258.5q0 214 -146.5 363t-359.5 149z" />
<glyph unicode="&#xaa;" horiz-adv-x="628" d="M393 1028q-128 -33 -175.5 -65t-47.5 -80q0 -36 21.5 -60t70.5 -24q31 0 60.5 15.5t70.5 51.5v162zM172 1198q0 -15 4 -26.5t4 -24.5q0 -15 -13.5 -29t-39.5 -14q-23 0 -38 14t-15 37q0 58 71.5 104t141.5 46q42 0 77 -10t68.5 -34t52.5 -72.5t19 -117.5v-153 q0 -117 28 -117q15 0 25 10q23 -9 21 -33q-15 -17 -42.5 -31t-54.5 -14q-35 0 -58 24.5t-28 55.5q-54 -47 -89 -63.5t-85 -16.5q-66 0 -112 40t-46 104q0 122 211 176l119 30q0 55 -10 91t-28 52t-34.5 21.5t-37.5 5.5q-51 0 -81 -15t-30 -40z" />
<glyph unicode="&#xab;" horiz-adv-x="1112" d="M319 440q128 -144 261 -348q-4 -15 -18.5 -26t-31.5 -13q-221 237 -378 375v25q162 142 378 374q17 -2 31.5 -13t18.5 -26q-133 -204 -261 -348zM688 440q124 -140 260 -348q-4 -15 -18 -26t-31 -13q-217 233 -379 375v25q168 147 379 374q17 -2 31 -13t18 -26 q-136 -208 -260 -348z" />
<glyph unicode="&#xac;" horiz-adv-x="1226" d="M1022 203v459h-940q-15 50 0 90h1051v-549q-61 -23 -111 0z" />
<glyph unicode="&#xad;" horiz-adv-x="692" d="M555 457h-442q-13 0 -22 12t-9 27q0 28 16.5 56t34.5 28h449q28 0 28 -41q0 -21 -18 -51.5t-37 -30.5z" />
<glyph unicode="&#xae;" horiz-adv-x="1423" d="M770 758q0 104 -102 104q-37 0 -59.5 -20t-22.5 -49v-154h86q49 0 73.5 26t24.5 93zM539 907q15 0 70 2t77 2q55 0 95 -15t60.5 -39t30 -49t9.5 -50q0 -57 -33 -96.5t-84 -55.5l98 -168q35 -59 88 -49q12 -12 8 -35q-35 -14 -73 -14q-79 0 -125 78l-98 164q-11 8 -76 8 v-115q0 -49 15.5 -64t66.5 -20q6 -6 6 -24.5t-6 -24.5q-74 4 -129 4q-57 0 -131 -4q-6 6 -6 24.5t6 24.5q50 5 65.5 20t15.5 64v303q0 49 -15.5 64t-65.5 20q-6 6 -6 24.5t6 24.5q74 -4 131 -4zM657 47q-158 0 -293.5 78.5t-214.5 212t-79 289.5q0 117 47 224t126.5 184.5 t187.5 123t226 45.5q157 0 292.5 -77t215.5 -210.5t80 -289.5q0 -157 -80 -290.5t-215.5 -211.5t-292.5 -78zM657 1139q-141 0 -257 -68t-182 -185.5t-66 -258.5q0 -140 66 -258t182 -187t257 -69q139 0 255.5 68.5t183.5 187t67 258.5q0 214 -146.5 363t-359.5 149z" />
<glyph unicode="&#xaf;" horiz-adv-x="813" d="M645 1083h-500q-24 0 -24 31q0 20 13.5 40t31.5 20h500q14 0 21 -9t7 -20q0 -20 -15 -41t-34 -21z" />
<glyph unicode="&#xb0;" horiz-adv-x="546" d="M408 1040q0 57 -35 102.5t-99 45.5q-63 0 -99 -44t-36 -104q0 -57 36.5 -99t98.5 -42q60 0 97 42.5t37 98.5zM70 1042q0 86 59.5 146.5t144.5 60.5t144 -60.5t59 -146.5q0 -85 -59 -144.5t-144 -59.5t-144.5 59.5t-59.5 144.5z" />
<glyph unicode="&#xb1;" horiz-adv-x="1126" d="M512 1065q0 19 25.5 37t42.5 18q14 0 24 -7t10 -21v-353h361q14 0 21.5 -10.5t7.5 -23.5q0 -17 -18.5 -42.5t-37.5 -25.5h-334v-328q0 -18 -22.5 -34.5t-46.5 -16.5q-13 0 -23 9t-10 22v348h-358q-13 0 -22 10t-9 23q0 24 16.5 46.5t34.5 22.5h338v326zM948 76h-794 q-13 0 -22 10t-9 23q0 24 16.5 46.5t34.5 22.5h801q14 0 21.5 -10.5t7.5 -24.5q0 -17 -18.5 -42t-37.5 -25z" />
<glyph unicode="&#xb2;" horiz-adv-x="628" d="M150 1202q-20 0 -37 14.5t-17 34.5q0 52 55.5 105t163.5 53q41 0 78 -8.5t70.5 -27t53.5 -53t20 -81.5q0 -66 -44.5 -121.5t-138.5 -122.5q-61 -43 -90.5 -86t-44.5 -98h170q15 0 28 5t25 19t19 22t17.5 31.5t12.5 28.5t13 31q33 2 49 -10q-14 -111 -39 -193h-422 q0 125 176 261q41 33 62 53t42.5 48t29.5 58.5t8 71.5q0 63 -32 87t-71 24q-81 0 -98 -43q-4 -10 -3.5 -30.5t-0.5 -29.5q-7 -43 -55 -43z" />
<glyph unicode="&#xb3;" horiz-adv-x="628" d="M381 1278q0 36 -24 53t-54 17t-63 -13.5t-43 -36.5q-2 -5 -5 -15t-5.5 -16t-8 -13.5t-15 -11t-22.5 -3.5q-18 0 -29.5 8.5t-14.5 16t-3 12.5q0 15 12.5 36t37 43.5t73.5 38t111 15.5q80 0 127 -32t47 -89q0 -80 -105 -139q61 -5 112.5 -52t51.5 -128q0 -105 -80.5 -170.5 t-204.5 -65.5q-23 0 -54 5t-64.5 14.5t-56.5 27.5t-23 41q0 19 15.5 32t35.5 13q44 0 61 -35q10 -19 29 -27.5t66 -8.5q25 0 48.5 6.5t47.5 22.5t38.5 49t14.5 79q0 125 -153 125q-9 0 -41 -4q-16 18 -4 55q68 9 106.5 48.5t38.5 101.5z" />
<glyph unicode="&#xb4;" horiz-adv-x="698" d="M358 1440q12 4 29 4q64 0 113 -47l6 -23l-236 -223q-39 -39 -61 -39q-11 0 -20 8.5t-9 18.5q0 4 0.5 8t1 6.5t2 6.5t2 6t3.5 7t4 6.5t5.5 8t5.5 8.5z" />
<glyph unicode="&#xb5;" horiz-adv-x="1054" d="M696 123q-63 -71 -134 -107t-165 -36q-41 0 -77.5 13t-55.5 34q-9 0 -17.5 -6t-8.5 -13q0 -72 34.5 -199t34.5 -165q0 -60 -24.5 -91.5t-63.5 -31.5q-33 0 -75 38t-42 95q0 49 16.5 155.5t16.5 174.5q0 28 -9 126t-9 164v385q0 25 -5.5 80t-11.5 97l-6 43q28 0 94.5 9 t83.5 11q7 -131 7 -197v-401q0 -229 149 -229q79 0 156 45t116 102v660q30 0 91.5 9.5t70.5 10.5v-651q0 -29 0.5 -46t3 -41t8 -37.5t14.5 -27.5t24.5 -20t35.5 -6q23 0 38.5 8t22.5 16t11 8q7 0 15.5 -10t8.5 -20q0 -7 -21.5 -28t-66 -42.5t-92.5 -21.5q-44 0 -77 14 t-50 37t-25.5 45t-11.5 47h-4z" />
<glyph unicode="&#xb6;" horiz-adv-x="1232" d="M752 1176v-1506q0 -39 22.5 -58.5t59.5 -19.5q84 0 84 78v1506q0 44 -22 60.5t-62 16.5q-82 0 -82 -77zM836 1321q265 0 362 4l4 -4v-39q0 -14 -16 -16l-53 -4q-62 -5 -87.5 -23t-25.5 -63v-1506q0 -45 25.5 -63t87.5 -23l53 -4q16 -2 16 -16v-39l-4 -4q-97 4 -362 4 q-263 0 -363 -4l-4 4v39q0 14 14 16l56 4q63 4 86.5 23.5t23.5 62.5v914q-27 -6 -65 -6q-227 0 -347 102t-120 305q0 63 23.5 122t69 108.5t122.5 79.5t174 30q89 0 202 -2t128 -2z" />
<glyph unicode="&#xb7;" horiz-adv-x="512" d="M256 408q-43 0 -77 33.5t-34 76.5t34 77t77 34t77 -34t34 -77t-34 -76.5t-77 -33.5z" />
<glyph unicode="&#xb8;" horiz-adv-x="1107" d="M618 -197q-52 0 -92 -12l-12 12l82 197h70l-52 -137q24 6 54 6q63 0 104 -35t41 -92q0 -66 -62.5 -109t-156.5 -43q-74 0 -152 35q0 32 21 53q77 -28 119 -28q47 0 75.5 21.5t28.5 60.5q0 71 -68 71z" />
<glyph unicode="&#xb9;" horiz-adv-x="628" d="M276 1270q-28 0 -116 -31q-21 16 -21 55q128 47 240 115q23 13 37 0v-489q0 -38 7 -61t24 -34t33.5 -14.5t47.5 -5.5q6 -12 6 -30.5t-6 -29.5q-92 3 -172 3q-104 0 -196 -3q-6 10 -6.5 28.5t6.5 31.5q38 2 58.5 5.5t43.5 14.5t33 34t10 61v266q0 51 -5.5 67.5t-23.5 16.5 z" />
<glyph unicode="&#xba;" horiz-adv-x="714" d="M80 879q0 126 78 203t209 77q127 0 198.5 -78t71.5 -190q0 -109 -74.5 -189.5t-210.5 -80.5q-114 0 -193 74.5t-79 183.5zM350 1106q-73 0 -112 -59t-39 -148q0 -54 17.5 -103t59 -85.5t99.5 -36.5q23 0 46 8.5t46 28t37 57.5t14 90q0 121 -45 184.5t-123 63.5z" />
<glyph unicode="&#xbb;" horiz-adv-x="1112" d="M793 440q-128 144 -261 348q4 15 18.5 26t31.5 13q211 -227 379 -374v-25q-162 -142 -379 -375q-17 2 -31.5 13t-18.5 26q133 204 261 348zM424 440q-124 140 -260 348q4 15 18 26t31 13q211 -227 379 -374v-25q-162 -142 -379 -375q-17 2 -31 13t-18 26q136 208 260 348 z" />
<glyph unicode="&#xbc;" horiz-adv-x="1351" d="M1141 1231l84 -17l-938 -1341l-86 16zM1081 393q-61 -76 -125.5 -168.5t-74.5 -118.5h200v287zM1081 -12v49h-243q-57 0 -39 58q4 9 20 34q75 121 229 301q30 37 73 63q6 3 29 3q38 0 38 -21v-369h115l-13 -69h-102v-49q0 -58 22.5 -74.5t81.5 -19.5q6 -12 6 -31t-6 -29 q-61 2 -159 2q-99 0 -160 -2q-6 10 -6.5 28.5t6.5 31.5q66 3 87 18.5t21 75.5zM270 1169q-31 0 -116 -30q-21 16 -21 55q128 47 240 115q23 13 37 0v-490q0 -38 7 -61t24 -34t33 -14t48 -5q6 -12 6 -30.5t-6 -29.5q-61 2 -172 2q-135 0 -196 -2q-6 10 -6.5 28.5t6.5 31.5 q38 2 58.5 5.5t43.5 14t33 33.5t10 61v266q0 51 -5.5 67.5t-23.5 16.5z" />
<glyph unicode="&#xbd;" horiz-adv-x="1351" d="M1090 1231l86 -17l-940 -1341l-84 16zM883 295q-20 0 -37 14.5t-17 34.5q0 52 56 105t164 53q57 0 103.5 -14t82 -54t35.5 -102q0 -66 -44.5 -121.5t-138.5 -122.5q-61 -43 -90.5 -86t-44.5 -98h170q15 0 28 5t25 19t19 22t17.5 31.5t12.5 28.5t13 31q33 2 49 -10 q-14 -111 -39 -193h-422q0 124 176 260q79 63 110.5 109t31.5 123q0 34 -10.5 57.5t-27.5 34t-32.5 14.5t-32.5 4q-81 0 -98 -43q-4 -10 -3.5 -30t-0.5 -29q-7 -43 -55 -43zM274 1169q-31 0 -116 -30q-21 16 -21 55q128 47 240 115q23 13 37 0v-490q0 -38 7 -61t24 -34 t33 -14t48 -5q6 -12 6 -30.5t-6 -29.5q-61 2 -172 2q-135 0 -196 -2q-6 10 -6.5 28.5t6.5 31.5q38 2 58.5 5.5t43.5 14t33 33.5t10 61v266q0 51 -5.5 67.5t-23.5 16.5z" />
<glyph unicode="&#xbe;" horiz-adv-x="1351" d="M1151 1231l84 -17l-938 -1341l-86 16zM377 1174q0 36 -24 52.5t-54 16.5t-63 -13t-43 -36q-2 -5 -5 -15t-5.5 -16t-8 -13.5t-15 -11t-22.5 -3.5q-18 0 -29.5 8t-14.5 15.5t-3 12.5q0 15 12.5 36t37 44t73.5 38.5t111 15.5q80 0 127 -32t47 -89q0 -81 -105 -140 q61 -5 112.5 -52t51.5 -128q0 -105 -80.5 -170t-204.5 -65q-23 0 -54 4.5t-64.5 14t-56.5 27.5t-23 41q0 20 15.5 33t35.5 13q44 0 61 -35q10 -20 29.5 -28.5t65.5 -8.5q25 0 48.5 6.5t47.5 22.5t38.5 49.5t14.5 79.5q0 125 -154 125q-8 0 -40 -4q-16 19 -5 55 q68 9 107 48.5t39 101.5zM1090 397q-62 -77 -127 -168.5t-74 -117.5h201v286zM1090 -8v49h-244q-21 0 -31.5 8t-12 18t4 25t10 23t10.5 18q72 117 230 301q30 37 73 63q6 3 28 3q38 0 38 -21v-368h115l-13 -70h-102v-49q0 -58 22.5 -74.5t81.5 -19.5q6 -12 6 -31t-6 -29 q-61 2 -159 2q-99 0 -160 -2q-6 10 -6.5 28.5t6.5 31.5q67 3 88 18.5t21 75.5z" />
<glyph unicode="&#xbf;" horiz-adv-x="890" d="M657 -293q0 31 -12 52.5t-12 50.5q0 33 24 52t56 19t58 -20t26 -68q0 -100 -105 -184q-93 -80 -254 -80q-156 0 -250 84.5t-94 224.5q0 34 8 66t18.5 56t32 51t36 43.5t43 40t42 33.5t43.5 32t46 35t34.5 32t26.5 35q29 55 29 150v90q0 20 34 20q33 0 33 -20v-94 q0 -41 -4 -73.5t-17 -77.5t-44 -90.5t-78 -88.5q-62 -58 -87.5 -109.5t-25.5 -122.5q0 -103 54.5 -176t140.5 -73q87 0 142.5 32t55.5 78zM596 791q0 -44 -32.5 -76.5t-76.5 -32.5t-76 32.5t-32 76.5t32 76t76 32t76.5 -32t32.5 -76z" />
<glyph unicode="&#xc0;" horiz-adv-x="1423" d="M582 1675l247 -172q31 -22 31 -43q0 -12 -9.5 -21t-21.5 -9q-31 0 -88 24l-315 129q61 59 156 92zM539 580h362l-192 557h-13l-209 -530q-6 -15 6 -21t46 -6zM317 162q-6 -15 -6.5 -28t4.5 -22.5t12.5 -16.5t20 -12t24 -8.5t28.5 -6t29.5 -3.5t29.5 -2q9 -9 9 -33.5 t-9 -33.5q-152 4 -262 4q-77 0 -183 -4q-9 9 -9 33.5t9 33.5q78 5 123.5 32t81.5 114l465 1098q42 0 113 41l422 -1172q10 -29 26 -49t31 -31.5t39.5 -18.5t40.5 -9t47 -5q9 -9 9 -33.5t-9 -33.5q-144 4 -234 4q-116 0 -268 -4q-9 9 -9 33.5t9 33.5q31 2 46.5 3.5t41.5 5.5 t33.5 9t23.5 14t11 21.5t-4 30.5l-119 347h-432q-36 0 -50 -7t-22 -28z" />
<glyph unicode="&#xc1;" horiz-adv-x="1423" d="M854 1679q88 -40 127 -106l-295 -119q-57 -24 -86 -24q-13 0 -22 9t-9 21q0 22 31 43zM539 580h362l-192 557h-13l-209 -530q-6 -15 6 -21t46 -6zM317 162q-6 -15 -6.5 -28t4.5 -22.5t12.5 -16.5t20 -12t24 -8.5t28.5 -6t29.5 -3.5t29.5 -2q9 -9 9 -33.5t-9 -33.5 q-152 4 -262 4q-77 0 -183 -4q-9 9 -9 33.5t9 33.5q78 5 123.5 32t81.5 114l465 1098q42 0 113 41l422 -1172q10 -29 26 -49t31 -31.5t39.5 -18.5t40.5 -9t47 -5q9 -9 9 -33.5t-9 -33.5q-144 4 -234 4q-116 0 -268 -4q-9 9 -9 33.5t9 33.5q31 2 46.5 3.5t41.5 5.5t33.5 9 t23.5 14t11 21.5t-4 30.5l-119 347h-432q-36 0 -50 -7t-22 -28z" />
<glyph unicode="&#xc2;" horiz-adv-x="1423" d="M772 1655q90 -109 211 -199q-11 -34 -33 -43q-131 61 -217 125q-97 -70 -219 -125q-23 15 -29 43q86 64 207 199q37 22 80 0zM539 580h362l-192 557h-13l-209 -530q-6 -15 6 -21t46 -6zM317 162q-6 -15 -6.5 -28t4.5 -22.5t12.5 -16.5t20 -12t24 -8.5t28.5 -6t29.5 -3.5 t29.5 -2q9 -9 9 -33.5t-9 -33.5q-152 4 -262 4q-77 0 -183 -4q-9 9 -9 33.5t9 33.5q78 5 123.5 32t81.5 114l465 1098q42 0 113 41l422 -1172q10 -29 26 -49t31 -31.5t39.5 -18.5t40.5 -9t47 -5q9 -9 9 -33.5t-9 -33.5q-144 4 -234 4q-116 0 -268 -4q-9 9 -9 33.5t9 33.5 q31 2 46.5 3.5t41.5 5.5t33.5 9t23.5 14t11 21.5t-4 30.5l-119 347h-432q-36 0 -50 -7t-22 -28z" />
<glyph unicode="&#xc3;" horiz-adv-x="1423" d="M610 1638q35 0 69 -17t58 -37t58.5 -37t68.5 -17q35 0 55.5 21.5t41.5 84.5q33 3 55 -12q-19 -95 -64 -149t-114 -54q-13 0 -26 3.5t-28 12t-24.5 14.5t-27.5 18.5t-25 17.5q-63 39 -111 39q-38 0 -58 -22.5t-36 -76.5q-38 -7 -56 11q23 97 62 148.5t102 51.5zM539 580 h362l-192 557h-13l-209 -530q-6 -15 6 -21t46 -6zM317 162q-5 -14 -6 -25.5t2 -20.5t10 -16t14.5 -12t20 -9t23 -6.5t26 -4.5t26.5 -3t26 -2q9 -9 9 -33.5t-9 -33.5q-152 4 -262 4q-77 0 -183 -4q-9 9 -9 33.5t9 33.5q31 2 51 5t44 12t41 24.5t35 41.5t34 63l465 1098 q19 0 53 13t60 28l422 -1172q9 -24 20 -42t26.5 -30t28.5 -19t34.5 -11.5t35.5 -6.5t39 -4q9 -9 9 -33.5t-9 -33.5q-144 4 -234 4q-116 0 -268 -4q-9 9 -9 33.5t9 33.5q24 2 35.5 3t32.5 3t29 4.5t24.5 7.5t18.5 10.5t12 13.5t4.5 18t-4.5 24l-119 347h-432q-36 0 -50 -7 t-22 -28z" />
<glyph unicode="&#xc4;" horiz-adv-x="1423" d="M395 1446q0 40 29.5 69t69.5 29t69 -29t29 -69t-29 -69t-69 -29t-69.5 29t-29.5 69zM881 1446q0 40 29 69t69 29t69 -29t29 -69t-29 -69t-69 -29t-69 29t-29 69zM539 580h362l-192 557h-13l-209 -530q-6 -15 6 -21t46 -6zM317 162q-6 -15 -6.5 -28t4.5 -22.5t12.5 -16.5 t20 -12t24 -8.5t28.5 -6t29.5 -3.5t29.5 -2q9 -9 9 -33.5t-9 -33.5q-152 4 -262 4q-77 0 -183 -4q-9 9 -9 33.5t9 33.5q78 5 123.5 32t81.5 114l465 1098q42 0 113 41l422 -1172q10 -29 26 -49t31 -31.5t39.5 -18.5t40.5 -9t47 -5q9 -9 9 -33.5t-9 -33.5q-144 4 -234 4 q-116 0 -268 -4q-9 9 -9 33.5t9 33.5q31 2 46.5 3.5t41.5 5.5t33.5 9t23.5 14t11 21.5t-4 30.5l-119 347h-432q-36 0 -50 -7t-22 -28z" />
<glyph unicode="&#xc5;" horiz-adv-x="1423" d="M539 580h362l-192 557h-13l-209 -530q-6 -15 6 -21t46 -6zM317 162q-6 -15 -6.5 -28t4.5 -22.5t12.5 -16.5t20 -12t24 -8.5t28.5 -6t29.5 -3.5t29.5 -2q9 -9 9 -33.5t-9 -33.5q-152 4 -262 4q-77 0 -183 -4q-9 9 -9 33.5t9 33.5q78 5 123.5 32t81.5 114l461 1088 q-54 18 -89.5 64t-35.5 101q0 70 54.5 122t125.5 52t125.5 -51.5t54.5 -122.5q0 -50 -28.5 -92t-74.5 -64l407 -1130q10 -29 26 -49t31 -31.5t39.5 -18.5t40.5 -9t47 -5q9 -9 9 -33.5t-9 -33.5q-144 4 -234 4q-116 0 -268 -4q-9 9 -9 33.5t9 33.5q31 2 46.5 3.5t41.5 5.5 t33.5 9t23.5 14t11 21.5t-4 30.5l-119 347h-432q-36 0 -50 -7t-22 -28zM735 1571q-46 0 -72 -31t-26 -78q0 -45 26.5 -76.5t71.5 -31.5t72 31.5t27 76.5q0 48 -27 78.5t-72 30.5z" />
<glyph unicode="&#xc6;" horiz-adv-x="1771" d="M555 625h324v553q0 42 -11 47zM879 250v295h-365l-199 -383q-9 -17 -9 -30.5t5.5 -23t18.5 -17.5t26.5 -12.5t33 -8t35 -5t34.5 -2.5q9 -9 9 -33.5t-9 -33.5q-152 4 -262 4q-31 0 -183 -4q-9 9 -9 33.5t9 33.5q50 3 81.5 13.5t66 42.5t65.5 90l498 932q15 32 14.5 56.5 t-34.5 40.5t-103 19q-9 9 -9 34t9 34l236 -4h647q53 0 100 8q8 0 8 -6q3 -14 20.5 -126.5t24.5 -170.5q-31 -16 -67 -10q-16 50 -27 78t-29.5 60t-40.5 48t-56 26.5t-79 10.5h-215q-35 0 -54 -25.5t-19 -64.5v-410h186q45 0 74 2t50 9.5t32 15.5t17.5 27t8.5 36t4 50 q9 9 34 9t34 -9q-4 -122 -4 -177q0 -36 4 -180q-9 -9 -34 -9t-34 9q-2 34 -5 50.5t-13 37.5t-29 30t-53.5 15.5t-85.5 6.5h-186v-494q0 -41 19.5 -64.5t53.5 -23.5h279q108 0 170.5 71.5t97.5 196.5q37 10 72 -10q-25 -163 -76 -342q-164 4 -262 4h-438q-167 -2 -267 -4 q-9 9 -9 33.5t9 33.5q41 2 63.5 4t46 9.5t34 18.5t20 32t12.5 50t3 73z" />
<glyph unicode="&#xc7;" horiz-adv-x="1323" d="M76 635q0 194 82 356.5t233.5 259.5t341.5 97q110 0 198 -21t151 -44.5t100 -27.5q32 -183 45 -317q-38 -20 -68 -10q-22 72 -53.5 129t-83 108t-130.5 79t-181 28q-83 0 -168 -45.5t-159 -136.5q-57 -70 -89.5 -178t-32.5 -238q0 -151 58 -290t167 -230t242 -91 q143 0 255 52.5t220 171.5q30 0 47 -31q-189 -247 -459 -273l-44 -120q24 6 53 6q63 0 104 -35t41 -92q0 -66 -62.5 -109t-156.5 -43q-74 0 -152 35q0 32 21 53q77 -28 119 -28q47 0 75.5 21.5t28.5 60.5q0 71 -67 71q-53 0 -93 -12l-12 12l73 177q-158 2 -282.5 54.5 t-202.5 143t-118.5 207t-40.5 250.5z" />
<glyph unicode="&#xc8;" horiz-adv-x="1140" d="M502 1673l248 -172q30 -21 30 -43q0 -12 -9 -21.5t-21 -9.5q-28 0 -88 25l-316 129q61 59 156 92zM575 739q45 0 74 2t50.5 9.5t32.5 15.5t17.5 27t8.5 36t4 50q9 9 33.5 9t33.5 -9q-4 -98 -4 -177q0 -74 4 -180q-9 -9 -33.5 -9t-33.5 9q-2 34 -5 51t-13.5 37.5 t-29.5 29.5t-53.5 15.5t-85.5 6.5h-186v-453q0 -72 25.5 -100.5t89.5 -28.5h237q108 0 171 71.5t98 196.5q37 10 71 -10q-26 -170 -75 -342q-165 4 -263 4h-440q-114 0 -266 -4q-9 9 -9 33.5t9 33.5q41 2 63.5 4t45.5 9.5t34 18.5t20 32.5t12 50t3 72.5v821q0 65 -6.5 100 t-30 54.5t-52 24t-89.5 7.5q-9 9 -9 34t9 34q164 -4 264 -4h522q54 0 101 8q8 0 8 -6q3 -14 20.5 -126.5t24.5 -170.5q-32 -16 -68 -10q-13 42 -22 66t-23.5 53.5t-29.5 45.5t-37.5 31t-51.5 21t-67 6h-154q-80 0 -107.5 -30t-27.5 -101v-369h186z" />
<glyph unicode="&#xc9;" horiz-adv-x="1140" d="M717 1679q88 -40 127 -106l-295 -119q-57 -24 -86 -24q-13 0 -22 9t-9 21q0 22 31 43zM575 739q45 0 74 2t50.5 9.5t32.5 15.5t17.5 27t8.5 36t4 50q9 9 33.5 9t33.5 -9q-4 -98 -4 -177q0 -74 4 -180q-9 -9 -33.5 -9t-33.5 9q-2 34 -5 51t-13.5 37.5t-29.5 29.5 t-53.5 15.5t-85.5 6.5h-186v-453q0 -72 25.5 -100.5t89.5 -28.5h237q108 0 171 71.5t98 196.5q37 10 71 -10q-26 -170 -75 -342q-165 4 -263 4h-440q-114 0 -266 -4q-9 9 -9 33.5t9 33.5q41 2 63.5 4t45.5 9.5t34 18.5t20 32.5t12 50t3 72.5v821q0 65 -6.5 100t-30 54.5 t-52 24t-89.5 7.5q-9 9 -9 34t9 34q164 -4 264 -4h522q54 0 101 8q8 0 8 -6q3 -14 20.5 -126.5t24.5 -170.5q-32 -16 -68 -10q-13 42 -22 66t-23.5 53.5t-29.5 45.5t-37.5 31t-51.5 21t-67 6h-154q-80 0 -107.5 -30t-27.5 -101v-369h186z" />
<glyph unicode="&#xca;" horiz-adv-x="1140" d="M645 1655q90 -109 211 -199q-11 -34 -33 -43q-131 61 -217 125q-97 -70 -219 -125q-23 15 -29 43q86 64 207 199q37 22 80 0zM575 739q45 0 74 2t50.5 9.5t32.5 15.5t17.5 27t8.5 36t4 50q9 9 33.5 9t33.5 -9q-4 -98 -4 -177q0 -74 4 -180q-9 -9 -33.5 -9t-33.5 9 q-2 34 -5 51t-13.5 37.5t-29.5 29.5t-53.5 15.5t-85.5 6.5h-186v-453q0 -72 25.5 -100.5t89.5 -28.5h237q108 0 171 71.5t98 196.5q37 10 71 -10q-26 -170 -75 -342q-165 4 -263 4h-440q-114 0 -266 -4q-9 9 -9 33.5t9 33.5q41 2 63.5 4t45.5 9.5t34 18.5t20 32.5t12 50 t3 72.5v821q0 65 -6.5 100t-30 54.5t-52 24t-89.5 7.5q-9 9 -9 34t9 34q164 -4 264 -4h522q54 0 101 8q8 0 8 -6q3 -14 20.5 -126.5t24.5 -170.5q-32 -16 -68 -10q-13 42 -22 66t-23.5 53.5t-29.5 45.5t-37.5 31t-51.5 21t-67 6h-154q-80 0 -107.5 -30t-27.5 -101v-369h186z " />
<glyph unicode="&#xcb;" horiz-adv-x="1140" d="M664 1550q0 40 29 69.5t69 29.5t69 -29.5t29 -69.5t-29 -69t-69 -29t-69 29t-29 69zM276 1550q0 40 29.5 69.5t69.5 29.5t69 -29.5t29 -69.5t-29 -69t-69 -29t-69.5 29t-29.5 69zM575 739q45 0 74 2t50.5 9.5t32.5 15.5t17.5 27t8.5 36t4 50q9 9 33.5 9t33.5 -9 q-4 -98 -4 -177q0 -74 4 -180q-9 -9 -33.5 -9t-33.5 9q-2 34 -5 51t-13.5 37.5t-29.5 29.5t-53.5 15.5t-85.5 6.5h-186v-453q0 -72 25.5 -100.5t89.5 -28.5h237q108 0 171 71.5t98 196.5q37 10 71 -10q-26 -170 -75 -342q-165 4 -263 4h-440q-114 0 -266 -4q-9 9 -9 33.5 t9 33.5q41 2 63.5 4t45.5 9.5t34 18.5t20 32.5t12 50t3 72.5v821q0 65 -6.5 100t-30 54.5t-52 24t-89.5 7.5q-9 9 -9 34t9 34q164 -4 264 -4h522q54 0 101 8q8 0 8 -6q3 -14 20.5 -126.5t24.5 -170.5q-32 -16 -68 -10q-13 42 -22 66t-23.5 53.5t-29.5 45.5t-37.5 31 t-51.5 21t-67 6h-154q-80 0 -107.5 -30t-27.5 -101v-369h186z" />
<glyph unicode="&#xcc;" horiz-adv-x="608" d="M203 1673l248 -172q30 -21 30 -43q0 -12 -9 -21.5t-21 -9.5q-29 0 -89 25l-315 129q61 59 156 92zM391 250q0 -44 3 -72.5t12 -50t20 -32.5t34 -18.5t45.5 -9.5t63.5 -4q9 -9 9 -33.5t-9 -33.5q-184 4 -264 4q-82 0 -266 -4q-9 9 -9 33.5t9 33.5q41 2 63.5 4t45.5 9.5 t34 18.5t20 32.5t12 50t3 72.5v821q0 65 -6.5 100t-30 54.5t-52 24t-89.5 7.5q-9 9 -9 34t9 34q192 -4 264 -4q86 0 266 4q9 -9 9 -34t-9 -34q-61 -3 -89.5 -7.5t-52 -24t-30 -54.5t-6.5 -100v-821z" />
<glyph unicode="&#xcd;" horiz-adv-x="608" d="M430 1677q88 -40 127 -106l-295 -119q-60 -25 -86 -25q-13 0 -22 9.5t-9 21.5q0 22 31 43zM391 250q0 -44 3 -72.5t12 -50t20 -32.5t34 -18.5t45.5 -9.5t63.5 -4q9 -9 9 -33.5t-9 -33.5q-184 4 -264 4q-82 0 -266 -4q-9 9 -9 33.5t9 33.5q41 2 63.5 4t45.5 9.5t34 18.5 t20 32.5t12 50t3 72.5v821q0 65 -6.5 100t-30 54.5t-52 24t-89.5 7.5q-9 9 -9 34t9 34q192 -4 264 -4q86 0 266 4q9 -9 9 -34t-9 -34q-61 -3 -89.5 -7.5t-52 -24t-30 -54.5t-6.5 -100v-821z" />
<glyph unicode="&#xce;" horiz-adv-x="608" d="M338 1655q90 -109 211 -199q-11 -34 -33 -43q-131 61 -217 125q-97 -70 -219 -125q-23 15 -29 43q86 64 207 199q37 22 80 0zM391 250q0 -44 3 -72.5t12 -50t20 -32.5t34 -18.5t45.5 -9.5t63.5 -4q9 -9 9 -33.5t-9 -33.5q-184 4 -264 4q-82 0 -266 -4q-9 9 -9 33.5 t9 33.5q41 2 63.5 4t45.5 9.5t34 18.5t20 32.5t12 50t3 72.5v821q0 65 -6.5 100t-30 54.5t-52 24t-89.5 7.5q-9 9 -9 34t9 34q192 -4 264 -4q86 0 266 4q9 -9 9 -34t-9 -34q-61 -3 -89.5 -7.5t-52 -24t-30 -54.5t-6.5 -100v-821z" />
<glyph unicode="&#xcf;" horiz-adv-x="608" d="M399 1550q0 40 29.5 69.5t69.5 29.5t69 -29.5t29 -69.5t-29 -69t-69 -29t-69.5 29t-29.5 69zM12 1550q0 40 29.5 69.5t69.5 29.5t69 -29.5t29 -69.5t-29 -69t-69 -29t-69.5 29t-29.5 69zM391 250q0 -44 3 -72.5t12 -50t20 -32.5t34 -18.5t45.5 -9.5t63.5 -4q9 -9 9 -33.5 t-9 -33.5q-184 4 -264 4q-82 0 -266 -4q-9 9 -9 33.5t9 33.5q41 2 63.5 4t45.5 9.5t34 18.5t20 32.5t12 50t3 72.5v821q0 65 -6.5 100t-30 54.5t-52 24t-89.5 7.5q-9 9 -9 34t9 34q192 -4 264 -4q86 0 266 4q9 -9 9 -34t-9 -34q-61 -3 -89.5 -7.5t-52 -24t-30 -54.5 t-6.5 -100v-821z" />
<glyph unicode="&#xd0;" horiz-adv-x="1435" d="M391 172q0 -38 13 -58t63 -34t147 -14q92 0 167.5 13.5t146 49t118.5 92.5t76.5 148.5t28.5 212.5q0 99 -18 191.5t-62 181.5t-109.5 154.5t-168 105.5t-230.5 40q-172 0 -172 -100v-487h199q12 0 18 -8.5t6 -18.5q0 -19 -12.5 -36t-30.5 -17h-180v-416zM303 1321 q32 0 144.5 2t193.5 2q145 0 276 -55.5t225.5 -148.5t150 -221t55.5 -269q0 -105 -22 -193.5t-60 -153t-91 -115t-111.5 -82.5t-126.5 -53t-131 -29.5t-128 -8.5q-122 0 -237 2t-136 2q-106 0 -266 -4q-9 9 -9 33.5t9 33.5q41 2 63.5 4t45.5 9.5t34 18.5t20 32.5t12 50 t3 72.5v338h-178q-11 0 -17 9t-6 19q0 16 13 34t26 18h162v403q0 65 -6.5 100t-30 54.5t-52 24t-89.5 7.5q-9 9 -9 34t9 34q164 -4 264 -4z" />
<glyph unicode="&#xd1;" horiz-adv-x="1431" d="M600 1634q35 0 69 -17t58 -37t58.5 -37t68.5 -17q35 0 55 21.5t41 84.5q34 3 56 -12q-19 -95 -64.5 -149t-114.5 -54q-13 0 -26 3.5t-28 12t-24.5 14.5t-27.5 18.5t-25 17.5q-63 39 -110 39q-38 0 -58 -22.5t-36 -76.5q-38 -7 -56 11q23 97 62 148.5t102 51.5zM1139 1049 q0 36 -1.5 62t-6.5 47t-10 35t-17.5 24.5t-23 16.5t-32 11t-38.5 7t-49 5q-9 9 -9 34t9 34q180 -4 227 -4q61 0 229 4q9 -9 9 -34t-9 -34q-41 -4 -63.5 -7.5t-46 -12t-34 -21t-20 -35.5t-12 -54t-2.5 -78v-1006q0 -14 -3.5 -26t-9.5 -20t-14.5 -12.5t-19.5 -4.5 q-46 0 -82 49l-715 903q-52 67 -69 67q-6 0 -9.5 -5t-5 -19.5t-2 -30t-0.5 -45.5v-627q0 -36 1.5 -62t6.5 -47t10 -35t17.5 -25t23 -17t31.5 -10.5t38.5 -7t49.5 -5.5q9 -9 9 -33.5t-9 -33.5q-172 4 -227 4q-53 0 -229 -4q-9 9 -9 33.5t9 33.5q41 4 63.5 7.5t46 12.5 t34 21.5t20 35.5t12 54t2.5 78v854q-5 20 -18.5 42t-34 41t-49 32.5t-60.5 15.5q-9 9 -9 34t9 34l277 -4l702 -891q88 -113 98 -113t12.5 14t2.5 48v670z" />
<glyph unicode="&#xd2;" d="M623 1677l247 -172q31 -22 31 -43q0 -12 -9.5 -21t-21.5 -9q-31 0 -88 24l-315 129q61 59 156 92zM678 1274q-63 0 -120.5 -21t-110 -68t-91 -116t-61.5 -171.5t-23 -227.5q0 -143 40.5 -261.5t108.5 -195t155 -118.5t182 -42q179 0 294 156.5t115 425.5 q0 151 -38.5 273.5t-105 201.5t-155 121.5t-190.5 42.5zM1364 674q0 -151 -46.5 -279.5t-130 -220t-205 -143t-265.5 -51.5q-130 0 -247 46.5t-204.5 129.5t-138.5 207.5t-51 271.5q0 149 43 279t122 226.5t199 152t265 55.5q185 0 333.5 -79t237 -234t88.5 -361z" />
<glyph unicode="&#xd3;" d="M793 1679q88 -40 127 -106l-295 -119q-57 -24 -86 -24q-13 0 -22 9t-9 21q0 22 31 43zM678 1274q-63 0 -120.5 -21t-110 -68t-91 -116t-61.5 -171.5t-23 -227.5q0 -143 40.5 -261.5t108.5 -195t155 -118.5t182 -42q179 0 294 156.5t115 425.5q0 151 -38.5 273.5 t-105 201.5t-155 121.5t-190.5 42.5zM1364 674q0 -151 -46.5 -279.5t-130 -220t-205 -143t-265.5 -51.5q-130 0 -247 46.5t-204.5 129.5t-138.5 207.5t-51 271.5q0 149 43 279t122 226.5t199 152t265 55.5q185 0 333.5 -79t237 -234t88.5 -361z" />
<glyph unicode="&#xd4;" d="M750 1655q90 -109 211 -199q-11 -34 -33 -43q-131 61 -217 125q-97 -70 -219 -125q-23 15 -29 43q86 64 207 199q37 22 80 0zM678 1274q-63 0 -120.5 -21t-110 -68t-91 -116t-61.5 -171.5t-23 -227.5q0 -143 40.5 -261.5t108.5 -195t155 -118.5t182 -42q179 0 294 156.5 t115 425.5q0 151 -38.5 273.5t-105 201.5t-155 121.5t-190.5 42.5zM1364 674q0 -151 -46.5 -279.5t-130 -220t-205 -143t-265.5 -51.5q-130 0 -247 46.5t-204.5 129.5t-138.5 207.5t-51 271.5q0 149 43 279t122 226.5t199 152t265 55.5q185 0 333.5 -79t237 -234t88.5 -361z " />
<glyph unicode="&#xd5;" d="M586 1634q35 0 69 -17t58 -37t58 -37t69 -17t55 21.5t41 84.5q33 3 55 -12q-19 -95 -64 -149t-114 -54q-13 0 -26 3.5t-28 12t-24.5 14.5t-27.5 18.5t-25 17.5q-63 39 -111 39q-38 0 -58 -22.5t-36 -76.5q-37 -7 -55 11q23 97 62 148.5t102 51.5zM678 1274 q-63 0 -120.5 -21t-110 -68t-91 -116t-61.5 -171.5t-23 -227.5q0 -143 40.5 -261.5t108.5 -195t155 -118.5t182 -42q179 0 294 156.5t115 425.5q0 151 -38.5 273.5t-105 201.5t-155 121.5t-190.5 42.5zM1364 674q0 -151 -46.5 -279.5t-130 -220t-205 -143t-265.5 -51.5 q-130 0 -247 46.5t-204.5 129.5t-138.5 207.5t-51 271.5q0 149 43 279t122 226.5t199 152t265 55.5q185 0 333.5 -79t237 -234t88.5 -361z" />
<glyph unicode="&#xd6;" d="M199 1446q0 40 29 69t69 29t69 -29t29 -69t-29 -69t-69 -29t-69 29t-29 69zM1036 1446q0 40 29.5 69t69.5 29t69 -29t29 -69t-29 -69t-69 -29t-69.5 29t-29.5 69zM678 1274q-63 0 -120.5 -21t-110 -68t-91 -116t-61.5 -171.5t-23 -227.5q0 -143 40.5 -261.5t108.5 -195 t155 -118.5t182 -42q179 0 294 156.5t115 425.5q0 151 -38.5 273.5t-105 201.5t-155 121.5t-190.5 42.5zM1364 674q0 -151 -46.5 -279.5t-130 -220t-205 -143t-265.5 -51.5q-130 0 -247 46.5t-204.5 129.5t-138.5 207.5t-51 271.5q0 149 43 279t122 226.5t199 152t265 55.5 q185 0 333.5 -79t237 -234t88.5 -361z" />
<glyph unicode="&#xd7;" horiz-adv-x="1126" d="M631 594l252 -250l-72 -72l-250 250l-250 -250l-73 72l251 250l-251 252l73 72l250 -252l250 252l72 -72z" />
<glyph unicode="&#xd8;" d="M1364 674q0 -151 -46.5 -279.5t-130 -220t-205 -143t-265.5 -51.5q-221 0 -390 124l-106 -131q-28 0 -48.5 20.5t-25.5 45.5l106 130q-177 183 -177 466q0 149 43 279t122 226.5t199 152t265 55.5q235 0 404 -125l101 125q28 0 49 -19t25 -43l-102 -126 q182 -185 182 -486zM678 1274q-63 0 -120.5 -21t-110 -68t-91 -116t-61.5 -171.5t-23 -227.5q0 -214 88 -369l661 813q-66 78 -154 119t-189 41zM1077 1031l-658 -814q67 -79 155.5 -121.5t183.5 -42.5q179 0 294 156.5t115 425.5q0 235 -90 396z" />
<glyph unicode="&#xd9;" horiz-adv-x="1353" d="M565 1675l248 -172q31 -22 31 -43q0 -12 -9.5 -21t-21.5 -9q-31 0 -88 24l-315 129q62 60 155 92zM352 1071v-526q0 -63 2.5 -105.5t12 -98.5t32 -101.5t58.5 -79.5q102 -97 243 -97q72 0 129.5 16.5t96.5 43t67.5 67.5t44 82t25 95.5t12 99t2.5 100.5v504q0 37 -3 62 t-7 44.5t-16 32t-22.5 20.5t-35.5 13t-44.5 7.5t-59.5 6.5q-9 9 -9 34t9 34q188 -4 237 -4q53 0 209 4q9 -9 9 -34t-9 -34q-37 -4 -55 -7t-39.5 -11t-30.5 -19t-18 -31t-11.5 -48t-2.5 -70v-467q0 -116 -13.5 -206t-49 -170.5t-93.5 -133.5t-150 -83.5t-215 -30.5 q-70 0 -131.5 11t-127.5 44t-112.5 86t-77 144.5t-30.5 211.5v594q0 65 -6.5 100.5t-27.5 54t-46 23.5t-78 8q-9 9 -9 34t9 34q160 -4 244 -4q85 0 277 4q9 -9 9 -34t-9 -34q-45 -2 -69.5 -4t-49.5 -9t-35.5 -18t-20 -32.5t-12 -50t-2.5 -72.5z" />
<glyph unicode="&#xda;" horiz-adv-x="1353" d="M829 1677q88 -40 127 -106l-294 -119q-60 -25 -87 -25q-13 0 -21.5 9.5t-8.5 21.5q0 23 30 43zM352 1071v-526q0 -63 2.5 -105.5t12 -98.5t32 -101.5t58.5 -79.5q102 -97 243 -97q72 0 129.5 16.5t96.5 43t67.5 67.5t44 82t25 95.5t12 99t2.5 100.5v504q0 37 -3 62 t-7 44.5t-16 32t-22.5 20.5t-35.5 13t-44.5 7.5t-59.5 6.5q-9 9 -9 34t9 34q188 -4 237 -4q53 0 209 4q9 -9 9 -34t-9 -34q-37 -4 -55 -7t-39.5 -11t-30.5 -19t-18 -31t-11.5 -48t-2.5 -70v-467q0 -116 -13.5 -206t-49 -170.5t-93.5 -133.5t-150 -83.5t-215 -30.5 q-70 0 -131.5 11t-127.5 44t-112.5 86t-77 144.5t-30.5 211.5v594q0 65 -6.5 100.5t-27.5 54t-46 23.5t-78 8q-9 9 -9 34t9 34q160 -4 244 -4q85 0 277 4q9 -9 9 -34t-9 -34q-45 -2 -69.5 -4t-49.5 -9t-35.5 -18t-20 -32.5t-12 -50t-2.5 -72.5z" />
<glyph unicode="&#xdb;" horiz-adv-x="1353" d="M754 1655q90 -109 211 -199q-11 -34 -33 -43q-131 61 -217 125q-97 -70 -219 -125q-23 15 -29 43q86 64 207 199q37 22 80 0zM352 1071v-526q0 -63 2.5 -105.5t12 -98.5t32 -101.5t58.5 -79.5q102 -97 243 -97q72 0 129.5 16.5t96.5 43t67.5 67.5t44 82t25 95.5t12 99 t2.5 100.5v504q0 37 -3 62t-7 44.5t-16 32t-22.5 20.5t-35.5 13t-44.5 7.5t-59.5 6.5q-9 9 -9 34t9 34q188 -4 237 -4q53 0 209 4q9 -9 9 -34t-9 -34q-37 -4 -55 -7t-39.5 -11t-30.5 -19t-18 -31t-11.5 -48t-2.5 -70v-467q0 -116 -13.5 -206t-49 -170.5t-93.5 -133.5 t-150 -83.5t-215 -30.5q-70 0 -131.5 11t-127.5 44t-112.5 86t-77 144.5t-30.5 211.5v594q0 65 -6.5 100.5t-27.5 54t-46 23.5t-78 8q-9 9 -9 34t9 34q160 -4 244 -4q85 0 277 4q9 -9 9 -34t-9 -34q-45 -2 -69.5 -4t-49.5 -9t-35.5 -18t-20 -32.5t-12 -50t-2.5 -72.5z" />
<glyph unicode="&#xdc;" horiz-adv-x="1366" d="M662 -20q-61 0 -120.5 11.5t-126.5 45.5t-117 87.5t-83 146t-33 212.5v588q0 43 -2.5 72t-11 50t-18 32.5t-30 18.5t-40 9t-55.5 4q-9 9 -9 34t9 34q152 -4 245 -4q72 0 174 4q20 0 22 -32.5t-13 -35.5q-49 -8 -73 -50.5t-24 -135.5v-520q0 -48 0.5 -69t3 -64.5t9 -69.5 t18 -61.5t31 -65t45.5 -55.5q103 -103 244 -103q72 0 129 16.5t96 43t67.5 67.5t44 82t25 95.5t12 99t2.5 100.5v504q0 99 -21 137t-77 49q-23 17 -18.5 42.5t32.5 25.5q27 0 71 -2t67 -2q76 0 198 4q9 -9 9 -34t-9 -34q-53 -3 -77.5 -7.5t-44 -24t-24.5 -54t-5 -100.5v-467 q0 -116 -13.5 -206t-49 -171t-93.5 -133.5t-150 -83t-216 -30.5zM475 1448q0 40 28 68t68 28t68.5 -28t28.5 -68t-28.5 -68t-68.5 -28t-68 28t-28 68zM770 1448q0 40 28 68t68 28t68.5 -28t28.5 -68t-28.5 -68t-68.5 -28t-68 28t-28 68z" />
<glyph unicode="&#xdd;" horiz-adv-x="1177" d="M737 1679q88 -40 127 -106l-295 -119q-57 -24 -86 -24q-13 0 -21.5 9t-8.5 21q0 23 30 43zM690 250q0 -44 3 -72.5t13 -50t21.5 -32.5t37.5 -18.5t51.5 -9.5t72.5 -4q9 -9 9 -33.5t-9 -33.5q-204 4 -285 4q-87 0 -287 -4q-9 9 -9 33.5t9 33.5q47 2 72.5 4t51.5 9.5 t37.5 18.5t21.5 32.5t13 50t3 72.5v260q0 56 -8 84t-35 74l-269 452q-51 85 -87 108.5t-105 28.5q-9 9 -10 34t8 34q122 -4 209 -4q86 0 234 4q9 -9 9 -34t-9 -34q-85 -4 -98.5 -26t24.5 -87l238 -419q9 -17 16 -22.5t14 -1.5t15 20l226 428q16 31 19 51t-8.5 32t-32.5 17.5 t-57 7.5q-9 9 -9 34t9 34q132 -4 186 -4q56 0 170 4q9 -9 9 -34t-9 -34q-74 -7 -113.5 -32t-80.5 -99l-245 -442q-24 -42 -30 -73t-6 -83v-278z" />
<glyph unicode="&#xde;" horiz-adv-x="1079" d="M375 981v-596q30 -10 145 -10q47 0 87.5 8.5t80.5 31t68 58t45.5 94.5t17.5 135q0 71 -16 125.5t-41 87.5t-60.5 53.5t-70.5 28t-74 7.5q-31 0 -91 -7t-91 -16zM375 250q0 -44 3 -72.5t12 -50t20 -32.5t34 -18.5t45.5 -9.5t63.5 -4q9 -9 9 -33.5t-9 -33.5q-204 4 -264 4 q-66 0 -266 -4q-9 9 -9 33.5t9 33.5q41 2 63.5 4t45.5 9.5t34 18.5t20 32.5t12 50t3 72.5v821q0 65 -6.5 100t-30 54.5t-52 24t-89.5 7.5q-9 9 -9 34t9 34q204 -4 264 -4q66 0 266 4q9 -9 9 -34t-9 -34q-61 -3 -89.5 -7.5t-52 -24t-30 -54.5t-6.5 -100v-8q148 8 184 8 q109 0 192 -25t131 -62.5t78 -89.5t40 -97.5t10 -94.5t-14.5 -100.5t-50 -105t-88.5 -95t-137.5 -68t-189.5 -26.5q-96 0 -155 19v-76z" />
<glyph unicode="&#xdf;" horiz-adv-x="1107" d="M188 250v541q0 24 -24 24h-105q-10 10 1 39t30 29q59 0 78.5 17t19.5 77q0 97 28 176.5t72 129.5t101 84.5t111 48.5t106 14q147 0 229.5 -72t82.5 -156q0 -46 -15 -88.5t-35 -74t-60.5 -70.5t-69 -62t-83.5 -65v-4q64 -42 102.5 -69t95.5 -77.5t89.5 -95.5t57 -109.5 t24.5 -132.5q0 -162 -89.5 -268t-229.5 -106q-61 0 -105 17.5t-66.5 47.5t-32 62t-9.5 69q0 26 19.5 49t43.5 23q57 0 57 -62q0 -19 -8 -42.5t-8 -34.5q0 -22 9.5 -35.5t28.5 -18.5t33 -6.5t38 -1.5q53 0 99 72t46 200q0 250 -318 492v27q76 59 118.5 102.5t70 103.5 t27.5 132q0 86 -40.5 136t-119.5 50q-52 0 -91.5 -18t-65 -52.5t-42.5 -74.5t-25 -96t-11 -105t-3 -111v-655q0 -51 4 -84t9 -52.5t19.5 -29.5t27 -13.5t39.5 -7.5q9 -9 9 -33.5t-9 -33.5q-94 4 -179 4q-101 0 -223 -4q-9 9 -9 33.5t9 33.5q40 2 60.5 6t39 13.5t26 30.5 t11.5 52.5t4 84.5z" />
<glyph unicode="&#xe0;" horiz-adv-x="935" d="M401 1374l144 -258q12 -24 12 -49q0 -8 -9.5 -15.5t-21.5 -7.5q-15 0 -59 41l-234 224l5 22q63 47 133 47q14 0 30 -4zM600 477l-162 -43q-194 -50 -194 -225q0 -55 38.5 -100.5t108.5 -45.5q68 0 180 91q29 22 29 53v270zM270 745q0 -23 5.5 -41t5.5 -36 q0 -23 -28 -46.5t-69 -23.5q-71 0 -71 74q0 87 105.5 157t232.5 70q49 0 90 -7.5t83 -30.5t71 -60t47 -100.5t18 -147.5v-301q0 -44 1.5 -68.5t7 -52.5t18.5 -40.5t34 -12.5q38 0 76 33q30 -17 35 -56q-33 -32 -86 -53.5t-109 -21.5q-70 0 -98 30.5t-39 87.5h-4l-41 -32 q-64 -50 -114.5 -68t-108.5 -18q-258 0 -258 221q0 102 93 180.5t245 116.5l176 43q12 4 12 24q0 266 -166 266q-67 0 -115.5 -21t-48.5 -65z" />
<glyph unicode="&#xe1;" horiz-adv-x="935" d="M500 1374q12 4 28 4q64 0 113 -47l6 -22l-235 -224q-38 -38 -62 -38q-11 0 -19.5 8t-8.5 18q0 16 4 25.5t19 31.5zM600 477l-162 -43q-194 -50 -194 -225q0 -55 38.5 -100.5t108.5 -45.5q68 0 180 91q29 22 29 53v270zM270 745q0 -23 5.5 -41t5.5 -36q0 -23 -28 -46.5 t-69 -23.5q-71 0 -71 74q0 87 105.5 157t232.5 70q49 0 90 -7.5t83 -30.5t71 -60t47 -100.5t18 -147.5v-301q0 -44 1.5 -68.5t7 -52.5t18.5 -40.5t34 -12.5q38 0 76 33q30 -17 35 -56q-33 -32 -86 -53.5t-109 -21.5q-70 0 -98 30.5t-39 87.5h-4l-41 -32q-64 -50 -114.5 -68 t-108.5 -18q-258 0 -258 221q0 102 93 180.5t245 116.5l176 43q12 4 12 24q0 266 -166 266q-67 0 -115.5 -21t-48.5 -65z" />
<glyph unicode="&#xe2;" horiz-adv-x="935" d="M473 1352q77 -125 223 -287q-21 -30 -47 -35q-118 74 -211 170q-115 -115 -213 -170q-25 6 -45 35q157 174 228 287q35 8 65 0zM600 477l-162 -43q-194 -50 -194 -225q0 -55 38.5 -100.5t108.5 -45.5q68 0 180 91q29 22 29 53v270zM270 745q0 -23 5.5 -41t5.5 -36 q0 -23 -28 -46.5t-69 -23.5q-71 0 -71 74q0 87 105.5 157t232.5 70q49 0 90 -7.5t83 -30.5t71 -60t47 -100.5t18 -147.5v-301q0 -44 1.5 -68.5t7 -52.5t18.5 -40.5t34 -12.5q38 0 76 33q30 -17 35 -56q-33 -32 -86 -53.5t-109 -21.5q-70 0 -98 30.5t-39 87.5h-4l-41 -32 q-64 -50 -114.5 -68t-108.5 -18q-258 0 -258 221q0 102 93 180.5t245 116.5l176 43q12 4 12 24q0 266 -166 266q-67 0 -115.5 -21t-48.5 -65z" />
<glyph unicode="&#xe3;" horiz-adv-x="935" d="M326 1282q34 0 68.5 -17t58 -37t58 -37t69.5 -17t55 21.5t41 84.5q33 3 55 -12q-19 -95 -64 -149t-114 -54q-13 0 -26 3.5t-28.5 12t-24 13.5t-28 18.5t-24.5 17.5q-63 39 -111 39q-38 0 -58 -22.5t-36 -75.5q-38 -7 -55 10q23 97 62 149t102 52zM600 477l-162 -43 q-194 -50 -194 -225q0 -34 14.5 -66t49.5 -56t83 -24q68 0 180 91q29 22 29 53v270zM270 745q0 -23 5.5 -41t5.5 -36q0 -23 -28 -46.5t-69 -23.5q-71 0 -71 74q0 57 49 110t127.5 85t161.5 32q49 0 90 -7.5t83 -30.5t71 -60t47 -100.5t18 -147.5v-301q0 -29 0.5 -46t2 -40 t5.5 -36.5t10.5 -26.5t17.5 -19t25 -6q18 0 40.5 10.5t35.5 22.5q30 -17 35 -56q-33 -32 -86 -53.5t-109 -21.5q-37 0 -63 9t-40 27t-21.5 36.5t-12.5 45.5h-4l-41 -32q-64 -50 -114.5 -68t-108.5 -18q-56 0 -101 11t-81 36t-56 69t-20 105q0 102 93 180.5t245 116.5l176 43 q12 4 12 24q0 266 -166 266q-31 0 -59 -4.5t-52 -14.5t-38.5 -27t-14.5 -40z" />
<glyph unicode="&#xe4;" horiz-adv-x="935" d="M170 1178q0 40 28 69t68 29t68 -29t28 -69t-28 -68.5t-68 -28.5t-68 28.5t-28 68.5zM516 1178q0 40 28 69t68 29t68.5 -29t28.5 -69t-28.5 -68.5t-68.5 -28.5t-68 28.5t-28 68.5zM600 477l-162 -43q-194 -50 -194 -225q0 -55 38.5 -100.5t108.5 -45.5q68 0 180 91 q29 22 29 53v270zM270 745q0 -23 5.5 -41t5.5 -36q0 -23 -28 -46.5t-69 -23.5q-71 0 -71 74q0 87 105.5 157t232.5 70q49 0 90 -7.5t83 -30.5t71 -60t47 -100.5t18 -147.5v-301q0 -44 1.5 -68.5t7 -52.5t18.5 -40.5t34 -12.5q38 0 76 33q30 -17 35 -56q-33 -32 -86 -53.5 t-109 -21.5q-70 0 -98 30.5t-39 87.5h-4l-41 -32q-64 -50 -114.5 -68t-108.5 -18q-258 0 -258 221q0 102 93 180.5t245 116.5l176 43q12 4 12 24q0 266 -166 266q-67 0 -115.5 -21t-48.5 -65z" />
<glyph unicode="&#xe5;" horiz-adv-x="935" d="M430 1300q-46 0 -72 -30.5t-26 -77.5q0 -45 26.5 -77t71.5 -32t71.5 32t26.5 77q0 48 -26.5 78t-71.5 30zM250 1192q0 70 54.5 122t125.5 52t125.5 -51.5t54.5 -122.5q0 -69 -53.5 -121.5t-126.5 -52.5q-71 0 -125.5 52t-54.5 122zM600 477l-162 -43q-194 -50 -194 -225 q0 -55 38.5 -100.5t108.5 -45.5q68 0 180 91q29 22 29 53v270zM270 745q0 -23 5.5 -41t5.5 -36q0 -23 -28 -46.5t-69 -23.5q-71 0 -71 74q0 87 105.5 157t232.5 70q49 0 90 -7.5t83 -30.5t71 -60t47 -100.5t18 -147.5v-301q0 -44 1.5 -68.5t7 -52.5t18.5 -40.5t34 -12.5 q38 0 76 33q30 -17 35 -56q-33 -32 -86 -53.5t-109 -21.5q-70 0 -98 30.5t-39 87.5h-4l-41 -32q-64 -50 -114.5 -68t-108.5 -18q-258 0 -258 221q0 102 93 180.5t245 116.5l176 43q12 4 12 24q0 266 -166 266q-67 0 -115.5 -21t-48.5 -65z" />
<glyph unicode="&#xe6;" horiz-adv-x="1406" d="M252 743q0 -21 6 -40t6 -37q0 -27 -22 -47.5t-58 -20.5q-43 0 -62.5 27.5t-19.5 64.5q0 87 99.5 148t228.5 61q21 0 41.5 -1.5t57 -9.5t67 -22t63 -42.5t54.5 -67.5q51 69 127 106t164 37q82 0 148 -22t102 -55t54.5 -66t18.5 -62q0 -66 -22.5 -108.5t-83.5 -75 t-173 -47.5t-288 -17q0 -92 36 -176t99.5 -137t138.5 -53q140 0 244 123q22 -2 41 -33q-45 -85 -129.5 -137.5t-183.5 -52.5q-65 0 -118.5 13.5t-92 40t-56.5 43t-43 44.5q-14 12 -21.5 9t-27.5 -24q-123 -126 -274 -126q-131 0 -193 36q-100 56 -100 193q0 61 36.5 119.5 t92.5 91.5q124 73 401 92q-1 119 -16 178t-51 96q-21 22 -59 33.5t-74 11.5q-65 0 -111.5 -23t-46.5 -65zM610 440q-202 -16 -307 -92q-76 -55 -76 -129q0 -45 18 -79t57 -54t95 -20q50 0 115 52t88 113q10 49 10 209zM762 518q159 2 246.5 18.5t125 52t37.5 99.5 q0 52 -50 97.5t-120 45.5q-67 0 -119.5 -42.5t-82 -112t-37.5 -158.5z" />
<glyph unicode="&#xe7;" horiz-adv-x="876" d="M467 -197q-52 0 -92 -12l-13 12l75 178q-170 15 -265.5 135.5t-95.5 309.5q0 105 37 196t97 150.5t134.5 93t151.5 33.5q145 0 229 -54t84 -140q0 -43 -31.5 -67t-68.5 -24q-70 0 -78 74q-4 32 -10 53.5t-20.5 44t-43.5 34t-72 11.5q-103 0 -168 -97t-65 -263 q0 -176 79 -283.5t195 -107.5q141 0 246 135q32 -4 43 -29q-67 -110 -141.5 -156t-166.5 -50l-44 -117q24 6 53 6q63 0 104.5 -35t41.5 -92q0 -66 -63 -109t-157 -43q-46 0 -77 8t-74 27q0 33 20 53q77 -28 119 -28q47 0 76 21.5t29 60.5q0 71 -68 71z" />
<glyph unicode="&#xe8;" horiz-adv-x="915" d="M430 1374l143 -258q13 -26 13 -49q0 -8 -9.5 -15.5t-21.5 -7.5q-15 0 -59 41l-234 224l4 22q63 47 133 47q15 0 31 -4zM254 578l371 6q30 0 30 28q0 61 -15 105.5t-41 67t-54 32.5t-60 10q-20 0 -39.5 -3.5t-51 -18t-57 -39.5t-49 -74t-34.5 -114zM485 -20 q-196 0 -302.5 118.5t-106.5 315.5q0 90 25.5 169t67.5 135t95.5 97t110 60.5t110.5 19.5q346 0 346 -356q0 -35 -38 -35l-545 4q0 -173 65 -281q45 -74 104.5 -110.5t119.5 -36.5q86 0 140.5 24.5t113.5 85.5q34 -3 43 -32q-138 -178 -349 -178z" />
<glyph unicode="&#xe9;" horiz-adv-x="915" d="M553 1374q12 4 29 4q63 0 112 -47l6 -22l-235 -224q-38 -38 -62 -38q-11 0 -19.5 8t-8.5 18q0 16 4 25.5t19 31.5zM254 578l371 6q30 0 30 28q0 61 -15 105.5t-41 67t-54 32.5t-60 10q-20 0 -39.5 -3.5t-51 -18t-57 -39.5t-49 -74t-34.5 -114zM485 -20 q-196 0 -302.5 118.5t-106.5 315.5q0 90 25.5 169t67.5 135t95.5 97t110 60.5t110.5 19.5q346 0 346 -356q0 -35 -38 -35l-545 4q0 -173 65 -281q45 -74 104.5 -110.5t119.5 -36.5q86 0 140.5 24.5t113.5 85.5q34 -3 43 -32q-138 -178 -349 -178z" />
<glyph unicode="&#xea;" horiz-adv-x="915" d="M510 1352q77 -125 223 -287q-21 -30 -47 -35q-118 74 -211 170q-115 -115 -213 -170q-25 6 -45 35q154 171 227 287q36 8 66 0zM254 578l371 6q30 0 30 28q0 61 -15 105.5t-41 67t-54 32.5t-60 10q-20 0 -39.5 -3.5t-51 -18t-57 -39.5t-49 -74t-34.5 -114zM485 -20 q-196 0 -302.5 118.5t-106.5 315.5q0 90 25.5 169t67.5 135t95.5 97t110 60.5t110.5 19.5q346 0 346 -356q0 -35 -38 -35l-545 4q0 -173 65 -281q45 -74 104.5 -110.5t119.5 -36.5q86 0 140.5 24.5t113.5 85.5q34 -3 43 -32q-138 -178 -349 -178z" />
<glyph unicode="&#xeb;" horiz-adv-x="915" d="M203 1178q0 40 28 69t68 29t68 -29t28 -69t-28 -68.5t-68 -28.5t-68 28.5t-28 68.5zM549 1178q0 40 28 69t68 29t68 -29t28 -69t-28 -68.5t-68 -28.5t-68 28.5t-28 68.5zM254 578l371 6q30 0 30 28q0 61 -15 105.5t-41 67t-54 32.5t-60 10q-20 0 -39.5 -3.5t-51 -18 t-57 -39.5t-49 -74t-34.5 -114zM485 -20q-196 0 -302.5 118.5t-106.5 315.5q0 90 25.5 169t67.5 135t95.5 97t110 60.5t110.5 19.5q346 0 346 -356q0 -35 -38 -35l-545 4q0 -173 65 -281q45 -74 104.5 -110.5t119.5 -36.5q86 0 140.5 24.5t113.5 85.5q34 -3 43 -32 q-138 -178 -349 -178z" />
<glyph unicode="&#xec;" horiz-adv-x="555" d="M203 1374l143 -258q12 -24 12 -49q0 -8 -9 -15.5t-21 -7.5q-16 0 -60 41l-233 224l4 22q63 47 133 47q15 0 31 -4zM371 250q0 -44 1.5 -72t9 -50t15.5 -32.5t27.5 -18t38.5 -10t55 -4.5q9 -9 9 -33.5t-9 -33.5q-136 4 -227 4q-94 0 -230 -4q-9 9 -9 33.5t9 33.5 q37 3 55 5.5t38.5 10t28 18t15.5 32t9.5 49.5t1.5 72v399q0 46 -4.5 70t-21 39.5t-39 20.5t-68.5 9q-3 10 -5 29t1 29q194 25 280 59q27 0 27 -14q-8 -131 -8 -233v-408z" />
<glyph unicode="&#xed;" horiz-adv-x="555" d="M334 1374q12 4 28 4q64 0 113 -47l6 -22l-235 -224q-38 -38 -62 -38q-11 0 -19.5 8t-8.5 18q0 16 4 25.5t19 31.5zM371 250q0 -44 1.5 -72t9 -50t15.5 -32.5t27.5 -18t38.5 -10t55 -4.5q9 -9 9 -33.5t-9 -33.5q-136 4 -227 4q-94 0 -230 -4q-9 9 -9 33.5t9 33.5 q37 3 55 5.5t38.5 10t28 18t15.5 32t9.5 49.5t1.5 72v399q0 46 -4.5 70t-21 39.5t-39 20.5t-68.5 9q-3 10 -5 29t1 29q194 25 280 59q27 0 27 -14q-8 -131 -8 -233v-408z" />
<glyph unicode="&#xee;" horiz-adv-x="555" d="M289 1352q77 -125 223 -287q-21 -30 -47 -35q-118 74 -211 170q-115 -115 -213 -170q-25 6 -45 35q154 171 227 287q36 8 66 0zM371 250q0 -44 1.5 -72t9 -50t15.5 -32.5t27.5 -18t38.5 -10t55 -4.5q9 -9 9 -33.5t-9 -33.5q-136 4 -227 4q-94 0 -230 -4q-9 9 -9 33.5 t9 33.5q37 3 55 5.5t38.5 10t28 18t15.5 32t9.5 49.5t1.5 72v399q0 46 -4.5 70t-21 39.5t-39 20.5t-68.5 9q-3 10 -5 29t1 29q194 25 280 59q27 0 27 -14q-8 -131 -8 -233v-408z" />
<glyph unicode="&#xef;" horiz-adv-x="555" d="M-8 1178q0 40 28 69t68 29t68 -29t28 -69t-28 -68.5t-68 -28.5t-68 28.5t-28 68.5zM338 1178q0 40 28 69t68 29t68 -29t28 -69t-28 -68.5t-68 -28.5t-68 28.5t-28 68.5zM371 250q0 -44 1.5 -72t9 -50t15.5 -32.5t27.5 -18t38.5 -10t55 -4.5q9 -9 9 -33.5t-9 -33.5 q-136 4 -227 4q-94 0 -230 -4q-9 9 -9 33.5t9 33.5q37 3 55 5.5t38.5 10t28 18t15.5 32t9.5 49.5t1.5 72v399q0 46 -4.5 70t-21 39.5t-39 20.5t-68.5 9q-3 10 -5 29t1 29q194 25 280 59q27 0 27 -14q-8 -131 -8 -233v-408z" />
<glyph unicode="&#xf0;" horiz-adv-x="995" d="M508 53q32 0 61.5 9.5t62 37.5t56.5 71t39.5 117t15.5 169q0 159 -32 272q-78 98 -207 98q-60 0 -106.5 -23.5t-74 -60t-46 -86.5t-25 -97.5t-6.5 -98.5q0 -174 76 -291t186 -117zM70 426q0 102 29.5 185t76 135t106 88t116 50.5t110.5 14.5q82 0 156 -29 q-63 153 -183 301l-223 -149l-45 65l215 146l-33 33q-62 65 -139 120l33 44q103 -56 217 -146l217 146l45 -66l-199 -133l37 -37q309 -309 309 -709q0 -125 -36.5 -224t-99 -159t-140.5 -91t-166 -31q-92 0 -169.5 39.5t-127.5 103.5t-78 143t-28 160z" />
<glyph unicode="&#xf1;" horiz-adv-x="1110" d="M455 1282q34 0 68.5 -17t58 -37t58 -37t69.5 -17t55 21.5t41 84.5q33 3 55 -12q-19 -95 -64 -149t-114 -54q-13 0 -26 3.5t-28.5 12t-24 13.5t-28 18.5t-24.5 17.5q-63 39 -111 39q-38 0 -58 -22.5t-36 -75.5q-38 -7 -55 10q23 97 62 149t102 52zM377 733q44 50 89 84 t88 51.5t80.5 24t78.5 6.5q54 0 99 -18.5t71 -51.5q32 -44 43.5 -110.5t11.5 -163.5v-305q0 -29 1 -50.5t3 -39.5t6.5 -31t8.5 -23t13.5 -16.5t17.5 -11t23.5 -7.5t28.5 -4.5t35 -3.5q7 -9 7 -33.5t-7 -33.5q-122 4 -217 4q-87 0 -209 -4q-8 9 -8 33.5t8 33.5q31 3 47 5.5 t33 10t24 18.5t13.5 32t8 49t1.5 72v311q0 109 -24 158q-18 35 -48 54.5t-61 19.5q-60 0 -125.5 -32t-124.5 -89q-35 -39 -35 -86v-336q0 -33 1 -56t4 -42.5t6.5 -32t12 -22.5t16 -15t22.5 -9t28 -6t35 -4q9 -9 9 -33.5t-9 -33.5q-122 4 -204 4q-104 0 -226 -4q-9 9 -9 33.5 t9 33.5q35 3 53.5 5.5t38 10t27 18.5t15 32.5t9 49t1.5 71.5v399q0 31 -2 51t-8.5 35.5t-14.5 24t-25.5 14.5t-35 8.5t-48.5 5.5q-3 10 -5 29t1 29q67 9 116 19t76 18.5t60 21.5q18 0 25 -16q11 -23 16 -156q2 -13 8.5 -12t16.5 12z" />
<glyph unicode="&#xf2;" horiz-adv-x="1032" d="M459 1374l143 -258q12 -24 12 -49q0 -8 -9 -15.5t-21 -7.5q-16 0 -60 41l-233 224l4 22q63 47 133 47q15 0 31 -4zM948 438q0 -194 -117.5 -326t-316.5 -132q-84 0 -156 25.5t-121.5 69t-84.5 100.5t-51.5 119t-16.5 126q0 205 119 342t315 137q91 0 165 -27.5t122 -73 t81 -106.5t47.5 -124.5t14.5 -129.5zM487 827q-227 0 -227 -360q0 -65 15 -132.5t46 -133.5t89 -108t133 -42q40 0 77 15t73 48.5t57.5 100t21.5 158.5q0 219 -75.5 336.5t-209.5 117.5z" />
<glyph unicode="&#xf3;" horiz-adv-x="1032" d="M553 1374q12 4 29 4q63 0 112 -47l6 -22l-235 -224q-38 -38 -62 -38q-11 0 -19.5 8t-8.5 18q0 16 4 25.5t19 31.5zM948 438q0 -194 -117.5 -326t-316.5 -132q-84 0 -156 25.5t-121.5 69t-84.5 100.5t-51.5 119t-16.5 126q0 205 119 342t315 137q91 0 165 -27.5t122 -73 t81 -106.5t47.5 -124.5t14.5 -129.5zM487 827q-227 0 -227 -360q0 -65 15 -132.5t46 -133.5t89 -108t133 -42q40 0 77 15t73 48.5t57.5 100t21.5 158.5q0 219 -75.5 336.5t-209.5 117.5z" />
<glyph unicode="&#xf4;" horiz-adv-x="1032" d="M549 1352q77 -125 223 -287q-21 -30 -47 -35q-118 74 -211 170q-115 -115 -213 -170q-25 6 -45 35q154 171 227 287q36 8 66 0zM948 438q0 -194 -117.5 -326t-316.5 -132q-84 0 -156 25.5t-121.5 69t-84.5 100.5t-51.5 119t-16.5 126q0 205 119 342t315 137 q91 0 165 -27.5t122 -73t81 -106.5t47.5 -124.5t14.5 -129.5zM487 827q-227 0 -227 -360q0 -65 15 -132.5t46 -133.5t89 -108t133 -42q40 0 77 15t73 48.5t57.5 100t21.5 158.5q0 219 -75.5 336.5t-209.5 117.5z" />
<glyph unicode="&#xf5;" horiz-adv-x="1032" d="M369 1282q34 0 68.5 -17t58 -37t58 -37t69.5 -17t55 21.5t41 84.5q33 3 55 -12q-19 -95 -64 -149t-114 -54q-13 0 -26 3.5t-28.5 12t-24 13.5t-28 18.5t-24.5 17.5q-63 39 -111 39q-38 0 -58 -22.5t-36 -75.5q-38 -7 -55 10q23 97 62 149t102 52zM948 438 q0 -94 -29.5 -177t-84 -145.5t-137.5 -99t-183 -36.5q-84 0 -156 25.5t-121.5 69t-84.5 100.5t-51.5 119t-16.5 126q0 100 30.5 187.5t85.5 152t137.5 102t180.5 37.5q91 0 165 -27.5t122 -73t81 -106.5t47.5 -124.5t14.5 -129.5zM487 827q-227 0 -227 -360 q0 -51 8.5 -104.5t30 -110t52.5 -100.5t81 -72.5t111 -28.5q31 0 61 8.5t61 31t54 57.5t38 93t15 132q0 219 -75.5 336.5t-209.5 117.5z" />
<glyph unicode="&#xf6;" horiz-adv-x="1032" d="M248 1178q0 40 28 69t68 29t68 -29t28 -69t-28 -68.5t-68 -28.5t-68 28.5t-28 68.5zM594 1178q0 40 28 69t68 29t68 -29t28 -69t-28 -68.5t-68 -28.5t-68 28.5t-28 68.5zM948 438q0 -194 -117.5 -326t-316.5 -132q-84 0 -156 25.5t-121.5 69t-84.5 100.5t-51.5 119 t-16.5 126q0 205 119 342t315 137q91 0 165 -27.5t122 -73t81 -106.5t47.5 -124.5t14.5 -129.5zM487 827q-227 0 -227 -360q0 -65 15 -132.5t46 -133.5t89 -108t133 -42q40 0 77 15t73 48.5t57.5 100t21.5 158.5q0 219 -75.5 336.5t-209.5 117.5z" />
<glyph unicode="&#xf7;" horiz-adv-x="1126" d="M462 793q0 37 27 64t64 27t64 -27t27 -64t-27 -64t-64 -27t-64 27t-27 64zM462 244q0 38 27 64.5t64 26.5t64 -26.5t27 -64.5t-27 -64.5t-64 -26.5t-64 26.5t-27 64.5zM948 463h-794q-13 0 -22 10t-9 23q0 24 16.5 46.5t34.5 22.5h801q14 0 21.5 -10.5t7.5 -24.5 q0 -17 -18.5 -42t-37.5 -25z" />
<glyph unicode="&#xf8;" horiz-adv-x="1032" d="M84 420q0 205 119 342t315 137q144 0 247 -70l83 101q49 0 63 -47l-85 -105q62 -65 92 -155t30 -185q0 -194 -117.5 -326t-316.5 -132q-161 0 -271 89l-104 -126q-25 0 -41.5 15t-19.5 38l108 131q-102 125 -102 293zM487 827q-227 0 -227 -360q0 -106 36 -207l387 469 q-72 98 -196 98zM725 655l-392 -476q76 -128 210 -128q40 0 77 15t73 48.5t57.5 100t21.5 158.5q0 173 -47 282z" />
<glyph unicode="&#xf9;" horiz-adv-x="1087" d="M449 1374l143 -258q12 -24 12 -49q0 -8 -9.5 -15.5t-21.5 -7.5q-15 0 -59 41l-233 224l4 22q63 47 133 47q15 0 31 -4zM444 -20q-59 0 -105 15.5t-75.5 41.5t-48.5 62.5t-27 75.5t-8 83v393q0 97 -25.5 127.5t-101.5 36.5q-9 9 -9 34t9 34q140 -4 209 -4q52 0 72 4 q16 0 16 -13q-8 -150 -8 -211v-372q0 -64 16.5 -109t43.5 -65.5t52 -28.5t52 -8q40 0 95 25.5t110 72.5q21 18 26.5 33.5t5.5 46.5v395q0 99 -25 130t-102 36q-9 9 -9 34t9 34q140 -4 209 -4q52 0 72 4q16 0 16 -13q-8 -150 -8 -211v-393q0 -79 28 -110.5t122 -38.5 q9 -9 9 -28t-9 -28q-166 -19 -242 -81q-19 -7 -39 0q-17 68 -22 120q-2 10 -12 9.5t-19 -7.5q-149 -122 -277 -122z" />
<glyph unicode="&#xfa;" horiz-adv-x="1087" d="M608 1374q12 4 29 4q64 0 113 -47l6 -22l-236 -224q-38 -38 -61 -38q-11 0 -20 8t-9 18q0 16 4 25.5t19 31.5zM444 -20q-59 0 -105 15.5t-75.5 41.5t-48.5 62.5t-27 75.5t-8 83v393q0 97 -25.5 127.5t-101.5 36.5q-9 9 -9 34t9 34q140 -4 209 -4q52 0 72 4q16 0 16 -13 q-8 -150 -8 -211v-372q0 -64 16.5 -109t43.5 -65.5t52 -28.5t52 -8q40 0 95 25.5t110 72.5q21 18 26.5 33.5t5.5 46.5v395q0 99 -25 130t-102 36q-9 9 -9 34t9 34q140 -4 209 -4q52 0 72 4q16 0 16 -13q-8 -150 -8 -211v-393q0 -79 28 -110.5t122 -38.5q9 -9 9 -28t-9 -28 q-166 -19 -242 -81q-19 -7 -39 0q-17 68 -22 120q-2 10 -12 9.5t-19 -7.5q-149 -122 -277 -122z" />
<glyph unicode="&#xfb;" horiz-adv-x="1087" d="M539 1352q77 -125 223 -287q-21 -30 -47 -35q-118 74 -211 170q-115 -115 -213 -170q-25 6 -45 35q154 171 227 287q36 8 66 0zM444 -20q-59 0 -105 15.5t-75.5 41.5t-48.5 62.5t-27 75.5t-8 83v393q0 97 -25.5 127.5t-101.5 36.5q-9 9 -9 34t9 34q140 -4 209 -4 q52 0 72 4q16 0 16 -13q-8 -150 -8 -211v-372q0 -64 16.5 -109t43.5 -65.5t52 -28.5t52 -8q40 0 95 25.5t110 72.5q21 18 26.5 33.5t5.5 46.5v395q0 99 -25 130t-102 36q-9 9 -9 34t9 34q140 -4 209 -4q52 0 72 4q16 0 16 -13q-8 -150 -8 -211v-393q0 -79 28 -110.5 t122 -38.5q9 -9 9 -28t-9 -28q-166 -19 -242 -81q-19 -7 -39 0q-17 68 -22 120q-2 10 -12 9.5t-19 -7.5q-149 -122 -277 -122z" />
<glyph unicode="&#xfc;" horiz-adv-x="1087" d="M252 1178q0 40 28 69t68 29t68 -29t28 -69t-28 -68.5t-68 -28.5t-68 28.5t-28 68.5zM598 1178q0 40 28 69t68 29t68.5 -29t28.5 -69t-28.5 -68.5t-68.5 -28.5t-68 28.5t-28 68.5zM444 -20q-59 0 -105 15.5t-75.5 41.5t-48.5 62.5t-27 75.5t-8 83v393q0 97 -25.5 127.5 t-101.5 36.5q-9 9 -9 34t9 34q140 -4 209 -4q52 0 72 4q16 0 16 -13q-8 -150 -8 -211v-372q0 -64 16.5 -109t43.5 -65.5t52 -28.5t52 -8q40 0 95 25.5t110 72.5q21 18 26.5 33.5t5.5 46.5v395q0 99 -25 130t-102 36q-9 9 -9 34t9 34q140 -4 209 -4q52 0 72 4q16 0 16 -13 q-8 -150 -8 -211v-393q0 -79 28 -110.5t122 -38.5q9 -9 9 -28t-9 -28q-166 -19 -242 -81q-19 -7 -39 0q-17 68 -22 120q-2 10 -12 9.5t-19 -7.5q-149 -122 -277 -122z" />
<glyph unicode="&#xfd;" horiz-adv-x="1054" d="M645 1374q12 4 29 4q63 0 112 -47l7 -22l-236 -224q-38 -38 -61 -38q-11 0 -20 8t-9 18q0 16 4 25.5t19 31.5zM418 -328q-83 -147 -199 -147q-41 0 -68.5 22t-27.5 54q0 26 25 57t65 31q11 0 27.5 -3t31.5 -3q70 0 103 59q48 98 80 188q13 38 1.5 94t-30.5 99l-232 539 q-39 91 -68.5 118t-92.5 35q-9 9 -9 34t9 34q82 -4 166 -4q79 0 231 4q9 -9 9 -34t-9 -34q-34 -3 -54.5 -10t-30 -15.5t-8 -26.5t7 -34.5t18.5 -46.5l182 -426q25 -59 49 -2l203 469q8 18 9 32t-5.5 23.5t-16 16t-25 10.5t-29 6t-32.5 4q-9 9 -9 34t9 34q122 -4 187 -4 q63 0 145 4q9 -9 9 -34t-9 -34q-70 -9 -102.5 -36t-63.5 -95q-139 -298 -362 -836q-40 -98 -84 -176z" />
<glyph unicode="&#xfe;" horiz-adv-x="1028" d="M330 590v-389q0 -46 7 -64t28 -35q61 -53 143 -53q78 0 133 33t83 90t40 119t12 135q0 106 -22.5 187.5t-83.5 142.5q-49 49 -119 49q-28 0 -64 -14t-72 -39.5t-60.5 -68.5t-24.5 -93zM952 481q0 -137 -53 -250.5t-153 -182t-228 -68.5q-79 0 -145 26q-4 2 -12.5 6.5 t-11.5 5t-7.5 -1t-6 -10.5t-1.5 -26v-205q0 -45 2 -72.5t10 -49.5t17 -32.5t31.5 -18t44 -10t63.5 -4.5q9 -9 9 -33.5t-9 -33.5q-176 4 -248 4q-57 0 -229 -4q-9 9 -9 33.5t9 33.5q53 3 77 7.5t42.5 24.5t23 54.5t4.5 100.5v1370q0 35 -2 59.5t-4 43t-10 29.5t-13.5 18 t-21.5 10.5t-26.5 4.5t-34.5 2q-12 1 -19 1q-9 9 -12 28.5t0 32.5q61 4 154.5 22.5t131.5 33.5q27 0 27 -21q-8 -82 -8 -215v-391q0 -33 6 -35.5t29 21.5q108 110 235 110q97 0 177.5 -59.5t125.5 -155.5t45 -203z" />
<glyph unicode="&#xff;" horiz-adv-x="1054" d="M287 1178q0 40 28 69t68 29t68 -29t28 -69t-28 -68.5t-68 -28.5t-68 28.5t-28 68.5zM633 1178q0 40 28 69t68 29t68 -29t28 -69t-28 -68.5t-68 -28.5t-68 28.5t-28 68.5zM418 -328q-83 -147 -199 -147q-41 0 -68.5 22t-27.5 54q0 26 25 57t65 31q11 0 27.5 -3t31.5 -3 q70 0 103 59q48 98 80 188q13 38 1.5 94t-30.5 99l-232 539q-39 91 -68.5 118t-92.5 35q-9 9 -9 34t9 34q82 -4 166 -4q79 0 231 4q9 -9 9 -34t-9 -34q-34 -3 -54.5 -10t-30 -15.5t-8 -26.5t7 -34.5t18.5 -46.5l182 -426q25 -59 49 -2l203 469q8 18 9 32t-5.5 23.5t-16 16 t-25 10.5t-29 6t-32.5 4q-9 9 -9 34t9 34q122 -4 187 -4q63 0 145 4q9 -9 9 -34t-9 -34q-70 -9 -102.5 -36t-63.5 -95q-139 -298 -362 -836q-40 -98 -84 -176z" />
<glyph unicode="&#x100;" horiz-adv-x="1423" d="M946 1511h-459q-12 0 -19 12t-7 25q0 20 14.5 43t30.5 23h461q13 0 20.5 -11.5t7.5 -23.5q0 -21 -15 -44.5t-34 -23.5zM539 580h362l-192 557h-13l-209 -530q-6 -15 6 -21t46 -6zM317 162q-6 -15 -6.5 -28t4.5 -22.5t12.5 -16.5t20 -12t24 -8.5t28.5 -6t29.5 -3.5 t29.5 -2q9 -9 9 -33.5t-9 -33.5q-152 4 -262 4q-77 0 -183 -4q-9 9 -9 33.5t9 33.5q78 5 123.5 32t81.5 114l465 1098q42 0 113 41l422 -1172q10 -29 26 -49t31 -31.5t39.5 -18.5t40.5 -9t47 -5q9 -9 9 -33.5t-9 -33.5q-144 4 -234 4q-116 0 -268 -4q-9 9 -9 33.5t9 33.5 q31 2 46.5 3.5t41.5 5.5t33.5 9t23.5 14t11 21.5t-4 30.5l-119 347h-432q-36 0 -50 -7t-22 -28z" />
<glyph unicode="&#x101;" horiz-adv-x="935" d="M659 1061h-458q-12 0 -19.5 12.5t-7.5 24.5q0 20 14.5 42.5t30.5 22.5h461q13 0 21 -12t8 -23q0 -21 -15.5 -44t-34.5 -23zM600 477l-162 -43q-194 -50 -194 -225q0 -55 38.5 -100.5t108.5 -45.5q68 0 180 91q29 22 29 53v270zM270 745q0 -23 5.5 -41t5.5 -36 q0 -23 -28 -46.5t-69 -23.5q-71 0 -71 74q0 87 105.5 157t232.5 70q49 0 90 -7.5t83 -30.5t71 -60t47 -100.5t18 -147.5v-301q0 -44 1.5 -68.5t7 -52.5t18.5 -40.5t34 -12.5q38 0 76 33q30 -17 35 -56q-33 -32 -86 -53.5t-109 -21.5q-70 0 -98 30.5t-39 87.5h-4l-41 -32 q-64 -50 -114.5 -68t-108.5 -18q-258 0 -258 221q0 102 93 180.5t245 116.5l176 43q12 4 12 24q0 266 -166 266q-67 0 -115.5 -21t-48.5 -65z" />
<glyph unicode="&#x102;" horiz-adv-x="1423" d="M1012 1647q-9 -105 -91 -168.5t-188 -63.5q-115 0 -193 63.5t-85 168.5h57q12 -58 74 -91.5t147 -33.5q80 0 145.5 34t75.5 91h58zM539 580h362l-192 557h-13l-209 -530q-6 -15 6 -21t46 -6zM317 162q-6 -15 -6.5 -28t4.5 -22.5t12.5 -16.5t20 -12t24 -8.5t28.5 -6 t29.5 -3.5t29.5 -2q9 -9 9 -33.5t-9 -33.5q-152 4 -262 4q-77 0 -183 -4q-9 9 -9 33.5t9 33.5q78 5 123.5 32t81.5 114l465 1098q42 0 113 41l422 -1172q10 -29 26 -49t31 -31.5t39.5 -18.5t40.5 -9t47 -5q9 -9 9 -33.5t-9 -33.5q-144 4 -234 4q-116 0 -268 -4q-9 9 -9 33.5 t9 33.5q31 2 46.5 3.5t41.5 5.5t33.5 9t23.5 14t11 21.5t-4 30.5l-119 347h-432q-36 0 -50 -7t-22 -28z" />
<glyph unicode="&#x103;" horiz-adv-x="935" d="M201 1325q17 -82 77.5 -133t143.5 -51t144.5 49t76.5 135l55 -25q-18 -126 -99 -201t-177 -75q-108 0 -181.5 73t-95.5 203zM600 477l-162 -43q-194 -50 -194 -225q0 -55 38.5 -100.5t108.5 -45.5q68 0 180 91q29 22 29 53v270zM270 745q0 -23 5.5 -41t5.5 -36 q0 -23 -28 -46.5t-69 -23.5q-71 0 -71 74q0 87 105.5 157t232.5 70q49 0 90 -7.5t83 -30.5t71 -60t47 -100.5t18 -147.5v-301q0 -44 1.5 -68.5t7 -52.5t18.5 -40.5t34 -12.5q38 0 76 33q30 -17 35 -56q-33 -32 -86 -53.5t-109 -21.5q-70 0 -98 30.5t-39 87.5h-4l-41 -32 q-64 -50 -114.5 -68t-108.5 -18q-258 0 -258 221q0 102 93 180.5t245 116.5l176 43q12 4 12 24q0 266 -166 266q-67 0 -115.5 -21t-48.5 -65z" />
<glyph unicode="&#x104;" horiz-adv-x="1423" d="M1436 -276q-86 -134 -226 -134q-82 0 -131 36.5t-49 115.5q0 68 54 143.5t143 114.5h-58q-116 0 -268 -4q-9 9 -9 33.5t9 33.5q31 2 46.5 3.5t41.5 5.5t33.5 9t23.5 14t11 21.5t-4 30.5l-119 347h-432q-36 0 -50 -7t-22 -28l-113 -297q-6 -15 -6.5 -28t4.5 -22.5 t12.5 -16.5t20 -12t24 -8.5t28.5 -6t29.5 -3.5t29.5 -2q9 -9 9 -33.5t-9 -33.5q-152 4 -262 4q-77 0 -183 -4q-9 9 -9 33.5t9 33.5q78 5 123.5 32t81.5 114l465 1098q42 0 113 41l422 -1172q10 -29 26 -49t31 -31.5t39.5 -18.5t40.5 -9t47 -5q9 -9 9 -33.5t-9 -33.5 q-68 0 -126.5 -39t-89 -91.5t-30.5 -101.5q0 -43 24.5 -69.5t78.5 -26.5q28 0 53 11.5t40 24.5t44 42q26 0 39 -22zM539 580h362l-192 557h-13l-209 -530q-6 -15 6 -21t46 -6z" />
<glyph unicode="&#x105;" horiz-adv-x="935" d="M270 745q0 -23 5.5 -41t5.5 -36q0 -23 -28 -46.5t-69 -23.5q-71 0 -71 74q0 87 105.5 157t232.5 70q49 0 90 -7.5t83 -30.5t71 -60t47 -100.5t18 -147.5v-301q0 -44 1.5 -68.5t7 -52.5t18.5 -40.5t34 -12.5q38 0 76 33q30 -17 35 -56q-45 -44 -118 -65 q-79 -67 -114.5 -117.5t-35.5 -108.5q0 -96 102 -96q28 0 53 11.5t40 24.5t44 42q26 0 39 -22q-86 -134 -225 -134q-82 0 -131 36.5t-49 115.5q0 112 171 239q-54 7 -76 36t-32 81h-4l-41 -32q-64 -50 -114.5 -68t-108.5 -18q-258 0 -258 221q0 102 93 180.5t245 116.5 l176 43q12 4 12 24q0 266 -166 266q-67 0 -115.5 -21t-48.5 -65zM600 477l-162 -43q-194 -50 -194 -225q0 -55 38.5 -100.5t108.5 -45.5q68 0 180 91q29 22 29 53v270z" />
<glyph unicode="&#x106;" horiz-adv-x="1323" d="M803 1677q88 -40 127 -106l-295 -119q-60 -25 -86 -25q-13 0 -22 9.5t-9 21.5q0 22 31 43zM76 635q0 194 82 356.5t233.5 259.5t341.5 97q110 0 198 -21t151 -44.5t100 -27.5q32 -183 45 -317q-38 -20 -68 -10q-22 72 -53.5 129t-83 108t-130.5 79t-181 28 q-83 0 -168 -45.5t-159 -136.5q-57 -70 -89.5 -178t-32.5 -238q0 -151 58 -290t167 -230t242 -91q143 0 255 52.5t220 171.5q30 0 47 -31q-104 -136 -237 -206t-283 -70q-160 0 -287 52t-206 142.5t-120.5 207.5t-41.5 253z" />
<glyph unicode="&#x107;" horiz-adv-x="876" d="M520 1374q12 4 29 4q64 0 113 -47l6 -22l-236 -224q-38 -38 -61 -38q-11 0 -20 8t-9 18q0 16 4 25.5t19 31.5zM815 186q-49 -81 -105.5 -128t-109 -62.5t-119.5 -15.5q-190 0 -297.5 122t-107.5 324q0 105 37 196t97 150.5t134.5 93t151.5 33.5q145 0 229 -54t84 -140 q0 -43 -31.5 -67t-68.5 -24q-70 0 -78 74q-4 32 -10 53.5t-20.5 44t-43.5 34t-72 11.5q-103 0 -168 -97t-65 -263q0 -176 79 -283.5t195 -107.5q141 0 246 135q32 -4 43 -29z" />
<glyph unicode="&#x108;" horiz-adv-x="1323" d="M770 1657q90 -109 211 -199q-11 -34 -33 -43q-131 61 -217 125q-97 -70 -219 -125q-23 15 -29 43q86 64 207 199q37 22 80 0zM76 635q0 194 82 356.5t233.5 259.5t341.5 97q110 0 198 -21t151 -44.5t100 -27.5q32 -183 45 -317q-38 -20 -68 -10q-22 72 -53.5 129t-83 108 t-130.5 79t-181 28q-83 0 -168 -45.5t-159 -136.5q-57 -70 -89.5 -178t-32.5 -238q0 -151 58 -290t167 -230t242 -91q143 0 255 52.5t220 171.5q30 0 47 -31q-104 -136 -237 -206t-283 -70q-160 0 -287 52t-206 142.5t-120.5 207.5t-41.5 253z" />
<glyph unicode="&#x109;" horiz-adv-x="876" d="M489 1352q75 -122 224 -287q-21 -30 -47 -35q-118 74 -211 170q-115 -115 -213 -170q-25 6 -45 35q154 171 227 287q35 8 65 0zM815 186q-49 -81 -105.5 -128t-109 -62.5t-119.5 -15.5q-190 0 -297.5 122t-107.5 324q0 105 37 196t97 150.5t134.5 93t151.5 33.5 q145 0 229 -54t84 -140q0 -43 -31.5 -67t-68.5 -24q-70 0 -78 74q-4 32 -10 53.5t-20.5 44t-43.5 34t-72 11.5q-103 0 -168 -97t-65 -263q0 -176 79 -283.5t195 -107.5q141 0 246 135q32 -4 43 -29z" />
<glyph unicode="&#x10a;" horiz-adv-x="1323" d="M623 1542q0 43 31.5 75t74.5 32t75 -32t32 -75t-32 -74.5t-75 -31.5t-74.5 31.5t-31.5 74.5zM76 635q0 194 82 356.5t233.5 259.5t341.5 97q110 0 198 -21t151 -44.5t100 -27.5q32 -183 45 -317q-38 -20 -68 -10q-22 72 -53.5 129t-83 108t-130.5 79t-181 28 q-83 0 -168 -45.5t-159 -136.5q-57 -70 -89.5 -178t-32.5 -238q0 -151 58 -290t167 -230t242 -91q143 0 255 52.5t220 171.5q30 0 47 -31q-104 -136 -237 -206t-283 -70q-160 0 -287 52t-206 142.5t-120.5 207.5t-41.5 253z" />
<glyph unicode="&#x10b;" horiz-adv-x="876" d="M367 1229q0 36 34.5 67t71.5 31q40 0 69 -33.5t29 -72.5q0 -34 -32.5 -66.5t-73.5 -32.5q-37 0 -67.5 33.5t-30.5 73.5zM815 186q-49 -81 -105.5 -128t-109 -62.5t-119.5 -15.5q-190 0 -297.5 122t-107.5 324q0 105 37 196t97 150.5t134.5 93t151.5 33.5q145 0 229 -54 t84 -140q0 -43 -31.5 -67t-68.5 -24q-70 0 -78 74q-4 32 -10 53.5t-20.5 44t-43.5 34t-72 11.5q-103 0 -168 -97t-65 -263q0 -176 79 -283.5t195 -107.5q141 0 246 135q32 -4 43 -29z" />
<glyph unicode="&#x10c;" horiz-adv-x="1323" d="M682 1427q-75 93 -207 195l33 41q121 -53 217 -125q118 82 219 125l31 -41q-103 -78 -205 -195h-88zM76 635q0 194 82 356.5t233.5 259.5t341.5 97q110 0 198 -21t151 -44.5t100 -27.5q32 -183 45 -317q-38 -20 -68 -10q-22 72 -53.5 129t-83 108t-130.5 79t-181 28 q-83 0 -168 -45.5t-159 -136.5q-57 -70 -89.5 -178t-32.5 -238q0 -151 58 -290t167 -230t242 -91q143 0 255 52.5t220 171.5q30 0 47 -31q-104 -136 -237 -206t-283 -70q-160 0 -287 52t-206 142.5t-120.5 207.5t-41.5 253z" />
<glyph unicode="&#x10d;" horiz-adv-x="876" d="M414 1028q-77 125 -207 266l41 27q142 -105 217 -184q80 82 221 184l39 -27q-139 -154 -209 -266h-102zM815 186q-49 -81 -105.5 -128t-109 -62.5t-119.5 -15.5q-190 0 -297.5 122t-107.5 324q0 105 37 196t97 150.5t134.5 93t151.5 33.5q145 0 229 -54t84 -140 q0 -43 -31.5 -67t-68.5 -24q-70 0 -78 74q-4 32 -10 53.5t-20.5 44t-43.5 34t-72 11.5q-103 0 -168 -97t-65 -263q0 -176 79 -283.5t195 -107.5q141 0 246 135q32 -4 43 -29z" />
<glyph unicode="&#x10e;" horiz-adv-x="1435" d="M596 1427q-75 93 -207 195l33 41q121 -53 217 -125q118 82 219 125l31 -41q-103 -78 -205 -195h-88zM391 172q0 -38 13 -58t63 -34t147 -14q92 0 167.5 13.5t146 49t118.5 92.5t76.5 148.5t28.5 212.5q0 99 -18 191.5t-62 181.5t-109.5 154.5t-168 105.5t-230.5 40 q-172 0 -172 -100v-983zM303 1321q32 0 144.5 2t193.5 2q145 0 276 -55.5t225.5 -148.5t150 -221t55.5 -269q0 -105 -22 -193.5t-60 -153t-91 -115t-111.5 -82.5t-126.5 -53t-131 -29.5t-128 -8.5q-122 0 -237 2t-136 2q-106 0 -266 -4q-9 9 -9 33.5t9 33.5q41 2 63.5 4 t45.5 9.5t34 18.5t20 32.5t12 50t3 72.5v821q0 65 -6.5 100t-30 54.5t-52 24t-89.5 7.5q-9 9 -9 34t9 34q164 -4 264 -4z" />
<glyph unicode="&#x10f;" horiz-adv-x="1081" d="M1030 1430q56 0 89.5 -45.5t33.5 -104.5q0 -67 -56 -136.5t-153 -80.5l-10 35q59 12 94 56t35 85q0 20 -8.5 31.5t-20.5 11.5q-94 0 -94 78q0 27 23.5 48.5t66.5 21.5zM707 254v389q0 46 -6.5 66t-28.5 45q-64 73 -166 73q-124 0 -191 -102q-59 -82 -59 -272 q0 -180 67 -278.5t158 -98.5q80 0 193 98q21 18 27 33.5t6 46.5zM684 103q-77 -64 -137 -93.5t-119 -29.5q-162 0 -255 121t-93 315q0 219 141 360q65 62 137.5 92.5t169.5 30.5q30 0 68 -8.5t64 -17.5t28 -9q19 0 19 19v262q0 41 -1.5 68t-8.5 46t-12.5 28.5t-22 15 t-28.5 7t-40 2.5q-12 1 -19 1q-9 9 -12 28.5t0 32.5q62 5 155.5 23t131.5 33q27 0 27 -21q-9 -82 -9 -215v-928q0 -79 28 -110.5t122 -38.5q9 -9 9 -28t-9 -28q-166 -19 -242 -81q-18 -8 -39 0q-17 70 -22 120q-1 10 -12 10t-19 -7z" />
<glyph unicode="&#x110;" horiz-adv-x="1435" d="M391 172q0 -38 13 -58t63 -34t147 -14q92 0 167.5 13.5t146 49t118.5 92.5t76.5 148.5t28.5 212.5q0 99 -18 191.5t-62 181.5t-109.5 154.5t-168 105.5t-230.5 40q-172 0 -172 -100v-485h250q13 -2 20 -9.5t7 -16.5q0 -16 -14.5 -34.5t-32.5 -21.5h-230v-416zM303 1321 q32 0 144.5 2t193.5 2q145 0 276 -55.5t225.5 -148.5t150 -221t55.5 -269q0 -105 -22 -193.5t-60 -153t-91 -115t-111.5 -82.5t-126.5 -53t-131 -29.5t-128 -8.5q-122 0 -237 2t-136 2q-106 0 -266 -4q-9 9 -9 33.5t9 33.5q41 2 63.5 4t45.5 9.5t34 18.5t20 32.5t12 50 t3 72.5v338h-162q-24 5 -24 27q0 16 12.5 33.5t30.5 21.5h143v401q0 65 -6.5 100t-30 54.5t-52 24t-89.5 7.5q-9 9 -9 34t9 34q164 -4 264 -4z" />
<glyph unicode="&#x111;" horiz-adv-x="1036" d="M707 254v389q0 46 -6.5 66t-28.5 45q-64 73 -166 73q-124 0 -191 -102q-59 -82 -59 -272q0 -180 67 -278.5t158 -98.5q80 0 193 98q21 18 27 33.5t6 46.5zM684 103q-77 -64 -137 -93.5t-119 -29.5q-162 0 -255 121t-93 315q0 219 141 360q65 62 137.5 92.5t169.5 30.5 q30 0 68 -8.5t64 -17.5t28 -9q19 0 19 19v209h-304q-24 5 -24 27q0 16 12.5 33.5t30.5 21.5h284q-1 40 -5.5 65t-10.5 39.5t-21.5 21t-29.5 8.5t-44 4q-13 1 -20 1q-9 9 -12 28.5t0 32.5q62 5 155.5 23t131.5 33q27 0 27 -21q-9 -82 -9 -215v-20h121q13 -2 20 -9.5t7 -16.5 q0 -16 -14.5 -34.5t-32.5 -21.5h-101v-826q0 -79 28 -110.5t122 -38.5q9 -9 9 -28t-9 -28q-166 -19 -242 -81q-18 -8 -39 0q-17 70 -22 120q-1 10 -12 10t-19 -7z" />
<glyph unicode="&#x112;" horiz-adv-x="1140" d="M768 1526h-459q-12 0 -19 12t-7 25q0 20 14.5 42.5t30.5 22.5h460q13 0 21 -12t8 -23q0 -21 -15 -44t-34 -23zM575 739q45 0 74 2t50.5 9.5t32.5 15.5t17.5 27t8.5 36t4 50q9 9 33.5 9t33.5 -9q-4 -98 -4 -177q0 -74 4 -180q-9 -9 -33.5 -9t-33.5 9q-2 34 -5 51 t-13.5 37.5t-29.5 29.5t-53.5 15.5t-85.5 6.5h-186v-453q0 -72 25.5 -100.5t89.5 -28.5h237q108 0 171 71.5t98 196.5q37 10 71 -10q-26 -170 -75 -342q-165 4 -263 4h-440q-114 0 -266 -4q-9 9 -9 33.5t9 33.5q41 2 63.5 4t45.5 9.5t34 18.5t20 32.5t12 50t3 72.5v821 q0 65 -6.5 100t-30 54.5t-52 24t-89.5 7.5q-9 9 -9 34t9 34q164 -4 264 -4h522q54 0 101 8q8 0 8 -6q3 -14 20.5 -126.5t24.5 -170.5q-32 -16 -68 -10q-13 42 -22 66t-23.5 53.5t-29.5 45.5t-37.5 31t-51.5 21t-67 6h-154q-80 0 -107.5 -30t-27.5 -101v-369h186z" />
<glyph unicode="&#x113;" horiz-adv-x="915" d="M690 1061h-459q-12 0 -19 12t-7 25q0 20 14.5 42.5t30.5 22.5h461q13 0 20.5 -11.5t7.5 -23.5q0 -21 -15 -44t-34 -23zM254 578l371 6q30 0 30 28q0 61 -15 105.5t-41 67t-54 32.5t-60 10q-20 0 -39.5 -3.5t-51 -18t-57 -39.5t-49 -74t-34.5 -114zM485 -20 q-196 0 -302.5 118.5t-106.5 315.5q0 90 25.5 169t67.5 135t95.5 97t110 60.5t110.5 19.5q346 0 346 -356q0 -35 -38 -35l-545 4q0 -173 65 -281q45 -74 104.5 -110.5t119.5 -36.5q86 0 140.5 24.5t113.5 85.5q34 -3 43 -32q-138 -178 -349 -178z" />
<glyph unicode="&#x114;" horiz-adv-x="1140" d="M852 1645q-9 -105 -91 -168.5t-188 -63.5q-115 0 -193 63.5t-85 168.5h57q12 -58 74 -91.5t147 -33.5q80 0 146 34t76 91h57zM575 739q45 0 74 2t50.5 9.5t32.5 15.5t17.5 27t8.5 36t4 50q9 9 33.5 9t33.5 -9q-4 -98 -4 -177q0 -74 4 -180q-9 -9 -33.5 -9t-33.5 9 q-2 34 -5 51t-13.5 37.5t-29.5 29.5t-53.5 15.5t-85.5 6.5h-186v-453q0 -72 25.5 -100.5t89.5 -28.5h237q108 0 171 71.5t98 196.5q37 10 71 -10q-26 -170 -75 -342q-165 4 -263 4h-440q-114 0 -266 -4q-9 9 -9 33.5t9 33.5q41 2 63.5 4t45.5 9.5t34 18.5t20 32.5t12 50 t3 72.5v821q0 65 -6.5 100t-30 54.5t-52 24t-89.5 7.5q-9 9 -9 34t9 34q164 -4 264 -4h522q54 0 101 8q8 0 8 -6q3 -14 20.5 -126.5t24.5 -170.5q-32 -16 -68 -10q-13 42 -22 66t-23.5 53.5t-29.5 45.5t-37.5 31t-51.5 21t-67 6h-154q-80 0 -107.5 -30t-27.5 -101v-369h186z " />
<glyph unicode="&#x115;" horiz-adv-x="915" d="M246 1327q17 -82 77.5 -133t143.5 -51t144.5 49t76.5 135l55 -24q-18 -126 -99 -201.5t-177 -75.5q-108 0 -181.5 73.5t-95.5 203.5zM254 578l371 6q30 0 30 28q0 61 -15 105.5t-41 67t-54 32.5t-60 10q-20 0 -39.5 -3.5t-51 -18t-57 -39.5t-49 -74t-34.5 -114zM485 -20 q-196 0 -302.5 118.5t-106.5 315.5q0 90 25.5 169t67.5 135t95.5 97t110 60.5t110.5 19.5q346 0 346 -356q0 -35 -38 -35l-545 4q0 -173 65 -281q45 -74 104.5 -110.5t119.5 -36.5q86 0 140.5 24.5t113.5 85.5q34 -3 43 -32q-138 -178 -349 -178z" />
<glyph unicode="&#x116;" horiz-adv-x="1140" d="M446 1542q0 43 32 75t75 32t74.5 -32t31.5 -75t-31.5 -74.5t-74.5 -31.5t-75 31.5t-32 74.5zM575 739q45 0 74 2t50.5 9.5t32.5 15.5t17.5 27t8.5 36t4 50q9 9 33.5 9t33.5 -9q-4 -98 -4 -177q0 -74 4 -180q-9 -9 -33.5 -9t-33.5 9q-2 34 -5 51t-13.5 37.5t-29.5 29.5 t-53.5 15.5t-85.5 6.5h-186v-453q0 -72 25.5 -100.5t89.5 -28.5h237q108 0 171 71.5t98 196.5q37 10 71 -10q-26 -170 -75 -342q-165 4 -263 4h-440q-114 0 -266 -4q-9 9 -9 33.5t9 33.5q41 2 63.5 4t45.5 9.5t34 18.5t20 32.5t12 50t3 72.5v821q0 65 -6.5 100t-30 54.5 t-52 24t-89.5 7.5q-9 9 -9 34t9 34q164 -4 264 -4h522q54 0 101 8q8 0 8 -6q3 -14 20.5 -126.5t24.5 -170.5q-32 -16 -68 -10q-13 42 -22 66t-23.5 53.5t-29.5 45.5t-37.5 31t-51.5 21t-67 6h-154q-80 0 -107.5 -30t-27.5 -101v-369h186z" />
<glyph unicode="&#x117;" horiz-adv-x="915" d="M369 1227q0 36 34.5 67t71.5 31q40 0 69 -33.5t29 -72.5q0 -34 -32.5 -66.5t-73.5 -32.5q-37 0 -67.5 33.5t-30.5 73.5zM254 578l371 6q30 0 30 28q0 61 -15 105.5t-41 67t-54 32.5t-60 10q-20 0 -39.5 -3.5t-51 -18t-57 -39.5t-49 -74t-34.5 -114zM485 -20 q-196 0 -302.5 118.5t-106.5 315.5q0 90 25.5 169t67.5 135t95.5 97t110 60.5t110.5 19.5q346 0 346 -356q0 -35 -38 -35l-545 4q0 -173 65 -281q45 -74 104.5 -110.5t119.5 -36.5q86 0 140.5 24.5t113.5 85.5q34 -3 43 -32q-138 -178 -349 -178z" />
<glyph unicode="&#x118;" horiz-adv-x="1140" d="M1020 -276q-86 -134 -225 -134q-82 0 -131.5 36.5t-49.5 115.5q0 68 54.5 143.5t142.5 114.5h-508q-114 0 -266 -4q-9 9 -9 33.5t9 33.5q41 2 63.5 4t45.5 9.5t34 18.5t20 32.5t12 50t3 72.5v821q0 65 -6.5 100t-30 54.5t-52 24t-89.5 7.5q-9 9 -9 34t9 34q164 -4 264 -4 h522q54 0 101 8q8 0 8 -6q3 -14 20.5 -126.5t24.5 -170.5q-32 -16 -68 -10q-13 42 -22 66t-23.5 53.5t-29.5 45.5t-37.5 31t-51.5 21t-67 6h-154q-80 0 -107.5 -30t-27.5 -101v-369h186q45 0 74 2t50.5 9.5t32.5 15.5t17.5 27t8.5 36t4 50q9 9 33.5 9t33.5 -9 q-4 -98 -4 -177q0 -74 4 -180q-9 -9 -33.5 -9t-33.5 9q-2 34 -5 51t-13.5 37.5t-29.5 29.5t-53.5 15.5t-85.5 6.5h-186v-453q0 -72 25.5 -100.5t89.5 -28.5h237q108 0 171 71.5t98 196.5q37 10 71 -10q-26 -170 -75 -342h-19q-68 0 -126.5 -39t-89 -91.5t-30.5 -101.5 q0 -43 24.5 -69.5t78.5 -26.5q28 0 53 11.5t40 24.5t44 42q26 0 39 -22z" />
<glyph unicode="&#x119;" horiz-adv-x="915" d="M485 -20q-196 0 -302.5 118.5t-106.5 315.5q0 90 25.5 169t67.5 135t95.5 97t110 60.5t110.5 19.5q346 0 346 -356q0 -35 -38 -35l-545 4q0 -173 65 -281q45 -74 104.5 -110.5t119.5 -36.5q86 0 140.5 24.5t113.5 85.5q34 -3 43 -32q-71 -92 -160 -136 q-106 -88 -147.5 -141.5t-41.5 -116.5q0 -43 24.5 -69.5t78.5 -26.5q28 0 53 11.5t40 24.5t44 42q26 0 39 -22q-86 -134 -225 -134q-82 0 -131.5 36.5t-49.5 115.5q0 111 173 240q-30 -2 -46 -2zM254 578l371 6q30 0 30 28q0 61 -15 105.5t-41 67t-54 32.5t-60 10 q-20 0 -39.5 -3.5t-51 -18t-57 -39.5t-49 -74t-34.5 -114z" />
<glyph unicode="&#x11a;" horiz-adv-x="1140" d="M549 1427q-75 93 -207 195l33 41q121 -53 217 -125q118 82 219 125l31 -41q-103 -78 -205 -195h-88zM575 739q45 0 74 2t50.5 9.5t32.5 15.5t17.5 27t8.5 36t4 50q9 9 33.5 9t33.5 -9q-4 -98 -4 -177q0 -74 4 -180q-9 -9 -33.5 -9t-33.5 9q-2 34 -5 51t-13.5 37.5 t-29.5 29.5t-53.5 15.5t-85.5 6.5h-186v-453q0 -72 25.5 -100.5t89.5 -28.5h237q108 0 171 71.5t98 196.5q37 10 71 -10q-26 -170 -75 -342q-165 4 -263 4h-440q-114 0 -266 -4q-9 9 -9 33.5t9 33.5q41 2 63.5 4t45.5 9.5t34 18.5t20 32.5t12 50t3 72.5v821q0 65 -6.5 100 t-30 54.5t-52 24t-89.5 7.5q-9 9 -9 34t9 34q164 -4 264 -4h522q54 0 101 8q8 0 8 -6q3 -14 20.5 -126.5t24.5 -170.5q-32 -16 -68 -10q-13 42 -22 66t-23.5 53.5t-29.5 45.5t-37.5 31t-51.5 21t-67 6h-154q-80 0 -107.5 -30t-27.5 -101v-369h186z" />
<glyph unicode="&#x11b;" horiz-adv-x="915" d="M408 1026q-77 125 -207 266l41 27q142 -105 217 -184q80 82 221 184l39 -27q-139 -154 -209 -266h-102zM254 578l371 6q30 0 30 28q0 61 -15 105.5t-41 67t-54 32.5t-60 10q-20 0 -39.5 -3.5t-51 -18t-57 -39.5t-49 -74t-34.5 -114zM485 -20q-196 0 -302.5 118.5 t-106.5 315.5q0 90 25.5 169t67.5 135t95.5 97t110 60.5t110.5 19.5q346 0 346 -356q0 -35 -38 -35l-545 4q0 -173 65 -281q45 -74 104.5 -110.5t119.5 -36.5q86 0 140.5 24.5t113.5 85.5q34 -3 43 -32q-138 -178 -349 -178z" />
<glyph unicode="&#x11c;" horiz-adv-x="1402" d="M784 1655q90 -109 211 -199q-11 -34 -32 -43q-134 62 -218 125q-97 -70 -219 -125q-22 14 -28 43q86 64 207 199q22 13 38.5 12.5t40.5 -12.5zM772 1348q100 0 177 -18.5t141.5 -43t107.5 -31.5q39 -172 47 -315q-31 -14 -67 -12q-18 60 -37 104.5t-53.5 92.5t-78.5 78.5 t-112 50.5t-154 20q-89 0 -174 -44.5t-151 -122.5t-106 -192.5t-40 -244.5q0 -82 20 -167.5t61.5 -166t99.5 -144t139.5 -101.5t175.5 -38q234 0 317 78v313q0 57 -35.5 74t-131.5 25q-9 9 -9 36.5t9 36.5q180 -4 253 -4q85 0 183 4q9 -9 9 -36.5t-9 -36.5q-48 -5 -71 -26.5 t-23 -72.5v-237q0 -32 32 -57q-199 -170 -571 -170q-191 0 -339 85.5t-227 232.5t-79 331q0 163 60.5 301.5t159.5 228t223 139.5t253 50z" />
<glyph unicode="&#x11d;" horiz-adv-x="1024" d="M504 1350q77 -125 223 -287q-21 -30 -47 -35q-118 74 -211 170q-115 -115 -213 -170q-25 6 -45 35q154 171 227 287q36 8 66 0zM653 571q0 128 -51 196.5t-147 68.5q-164 0 -164 -218q0 -46 3 -80t14.5 -73t31 -64t55.5 -42t86 -17q32 0 59.5 9.5t54.5 33t42.5 71 t15.5 115.5zM270 -20q-40 -49 -51.5 -90t-11.5 -103q0 -49 27.5 -89t68 -63t80.5 -35t70 -12q96 0 185.5 25t152.5 78t63 123q0 40 -22 66.5t-82 60.5q-40 22 -96 28t-152 6q-10 0 -62 -3t-88 -3q-40 0 -82 11zM379 86q26 0 101 7t98 7q218 0 299 -67q90 -75 90 -166 q0 -80 -51 -148t-133.5 -112.5t-184.5 -69t-207 -24.5q-63 0 -118 12t-103 37.5t-76 72.5t-28 111q0 68 43 134t124 114q-42 21 -68 63t-26 95q0 55 24.5 112.5t65.5 93.5q-51 49 -78.5 101.5t-27.5 128.5q0 91 49.5 163t129 110t171.5 38q124 0 213 -57q37 48 98 76t107 28 q41 0 67.5 -21.5t26.5 -54.5q0 -30 -23.5 -53.5t-52.5 -23.5q-16 0 -33.5 11.5t-23.5 24.5q-17 25 -41 25q-19 0 -45 -16.5t-37 -32.5q46 -48 67 -96t21 -117q0 -144 -101.5 -228.5t-244.5 -84.5q-113 0 -186 43q-37 -52 -37 -119q0 -60 39.5 -88.5t91.5 -28.5z" />
<glyph unicode="&#x11e;" horiz-adv-x="1402" d="M999 1651q-9 -105 -90.5 -168.5t-187.5 -63.5q-115 0 -193.5 63.5t-85.5 168.5h58q12 -58 74 -91.5t147 -33.5q80 0 145.5 34t75.5 91h57zM772 1348q100 0 177 -18.5t141.5 -43t107.5 -31.5q39 -172 47 -315q-31 -14 -67 -12q-18 60 -37 104.5t-53.5 92.5t-78.5 78.5 t-112 50.5t-154 20q-89 0 -174 -44.5t-151 -122.5t-106 -192.5t-40 -244.5q0 -82 20 -167.5t61.5 -166t99.5 -144t139.5 -101.5t175.5 -38q234 0 317 78v313q0 57 -35.5 74t-131.5 25q-9 9 -9 36.5t9 36.5q180 -4 253 -4q85 0 183 4q9 -9 9 -36.5t-9 -36.5q-48 -5 -71 -26.5 t-23 -72.5v-237q0 -32 32 -57q-199 -170 -571 -170q-191 0 -339 85.5t-227 232.5t-79 331q0 163 60.5 301.5t159.5 228t223 139.5t253 50z" />
<glyph unicode="&#x11f;" horiz-adv-x="1024" d="M229 1319q17 -82 78 -133t144 -51t144.5 49t76.5 135l55 -25q-18 -126 -99 -201t-177 -75q-108 0 -181.5 73t-95.5 203zM653 571q0 128 -51 196.5t-147 68.5q-164 0 -164 -218q0 -46 3 -80t14.5 -73t31 -64t55.5 -42t86 -17q32 0 59.5 9.5t54.5 33t42.5 71t15.5 115.5z M270 -20q-40 -49 -51.5 -90t-11.5 -103q0 -49 27.5 -89t68 -63t80.5 -35t70 -12q96 0 185.5 25t152.5 78t63 123q0 40 -22 66.5t-82 60.5q-40 22 -96 28t-152 6q-10 0 -62 -3t-88 -3q-40 0 -82 11zM379 86q26 0 101 7t98 7q218 0 299 -67q90 -75 90 -166q0 -80 -51 -148 t-133.5 -112.5t-184.5 -69t-207 -24.5q-63 0 -118 12t-103 37.5t-76 72.5t-28 111q0 68 43 134t124 114q-42 21 -68 63t-26 95q0 55 24.5 112.5t65.5 93.5q-51 49 -78.5 101.5t-27.5 128.5q0 91 49.5 163t129 110t171.5 38q124 0 213 -57q37 48 98 76t107 28 q41 0 67.5 -21.5t26.5 -54.5q0 -30 -23.5 -53.5t-52.5 -23.5q-16 0 -33.5 11.5t-23.5 24.5q-17 25 -41 25q-19 0 -45 -16.5t-37 -32.5q46 -48 67 -96t21 -117q0 -144 -101.5 -228.5t-244.5 -84.5q-113 0 -186 43q-37 -52 -37 -119q0 -60 39.5 -88.5t91.5 -28.5z" />
<glyph unicode="&#x120;" horiz-adv-x="1402" d="M623 1542q0 43 31.5 75t74.5 32t75 -32t32 -75t-32 -74.5t-75 -31.5t-74.5 31.5t-31.5 74.5zM772 1348q100 0 177 -18.5t141.5 -43t107.5 -31.5q39 -172 47 -315q-31 -14 -67 -12q-18 60 -37 104.5t-53.5 92.5t-78.5 78.5t-112 50.5t-154 20q-89 0 -174 -44.5 t-151 -122.5t-106 -192.5t-40 -244.5q0 -82 20 -167.5t61.5 -166t99.5 -144t139.5 -101.5t175.5 -38q234 0 317 78v313q0 57 -35.5 74t-131.5 25q-9 9 -9 36.5t9 36.5q180 -4 253 -4q85 0 183 4q9 -9 9 -36.5t-9 -36.5q-48 -5 -71 -26.5t-23 -72.5v-237q0 -32 32 -57 q-199 -170 -571 -170q-191 0 -339 85.5t-227 232.5t-79 331q0 163 60.5 301.5t159.5 228t223 139.5t253 50z" />
<glyph unicode="&#x121;" horiz-adv-x="1024" d="M369 1227q0 36 34.5 67t71.5 31q40 0 69 -33.5t29 -72.5q0 -34 -32.5 -66.5t-73.5 -32.5q-37 0 -67.5 33.5t-30.5 73.5zM653 571q0 128 -51 196.5t-147 68.5q-164 0 -164 -218q0 -46 3 -80t14.5 -73t31 -64t55.5 -42t86 -17q32 0 59.5 9.5t54.5 33t42.5 71t15.5 115.5z M270 -20q-40 -49 -51.5 -90t-11.5 -103q0 -49 27.5 -89t68 -63t80.5 -35t70 -12q96 0 185.5 25t152.5 78t63 123q0 40 -22 66.5t-82 60.5q-40 22 -96 28t-152 6q-10 0 -62 -3t-88 -3q-40 0 -82 11zM379 86q26 0 101 7t98 7q218 0 299 -67q90 -75 90 -166q0 -80 -51 -148 t-133.5 -112.5t-184.5 -69t-207 -24.5q-63 0 -118 12t-103 37.5t-76 72.5t-28 111q0 68 43 134t124 114q-42 21 -68 63t-26 95q0 55 24.5 112.5t65.5 93.5q-51 49 -78.5 101.5t-27.5 128.5q0 91 49.5 163t129 110t171.5 38q124 0 213 -57q37 48 98 76t107 28 q41 0 67.5 -21.5t26.5 -54.5q0 -30 -23.5 -53.5t-52.5 -23.5q-16 0 -33.5 11.5t-23.5 24.5q-17 25 -41 25q-19 0 -45 -16.5t-37 -32.5q46 -48 67 -96t21 -117q0 -144 -101.5 -228.5t-244.5 -84.5q-113 0 -186 43q-37 -52 -37 -119q0 -60 39.5 -88.5t91.5 -28.5z" />
<glyph unicode="&#x122;" horiz-adv-x="1402" d="M768 -84q58 0 92.5 -48t34.5 -128q0 -87 -60.5 -137.5t-156.5 -65.5q-16 16 -16 49q71 16 112 47.5t41 61.5q0 28 -15.5 39t-47.5 14q-86 15 -86 80q0 37 29 62.5t73 25.5zM772 1348q100 0 177 -18.5t141.5 -43t107.5 -31.5q39 -172 47 -315q-31 -14 -67 -12 q-18 60 -37 104.5t-53.5 92.5t-78.5 78.5t-112 50.5t-154 20q-89 0 -174 -44.5t-151 -122.5t-106 -192.5t-40 -244.5q0 -82 20 -167.5t61.5 -166t99.5 -144t139.5 -101.5t175.5 -38q234 0 317 78v313q0 57 -35.5 74t-131.5 25q-9 9 -9 36.5t9 36.5q180 -4 253 -4q85 0 183 4 q9 -9 9 -36.5t-9 -36.5q-48 -5 -71 -26.5t-23 -72.5v-237q0 -32 32 -57q-199 -170 -571 -170q-191 0 -339 85.5t-227 232.5t-79 331q0 163 60.5 301.5t159.5 228t223 139.5t253 50z" />
<glyph unicode="&#x123;" horiz-adv-x="1024" d="M467 1047q-57 0 -92 45t-35 104q0 46 16.5 85.5t45.5 67.5t68.5 46t86.5 24q10 -10 10 -41q-80 -17 -118.5 -56.5t-38.5 -80.5q0 -12 1 -18t6 -8.5t9.5 -2.5t18 1t24.5 1q55 0 78.5 -25.5t23.5 -58.5q0 -29 -27.5 -56t-76.5 -27zM653 571q0 128 -51 196.5t-147 68.5 q-164 0 -164 -218q0 -46 3 -80t14.5 -73t31 -64t55.5 -42t86 -17q21 0 39.5 4t38.5 13t36.5 26.5t29.5 41.5t20.5 61t7.5 83zM270 -20q-40 -49 -51.5 -90t-11.5 -103q0 -33 13 -62.5t34.5 -51t47.5 -38t54 -27t53 -15.5t44 -5q71 0 141 15t128.5 42.5t95 71.5t36.5 97 q0 40 -22 66.5t-82 60.5q-40 22 -96 28t-152 6q-10 0 -62 -3t-88 -3q-40 0 -82 11zM379 86q26 0 101 7t98 7q41 0 70 -1.5t75.5 -7t86 -20.5t67.5 -38q90 -75 90 -166q0 -80 -51 -148t-133.5 -112.5t-184.5 -69t-207 -24.5q-50 0 -95 7t-87.5 24t-73.5 43t-50 66.5t-19 92.5 q0 68 43 134t124 114q-42 21 -68 63t-26 95q0 35 10.5 73t31 73.5t48.5 59.5q-51 49 -78.5 101.5t-27.5 128.5q0 91 49.5 163t129 110t171.5 38q124 0 213 -57q37 48 98 76t107 28q41 0 67.5 -21.5t26.5 -54.5q0 -31 -23.5 -54t-52.5 -23q-16 0 -33.5 11.5t-23.5 24.5 q-17 25 -41 25q-19 0 -45 -16.5t-37 -32.5q46 -48 67 -96t21 -117q0 -73 -28.5 -133.5t-77 -99t-110.5 -59.5t-130 -21q-113 0 -186 43q-37 -52 -37 -119q0 -31 12 -55t31.5 -37t41.5 -19t46 -6z" />
<glyph unicode="&#x124;" horiz-adv-x="1495" d="M1266 250q0 -44 3 -72.5t12 -50t20 -32.5t34 -18.5t45.5 -9.5t63.5 -4q9 -9 9 -33.5t-9 -33.5q-180 4 -264 4q-83 0 -267 -4q-9 9 -9 33.5t9 33.5q41 2 63.5 4t46 9.5t34 18.5t20 32t12.5 50t3 73v407h-701v-407q0 -44 3 -72.5t12 -50t20 -32.5t34 -18.5t45.5 -9.5 t63.5 -4q9 -9 9 -33.5t-9 -33.5q-180 4 -264 4q-86 0 -266 -4q-9 9 -9 33.5t9 33.5q41 2 63.5 4t45.5 9.5t34 18.5t20 32.5t12 50t3 72.5v821q0 65 -6.5 100t-30 54.5t-52 24t-89.5 7.5q-9 9 -9 34t9 34q156 -4 264 -4q110 0 266 4q9 -9 9 -34t-9 -34q-61 -3 -89.5 -7.5 t-52 -24t-30 -54.5t-6.5 -100v-328h701v328q0 52 -5.5 84t-15.5 52.5t-34.5 30.5t-49.5 13.5t-74 5.5q-9 9 -9 34t9 34q180 -4 265 -4q98 0 266 4q9 -9 9 -34t-9 -34q-61 -3 -89.5 -7.5t-52 -24t-30 -54.5t-6.5 -100v-821zM791 1651q91 -111 210 -199q-11 -34 -32 -43 q-131 61 -217 125q-96 -69 -220 -125q-22 14 -28 43q86 64 207 199q37 22 80 0z" />
<glyph unicode="&#x125;" horiz-adv-x="1101" d="M695 1360q65 -124 201 -301q-18 -30 -47 -37q-108 80 -185 174q-99 -116 -188 -174q-27 6 -45 37q145 189 205 301q34 9 59 0zM342 586v-336q0 -45 1.5 -72.5t7.5 -49.5t12.5 -32.5t23 -18t32 -10t45.5 -4.5q9 -9 9 -33.5t-9 -33.5q-114 4 -202 4q-89 0 -225 -4 q-9 9 -9 33.5t9 33.5q34 2 52 4.5t37.5 10t27.5 18.5t15 32t9 49.5t2 72.5v895q0 35 -2 59.5t-4 43t-10 29.5t-13.5 18t-21.5 10.5t-26.5 4.5t-34.5 2q-12 1 -19 1q-9 9 -12 28.5t0 32.5q62 5 155.5 23t131.5 33q26 0 26 -21q-8 -82 -8 -215l-2 -461q0 -25 17 -4q1 1 1.5 2 t1.5 2q149 166 349 166q117 0 170 -70q33 -43 44 -109t11 -165v-305q0 -37 2 -62.5t5 -46t11 -32.5t16.5 -20.5t25.5 -13.5t33 -7.5t44 -4.5q7 -9 7 -33.5t-7 -33.5q-136 4 -217 4q-95 0 -209 -4q-7 9 -7 33.5t7 33.5q45 4 65.5 9.5t37 25t20.5 53.5t4 99v311q0 109 -24 158 q-18 35 -47.5 54.5t-61.5 19.5q-62 0 -133 -32.5t-129 -88.5q-35 -39 -35 -86z" />
<glyph unicode="&#x126;" horiz-adv-x="1495" d="M1266 250q0 -44 3 -72.5t12 -50t20 -32.5t34 -18.5t45.5 -9.5t63.5 -4q9 -9 9 -33.5t-9 -33.5q-180 4 -264 4q-83 0 -267 -4q-9 9 -9 33.5t9 33.5q41 2 63.5 4t46 9.5t34 18.5t20 32t12.5 50t3 73v407h-701v-407q0 -44 3 -72.5t12 -50t20 -32.5t34 -18.5t45.5 -9.5 t63.5 -4q9 -9 9 -33.5t-9 -33.5q-180 4 -264 4q-86 0 -266 -4q-9 9 -9 33.5t9 33.5q41 2 63.5 4t45.5 9.5t34 18.5t20 32.5t12 50t3 72.5v799h-133v69h132q-3 47 -11.5 73.5t-32.5 40.5t-50.5 18t-82.5 7q-9 9 -9 34t9 34q156 -4 264 -4q110 0 266 4q9 -9 9 -34t-9 -34 q-56 -3 -82.5 -7t-50.5 -18t-32.5 -40.5t-11.5 -73.5h698q-3 47 -11.5 73.5t-32.5 40.5t-50.5 18t-82.5 7q-9 9 -9 34t9 34q180 -4 265 -4q98 0 266 4q9 -9 9 -34t-9 -34q-56 -3 -82.5 -7t-50.5 -18t-32.5 -40.5t-11.5 -73.5h117v-69h-118v-799zM1092 1049h-701v-306h701 v306z" />
<glyph unicode="&#x127;" horiz-adv-x="1101" d="M342 586v-336q0 -45 1.5 -72.5t7.5 -49.5t12.5 -32.5t23 -18t32 -10t45.5 -4.5q9 -9 9 -33.5t-9 -33.5q-114 4 -202 4q-89 0 -225 -4q-9 9 -9 33.5t9 33.5q34 2 52 4.5t37.5 10t27.5 18.5t15 32t9 49.5t2 72.5v835h-127v80h127q0 36 -2 59.5t-9 40t-13 25t-21.5 13.5 t-28 6.5t-38.5 2.5q-12 1 -19 1q-9 9 -12 28.5t0 32.5q62 5 155.5 23t131.5 33q26 0 26 -21q-8 -82 -8 -215v-29h356v-80h-356l-2 -352q0 -25 17 -4q1 1 1.5 2t1.5 2q149 166 349 166q117 0 170 -70q33 -43 44 -109t11 -165v-305q0 -37 2 -62.5t5 -46t11 -32.5t16.5 -20.5 t25.5 -13.5t33 -7.5t44 -4.5q7 -9 7 -33.5t-7 -33.5q-136 4 -217 4q-95 0 -209 -4q-7 9 -7 33.5t7 33.5q45 4 65.5 9.5t37 25t20.5 53.5t4 99v311q0 109 -24 158q-18 35 -47.5 54.5t-61.5 19.5q-62 0 -133 -32.5t-129 -88.5q-35 -39 -35 -86z" />
<glyph unicode="&#x128;" horiz-adv-x="608" d="M182 1632q35 0 69 -17t58 -37t58.5 -37t68.5 -17q35 0 55 21.5t41 84.5q34 3 56 -12q-19 -95 -64 -149t-114 -54q-13 0 -26 3.5t-28 12t-24.5 14.5t-27.5 18.5t-25 17.5q-63 39 -111 39q-38 0 -58 -22.5t-36 -76.5q-38 -7 -56 11q23 97 62 148.5t102 51.5zM391 250 q0 -33 1.5 -57t6.5 -43t10.5 -32t17 -23t23 -15t31.5 -9t39 -5.5t49 -2.5q9 -9 9 -33.5t-9 -33.5q-184 4 -264 4q-82 0 -266 -4q-9 9 -9 33.5t9 33.5q27 1 44 2.5t36 4t30 7t23 11t18 16.5t12.5 23t9 31.5t4 40.5t1.5 51v821q0 44 -2.5 72.5t-12 49.5t-20 32.5t-34 18.5 t-46 9t-63.5 4q-9 9 -9 34t9 34q192 -4 264 -4q86 0 266 4q9 -9 9 -34t-9 -34q-41 -2 -63.5 -4t-46 -9t-34 -18.5t-20 -32.5t-12 -49.5t-2.5 -72.5v-821z" />
<glyph unicode="&#x129;" horiz-adv-x="555" d="M148 1282q31 0 61.5 -17t52 -37t52.5 -37t63 -17t50 21.5t37 84.5q29 3 49 -12q-17 -95 -57.5 -149t-102.5 -54q-12 0 -23.5 3.5t-25 11.5t-22 14t-25 19t-22.5 17q-56 39 -99 39q-35 0 -53 -22.5t-32 -75.5q-35 -7 -50 10q43 201 147 201zM371 250q0 -44 1.5 -72t9 -50 t15.5 -32.5t27.5 -18t38.5 -10t55 -4.5q9 -9 9 -33.5t-9 -33.5q-136 4 -227 4q-94 0 -230 -4q-9 9 -9 33.5t9 33.5q28 2 43 4t33 6t26.5 9t18.5 14.5t13.5 22t7.5 32t5 43t1 56.5v399q0 46 -4.5 70t-21 39.5t-39 20.5t-68.5 9q-3 10 -5 29t1 29q194 25 280 59q8 0 14 -2 t9.5 -5t3.5 -7q-8 -131 -8 -233v-408z" />
<glyph unicode="&#x12a;" horiz-adv-x="608" d="M522 1526h-459q-12 0 -19 12t-7 25q0 20 14.5 42.5t30.5 22.5h461q13 0 20.5 -11.5t7.5 -23.5q0 -21 -15 -44t-34 -23zM391 250q0 -44 3 -72.5t12 -50t20 -32.5t34 -18.5t45.5 -9.5t63.5 -4q9 -9 9 -33.5t-9 -33.5q-184 4 -264 4q-82 0 -266 -4q-9 9 -9 33.5t9 33.5 q41 2 63.5 4t45.5 9.5t34 18.5t20 32.5t12 50t3 72.5v821q0 65 -6.5 100t-30 54.5t-52 24t-89.5 7.5q-9 9 -9 34t9 34q192 -4 264 -4q86 0 266 4q9 -9 9 -34t-9 -34q-61 -3 -89.5 -7.5t-52 -24t-30 -54.5t-6.5 -100v-821z" />
<glyph unicode="&#x12b;" horiz-adv-x="555" d="M450 1061h-413q-11 0 -17 12t-6 25q0 20 13 42.5t27 22.5h415q12 0 19 -12t7 -23q0 -21 -14 -44t-31 -23zM371 250q0 -44 1.5 -72t9 -50t15.5 -32.5t27.5 -18t38.5 -10t55 -4.5q9 -9 9 -33.5t-9 -33.5q-136 4 -227 4q-94 0 -230 -4q-9 9 -9 33.5t9 33.5q37 3 55 5.5 t38.5 10t28 18t15.5 32t9.5 49.5t1.5 72v399q0 46 -4.5 70t-21 39.5t-39 20.5t-68.5 9q-3 10 -5 29t1 29q194 25 280 59q27 0 27 -14q-8 -131 -8 -233v-408z" />
<glyph unicode="&#x12c;" horiz-adv-x="608" d="M584 1649q-9 -105 -91 -168.5t-188 -63.5q-115 0 -193 63.5t-85 168.5h57q12 -58 74 -91.5t147 -33.5q80 0 145.5 34t75.5 91h58zM391 250q0 -44 3 -72.5t12 -50t20 -32.5t34 -18.5t45.5 -9.5t63.5 -4q9 -9 9 -33.5t-9 -33.5q-184 4 -264 4q-82 0 -266 -4q-9 9 -9 33.5 t9 33.5q41 2 63.5 4t45.5 9.5t34 18.5t20 32.5t12 50t3 72.5v821q0 65 -6.5 100t-30 54.5t-52 24t-89.5 7.5q-9 9 -9 34t9 34q192 -4 264 -4q86 0 266 4q9 -9 9 -34t-9 -34q-61 -3 -89.5 -7.5t-52 -24t-30 -54.5t-6.5 -100v-821z" />
<glyph unicode="&#x12d;" horiz-adv-x="555" d="M58 1331q15 -82 69.5 -133t129.5 -51t130.5 48.5t68.5 135.5l50 -24q-16 -126 -89 -201.5t-160 -75.5q-97 0 -163.5 73.5t-85.5 203.5zM371 250q0 -44 1.5 -72t9 -50t15.5 -32.5t27.5 -18t38.5 -10t55 -4.5q9 -9 9 -33.5t-9 -33.5q-136 4 -227 4q-94 0 -230 -4 q-9 9 -9 33.5t9 33.5q37 3 55 5.5t38.5 10t28 18t15.5 32t9.5 49.5t1.5 72v399q0 46 -4.5 70t-21 39.5t-39 20.5t-68.5 9q-3 10 -5 29t1 29q194 25 280 59q27 0 27 -14q-8 -131 -8 -233v-408z" />
<glyph unicode="&#x12e;" horiz-adv-x="608" d="M555 -276q-86 -134 -225 -134q-82 0 -131 36.5t-49 115.5q0 68 54 143.5t143 114.5h-42q-82 0 -266 -4q-9 9 -9 33.5t9 33.5q41 2 63.5 4t45.5 9.5t34 18.5t20 32.5t12 50t3 72.5v821q0 65 -6.5 100t-30 54.5t-52 24t-89.5 7.5q-9 9 -9 34t9 34q192 -4 264 -4q86 0 266 4 q9 -9 9 -34t-9 -34q-61 -3 -89.5 -7.5t-52 -24t-30 -54.5t-6.5 -100v-821q0 -44 3 -72.5t12 -50t20 -32.5t34 -18.5t45.5 -9.5t63.5 -4q9 -9 9 -33.5t-9 -33.5q-8 0 -24 0.5t-24 0.5l1 -1q-68 0 -126.5 -39t-89 -91.5t-30.5 -101.5q0 -43 24.5 -69.5t78.5 -26.5 q28 0 53 11.5t40 24.5t44 42q26 0 39 -22z" />
<glyph unicode="&#x12f;" horiz-adv-x="555" d="M530 -276q-86 -134 -225 -134q-82 0 -131 36.5t-49 115.5q0 68 54 143.5t143 114.5h-31q-94 0 -230 -4q-9 9 -9 33.5t9 33.5q37 3 55 5.5t38.5 10t28 18t15.5 32t9.5 49.5t1.5 72v399q0 46 -4.5 70t-21 39.5t-39 20.5t-68.5 9q-3 10 -5 29t1 29q194 25 280 59 q27 0 27 -14q-8 -131 -8 -233v-408q0 -44 1.5 -72t9 -50t15.5 -32.5t27.5 -18t38.5 -10t55 -4.5q9 -9 9 -33.5t-9 -33.5q-4 0 -11 0.5t-10 0.5l1 -1q-68 0 -126.5 -39t-89 -91.5t-30.5 -101.5q0 -96 102 -96q28 0 53 11.5t41 25t44 41.5q25 0 38 -22zM184 1227q0 36 35 67 t72 31q40 0 69 -33.5t29 -72.5q0 -34 -32.5 -66.5t-73.5 -32.5q-37 0 -68 33.5t-31 73.5z" />
<glyph unicode="&#x130;" horiz-adv-x="608" d="M199 1542q0 43 31.5 75t74.5 32t75 -32t32 -75t-32 -74.5t-75 -31.5t-74.5 31.5t-31.5 74.5zM391 250q0 -44 3 -72.5t12 -50t20 -32.5t34 -18.5t45.5 -9.5t63.5 -4q9 -9 9 -33.5t-9 -33.5q-184 4 -264 4q-82 0 -266 -4q-9 9 -9 33.5t9 33.5q41 2 63.5 4t45.5 9.5t34 18.5 t20 32.5t12 50t3 72.5v821q0 65 -6.5 100t-30 54.5t-52 24t-89.5 7.5q-9 9 -9 34t9 34q192 -4 264 -4q86 0 266 4q9 -9 9 -34t-9 -34q-61 -3 -89.5 -7.5t-52 -24t-30 -54.5t-6.5 -100v-821z" />
<glyph unicode="&#x131;" horiz-adv-x="555" d="M371 250q0 -44 1.5 -72t9 -50t15.5 -32.5t27.5 -18t38.5 -10t55 -4.5q9 -9 9 -33.5t-9 -33.5q-136 4 -227 4q-94 0 -230 -4q-9 9 -9 33.5t9 33.5q37 3 55 5.5t38.5 10t28 18t15.5 32t9.5 49.5t1.5 72v399q0 46 -4.5 70t-21 39.5t-39 20.5t-68.5 9q-3 10 -5 29t1 29 q194 25 280 59q27 0 27 -14q-8 -131 -8 -233v-408z" />
<glyph unicode="&#x132;" horiz-adv-x="1224" d="M1042 1071v-860q0 -84 -14 -155t-32.5 -116t-51 -88.5t-53.5 -64.5t-57 -51q-60 -52 -113.5 -70t-126.5 -18q-45 0 -99.5 30.5t-54.5 79.5q0 31 32.5 59.5t57.5 28.5q58 0 82 -52q25 -54 82 -54q23 0 44.5 8.5t46 36t42 72t29.5 124t12 185.5v905q0 44 -2.5 72.5t-13 50 t-21.5 32.5t-37 18t-51.5 9t-72.5 4q-9 9 -9 34t9 34q204 -4 284 -4q90 0 246 4q9 -9 9 -34t-9 -34q-53 -3 -78 -8t-46 -23.5t-27.5 -54t-6.5 -100.5zM391 250q0 -44 3 -72.5t12 -50t20 -32.5t34 -18.5t45.5 -9.5t63.5 -4q9 -9 9 -33.5t-9 -33.5q-184 4 -264 4 q-82 0 -266 -4q-9 9 -9 33.5t9 33.5q41 2 63.5 4t45.5 9.5t34 18.5t20 32.5t12 50t3 72.5v821q0 65 -6.5 100t-30 54.5t-52 24t-89.5 7.5q-9 9 -9 34t9 34q192 -4 264 -4q86 0 266 4q9 -9 9 -34t-9 -34q-61 -3 -89.5 -7.5t-52 -24t-30 -54.5t-6.5 -100v-821z" />
<glyph unicode="&#x133;" horiz-adv-x="1110" d="M756 1227q0 36 34.5 67t71.5 31q40 0 69.5 -34t29.5 -72q0 -34 -33 -66.5t-74 -32.5q-37 0 -67.5 33.5t-30.5 73.5zM784 649q0 46 -4.5 70t-21 39.5t-39 20.5t-68.5 9q-3 10 -5 29t1 29q197 25 281 59q26 0 26 -14q-8 -132 -8 -234v-432q0 -188 -19 -313.5t-51 -191.5 t-83 -107q-84 -70 -226 -70q-36 0 -74 24t-38 64q0 26 23 52t42 26q11 0 21.5 -3t17.5 -6t16 -10t12.5 -11t12 -12.5l10.5 -10.5q23 -23 64 -23q25 0 43.5 19t30.5 57.5t19.5 82.5t11 109.5t4.5 121t1 133.5v493zM184 1227q0 36 35 67t72 31q40 0 69 -33.5t29 -72.5 q0 -34 -32.5 -66.5t-73.5 -32.5q-37 0 -68 33.5t-31 73.5zM371 250q0 -44 1.5 -72t9 -50t15.5 -32.5t27.5 -18t38.5 -10t55 -4.5q9 -9 9 -33.5t-9 -33.5q-136 4 -227 4q-94 0 -230 -4q-9 9 -9 33.5t9 33.5q37 3 55 5.5t38.5 10t28 18t15.5 32t9.5 49.5t1.5 72v399 q0 46 -4.5 70t-21 39.5t-39 20.5t-68.5 9q-3 10 -5 29t1 29q194 25 280 59q27 0 27 -14q-8 -131 -8 -233v-408z" />
<glyph unicode="&#x134;" horiz-adv-x="659" d="M403 1655q90 -109 211 -199q-11 -34 -32 -43q-131 61 -217 125q-96 -69 -220 -125q-22 14 -28 43q86 64 207 199q22 13 38.5 12.5t40.5 -12.5zM463 1071v-860q0 -84 -14.5 -155t-32.5 -116t-51 -89t-54 -64t-57 -51q-60 -52 -113.5 -70t-126.5 -18q-45 0 -99 30.5 t-54 79.5q0 31 32.5 59.5t57.5 28.5q57 0 81 -52q11 -24 33 -39t50 -15q23 0 44.5 8.5t46 36t42 72t29.5 124t12 185.5v905q0 44 -3 72.5t-13 50t-21.5 32.5t-37.5 18t-51.5 9t-72.5 4q-9 9 -9 34t9 34q204 -4 285 -4q90 0 246 4q9 -9 9 -34t-9 -34q-53 -3 -78 -8t-46 -23.5 t-27.5 -54t-6.5 -100.5z" />
<glyph unicode="&#x135;" horiz-adv-x="557" d="M231 649q0 46 -4.5 70t-21 39.5t-39 20.5t-68.5 9q-3 10 -5 29t1 29q197 25 281 59q26 0 26 -14q-8 -132 -8 -234v-432q0 -188 -19 -313.5t-51 -191.5t-83 -107q-84 -70 -226 -70q-36 0 -74 24t-38 64q0 26 23 52t42 26q11 0 21.5 -3t17.5 -6t16 -10t12.5 -11t12 -12.5 l10.5 -10.5q23 -23 64 -23q25 0 43.5 19t30.5 57.5t19.5 82.5t11 109.5t4.5 121t1 133.5v493zM342 1348q77 -125 223 -287q-21 -30 -47 -35q-118 74 -211 170q-115 -115 -213 -170q-25 6 -45 35q154 171 227 287q36 8 66 0z" />
<glyph unicode="&#x136;" horiz-adv-x="1304" d="M721 -84q58 0 92.5 -48t34.5 -128q0 -87 -60.5 -137.5t-156.5 -65.5q-17 17 -17 49q71 16 112.5 47.5t41.5 61.5q0 28 -15.5 39t-47.5 14q-87 15 -87 80q0 37 29.5 62.5t73.5 25.5zM391 250q0 -44 3 -72.5t12 -50t20 -32.5t34 -18.5t45.5 -9.5t63.5 -4q9 -9 9 -33.5 t-9 -33.5q-184 4 -264 4q-82 0 -266 -4q-9 9 -9 33.5t9 33.5q41 2 63.5 4t45.5 9.5t34 18.5t20 32.5t12 50t3 72.5v821q0 65 -6.5 100t-30 54.5t-52 24t-89.5 7.5q-9 9 -9 34t9 34q184 -4 264 -4q78 0 266 4q9 -9 9 -34t-9 -34q-61 -3 -89.5 -7.5t-52 -24t-30 -54.5 t-6.5 -100v-360q93 8 162 80l338 360q21 22 31.5 39t8 28t-7.5 18t-22.5 11t-30 6t-36.5 4q-9 9 -9 34t9 34q152 -4 231 -4q69 0 195 4q9 -9 9 -34t-9 -34q-40 -3 -64 -6.5t-59.5 -14.5t-68.5 -34t-67 -59l-301 -309q-33 -34 -49.5 -55.5t-19 -29t-2.5 -16.5q0 -20 26 -51 l449 -532q42 -50 83 -66t97 -21q9 -9 9 -33.5t-9 -33.5q-136 4 -207 4q-28 0 -110 -4q-9 0 -11 12q-3 26 -23 65t-50 77l-322 405q-60 75 -170 78v-383z" />
<glyph unicode="&#x137;" horiz-adv-x="1048" d="M545 -84q58 0 92.5 -48t34.5 -128q0 -87 -60.5 -137.5t-156.5 -65.5q-17 17 -17 49q71 16 112.5 47.5t41.5 61.5q0 28 -16 39t-48 14q-86 15 -86 80q0 37 29.5 62.5t73.5 25.5zM176 250v895q0 35 -2 59.5t-4 43t-10 29.5t-13.5 18t-21.5 10.5t-26.5 4.5t-34.5 2 q-12 1 -19 1q-9 9 -12 28.5t0 32.5q61 4 154.5 22.5t131.5 33.5q27 0 27 -21q-8 -82 -8 -215v-714q67 9 139 63q73 54 164 168q10 13 16.5 26t10 31.5t-15 31t-58.5 15.5q-9 9 -9 34t9 34q94 -4 201 -4q84 0 178 4q9 -9 9 -34t-9 -34q-71 -7 -122 -26t-93 -64l-180 -186 q-9 -9 -9 -21q0 -10 15 -29l270 -339q38 -47 76 -63.5t100 -23.5q9 -9 9 -33.5t-9 -33.5q-82 4 -168 4q-45 0 -127 -4q-6 0 -8 10q-4 34 -86 144l-149 200q-33 46 -66 67q-27 9 -88 11v-178q0 -52 3.5 -84t9 -52.5t20.5 -30.5t29.5 -13.5t43.5 -6.5q9 -9 9 -33.5t-9 -33.5 q-94 4 -186 4q-83 0 -219 -4q-9 9 -9 33.5t9 33.5q33 2 50.5 4.5t35.5 10t26 18t15 32t8.5 50t1.5 72.5z" />
<glyph unicode="&#x138;" horiz-adv-x="1062" d="M358 250q0 -37 1.5 -63.5t4 -46t9.5 -32t13.5 -21t20 -13t25 -6.5t33.5 -5q9 -9 9 -33.5t-9 -33.5q-176 4 -186 4q-58 0 -230 -4q-9 9 -9 33.5t9 33.5q28 2 43 4t33 6t26.5 9t18.5 14.5t13.5 22t7.5 32t5 43t1 56.5v399q0 30 -2 50t-8.5 35.5t-14.5 24t-25 15t-35 9 t-49 5.5q-3 10 -5 29t1 29q195 25 281 59q12 0 19.5 -4t7.5 -10q-9 -131 -9 -233v-177q45 8 87.5 31t82 59t65.5 65.5t62 74.5q10 13 16.5 26t10 31.5t-15 31t-58.5 15.5q-9 9 -9 34t9 34q152 -4 201 -4q26 0 178 4q9 -9 9 -34t-9 -34q-71 -7 -122 -26t-93 -64l-180 -186 q-8 -8 -8 -21q0 -11 14 -29l270 -339q38 -47 76 -63.5t100 -23.5q9 -9 9 -33.5t-9 -33.5q-122 4 -167 4t-127 -4q-6 0 -9 10q-11 43 -86 144l-149 200q-33 46 -66 67q-26 9 -82 11v-178z" />
<glyph unicode="&#x139;" horiz-adv-x="1081" d="M393 1677q88 -40 127 -106l-295 -119q-60 -25 -86 -25q-13 0 -21.5 9.5t-8.5 21.5q0 23 30 43zM305 0q-106 0 -266 -4q-9 9 -9 33.5t9 33.5q41 2 63.5 4t45.5 9.5t34 18.5t20 32.5t12 50t3 72.5v821q0 65 -6.5 100t-30 54.5t-52 24t-89.5 7.5q-9 9 -9 34t9 34 q188 -4 264 -4q82 0 266 4q9 -9 9 -34t-9 -34q-61 -3 -89.5 -7.5t-52 -24t-30 -54.5t-6.5 -100v-848q0 -77 28 -110t89 -33h129q63 0 114 14t85.5 37.5t61.5 59t43.5 72.5t29.5 85q36 6 67 -10q-19 -170 -53 -342q-188 4 -244 4h-436z" />
<glyph unicode="&#x13a;" horiz-adv-x="540" d="M195 250v895q0 42 -1 66t-7 44t-12.5 29t-24.5 16t-35 9t-52 4q-9 9 -12 28.5t0 32.5q62 5 155.5 23t131.5 33q27 0 27 -21q-9 -82 -9 -215v-944q0 -66 4.5 -100.5t23.5 -54.5t43 -24.5t77 -7.5q9 -9 9 -33.5t-9 -33.5q-136 4 -228 4q-85 0 -229 -4q-9 9 -9 33.5t9 33.5 q53 3 77 7.5t43 24.5t23.5 54.5t4.5 100.5zM416 1735q87 -40 127 -107l-295 -119q-57 -24 -86 -24q-13 0 -22 9.5t-9 21.5q0 22 31 43z" />
<glyph unicode="&#x13b;" horiz-adv-x="1081" d="M567 -84q58 0 92.5 -48t34.5 -128q0 -87 -60.5 -137.5t-156.5 -65.5q-16 16 -16 49q71 16 112 47.5t41 61.5q0 28 -15.5 39t-47.5 14q-86 15 -86 80q0 37 29 62.5t73 25.5zM305 0q-106 0 -266 -4q-9 9 -9 33.5t9 33.5q41 2 63.5 4t45.5 9.5t34 18.5t20 32.5t12 50t3 72.5 v821q0 65 -6.5 100t-30 54.5t-52 24t-89.5 7.5q-9 9 -9 34t9 34q188 -4 264 -4q82 0 266 4q9 -9 9 -34t-9 -34q-61 -3 -89.5 -7.5t-52 -24t-30 -54.5t-6.5 -100v-848q0 -77 28 -110t89 -33h129q63 0 114 14t85.5 37.5t61.5 59t43.5 72.5t29.5 85q36 6 67 -10 q-19 -170 -53 -342q-188 4 -244 4h-436z" />
<glyph unicode="&#x13c;" horiz-adv-x="540" d="M195 250v895q0 42 -1 66t-7 44t-12.5 29t-24.5 16t-35 9t-52 4q-9 9 -12 28.5t0 32.5q62 5 155.5 23t131.5 33q27 0 27 -21q-9 -82 -9 -215v-944q0 -66 4.5 -100.5t23.5 -54.5t43 -24.5t77 -7.5q9 -9 9 -33.5t-9 -33.5q-136 4 -228 4q-85 0 -229 -4q-9 9 -9 33.5t9 33.5 q53 3 77 7.5t43 24.5t23.5 54.5t4.5 100.5zM270 -84q58 0 92.5 -48t34.5 -128q0 -87 -60.5 -137.5t-156.5 -65.5q-16 16 -16 49q71 16 112 47.5t41 61.5q0 28 -15.5 39t-47.5 14q-86 15 -86 80q0 37 29 62.5t73 25.5z" />
<glyph unicode="&#x13d;" horiz-adv-x="1081" d="M819 1430q56 0 89.5 -45.5t33.5 -104.5q0 -67 -56 -136.5t-153 -80.5l-10 35q59 12 94 56t35 85q0 20 -8.5 31.5t-20.5 11.5q-94 0 -94 78q0 27 23.5 48.5t66.5 21.5zM305 0q-106 0 -266 -4q-9 9 -9 33.5t9 33.5q41 2 63.5 4t45.5 9.5t34 18.5t20 32.5t12 50t3 72.5v821 q0 65 -6.5 100t-30 54.5t-52 24t-89.5 7.5q-9 9 -9 34t9 34q188 -4 264 -4q82 0 266 4q9 -9 9 -34t-9 -34q-61 -3 -89.5 -7.5t-52 -24t-30 -54.5t-6.5 -100v-848q0 -77 28 -110t89 -33h129q63 0 114 14t85.5 37.5t61.5 59t43.5 72.5t29.5 85q36 6 67 -10q-19 -170 -53 -342 q-188 4 -244 4h-436z" />
<glyph unicode="&#x13e;" horiz-adv-x="593" d="M543 1430q56 0 89.5 -45.5t33.5 -104.5q0 -67 -56 -136.5t-153 -80.5l-11 35q59 12 94 56t35 85q0 20 -8 31.5t-20 11.5q-94 0 -94 78q0 27 23.5 48.5t66.5 21.5zM195 250v895q0 42 -1 66t-7 44t-12.5 29t-24.5 16t-35 9t-52 4q-9 9 -12 28.5t0 32.5q62 5 155.5 23 t131.5 33q27 0 27 -21q-9 -82 -9 -215v-944q0 -66 4.5 -100.5t23.5 -54.5t43 -24.5t77 -7.5q9 -9 9 -33.5t-9 -33.5q-136 4 -228 4q-85 0 -229 -4q-9 9 -9 33.5t9 33.5q53 3 77 7.5t43 24.5t23.5 54.5t4.5 100.5z" />
<glyph unicode="&#x13f;" horiz-adv-x="1081" d="M592 686q0 43 31.5 75t74.5 32t75 -32t32 -75t-32 -74.5t-75 -31.5t-74.5 31.5t-31.5 74.5zM305 0q-106 0 -266 -4q-9 9 -9 33.5t9 33.5q41 2 63.5 4t45.5 9.5t34 18.5t20 32.5t12 50t3 72.5v821q0 65 -6.5 100t-30 54.5t-52 24t-89.5 7.5q-9 9 -9 34t9 34q188 -4 264 -4 q82 0 266 4q9 -9 9 -34t-9 -34q-61 -3 -89.5 -7.5t-52 -24t-30 -54.5t-6.5 -100v-848q0 -77 28 -110t89 -33h129q63 0 114 14t85.5 37.5t61.5 59t43.5 72.5t29.5 85q36 6 67 -10q-19 -170 -53 -342q-188 4 -244 4h-436z" />
<glyph unicode="&#x140;" horiz-adv-x="540" d="M436 737q0 39 29.5 70t69.5 31q36 0 66 -30.5t30 -70.5q0 -39 -27.5 -67.5t-68.5 -28.5q-44 0 -71.5 28.5t-27.5 67.5zM195 250v895q0 42 -1 66t-7 44t-12.5 29t-24.5 16t-35 9t-52 4q-9 9 -12 28.5t0 32.5q62 5 155.5 23t131.5 33q27 0 27 -21q-9 -82 -9 -215v-944 q0 -66 4.5 -100.5t23.5 -54.5t43 -24.5t77 -7.5q9 -9 9 -33.5t-9 -33.5q-136 4 -228 4q-85 0 -229 -4q-9 9 -9 33.5t9 33.5q53 3 77 7.5t43 24.5t23.5 54.5t4.5 100.5z" />
<glyph unicode="&#x141;" horiz-adv-x="1081" d="M635 920l37 -62l-281 -161v-474q0 -77 28 -110t89 -33h129q63 0 114 14t85.5 37.5t61.5 59t43.5 72.5t29.5 85q36 6 67 -10q-19 -170 -53 -342q-188 4 -244 4h-436q-106 0 -266 -4q-9 9 -9 33.5t9 33.5q41 2 63.5 4t45.5 9.5t34 18.5t20 32.5t12 50t3 72.5v347l-170 -97 l-37 63l207 118v390q0 65 -6.5 100t-30 54.5t-52 24t-89.5 7.5q-9 9 -9 34t9 34q188 -4 264 -4q82 0 266 4q9 -9 9 -34t-9 -34q-61 -3 -89.5 -7.5t-52 -24t-30 -54.5t-6.5 -100v-291z" />
<glyph unicode="&#x142;" horiz-adv-x="540" d="M498 897l34 -61l-176 -103v-483q0 -66 4.5 -100.5t23.5 -54.5t43 -24.5t77 -7.5q9 -9 9 -33.5t-9 -33.5q-136 4 -228 4q-85 0 -229 -4q-9 9 -9 33.5t9 33.5q53 3 77 7.5t43 24.5t23.5 54.5t4.5 100.5v389l-148 -86l-35 59l183 107v426q0 42 -1 66t-7 44t-12.5 29 t-24.5 16t-35 9t-52 4q-9 9 -12 28.5t0 32.5q62 5 155.5 23t131.5 33q27 0 27 -21q-9 -82 -9 -215v-380z" />
<glyph unicode="&#x143;" horiz-adv-x="1431" d="M784 1679q88 -40 127 -106l-295 -119q-57 -24 -86 -24q-13 0 -21.5 9t-8.5 21q0 23 30 43zM1139 1049q0 41 -3 69.5t-7 50.5t-15.5 36t-22 23t-33.5 14.5t-42 8t-55 6.5q-9 9 -9 34t9 34q180 -4 227 -4q61 0 229 4q9 -9 9 -34t-9 -34q-61 -6 -89.5 -12.5t-52 -28.5 t-30 -59.5t-6.5 -107.5v-1006q0 -29 -12.5 -46t-34.5 -17q-46 0 -82 49l-715 903q-52 67 -69 67q-11 0 -14 -21t-3 -79v-627q0 -48 2.5 -79.5t12.5 -54.5t20 -35t34 -20.5t45.5 -12t63.5 -7.5q9 -9 9 -33.5t-9 -33.5q-172 4 -227 4q-53 0 -229 -4q-9 9 -9 33.5t9 33.5 q41 4 63.5 7.5t46 12.5t34 21.5t20 35.5t12 54t2.5 78v854q-10 45 -55.5 86t-106.5 45q-9 9 -9 34t9 34l277 -4l702 -891q88 -113 98 -113t12.5 14t2.5 48v670z" />
<glyph unicode="&#x144;" horiz-adv-x="1110" d="M643 1374q12 4 29 4q63 0 112 -47l7 -22l-236 -224q-38 -38 -61 -38q-11 0 -20 8t-9 18q0 16 4 25.5t19 31.5zM377 733q83 95 165.5 130.5t170.5 35.5q116 0 170 -70q32 -44 43.5 -110.5t11.5 -163.5v-305q0 -37 2 -62.5t5 -46t11 -32.5t16.5 -20.5t25.5 -13.5t33 -7.5 t44 -4.5q7 -9 7 -33.5t-7 -33.5q-122 4 -217 4q-87 0 -209 -4q-7 9 -7 33.5t7 33.5q45 4 65.5 9.5t37 25t20.5 53.5t4 99v311q0 109 -24 158q-18 35 -48 54.5t-61 19.5q-60 0 -125.5 -32t-124.5 -89q-35 -39 -35 -86v-336q0 -52 3.5 -83t10 -52t23.5 -30.5t34.5 -14 t53.5 -7.5q9 -9 9 -33.5t-9 -33.5q-122 4 -204 4q-104 0 -226 -4q-9 9 -9 33.5t9 33.5q35 3 53.5 5.5t38 10t27 18.5t15 32.5t9 49t1.5 71.5v399q0 46 -4.5 70.5t-21.5 39.5t-39 20t-69 9q-3 10 -5 29t1 29q155 20 252 59q18 0 25 -16q11 -23 16 -156q1 -27 25 0z" />
<glyph unicode="&#x145;" horiz-adv-x="1431" d="M733 -84q58 0 92.5 -48t34.5 -128q0 -87 -60.5 -137.5t-156.5 -65.5q-16 16 -16 49q71 16 112 47.5t41 61.5q0 28 -15.5 39t-47.5 14q-86 15 -86 80q0 37 29 62.5t73 25.5zM1139 1049q0 41 -3 69.5t-7 50.5t-15.5 36t-22 23t-33.5 14.5t-42 8t-55 6.5q-9 9 -9 34t9 34 q180 -4 227 -4q61 0 229 4q9 -9 9 -34t-9 -34q-61 -6 -89.5 -12.5t-52 -28.5t-30 -59.5t-6.5 -107.5v-1006q0 -29 -12.5 -46t-34.5 -17q-46 0 -82 49l-715 903q-52 67 -69 67q-11 0 -14 -21t-3 -79v-627q0 -48 2.5 -79.5t12.5 -54.5t20 -35t34 -20.5t45.5 -12t63.5 -7.5 q9 -9 9 -33.5t-9 -33.5q-172 4 -227 4q-53 0 -229 -4q-9 9 -9 33.5t9 33.5q41 4 63.5 7.5t46 12.5t34 21.5t20 35.5t12 54t2.5 78v854q-10 45 -55.5 86t-106.5 45q-9 9 -9 34t9 34l277 -4l702 -891q88 -113 98 -113t12.5 14t2.5 48v670z" />
<glyph unicode="&#x146;" horiz-adv-x="1110" d="M535 -84q58 0 92.5 -48t34.5 -128q0 -87 -61 -137.5t-157 -65.5q-16 16 -16 49q71 16 112.5 47.5t41.5 61.5q0 28 -16 39t-48 14q-86 15 -86 80q0 37 29.5 62.5t73.5 25.5zM377 733q83 95 165.5 130.5t170.5 35.5q116 0 170 -70q32 -44 43.5 -110.5t11.5 -163.5v-305 q0 -37 2 -62.5t5 -46t11 -32.5t16.5 -20.5t25.5 -13.5t33 -7.5t44 -4.5q7 -9 7 -33.5t-7 -33.5q-122 4 -217 4q-87 0 -209 -4q-7 9 -7 33.5t7 33.5q45 4 65.5 9.5t37 25t20.5 53.5t4 99v311q0 109 -24 158q-18 35 -48 54.5t-61 19.5q-60 0 -125.5 -32t-124.5 -89 q-35 -39 -35 -86v-336q0 -52 3.5 -83t10 -52t23.5 -30.5t34.5 -14t53.5 -7.5q9 -9 9 -33.5t-9 -33.5q-122 4 -204 4q-104 0 -226 -4q-9 9 -9 33.5t9 33.5q35 3 53.5 5.5t38 10t27 18.5t15 32.5t9 49t1.5 71.5v399q0 46 -4.5 70.5t-21.5 39.5t-39 20t-69 9q-3 10 -5 29t1 29 q155 20 252 59q18 0 25 -16q11 -23 16 -156q1 -27 25 0z" />
<glyph unicode="&#x147;" horiz-adv-x="1431" d="M678 1427q-75 93 -207 195l33 41q121 -53 217 -125q118 82 219 125l31 -41q-103 -78 -205 -195h-88zM1139 1049q0 41 -3 69.5t-7 50.5t-15.5 36t-22 23t-33.5 14.5t-42 8t-55 6.5q-9 9 -9 34t9 34q180 -4 227 -4q61 0 229 4q9 -9 9 -34t-9 -34q-61 -6 -89.5 -12.5 t-52 -28.5t-30 -59.5t-6.5 -107.5v-1006q0 -29 -12.5 -46t-34.5 -17q-46 0 -82 49l-715 903q-52 67 -69 67q-11 0 -14 -21t-3 -79v-627q0 -48 2.5 -79.5t12.5 -54.5t20 -35t34 -20.5t45.5 -12t63.5 -7.5q9 -9 9 -33.5t-9 -33.5q-172 4 -227 4q-53 0 -229 -4q-9 9 -9 33.5 t9 33.5q41 4 63.5 7.5t46 12.5t34 21.5t20 35.5t12 54t2.5 78v854q-10 45 -55.5 86t-106.5 45q-9 9 -9 34t9 34l277 -4l702 -891q88 -113 98 -113t12.5 14t2.5 48v670z" />
<glyph unicode="&#x148;" horiz-adv-x="1110" d="M504 1030q-77 125 -207 266l41 27q142 -105 217 -184q80 82 221 184l39 -27q-139 -154 -209 -266h-102zM377 733q83 95 165.5 130.5t170.5 35.5q116 0 170 -70q32 -44 43.5 -110.5t11.5 -163.5v-305q0 -37 2 -62.5t5 -46t11 -32.5t16.5 -20.5t25.5 -13.5t33 -7.5t44 -4.5 q7 -9 7 -33.5t-7 -33.5q-122 4 -217 4q-87 0 -209 -4q-7 9 -7 33.5t7 33.5q45 4 65.5 9.5t37 25t20.5 53.5t4 99v311q0 109 -24 158q-18 35 -48 54.5t-61 19.5q-60 0 -125.5 -32t-124.5 -89q-35 -39 -35 -86v-336q0 -52 3.5 -83t10 -52t23.5 -30.5t34.5 -14t53.5 -7.5 q9 -9 9 -33.5t-9 -33.5q-122 4 -204 4q-104 0 -226 -4q-9 9 -9 33.5t9 33.5q35 3 53.5 5.5t38 10t27 18.5t15 32.5t9 49t1.5 71.5v399q0 46 -4.5 70.5t-21.5 39.5t-39 20t-69 9q-3 10 -5 29t1 29q155 20 252 59q18 0 25 -16q11 -23 16 -156q1 -27 25 0z" />
<glyph unicode="&#x149;" horiz-adv-x="1110" d="M147 1430q56 0 89.5 -45.5t33.5 -104.5q0 -67 -56 -136.5t-153 -80.5l-10 35q59 12 94 56t35 85q0 20 -8 31.5t-20 11.5q-95 0 -95 78q0 27 23.5 48.5t66.5 21.5zM403 733q83 95 165.5 130.5t170.5 35.5q116 0 170 -70q56 -75 56 -274v-305q0 -37 2 -62.5t5 -46t11 -32.5 t16.5 -20.5t25.5 -13.5t33 -7.5t44 -4.5q8 -9 8 -33.5t-8 -33.5q-122 4 -217 4q-87 0 -209 -4q-8 9 -8 33.5t8 33.5q45 4 65.5 9.5t37 25t20.5 53.5t4 99v311q0 107 -25 158q-18 35 -47.5 54.5t-60.5 19.5q-60 0 -125.5 -32t-124.5 -89q-35 -39 -35 -86v-336q0 -52 3.5 -83 t10 -52t23.5 -30.5t34.5 -14t53.5 -7.5q9 -9 9 -33.5t-9 -33.5q-122 4 -205 4q-103 0 -225 -4q-9 9 -9 33.5t9 33.5q42 3 62.5 7.5t40 14t26 30.5t10.5 51.5t4 83.5v399q0 46 -4.5 70.5t-21.5 39.5t-38.5 20t-68.5 9q-3 10 -5 29t1 29q155 20 252 59q17 0 24 -16 q12 -26 17 -156q1 -26 24 0z" />
<glyph unicode="&#x14a;" horiz-adv-x="1484" d="M373 1325q26 0 26 -20q-8 -82 -8 -215v-38q3 0 7.5 4t7.5 8l4 3q95 134 200 207.5t234 73.5q184 0 291 -125q131 -154 131 -549v-443q0 -84 -15 -157t-35.5 -121.5t-53 -94t-57 -70t-58.5 -52.5q-60 -51 -113.5 -69.5t-126.5 -18.5q-45 0 -99.5 30.5t-54.5 79.5 q0 31 32.5 59.5t57.5 28.5q22 0 38.5 -8t23.5 -15.5t17.5 -24.5t13.5 -21q26 -37 71 -37q23 0 44.5 8.5t46 36t42 72t29.5 124t12 185.5v528q0 316 -86 439q-39 56 -93.5 78t-131.5 22q-72 0 -162 -67.5t-180 -174.5q-30 -36 -37 -77v-664q0 -44 3 -72.5t12 -50t20 -32.5 t34 -18.5t45.5 -9.5t63.5 -4q9 -9 9 -33.5t-9 -33.5q-204 4 -264 4q-66 0 -266 -4q-9 9 -9 33.5t9 33.5q41 2 63.5 4t45.5 9.5t34 18.5t20 32.5t12 50t3 72.5v821q0 65 -6.5 100t-30 54.5t-52 24t-89.5 7.5q-9 9 -9 34t9 34q204 -4 264 -4q34 0 70 4z" />
<glyph unicode="&#x14b;" horiz-adv-x="1081" d="M358 733q0 -27 17 -3l1.5 1.5t0.5 1.5q86 96 167.5 131t168.5 35q116 0 170 -70q32 -44 43.5 -110.5t11.5 -163.5v-330q0 -188 -19.5 -313.5t-51.5 -191t-83 -107.5q-84 -70 -225 -70q-36 0 -74.5 24t-38.5 64q0 26 23.5 52t42.5 26q11 0 21.5 -3t17.5 -6t16 -10 t12.5 -11t12 -12.5l10.5 -10.5q23 -23 64 -23q25 0 43.5 19t30.5 57.5t19.5 82.5t11 109.5t4.5 121t1 133.5v405q0 109 -24 158q-18 35 -48 54.5t-61 19.5q-60 0 -125.5 -32t-124.5 -89q-35 -39 -35 -86v-336q0 -65 3.5 -99t19.5 -53.5t36 -25t64 -9.5q9 -9 9 -33.5 t-9 -33.5q-172 4 -202 4q-58 0 -226 -4q-9 9 -9 33.5t9 33.5q35 3 53.5 5.5t38 10t27 18.5t15 32.5t9 49t1.5 71.5v399q0 46 -4.5 70.5t-21.5 39.5t-39 20t-69 9q-3 10 -5 29t1 29q164 21 258 59q18 0 25 -16q16 -34 16 -156z" />
<glyph unicode="&#x14c;" d="M938 1526h-459q-12 0 -19 12t-7 25q0 20 14.5 42.5t30.5 22.5h460q13 0 21 -12t8 -23q0 -21 -15 -44t-34 -23zM678 1274q-63 0 -120.5 -21t-110 -68t-91 -116t-61.5 -171.5t-23 -227.5q0 -143 40.5 -261.5t108.5 -195t155 -118.5t182 -42q179 0 294 156.5t115 425.5 q0 151 -38.5 273.5t-105 201.5t-155 121.5t-190.5 42.5zM1364 674q0 -151 -46.5 -279.5t-130 -220t-205 -143t-265.5 -51.5q-130 0 -247 46.5t-204.5 129.5t-138.5 207.5t-51 271.5q0 149 43 279t122 226.5t199 152t265 55.5q185 0 333.5 -79t237 -234t88.5 -361z" />
<glyph unicode="&#x14d;" horiz-adv-x="1032" d="M737 1061h-458q-12 0 -19.5 12.5t-7.5 24.5q0 20 14.5 42.5t30.5 22.5h461q13 0 20.5 -11.5t7.5 -23.5q0 -21 -15 -44t-34 -23zM948 438q0 -194 -117.5 -326t-316.5 -132q-84 0 -156 25.5t-121.5 69t-84.5 100.5t-51.5 119t-16.5 126q0 205 119 342t315 137 q91 0 165 -27.5t122 -73t81 -106.5t47.5 -124.5t14.5 -129.5zM487 827q-227 0 -227 -360q0 -65 15 -132.5t46 -133.5t89 -108t133 -42q40 0 77 15t73 48.5t57.5 100t21.5 158.5q0 219 -75.5 336.5t-209.5 117.5z" />
<glyph unicode="&#x14e;" d="M1004 1649q-9 -105 -91 -168.5t-188 -63.5q-115 0 -193.5 63.5t-85.5 168.5h58q12 -58 74 -91.5t147 -33.5q80 0 145.5 34t75.5 91h58zM678 1274q-63 0 -120.5 -21t-110 -68t-91 -116t-61.5 -171.5t-23 -227.5q0 -143 40.5 -261.5t108.5 -195t155 -118.5t182 -42 q179 0 294 156.5t115 425.5q0 151 -38.5 273.5t-105 201.5t-155 121.5t-190.5 42.5zM1364 674q0 -151 -46.5 -279.5t-130 -220t-205 -143t-265.5 -51.5q-130 0 -247 46.5t-204.5 129.5t-138.5 207.5t-51 271.5q0 149 43 279t122 226.5t199 152t265 55.5q185 0 333.5 -79 t237 -234t88.5 -361z" />
<glyph unicode="&#x14f;" horiz-adv-x="1032" d="M268 1321q17 -82 77.5 -133t143.5 -51t145 49t77 135l55 -25q-18 -126 -99.5 -201t-177.5 -75q-108 0 -181 73t-95 203zM948 438q0 -194 -117.5 -326t-316.5 -132q-84 0 -156 25.5t-121.5 69t-84.5 100.5t-51.5 119t-16.5 126q0 205 119 342t315 137q91 0 165 -27.5 t122 -73t81 -106.5t47.5 -124.5t14.5 -129.5zM487 827q-227 0 -227 -360q0 -65 15 -132.5t46 -133.5t89 -108t133 -42q40 0 77 15t73 48.5t57.5 100t21.5 158.5q0 219 -75.5 336.5t-209.5 117.5z" />
<glyph unicode="&#x150;" d="M1030 1622q0 -27 -14 -41l-203 -172q-6 -6 -16 -6q-9 0 -18 8t-9 19q0 8 8 22l121 223q16 25 47 25q41 0 62.5 -24.5t21.5 -53.5zM762 1632q0 -28 -14 -39l-181 -165q-17 -15 -28 -15t-19 7.5t-8 17.5q0 12 5 22l112 226q15 24 55 24q27 0 52.5 -22.5t25.5 -55.5z M678 1274q-63 0 -120.5 -21t-110 -68t-91 -116t-61.5 -171.5t-23 -227.5q0 -143 40.5 -261.5t108.5 -195t155 -118.5t182 -42q179 0 294 156.5t115 425.5q0 151 -38.5 273.5t-105 201.5t-155 121.5t-190.5 42.5zM1364 674q0 -151 -46.5 -279.5t-130 -220t-205 -143 t-265.5 -51.5q-130 0 -247 46.5t-204.5 129.5t-138.5 207.5t-51 271.5q0 149 43 279t122 226.5t199 152t265 55.5q185 0 333.5 -79t237 -234t88.5 -361z" />
<glyph unicode="&#x151;" horiz-adv-x="1032" d="M813 1251q0 -25 -14 -39l-234 -225q-4 -4 -12 -4q-9 0 -19 8t-10 19q0 6 2 8l160 285q13 24 49 24q32 0 55 -23.5t23 -52.5zM543 1264q0 -19 -11 -33l-208 -248q-6 -6 -17 -6q-10 0 -19 8t-9 19q0 4 2 6l131 299q12 28 53 28q33 0 55.5 -21t22.5 -52zM948 438 q0 -194 -117.5 -326t-316.5 -132q-84 0 -156 25.5t-121.5 69t-84.5 100.5t-51.5 119t-16.5 126q0 205 119 342t315 137q91 0 165 -27.5t122 -73t81 -106.5t47.5 -124.5t14.5 -129.5zM487 827q-227 0 -227 -360q0 -65 15 -132.5t46 -133.5t89 -108t133 -42q40 0 77 15 t73 48.5t57.5 100t21.5 158.5q0 219 -75.5 336.5t-209.5 117.5z" />
<glyph unicode="&#x152;" horiz-adv-x="1779" d="M729 66h27q59 0 79.5 18t20.5 63v1029q0 46 -20 60.5t-80 14.5h-72q-62 0 -118.5 -18t-109.5 -61t-92 -108t-62 -166t-23 -228q0 -123 26.5 -225t71 -171t103 -117t121.5 -69.5t128 -21.5zM733 -4q-189 1 -337.5 87.5t-229 235.5t-80.5 332q0 138 44.5 260.5t124.5 214 t198 144.5t258 53q143 -2 233 -2h686l29 -285l-55 -6q-12 76 -65 142.5t-126 66.5h-309q-38 0 -56 -14.5t-18 -50.5v-424h211q52 0 72.5 21t32.5 69l14 61q0 6 4 11.5t10 5.5h45q6 0 6 -9q-1 -22 -8.5 -88.5t-7.5 -105.5q0 -32 2.5 -64t7 -73t6.5 -60l-4 -6h-47 q-16 0 -16 14l-12 64q-10 46 -32.5 68t-72.5 22h-211v-533q0 -39 18.5 -53t55.5 -14h317q94 0 146.5 67.5t77.5 190.5l55 -10l-53 -328h-705z" />
<glyph unicode="&#x153;" horiz-adv-x="1593" d="M838 715q56 81 142.5 132.5t186.5 51.5q177 0 264 -102.5t87 -288.5h-594q-2 -18 -2 -62q0 -78 20.5 -143t51.5 -106t68.5 -69.5t70.5 -40t59 -11.5q65 0 143.5 27t122.5 75q24 -1 45 -31q-123 -167 -334 -167q-236 0 -344 182q-121 -182 -336 -182q-186 0 -302.5 125.5 t-116.5 316.5q0 116 34.5 208.5t94.5 150t136 88t163 30.5q74 0 131 -14.5t96 -42.5t63.5 -56.5t49.5 -70.5zM246 485q0 -119 27.5 -214t90.5 -157.5t154 -62.5q31 0 61 9t62.5 34.5t56 64t39 103.5t15.5 148q0 111 -27 197.5t-68 132.5t-82.5 68.5t-78.5 22.5 q-61 0 -107 -23t-72.5 -57.5t-43 -83t-22 -92t-5.5 -90.5zM1341 588q-1 31 -4 58t-14.5 62.5t-29.5 60.5t-51.5 42.5t-78.5 17.5q-61 0 -109 -32t-73 -77.5t-37 -78.5t-14 -53h411z" />
<glyph unicode="&#x154;" horiz-adv-x="1202" d="M639 1679q88 -40 127 -106l-295 -119q-57 -24 -86 -24q-13 0 -22 9t-9 21q0 22 31 43zM557 1266q-170 0 -170 -131v-469h98q80 0 138.5 13.5t107 46.5t73.5 96.5t25 156.5q0 287 -272 287zM387 250q0 -44 3 -72.5t12 -50t20 -32.5t34 -18.5t45.5 -9.5t63.5 -4 q9 -9 9 -33.5t-9 -33.5q-180 4 -264 4q-82 0 -266 -4q-9 9 -9 33.5t9 33.5q41 2 63.5 4t45.5 9.5t34 18.5t20 32.5t12 50t3 72.5v821q0 65 -6.5 100t-30 54.5t-52 24t-89.5 7.5q-9 9 -9 34t9 34q192 -4 264 -4q34 0 119.5 7t136.5 7q122 0 205 -18t149 -80 q109 -103 109 -256q0 -76 -29.5 -140.5t-75 -105.5t-87.5 -66t-81 -38l259 -430q47 -79 90 -118.5t106 -39.5q13 -27 2 -49q-28 -14 -86 -14q-157 0 -270 182l-219 356q-16 27 -37 42t-70.5 25.5t-132.5 10.5v-346z" />
<glyph unicode="&#x155;" horiz-adv-x="761" d="M494 1374q12 4 28 4q64 0 113 -47l6 -22l-235 -224q-38 -38 -62 -38q-11 0 -20 8t-9 18q0 4 0.5 8t1 6.5t2 6.5t2 6t3.5 7t4 6.5t5.5 8t5.5 8.5zM360 733q0 -10 7 -14.5t16 10.5q41 70 101 120t126 50q59 0 91 -31.5t32 -66.5q0 -39 -29.5 -71t-66.5 -32q-36 0 -74 48 q-20 26 -53 26q-24 0 -94 -100q-49 -73 -49 -137v-285q0 -44 2 -72t10.5 -49.5t17.5 -32t31.5 -18t43.5 -10t63 -5.5q9 -9 9 -33.5t-9 -33.5q-144 4 -248 4q-90 0 -234 -4q-9 9 -9 33.5t9 33.5q54 3 78.5 8t44 25t24.5 54t5 100v399q0 46 -4.5 70.5t-21.5 39.5t-38.5 20 t-68.5 9q-3 10 -5 29t1 29q153 20 251 59q18 0 25 -16q11 -23 16 -156z" />
<glyph unicode="&#x156;" horiz-adv-x="1202" d="M635 -84q58 0 92.5 -48t34.5 -128q0 -87 -60.5 -137.5t-156.5 -65.5q-17 17 -17 49q71 16 112.5 47.5t41.5 61.5q0 28 -16 39t-48 14q-86 15 -86 80q0 37 29.5 62.5t73.5 25.5zM557 1266q-170 0 -170 -131v-469h98q80 0 138.5 13.5t107 46.5t73.5 96.5t25 156.5 q0 287 -272 287zM387 250q0 -44 3 -72.5t12 -50t20 -32.5t34 -18.5t45.5 -9.5t63.5 -4q9 -9 9 -33.5t-9 -33.5q-180 4 -264 4q-82 0 -266 -4q-9 9 -9 33.5t9 33.5q41 2 63.5 4t45.5 9.5t34 18.5t20 32.5t12 50t3 72.5v821q0 65 -6.5 100t-30 54.5t-52 24t-89.5 7.5 q-9 9 -9 34t9 34q192 -4 264 -4q34 0 119.5 7t136.5 7q122 0 205 -18t149 -80q109 -103 109 -256q0 -76 -29.5 -140.5t-75 -105.5t-87.5 -66t-81 -38l259 -430q47 -79 90 -118.5t106 -39.5q13 -27 2 -49q-28 -14 -86 -14q-157 0 -270 182l-219 356q-16 27 -37 42t-70.5 25.5 t-132.5 10.5v-346z" />
<glyph unicode="&#x157;" horiz-adv-x="761" d="M281 -84q58 0 92.5 -48t34.5 -128q0 -87 -61 -137.5t-157 -65.5q-16 16 -16 49q71 16 112.5 47.5t41.5 61.5q0 28 -16 39t-48 14q-86 15 -86 80q0 37 29.5 62.5t73.5 25.5zM360 733q0 -10 7 -14.5t16 10.5q41 70 101 120t126 50q59 0 91 -31.5t32 -66.5q0 -39 -29.5 -71 t-66.5 -32q-36 0 -74 48q-20 26 -53 26q-24 0 -94 -100q-49 -73 -49 -137v-285q0 -44 2 -72t10.5 -49.5t17.5 -32t31.5 -18t43.5 -10t63 -5.5q9 -9 9 -33.5t-9 -33.5q-144 4 -248 4q-90 0 -234 -4q-9 9 -9 33.5t9 33.5q54 3 78.5 8t44 25t24.5 54t5 100v399q0 46 -4.5 70.5 t-21.5 39.5t-38.5 20t-68.5 9q-3 10 -5 29t1 29q153 20 251 59q18 0 25 -16q11 -23 16 -156z" />
<glyph unicode="&#x158;" horiz-adv-x="1202" d="M500 1427q-75 93 -207 195l33 41q121 -53 217 -125q118 82 219 125l31 -41q-103 -78 -205 -195h-88zM557 1266q-170 0 -170 -131v-469h98q80 0 138.5 13.5t107 46.5t73.5 96.5t25 156.5q0 287 -272 287zM387 250q0 -44 3 -72.5t12 -50t20 -32.5t34 -18.5t45.5 -9.5 t63.5 -4q9 -9 9 -33.5t-9 -33.5q-180 4 -264 4q-82 0 -266 -4q-9 9 -9 33.5t9 33.5q41 2 63.5 4t45.5 9.5t34 18.5t20 32.5t12 50t3 72.5v821q0 65 -6.5 100t-30 54.5t-52 24t-89.5 7.5q-9 9 -9 34t9 34q192 -4 264 -4q34 0 119.5 7t136.5 7q122 0 205 -18t149 -80 q109 -103 109 -256q0 -76 -29.5 -140.5t-75 -105.5t-87.5 -66t-81 -38l259 -430q47 -79 90 -118.5t106 -39.5q13 -27 2 -49q-28 -14 -86 -14q-157 0 -270 182l-219 356q-16 27 -37 42t-70.5 25.5t-132.5 10.5v-346z" />
<glyph unicode="&#x159;" horiz-adv-x="761" d="M358 1030q-79 128 -206 266l41 27q142 -105 217 -184q80 82 221 184l39 -27q-139 -154 -209 -266h-103zM360 733q0 -10 7 -14.5t16 10.5q41 70 101 120t126 50q59 0 91 -31.5t32 -66.5q0 -39 -29.5 -71t-66.5 -32q-36 0 -74 48q-20 26 -53 26q-24 0 -94 -100 q-49 -73 -49 -137v-285q0 -44 2 -72t10.5 -49.5t17.5 -32t31.5 -18t43.5 -10t63 -5.5q9 -9 9 -33.5t-9 -33.5q-144 4 -248 4q-90 0 -234 -4q-9 9 -9 33.5t9 33.5q54 3 78.5 8t44 25t24.5 54t5 100v399q0 46 -4.5 70.5t-21.5 39.5t-38.5 20t-68.5 9q-3 10 -5 29t1 29 q153 20 251 59q18 0 25 -16q11 -23 16 -156z" />
<glyph unicode="&#x15a;" horiz-adv-x="993" d="M578 1679q88 -40 127 -106l-295 -119q-57 -24 -86 -24q-13 0 -22 9t-9 21q0 22 31 43zM808 1292q29 -150 37 -264q-25 -20 -67 -12q-14 46 -28 80t-39 70t-55.5 59t-76.5 38t-104 15q-89 0 -156.5 -70.5t-67.5 -158.5q0 -36 12.5 -68.5t30.5 -57.5t48 -49t55 -39.5 t63 -33t60.5 -26.5t56.5 -22q71 -27 124.5 -56t103.5 -73t77 -106.5t27 -140.5q0 -97 -51.5 -185.5t-140.5 -144.5q-108 -67 -253 -67q-98 0 -204 23.5t-164 23.5q-19 77 -27 136t-14 175q33 17 67 6q64 -291 359 -291q123 0 189.5 64.5t66.5 187.5q0 42 -9.5 78t-22.5 62 t-37.5 49.5t-44 38.5t-53 31.5t-53.5 24.5t-55 21q-61 23 -107.5 45.5t-96 57t-81.5 72.5t-52.5 91.5t-20.5 116.5q0 158 114.5 256.5t275.5 98.5q88 0 138.5 -10t91.5 -25t84 -21z" />
<glyph unicode="&#x15b;" horiz-adv-x="798" d="M98 283q9 9 32 10t32 -8q8 -34 12 -50t14.5 -46.5t20 -46t26.5 -37t37.5 -32t49.5 -18.5t65 -8q66 0 120 37t54 106q0 67 -42 108t-167 93q-124 52 -174.5 111t-50.5 168q0 96 86.5 162.5t202.5 66.5q47 0 97 -7t103 -18.5t68 -13.5q-3 -108 -12 -217q-9 -9 -33 -10 t-33 8q-8 49 -26.5 86t-39 56t-46.5 30.5t-43.5 14.5t-34.5 3q-57 0 -100.5 -35.5t-43.5 -95.5q0 -28 6 -50t21 -40t28.5 -30t42.5 -26t48 -21.5t59 -22.5q240 -90 240 -272q0 -58 -23 -104.5t-58.5 -74.5t-80.5 -46.5t-85.5 -25.5t-78.5 -7q-100 0 -186 22q-14 4 -41 4 q-21 0 -51 -6q0 96 -15 283zM465 1374q12 4 29 4q63 0 112 -47l6 -22l-235 -224q-38 -38 -62 -38q-11 0 -19.5 8t-8.5 18q0 16 4 25.5t19 31.5z" />
<glyph unicode="&#x15c;" horiz-adv-x="993" d="M508 1669q90 -109 211 -199q-11 -34 -33 -43q-131 61 -217 125q-97 -70 -219 -125q-23 15 -29 43q86 64 207 199q37 22 80 0zM808 1292q29 -150 37 -264q-25 -20 -67 -12q-14 46 -28 80t-39 70t-55.5 59t-76.5 38t-104 15q-89 0 -156.5 -70.5t-67.5 -158.5 q0 -36 12.5 -68.5t30.5 -57.5t48 -49t55 -39.5t63 -33t60.5 -26.5t56.5 -22q71 -27 124.5 -56t103.5 -73t77 -106.5t27 -140.5q0 -97 -51.5 -185.5t-140.5 -144.5q-108 -67 -253 -67q-98 0 -204 23.5t-164 23.5q-19 77 -27 136t-14 175q33 17 67 6q64 -291 359 -291 q123 0 189.5 64.5t66.5 187.5q0 42 -9.5 78t-22.5 62t-37.5 49.5t-44 38.5t-53 31.5t-53.5 24.5t-55 21q-61 23 -107.5 45.5t-96 57t-81.5 72.5t-52.5 91.5t-20.5 116.5q0 158 114.5 256.5t275.5 98.5q88 0 138.5 -10t91.5 -25t84 -21z" />
<glyph unicode="&#x15d;" horiz-adv-x="798" d="M98 283q9 9 32 10t32 -8q8 -34 12 -50t14.5 -46.5t20 -46t26.5 -37t37.5 -32t49.5 -18.5t65 -8q66 0 120 37t54 106q0 67 -42 108t-167 93q-124 52 -174.5 111t-50.5 168q0 96 86.5 162.5t202.5 66.5q47 0 97 -7t103 -18.5t68 -13.5q-3 -108 -12 -217q-9 -9 -33 -10 t-33 8q-8 49 -26.5 86t-39 56t-46.5 30.5t-43.5 14.5t-34.5 3q-57 0 -100.5 -35.5t-43.5 -95.5q0 -28 6 -50t21 -40t28.5 -30t42.5 -26t48 -21.5t59 -22.5q240 -90 240 -272q0 -58 -23 -104.5t-58.5 -74.5t-80.5 -46.5t-85.5 -25.5t-78.5 -7q-100 0 -186 22q-14 4 -41 4 q-21 0 -51 -6q0 96 -15 283zM432 1352q77 -125 223 -287q-21 -30 -47 -35q-118 74 -211 170q-115 -115 -213 -170q-25 6 -45 35q157 174 228 287q35 8 65 0z" />
<glyph unicode="&#x15e;" horiz-adv-x="993" d="M451 -197q-53 0 -93 -12l-12 12l74 178q-74 3 -169.5 24.5t-154.5 21.5q-19 77 -27 136t-14 175q33 17 67 6q64 -291 359 -291q123 0 189.5 64.5t66.5 187.5q0 42 -9.5 78t-22.5 62t-37.5 49.5t-44 38.5t-53 31.5t-53.5 24.5t-55 21q-61 23 -107.5 45.5t-96 57 t-81.5 72.5t-52.5 91.5t-20.5 116.5q0 158 114.5 256.5t275.5 98.5q88 0 138.5 -10t91.5 -25t84 -21q29 -150 37 -264q-25 -20 -67 -12q-14 46 -28 80t-39 70t-55.5 59t-76.5 38t-104 15q-89 0 -156.5 -70.5t-67.5 -158.5q0 -36 12.5 -68.5t30.5 -57.5t48 -49t55 -39.5 t63 -33t60.5 -26.5t56.5 -22q71 -27 124.5 -56t103.5 -73t77 -106.5t27 -140.5q0 -97 -51.5 -185.5t-140.5 -144.5q-99 -61 -227 -67l-44 -117q24 6 54 6q63 0 104 -35t41 -92q0 -66 -62.5 -109t-156.5 -43q-74 0 -152 35q0 32 21 53q77 -28 119 -28q47 0 75.5 21.5 t28.5 60.5q0 71 -67 71z" />
<glyph unicode="&#x15f;" horiz-adv-x="798" d="M98 283q9 9 32 10t32 -8q8 -34 12 -50t14.5 -46.5t20 -46t26.5 -37t37.5 -32t49.5 -18.5t65 -8q66 0 120 37t54 106q0 67 -42 108t-167 93q-124 52 -174.5 111t-50.5 168q0 96 86.5 162.5t202.5 66.5q47 0 97 -7t103 -18.5t68 -13.5q-3 -108 -12 -217q-9 -9 -33 -10 t-33 8q-8 49 -26.5 86t-39 56t-46.5 30.5t-43.5 14.5t-34.5 3q-57 0 -100.5 -35.5t-43.5 -95.5q0 -28 6 -50t21 -40t28.5 -30t42.5 -26t48 -21.5t59 -22.5q240 -90 240 -272q0 -67 -29.5 -118t-77 -79.5t-96 -43t-97.5 -17.5l-44 -117q24 6 53 6q63 0 104 -35t41 -92 q0 -66 -62.5 -109t-156.5 -43q-46 0 -77 8t-74 27q0 33 20 53q77 -28 119 -28q47 0 75.5 21.5t28.5 60.5q0 71 -67 71q-52 0 -92 -12l-13 12l74 178q-73 4 -141 21q-14 4 -41 4q-21 0 -51 -6q0 96 -15 283z" />
<glyph unicode="&#x160;" horiz-adv-x="993" d="M440 1427q-75 93 -207 195l33 41q121 -53 217 -125q118 82 219 125l31 -41q-103 -78 -205 -195h-88zM808 1292q29 -150 37 -264q-25 -20 -67 -12q-14 46 -28 80t-39 70t-55.5 59t-76.5 38t-104 15q-89 0 -156.5 -70.5t-67.5 -158.5q0 -36 12.5 -68.5t30.5 -57.5t48 -49 t55 -39.5t63 -33t60.5 -26.5t56.5 -22q71 -27 124.5 -56t103.5 -73t77 -106.5t27 -140.5q0 -97 -51.5 -185.5t-140.5 -144.5q-108 -67 -253 -67q-98 0 -204 23.5t-164 23.5q-19 77 -27 136t-14 175q33 17 67 6q64 -291 359 -291q123 0 189.5 64.5t66.5 187.5q0 42 -9.5 78 t-22.5 62t-37.5 49.5t-44 38.5t-53 31.5t-53.5 24.5t-55 21q-61 23 -107.5 45.5t-96 57t-81.5 72.5t-52.5 91.5t-20.5 116.5q0 158 114.5 256.5t275.5 98.5q88 0 138.5 -10t91.5 -25t84 -21z" />
<glyph unicode="&#x161;" horiz-adv-x="798" d="M98 283q9 9 32 10t32 -8q8 -34 12 -50t14.5 -46.5t20 -46t26.5 -37t37.5 -32t49.5 -18.5t65 -8q66 0 120 37t54 106q0 67 -42 108t-167 93q-124 52 -174.5 111t-50.5 168q0 96 86.5 162.5t202.5 66.5q47 0 97 -7t103 -18.5t68 -13.5q-3 -108 -12 -217q-9 -9 -33 -10 t-33 8q-8 49 -26.5 86t-39 56t-46.5 30.5t-43.5 14.5t-34.5 3q-57 0 -100.5 -35.5t-43.5 -95.5q0 -28 6 -50t21 -40t28.5 -30t42.5 -26t48 -21.5t59 -22.5q240 -90 240 -272q0 -58 -23 -104.5t-58.5 -74.5t-80.5 -46.5t-85.5 -25.5t-78.5 -7q-100 0 -186 22q-14 4 -41 4 q-21 0 -51 -6q0 96 -15 283zM346 1028q-77 125 -207 266l41 27q142 -105 217 -184q80 82 221 184l39 -27q-136 -151 -208 -266h-103z" />
<glyph unicode="&#x162;" horiz-adv-x="1222" d="M633 -197q-52 0 -92 -12l-13 12l82 197q-82 0 -266 -4q-9 9 -9 33.5t9 33.5q47 2 72.5 4t51.5 9.5t37.5 18.5t21.5 32.5t13 50t3 72.5v788q0 101 -21.5 152t-75.5 51h-100q-107 0 -174 -49.5t-96 -167.5q-45 0 -70 10q40 170 51 297q0 6 9 6q208 -16 477 -16h176 q272 0 459 16q2 0 4 -2.5t2 -3.5q3 -136 26 -291q-22 -10 -69 -10q-25 115 -95 163t-190 48h-45q-53 0 -73.5 -52t-20.5 -157v-782q0 -44 2.5 -72.5t12.5 -50t21.5 -32.5t37.5 -18.5t51.5 -9.5t72.5 -4q9 -9 9 -33.5t-9 -33.5q-64 2 -235 4l-51 -137q24 6 53 6q63 0 104 -35 t41 -92q0 -66 -62.5 -109t-156.5 -43q-46 0 -77 8t-74 27q0 33 20 53q77 -28 119 -28q47 0 75.5 21.5t28.5 60.5q0 71 -67 71z" />
<glyph unicode="&#x163;" horiz-adv-x="647" d="M344 -197q-52 0 -92 -12l-12 12l74 178q-132 17 -132 201v617h-121q-10 0 -10 12v27q0 15 9 28t28 13h94q0 78 -1 129t-2 66.5t-2 25.5t-1 16q0 15 45 28q36 10 70 29q36 19 45 19q16 0 16 -18q-8 -83 -8 -216v-79h246q16 0 16 -13v-41q0 -12 -15.5 -19t-33.5 -7h-213 v-518q0 -101 14.5 -145t53.5 -44q93 0 168 58q30 -3 36 -35q-99 -112 -231 -132l-45 -120q24 6 53 6q63 0 104.5 -35t41.5 -92q0 -66 -63 -109t-157 -43q-46 0 -77 8t-74 27q0 33 20 53q77 -28 119 -28q47 0 76 21.5t29 60.5q0 71 -68 71z" />
<glyph unicode="&#x164;" horiz-adv-x="1222" d="M567 1427q-75 93 -207 195l33 41q121 -53 217 -125q118 82 219 125l31 -41q-103 -78 -205 -195h-88zM717 250q0 -44 2.5 -72.5t12.5 -50t21.5 -32.5t37.5 -18.5t51.5 -9.5t72.5 -4q9 -9 9 -33.5t-9 -33.5q-204 4 -284 4q-87 0 -287 -4q-9 9 -9 33.5t9 33.5q47 2 72.5 4 t51.5 9.5t37.5 18.5t21.5 32.5t13 50t3 72.5v788q0 101 -21.5 152t-75.5 51h-100q-107 0 -174 -49.5t-96 -167.5q-45 0 -70 10q40 170 51 297q0 6 9 6q208 -16 477 -16h176q272 0 459 16q2 0 4 -2.5t2 -3.5q3 -136 26 -291q-22 -10 -69 -10q-25 115 -95 163t-190 48h-45 q-53 0 -73.5 -52t-20.5 -157v-782z" />
<glyph unicode="&#x165;" horiz-adv-x="765" d="M545 1430q56 0 89.5 -45.5t33.5 -104.5q0 -67 -56 -136.5t-153 -80.5l-10 35q59 12 94 56t35 85q0 20 -8.5 31.5t-20.5 11.5q-94 0 -94 78q0 27 23.5 48.5t66.5 21.5zM88 879h94q0 78 -1 129t-2 66.5t-2 25.5t-1 16q0 15 45 28q36 10 70 29q36 19 45 19q16 0 16 -18 q-8 -83 -8 -216v-79h246q16 0 16 -13v-41q0 -12 -15.5 -19t-33.5 -7h-213v-518q0 -101 14.5 -145t53.5 -44q93 0 168 58q30 -3 36 -35q-59 -66 -131.5 -100.5t-144.5 -34.5q-158 0 -158 202v617h-121q-10 0 -10 12v27q0 15 9 28t28 13z" />
<glyph unicode="&#x166;" horiz-adv-x="1222" d="M717 250q0 -44 2.5 -72.5t12.5 -50t21.5 -32.5t37.5 -18.5t51.5 -9.5t72.5 -4q9 -9 9 -33.5t-9 -33.5q-204 4 -284 4q-87 0 -287 -4q-9 9 -9 33.5t9 33.5q47 2 72.5 4t51.5 9.5t37.5 18.5t21.5 32.5t13 50t3 72.5v407h-254q-11 0 -17 9t-6 20q0 16 13 33.5t26 17.5h238 v301q0 101 -21.5 152t-75.5 51h-100q-107 0 -174 -49.5t-96 -167.5q-45 0 -70 10q40 170 51 297q0 6 9 6q208 -16 477 -16h176q272 0 459 16q2 0 4 -2.5t2 -3.5q3 -136 26 -291q-22 -10 -69 -10q-25 115 -95 163t-190 48h-45q-53 0 -73.5 -52t-20.5 -157v-295h278 q12 0 18.5 -8.5t6.5 -17.5q0 -19 -12.5 -36.5t-30.5 -17.5h-260v-407z" />
<glyph unicode="&#x167;" horiz-adv-x="647" d="M88 879h94q0 78 -1 129t-2 66.5t-2 25.5t-1 16q0 15 45 28q36 10 70 29q36 19 45 19q16 0 16 -18q-8 -83 -8 -216v-79h246q16 0 16 -13v-41q0 -12 -15.5 -19t-33.5 -7h-213v-217h205q12 0 18 -8.5t6 -18.5q0 -19 -12.5 -36t-30.5 -17h-186v-221q0 -101 14.5 -145 t53.5 -44q93 0 168 58q30 -3 36 -35q-59 -66 -131.5 -100.5t-144.5 -34.5q-158 0 -158 202v320h-121q-22 0 -22 28q0 16 13 34t26 18h104v217h-121q-10 0 -10 12v27q0 15 9 28t28 13z" />
<glyph unicode="&#x168;" horiz-adv-x="1353" d="M592 1634q35 0 69 -17t58 -37t58 -37t69 -17t55 21.5t41 84.5q33 3 55 -12q-19 -95 -64 -149t-114 -54q-13 0 -26 3.5t-28 12t-24.5 14.5t-27.5 18.5t-25 17.5q-63 39 -110 39q-38 0 -58.5 -23t-36.5 -76q-37 -7 -55 11q23 97 62 148.5t102 51.5zM352 1071v-526 q0 -63 2.5 -105.5t12 -98.5t32 -101.5t58.5 -79.5q102 -97 243 -97q72 0 129.5 16.5t96.5 43t67.5 67.5t44 82t25 95.5t12 99t2.5 100.5v504q0 37 -3 62t-7 44.5t-16 32t-22.5 20.5t-35.5 13t-44.5 7.5t-59.5 6.5q-9 9 -9 34t9 34q188 -4 237 -4q53 0 209 4q9 -9 9 -34 t-9 -34q-37 -4 -55 -7t-39.5 -11t-30.5 -19t-18 -31t-11.5 -48t-2.5 -70v-467q0 -116 -13.5 -206t-49 -170.5t-93.5 -133.5t-150 -83.5t-215 -30.5q-70 0 -131.5 11t-127.5 44t-112.5 86t-77 144.5t-30.5 211.5v594q0 65 -6.5 100.5t-27.5 54t-46 23.5t-78 8q-9 9 -9 34 t9 34q160 -4 244 -4q85 0 277 4q9 -9 9 -34t-9 -34q-45 -2 -69.5 -4t-49.5 -9t-35.5 -18t-20 -32.5t-12 -50t-2.5 -72.5z" />
<glyph unicode="&#x169;" horiz-adv-x="1087" d="M410 1282q34 0 68.5 -17t58 -37t58 -37t69.5 -17t55 21.5t41 84.5q33 3 55 -12q-19 -95 -64 -149t-114 -54q-13 0 -26 3.5t-28.5 12t-24 13.5t-28 18.5t-24.5 17.5q-63 39 -111 39q-38 0 -58 -22.5t-36 -75.5q-38 -7 -55 10q23 97 62 149t102 52zM444 -20 q-59 0 -105 15.5t-75.5 41.5t-48.5 62.5t-27 75.5t-8 83v393q0 67 -12 100.5t-37.5 46.5t-77.5 17q-9 9 -9 34t9 34q140 -4 209 -4q52 0 72 4q7 0 11.5 -4t4.5 -9q-8 -150 -8 -211v-372q0 -52 11.5 -91.5t28.5 -61.5t40.5 -36t43 -18t40.5 -4q40 0 95 25.5t110 72.5 q21 18 26.5 33.5t5.5 46.5v395q0 68 -11.5 102t-37 47.5t-78.5 16.5q-9 9 -9 34t9 34q140 -4 209 -4q52 0 72 4q7 0 11.5 -4t4.5 -9q-8 -150 -8 -211v-393q0 -41 5 -65t21 -43t45.5 -28t78.5 -13q9 -9 9 -28t-9 -28q-166 -19 -242 -81q-19 -7 -39 0q-17 68 -22 120 q-2 10 -12 9.5t-19 -7.5q-149 -122 -277 -122z" />
<glyph unicode="&#x16a;" horiz-adv-x="1353" d="M928 1524h-459q-12 0 -19.5 12t-7.5 25q0 20 14.5 42.5t30.5 22.5h461q13 0 21 -12t8 -23q0 -21 -15 -44t-34 -23zM352 1071v-526q0 -63 2.5 -105.5t12 -98.5t32 -101.5t58.5 -79.5q102 -97 243 -97q72 0 129.5 16.5t96.5 43t67.5 67.5t44 82t25 95.5t12 99t2.5 100.5 v504q0 37 -3 62t-7 44.5t-16 32t-22.5 20.5t-35.5 13t-44.5 7.5t-59.5 6.5q-9 9 -9 34t9 34q188 -4 237 -4q53 0 209 4q9 -9 9 -34t-9 -34q-37 -4 -55 -7t-39.5 -11t-30.5 -19t-18 -31t-11.5 -48t-2.5 -70v-467q0 -116 -13.5 -206t-49 -170.5t-93.5 -133.5t-150 -83.5 t-215 -30.5q-70 0 -131.5 11t-127.5 44t-112.5 86t-77 144.5t-30.5 211.5v594q0 65 -6.5 100.5t-27.5 54t-46 23.5t-78 8q-9 9 -9 34t9 34q160 -4 244 -4q85 0 277 4q9 -9 9 -34t-9 -34q-45 -2 -69.5 -4t-49.5 -9t-35.5 -18t-20 -32.5t-12 -50t-2.5 -72.5z" />
<glyph unicode="&#x16b;" horiz-adv-x="1087" d="M743 1061h-458q-12 0 -19.5 12.5t-7.5 24.5q0 20 14.5 42.5t30.5 22.5h461q13 0 21 -12t8 -23q0 -21 -15.5 -44t-34.5 -23zM444 -20q-59 0 -105 15.5t-75.5 41.5t-48.5 62.5t-27 75.5t-8 83v393q0 97 -25.5 127.5t-101.5 36.5q-9 9 -9 34t9 34q140 -4 209 -4q52 0 72 4 q16 0 16 -13q-8 -150 -8 -211v-372q0 -64 16.5 -109t43.5 -65.5t52 -28.5t52 -8q40 0 95 25.5t110 72.5q21 18 26.5 33.5t5.5 46.5v395q0 99 -25 130t-102 36q-9 9 -9 34t9 34q140 -4 209 -4q52 0 72 4q16 0 16 -13q-8 -150 -8 -211v-393q0 -79 28 -110.5t122 -38.5 q9 -9 9 -28t-9 -28q-166 -19 -242 -81q-19 -7 -39 0q-17 68 -22 120q-2 10 -12 9.5t-19 -7.5q-149 -122 -277 -122z" />
<glyph unicode="&#x16c;" horiz-adv-x="1353" d="M991 1647q-9 -105 -90.5 -168.5t-187.5 -63.5q-115 0 -193.5 63.5t-85.5 168.5h58q12 -58 74 -91.5t147 -33.5q80 0 145.5 34t75.5 91h57zM352 1071v-526q0 -63 2.5 -105.5t12 -98.5t32 -101.5t58.5 -79.5q102 -97 243 -97q72 0 129.5 16.5t96.5 43t67.5 67.5t44 82 t25 95.5t12 99t2.5 100.5v504q0 37 -3 62t-7 44.5t-16 32t-22.5 20.5t-35.5 13t-44.5 7.5t-59.5 6.5q-9 9 -9 34t9 34q188 -4 237 -4q53 0 209 4q9 -9 9 -34t-9 -34q-37 -4 -55 -7t-39.5 -11t-30.5 -19t-18 -31t-11.5 -48t-2.5 -70v-467q0 -116 -13.5 -206t-49 -170.5 t-93.5 -133.5t-150 -83.5t-215 -30.5q-70 0 -131.5 11t-127.5 44t-112.5 86t-77 144.5t-30.5 211.5v594q0 65 -6.5 100.5t-27.5 54t-46 23.5t-78 8q-9 9 -9 34t9 34q160 -4 244 -4q85 0 277 4q9 -9 9 -34t-9 -34q-45 -2 -69.5 -4t-49.5 -9t-35.5 -18t-20 -32.5t-12 -50 t-2.5 -72.5z" />
<glyph unicode="&#x16d;" horiz-adv-x="1087" d="M289 1323q17 -82 77.5 -133t143.5 -51t144.5 49t76.5 135l55 -25q-18 -126 -99 -201t-177 -75q-108 0 -181.5 73t-95.5 203zM444 -20q-59 0 -105 15.5t-75.5 41.5t-48.5 62.5t-27 75.5t-8 83v393q0 97 -25.5 127.5t-101.5 36.5q-9 9 -9 34t9 34q140 -4 209 -4q52 0 72 4 q16 0 16 -13q-8 -150 -8 -211v-372q0 -64 16.5 -109t43.5 -65.5t52 -28.5t52 -8q40 0 95 25.5t110 72.5q21 18 26.5 33.5t5.5 46.5v395q0 99 -25 130t-102 36q-9 9 -9 34t9 34q140 -4 209 -4q52 0 72 4q16 0 16 -13q-8 -150 -8 -211v-393q0 -79 28 -110.5t122 -38.5 q9 -9 9 -28t-9 -28q-166 -19 -242 -81q-19 -7 -39 0q-17 68 -22 120q-2 10 -12 9.5t-19 -7.5q-149 -122 -277 -122z" />
<glyph unicode="&#x16e;" horiz-adv-x="1353" d="M711 1589q-46 0 -72.5 -30.5t-26.5 -77.5q0 -45 27 -77t72 -32t71.5 32t26.5 77q0 48 -26.5 78t-71.5 30zM530 1481q0 70 55 122t126 52t125.5 -51.5t54.5 -122.5q0 -69 -53.5 -121.5t-126.5 -52.5q-71 0 -126 52t-55 122zM352 1071v-526q0 -63 2.5 -105.5t12 -98.5 t32 -101.5t58.5 -79.5q102 -97 243 -97q72 0 129.5 16.5t96.5 43t67.5 67.5t44 82t25 95.5t12 99t2.5 100.5v504q0 37 -3 62t-7 44.5t-16 32t-22.5 20.5t-35.5 13t-44.5 7.5t-59.5 6.5q-9 9 -9 34t9 34q188 -4 237 -4q53 0 209 4q9 -9 9 -34t-9 -34q-37 -4 -55 -7t-39.5 -11 t-30.5 -19t-18 -31t-11.5 -48t-2.5 -70v-467q0 -116 -13.5 -206t-49 -170.5t-93.5 -133.5t-150 -83.5t-215 -30.5q-70 0 -131.5 11t-127.5 44t-112.5 86t-77 144.5t-30.5 211.5v594q0 65 -6.5 100.5t-27.5 54t-46 23.5t-78 8q-9 9 -9 34t9 34q160 -4 244 -4q85 0 277 4 q9 -9 9 -34t-9 -34q-45 -2 -69.5 -4t-49.5 -9t-35.5 -18t-20 -32.5t-12 -50t-2.5 -72.5z" />
<glyph unicode="&#x16f;" horiz-adv-x="1087" d="M496 1303q-46 0 -72.5 -31t-26.5 -78q0 -45 27 -77t72 -32t71.5 32t26.5 77q0 48 -26.5 78.5t-71.5 30.5zM315 1194q0 70 55 122t126 52t125.5 -51.5t54.5 -122.5q0 -69 -53.5 -121.5t-126.5 -52.5q-71 0 -126 52t-55 122zM444 -20q-59 0 -105 15.5t-75.5 41.5 t-48.5 62.5t-27 75.5t-8 83v393q0 97 -25.5 127.5t-101.5 36.5q-9 9 -9 34t9 34q140 -4 209 -4q52 0 72 4q16 0 16 -13q-8 -150 -8 -211v-372q0 -64 16.5 -109t43.5 -65.5t52 -28.5t52 -8q40 0 95 25.5t110 72.5q21 18 26.5 33.5t5.5 46.5v395q0 99 -25 130t-102 36 q-9 9 -9 34t9 34q140 -4 209 -4q52 0 72 4q16 0 16 -13q-8 -150 -8 -211v-393q0 -79 28 -110.5t122 -38.5q9 -9 9 -28t-9 -28q-166 -19 -242 -81q-19 -7 -39 0q-17 68 -22 120q-2 10 -12 9.5t-19 -7.5q-149 -122 -277 -122z" />
<glyph unicode="&#x170;" horiz-adv-x="1353" d="M1053 1622q0 -26 -15 -41l-202 -172q-6 -6 -17 -6q-8 0 -17 8t-9 19q0 9 7 22l122 223q16 25 47 25q41 0 62.5 -24.5t21.5 -53.5zM784 1632q0 -28 -14 -39l-180 -165q-17 -15 -29 -15q-11 0 -18.5 7.5t-7.5 17.5q0 12 5 22l111 226q15 24 56 24q27 0 52 -22t25 -56z M352 1071v-526q0 -63 2.5 -105.5t12 -98.5t32 -101.5t58.5 -79.5q102 -97 243 -97q72 0 129.5 16.5t96.5 43t67.5 67.5t44 82t25 95.5t12 99t2.5 100.5v504q0 37 -3 62t-7 44.5t-16 32t-22.5 20.5t-35.5 13t-44.5 7.5t-59.5 6.5q-9 9 -9 34t9 34q188 -4 237 -4q53 0 209 4 q9 -9 9 -34t-9 -34q-37 -4 -55 -7t-39.5 -11t-30.5 -19t-18 -31t-11.5 -48t-2.5 -70v-467q0 -116 -13.5 -206t-49 -170.5t-93.5 -133.5t-150 -83.5t-215 -30.5q-70 0 -131.5 11t-127.5 44t-112.5 86t-77 144.5t-30.5 211.5v594q0 65 -6.5 100.5t-27.5 54t-46 23.5t-78 8 q-9 9 -9 34t9 34q160 -4 244 -4q85 0 277 4q9 -9 9 -34t-9 -34q-45 -2 -69.5 -4t-49.5 -9t-35.5 -18t-20 -32.5t-12 -50t-2.5 -72.5z" />
<glyph unicode="&#x171;" horiz-adv-x="1087" d="M866 1251q0 -25 -14 -39l-234 -225q-4 -4 -12 -4q-9 0 -18.5 8t-9.5 19q0 6 2 8l159 285q13 24 49 24q32 0 55 -23.5t23 -52.5zM596 1264q0 -20 -10 -33l-209 -248q-6 -6 -17 -6q-10 0 -19 8t-9 19q0 4 2 6l131 299q12 28 53 28q33 0 55.5 -21t22.5 -52zM444 -20 q-59 0 -105 15.5t-75.5 41.5t-48.5 62.5t-27 75.5t-8 83v393q0 97 -25.5 127.5t-101.5 36.5q-9 9 -9 34t9 34q140 -4 209 -4q52 0 72 4q16 0 16 -13q-8 -150 -8 -211v-372q0 -64 16.5 -109t43.5 -65.5t52 -28.5t52 -8q40 0 95 25.5t110 72.5q21 18 26.5 33.5t5.5 46.5v395 q0 99 -25 130t-102 36q-9 9 -9 34t9 34q140 -4 209 -4q52 0 72 4q16 0 16 -13q-8 -150 -8 -211v-393q0 -79 28 -110.5t122 -38.5q9 -9 9 -28t-9 -28q-166 -19 -242 -81q-19 -7 -39 0q-17 68 -22 120q-2 10 -12 9.5t-19 -7.5q-149 -122 -277 -122z" />
<glyph unicode="&#x172;" horiz-adv-x="1353" d="M1020 -276q-86 -134 -225 -134q-82 0 -131.5 36.5t-49.5 115.5q0 114 186 249q-59 -11 -143 -11q-70 0 -131.5 11t-127.5 44t-112.5 86t-77 144.5t-30.5 211.5v594q0 65 -6.5 100.5t-27.5 54t-46 23.5t-78 8q-9 9 -9 34t9 34q160 -4 244 -4q85 0 277 4q9 -9 9 -34t-9 -34 q-45 -2 -69.5 -4t-49.5 -9t-35.5 -18t-20 -32.5t-12 -50t-2.5 -72.5v-526q0 -63 2.5 -105.5t12 -98.5t32 -101.5t58.5 -79.5q102 -97 243 -97q72 0 129.5 16.5t96.5 43t67.5 67.5t44 82t25 95.5t12 99t2.5 100.5v504q0 37 -3 62t-7 44.5t-16 32t-22.5 20.5t-35.5 13 t-44.5 7.5t-59.5 6.5q-9 9 -9 34t9 34q188 -4 237 -4q53 0 209 4q9 -9 9 -34t-9 -34q-37 -4 -55 -7t-39.5 -11t-30.5 -19t-18 -31t-11.5 -48t-2.5 -70v-467q0 -202 -47 -340t-162 -210q-131 -107 -179.5 -164.5t-48.5 -125.5q0 -43 24.5 -69.5t78.5 -26.5q28 0 53 11.5 t40 24.5t44 42q26 0 39 -22z" />
<glyph unicode="&#x173;" horiz-adv-x="1087" d="M1026 -276q-86 -134 -225 -134q-82 0 -131 36.5t-49 115.5q0 70 36 145.5t109 127.5q-10 48 -14 85q-2 10 -12 9.5t-19 -7.5q-149 -122 -277 -122q-59 0 -105 15.5t-75.5 41.5t-48.5 62.5t-27 75.5t-8 83v393q0 97 -25.5 127.5t-101.5 36.5q-9 9 -9 34t9 34 q140 -4 209 -4q52 0 72 4q16 0 16 -13q-8 -150 -8 -211v-372q0 -64 16.5 -109t43.5 -65.5t52 -28.5t52 -8q40 0 95 25.5t110 72.5q21 18 26.5 33.5t5.5 46.5v395q0 99 -25 130t-102 36q-9 9 -9 34t9 34q140 -4 209 -4q52 0 72 4q16 0 16 -13q-8 -150 -8 -211v-393 q0 -79 28 -110.5t122 -38.5q9 -9 9 -28t-9 -28q-101 -11 -170 -39q-70 -39 -103.5 -113t-33.5 -145q0 -96 102 -96q28 0 53 11.5t40 24.5t44 42q26 0 39 -22z" />
<glyph unicode="&#x174;" horiz-adv-x="1947" d="M975 1655q90 -109 211 -199q-11 -34 -33 -43q-131 61 -217 125q-97 -70 -219 -125q-23 15 -29 43q86 64 207 199q37 22 80 0zM1659 1157q6 18 6 32.5t-4 24.5t-16 17t-22.5 11.5t-30 7.5t-32.5 4t-36 3q-9 9 -9 34t9 34q164 -4 225 -4q60 0 178 4q9 -9 9 -34t-9 -34 q-79 -4 -116.5 -34.5t-59.5 -89.5l-412 -1104q-17 -54 -47 -54q-17 0 -27 13t-20 43l-235 680q-20 57 -29 57q-13 0 -35 -51l-305 -686q-13 -30 -24 -43t-29 -13q-16 0 -25.5 13.5t-19.5 42.5l-385 1108q-15 43 -25 64t-28.5 33.5t-35 15t-57.5 5.5q-9 9 -9 34t9 34 q118 -4 191 -4q101 0 237 4q9 -9 9 -34t-9 -34q-20 -1 -34 -2.5t-29.5 -5.5t-23.5 -9.5t-15.5 -15t-5.5 -22.5t6 -31l299 -905l9 -2l265 600q19 44 19 72q0 16 -15 63l-47 136q-39 115 -172 122q-9 9 -9 34t9 34q132 -4 205 -4q88 0 256 4q9 -9 9 -34t-9 -34 q-23 -2 -35 -3.5t-31 -6t-27.5 -12.5t-16 -20.5t-6.5 -32.5t10 -47l281 -865l7 -2z" />
<glyph unicode="&#x175;" horiz-adv-x="1529" d="M784 1350q75 -122 224 -287q-21 -30 -47 -35q-118 74 -211 170q-115 -115 -213 -170q-25 6 -45 35q154 171 227 287q35 8 65 0zM416 815q-71 -4 -82.5 -34t20.5 -103l164 -422q20 -50 28 -49t29 53l144 363l-13 32q-14 35 -21.5 52t-21.5 40.5t-28 34.5t-36 20.5 t-50 12.5q-9 9 -9 34t9 34q122 -4 180 -4q83 0 205 4q9 -9 9 -34t-9 -34q-80 -6 -92.5 -29.5t17.5 -95.5l177 -448q9 -22 15 -28t13 2t17 34l172 426q11 27 15.5 42t4.5 35t-12 31t-39.5 20t-72.5 11q-9 9 -9 34t9 34q122 -4 209 -4q65 0 147 4q9 -9 9 -34t-9 -34 q-72 -4 -108 -39.5t-65 -107.5l-267 -650q-17 -43 -47 -43q-32 0 -49 41l-211 508l-207 -504q-19 -45 -49 -45q-32 0 -49 41l-268 662q-32 80 -61 105t-101 32q-9 9 -9 34t9 34q108 -4 186 -4q85 0 207 4q9 -9 9 -34t-9 -34z" />
<glyph unicode="&#x176;" horiz-adv-x="1177" d="M639 1655q90 -109 211 -199q-11 -34 -33 -43q-131 61 -217 125q-97 -70 -219 -125q-23 15 -29 43q86 64 207 199q37 22 80 0zM690 250q0 -44 3 -72.5t13 -50t21.5 -32.5t37.5 -18.5t51.5 -9.5t72.5 -4q9 -9 9 -33.5t-9 -33.5q-204 4 -285 4q-87 0 -287 -4q-9 9 -9 33.5 t9 33.5q47 2 72.5 4t51.5 9.5t37.5 18.5t21.5 32.5t13 50t3 72.5v260q0 56 -8 84t-35 74l-269 452q-51 85 -87 108.5t-105 28.5q-9 9 -10 34t8 34q122 -4 209 -4q86 0 234 4q9 -9 9 -34t-9 -34q-85 -4 -98.5 -26t24.5 -87l238 -419q9 -17 16 -22.5t14 -1.5t15 20l226 428 q16 31 19 51t-8.5 32t-32.5 17.5t-57 7.5q-9 9 -9 34t9 34q132 -4 186 -4q56 0 170 4q9 -9 9 -34t-9 -34q-74 -7 -113.5 -32t-80.5 -99l-245 -442q-24 -42 -30 -73t-6 -83v-278z" />
<glyph unicode="&#x177;" horiz-adv-x="1054" d="M596 1352q77 -125 223 -287q-21 -30 -47 -35q-118 74 -211 170q-115 -115 -213 -170q-25 6 -45 35q154 171 227 287q36 8 66 0zM418 -328q-83 -147 -199 -147q-41 0 -68.5 22t-27.5 54q0 26 25 57t65 31q11 0 27.5 -3t31.5 -3q70 0 103 59q48 98 80 188q13 38 1.5 94 t-30.5 99l-232 539q-39 91 -68.5 118t-92.5 35q-9 9 -9 34t9 34q82 -4 166 -4q79 0 231 4q9 -9 9 -34t-9 -34q-34 -3 -54.5 -10t-30 -15.5t-8 -26.5t7 -34.5t18.5 -46.5l182 -426q25 -59 49 -2l203 469q8 18 9 32t-5.5 23.5t-16 16t-25 10.5t-29 6t-32.5 4q-9 9 -9 34t9 34 q122 -4 187 -4q63 0 145 4q9 -9 9 -34t-9 -34q-70 -9 -102.5 -36t-63.5 -95q-139 -298 -362 -836q-40 -98 -84 -176z" />
<glyph unicode="&#x178;" horiz-adv-x="1177" d="M358 1538q0 40 28.5 69t68.5 29t68 -29t28 -69t-28 -68t-68 -28t-68.5 28t-28.5 68zM705 1538q0 40 28 69t68 29t68 -29t28 -69t-28 -68t-68 -28t-68 28t-28 68zM690 250q0 -44 3 -72.5t13 -50t21.5 -32.5t37.5 -18.5t51.5 -9.5t72.5 -4q9 -9 9 -33.5t-9 -33.5 q-204 4 -285 4q-87 0 -287 -4q-9 9 -9 33.5t9 33.5q47 2 72.5 4t51.5 9.5t37.5 18.5t21.5 32.5t13 50t3 72.5v260q0 56 -8 84t-35 74l-269 452q-51 85 -87 108.5t-105 28.5q-9 9 -10 34t8 34q122 -4 209 -4q86 0 234 4q9 -9 9 -34t-9 -34q-85 -4 -98.5 -26t24.5 -87 l238 -419q9 -17 16 -22.5t14 -1.5t15 20l226 428q16 31 19 51t-8.5 32t-32.5 17.5t-57 7.5q-9 9 -9 34t9 34q132 -4 186 -4q56 0 170 4q9 -9 9 -34t-9 -34q-74 -7 -113.5 -32t-80.5 -99l-245 -442q-24 -42 -30 -73t-6 -83v-278z" />
<glyph unicode="&#x179;" horiz-adv-x="1236" d="M1128 -4q-204 4 -259 4h-746q-39 0 -39 31q0 26 16 47q164 244 408.5 585t388.5 523q16 22 16 37q0 18 -20 18l-432 -8q-113 -2 -177.5 -55t-97.5 -162q-28 0 -61 10q36 191 45 311q203 -16 371 -16h452q35 0 88.5 2t61.5 2q26 0 26 -22q0 -18 -9 -35t-40 -58 q-297 -382 -768 -1063q-16 -29 -16 -41q0 -29 51 -28l395 8q54 1 97.5 10t76 28.5t55 38.5t44 54.5t33.5 60t32 70.5q29 0 64 -10q-42 -176 -56 -342zM713 1679q88 -40 127 -106l-295 -119q-57 -24 -86 -24q-13 0 -22 9t-9 21q0 22 31 43z" />
<glyph unicode="&#x17a;" horiz-adv-x="868" d="M524 1374q12 4 29 4q64 0 113 -47l6 -22l-236 -224q-38 -38 -61 -38q-11 0 -20 8t-9 18q0 16 4 25.5t19 31.5zM145 899q55 -20 121 -20h375q26 0 55.5 1t49 2t22.5 1q10 0 17.5 -4.5t7.5 -10.5q0 -13 -37 -75q-104 -171 -244.5 -379t-247.5 -344h273q77 1 118 35t82 120 l29 60q40 0 61 -13q-21 -156 -65 -278l-639 6q-47 0 -47 25q0 17 18 41q306 412 504 743l-262 -6q-115 -2 -166 -187q-36 -7 -68 7q29 160 31 264q0 4 4 8t8 4z" />
<glyph unicode="&#x17b;" horiz-adv-x="1236" d="M528 1536q0 43 32 74.5t75 31.5t74.5 -31.5t31.5 -74.5t-31.5 -74.5t-74.5 -31.5t-75 31.5t-32 74.5zM1128 -4q-204 4 -259 4h-746q-39 0 -39 31q0 26 16 47q164 244 408.5 585t388.5 523q16 22 16 37q0 18 -20 18l-432 -8q-113 -2 -177.5 -55t-97.5 -162q-28 0 -61 10 q36 191 45 311q203 -16 371 -16h452q35 0 88.5 2t61.5 2q26 0 26 -22q0 -18 -9 -35t-40 -58q-297 -382 -768 -1063q-16 -29 -16 -41q0 -29 51 -28l395 8q54 1 97.5 10t76 28.5t55 38.5t44 54.5t33.5 60t32 70.5q29 0 64 -10q-42 -176 -56 -342z" />
<glyph unicode="&#x17c;" horiz-adv-x="868" d="M338 1227q0 36 34.5 67t71.5 31q40 0 69.5 -34t29.5 -72q0 -34 -33 -66.5t-74 -32.5q-37 0 -67.5 33.5t-30.5 73.5zM145 899q55 -20 121 -20h375q26 0 55.5 1t49 2t22.5 1q10 0 17.5 -4.5t7.5 -10.5q0 -13 -37 -75q-104 -171 -244.5 -379t-247.5 -344h273q77 1 118 35 t82 120l29 60q40 0 61 -13q-21 -156 -65 -278l-639 6q-47 0 -47 25q0 17 18 41q306 412 504 743l-262 -6q-115 -2 -166 -187q-36 -7 -68 7q29 160 31 264q0 4 4 8t8 4z" />
<glyph unicode="&#x17d;" horiz-adv-x="1236" d="M573 1427q-76 95 -206 195l32 41q121 -53 217 -125q116 81 220 125l30 -41q-100 -76 -204 -195h-89zM1128 -4q-204 4 -259 4h-746q-39 0 -39 31q0 26 16 47q164 244 408.5 585t388.5 523q16 22 16 37q0 18 -20 18l-432 -8q-113 -2 -177.5 -55t-97.5 -162q-28 0 -61 10 q36 191 45 311q203 -16 371 -16h452q35 0 88.5 2t61.5 2q26 0 26 -22q0 -18 -9 -35t-40 -58q-297 -382 -768 -1063q-16 -29 -16 -41q0 -29 51 -28l395 8q54 1 97.5 10t76 28.5t55 38.5t44 54.5t33.5 60t32 70.5q29 0 64 -10q-42 -176 -56 -342z" />
<glyph unicode="&#x17e;" horiz-adv-x="868" d="M385 1026q-77 125 -207 266l41 27q142 -105 217 -184q80 82 221 184l39 -27q-139 -154 -209 -266h-102zM145 899q55 -20 121 -20h375q26 0 55.5 1t49 2t22.5 1q10 0 17.5 -4.5t7.5 -10.5q0 -13 -37 -75q-104 -171 -244.5 -379t-247.5 -344h273q77 1 118 35t82 120l29 60 q40 0 61 -13q-21 -156 -65 -278l-639 6q-47 0 -47 25q0 17 18 41q306 412 504 743l-262 -6q-115 -2 -166 -187q-36 -7 -68 7q29 160 31 264q0 4 4 8t8 4z" />
<glyph unicode="&#x17f;" horiz-adv-x="595" d="M352 250q0 -45 2 -73t9.5 -49.5t16.5 -32.5t30.5 -18.5t43 -9.5t60.5 -4q9 -9 9 -33.5t-9 -33.5q-176 4 -242 4q-43 0 -215 -4q-9 9 -9 33.5t9 33.5q47 3 68.5 7.5t38.5 24.5t21.5 54.5t4.5 100.5v526q0 14 -1.5 20t-8 9.5t-20.5 3.5h-90q-11 0 -11 10v19q0 15 11 28 t36 13q84 0 84 98q0 116 30 206.5t78 142.5t102 78t108 26q59 0 97.5 -15.5t72.5 -46.5q53 -46 53 -94q0 -31 -18 -54.5t-54 -23.5q-79 0 -94 84q-7 37 -22.5 58.5t-48.5 21.5q-78 0 -110 -97t-32 -292v-721z" />
<glyph unicode="&#x180;" horiz-adv-x="1009" d="M356 743q-20 -17 -27 -35.5t-7 -50.5v-512q37 -46 70.5 -71t76.5 -25q141 0 215 113.5t74 296.5q0 148 -66.5 249t-161.5 101q-100 0 -174 -66zM342 807q102 92 229 92q67 0 132 -28.5t116.5 -79t83 -128t31.5 -167.5q0 -117 -41 -217t-107 -164t-145.5 -99.5 t-159.5 -35.5q-121 0 -180 50q-17 15 -29 14t-27 -19q-16 -18 -48 -50q-29 0 -45 25q8 39 8 145v910h-125q-11 0 -17 9t-6 19q0 16 13 34t26 18h109v10q0 35 -2 59.5t-4 43t-10 29.5t-13.5 18t-21.5 10.5t-26.5 4.5t-34.5 2q-12 1 -19 1q-9 9 -12.5 28.5t-0.5 32.5 q62 5 155.5 23t131.5 33q27 0 27 -21q-8 -82 -8 -215v-59h200q12 0 18.5 -9t6.5 -18q0 -19 -12.5 -36t-30.5 -17h-182v-238q0 -28 20 -10z" />
<glyph unicode="&#x181;" horiz-adv-x="1314" d="M253 1260q-47 -1 -79.5 -39.5t-32.5 -85.5q0 -16 7.5 -46t7.5 -47q0 -37 -21.5 -55t-50.5 -18q-32 0 -53 22t-21 53q0 45 20.5 93t58 90.5t98 70t132.5 27.5q12 0 34.5 -2t68.5 -2q42 0 127.5 2t120.5 2q440 0 440 -315q0 -80 -54.5 -154t-135.5 -115v-4 q143 -41 227 -130.5t84 -229.5q0 -56 -14 -107.5t-50.5 -102.5t-93 -88t-148.5 -60t-210 -23q-103 0 -184 2t-109 2q-68 0 -260 -4l-4 4v39q0 15 14 16l61 4q67 5 87 19.5t20 66.5v1031q0 82 -87 84zM506 680v-520q0 -53 33.5 -73.5t136.5 -20.5q113 0 189 20.5t115 60 t54 85t15 106.5q0 71 -24 131.5t-71 108t-126 75t-181 27.5h-141zM506 1167v-417h151q295 0 295 235q0 74 -25 129.5t-66.5 84.5t-85.5 42.5t-91 13.5q-45 0 -75 -1.5t-50 -7t-30.5 -10t-15.5 -17t-6 -22t-1 -30.5z" />
<glyph unicode="&#x182;" horiz-adv-x="1193" d="M383 682v-516q0 -58 29.5 -80.5t117.5 -22.5q93 0 163.5 19.5t111.5 49.5t67 72t34.5 80.5t8.5 80.5q0 39 -7.5 78t-30.5 83.5t-58.5 78t-96.5 55.5t-140 22h-199zM297 0q-66 0 -266 -4q-9 9 -9 33.5t9 33.5q41 2 63.5 4t45.5 9.5t34 18.5t20 32.5t12 50t3 72.5v821 q0 65 -6.5 100t-30 54.5t-52 24t-89.5 7.5q-9 9 -9 34t9 34q204 -4 264 -4h477l207 4l4 -4q34 -168 39 -350q-23 -15 -72 -10q-18 73 -34.5 117.5t-43 84.5t-65.5 58t-94 18h-256q-39 0 -56.5 -14t-17.5 -49v-412h223q120 0 211.5 -25t143.5 -63t85 -91t43.5 -100.5 t10.5 -99.5q0 -94 -46.5 -174.5t-115.5 -126.5q-81 -54 -177.5 -71t-240.5 -17q-49 0 -120.5 2t-102.5 2z" />
<glyph unicode="&#x183;" horiz-adv-x="1005" d="M313 111q29 -36 63 -49t85 -13q141 0 217 113t76 295q0 153 -68 252.5t-164 99.5q-22 0 -48 -3.5t-75.5 -24.5t-85.5 -58v-612zM397 1409h412l29 -287l-64 -6q-59 223 -184 223h-277v-553q104 113 250 113q140 0 249.5 -118t109.5 -298q0 -117 -40.5 -215t-106 -159.5 t-144 -95t-158.5 -33.5q-131 0 -213 71q-11 -16 -40 -44.5t-32 -31.5l-43 11q7 55 7 159v1039q0 57 -7.5 85.5t-19.5 36t-35 9.5l-65 4q-11 0 -11 10l-4 47q202 33 387 33z" />
<glyph unicode="&#x184;" horiz-adv-x="1171" d="M383 682v-516q0 -58 29.5 -80.5t117.5 -22.5q93 0 163.5 19.5t111.5 49.5t67 72t34.5 80.5t8.5 80.5q0 39 -7.5 78t-30.5 83.5t-58.5 78t-96.5 55.5t-140 22h-199zM217 965q0 91 -32 130t-111 62q-33 35 0 70q81 18 137.5 42.5t136.5 78.5q15 0 28 -5.5t13 -15.5 q-6 -82 -6 -215v-348h223q120 0 211.5 -25t143.5 -63t85 -91t43.5 -100.5t10.5 -99.5q0 -94 -46.5 -174.5t-115.5 -126.5q-81 -54 -177.5 -71t-240.5 -17q-50 0 -120 2t-97 2l-262 -4l-4 4v47q0 14 14 16l55 5q62 4 86.5 26t24.5 66v805z" />
<glyph unicode="&#x185;" horiz-adv-x="993" d="M319 133q70 -84 150 -84q140 0 216.5 115t76.5 297q0 153 -68 251.5t-166 98.5q-125 0 -209 -86v-592zM299 1430q27 0 27 -21q-7 -82 -7 -215v-406q102 111 252 111q90 0 169 -50t129.5 -145.5t50.5 -216.5q0 -118 -39.5 -216t-103 -160.5t-141 -96.5t-157.5 -34 q-126 0 -213 73q-13 -21 -63 -76q-22 0 -41 11q6 73 6 162v897q0 91 -32 130t-111 62q-33 35 0 70q81 18 137.5 42.5t136.5 78.5z" />
<glyph unicode="&#x186;" horiz-adv-x="1323" d="M1247 692q0 -145 -48.5 -275.5t-133.5 -227t-208.5 -153t-266.5 -56.5q-86 0 -161.5 13t-118.5 29t-90 31.5t-79 18.5q-32 183 -45 317q38 20 68 10q22 -72 53.5 -129t83 -108t130.5 -79t181 -28q82 0 167.5 46t159.5 137q122 150 122 415q0 151 -58 290t-167 230 t-242 91q-143 0 -255 -52.5t-220 -171.5q-30 0 -47 31q104 136 237 206.5t283 70.5q160 0 287 -52t206 -143t120.5 -208t41.5 -253z" />
<glyph unicode="&#x187;" horiz-adv-x="1323" d="M76 635q0 145 48.5 275.5t133.5 227t208.5 153.5t266.5 57q72 0 138 -10t102 -20.5t85.5 -28t67.5 -22.5q6 62 33.5 113t63.5 80.5t72.5 45.5t66.5 16q38 0 56 -24.5t18 -49.5q0 -72 -103 -72q-21 0 -47 -18t-45.5 -40t-37 -41.5t-21.5 -21.5q32 -183 45 -317 q-38 -20 -68 -10q-22 72 -53.5 129t-83 108t-130.5 79t-181 28q-83 0 -168 -45.5t-159 -136.5q-57 -70 -89.5 -178t-32.5 -238q0 -151 58 -290t167 -230t242 -91q143 0 255 52.5t220 171.5q30 0 47 -31q-104 -136 -237 -206t-283 -70q-160 0 -287 52t-206 142.5 t-120.5 207.5t-41.5 253z" />
<glyph unicode="&#x188;" horiz-adv-x="1009" d="M934 877q-16 0 -52.5 9t-54.5 9q-56 0 -92 -57q74 -52 74 -133q0 -43 -31.5 -67t-68.5 -24q-70 0 -78 74q-4 32 -10 53.5t-20.5 44t-43.5 34t-72 11.5q-103 0 -168 -97t-65 -263q0 -176 79 -283.5t195 -107.5q141 0 246 135q32 -4 43 -29q-49 -81 -105.5 -128t-109 -62.5 t-119.5 -15.5q-190 0 -297.5 122t-107.5 324q0 105 37 196t97 150.5t134.5 93t151.5 33.5q107 0 185 -32q27 52 71 88.5t86 51.5t80 15q47 0 66.5 -23t19.5 -51q0 -32 -19 -51.5t-51 -19.5z" />
<glyph unicode="&#x189;" horiz-adv-x="1435" d="M391 172q0 -38 13 -58t63 -34t147 -14q92 0 167.5 13.5t146 49t118.5 92.5t76.5 148.5t28.5 212.5q0 99 -18 191.5t-62 181.5t-109.5 154.5t-168 105.5t-230.5 40q-172 0 -172 -100v-487h199q12 0 18 -8.5t6 -18.5q0 -19 -12.5 -36t-30.5 -17h-180v-416zM303 1321 q32 0 144.5 2t193.5 2q145 0 276 -55.5t225.5 -148.5t150 -221t55.5 -269q0 -105 -22 -193.5t-60 -153t-91 -115t-111.5 -82.5t-126.5 -53t-131 -29.5t-128 -8.5q-122 0 -237 2t-136 2q-106 0 -266 -4q-9 9 -9 33.5t9 33.5q41 2 63.5 4t45.5 9.5t34 18.5t20 32.5t12 50 t3 72.5v338h-178q-11 0 -17 9t-6 19q0 16 13 34t26 18h162v403q0 65 -6.5 100t-30 54.5t-52 24t-89.5 7.5q-9 9 -9 34t9 34q164 -4 264 -4z" />
<glyph unicode="&#x18a;" horiz-adv-x="1593" d="M549 158q0 -36 13.5 -54t62 -28t147.5 -10q92 0 168 13.5t148 49t121 92.5t78.5 148.5t29.5 212.5q0 99 -19 191.5t-64 181t-111.5 154.5t-170 106t-231.5 40q-84 0 -128 -19t-44 -69v-1009zM201 45q0 16 14 18l61 5q56 4 81.5 24t25.5 68v1003q0 54 -33.5 75t-82.5 16 q-56 -4 -95 -32t-39 -79q0 -20 8.5 -50.5t8.5 -50.5q0 -32 -19.5 -50.5t-50.5 -18.5t-53.5 19t-22.5 65q0 28 10 61.5t33.5 70.5t58 66.5t89.5 49.5t122 20q9 0 57 -2t91 -2q35 0 148.5 2t185.5 2q145 0 276 -55t225 -148.5t149.5 -221.5t55.5 -269q0 -105 -22 -193.5 t-60 -153t-91 -115t-111.5 -82.5t-126 -53t-130.5 -29.5t-128 -8.5q-122 0 -234.5 2t-136.5 2q-68 0 -260 -4l-4 4v45z" />
<glyph unicode="&#x18b;" horiz-adv-x="1153" d="M795 160v551h-183q-344 0 -344 -305q0 -172 94 -256t263 -84q103 0 136.5 20.5t33.5 73.5zM616 1243h-165q-83 0 -137 -44t-91 -171l-53 6l29 314q106 -27 231 -27h447l235 4v-51q0 -8 -8 -8l-62 -6q-51 -5 -66 -18.5t-15 -67.5v-1016q0 -49 19 -70.5t62 -26.5l62 -6 q8 0 8 -10v-49q-180 4 -233 4q-67 0 -174 -2t-175 -2q-86 0 -164 22t-141.5 65t-101 114.5t-37.5 162.5q0 118 38 200t115 130t181 69t248 21h127v387q0 30 -2 41.5t-21 21.5t-52 11.5t-104 1.5z" />
<glyph unicode="&#x18c;" horiz-adv-x="1046" d="M717 254v389q0 46 -6.5 66t-28.5 45q-64 73 -166 73q-123 0 -190 -102q-60 -83 -60 -272q0 -180 67.5 -278.5t158.5 -98.5q79 0 192 98q21 18 27 33.5t6 46.5zM860 1430q27 0 27 -21q-8 -82 -8 -215v-928q0 -80 27.5 -111t121.5 -38q9 -9 9 -28t-9 -28q-173 -19 -248 -81 q-23 -6 -39 0q-22 71 -22 120q0 7 -4 9t-10 0t-11 -6q-77 -64 -137 -93.5t-119 -29.5q-162 0 -255 121t-93 315q0 219 141 360q65 61 138 92t170 31q30 0 67.5 -8.5t63.5 -17.5t28 -9q19 0 19 19v407q0 29 -9.5 39t-37.5 10h-250q-38 0 -71 -21t-56.5 -56t-39.5 -71t-26 -75 l-53 6l29 308q96 -21 217 -21h325q80 7 115 21z" />
<glyph unicode="&#x18d;" horiz-adv-x="1003" d="M475 49l35 -26l-16 32q284 102 284 383q0 65 -17 131.5t-49 125.5t-87 96.5t-123 37.5q-25 0 -48 -3.5t-51 -14.5t-51.5 -28.5t-46.5 -47t-39 -69t-25.5 -96.5t-9.5 -126q0 -81 50.5 -180t132.5 -164zM532 4l37 -31q191 -149 191 -243q0 -56 -23.5 -98.5t-64 -66t-89 -35 t-104.5 -11.5q-140 0 -237 64.5t-97 123.5q0 40 25 58t53 18q21 0 50 -20.5t55 -69.5q56 -107 153 -107q172 0 172 123q0 53 -172 185l-145 114q-138 107 -202 198t-64 216q0 120 40 214.5t106 150t145 84t163 28.5q186 0 299 -121t113 -305q0 -79 -25 -148t-64 -117.5 t-94.5 -90t-108 -67t-112.5 -46.5z" />
<glyph unicode="&#x18e;" horiz-adv-x="1146" d="M141 1321h684l267 2v-43q0 -14 -17 -14h-59q-57 0 -82 -23.5t-25 -71.5v-1024q0 -45 24 -68.5t83 -23.5h59q17 0 17 -14v-45l-265 4h-721l-51 328l54 10q27 -124 78.5 -191t146.5 -67h336q37 0 55 14t18 53v523h-278q-50 0 -72.5 -21.5t-32.5 -68.5l-12 -64 q0 -5 -4.5 -9.5t-11.5 -4.5h-47l-4 6q16 140 16 197q0 58 -16 194q0 8 6 8h45q6 0 10 -5t4 -11l14 -62q12 -48 32.5 -69t72.5 -21h278v435q0 36 -17.5 50.5t-55.5 14.5h-312q-73 0 -125.5 -67.5t-64.5 -143.5l-55 6z" />
<glyph unicode="&#x18f;" horiz-adv-x="1318" d="M199 1071l-47 49q70 66 114 101.5t102 68t121 45.5t146 13q128 0 232.5 -39.5t174.5 -105.5t118 -155t69.5 -184t21.5 -196q0 -202 -67.5 -356.5t-205.5 -245.5t-331 -91q-114 0 -206.5 30.5t-154.5 81.5t-105.5 123.5t-65.5 151.5t-29 170h979q2 23 2 76 q0 189 -58 341.5t-165 240.5t-242 88q-68 0 -125 -15.5t-109.5 -50.5t-83.5 -61.5t-85 -79.5zM250 442q47 -197 153 -297t259 -100q104 0 187 57.5t131 145t67 194.5h-797z" />
<glyph unicode="&#x190;" horiz-adv-x="1058" d="M604 1348q81 0 168 -29t127 -33l39 -293l-64 -10q-13 57 -24.5 94.5t-33.5 79t-50.5 65.5t-73.5 40t-104 16q-129 0 -209 -65.5t-80 -188.5q0 -34 7.5 -68.5t28.5 -72.5t53 -67.5t85 -48.5t121 -19h139q17 0 26 -11.5t9 -29.5q0 -39 -35 -39h-198q-78 0 -135.5 -25.5 t-88 -69t-44 -91t-13.5 -101.5q0 -89 23 -155.5t64.5 -105t93.5 -57t114 -18.5q44 0 87 10t87 33t80 57t65 86t43 117l62 -6l-35 -295q-41 -6 -104.5 -25.5t-129 -33t-137.5 -13.5q-57 0 -110 6.5t-110 21.5t-104 43t-85 67t-59 97t-21 130q0 79 26 146t70 112.5t94 75 t105 45.5q-30 11 -61 30t-70 53t-63.5 88t-24.5 118q0 67 26 124t70.5 96t102.5 66.5t121.5 40.5t129.5 13z" />
<glyph unicode="&#x191;" horiz-adv-x="976" d="M207 166v1003q0 48 -23 68.5t-82 24.5l-61 4q-16 1 -16 14v41l4 4q192 -4 260 -4h519q55 0 96 8q7 0 8 -6q17 -90 44 -297l-59 -10q-20 62 -35 96t-41 67t-64.5 46.5t-94.5 13.5h-216q-73 0 -73 -70v-430h260q52 0 74.5 20.5t27.5 65.5l6 52q0 6 4.5 11t10.5 5h45l8 -8 q-8 -109 -8 -185q0 -69 8 -178l-8 -6h-45q-7 0 -11 5.5t-4 10.5l-6 52q-4 44 -26.5 61t-75.5 17h-260v-451q0 -125 -30.5 -221t-74.5 -153t-110 -109q-94 -80 -234 -80q-42 0 -86.5 30t-44.5 80q0 31 26.5 52.5t51.5 21.5q29 0 51 -9t32 -19t23 -27q14 -19 26 -28t32 -9 q23 0 44 8.5t45.5 36t42 72t29 124t11.5 185.5z" />
<glyph unicode="&#x192;" horiz-adv-x="901" d="M354 799h-194q-10 0 -10 12v27q0 15 11 28t36 13h73q98 0 113 110q28 215 108.5 328t176.5 113q112 0 164.5 -43t52.5 -97q0 -32 -18 -54t-48 -22q-72 0 -80 52q-4 22 -11 42.5t-23.5 41t-38.5 20.5t-43 -18.5t-45 -80.5t-37 -163l-29 -229h227q17 0 17 -13v-41 q0 -12 -15.5 -19t-31.5 -7h-209l-4 -33q-70 -563 -88 -676q-53 -339 -127 -460q-63 -105 -166 -105q-78 0 -127 39.5t-49 75.5q0 26 18 47.5t47 21.5q53 0 72 -45q4 -8 7 -26.5t10.5 -28.5t27.5 -10q37 0 66 32.5t47.5 94t31.5 134t21.5 169t14.5 180.5t13.5 187.5 t14.5 172.5z" />
<glyph unicode="&#x193;" horiz-adv-x="1476" d="M1372 1522q38 0 56 -24.5t18 -49.5q0 -72 -103 -72q-7 0 -21 1t-19 1q-49 0 -76 -35.5t-34 -86.5q1 0 2.5 -0.5t2.5 -0.5q39 -172 47 -315q-31 -14 -67 -12q-18 60 -37 104.5t-53.5 92.5t-78.5 78.5t-112 50.5t-154 20q-89 0 -174 -44.5t-151 -122.5t-106 -192.5 t-40 -244.5q0 -82 20 -167.5t61.5 -166t99.5 -144t139.5 -101.5t175.5 -38q234 0 317 78v313q0 57 -35.5 74t-131.5 25q-9 9 -9 36.5t9 36.5q180 -4 253 -4q85 0 183 4q9 -9 9 -36.5t-9 -36.5q-48 -5 -71 -26.5t-23 -72.5v-237q0 -32 32 -57q-199 -170 -571 -170 q-191 0 -339 85.5t-227 232.5t-79 331q0 163 60.5 301.5t159.5 228t223 139.5t253 50q65 0 124.5 -9t91 -18t81.5 -27t68 -24q7 61 34 111t63 79.5t72.5 45.5t65.5 16z" />
</font>
</defs>
</svg>
